<svg xmlns="http://www.w3.org/2000/svg" xmlns:xlink="http://www.w3.org/1999/xlink" viewBox="0 0 15.999 336">
    <defs>
        <linearGradient id="a">
            <stop offset="0" stop-color="#21273c"/>
            <stop offset=".28" stop-color="#9ba4c1"/>
            <stop offset=".64" stop-color="#a2adcc"/>
            <stop offset=".83" stop-color="#8089a6"/>
            <stop offset="1" stop-color="#ff762a"/>
        </linearGradient>
        <linearGradient id="b" x1="7" x2="7" y1="336" y2="15.928" gradientUnits="userSpaceOnUse" xlink:href="#a"/>
    </defs>
    <path fill="url(#b)" d="M8 0a8 8 0 0 0-8 8 8 8 0 0 0 7 7.928V336h2V15.93A8 8 0 0 0 16 8a8 8 0 0 0-8-8zm0 2a6 6 0 0 1 6 6 6 6 0 0 1-6 6 6 6 0 0 1-6-6 6 6 0 0 1 6-6z"/>
</svg>
