<svg xmlns="http://www.w3.org/2000/svg" xmlns:xlink="http://www.w3.org/1999/xlink" viewBox="0 0 512 512"><defs><linearGradient id="a"><stop offset="0" stop-color="#008ccb" stop-opacity=".989"/></linearGradient><linearGradient xlink:href="#a" id="b" x1="50.044" y1="256.376" x2="461.857" y2="256.376" gradientUnits="userSpaceOnUse"/></defs><path d="M232.873 470.065C141.8 458.658 67.19 385.979 53.74 295.575c-3.475-23.365-.75-67.371 5.442-87.868 21.61-71.537 77.534-125.374 149.742-144.15 26.383-6.86 77.304-6.21 103.628 1.326 71.608 20.497 126.093 75.645 145.95 147.724 5.688 20.641 7.332 64.703 3.285 87.973-14.11 81.123-78.535 148.385-158.846 165.841-21.867 4.753-49.67 6.2-70.07 3.644zm46.481-163.252l.785-63.995-43.386-.533-1.57 127.99 43.386.533zm1.53-124.738l.267-21.692-43.387-.532-.532 43.385 43.386.533z" fill="url(#b)"/><path d="M238.21 181.586v-20.61h41.22v41.22h-41.22zm-2.17 157.634c0-16.516.641-44.828 1.424-62.916l1.424-32.887h40.543v20.261c0 11.144-.643 39.456-1.429 62.915l-1.429 42.654h-40.532z" fill="#fff"/></svg>