<?xml version="1.0" encoding="UTF-8" standalone="no"?>
<svg
   xmlns:dc="http://purl.org/dc/elements/1.1/"
   xmlns:cc="http://creativecommons.org/ns#"
   xmlns:rdf="http://www.w3.org/1999/02/22-rdf-syntax-ns#"
   xmlns:svg="http://www.w3.org/2000/svg"
   xmlns="http://www.w3.org/2000/svg"
   id="svg177"
   version="1.1"
   viewBox="0 0 63.500004 17.106195"
   height="17.106195mm"
   width="63.500004mm">
  <defs
     id="defs171" />
  <metadata
     id="metadata174">
    <rdf:RDF>
      <cc:Work
         rdf:about="">
        <dc:format>image/svg+xml</dc:format>
        <dc:type
           rdf:resource="http://purl.org/dc/dcmitype/StillImage" />
        <dc:title></dc:title>
      </cc:Work>
    </rdf:RDF>
  </metadata>
  <g
     transform="translate(-37.797617,-16.304043)"
     id="layer1">
    <g
       transform="matrix(0.03527778,0,0,-0.03527778,-38.402388,164.55715)"
       id="g12">
      <path
         id="path14"
         style="fill:#da000a;fill-opacity:1;fill-rule:evenodd;stroke:none"
         d="m 2403.74,4202.45 v -484.9 L 2160,3960 Z" />
      <path
         id="path16"
         style="fill:#da000a;fill-opacity:1;fill-rule:evenodd;stroke:none"
         d="m 2403.72,4202.45 h 483.78 l -242.8,-243.57 -241.9,242.65 0.92,0.92" />
      <path
         id="path18"
         style="fill:#da000a;fill-opacity:1;fill-rule:evenodd;stroke:none"
         d="m 2886.77,3717.55 v 484.9 L 3130.51,3960 Z" />
      <path
         id="path20"
         style="fill:#da000a;fill-opacity:1;fill-rule:evenodd;stroke:none"
         d="M 2886.79,3717.55 H 2403 l 242.82,243.58 241.89,-242.66 -0.92,-0.92" />
      <path
         id="path22"
         style="fill:#000000;fill-opacity:1;fill-rule:nonzero;stroke:none"
         d="m 3208.79,3859.83 h 44.78 V 3945 h 86.62 v -85.17 h 44.79 v 203.05 h -44.79 v -82.78 h -86.62 v 82.78 h -44.78 v -203.05" />
      <path
         id="path24"
         style="fill:#000000;fill-opacity:1;fill-rule:nonzero;stroke:none"
         d="m 3409.28,3922.81 c 0.29,-48.92 37.57,-67.53 79.87,-67.53 53.54,0 87.36,26.45 87.36,63.7 0,46.07 -45.03,53.97 -60.49,58.59 -48.97,14.63 -55.95,17.34 -55.95,32.98 0,17.07 16.86,24.74 30.66,24.74 19.61,0 31.77,-8.74 33.73,-29.27 h 44.77 c 0.61,43.9 -32.01,60.56 -76.57,60.56 -39.01,0 -79.09,-18.77 -79.09,-60.29 0,-38.11 31.84,-49.58 60.78,-58.58 31.81,-9.91 54.07,-10.07 54.07,-31.96 0,-19.91 -21.59,-27.48 -36.76,-27.48 -21.88,0 -35.9,9.94 -37.17,34.54 h -45.21" />
      <path
         id="path26"
         style="fill:#000000;fill-opacity:1;fill-rule:nonzero;stroke:none"
         d="m 3643.45,3948.56 h 36.68 c 19.16,0 34.77,-8.25 34.77,-29.01 0,-21.04 -17.54,-28.43 -35.6,-28.43 h -35.85 z m -43.87,-88.73 h 84.98 c 38.93,0 77.9,13.94 77.9,57.17 0,25.3 -16.48,42.66 -46.02,47.78 27.15,8.53 38.57,24.46 38.57,44.36 0,37.82 -32.35,53.74 -68.69,53.74 h -86.74 z m 43.87,170.92 h 32.57 c 15.55,0 33.39,-6.55 33.39,-25.88 0,-17.07 -14.79,-26.45 -30.06,-26.45 h -35.9 v 52.33" />
      <path
         id="path28"
         style="fill:#000000;fill-opacity:1;fill-rule:nonzero;stroke:none"
         d="m 3960,4001.76 c -1.97,41.01 -35.07,65.39 -81.66,65.39 -62.85,0 -98.4,-42.38 -98.4,-106.65 0,-68.8 32.71,-105.22 98.4,-105.22 46.32,0 79.21,25.08 81.23,65.26 h -46.12 c -4.37,-21.33 -17.68,-30.84 -37.1,-30.84 -37.54,0 -50.06,36.39 -50.06,70.24 0,35.54 14.51,72.51 52.62,72.51 19.48,0 32.23,-14.41 33.53,-30.69 H 3960" />
    </g>
    <g
       id="g143"
       transform="matrix(0.03527778,0,0,-0.03527778,-38.402388,164.55715)">
      <path
         d="m 2403.74,4202.45 v -484.9 L 2160,3960 Z"
         style="fill:#da000a;fill-opacity:1;fill-rule:evenodd;stroke:none"
         id="path127" />
      <path
         d="m 2403.72,4202.45 h 483.78 l -242.8,-243.57 -241.9,242.65 0.92,0.92"
         style="fill:#da000a;fill-opacity:1;fill-rule:evenodd;stroke:none"
         id="path129" />
      <path
         d="m 2886.77,3717.55 v 484.9 L 3130.51,3960 Z"
         style="fill:#da000a;fill-opacity:1;fill-rule:evenodd;stroke:none"
         id="path131" />
      <path
         d="M 2886.79,3717.55 H 2403 l 242.82,243.58 241.89,-242.66 -0.92,-0.92"
         style="fill:#da000a;fill-opacity:1;fill-rule:evenodd;stroke:none"
         id="path133" />
      <path
         d="m 3208.79,3859.83 h 44.78 V 3945 h 86.62 v -85.17 h 44.79 v 203.05 h -44.79 v -82.78 h -86.62 v 82.78 h -44.78 v -203.05"
         style="fill:#000000;fill-opacity:1;fill-rule:nonzero;stroke:none"
         id="path135" />
      <path
         d="m 3409.28,3922.81 c 0.29,-48.92 37.57,-67.53 79.87,-67.53 53.54,0 87.36,26.45 87.36,63.7 0,46.07 -45.03,53.97 -60.49,58.59 -48.97,14.63 -55.95,17.34 -55.95,32.98 0,17.07 16.86,24.74 30.66,24.74 19.61,0 31.77,-8.74 33.73,-29.27 h 44.77 c 0.61,43.9 -32.01,60.56 -76.57,60.56 -39.01,0 -79.09,-18.77 -79.09,-60.29 0,-38.11 31.84,-49.58 60.78,-58.58 31.81,-9.91 54.07,-10.07 54.07,-31.96 0,-19.91 -21.59,-27.48 -36.76,-27.48 -21.88,0 -35.9,9.94 -37.17,34.54 h -45.21"
         style="fill:#000000;fill-opacity:1;fill-rule:nonzero;stroke:none"
         id="path137" />
      <path
         d="m 3643.45,3948.56 h 36.68 c 19.16,0 34.77,-8.25 34.77,-29.01 0,-21.04 -17.54,-28.43 -35.6,-28.43 h -35.85 z m -43.87,-88.73 h 84.98 c 38.93,0 77.9,13.94 77.9,57.17 0,25.3 -16.48,42.66 -46.02,47.78 27.15,8.53 38.57,24.46 38.57,44.36 0,37.82 -32.35,53.74 -68.69,53.74 h -86.74 z m 43.87,170.92 h 32.57 c 15.55,0 33.39,-6.55 33.39,-25.88 0,-17.07 -14.79,-26.45 -30.06,-26.45 h -35.9 v 52.33"
         style="fill:#000000;fill-opacity:1;fill-rule:nonzero;stroke:none"
         id="path139" />
      <path
         d="m 3960,4001.76 c -1.97,41.01 -35.07,65.39 -81.66,65.39 -62.85,0 -98.4,-42.38 -98.4,-106.65 0,-68.8 32.71,-105.22 98.4,-105.22 46.32,0 79.21,25.08 81.23,65.26 h -46.12 c -4.37,-21.33 -17.68,-30.84 -37.1,-30.84 -37.54,0 -50.06,36.39 -50.06,70.24 0,35.54 14.51,72.51 52.62,72.51 19.48,0 32.23,-14.41 33.53,-30.69 H 3960"
         style="fill:#000000;fill-opacity:1;fill-rule:nonzero;stroke:none"
         id="path141" />
    </g>
  </g>
</svg>
