<svg xmlns="http://www.w3.org/2000/svg" version="1" width="154.204" height="154.15" viewBox="0 0 115.653 115.612">
  <path style="line-height:normal;font-variant-ligatures:normal;font-variant-position:normal;font-variant-caps:normal;font-variant-numeric:normal;font-variant-alternates:normal;font-feature-settings:normal;text-indent:0;text-align:start;text-decoration-line:none;text-decoration-style:solid;text-decoration-color:#000;text-transform:none;text-orientation:mixed;shape-padding:0;isolation:auto;mix-blend-mode:normal" d="M10.007 0A2.25 2.25 0 0 0 8.73.396l-7.705 5.29c-2.506 1.691.067 5.44 2.547 3.71l4.1-2.927v84.788c-4.475 1.855-7.48 6.27-7.48 11.396 0 6.786 5.548 12.337 12.333 12.337 5 0 9.32-2.857 11.252-7.158h85.464l-2.984 4.183c-1.784 2.488 2.028 5.107 3.71 2.548l5.29-7.706a2.25 2.25 0 0 0 0-2.547l-5.29-7.705a2.25 2.25 0 0 0-1.91-1.003c-1.81.03-2.845 2.074-1.8 3.55l2.759 3.854H95.523V14.717H12.497V6.582l3.938 2.814c2.484 1.755 5.078-2.022 2.549-3.71L11.277.395A2.25 2.25 0 0 0 10.007 0zm2.49 19.542h78.2v83.464H72.523V38.754H12.497zm64.656 8.168v5.797h5.796V27.71zM12.497 43.58h55.2v59.426H48.6v-41.02H12.497zm41.347 7.202v5.796h5.795v-5.796zm-41.347 16.03h31.278v36.194H24.833c.007-.172.026-.341.026-.515 0-6.786-5.386-12.172-12.171-12.172-.065 0-.127.01-.19.01zm18.037 7.28v5.795h5.796v-5.795zM12.525 94.819a7.8 7.8 0 0 1 7.834 7.834 7.802 7.802 0 0 1-7.834 7.837 7.803 7.803 0 0 1-7.834-7.837 7.8 7.8 0 0 1 7.834-7.834z" color="#000" font-weight="400" font-family="sans-serif" white-space="normal" overflow="visible" paint-order="fill markers stroke"></path>
</svg>