<svg xmlns="http://www.w3.org/2000/svg" width="100" height="100" viewBox="0 0 100 100">
  <path  fill="#081953"  fill-opacity=".978" d="M44.59 1.666c-.419.04-1.235.486-1.227.105C25.723 1.445 8.858 13.28 2.779 29.777-3.075 44.894.515 63.067 11.7 74.81c6.776 7.173 16.049 12.034 25.858 13.283-8.3-8.028-10.512-20.782-6.704-31.265-.898-3.998-4.346-5.348-5.966-9.263-2.32-2.969.407 3.047 1.382 4.304 1.15 3.583-1.861-1.433-1.9-1.557-.906-3.91-5.045-6.658-6.516-9.524-2.394-2.304-.707-7.794-.545-8.897 3.203.063-2.556-2.89-2.55-3.888-3.542-1.246-.194-4.908 1.831-7.051 2.78-2.952 5.968-5.81 9.703-7.395 1.837-.658 3.257 2.816 3.155.1 1.965-.17 3.17-.835 1.177-1.405-1.83-.339-6.212 2.415-2.299.216 2.304-1.548 4.787-1.404 4.552 1.36 2.413.163 5.141-.604 5.426 1.268-.817-1.947 3.45-2.213-.21-3.174-3.05-2.14 4.222-2.254 2.27.078 1.78.628 1.898 1.306 3.238.673.946 4.478 4.68-4.074 4.716.71 1.6 3.413-4.152-.416-4.14 3.489-3.502-.122-5.835 4.461-3.731 6.653 4.212.08 7.635 1.398 9.3 5.17 3.3.089-.781-3.483 2.582-4.066.88-1.66-2.108-2.451-.38-4.245-1.293-3.722 6.658-1.246 6.058 1.232-.455.194 1.446 1.095 1.108 1.025 2.153-1.17 3.19-1.939 4.625.815.383 3.386 3.779.902 4.02 3.494 2.235 1.049-2.536 3.207-2.976 2.871-2.183-1.085-7.202.759-6.795 2.372.436-2.564 6.553-1.194 2.587-.618 3.84.81-2.94 6.427 5.673 1.177 6.051-1.149 12.262-1.496 18.399-.934-5.289-17.01-21.95-29.737-39.815-30.01-.004-.125-.103-.156-.242-.144zm23.852 38.89a30.875 25.8 0 0 0-30.876 25.797 30.875 25.8 0 0 0 30.876 25.798 30.875 25.8 0 0 0 10.669-1.612c5.332 4.58 12.675 7.525 20.889 7.798-3.09-4.107-4.733-8.858-4.74-13.71 0-3.27.743-6.388 2.07-9.267a30.875 25.8 0 0 0 1.988-9.007 30.875 25.8 0 0 0-30.876-25.798zM64.389 54.36s.466 1.22.88 2.225a6.891 6.18 0 0 1 .343.865h8.082v2.056h-3.325a19.743 17.708 0 0 1-4.84 8.298 23.137 20.752 0 0 0 5.01 2.18l-.893 2.055a26.944 24.167 0 0 1-6.136-2.733 40.106 35.972 0 0 1-8.993 3.878 27.561 27.561 0 0 0-1.497-2.134 29.614 26.562 0 0 0 8.613-3.246 19.347 17.352 0 0 1-4.909-8.298H53.02v-2.056h9.872c-.345-.942-1.035-2.316-1.035-2.316zm-5.114 5.146a15.694 14.077 0 0 0 4.235 6.878 13.972 12.531 0 0 0 4.222-6.878zm17.088 1.823h3.256l7.858 17.757h-2.482a1.05.943 0 0 1-.687-.187 1.395 1.252 0 0 1-.399-.476l-1.602-3.975h-8.613l-1.722 3.924a1.327 1.19 0 0 1-.38.467 1.016.912 0 0 1-.691.216h-2.377zm1.64 2.706c-.104.381-.215.737-.33 1.067l-.325.865-2.725 6.475 6.773-.023-2.725-6.475a20.019 17.955 0 0 1-.668-1.91z"></path>
</svg>