<?xml version="1.0" encoding="utf-8"?>
<!-- Generator: Adobe Illustrator 18.0.0, SVG Export Plug-In . SVG Version: 6.00 Build 0)  -->
<!DOCTYPE svg PUBLIC "-//W3C//DTD SVG 1.1//EN" "http://www.w3.org/Graphics/SVG/1.1/DTD/svg11.dtd" [
	<!ENTITY ns_extend "http://ns.adobe.com/Extensibility/1.0/">
	<!ENTITY ns_ai "http://ns.adobe.com/AdobeIllustrator/10.0/">
	<!ENTITY ns_graphs "http://ns.adobe.com/Graphs/1.0/">
	<!ENTITY ns_vars "http://ns.adobe.com/Variables/1.0/">
	<!ENTITY ns_imrep "http://ns.adobe.com/ImageReplacement/1.0/">
	<!ENTITY ns_sfw "http://ns.adobe.com/SaveForWeb/1.0/">
	<!ENTITY ns_custom "http://ns.adobe.com/GenericCustomNamespace/1.0/">
	<!ENTITY ns_adobe_xpath "http://ns.adobe.com/XPath/1.0/">
]>
<svg version="1.1" id="Layer_1" xmlns:x="&ns_extend;" xmlns:i="&ns_ai;" xmlns:graph="&ns_graphs;"
	 xmlns="http://www.w3.org/2000/svg" xmlns:xlink="http://www.w3.org/1999/xlink" x="0px" y="0px" viewBox="202 0 204 200"
	 enable-background="new 202 0 204 200" xml:space="preserve">
<metadata>
	<sfw  xmlns="&ns_sfw;">
		<slices></slices>
		<sliceSourceBounds  width="197.7" height="197.7" y="1.2" x="207.2" bottomLeftOrigin="true"></sliceSourceBounds>
	</sfw>
</metadata>
<path fill="none" stroke="#8F919D" stroke-width="6" stroke-miterlimit="10" d="M256,135v18.1l-32.8,11.8c-7.9,2.8-13,10.3-13,18.6
	v12.4h125v-12.4c0-8.3-5.1-15.8-13-18.6l-32.8-11.8v-19.2"/>
<path fill="none" stroke="#8F919D" stroke-width="6" stroke-miterlimit="10" d="M304.7,100.4c0,21.8-14.7,39.5-32.9,39.5
	c-18.2,0-32.9-17.7-32.9-39.5S253.7,61,271.8,61S304.7,78.6,304.7,100.4z"/>
<path fill="none" stroke="#8F919D" stroke-width="6" stroke-miterlimit="10" d="M304.5,96.9c-1.1,0.1-2,0.1-3.1,0.3
	c-11.2,2.2-18.4-1.9-24.6-12.7c-3.7,7.1-15.3,12.7-24.7,12.7c-4.7,0-8.8-0.9-12.8-3 M293.5,54.2c0-27.6,24.3-50,54.2-50
	s54.2,22.4,54.2,50c0,20.8-13.8,38.6-33.3,46.2c-4.2,3.8-25,24.7-29.2,28.8c0-4.2,0-20.8,0-25.6c-4.4-0.6-8.7-1.8-12.7-3.3"/>
<path fill="#8F919D" stroke="#8F919D" stroke-width="6" stroke-miterlimit="10" d="M372.7,54.2h-8.3v8.3h8.3V54.2z M351.8,54.2h-8.3
	v8.3h8.3V54.2z M331,54.2h-8.3v8.3h8.3V54.2z"/>
</svg>
