<?xml version="1.0" encoding="UTF-8" standalone="no"?>
<svg
   xmlns:dc="http://purl.org/dc/elements/1.1/"
   xmlns:cc="http://creativecommons.org/ns#"
   xmlns:rdf="http://www.w3.org/1999/02/22-rdf-syntax-ns#"
   xmlns:svg="http://www.w3.org/2000/svg"
   xmlns="http://www.w3.org/2000/svg"
   xmlns:sodipodi="http://sodipodi.sourceforge.net/DTD/sodipodi-0.dtd"
   xmlns:inkscape="http://www.inkscape.org/namespaces/inkscape"
   width="366.21817"
   height="79.933121"
   viewBox="0 0 366.21817 79.933121"
   version="1.1"
   id="svg4"
   sodipodi:docname="coinbase.svg"
   inkscape:version="0.92.4 (unknown)">
  <metadata
     id="metadata10">
    <rdf:RDF>
      <cc:Work
         rdf:about="">
        <dc:format>image/svg+xml</dc:format>
        <dc:type
           rdf:resource="http://purl.org/dc/dcmitype/StillImage" />
      </cc:Work>
    </rdf:RDF>
  </metadata>
  <defs
     id="defs8" />
  <sodipodi:namedview
     pagecolor="#ffffff"
     bordercolor="#666666"
     borderopacity="1"
     objecttolerance="10"
     gridtolerance="10"
     guidetolerance="10"
     inkscape:pageopacity="0"
     inkscape:pageshadow="2"
     inkscape:window-width="1589"
     inkscape:window-height="929"
     id="namedview6"
     showgrid="false"
     inkscape:zoom="2.704918"
     inkscape:cx="183.10909"
     inkscape:cy="40.062541"
     inkscape:window-x="0"
     inkscape:window-y="0"
     inkscape:window-maximized="0"
     inkscape:current-layer="svg4" />
  <path
     d="m 28.503981,69.856118 c 2.838191,0 5.493273,-0.518809 7.995764,-1.525909 0,0.09156 5.096536,7.995764 5.18809,8.026282 A 30.151964,30.151964 0 0 1 27.00859,79.927118 C 11.35276,79.957638 0,69.611973 0,53.162673 c 0,-16.571373 11.90209,-26.856 27.00859,-26.856 5.340682,0 9.582709,1.159691 13.824736,3.418036 l -4.882909,8.239909 c -2.563527,-1.0071 -5.188091,-1.464872 -7.934727,-1.464872 -9.24701,0 -16.41878,5.890009 -16.41878,16.662927 0,10.193073 6.92763,16.693445 16.907071,16.693445 z M 67.96399,26.306673 c 15.381164,0 26.5203,10.894991 26.5203,26.856 0,15.869455 -11.139136,26.764445 -26.550818,26.764445 -15.259091,0 -26.398227,-10.89499 -26.398227,-26.764445 0,-15.961009 11.139136,-26.856 26.428745,-26.856 z m 0,9.826855 c -8.575609,0 -14.831836,6.622445 -14.831836,17.029145 0,10.315145 6.256227,16.937591 14.831836,16.937591 8.789236,0 14.953909,-6.622446 14.953909,-16.937591 0,-10.4067 -6.164673,-17.029145 -14.953909,-17.029145 z m 33.81414,42.6339 V 27.466364 h 11.47484 v 51.270545 h -11.47484 z m -1.5259,-67.078964 a 7.2022909,7.2022909 0 0 1 14.37406,0 7.3243636,7.3243636 0 0 1 -7.17177,7.324363 7.3243636,7.3243636 0 0 1 -7.17177,-7.324363 z m 23.01071,19.012827 a 68.787982,68.787982 0 0 1 23.49899,-4.394618 c 13.12282,0 21.42377,4.974464 21.42377,19.440082 V 78.767428 H 156.86345 V 46.814891 c 0,-7.415918 -4.60824,-10.071 -10.98654,-10.071 -4.05892,0 -8.11784,0.549327 -11.13914,1.495391 V 78.736909 H 123.29345 V 30.701291 Z M 177.79893,0 h 11.47483 v 28.839682 c 2.44146,-1.281764 7.17177,-2.533009 11.68847,-2.533009 14.83183,0 25.94045,9.460636 25.94045,25.940455 0,16.571372 -10.98655,27.67999 -29.96885,27.67999 -7.41592,0 -13.9163,-1.525909 -19.1349,-3.357 z m 11.47483,69.032128 c 2.19731,0.701918 5.09654,1.068136 7.99577,1.068136 10.52877,0 18.06676,-5.798455 18.06676,-17.608991 0,-9.979445 -7.08022,-15.869455 -15.74738,-15.869455 -4.51669,0 -7.99577,1.159691 -10.31515,2.441455 z m 70.80218,-24.658691 c 0,-5.554309 -4.2115,-8.117837 -9.88789,-8.117837 -5.89001,0 -10.52877,1.739537 -14.80131,4.180991 v -9.979445 a 34.210882,34.210882 0 0 1 16.66292,-4.150473 c 11.23069,0 19.22646,4.638764 19.22646,17.486918 v 33.936218 c -4.88291,1.281764 -11.81054,2.075237 -17.60899,2.075237 -13.30593,0 -23.04123,-4.0284 -23.04123,-15.625309 0,-10.437219 8.91131,-15.533755 23.74314,-15.533755 h 5.67639 v -4.272545 z m 0,11.902091 h -4.8829 c -7.99577,0 -13.21438,2.3499 -13.21438,7.568509 0,5.310163 4.88291,7.3854 11.81054,7.3854 1.73954,0 4.18099,-0.213628 6.25623,-0.549328 V 56.306046 Z m 19.53164,8.606127 a 26.917036,26.917036 0 0 0 15.65583,5.798454 c 5.09653,0 8.45353,-1.739536 8.45353,-5.798454 0,-4.180991 -3.0213,-5.676382 -9.61322,-7.415918 -10.68137,-2.441455 -15.16754,-6.714 -15.16754,-15.655828 0,-10.4067 7.87369,-15.503236 18.31091,-15.503236 5.79845,0 10.4067,1.251245 14.70976,3.936845 V 40.772291 A 23.773664,23.773664 0 0 0 297.58279,35.5842 c -4.97446,0 -7.62955,2.441455 -7.62955,5.798455 0,3.357 2.1668,5.066018 8.08732,6.714 11.71898,2.533009 16.785,6.927627 16.785,16.174636 0,10.803437 -8.20939,15.655827 -19.31801,15.655827 A 30.121445,30.121445 0 0 1 279.6381,75.776646 V 64.881655 Z M 330.54243,55.7262 v 0.213628 c 0.70191,9.155454 8.54509,14.160436 16.57137,14.160436 7.0497,0 12.14624,-1.647982 17.24277,-5.004982 v 10.071 c -4.63876,3.265446 -11.47483,4.760836 -18.06676,4.760836 -15.99153,0 -26.856,-10.193072 -26.856,-26.398227 0,-16.327227 10.65084,-27.222218 24.78076,-27.222218 14.95391,0 22.00361,9.613227 22.00361,23.621073 V 55.7262 h -35.70627 z m 24.90283,-7.415918 C 355.20112,40.314518 351.26427,35.9199 343.84835,35.9199 c -6.59192,0 -11.44431,4.638764 -12.97022,12.390382 z"
     id="path2"
     inkscape:connector-curvature="0"
     style="fill:#0667d0;fill-rule:evenodd;stroke-width:3.05181813" />
</svg>
