<?xml version="1.0" encoding="UTF-8" standalone="no"?>
<!-- Generator: Adobe Illustrator 19.2.1, SVG Export Plug-In . SVG Version: 6.00 Build 0)  -->

<svg
   xmlns:dc="http://purl.org/dc/elements/1.1/"
   xmlns:cc="http://creativecommons.org/ns#"
   xmlns:rdf="http://www.w3.org/1999/02/22-rdf-syntax-ns#"
   xmlns:svg="http://www.w3.org/2000/svg"
   xmlns="http://www.w3.org/2000/svg"
   xmlns:sodipodi="http://sodipodi.sourceforge.net/DTD/sodipodi-0.dtd"
   xmlns:inkscape="http://www.inkscape.org/namespaces/inkscape"
   version="1.1"
   id="layer"
   x="0px"
   y="0px"
   viewBox="0 0 600.09998 128.40001"
   xml:space="preserve"
   sodipodi:docname="iq-option-vector-logo.svg"
   width="600.09998"
   height="128.40001"
   inkscape:version="0.92.4 (unknown)"><metadata
   id="metadata15"><rdf:RDF><cc:Work
       rdf:about=""><dc:format>image/svg+xml</dc:format><dc:type
         rdf:resource="http://purl.org/dc/dcmitype/StillImage" /></cc:Work></rdf:RDF></metadata><defs
   id="defs13" /><sodipodi:namedview
   pagecolor="#ffffff"
   bordercolor="#666666"
   borderopacity="1"
   objecttolerance="10"
   gridtolerance="10"
   guidetolerance="10"
   inkscape:pageopacity="0"
   inkscape:pageshadow="2"
   inkscape:window-width="1892"
   inkscape:window-height="997"
   id="namedview11"
   showgrid="false"
   inkscape:zoom="1.0237865"
   inkscape:cx="697.8411"
   inkscape:cy="39.689587"
   inkscape:window-x="0"
   inkscape:window-y="0"
   inkscape:window-maximized="0"
   inkscape:current-layer="layer" />
<style
   type="text/css"
   id="style2">
	.st0{fill:#FF7700;}
	.st1{fill:#FFFFFF;}
</style>
<circle
   class="st0"
   cx="61.200001"
   cy="61.200001"
   r="61.200001"
   id="circle4"
   style="fill:#ff7700" />
<path
   class="st1"
   d="m 33.399998,49.700013 c -4.4,0 -8.3,3.6 -8.3,7.9 v 29.5 c 0,4.4 3.9,7.9 8.3,7.9 4.4,0 8.3,-3.6 8.3,-7.9 v -29.5 c 0.1,-4.4 -3.9,-7.9 -8.3,-7.9 z m 54.1,-28.6 c -4.9,0 -8.8,4 -8.8,8.9 v 57 c 0,4.9 3.9,8.9 8.8,8.9 4.9,0 8.8,-4 8.8,-8.9 v -57 c 0,-4.9 -4,-8.9 -8.8,-8.9 z m -27.3,16.4 c -4.3,0 -7.4,3.4 -7.4,7.7 v 43.1 c 0,4.3 3.1,7.7 7.4,7.7 4.3,0 7.4,-3.4 7.4,-7.7 v -43.1 c 0,-4.3 -3.2,-7.7 -7.4,-7.7 z"
   id="path6"
   inkscape:connector-curvature="0"
   style="fill:#ffffff" />
<path
   d="m 197.9,72.900013 c -4.9,1.7 -13.3,2.6 -18.9,2.6 h -4.6 v -39.9 c -2.7,0.4 -5.2,0.9 -7,1.6 v -11.3 c 5,-1.7 13.4,-2.6 18.9,-2.6 h 4.4 v 39.8 c 2.7,-0.4 5.2,-0.8 7,-1.6 z m -23.5,-68.9 h 16.4 v 13.5 h -16.4 z m 59.8,64.4 -3.7,2.6 c -4.8,3.2 -9,5.3 -14.6,5.3 -10.8,0 -16.7,-6.4 -16.7,-17.2 v -10.3 c 0,-15.6 11.9,-25.3 27.5,-25.3 h 23.8 v 70 h -16.4 z m 0,-11.9 v -19.7 h -6 c -8.2,0 -12.6,3.7 -12.6,11.9 v 7.4 c 0,4.1 1.8,5.9 5.9,5.9 3,0 6.7,-1.8 9.7,-3.7 z m 38.3,-7 c 0,-18.7 9.7,-26.9 26.8,-26.9 17.9,0 26.9,8.2 26.9,26.9 0,20 -9,26.8 -26.9,26.8 -17.1,0 -26.8,-6.8 -26.8,-26.8 z m 37.2,0 c 0,-9.3 -3,-12.7 -10.5,-12.7 -7.4,0 -10.3,3.3 -10.3,12.7 0,9.2 3,12.6 10.3,12.6 7.4,-0.1 10.5,-3.4 10.5,-12.6 z m 16.1,-23.6 c 5,-1.7 13.4,-2.6 18.9,-2.6 h 4.4 v 7 l 3.7,-2.6 c 4.8,-3.3 9,-5.3 14.6,-5.3 10.8,0 16.7,6.4 16.7,17.2 v 10.3 c 0,15.6 -11.9,25.3 -27.5,25.3 h -7.4 v 17.9 h -16.4 v -57.7 c -2.7,0.4 -5.2,0.9 -7,1.6 z m 23.4,16.5 v 19.8 h 6.1 c 8.1,0 12.6,-3.7 12.6,-11.9 v -7.4 c 0,-4.1 -1.9,-5.9 -6,-5.9 -3,0 -6.6,1.8 -9.7,3.7 0,-0.1 -3,1.7 -3,1.7 z m 73.2,31.9 c -3.5,1.2 -7.1,1.9 -10.6,1.9 -12.1,0 -20.7,-6.5 -20.7,-20.1 v -19.3 h -8.2 v -13.5 h 8.2 v -13.3 h 16.4 v 13.3 h 13.3 v 13.4 h -13.3 v 15.6 c 0,7.6 2.9,10.3 8.2,10.3 2,0 4.2,-0.6 6.7,-1.8 z m 26.5,-1.4 c -4.9,1.7 -13.3,2.6 -18.9,2.6 h -4.4 v -38.8 c -3,0.2 -4.6,0.1 -7,0.1 v -13.5 h 23.5 v 39.8 c 2.7,-0.4 5.2,-0.8 7,-1.6 z m -23.4,-68.9 h 16.4 v 13.5 h -16.4 z m 23.2,45.5 c 0,-18.7 9.7,-26.9 26.8,-26.9 17.9,0 26.9,8.2 26.9,26.9 0,20 -9,26.8 -26.9,26.8 -17.1,0 -26.8,-6.8 -26.8,-26.8 z m 37.3,0 c 0,-9.3 -3,-12.7 -10.5,-12.7 -7.4,0 -10.3,3.3 -10.3,12.7 0,9.2 3,12.6 10.3,12.6 7.4,-0.1 10.5,-3.4 10.5,-12.6 z m 80.9,23.4 c -5,1.7 -13.4,2.6 -18.9,2.6 h -4.6 v -32.1 c 0,-4.1 -0.7,-6.7 -4.9,-6.7 -3,0 -6.7,2.3 -10.1,4.5 l -3,1.8 v 32.4 H 509 v -40 c -2.7,0.4 -5.2,0.9 -7,1.6 v -11.3 c 5,-1.7 13.4,-2.6 18.9,-2.6 h 4.5 v 7.9 l 2.3,-1.6 c 5.9,-4.3 10.3,-7.1 17.1,-7.1 10.1,0 15,6.4 15,16.4 v 24.2 c 2.6,-0.4 5.1,-0.8 7,-1.6 z m 0,0 c -5,1.7 -13.4,2.6 -18.9,2.6 h -4.6 v -32.1 c 0,-4.1 -0.7,-6.7 -4.9,-6.7 -3,0 -6.7,2.3 -10.1,4.5 l -3,1.8 v 32.4 H 509 v -40 c -2.7,0.4 -13.7,3 -15.6,3.7 v -11.3 c 5,-1.7 22,-4.7 27.5,-4.7 h 4.5 v 7.9 l 2.3,-1.6 c 5.9,-4.3 10.3,-7.1 17.1,-7.1 10.1,0 15,6.4 15,16.4 v 24.2 c 2.6,-0.4 5.1,-0.8 7,-1.6 z m -376.6,26.5 v 15.199997 c 0,2.5 -0.7,4.3 -2.2,5.6 -1.5,1.3 -3.5,1.9 -5.9,1.9 -2.4,0 -4.3,-0.6 -5.8,-1.9 -1.5,-1.3 -2.2,-3.2 -2.2,-5.6 V 99.300013 h 1.8 v 15.299997 c 0,1.9 0.6,3.4 1.7,4.4 1.1,1 2.6,1.6 4.4,1.6 1.8,0 3.4,-0.6 4.5,-1.6 1.2,-1 1.8,-2.5 1.8,-4.4 V 99.300013 Z m 7.6,22.499997 h -1.8 V 97.700013 h 1.8 z m 8.5,-21.1 v 4.3 h 3.7 v 1.5 h -3.7 v 10.9 c 0,1.1 0.2,1.8 0.6,2.3 0.4,0.5 0.9,0.6 1.6,0.6 h 0.8 c 0.3,0 0.6,-0.1 1,-0.1 l 0.3,1.4 c -0.3,0.1 -0.6,0.3 -1.1,0.3 -0.5,0.1 -0.9,0.1 -1.3,0.1 -1.2,0 -2.1,-0.4 -2.8,-1.1 -0.7,-0.7 -1,-1.9 -1,-3.5 v -10.9 h -2.9 v -1.5 h 2.9 v -4.3 z m 10.3,-0.5 h -1.8 v -2.599997 h 1.8 z m 0,21.6 h -1.8 v -16.8 h 1.8 z m 7.1,-16.8 0.2,2.8 c 0.6,-1 1.3,-1.8 2.1,-2.3 0.8,-0.5 1.9,-0.8 3.2,-0.8 1.3,0 2.3,0.3 3.2,0.9 0.8,0.6 1.5,1.6 1.8,2.9 0.5,-1.2 1.2,-2.1 2.1,-2.8 0.9,-0.6 2,-1 3.4,-1 1.8,0 3.1,0.6 4.2,1.8 1.1,1.2 1.5,3 1.5,5.5 v 9.8 h -1.8 v -9.8 c 0,-2 -0.4,-3.5 -1.1,-4.4 -0.7,-0.8 -1.8,-1.3 -3,-1.3 -1.5,0 -2.6,0.5 -3.3,1.4 -0.7,0.9 -1.3,2 -1.5,3.5 v 10.6 H 233 v -9.8 c 0,-2 -0.4,-3.5 -1.1,-4.3 -0.7,-0.8 -1.8,-1.3 -3,-1.3 -1.3,0 -2.3,0.4 -3.1,1 -0.8,0.6 -1.3,1.6 -1.7,2.7 v 11.8 h -1.8 v -16.8 z m 37.7,16.8 c -0.1,-0.6 -0.2,-1 -0.3,-1.5 -0.1,-0.4 -0.1,-0.8 -0.1,-1.3 -0.6,0.9 -1.5,1.6 -2.5,2.2 -1,0.6 -2.2,0.8 -3.5,0.8 -1.7,0 -2.9,-0.5 -3.8,-1.3 -0.9,-0.8 -1.4,-2 -1.4,-3.5 0,-1.6 0.6,-2.8 2,-3.7 1.3,-0.9 3.1,-1.4 5.5,-1.4 h 3.7 v -2 c 0,-1.2 -0.4,-2.1 -1.2,-2.9 -0.7,-0.6 -1.8,-1 -3.2,-1 -1.3,0 -2.4,0.4 -3.2,1 -0.8,0.6 -1.3,1.5 -1.3,2.4 h -1.7 v -0.1 c -0.1,-1.3 0.6,-2.4 1.8,-3.3 1.2,-1 2.8,-1.5 4.6,-1.5 1.8,0 3.3,0.5 4.4,1.4 1.1,0.9 1.7,2.3 1.7,4.1 v 8.2 c 0,0.6 0,1.2 0.1,1.8 0.1,0.6 0.2,1.1 0.4,1.7 z m -6.1,-1.3 c 1.3,0 2.5,-0.3 3.5,-0.9 1,-0.6 1.8,-1.4 2.2,-2.4 v -3.5 h -3.7 c -1.7,0 -3,0.4 -4.1,1.1 -1,0.7 -1.5,1.6 -1.5,2.7 0,0.9 0.3,1.7 0.9,2.2 0.6,0.5 1.6,0.8 2.7,0.8 z m 16,-19.8 v 4.3 h 3.7 v 1.5 h -3.7 v 10.9 c 0,1.1 0.2,1.8 0.6,2.3 0.4,0.5 0.9,0.6 1.6,0.6 h 0.8 c 0.3,0 0.6,-0.1 1,-0.1 l 0.3,1.4 c -0.3,0.1 -0.6,0.3 -1.1,0.3 -0.5,0.1 -0.9,0.1 -1.3,0.1 -1.2,0 -2.1,-0.4 -2.8,-1.1 -0.6,-0.7 -1,-1.9 -1,-3.5 v -10.9 h -2.9 v -1.5 h 2.9 v -4.3 z m 14.4,21.5 c -2.1,0 -3.9,-0.7 -5.3,-2.3 -1.4,-1.6 -2.1,-3.5 -2.1,-5.9 v -0.8 c 0,-2.4 0.6,-4.4 2,-6 1.4,-1.6 3,-2.4 5,-2.4 2,0 3.7,0.6 4.9,1.9 1.2,1.3 1.8,3 1.8,5.2 v 1.6 h -11.8 v 0.5 c 0,1.8 0.5,3.5 1.5,4.7 1,1.3 2.3,1.9 4,1.9 1.2,0 2.1,-0.2 3,-0.5 0.8,-0.3 1.5,-0.7 2.1,-1.4 l 0.8,1.3 c -0.6,0.6 -1.4,1.2 -2.4,1.6 -1,0.4 -2.2,0.6 -3.5,0.6 z m -0.3,-15.9 c -1.4,0 -2.5,0.6 -3.4,1.6 -0.9,1 -1.5,2.4 -1.7,4 v 0.1 h 9.8 v -0.5 c 0,-1.5 -0.5,-2.7 -1.3,-3.7 -0.7,-1 -1.9,-1.5 -3.4,-1.5 z m 21.9,-5.6 v 4.3 h 3.7 v 1.5 h -3.7 v 10.9 c 0,1.1 0.2,1.8 0.6,2.3 0.4,0.5 0.9,0.6 1.6,0.6 h 0.8 c 0.3,0 0.6,-0.1 1,-0.1 l 0.3,1.4 c -0.3,0.1 -0.6,0.3 -1.1,0.3 -0.5,0 -0.9,0.1 -1.3,0.1 -1.2,0 -2.1,-0.4 -2.8,-1.1 -0.7,-0.7 -1,-1.9 -1,-3.5 v -10.9 h -2.9 v -1.5 h 2.9 v -4.3 c -0.1,0 1.9,0 1.9,0 z m 15.9,6 -1.4,-0.1 c -1.2,0 -2.1,0.4 -2.9,1 -0.7,0.6 -1.3,1.6 -1.6,2.7 v 11.5 h -1.8 v -16.8 h 1.7 l 0.3,2.8 v 0.2 c 0.5,-1 1.1,-1.8 1.9,-2.4 0.8,-0.6 1.8,-0.8 3,-0.8 0.3,0 0.5,0 0.6,0.1 0.2,0 0.4,0.1 0.6,0.1 z m 14.1,15.1 c -0.1,-0.6 -0.2,-1 -0.3,-1.5 -0.1,-0.4 -0.1,-0.8 -0.1,-1.3 -0.6,0.9 -1.5,1.6 -2.5,2.2 -1,0.6 -2.2,0.8 -3.5,0.8 -1.7,0 -2.9,-0.5 -3.8,-1.3 -0.9,-0.8 -1.4,-2 -1.4,-3.5 0,-1.6 0.6,-2.8 2,-3.7 1.3,-0.9 3.1,-1.4 5.5,-1.4 h 3.7 v -2 c 0,-1.2 -0.4,-2.1 -1.2,-2.9 -0.7,-0.6 -1.8,-1 -3.2,-1 -1.3,0 -2.4,0.4 -3.2,1 -0.8,0.6 -1.3,1.5 -1.3,2.4 h -1.7 v -0.1 c -0.1,-1.3 0.6,-2.4 1.8,-3.3 1.2,-1 2.8,-1.5 4.6,-1.5 1.8,0 3.3,0.5 4.4,1.4 1.1,0.9 1.7,2.3 1.7,4.1 v 8.2 c 0,0.6 0,1.2 0.1,1.8 0.1,0.6 0.2,1.1 0.4,1.7 z m -6.1,-1.3 c 1.3,0 2.5,-0.3 3.5,-0.9 1,-0.6 1.8,-1.4 2.2,-2.4 v -3.5 h -3.7 c -1.7,0 -3,0.4 -4.1,1.1 -1,0.7 -1.5,1.6 -1.5,2.7 0,0.9 0.3,1.7 0.9,2.2 0.8,0.5 1.6,0.8 2.7,0.8 z m 12.3,-6.9 c 0,-2.7 0.6,-4.8 1.7,-6.5 1.1,-1.6 2.7,-2.4 4.7,-2.4 1.2,0 2.2,0.3 3,0.7 0.8,0.5 1.6,1.2 2.1,2.1 v -9.999997 h 1.8 v 24.199997 h -1.7 l -0.2,-2.4 c -0.6,0.9 -1.3,1.6 -2.1,2 -0.8,0.5 -1.9,0.7 -3.1,0.7 -2,0 -3.6,-0.7 -4.7,-2.2 -1.1,-1.5 -1.7,-3.5 -1.7,-6 z m 1.9,0.3 c 0,2 0.4,3.7 1.2,4.9 0.8,1.2 2,1.8 3.7,1.8 1.2,0 2.2,-0.3 3,-0.8 0.8,-0.6 1.4,-1.3 1.8,-2.2 v -7.9 c -0.5,-1 -1,-1.8 -1.8,-2.4 -0.8,-0.6 -1.8,-0.9 -3,-0.9 -1.7,0 -2.9,0.6 -3.7,2 -0.8,1.4 -1.2,3 -1.2,5.3 z m 19.1,-13.7 h -1.8 v -2.599997 h 1.8 z m 0,21.6 h -1.8 v -16.8 h 1.8 z m 7.3,-16.8 0.2,3 c 0.6,-1 1.3,-1.8 2.2,-2.4 0.9,-0.6 2,-0.8 3.2,-0.8 1.8,0 3.2,0.6 4.2,1.7 0.9,1.1 1.4,2.9 1.4,5.2 v 10.3 h -1.8 v -10.3 c 0,-1.9 -0.4,-3.3 -1.1,-4.1 -0.7,-0.8 -1.8,-1.2 -3,-1.2 -1.3,0 -2.4,0.4 -3.2,1 -0.8,0.6 -1.4,1.6 -1.8,2.8 v 11.7 h -1.8 v -16.8 h 1.5 z m 15.8,8.6 c 0,-2.7 0.6,-4.8 1.8,-6.5 1.1,-1.6 2.8,-2.4 4.8,-2.4 1.2,0 2.2,0.3 3,0.7 0.8,0.5 1.6,1.3 2.1,2.2 l 0.2,-2.7 h 1.6 v 16.5 c 0,2.1 -0.6,3.9 -1.8,5.1 -1.2,1.3 -2.9,1.8 -5,1.8 -0.8,0 -1.7,-0.1 -2.6,-0.3 -0.9,-0.2 -1.7,-0.5 -2.4,-0.8 l 0.5,-1.6 c 0.6,0.4 1.4,0.6 2.1,0.7 0.7,0.2 1.5,0.3 2.4,0.3 1.7,0 2.9,-0.5 3.7,-1.4 0.8,-0.9 1.3,-2.2 1.3,-3.9 v -2.1 c -0.6,0.8 -1.3,1.5 -2.1,1.9 -0.8,0.5 -1.8,0.6 -3,0.6 -2,0 -3.6,-0.7 -4.7,-2.2 -1.1,-1.5 -1.8,-3.5 -1.8,-6 z m 1.8,0.3 c 0,2 0.4,3.6 1.2,4.9 0.8,1.2 2,1.8 3.7,1.8 1.2,0 2.2,-0.3 3,-0.8 0.8,-0.6 1.4,-1.3 1.8,-2.3 v -7.8 c -0.4,-1 -1,-1.8 -1.8,-2.4 -0.7,-0.6 -1.8,-0.9 -3,-0.9 -1.7,0 -2.9,0.6 -3.7,2 -0.8,1.4 -1.3,3.1 -1.3,5.3 z m 31.5,8.3 c -2.1,0 -3.9,-0.7 -5.3,-2.3 -1.4,-1.6 -2.1,-3.5 -2.1,-5.9 v -0.8 c 0,-2.4 0.6,-4.4 2,-6 1.4,-1.6 3,-2.4 5,-2.4 2,0 3.7,0.6 4.9,1.9 1.2,1.3 1.8,3 1.8,5.2 v 1.6 h -11.8 v 0.5 c 0,1.8 0.5,3.5 1.5,4.7 1,1.3 2.3,1.9 4,1.9 1.2,0 2.1,-0.2 3,-0.5 0.8,-0.3 1.5,-0.7 2.1,-1.4 l 0.8,1.3 c -0.6,0.6 -1.4,1.2 -2.4,1.6 -1,0.4 -2.1,0.6 -3.5,0.6 z m -0.2,-15.9 c -1.4,0 -2.5,0.6 -3.4,1.6 -0.9,1 -1.5,2.4 -1.7,4 v 0.1 h 9.8 v -0.5 c 0,-1.5 -0.5,-2.7 -1.3,-3.7 -0.8,-1 -1.9,-1.5 -3.4,-1.5 z m 16,5.6 4.5,-6.8 h 2.2 l -5.7,8.2 5.9,8.6 h -2.2 l -4.8,-7.1 -4.8,7.1 h -2.2 l 5.9,-8.6 -5.7,-8.2 h 2.2 c 0,0 4.7,6.8 4.7,6.8 z m 24.3,2 c 0,2.5 -0.6,4.5 -1.7,6 -1.1,1.5 -2.7,2.2 -4.7,2.2 -1.2,0 -2.2,-0.2 -3,-0.6 -0.9,-0.5 -1.6,-1.1 -2.1,-1.9 v 8.7 h -1.8 v -23.3 h 1.6 l 0.3,2.6 c 0.6,-0.9 1.3,-1.7 2.1,-2.1 0.9,-0.5 1.9,-0.7 3.1,-0.7 2,0 3.6,0.8 4.7,2.4 1.1,1.6 1.7,3.8 1.7,6.5 z m -1.8,-0.3 c 0,-2.1 -0.5,-3.9 -1.3,-5.2 -0.8,-1.3 -2.1,-2 -3.7,-2 -1.3,0 -2.3,0.3 -3,0.9 -0.7,0.6 -1.4,1.4 -1.8,2.3 v 8 c 0.5,0.9 1,1.7 1.8,2.2 0.8,0.6 1.8,0.8 3,0.8 1.7,0 2.9,-0.6 3.7,-1.8 0.8,-1.2 1.3,-2.9 1.3,-4.9 z m 12.7,8.6 c -2.1,0 -3.9,-0.7 -5.3,-2.3 -1.4,-1.6 -2.1,-3.5 -2.1,-5.9 v -0.8 c 0,-2.4 0.6,-4.4 2,-6 1.4,-1.6 3,-2.4 5,-2.4 2,0 3.7,0.6 4.9,1.9 1.2,1.3 1.8,3 1.8,5.2 v 1.6 h -11.8 v 0.5 c 0,1.8 0.5,3.5 1.5,4.7 1,1.3 2.3,1.9 4,1.9 1.2,0 2.1,-0.2 3,-0.5 0.8,-0.3 1.5,-0.7 2.1,-1.4 l 0.8,1.3 c -0.6,0.6 -1.4,1.2 -2.4,1.6 -1,0.4 -2.1,0.6 -3.5,0.6 z m -0.2,-15.9 c -1.4,0 -2.5,0.6 -3.4,1.6 -0.9,1 -1.5,2.4 -1.7,4 v 0.1 h 9.8 v -0.5 c 0,-1.5 -0.5,-2.7 -1.3,-3.7 -0.8,-1 -1.9,-1.5 -3.4,-1.5 z m 18.5,0.4 -1.4,-0.1 c -1.2,0 -2.1,0.4 -2.9,1 -0.8,0.6 -1.3,1.6 -1.6,2.7 v 11.5 h -1.8 v -16.8 h 1.7 l 0.3,2.8 v 0.2 c 0.5,-1 1.1,-1.8 1.9,-2.4 0.8,-0.6 1.8,-0.8 3,-0.8 0.3,0 0.5,0 0.6,0.1 0.2,0 0.4,0.1 0.6,0.1 z m 5.7,-6.5 h -1.8 v -2.599997 h 1.8 z m 0,21.6 h -1.8 v -16.8 h 1.8 z m 11.9,0.4 c -2.1,0 -3.9,-0.7 -5.3,-2.3 -1.4,-1.6 -2.1,-3.5 -2.1,-5.9 v -0.8 c 0,-2.4 0.6,-4.4 2,-6 1.4,-1.6 3,-2.4 5,-2.4 2,0 3.7,0.6 4.9,1.9 1.2,1.3 1.8,3 1.8,5.2 v 1.6 h -11.8 v 0.5 c 0,1.8 0.5,3.5 1.5,4.7 1,1.3 2.3,1.9 4,1.9 1.2,0 2.1,-0.2 3,-0.5 0.8,-0.3 1.5,-0.7 2.1,-1.4 l 0.8,1.3 c -0.6,0.6 -1.4,1.2 -2.4,1.6 -1,0.4 -2.1,0.6 -3.5,0.6 z m -0.2,-15.9 c -1.4,0 -2.5,0.6 -3.4,1.6 -0.9,1 -1.5,2.4 -1.7,4 v 0.1 h 9.8 v -0.5 c 0,-1.5 -0.5,-2.7 -1.3,-3.7 -0.8,-1 -2,-1.5 -3.4,-1.5 z m 12.4,-1.3 0.2,3 c 0.6,-1 1.3,-1.8 2.2,-2.4 0.9,-0.6 2,-0.8 3.2,-0.8 1.8,0 3.2,0.6 4.2,1.7 0.9,1.1 1.4,2.9 1.4,5.2 v 10.3 h -1.9 v -10.3 c 0,-1.9 -0.4,-3.3 -1.1,-4.1 -0.7,-0.8 -1.8,-1.2 -3,-1.2 -1.2,0 -2.4,0.4 -3.2,1 -0.8,0.6 -1.4,1.6 -1.8,2.8 v 11.7 h -1.9 v -16.8 c 0,-0.1 1.7,-0.1 1.7,-0.1 z m 22.7,15.6 c 1.2,0 2.3,-0.4 3.2,-1 0.9,-0.7 1.4,-1.7 1.4,-3 h 1.7 v 0.1 c 0.1,1.6 -0.6,2.9 -1.8,3.9 -1.3,1 -2.8,1.6 -4.5,1.6 -2.3,0 -4.1,-0.7 -5.3,-2.3 -1.2,-1.6 -1.8,-3.6 -1.8,-6 v -0.6 c 0,-2.4 0.6,-4.4 1.8,-6 1.2,-1.6 3,-2.4 5.3,-2.4 1.8,0 3.4,0.6 4.6,1.7 1.2,1.1 1.8,2.5 1.8,4.3 v 0.1 h -1.8 c 0,-1.4 -0.5,-2.4 -1.4,-3.2 -0.9,-0.8 -2,-1.2 -3.3,-1.2 -1.8,0 -3.1,0.6 -4,1.9 -0.8,1.3 -1.3,2.9 -1.3,4.9 v 0.6 c 0,1.9 0.5,3.6 1.3,4.9 1,1.1 2.3,1.7 4.1,1.7 z m 17,1.6 c -2.1,0 -3.9,-0.7 -5.3,-2.3 -1.4,-1.6 -2.1,-3.5 -2.1,-5.9 v -0.8 c 0,-2.4 0.6,-4.4 2,-6 1.4,-1.6 3,-2.4 5,-2.4 2,0 3.7,0.6 4.9,1.9 1.2,1.3 1.8,3 1.8,5.2 v 1.6 h -11.8 v 0.5 c 0,1.8 0.5,3.5 1.5,4.7 1,1.3 2.3,1.9 4,1.9 1.2,0 2.1,-0.2 3,-0.5 0.8,-0.3 1.5,-0.7 2.1,-1.4 l 0.8,1.3 c -0.6,0.6 -1.4,1.2 -2.4,1.6 -1,0.4 -2.1,0.6 -3.5,0.6 z m -0.2,-15.9 c -1.4,0 -2.5,0.6 -3.4,1.6 -0.9,1 -1.5,2.4 -1.7,4 v 0.1 h 9.8 v -0.5 c 0,-1.5 -0.5,-2.7 -1.3,-3.7 -0.8,-1 -1.9,-1.5 -3.4,-1.5 z m 36.8,-74.899997 c -2.4,2.3 -5.2,3.4 -8.5,3.4 -3.4,0 -6.3,-1.2 -8.7,-3.5 -2.3,-2.3 -3.5,-5.3 -3.5,-8.7 0,-3.5 1.3,-6.5 3.8,-8.9 2.4,-2.2 5.2,-3.3 8.4,-3.3 3.3,0 6.2,1.2 8.6,3.6 2.4,2.4 3.6,5.3 3.6,8.6 -0.1,3.6 -1.3,6.4 -3.7,8.8 z m -15.7,-15.8 c -1.9,1.9 -2.9,4.3 -2.9,7 0,2.8 1,5.2 3,7.2 1.9,1.9 4.3,3 7.1,3 2.8,0 5.1,-1 7.1,-3 1.9,-2 3,-4.3 3,-7.2 0,-2.7 -1,-5.1 -3,-7 -1.9,-2 -4.3,-3 -7.1,-3 -2.9,0 -5.3,1 -7.2,3 z m 1.8,13.9 v -13.5 h 6.6 c 1.1,0.1 1.9,0.3 2.7,0.7 1.2,0.6 1.8,1.8 1.8,3.2 0,1.1 -0.3,1.9 -0.9,2.5 -0.6,0.5 -1.4,0.8 -2.3,0.9 0.8,0.2 1.5,0.5 1.9,0.7 0.8,0.6 1.2,1.7 1.2,3 v 1.6 c 0,0.1 0.1,0.3 0.1,0.4 l 0.1,0.4 h -3.3 c -0.1,-0.5 -0.2,-1 -0.2,-1.8 0,-0.8 -0.1,-1.4 -0.2,-1.7 -0.2,-0.5 -0.5,-0.8 -1,-1 -0.3,-0.1 -0.6,-0.2 -1.2,-0.2 l -0.7,-0.1 h -0.7 v 4.8 z m 6.4,-10.8 c -0.5,-0.2 -1.2,-0.3 -2,-0.3 h -0.8 v 3.9 h 1.4 c 0.8,0 1.5,-0.2 1.9,-0.5 0.5,-0.4 0.7,-0.8 0.7,-1.6 0,-0.7 -0.5,-1.2 -1.2,-1.5 z"
   id="path8"
   inkscape:connector-curvature="0" />
</svg>