<svg xmlns="http://www.w3.org/2000/svg" viewBox="0 0 29.36 32" id="svg37">
  <defs id="defs7">
    <style id="style2">
      .cls-2{fill:none;stroke:#ff762a;stroke-miterlimit:10;stroke-width:2px}
    </style>
  </defs>
  <path class="cls-2" id="line11" fill="none" stroke="#ff762a" stroke-width="2" stroke-miterlimit="10" d="M21.17 21.76v-6.14"></path>
  <path id="line13" class="cls-2" fill="none" stroke="#ff762a" stroke-width="2" stroke-miterlimit="10" d="M21.17 32v-6.14"></path>
  <path id="line15" class="cls-2" fill="none" stroke="#ff762a" stroke-width="2" stroke-miterlimit="10" d="M23.22 23.81h6.14"></path>
  <path class="cls-2" id="line19" fill="none" stroke="#ff762a" stroke-width="2" stroke-miterlimit="10" d="M12.98 23.81h6.14"></path>
  <path id="path21" d="M23.25 18.7a3 3 0 0 1 3 3" class="cls-2" fill="none" stroke="#ff762a" stroke-width="2" stroke-miterlimit="10"></path>
  <path id="path23" d="M23.25 28.94a3 3 0 0 0 3-3" class="cls-2" fill="none" stroke="#ff762a" stroke-width="2" stroke-miterlimit="10"></path>
  <path id="path25" d="M19.12 18.7a3 3 0 0 0-3 3" class="cls-2" fill="none" stroke="#ff762a" stroke-width="2" stroke-miterlimit="10"></path>
  <path id="path27" d="M19.12 28.94a3 3 0 0 1-3-3" class="cls-2" fill="none" stroke="#ff762a" stroke-width="2" stroke-miterlimit="10"></path>
  <path id="polyline29" class="cls-2" fill="none" stroke="#ff762a" stroke-width="2" stroke-miterlimit="10" d="M13 31H1V1h16l8 8v5"></path>
  <path id="polyline31" class="cls-2" fill="none" stroke="#ff762a" stroke-width="2" stroke-miterlimit="10" d="M17 1v8h8"></path>
  <path id="rect4" fill="none" d="M0 0h29.36v32H0z"></path>
</svg>