<svg xmlns="http://www.w3.org/2000/svg" viewBox="0 0 32.01 31.94" id="svg31"><defs id="defs7"><style id="style2">.cls-3{fill:none;stroke:#ff762a;stroke-miterlimit:10;stroke-width:2px}</style></defs><path id="path11" d="M19.91 29A1.955 1.955 0 1 1 16 29V16" class="cls-3" fill="none" stroke="#ff762a" stroke-width="2" stroke-miterlimit="10"></path><path id="path13" d="M1 17.94V16a15 15 0 0 1 30 0v2" class="cls-3" fill="none" stroke="#ff762a" stroke-width="2" stroke-miterlimit="10"></path><path id="path15" d="M1 18a3.75 3.75 0 0 1 7.5 0" class="cls-3" fill="none" stroke="#ff762a" stroke-width="2" stroke-miterlimit="10"></path><path id="path17" d="M8.5 18a3.75 3.75 0 0 1 7.5 0" class="cls-3" fill="none" stroke="#ff762a" stroke-width="2" stroke-miterlimit="10"></path><path id="path19" d="M23.51 18A3.755 3.755 0 0 0 16 18" class="cls-3" fill="none" stroke="#ff762a" stroke-width="2" stroke-miterlimit="10"></path><path id="path21" d="M23.51 18A3.75 3.75 0 0 1 31 18" class="cls-3" fill="none" stroke="#ff762a" stroke-width="2" stroke-miterlimit="10"></path><path id="path23" d="M8.5 17.94V16c0-8.28 3.36-15 7.5-15 4.14 0 7.5 6.71 7.5 15v2" class="cls-3" fill="none" stroke="#ff762a" stroke-width="2" stroke-miterlimit="10"></path><path id="line25" class="cls-3" fill="none" stroke="#ff762a" stroke-width="2" stroke-miterlimit="10" d="M16 2v14"></path><path id="rect4" fill="none" d="M0 0h32.01v33.01H0z"></path></svg>