<svg xmlns="http://www.w3.org/2000/svg" width="32" height="32" viewBox="0 0 8.467 8.467">
  <path fill="#ff762a" d="M0 .003v8.463h8.53v-.529h-8V.003z" style="line-height:normal;font-variant-ligatures:normal;font-variant-position:normal;font-variant-caps:normal;font-variant-numeric:normal;font-variant-alternates:normal;font-feature-settings:normal;text-indent:0;text-align:start;text-decoration-line:none;text-decoration-style:solid;text-decoration-color:#000;text-transform:none;text-orientation:mixed;shape-padding:0;isolation:auto;mix-blend-mode:normal"></path>
  <g fill="#ff762a" color="#000" font-family="sans-serif" font-weight="400" white-space="normal">
    <path d="M.983 5.65v1.856h.53V5.65zM3.105 4.057v3.449h.53V4.059zM7.35 2.191v5.315h.53V2.19zM2.044 5.65v1.856h.53V5.65zM4.167 4.057v3.449h.53V4.059zM5.228 4.057v3.449h.53V4.059zM6.289 4.057v3.449h.53V4.059z" overflow="visible" style="line-height:normal;font-variant-ligatures:normal;font-variant-position:normal;font-variant-caps:normal;font-variant-numeric:normal;font-variant-alternates:normal;font-feature-settings:normal;text-indent:0;text-align:start;text-decoration-line:none;text-decoration-style:solid;text-decoration-color:#000;text-transform:none;text-orientation:mixed;shape-padding:0;isolation:auto;mix-blend-mode:normal"></path>
    <path d="M7.637.078a.808.808 0 0 0-.805.803c0 .117.028.229.074.33l-.733.824a.791.791 0 0 0-.364-.092.804.804 0 0 0-.758.55l-.968-.009a.804.804 0 0 0-.753-.535.808.808 0 0 0-.804.803c0 .126.032.244.085.35l-.515.492a.79.79 0 0 0-.327-.073.81.81 0 0 0-.804.805c0 .44.364.803.804.803.441 0 .803-.362.803-.803a.79.79 0 0 0-.094-.367l.508-.484c.105.05.221.082.344.082.35 0 .645-.23.755-.544l.973.009c.113.306.407.529.75.529a.81.81 0 0 0 .805-.805.789.789 0 0 0-.072-.327l.732-.826c.11.057.232.093.364.093.44 0 .803-.365.803-.805a.806.806 0 0 0-.803-.803zm0 .53c.154 0 .273.118.273.273a.27.27 0 0 1-.273.275.272.272 0 0 1-.276-.275.27.27 0 0 1 .276-.274zM5.809 2.472a.27.27 0 0 1 .275.273c0 .155-.12.276-.275.276a.27.27 0 0 1-.274-.276c0-.155.119-.273.274-.273zm-2.479.005c.155 0 .274.12.274.274a.27.27 0 0 1-.274.275.272.272 0 0 1-.275-.275.27.27 0 0 1 .275-.274zM1.77 4.051c.154 0 .275.12.275.275a.27.27 0 0 1-.276.273.27.27 0 0 1-.275-.273c0-.155.12-.275.275-.275z" overflow="visible" style="line-height:normal;font-variant-ligatures:normal;font-variant-position:normal;font-variant-caps:normal;font-variant-numeric:normal;font-variant-alternates:normal;font-feature-settings:normal;text-indent:0;text-align:start;text-decoration-line:none;text-decoration-style:solid;text-decoration-color:#000;text-transform:none;text-orientation:mixed;shape-padding:0;isolation:auto;mix-blend-mode:normal"></path>
  </g>
</svg>