<svg xmlns="http://www.w3.org/2000/svg" xmlns:xlink="http://www.w3.org/1999/xlink" viewBox="0 0 29.06 32"><defs><style>.cls-1,.cls-3{fill:none;}.cls-2{clip-path:url(#clip-path);}.cls-3{stroke:#ff762a;stroke-miterlimit:10;stroke-width:2px;}</style><clipPath id="clip-path"><rect class="cls-1" width="29.06" height="32"></rect></clipPath></defs><title>legal_policies</title><g id="Layer_2" data-name="Layer 2"><g id="Layer_1-2" data-name="Layer 1"><g class="cls-2"><rect class="cls-3" x="14" y="21" width="14.06" height="10"></rect></g><line class="cls-3" x1="21" y1="27.96" x2="21" y2="24"></line><g class="cls-2"><path class="cls-3" d="M25,21V16l-2-2H19l-2,2v5"></path><polyline class="cls-3" points="11 31 1 31 1 3 11 3 11 1 15 1 15 3 25 3 25 12"></polyline><polyline class="cls-3" points="9 3 9 7 17 7 17 3"></polyline><line class="cls-3" x1="21" y1="10" x2="21" y2="6"></line><polyline class="cls-3" points="5 6 5 27 11 27"></polyline><line class="cls-3" x1="9" y1="11" x2="17" y2="11"></line><line class="cls-3" x1="9" y1="15" x2="13" y2="15"></line><line class="cls-3" x1="9" y1="19" x2="11" y2="19"></line><line class="cls-3" x1="9" y1="23" x2="11" y2="23"></line></g></g></g></svg>