<svg xmlns="http://www.w3.org/2000/svg" viewBox="0 0 32.01 30" id="svg25"><defs id="defs7"><style id="style2">.cls-2{fill:none;stroke:#ff762a;stroke-miterlimit:10;stroke-width:2px}</style></defs><path class="cls-2" id="line11" fill="none" stroke="#ff762a" stroke-width="2" stroke-miterlimit="10" d="M24 17"></path><path class="cls-2" id="line13" fill="none" stroke="#ff762a" stroke-width="2" stroke-miterlimit="10" d="M23.01 17"></path><path class="cls-2" id="line15" fill="none" stroke="#ff762a" stroke-width="2" stroke-miterlimit="10" d="M18 17"></path><path id="path17" d="M20 24h4.94l5.76 5h.3V4a3 3 0 0 0-3-3H12a3 3 0 0 0-3 3" class="cls-2" fill="none" stroke="#ff762a" stroke-width="2" stroke-miterlimit="10"></path><path id="path19" d="M13 7H5a4 4 0 0 0-4 4v18h.3l5.76-5H13a4 4 0 0 0 4-4v-9a4 4 0 0 0-4-4z" class="cls-2" fill="none" stroke="#ff762a" stroke-width="2" stroke-miterlimit="10"></path><path id="rect4" fill="none" d="M0 0h32.01v30H0z"></path></svg>