<svg xmlns="http://www.w3.org/2000/svg" viewBox="0 0 29.04 32" id="svg25"><defs id="defs7"><style id="style2">.cls-3{fill:none;stroke:#ff762a;stroke-miterlimit:10;stroke-width:2px}</style></defs><path id="path11" d="M19.75 10a8.88 8.88 0 0 0-1-3.87 9.29 9.29 0 0 0-2.18-2.79 9.48 9.48 0 0 0-12.46 0A9.3 9.3 0 0 0 2 6.13a9.32 9.32 0 0 0 .13 8.5c1.35 2.62 8.28 13 8.28 17.37" class="cls-3" fill="none" stroke="#ff762a" stroke-width="2" stroke-miterlimit="10"></path><circle id="circle13" r="2" cy="10" cx="10.38" class="cls-3" fill="none" stroke="#ff762a" stroke-width="2" stroke-miterlimit="10"></circle><circle id="circle15" r="7" cy="23.75" cx="21.04" class="cls-3" fill="none" stroke="#ff762a" stroke-width="2" stroke-miterlimit="10"></circle><ellipse id="ellipse17" ry="7" rx="3" cy="23.75" cx="21.04" class="cls-3" fill="none" stroke="#ff762a" stroke-width="2" stroke-miterlimit="10"></ellipse><path id="line19" class="cls-3" fill="none" stroke="#ff762a" stroke-width="2" stroke-miterlimit="10" d="M28.04 23.75h-14"></path><path id="rect4" fill="none" d="M0 0h29.04v32H0z"></path></svg>