<svg xmlns="http://www.w3.org/2000/svg" viewBox="0 0 38.54 35.99" id="svg57"><defs id="defs7"><style id="style2">.cls-3{fill:none;stroke:#ff762a;stroke-miterlimit:10;stroke-width:2px}</style></defs><path id="path11" d="M22.4 21.25H20l-1.2 1.25v3.75L20 27.5h2.3" class="cls-3" fill="none" stroke="#ff762a" stroke-width="2" stroke-miterlimit="10"></path><path id="polyline13" class="cls-3" fill="none" stroke="#ff762a" stroke-width="2" stroke-miterlimit="10" d="M27.65 21.25h.52l6.87-2.5h2.5v11.24h-2.5l-6.87-2.49h-.58"></path><path id="line15" class="cls-3" fill="none" stroke="#ff762a" stroke-width="2" stroke-miterlimit="10" d="M34.54 22v5"></path><path id="polyline17" class="cls-3" fill="none" stroke="#ff762a" stroke-width="2" stroke-miterlimit="10" d="M22.55 28.12v6.87h2.5v-6.87"></path><path id="rect19" class="cls-3" fill="none" stroke="#ff762a" stroke-width="2" stroke-miterlimit="10" d="M22.54 20.63h5.01v7.49h-5.01z"></path><path id="polyline21" class="cls-3" fill="none" stroke="#ff762a" stroke-width="2" stroke-miterlimit="10" d="M14 27H1V3h30v11"></path><path id="line23" class="cls-3" fill="none" stroke="#ff762a" stroke-width="2" stroke-miterlimit="10" d="M0 31h14"></path><path id="line25" class="cls-3" fill="none" stroke="#ff762a" stroke-width="2" stroke-miterlimit="10" d="M26 0v6"></path><path id="line27" class="cls-3" fill="none" stroke="#ff762a" stroke-width="2" stroke-miterlimit="10" d="M19.33 0v6"></path><path id="line29" class="cls-3" fill="none" stroke="#ff762a" stroke-width="2" stroke-miterlimit="10" d="M12.67 0v6"></path><path id="line31" class="cls-3" fill="none" stroke="#ff762a" stroke-width="2" stroke-miterlimit="10" d="M6 0v6"></path><path id="line33" class="cls-3" fill="none" stroke="#ff762a" stroke-width="2" stroke-miterlimit="10" d="M1 9h30"></path><path id="line35" class="cls-3" fill="none" stroke="#ff762a" stroke-width="2" stroke-miterlimit="10" d="M17 14h2"></path><path id="line37" class="cls-3" fill="none" stroke="#ff762a" stroke-width="2" stroke-miterlimit="10" d="M21 14h2"></path><path id="line39" class="cls-3" fill="none" stroke="#ff762a" stroke-width="2" stroke-miterlimit="10" d="M25 14h2"></path><path id="line41" class="cls-3" fill="none" stroke="#ff762a" stroke-width="2" stroke-miterlimit="10" d="M5 18h2"></path><path id="line43" class="cls-3" fill="none" stroke="#ff762a" stroke-width="2" stroke-miterlimit="10" d="M9 18h2"></path><path id="line45" class="cls-3" fill="none" stroke="#ff762a" stroke-width="2" stroke-miterlimit="10" d="M13 18h2"></path><path id="line47" class="cls-3" fill="none" stroke="#ff762a" stroke-width="2" stroke-miterlimit="10" d="M5 22h2"></path><path id="line49" class="cls-3" fill="none" stroke="#ff762a" stroke-width="2" stroke-miterlimit="10" d="M9 22h2"></path><path id="line51" class="cls-3" fill="none" stroke="#ff762a" stroke-width="2" stroke-miterlimit="10" d="M13 22h2"></path><path id="rect4" fill="none" d="M0 0h38.54v35.99H0z"></path></svg>