<svg xmlns="http://www.w3.org/2000/svg" viewBox="0 0 23.03 28.35" id="svg20"><defs id="defs4"><style id="style2">.cls-1{fill:#ff762a}</style></defs><path class="cls-1" d="M22.77 5.57L17.46.26a.89.89 0 0 0-.63-.26H2.66A2.66 2.66 0 0 0 0 2.66v23a2.66 2.66 0 0 0 2.66 2.66h17.71A2.66 2.66 0 0 0 23 25.69V6.2a.89.89 0 0 0-.23-.63zm-1.51 20.12a.89.89 0 0 1-.89.89H2.66a.89.89 0 0 1-.89-.89v-23a.89.89 0 0 1 .89-.89h13.28v3.51a1.74 1.74 0 0 0 1.77 1.77h3.54z" id="path8" fill="#ff762a"></path><path class="cls-1" d="M8.86 6.2H5.31a.89.89 0 0 0-.89.89v14.17a.89.89 0 0 0 .26.63l1.77 1.77a.89.89 0 0 0 1.25 0l1.77-1.77a.89.89 0 0 0 .26-.63V7.09a.89.89 0 0 0-.87-.89zM8 20.89l-.89.89-.89-.89V12.4H8z" id="path10" fill="#ff762a"></path><path class="cls-1" d="M11.52 23.92h5.31a1.74 1.74 0 0 0 1.77-1.77h-7.08z" id="path12" fill="#ff762a"></path><path class="cls-1" id="rect14" fill="#ff762a" d="M13.08 13.29h5.52v1.77h-5.52z"></path><path class="cls-1" id="rect16" fill="#ff762a" d="M13.08 17.72h5.52v1.77h-5.52z"></path></svg>