<?xml version="1.0" encoding="utf-8"?>
<!-- Generator: Adobe Illustrator 17.0.0, SVG Export Plug-In . SVG Version: 6.00 Build 0)  -->
<!DOCTYPE svg PUBLIC "-//W3C//DTD SVG 1.1//EN" "http://www.w3.org/Graphics/SVG/1.1/DTD/svg11.dtd">
<svg version="1.1" id="Layer_1" xmlns="http://www.w3.org/2000/svg" xmlns:xlink="http://www.w3.org/1999/xlink" x="0px" y="0px"
	 width="229.05px" height="170.812px" viewBox="0 0 229.05 170.812" enable-background="new 0 0 229.05 170.812"
	 xml:space="preserve">
<pattern  x="-306.426" y="-212.944" width="42" height="42" patternUnits="userSpaceOnUse" id="New_Pattern_Swatch_1" viewBox="0 -42 42 42" overflow="visible">
	<g>
		<polygon fill="none" points="0,0 42,0 42,-42 0,-42 		"/>
		<polygon fill="#EF4523" points="42,0 0,0 0,-42 42,-42 		"/>
	</g>
</pattern>
<pattern  x="-306.426" y="-212.944" width="42" height="42" patternUnits="userSpaceOnUse" id="New_Pattern_Swatch_2" viewBox="0 -42 42 42" overflow="visible">
	<g>
		<polygon fill="none" points="0,0 42,0 42,-42 0,-42 		"/>
		<polygon fill="#EB1D25" points="42,0 0,0 0,-42 42,-42 		"/>
	</g>
</pattern>
<g>
	<path fill="#9C267F" d="M170.82,115.531c-8.551,0-16.068,2.627-16.068,2.627s-0.512,20.975,11.404,29.649
		c4.571,3.33,10.299,4.348,15.626,4.348c8.564,0,16.086-2.637,16.086-2.637s0.502-20.98-11.406-29.641
		C181.893,116.551,176.154,115.531,170.82,115.531"/>
	<path fill="#FFCB0A" d="M133.766,128.693c-8.305,4.963-17.449,8.877-27.379,10.928c-0.021,0.002-0.039,0.01-0.069,0.014
		c-1.35,3.775-1.562,7.992-0.35,12.135c2.504,8.576,10.349,14.146,18.867,14.146c1.836,0,3.699-0.26,5.546-0.801
		c10.423-3.035,16.398-13.969,13.354-24.4C142.151,135.289,138.436,131.068,133.766,128.693"/>
	<path fill="#8CC541" d="M213.786,112.971c-7.941,0-16.525,6.629-16.525,6.629s2.062,15.275,10.806,18.869
		c1.419,0.578,2.922,0.826,4.446,0.826c7.959,0,16.537-6.639,16.537-6.639s-2.057-15.248-10.853-18.865
		C216.789,113.217,215.298,112.971,213.786,112.971"/>
	<path fill="#EB2227" d="M188.235,13.717c-0.513,0-1.044,0.078-1.567,0.231c-2.947,0.857-4.63,3.947-3.767,6.893
		c0.713,2.43,2.909,4.002,5.329,4.002c0.51,0,1.039-0.066,1.56-0.225c2.952-0.863,4.646-3.941,3.774-6.898
		C192.868,15.295,190.647,13.717,188.235,13.717"/>
	<path fill="#2BA9E0" d="M40.167,7.924c-4.436,0-8.46,3.021-9.562,7.521c-1.28,5.279,1.955,10.615,7.248,11.908
		c0.774,0.187,1.562,0.283,2.333,0.283c4.444,0,8.465-3.029,9.565-7.533c1.29-5.285-1.964-10.611-7.247-11.9
		C41.722,8.014,40.939,7.924,40.167,7.924"/>
	<pattern  id="SVGID_1_" xlink:href="#New_Pattern_Swatch_2" patternTransform="matrix(1 0 0 1 -13.9199 -44.0576)">
	</pattern>
	<path fill="url(#SVGID_1_)" d="M147.006,65.092c-0.046,0.201-0.091,0.404-0.14,0.613c-5.46,22.427-25.544,37.469-47.644,37.469
		c-3.85,0-7.745-0.453-11.65-1.402C71.416,97.841,59.088,86.323,53.46,71.926c-3.145,12.221-14.169,20.392-26.288,20.392
		c-2.12,0-4.276-0.254-6.427-0.781c-1.551-0.373-3.027-0.869-4.43-1.488C8.725,100.447,4.674,108.24,4.674,108.24
		s11.249,9.172,28.411,17.854c4.094-16.168,18.702-26.967,34.803-26.967c2.84,0,5.729,0.336,8.615,1.037
		c18.227,4.438,29.819,21.887,27.22,39.955c0.865-0.143,1.734-0.312,2.596-0.484c2.048-5.732,6.721-10.439,13.009-12.283
		c1.845-0.531,3.708-0.793,5.539-0.793c3.129,0,6.175,0.754,8.9,2.135c11.765-7.047,21.818-16.197,29.928-25.154
		C151.682,94.991,144.957,80.26,147.006,65.092 M147.817,47.518c0.601,4.416,0.606,8.959-0.066,13.541
		c0.023-0.053,0.029-0.104,0.043-0.166c1-4.102,2.593-7.906,4.673-11.346C150.947,48.855,149.404,48.182,147.817,47.518"/>
	<g>
		<defs>
			<path id="SVGID_2_" d="M124.866,126.559c-1.831,0-3.694,0.262-5.539,0.793c-6.288,1.844-10.961,6.551-13.009,12.283
				c0.03-0.004,0.048-0.012,0.069-0.014c9.93-2.051,19.074-5.965,27.379-10.928C131.041,127.312,127.995,126.559,124.866,126.559"/>
		</defs>
		<use xlink:href="#SVGID_2_"  overflow="visible" fill="#F69321"/>
		<clipPath id="SVGID_3_">
			<use xlink:href="#SVGID_2_"  overflow="visible"/>
		</clipPath>
	</g>
	<path fill="#FFCB0A" d="M99.145,5.01c-22.111,0-42.186,15.045-47.652,37.49c-0.669,2.777-1.1,5.551-1.283,8.305
		c0.668,1.068,1.263,2.191,1.771,3.34c9.899-6.879,21.173-12.426,33.687-15.008c5.584-1.15,11.179-1.66,16.705-1.66
		c16.274,0,32.018,4.43,45.444,10.041c-2.632-19.428-16.84-36.188-37.028-41.105C106.884,5.463,102.994,5.01,99.145,5.01"/>
	<g>
		<defs>
			<path id="SVGID_4_" d="M102.373,37.477c-5.526,0-11.121,0.51-16.705,1.66c-12.514,2.582-23.788,8.129-33.687,15.008
				c2.357,5.293,3.037,11.373,1.566,17.428c-0.03,0.121-0.064,0.232-0.088,0.354c5.628,14.397,17.956,25.915,34.112,29.846
				c3.905,0.949,7.801,1.402,11.65,1.402c22.1,0,42.184-15.042,47.644-37.469c0.049-0.209,0.094-0.412,0.14-0.613
				c0.183-1.342,0.431-2.691,0.746-4.033c0.672-4.582,0.667-9.125,0.066-13.541C134.39,41.906,118.647,37.477,102.373,37.477"/>
		</defs>
		<pattern  id="SVGID_5_" xlink:href="#New_Pattern_Swatch_1" patternTransform="matrix(1 0 0 1 -13.9199 -44.0576)">
		</pattern>
		<use xlink:href="#SVGID_4_"  overflow="visible" fill="url(#SVGID_5_)"/>
		<clipPath id="SVGID_6_">
			<use xlink:href="#SVGID_4_"  overflow="visible"/>
		</clipPath>
	</g>
	<path fill="#159547" d="M187.149,29.955c-14.215,0-27.406,7.525-34.682,19.592c20.749,9.439,34.908,20.969,34.908,20.969
		s-8.399,16.161-23.682,33.023c4.079,2.889,8.76,5.074,13.904,6.338c3.214,0.779,6.428,1.154,9.602,1.154
		c18.252,0,34.835-12.436,39.346-30.977c5.297-21.73-8.047-43.658-29.779-48.949C193.548,30.328,190.329,29.955,187.149,29.955"/>
	<g>
		<defs>
			<path id="SVGID_7_" d="M152.468,49.547c-2.08,3.439-3.673,7.244-4.673,11.346c-0.014,0.062-0.02,0.113-0.043,0.166
				c-0.184,1.342-0.437,2.684-0.746,4.033c-2.049,15.168,4.677,29.899,16.689,38.447c15.283-16.862,23.682-33.023,23.682-33.023
				S173.217,58.986,152.468,49.547"/>
		</defs>
		<use xlink:href="#SVGID_7_"  overflow="visible" fill="#C21B1F"/>
		<clipPath id="SVGID_8_">
			<use xlink:href="#SVGID_7_"  overflow="visible"/>
		</clipPath>
	</g>
	<g>
		<defs>
			<path id="SVGID_9_" d="M147.752,61.059c-0.315,1.342-0.563,2.691-0.746,4.033C147.315,63.742,147.567,62.4,147.752,61.059"/>
		</defs>
		<clipPath id="SVGID_10_">
			<use xlink:href="#SVGID_9_"  overflow="visible"/>
		</clipPath>
		<g clip-path="url(#SVGID_10_)">
			
				<image overflow="visible" width="5" height="10" xlink:href="B107CC21FC8BB8BA.jpg"  transform="matrix(0.5988 0 0 -0.5988 145.9432 65.8887)">
			</image>
		</g>
	</g>
	<path fill="#2BA9E0" d="M27.143,37.996C14.906,38,3.802,46.314,0.779,58.729C-2.4,71.756,4.417,84.879,16.315,90.048
		c7.755-10.63,19.203-23.985,33.801-34.573c-0.037-1.549-0.012-3.105,0.094-4.67c-3.625-5.818-9.44-10.283-16.631-12.037
		C31.42,38.244,29.268,37.996,27.143,37.996"/>
	<path fill="#AC2A45" d="M50.116,55.475C35.518,66.062,24.07,79.418,16.315,90.048c1.402,0.619,2.879,1.115,4.43,1.488
		c2.15,0.527,4.307,0.781,6.427,0.781c12.119,0,23.143-8.171,26.288-20.392C51.434,66.742,50.273,61.186,50.116,55.475"/>
	<path fill="#F2C72E" d="M50.21,50.805c-0.105,1.564-0.131,3.121-0.094,4.67c0.614-0.447,1.239-0.885,1.865-1.33
		C51.472,52.996,50.878,51.873,50.21,50.805"/>
	<g>
		<defs>
			<path id="SVGID_11_" d="M51.981,54.145c-0.626,0.445-1.251,0.883-1.865,1.33c0.157,5.711,1.318,11.267,3.344,16.451
				c0.023-0.121,0.058-0.232,0.088-0.354C55.018,65.518,54.339,59.438,51.981,54.145"/>
		</defs>
		<use xlink:href="#SVGID_11_"  overflow="visible" fill="#F15B2A"/>
		<clipPath id="SVGID_12_">
			<use xlink:href="#SVGID_11_"  overflow="visible"/>
		</clipPath>
	</g>
	<path fill="#F2A91E" d="M33.085,126.094c-0.035,0.117-0.063,0.236-0.092,0.361c-4.678,19.182,7.224,38.609,26.572,43.322
		c2.879,0.701,5.762,1.035,8.591,1.035c16.232,0,30.939-10.975,34.918-27.307c0.271-1.127,0.491-2.26,0.648-3.387
		c-4.699,0.801-9.396,1.166-14.044,1.166C68.642,141.285,48.49,133.889,33.085,126.094"/>
	<g>
		<defs>
			<path id="SVGID_13_" d="M67.888,99.127c-16.101,0-30.709,10.799-34.803,26.967c15.405,7.795,35.558,15.191,56.594,15.191
				c4.648,0,9.345-0.365,14.044-1.166c2.6-18.068-8.993-35.518-27.22-39.955C73.616,99.463,70.727,99.127,67.888,99.127"/>
		</defs>
		<pattern  id="SVGID_14_" xlink:href="#New_Pattern_Swatch_1" patternTransform="matrix(1 0 0 1 -13.9199 -44.0576)">
		</pattern>
		<use xlink:href="#SVGID_13_"  overflow="visible" fill="url(#SVGID_14_)"/>
		<clipPath id="SVGID_15_">
			<use xlink:href="#SVGID_13_"  overflow="visible"/>
		</clipPath>
	</g>
	<path fill="#2BA9E0" d="M159.074,0c-7.542,0-14.389,5.127-16.25,12.779c-2.18,8.965,3.319,18.025,12.308,20.207
		c1.325,0.33,2.655,0.482,3.967,0.482c7.535,0,14.38-5.139,16.24-12.787c2.192-8.973-3.322-18.024-12.304-20.201
		C161.706,0.148,160.378,0,159.074,0"/>
	<g>
		<path fill="#FFFFFF" d="M59.1,94.003c-1.59-3.467-3.523-4.918-7-4.918c-4.929,0-7.346,4.918-7.346,12.655
			c0,7.352,2.757,11.982,7.386,11.982c4.357,0,7.157-2.896,7.296-6.904h-6.614v-5.609h13.049v17.637h-4.833v-3.572
			c-2.8,3.094-5.41,4.053-9.086,4.053c-9.462,0-13.864-7.533-13.864-17.393c0-8.89,3.387-18.455,14.544-18.455
			c6.953,0,11.016,3.768,12.657,8.892L59.1,94.003z"/>
		<path fill="#FFFFFF" d="M80.947,93.239c6.8,0,10.905,5.069,10.905,13.046c0,7.965-4.105,13.041-10.905,13.041
			c-6.822,0-10.929-5.076-10.929-13.041C70.018,98.309,74.125,93.239,80.947,93.239z M80.947,98.067
			c-3.34,0-4.941,2.618-4.941,8.218c0,5.604,1.602,8.213,4.941,8.213c3.322,0,4.921-2.609,4.921-8.213
			C85.868,100.686,84.269,98.067,80.947,98.067z"/>
		<path fill="#FFFFFF" d="M94.899,93.72h18.6v4.252l-12.082,16.044h12.178v4.83h-19.72v-4.252l12.131-16.039H94.899V93.72z"/>
		<path fill="#FFFFFF" d="M126.541,93.239c6.812,0,10.924,5.069,10.924,13.046c0,7.965-4.112,13.041-10.924,13.041
			c-6.808,0-10.918-5.076-10.918-13.041C115.623,98.309,119.733,93.239,126.541,93.239z M126.541,98.067
			c-3.332,0-4.934,2.618-4.934,8.218c0,5.604,1.602,8.213,4.934,8.213c3.339,0,4.932-2.609,4.932-8.213
			C131.472,100.686,129.88,98.067,126.541,98.067z"/>
	</g>
	<g>
		<path fill="#FFFFFF" d="M62.483,59.055h3.255l7.245,24.092h0.078l7.294-24.092h3.29L74.532,88.44H71.56L62.483,59.055z"/>
		<path fill="#FFFFFF" d="M91.497,58.643v3.5h-2.932v-3.5H91.497z M88.565,67.271h2.932V88.44h-2.932V67.271z"/>
		<path fill="#FFFFFF" d="M98.981,83.061c1.382,1.998,3.42,3.263,6.07,3.263c3.166,0,4.554-1.714,4.554-3.503
			c0-5.373-12.535-2.521-12.29-10.254c0.122-3.66,2.928-5.74,7.007-5.697c2.763,0.043,5.813,1.541,7.245,3.703l-2.041,1.793
			c-1.632-1.998-3.173-2.975-5.452-2.975c-2.484,0-3.831,1.264-3.831,3.133c0,4.6,12.301,2.238,12.301,10.139
			c0,4.11-3.583,6.183-7.408,6.183c-3.301,0-6.519-1.424-8.476-4.03L98.981,83.061z"/>
		<path fill="#FFFFFF" d="M120.876,58.643v3.5h-2.933v-3.5H120.876z M117.943,67.271h2.933V88.44h-2.933V67.271z"/>
		<path fill="#FFFFFF" d="M129.256,67.271v-6.957h2.933v6.957h4.886v2.525h-4.886v15.062c0,0.975,0.69,1.464,2.394,1.464
			c0.982,0,1.841-0.082,2.611-0.206v2.401c-0.531,0.162-1.712,0.326-3.419,0.326c-3.174,0-4.52-0.814-4.52-3.499V69.797h-3.465
			v-2.525H129.256z"/>
	</g>
	
		<linearGradient id="SVGID_16_" gradientUnits="userSpaceOnUse" x1="-301.639" y1="368.1569" x2="-299.1865" y2="368.1569" gradientTransform="matrix(-77.0222 232.883 232.883 77.0222 -108769.0547 41906.1953)">
		<stop  offset="0" style="stop-color:#E97850"/>
		<stop  offset="0.5" style="stop-color:#E22428"/>
		<stop  offset="1" style="stop-color:#CC2128"/>
	</linearGradient>
	<path fill="url(#SVGID_16_)" d="M154.897,147.012c-0.865,0-1.741,0.123-2.6,0.377c-4.909,1.43-7.713,6.561-6.279,11.473
		c1.184,4.045,4.863,6.658,8.874,6.658c0.848,0,1.729-0.115,2.596-0.377c4.896-1.426,7.718-6.561,6.28-11.482
		C162.597,149.631,158.899,147.012,154.897,147.012"/>
</g>
</svg>
