<svg xmlns="http://www.w3.org/2000/svg" width="32" height="33" viewBox="0 0 32 33">
  <path style="line-height:normal;font-variant-ligatures:normal;font-variant-position:normal;font-variant-caps:normal;font-variant-numeric:normal;font-variant-alternates:normal;font-feature-settings:normal;text-indent:0;text-align:start;text-decoration-line:none;text-decoration-style:solid;text-decoration-color:#000;text-transform:none;text-orientation:mixed;shape-padding:0;isolation:auto;mix-blend-mode:normal" d="M15.822.04V.04l-.5.29L.074 9.145v4.237h.858v14.08h-.72v5.494h31.714v-5.494h-.908v-14.08h.699V9.145zm.004 2.31l13.89 7.955v1.078H2.075v-1.08zm-.246 2.18a2.728 2.728 0 0 0-2.713 2.712 2.728 2.728 0 0 0 2.713 2.713 2.728 2.728 0 0 0 2.713-2.713A2.728 2.728 0 0 0 15.58 4.53zm0 2c.406 0 .713.307.713.712a.698.698 0 0 1-.713.713.698.698 0 0 1-.713-.713c0-.405.307-.713.713-.713zM2.982 13.382h1.955v14.08H2.982zm4.055 0h1.906v14.08H7.037zm3.906 0h2.004v14.08h-2.004zm4.004 0h2.006v14.08h-2.006zm4.006 0h2.004v14.08h-2.004zm4.004 0h2.006v14.08h-2.006zm4.006 0h2.006v14.08h-2.006zm-24.75 16.08h27.713v1.494H2.213z" fill="#ff762a"></path>
</svg>