<svg xmlns="http://www.w3.org/2000/svg" width="32" height="32" viewBox="0 0 32 32">
  <path d="M29 27h-7v3h3v2H7v-2h3v-3H3c-1.654 0-3-1.346-3-3V3c0-1.654 1.346-3 3-3h26c1.654 0 3 1.346 3 3v21c0 1.654-1.346 3-3 3zm-17 3h8v-3h-8zM30 3c0-.551-.448-1-1-1H3c-.552 0-1 .449-1 1v17h28zm0 19H2v2c0 .551.448 1 1 1h26c.552 0 1-.449 1-1zM11.707 7.707L8.414 11l3.293 3.293-1.414 1.414L5.586 11l4.707-4.707zm6.263 7.05l-1.94.486-2-8 1.94-.486zm3.737-8.464L26.414 11l-4.707 4.707-1.414-1.414L23.586 11l-3.293-3.293z" fill="#ff762a" fill-rule="evenodd"></path>
</svg>