<svg xmlns="http://www.w3.org/2000/svg" width="32.158" height="32.913" viewBox="0 0 8.509 8.708">
  <path fill="#ff762a" stroke="none" stroke-width="1.935" d="M3.155 0l-.78 1.373.22.127.24.136-1.308 2.298-.46-.262-.842 1.48.222.127 2.504 1.426.844-1.48-.538-.307.515-.904 4.484 2.548.252-.445-4.485-2.548.54-.948.529.301.78-1.375zm.19.7l1.83 1.038-.275.485-1.828-1.041zM3.28 1.888l.84.479-1.307 2.296L2 4.203l-.026-.015zM1.258 4.371l1.838 1.045-.336.59L.924 4.96z" color="#000" font-family="sans-serif" font-weight="400" overflow="visible" style="line-height:normal;font-variant-ligatures:normal;font-variant-position:normal;font-variant-caps:normal;font-variant-numeric:normal;font-variant-alternates:normal;font-feature-settings:normal;text-indent:0;text-align:start;text-decoration-line:none;text-decoration-style:solid;text-decoration-color:#000;text-transform:none;text-orientation:mixed;shape-padding:0;isolation:auto;mix-blend-mode:normal" white-space="normal"></path>
  <path fill="#ff762a" d="M0 7.139v1.568h4.795V7.139zm.512.511h3.771v.545H.512z" color="#000" font-family="sans-serif" font-weight="400" overflow="visible" style="line-height:normal;font-variant-ligatures:normal;font-variant-position:normal;font-variant-caps:normal;font-variant-numeric:normal;font-variant-alternates:normal;font-feature-settings:normal;text-indent:0;text-align:start;text-decoration-line:none;text-decoration-style:solid;text-decoration-color:#000;text-transform:none;text-orientation:mixed;shape-padding:0;isolation:auto;mix-blend-mode:normal" white-space="normal"></path>
</svg>