<svg xmlns="http://www.w3.org/2000/svg" viewBox="0 0 32 30" id="svg33"><defs id="defs7"><style id="style2">.cls-3{fill:none;stroke:#ff762a;stroke-linejoin:round;stroke-width:2px}</style></defs><path id="polyline11" class="cls-3" fill="none" stroke="#ff762a" stroke-width="2" stroke-linejoin="round" d="M16 23H1V1h30v22h-3"></path><path id="path13" d="M27 11V7a2 2 0 0 1-2-2H7a2 2 0 0 1-2 2v10a2 2 0 0 1 2 2h8" class="cls-3" fill="none" stroke="#ff762a" stroke-width="2" stroke-linejoin="round"></path><circle id="circle15" r="4" cy="17" cx="22" class="cls-3" fill="none" stroke="#ff762a" stroke-width="2" stroke-linejoin="round"></circle><path id="polyline17" class="cls-3" fill="none" stroke="#ff762a" stroke-width="2" stroke-linejoin="round" d="M19 20v9l3-2 3 2v-9"></path><path id="line19" class="cls-3" fill="none" stroke="#ff762a" stroke-width="2" stroke-linejoin="round" d="M22 27v-3"></path><path id="line21" class="cls-3" fill="none" stroke="#ff762a" stroke-width="2" stroke-linejoin="round" d="M15 9h2"></path><path id="line23" class="cls-3" fill="none" stroke="#ff762a" stroke-width="2" stroke-linejoin="round" d="M11 9h2"></path><path id="line25" class="cls-3" fill="none" stroke="#ff762a" stroke-width="2" stroke-linejoin="round" d="M19 9h2"></path><path id="line27" class="cls-3" fill="none" stroke="#ff762a" stroke-width="2" stroke-linejoin="round" d="M9 13h6"></path><path id="rect4" fill="none" d="M0 0h32v30H0z"></path></svg>