<svg xmlns="http://www.w3.org/2000/svg" viewBox="0 0 32 27.539" height="27.539" width="32">
  <path d="M8.446 16.963l2.765 8.585h2.657l-2.764-8.585zM28.018 7.27v5.98a3.22 3.22 0 0 0 1.991-2.99 3.22 3.22 0 0 0-1.99-2.99zM7.847 6.84h2.476v2.535H7.847zm-3.802-.543a3.483 3.483 0 0 0-.484.256c-.563.364-1.026.878-1.204 1.403-.468 1.387-.468 3.217 0 4.604.178.525.641 1.04 1.204 1.402a3.61 3.61 0 0 0 .484.257zm1.99-1.413l.002 10.089h7.99V4.884zM24.413 1.99L16.02 6.014v7.376l8.43 4.748h1.577V1.991zM23.962 0h4.055v5.188C30.295 5.75 32 7.813 32 10.259c0 2.445-1.705 4.507-3.983 5.072v4.798h-4.091l-7.908-4.453v1.287h-2.824l3.404 10.576H9.76L6.35 16.963H4.045v-.619a5.573 5.573 0 0 1-1.564-.709c-.84-.541-1.64-1.339-2.01-2.436a9.419 9.419 0 0 1 0-5.88c.37-1.097 1.17-1.893 2.011-2.437a5.601 5.601 0 0 1 1.563-.71V2.893H16.02v.91z" fill="#ff762a"></path>
</svg>