<svg xmlns="http://www.w3.org/2000/svg" viewBox="0 0 39.19 37.55" id="svg49"><defs id="defs7"><style id="style2">.cls-3{fill:none;stroke:#ff762a;stroke-miterlimit:10;stroke-width:2px}</style></defs><path id="line11" class="cls-3" fill="none" stroke="#ff762a" stroke-width="2" stroke-miterlimit="10" d="M31 6.14V0"></path><path class="cls-3" id="line15" fill="none" stroke="#ff762a" stroke-width="2" stroke-miterlimit="10" d="M31 16.37v-6.13"></path><path id="line17" class="cls-3" fill="none" stroke="#ff762a" stroke-width="2" stroke-miterlimit="10" d="M33.05 8.19h6.14"></path><path class="cls-3" id="line21" fill="none" stroke="#ff762a" stroke-width="2" stroke-miterlimit="10" d="M22.82 8.19h6.13"></path><path id="path23" d="M33.08 3.08a3 3 0 0 1 3 3" class="cls-3" fill="none" stroke="#ff762a" stroke-width="2" stroke-miterlimit="10"></path><path id="path25" d="M33.08 13.31a3 3 0 0 0 3-3" class="cls-3" fill="none" stroke="#ff762a" stroke-width="2" stroke-miterlimit="10"></path><path id="path27" d="M29 3.08a3 3 0 0 0-3 3" class="cls-3" fill="none" stroke="#ff762a" stroke-width="2" stroke-miterlimit="10"></path><path id="path29" d="M29 13.31a3 3 0 0 1-3-3" class="cls-3" fill="none" stroke="#ff762a" stroke-width="2" stroke-miterlimit="10"></path><path id="path31" d="M5.17 14.54H3l-2 2v6l2 2h2" class="cls-3" fill="none" stroke="#ff762a" stroke-width="2" stroke-miterlimit="10"></path><path id="polyline33" class="cls-3" fill="none" stroke="#ff762a" stroke-width="2" stroke-miterlimit="10" d="M31 18.54v10h-4l-11-3.99h-.92"></path><path id="polyline35" class="cls-3" fill="none" stroke="#ff762a" stroke-width="2" stroke-miterlimit="10" d="M15.17 14.54H16l6.21-2.25"></path><path id="line37" class="cls-3" fill="none" stroke="#ff762a" stroke-width="2" stroke-miterlimit="10" d="M9 16.54v2"></path><path id="polyline39" class="cls-3" fill="none" stroke="#ff762a" stroke-width="2" stroke-miterlimit="10" d="M10 29.54h5v-4"></path><path id="polyline41" class="cls-3" fill="none" stroke="#ff762a" stroke-width="2" stroke-miterlimit="10" d="M7 25.54v11.01h4v-11"></path><path id="rect43" class="cls-3" fill="none" stroke="#ff762a" stroke-width="2" stroke-miterlimit="10" d="M5 13.54h10v12H5z"></path><path id="rect4" fill="none" d="M0 0h39.19v37.55H0z"></path></svg>