<svg xmlns="http://www.w3.org/2000/svg" viewBox="0 0 31 32" id="svg29"><defs id="defs7"><style id="style2">.cls-3,.cls-4{fill:none;stroke:#ff762a;stroke-width:2px}.cls-3{stroke-miterlimit:10}.cls-4{stroke-linejoin:round}</style></defs><path id="path11" d="M16.85 21.83L26 31h4v-4l-9.15-9.17a2.83 2.83 0 1 0-4 4z" class="cls-3" fill="none" stroke="#ff762a" stroke-width="2" stroke-miterlimit="10"></path><path id="line13" class="cls-3" fill="none" stroke="#ff762a" stroke-width="2" stroke-miterlimit="10" d="M22.01 18.99l-3.89 3.89"></path><path id="path15" d="M22.52 15.23A11 11 0 1 0 8 22.24V26h8" class="cls-4" fill="none" stroke="#ff762a" stroke-width="2" stroke-linejoin="round"></path><path id="line17" class="cls-4" fill="none" stroke="#ff762a" stroke-width="2" stroke-linejoin="round" d="M7 29h10"></path><path id="line19" class="cls-4" fill="none" stroke="#ff762a" stroke-width="2" stroke-linejoin="round" d="M10 31h4"></path><path id="path21" d="M12 26V12a2 2 0 0 1-2-2" class="cls-4" fill="none" stroke="#ff762a" stroke-width="2" stroke-linejoin="round"></path><path id="path23" d="M12 12a2 2 0 0 0 2-2" class="cls-4" fill="none" stroke="#ff762a" stroke-width="2" stroke-linejoin="round"></path><path id="rect4" fill="none" d="M0 0h31v32H0z"></path></svg>