<svg xmlns="http://www.w3.org/2000/svg" viewBox="0 0 31.99 31.97" id="svg30"><defs id="defs4"><style id="style2">.cls-1{fill:none;stroke:#ff762a;stroke-miterlimit:10;stroke-width:2px}.cls-2{fill:#ff762a}</style></defs><path class="cls-1" d="M5 31a4 4 0 0 1-4-4V8h8V1h22v26.65A3.33 3.33 0 0 1 27.67 31H5" id="path8" fill="none" stroke="#ff762a" stroke-width="2" stroke-miterlimit="10"></path><path class="cls-1" d="M1 27a4 4 0 0 0 8 0V5" id="path10" fill="none" stroke="#ff762a" stroke-width="2" stroke-miterlimit="10"></path><path class="cls-1" id="line12" fill="none" stroke="#ff762a" stroke-width="2" stroke-miterlimit="10" d="M12 25.47h16"></path><path class="cls-1" id="line14" fill="none" stroke="#ff762a" stroke-width="2" stroke-miterlimit="10" d="M21.58 11.06H28"></path><path class="cls-1" id="line16" fill="none" stroke="#ff762a" stroke-width="2" stroke-miterlimit="10" d="M21.58 7.27h3.38"></path><path class="cls-2" d="M17.67 10H14V6h3.67zm2-6H12v8h7.67z" id="path18" fill="#ff762a"></path><path class="cls-1" id="line20" fill="none" stroke="#ff762a" stroke-width="2" stroke-miterlimit="10" d="M21.58 21.34H28"></path><path class="cls-1" id="line22" fill="none" stroke="#ff762a" stroke-width="2" stroke-miterlimit="10" d="M21.58 17.55h3.38"></path><path class="cls-2" d="M17.67 20.28H14v-4h3.67zm2-6H12v8h7.67z" id="path24" fill="#ff762a"></path><path id="rect26" fill="none" d="M0 0h31.99v31.97H0z"></path></svg>