<svg xmlns="http://www.w3.org/2000/svg" viewBox="0 0 31.99 32.02" id="svg22"><defs id="defs4"><style id="style2">.cls-1{fill:none;stroke:#ff762a;stroke-miterlimit:10;stroke-width:2px}</style></defs><path class="cls-1" d="M22 14v-1.38c0-.59-.07-1.12-.63-1.32l-3.25-1.67V8.22l1.46-1.58v-3.1a1.41 1.41 0 0 0-.49-1.07l-1.26-1.13a1.41 1.41 0 0 0-.91-.34H15.3a1.41 1.41 0 0 0-.92.34l-1.29 1.13a1.41 1.41 0 0 0-.49 1.06v3.11l1.49 1.58v1.41l-3.47 1.66c-.56.2-.61.73-.61 1.33V14z" id="path8" fill="none" stroke="#ff762a" stroke-width="2" stroke-miterlimit="10"></path><path class="cls-1" d="M14 31v-1.37a1.63 1.63 0 0 0-1.15-1.32l-3.24-1.67v-1.4l1.46-1.58v-3.1a1.41 1.41 0 0 0-.49-1.07l-1.25-1.14a1.41 1.41 0 0 0-.92-.35H6.79a1.41 1.41 0 0 0-.92.34l-1.29 1.14a1.41 1.41 0 0 0-.49 1.06v3.11l1.49 1.58v1.41L2.11 28.3A1.59 1.59 0 0 0 1 29.63V31z" id="path10" fill="none" stroke="#ff762a" stroke-width="2" stroke-miterlimit="10"></path><path class="cls-1" d="M31 31v-1.37a1.61 1.61 0 0 0-1.13-1.32l-3.24-1.66v-1.41l1.46-1.58v-3.1a1.41 1.41 0 0 0-.49-1.07l-1.26-1.13a1.41 1.41 0 0 0-.92-.34H23.8a1.41 1.41 0 0 0-.92.34l-1.28 1.12a1.41 1.41 0 0 0-.49 1.06v3.11l1.49 1.58v1.41l-3.48 1.66A1.6 1.6 0 0 0 18 29.63V31z" id="path12" fill="none" stroke="#ff762a" stroke-width="2" stroke-miterlimit="10"></path><path class="cls-1" d="M22.7 5.67a11 11 0 0 1 4.38 8.79v.84" id="path14" fill="none" stroke="#ff762a" stroke-width="2" stroke-miterlimit="10"></path><path class="cls-1" d="M9.54 5.62a11 11 0 0 0-4.45 8.84v.88" id="path16" fill="none" stroke="#ff762a" stroke-width="2" stroke-miterlimit="10"></path><path class="cls-1" d="M19.07 25a11.08 11.08 0 0 1-5.9 0" id="path18" fill="none" stroke="#ff762a" stroke-width="2" stroke-miterlimit="10"></path></svg>