<svg xmlns="http://www.w3.org/2000/svg" width="34.26" height="34.578" viewBox="0 0 34.26 34.578">
  <path d="M24.508 0v6.393c-1.161.16-2.072 1.157-2.072 2.359 0 1.311 1.08 2.39 2.39 2.39a2.402 2.402 0 0 0 2.39-2.39c0-1.073-.727-1.98-1.708-2.28V0zM8.248 0v6.988a2.399 2.399 0 0 0-1.115 2.014c0 1.311 1.08 2.39 2.39 2.39a2.402 2.402 0 0 0 2.391-2.39c0-1.191-.894-2.184-2.041-2.357V0zM4.557.35a2.403 2.403 0 0 0-2.391 2.39c0 .98.605 1.83 1.457 2.197v6.913c0 1.384 1.138 2.513 2.514 2.53l.011.003H9.33V12.78H6.158c-.54-.007-.935-.4-.935-.931V5.023c.99-.292 1.726-1.204 1.726-2.283A2.404 2.404 0 0 0 4.557.35zm24.338 0a2.403 2.403 0 0 0-2.391 2.39c0 1.03.67 1.907 1.592 2.24v5.895c0 .987-.755 1.723-1.754 1.723h-1.334v1.6h1.334c1.832 0 3.353-1.479 3.353-3.323V4.98c.92-.333 1.59-1.21 1.59-2.24 0-1.31-1.08-2.39-2.39-2.39zM4.557 1.95a.78.78 0 0 1 .79.79.78.78 0 0 1-.79.791.78.78 0 0 1-.791-.79.78.78 0 0 1 .79-.792zm24.338 0a.78.78 0 0 1 .79.79.78.78 0 0 1-.79.791.78.78 0 0 1-.791-.79.78.78 0 0 1 .79-.792zm-4.069 6.01a.78.78 0 0 1 .791.792.78.78 0 0 1-.79.791.78.78 0 0 1-.792-.791.78.78 0 0 1 .791-.791zm-15.303.25a.78.78 0 0 1 .791.792.78.78 0 0 1-.79.791.78.78 0 0 1-.792-.791.78.78 0 0 1 .791-.791zm7.204 1.536c-3.98 0-7.275 3.041-7.678 6.918H4.633c-.334-.921-1.21-1.592-2.24-1.592A2.406 2.406 0 0 0 0 17.465a2.404 2.404 0 0 0 2.393 2.39c1.03 0 1.907-.67 2.24-1.591h4.416c.402 3.877 3.697 6.918 7.678 6.918 4.105 0 7.408-3.257 7.634-7.307a1 1 0 0 0 .082-.41 1.002 1.002 0 0 0-.084-.416C24.13 13 20.83 9.746 16.727 9.746zm0 2c3.17 0 5.716 2.55 5.716 5.719a5.701 5.701 0 0 1-5.716 5.717 5.703 5.703 0 0 1-5.72-5.717c0-3.17 2.55-5.719 5.72-5.719zm15.142 3.326c-1.14 0-2.103.818-2.336 1.893h-4.006v1h4.006a2.406 2.406 0 0 0 2.336 1.89c1.311 0 2.39-1.08 2.39-2.39a2.404 2.404 0 0 0-2.39-2.393zM2.393 16.674a.78.78 0 0 1 .79.79.78.78 0 0 1-.79.792.78.78 0 0 1-.791-.791.78.78 0 0 1 .79-.791zm29.476 0a.78.78 0 0 1 .791.79.78.78 0 0 1-.79.792.78.78 0 0 1-.792-.791.78.78 0 0 1 .791-.791zm-6.674 3.752v1.601h.813c.56 0 1.065.214 1.469.618.395.395.619.93.619 1.49v5.812c-.921.334-1.592 1.21-1.592 2.24a2.402 2.402 0 0 0 2.39 2.391 2.402 2.402 0 0 0 2.391-2.39c0-1.03-.67-1.907-1.59-2.24v-6.089h-.027a3.694 3.694 0 0 0-1.059-2.345 3.682 3.682 0 0 0-2.601-1.088zm-18.31.129c-1.376.018-2.514 1.146-2.514 2.53v6.77a2.406 2.406 0 0 0-1.88 2.332 2.404 2.404 0 0 0 2.392 2.391c1.31 0 2.39-1.08 2.39-2.39 0-.918-.535-1.714-1.302-2.114v-6.988c0-.532.395-.925.935-.932h1.758v-1.6h-1.77v.727zm10.138 5.084a2.403 2.403 0 0 0-2.39 2.39 2.4 2.4 0 0 0 1.543 2.227v4.275h1.6v-4.246c.944-.32 1.638-1.209 1.638-2.256 0-1.31-1.08-2.39-2.39-2.39zm0 1.6a.78.78 0 0 1 .791.79.78.78 0 0 1-.79.791.78.78 0 0 1-.792-.79.78.78 0 0 1 .791-.792zm-5.878.355v6.937h1.601v-6.937zm10.25.093v6.844h1.601v-6.843zm-16.512 3.71a.78.78 0 0 1 .79.79.78.78 0 0 1-.79.792.78.78 0 0 1-.791-.792.78.78 0 0 1 .79-.79zm24.012 0a.78.78 0 0 1 .79.79.78.78 0 0 1-.79.792.78.78 0 0 1-.791-.792.78.78 0 0 1 .79-.79z" font-weight="400" overflow="visible" style="line-height:normal;font-variant-ligatures:normal;font-variant-position:normal;font-variant-caps:normal;font-variant-numeric:normal;font-variant-alternates:normal;font-feature-settings:normal;text-indent:0;text-align:start;text-decoration-line:none;text-decoration-style:solid;text-decoration-color:#000;text-transform:none;text-orientation:mixed;shape-padding:0;isolation:auto;mix-blend-mode:normal" color="#000" font-family="sans-serif" white-space="normal" fill="#ff762a"></path>
</svg>