<?xml version="1.0" encoding="UTF-8" standalone="no"?>
<svg
   xmlns:dc="http://purl.org/dc/elements/1.1/"
   xmlns:cc="http://creativecommons.org/ns#"
   xmlns:rdf="http://www.w3.org/1999/02/22-rdf-syntax-ns#"
   xmlns:svg="http://www.w3.org/2000/svg"
   xmlns="http://www.w3.org/2000/svg"
   xmlns:sodipodi="http://sodipodi.sourceforge.net/DTD/sodipodi-0.dtd"
   xmlns:inkscape="http://www.inkscape.org/namespaces/inkscape"
   viewBox="0 0 359.48002 59.94"
   version="1.1"
   id="svg12"
   sodipodi:docname="oppo.svg"
   width="359.48001"
   height="59.939999"
   inkscape:version="0.92.4 (unknown)">
  <metadata
     id="metadata16">
    <rdf:RDF>
      <cc:Work
         rdf:about="">
        <dc:format>image/svg+xml</dc:format>
        <dc:type
           rdf:resource="http://purl.org/dc/dcmitype/StillImage" />
      </cc:Work>
    </rdf:RDF>
  </metadata>
  <sodipodi:namedview
     pagecolor="#ffffff"
     bordercolor="#666666"
     borderopacity="1"
     objecttolerance="10"
     gridtolerance="10"
     guidetolerance="10"
     inkscape:pageopacity="0"
     inkscape:pageshadow="2"
     inkscape:window-width="1955"
     inkscape:window-height="977"
     id="namedview14"
     showgrid="false"
     inkscape:zoom="0.92"
     inkscape:cx="179.745"
     inkscape:cy="29.970001"
     inkscape:window-x="0"
     inkscape:window-y="0"
     inkscape:window-maximized="0"
     inkscape:current-layer="svg12" />
  <defs
     id="defs4">
    <style
       id="style2">.cls-1{fill:#2c8853;}</style>
  </defs>
  <title
     id="title6">oppo</title>
  <g
     id="Layer_2"
     data-name="Layer 2">
    <g
       id="Layer_1-2"
       data-name="Layer 1">
      <path
         class="cls-1"
         d="m 316.94,0.51 c -23.49,0 -42.54,9.49 -42.54,21.19 0,11.7 19,21.19 42.54,21.19 23.54,0 42.54,-9.49 42.54,-21.19 C 359.48,10 340.44,0.51 316.94,0.51 Z M 311,37.94 c -16.69,0 -30.22,-7.42 -30.22,-16.56 0,-9.14 13.54,-16.57 30.22,-16.57 16.68,0 30.23,7.41 30.23,16.56 0,9.15 -13.53,16.57 -30.23,16.57 z M 271,21.7 c 0,11.7 -19,21.19 -42.54,21.19 -13.19,0 -25,-3 -32.78,-7.68 V 59.94 H 180.3 V 0 h 15.36 v 16.57 0 V 29 c 5,5.32 15.16,9 26.85,9 16.69,0 30.23,-7.41 30.23,-16.56 0,-9.15 -13.53,-16.63 -30.22,-16.63 a 50.45,50.45 0 0 0 -15,2.17 V 3.25 A 77.83,77.83 0 0 1 228.45,0.51 C 251.95,0.51 271,10 271,21.7 Z m -93.41,0 c 0,11.7 -19,21.19 -42.54,21.19 -13.19,0 -25,-3 -32.78,-7.68 V 59.94 H 86.9 V 0 h 15.35 v 16.57 0 V 29 c 5,5.32 15.16,9 26.85,9 16.69,0 30.23,-7.41 30.23,-16.56 0,-9.15 -13.53,-16.63 -30.22,-16.63 a 50.44,50.44 0 0 0 -15,2.17 V 3.25 A 77.82,77.82 0 0 1 135,0.51 c 23.54,0 42.58,9.49 42.58,21.19 z M 42.54,0.51 C 19,0.51 0,10 0,21.7 0,33.4 19,42.89 42.54,42.89 66.08,42.89 85.08,33.4 85.08,21.7 85.08,10 66,0.51 42.54,0.51 Z M 36.61,37.94 C 19.92,37.94 6.39,30.52 6.39,21.38 6.39,12.24 19.91,4.81 36.61,4.81 c 16.7,0 30.22,7.41 30.22,16.56 0,9.15 -13.53,16.57 -30.22,16.57 z"
         id="path8"
         inkscape:connector-curvature="0"
         style="fill:#2c8853" />
    </g>
  </g>
</svg>
