<svg xmlns="http://www.w3.org/2000/svg" viewBox="0 0 32.05 32" id="svg27"><defs id="defs7"><style id="style2">.cls-3{fill:none;stroke:#ff762a;stroke-miterlimit:10;stroke-width:2px}</style></defs><path id="path11" d="M29.64 32v-1.22a3.54 3.54 0 0 1 .7-2.12 3.54 3.54 0 0 0 .7-2.12v-5a3.59 3.59 0 0 0-3.59-3.59H25a2 2 0 0 0-2 2v-8a2.03 2.03 0 0 0-4.06 0V22.4a3.48 3.48 0 0 0-3.47-3.47H15l.06 7.81a1.88 1.88 0 0 0 .85 1.57l2.3 2.23V32" class="cls-3" fill="none" stroke="#ff762a" stroke-width="2" stroke-miterlimit="10"></path><path id="polyline13" class="cls-3" fill="none" stroke="#ff762a" stroke-width="2" stroke-miterlimit="10" d="M14 31H1V1h30v13"></path><path id="line15" class="cls-3" fill="none" stroke="#ff762a" stroke-width="2" stroke-miterlimit="10" d="M31 7H1"></path><path id="line17" class="cls-3" fill="none" stroke="#ff762a" stroke-width="2" stroke-miterlimit="10" d="M4 4h2"></path><path id="line19" class="cls-3" fill="none" stroke="#ff762a" stroke-width="2" stroke-miterlimit="10" d="M8 4h2"></path><path id="line21" class="cls-3" fill="none" stroke="#ff762a" stroke-width="2" stroke-miterlimit="10" d="M12 4h2"></path><path id="rect4" fill="none" d="M0 0h32.05v32H0z"></path></svg>