<?xml version="1.0" encoding="UTF-8" standalone="no"?>
<svg
   xmlns:dc="http://purl.org/dc/elements/1.1/"
   xmlns:cc="http://creativecommons.org/ns#"
   xmlns:rdf="http://www.w3.org/1999/02/22-rdf-syntax-ns#"
   xmlns:svg="http://www.w3.org/2000/svg"
   xmlns="http://www.w3.org/2000/svg"
   viewBox="0 0 645.33331 290.66666"
   height="290.66666"
   width="645.33331"
   xml:space="preserve"
   id="svg2"
   version="1.1"><metadata
     id="metadata8"><rdf:RDF><cc:Work
         rdf:about=""><dc:format>image/svg+xml</dc:format><dc:type
           rdf:resource="http://purl.org/dc/dcmitype/StillImage" /><dc:title></dc:title></cc:Work></rdf:RDF></metadata><defs
     id="defs6"><clipPath
       id="clipPath18"
       clipPathUnits="userSpaceOnUse"><path
         id="path16"
         d="M 0,218 H 484 V 0 H 0 Z" /></clipPath></defs><g
     transform="matrix(1.3333333,0,0,-1.3333333,0,290.66667)"
     id="g10"><g
       id="g12"><g
         clip-path="url(#clipPath18)"
         id="g14"><g
           transform="translate(18.4297,206.4492)"
           id="g20"><path
             id="path22"
             style="fill:#ef7e20;fill-opacity:1;fill-rule:nonzero;stroke:none"
             d="m 0,0 h 184.898 c 2.185,0 3.958,-1.773 3.958,-3.958 v -183.983 c 0,-2.185 -1.773,-3.957 -3.958,-3.957 H 0.001 c -2.186,0 -3.959,1.772 -3.959,3.957 V -3.958 C -3.958,-1.773 -2.185,0 0.001,0 Z" /></g><g
           transform="translate(35.8164,159.708)"
           id="g24"><path
             id="path26"
             style="fill:#ffffff;fill-opacity:1;fill-rule:nonzero;stroke:none"
             d="m 0,0 23.773,-0.268 h 59.182 c 15.042,0 25.224,-13.417 25.229,-27.463 0.016,-22.421 0.267,-70.301 0.267,-70.301 l -23.068,-0.097 -0.428,62.975 c -0.058,8.792 -5.963,14.497 -14.553,14.618 -11.064,0.16 -39.129,-0.179 -46.629,-0.275 V -98.3 L 0,-98.3 Z M 41.938,-37.931 H 66.247 V -97.498 H 41.938 Z M 126.615,0 h 23.773 v -98.3 h -23.773 z" /></g><g
           transform="translate(270.835,167.9873)"
           id="g28"><path
             id="path30"
             style="fill:#9e9fa1;fill-opacity:1;fill-rule:nonzero;stroke:none"
             d="M 0,0 -15.327,0.122 -29.473,-73.83 -18.2,-74.583 c 5.553,-0.37 6.055,4.95 6.694,9.025 C -9.6,-53.437 0,0 0,0" /></g><g
           transform="translate(321.2422,167.9873)"
           id="g32"><path
             id="path34"
             style="fill:#9e9fa1;fill-opacity:1;fill-rule:nonzero;stroke:none"
             d="m 0,0 15.334,0.122 9.54,-73.952 -11.381,-0.757 C 7.596,-74.978 7.74,-68.755 7.325,-64.562 5.959,-50.771 0,0 0,0" /></g><g
           transform="translate(303.4092,185.2607)"
           id="g36"><path
             id="path38"
             style="fill:#9e9fa1;fill-opacity:1;fill-rule:nonzero;stroke:none"
             d="m 0,0 -14.839,-0.066 0.236,-89.069 c 0,0 -0.04,-6.241 -5.18,-6.331 -5.14,-0.091 -7.395,-1.894 -7.395,-5.32 0,-3.428 -0.09,-8.116 -0.09,-8.116 h 15.93 c 6.638,0 11.484,4.064 11.484,10.997 C 0.139,-84.451 0,0 0,0" /></g><g
           transform="translate(404.8936,185.1406)"
           id="g40"><path
             id="path42"
             style="fill:#9e9fa1;fill-opacity:1;fill-rule:nonzero;stroke:none"
             d="M 0,0 H 15.262 V -45.077 H 59.635 V -57.756 H 40.314 c 1.31,-4.901 8.186,-30.071 16.542,-50.583 l -11.112,-0.256 c -4.319,-0.1 -6.258,4.536 -7.306,7.939 -2.435,7.878 -11.814,37.213 -13.632,42.9 h -9.544 v -51.182 H 0 v 51.182 h -8.394 c -1.818,-5.687 -11.197,-35.022 -13.631,-42.9 -1.049,-3.403 -2.989,-8.039 -7.307,-7.939 l -11.112,0.256 c 8.356,20.512 15.232,45.682 16.542,50.583 h -21.175 v 12.679 H 0 Z" /></g><g
           transform="translate(382.8076,179.1211)"
           id="g44"><path
             id="path46"
             style="fill:#9e9fa1;fill-opacity:1;fill-rule:nonzero;stroke:none"
             d="m 0,0 h -14.183 l 10.929,-23.187 c 2.137,-4.532 4.526,-7.81 9.916,-7.927 l 8.334,-0.184 c 0,0 -8.64,14.834 -14.996,31.298" /></g><g
           transform="translate(442.1758,179.1211)"
           id="g48"><path
             id="path50"
             style="fill:#9e9fa1;fill-opacity:1;fill-rule:nonzero;stroke:none"
             d="M 0,0 H 14.182 L 3.253,-23.187 c -2.137,-4.532 -4.526,-7.81 -9.916,-7.927 l -8.334,-0.184 c 0,0 8.641,14.834 14.997,31.298" /></g><path
           id="path52"
           style="fill:#9e9fa1;fill-opacity:1;fill-rule:nonzero;stroke:none"
           d="m 373.644,35.026 h 4.293 v 4.293 h -4.293 z m -80.037,11.17 V 44.82 c 0,-1.663 -0.198,-2.937 -0.603,-3.79 -0.531,-1.104 -1.35,-1.98 -2.483,-2.616 -1.131,-0.636 -2.437,-0.939 -3.89,-0.939 -1.468,0 -2.56,0.335 -3.321,1.005 -0.762,0.671 -1.14,1.51 -1.14,2.517 0,0.656 0.153,1.239 0.503,1.777 0.349,0.539 0.866,0.962 1.51,1.242 0.642,0.279 1.735,0.514 3.287,0.738 2.739,0.391 4.768,0.883 6.138,1.442 z m 121.396,8.453 c 1.858,0 3.411,-0.695 4.662,-2.113 1.251,-1.419 1.878,-3.519 1.878,-6.273 0,-2.921 -0.634,-5.081 -1.878,-6.507 -1.244,-1.426 -2.79,-2.148 -4.662,-2.148 -1.888,0 -3.453,0.729 -4.696,2.148 -1.245,1.418 -1.879,3.556 -1.879,6.406 0,2.852 0.634,4.962 1.879,6.374 1.243,1.411 2.808,2.112 4.696,2.113 m -102.645,0 c 1.86,0 3.413,-0.695 4.663,-2.113 1.251,-1.419 1.878,-3.519 1.878,-6.273 0,-2.921 -0.633,-5.081 -1.878,-6.507 -1.244,-1.426 -2.79,-2.148 -4.663,-2.148 -1.886,0 -3.452,0.729 -4.695,2.148 -1.244,1.418 -1.879,3.556 -1.879,6.406 0,2.852 0.635,4.962 1.879,6.374 1.243,1.411 2.809,2.112 4.695,2.113 m 50.685,-19.623 h 3.757 v 22.239 h -3.757 z m -93.184,0 h 3.79 v 22.239 h -3.79 z m -23.38,22.24 7.514,-10.667 -8.118,-11.573 h 4.562 l 5.836,8.788 1.242,-1.878 4.562,-6.91 h 4.629 l -8.285,11.774 7.681,10.466 h -4.495 l -3.756,-5.234 c -0.518,-0.713 -1.063,-1.559 -1.678,-2.481 -0.391,0.671 -0.934,1.523 -1.576,2.515 l -3.422,5.2 z m 193.513,0.503 c -1.481,0 -2.831,-0.309 -3.991,-0.973 -1.16,-0.664 -2.086,-1.56 -2.784,-2.65 v 3.12 h -3.355 v -22.24 h 3.757 v 11.539 c 0,2.027 0.198,3.586 0.604,4.663 0.405,1.076 1.078,1.889 1.979,2.448 0.902,0.559 1.89,0.839 2.951,0.839 1.399,0 2.405,-0.436 3.02,-1.275 0.614,-0.839 0.905,-2.08 0.905,-3.757 V 35.026 h 3.791 V 47.94 c 0,2.292 0.509,3.957 1.543,4.998 1.034,1.041 2.325,1.577 3.891,1.577 0.866,0 1.637,-0.199 2.281,-0.604 0.643,-0.405 1.063,-0.946 1.308,-1.61 0.245,-0.664 0.369,-1.744 0.369,-3.254 V 35.026 h 3.757 v 15.262 c 0,2.544 -0.59,4.446 -1.778,5.669 -1.188,1.223 -2.89,1.812 -5.098,1.812 -2.824,0 -5.116,-1.292 -6.877,-3.892 -0.433,1.23 -1.193,2.2 -2.247,2.885 -1.056,0.685 -2.376,1.007 -4.026,1.007 m -24.99,0 c -2.753,0 -5.096,-0.8 -7.01,-2.449 -2.293,-1.985 -3.455,-5.035 -3.455,-9.158 0,-3.76 0.963,-6.655 2.885,-8.654 1.922,-1.998 4.464,-2.986 7.58,-2.986 1.943,0 3.726,0.434 5.367,1.342 1.643,0.909 2.898,2.182 3.757,3.824 0.859,1.643 1.274,3.912 1.275,6.777 0,3.535 -0.975,6.312 -2.919,8.318 -1.942,2.006 -4.419,2.986 -7.48,2.986 m -21.534,0 c -1.915,0 -3.672,-0.441 -5.301,-1.342 -1.628,-0.902 -2.859,-2.256 -3.656,-4.059 -0.796,-1.803 -1.174,-3.902 -1.174,-6.306 0,-3.718 0.933,-6.562 2.784,-8.554 1.852,-1.991 4.3,-2.986 7.347,-2.986 2.431,0 4.468,0.701 6.137,2.148 1.671,1.446 2.715,3.446 3.121,6.004 l -3.724,0.503 c -0.266,-1.887 -0.886,-3.284 -1.878,-4.193 -0.993,-0.909 -2.242,-1.376 -3.724,-1.376 -1.844,0 -3.315,0.691 -4.461,2.047 -1.146,1.356 -1.745,3.517 -1.745,6.507 0,2.949 0.624,5.111 1.812,6.475 1.188,1.362 2.728,2.046 4.629,2.046 1.258,0 2.333,-0.386 3.22,-1.141 0.888,-0.755 1.496,-1.858 1.845,-3.354 l 3.656,0.537 c -0.433,2.25 -1.414,4.009 -2.952,5.232 -1.537,1.223 -3.518,1.812 -5.936,1.812 m -56.119,0 c -1.482,0 -2.831,-0.309 -3.992,-0.973 -1.16,-0.664 -2.086,-1.56 -2.784,-2.65 v 3.12 h -3.354 v -22.24 h 3.757 v 11.539 c 0,2.027 0.198,3.586 0.603,4.663 0.405,1.076 1.078,1.889 1.98,2.448 0.901,0.559 1.889,0.839 2.951,0.839 1.398,0 2.404,-0.436 3.019,-1.275 0.616,-0.839 0.906,-2.08 0.906,-3.757 V 35.026 h 3.791 V 47.94 c 0,2.292 0.508,3.957 1.543,4.998 1.034,1.041 2.325,1.577 3.89,1.577 0.866,0 1.638,-0.199 2.281,-0.604 0.643,-0.405 1.064,-0.946 1.308,-1.61 0.245,-0.664 0.369,-1.744 0.369,-3.254 V 35.026 h 3.757 v 15.262 c 0,2.544 -0.59,4.446 -1.777,5.669 -1.189,1.223 -2.891,1.812 -5.099,1.812 -2.823,0 -5.115,-1.292 -6.877,-3.892 -0.433,1.23 -1.192,2.2 -2.247,2.885 -1.056,0.685 -2.376,1.007 -4.025,1.007 m -24.991,0 c -2.753,0 -5.095,-0.8 -7.01,-2.449 -2.292,-1.985 -3.454,-5.035 -3.454,-9.158 0,-3.76 0.962,-6.655 2.884,-8.654 1.921,-1.998 4.464,-2.986 7.58,-2.986 1.944,0 3.725,0.434 5.368,1.342 1.642,0.909 2.897,2.182 3.756,3.824 0.86,1.643 1.275,3.912 1.275,6.777 0,3.535 -0.976,6.312 -2.918,8.318 -1.943,2.006 -4.419,2.986 -7.481,2.986 m -23.546,0 c -1.916,0 -3.579,-0.248 -5.033,-0.772 -1.453,-0.524 -2.585,-1.276 -3.354,-2.247 -0.769,-0.972 -1.308,-2.245 -1.644,-3.824 l 3.691,-0.503 c 0.405,1.579 1.032,2.698 1.878,3.32 0.845,0.622 2.149,0.905 3.924,0.906 1.901,0 3.33,-0.422 4.294,-1.275 0.712,-0.629 1.074,-1.716 1.074,-3.254 0,-0.14 -0.02,-0.455 -0.035,-0.973 -1.439,-0.502 -3.661,-0.944 -6.708,-1.307 -1.496,-0.182 -2.614,-0.375 -3.354,-0.57 -1.007,-0.28 -1.914,-0.697 -2.718,-1.242 -0.804,-0.545 -1.449,-1.245 -1.945,-2.146 -0.496,-0.903 -0.738,-1.896 -0.738,-2.986 0,-1.859 0.631,-3.401 1.946,-4.595 1.313,-1.196 3.189,-1.779 5.635,-1.779 1.481,0 2.867,0.249 4.16,0.739 1.292,0.489 2.661,1.328 4.058,2.515 0.112,-1.047 0.347,-1.967 0.738,-2.751 h 3.959 c -0.476,0.854 -0.813,1.721 -0.974,2.651 -0.16,0.929 -0.234,3.167 -0.234,6.675 v 5.032 c 0,1.677 -0.042,2.846 -0.168,3.488 -0.224,1.034 -0.615,1.871 -1.174,2.549 -0.559,0.679 -1.462,1.23 -2.65,1.678 -1.188,0.447 -2.728,0.671 -4.629,0.671 z" /></g></g></g></svg>