<svg xmlns="http://www.w3.org/2000/svg" viewBox="0 0 32.01 28" id="svg43"><defs id="defs7"><style id="style2">.cls-1,.cls-3,.cls-4{fill:none}.cls-3,.cls-4{stroke:#ff762a;stroke-width:2px}.cls-3{stroke-miterlimit:10}.cls-4{stroke-linejoin:round}</style></defs><path id="line11" class="cls-3" fill="none" stroke="#ff762a" stroke-width="2" stroke-miterlimit="10" d="M3.98 9.98h6"></path><path id="rect49" class="cls-1" fill="none" d="M0 0h32.01v28H0z"></path><path class="cls-3" id="line15" fill="none" stroke="#ff762a" stroke-width="2" stroke-miterlimit="10" d="M6.98 12.98v-6"></path><circle id="circle17" r="6" cy="10" cx="7" class="cls-3" fill="none" stroke="#ff762a" stroke-width="2" stroke-miterlimit="10"></circle><circle id="circle19" r="6" cy="10" cx="25.01" class="cls-3" fill="none" stroke="#ff762a" stroke-width="2" stroke-miterlimit="10"></circle><path id="line21" class="cls-4" fill="none" stroke="#ff762a" stroke-width="2" stroke-linejoin="round" d="M12.42 7h7.33"></path><circle id="circle23" r="3" cy="18" cx="12" class="cls-4" fill="none" stroke="#ff762a" stroke-width="2" stroke-linejoin="round"></circle><circle id="circle25" r="3" cy="18" cx="20" class="cls-4" fill="none" stroke="#ff762a" stroke-width="2" stroke-linejoin="round"></circle><path id="path27" d="M1 10v13.63a3.37 3.37 0 0 0 6.64.82L9 18" class="cls-4" fill="none" stroke="#ff762a" stroke-width="2" stroke-linejoin="round"></path><path id="path29" d="M31 10v13.63a3.37 3.37 0 0 1-6.64.82L23 18" class="cls-4" fill="none" stroke="#ff762a" stroke-width="2" stroke-linejoin="round"></path><path id="path31" d="M3 5V2l1-1h4l1 1v2" class="cls-3" fill="none" stroke="#ff762a" stroke-width="2" stroke-miterlimit="10"></path><path id="polyline33" class="cls-3" fill="none" stroke="#ff762a" stroke-width="2" stroke-miterlimit="10" d="M29 5V2l-1-1h-4l-1 1v2"></path><path id="line35" class="cls-3" fill="none" stroke="#ff762a" stroke-width="2" stroke-miterlimit="10" d="M26.01 8v2"></path><path id="line37" class="cls-3" fill="none" stroke="#ff762a" stroke-width="2" stroke-miterlimit="10" d="M24.01 10v2"></path><path id="rect4" class="cls-1" fill="none" d="M0 0h32.01v28H0z"></path></svg>