<svg xmlns="http://www.w3.org/2000/svg" viewBox="0 0 32.02 32.02" id="svg89"><defs id="defs7"><style id="style2">.cls-3{fill:none;stroke:#ff762a;stroke-miterlimit:10;stroke-width:2px}</style></defs><path id="line11" class="cls-3" fill="none" stroke="#ff762a" stroke-width="2" stroke-miterlimit="10" d="M.01 1h2"></path><path id="line13" class="cls-3" fill="none" stroke="#ff762a" stroke-width="2" stroke-miterlimit="10" d="M3.76 1h2"></path><path id="line15" class="cls-3" fill="none" stroke="#ff762a" stroke-width="2" stroke-miterlimit="10" d="M7.51 1h2"></path><path id="line17" class="cls-3" fill="none" stroke="#ff762a" stroke-width="2" stroke-miterlimit="10" d="M11.26 1h2"></path><path id="line19" class="cls-3" fill="none" stroke="#ff762a" stroke-width="2" stroke-miterlimit="10" d="M15.01 1h2"></path><path id="line21" class="cls-3" fill="none" stroke="#ff762a" stroke-width="2" stroke-miterlimit="10" d="M18.76 1h2"></path><path id="line23" class="cls-3" fill="none" stroke="#ff762a" stroke-width="2" stroke-miterlimit="10" d="M22.51 1h2"></path><path id="line25" class="cls-3" fill="none" stroke="#ff762a" stroke-width="2" stroke-miterlimit="10" d="M26.26 1h2"></path><path id="line27" class="cls-3" fill="none" stroke="#ff762a" stroke-width="2" stroke-miterlimit="10" d="M30.01 1h2"></path><path id="line29" class="cls-3" fill="none" stroke="#ff762a" stroke-width="2" stroke-miterlimit="10" d="M.01 31.02h2"></path><path id="line31" class="cls-3" fill="none" stroke="#ff762a" stroke-width="2" stroke-miterlimit="10" d="M3.76 31.02h2"></path><path id="line33" class="cls-3" fill="none" stroke="#ff762a" stroke-width="2" stroke-miterlimit="10" d="M7.51 31.02h2"></path><path id="line35" class="cls-3" fill="none" stroke="#ff762a" stroke-width="2" stroke-miterlimit="10" d="M11.26 31.02h2"></path><path id="line37" class="cls-3" fill="none" stroke="#ff762a" stroke-width="2" stroke-miterlimit="10" d="M15.01 31.02h2"></path><path id="line39" class="cls-3" fill="none" stroke="#ff762a" stroke-width="2" stroke-miterlimit="10" d="M18.76 31.02h2"></path><path id="line41" class="cls-3" fill="none" stroke="#ff762a" stroke-width="2" stroke-miterlimit="10" d="M22.51 31.02h2"></path><path id="line43" class="cls-3" fill="none" stroke="#ff762a" stroke-width="2" stroke-miterlimit="10" d="M26.26 31.02h2"></path><path id="line45" class="cls-3" fill="none" stroke="#ff762a" stroke-width="2" stroke-miterlimit="10" d="M30.01 31.02h2"></path><path id="line47" class="cls-3" fill="none" stroke="#ff762a" stroke-width="2" stroke-miterlimit="10" d="M1 28.26v-2"></path><path id="line49" class="cls-3" fill="none" stroke="#ff762a" stroke-width="2" stroke-miterlimit="10" d="M1 24.51v-2"></path><path id="line51" class="cls-3" fill="none" stroke="#ff762a" stroke-width="2" stroke-miterlimit="10" d="M1 20.76v-2"></path><path id="line53" class="cls-3" fill="none" stroke="#ff762a" stroke-width="2" stroke-miterlimit="10" d="M1 17.01v-2"></path><path id="line55" class="cls-3" fill="none" stroke="#ff762a" stroke-width="2" stroke-miterlimit="10" d="M1 13.26v-2"></path><path id="line57" class="cls-3" fill="none" stroke="#ff762a" stroke-width="2" stroke-miterlimit="10" d="M1 9.51v-2"></path><path id="line59" class="cls-3" fill="none" stroke="#ff762a" stroke-width="2" stroke-miterlimit="10" d="M1 5.76v-2"></path><path id="line61" class="cls-3" fill="none" stroke="#ff762a" stroke-width="2" stroke-miterlimit="10" d="M31.02 28.26v-2"></path><path id="line63" class="cls-3" fill="none" stroke="#ff762a" stroke-width="2" stroke-miterlimit="10" d="M31.02 24.51v-2"></path><path id="line65" class="cls-3" fill="none" stroke="#ff762a" stroke-width="2" stroke-miterlimit="10" d="M31.02 20.76v-2"></path><path id="line67" class="cls-3" fill="none" stroke="#ff762a" stroke-width="2" stroke-miterlimit="10" d="M31.02 17.01v-2"></path><path id="line69" class="cls-3" fill="none" stroke="#ff762a" stroke-width="2" stroke-miterlimit="10" d="M31.02 13.26v-2"></path><path id="line71" class="cls-3" fill="none" stroke="#ff762a" stroke-width="2" stroke-miterlimit="10" d="M31.02 9.51v-2"></path><path id="line73" class="cls-3" fill="none" stroke="#ff762a" stroke-width="2" stroke-miterlimit="10" d="M31.02 5.76v-2"></path><path id="path75" d="M10 10.57H7.65L6.4 11.82v3.75l1.25 1.25H9.9" class="cls-3" fill="none" stroke="#ff762a" stroke-width="2" stroke-miterlimit="10"></path><path id="polyline77" class="cls-3" fill="none" stroke="#ff762a" stroke-width="2" stroke-miterlimit="10" d="M15.24 10.57h.52l6.87-2.5h2.5v11.24h-2.5l-6.87-2.49h-.57"></path><path id="line79" class="cls-3" fill="none" stroke="#ff762a" stroke-width="2" stroke-miterlimit="10" d="M22.13 11.32v5"></path><path id="polyline81" class="cls-3" fill="none" stroke="#ff762a" stroke-width="2" stroke-miterlimit="10" d="M10.14 17.44v6.87h2.5v-6.87"></path><path id="rect83" class="cls-3" fill="none" stroke="#ff762a" stroke-width="2" stroke-miterlimit="10" d="M10.13 9.95h5.01v7.49h-5.01z"></path><path id="rect4" fill="none" d="M0 0h32.02v32.02H0z"></path></svg>