<?xml version="1.0" encoding="UTF-8" standalone="no"?>
<!-- Generator: Adobe Illustrator 18.0.0, SVG Export Plug-In . SVG Version: 6.00 Build 0)  -->

<svg
   xmlns:dc="http://purl.org/dc/elements/1.1/"
   xmlns:cc="http://creativecommons.org/ns#"
   xmlns:rdf="http://www.w3.org/1999/02/22-rdf-syntax-ns#"
   xmlns:svg="http://www.w3.org/2000/svg"
   xmlns="http://www.w3.org/2000/svg"
   xmlns:sodipodi="http://sodipodi.sourceforge.net/DTD/sodipodi-0.dtd"
   xmlns:inkscape="http://www.inkscape.org/namespaces/inkscape"
   version="1.1"
   id="LOGO_single"
   x="0px"
   y="0px"
   viewBox="0 0 235.25002 235.25002"
   enable-background="new 0 0 48 48"
   xml:space="preserve"
   sodipodi:docname="numbuster_logo.svg"
   width="235.25002"
   height="235.25002"
   inkscape:version="0.92.4 (unknown)"><metadata
   id="metadata39"><rdf:RDF><cc:Work
       rdf:about=""><dc:format>image/svg+xml</dc:format><dc:type
         rdf:resource="http://purl.org/dc/dcmitype/StillImage" /></cc:Work></rdf:RDF></metadata><defs
   id="defs37" /><sodipodi:namedview
   pagecolor="#ffffff"
   bordercolor="#666666"
   borderopacity="1"
   objecttolerance="10"
   gridtolerance="10"
   guidetolerance="10"
   inkscape:pageopacity="0"
   inkscape:pageshadow="2"
   inkscape:window-width="1815"
   inkscape:window-height="997"
   id="namedview35"
   showgrid="false"
   inkscape:snap-global="true"
   inkscape:zoom="1.7383042"
   inkscape:cx="140.43343"
   inkscape:cy="87.54096"
   inkscape:window-x="0"
   inkscape:window-y="0"
   inkscape:window-maximized="0"
   inkscape:current-layer="LOGO_single" />
<symbol
   id="Зуб"
   viewBox="-2 -3 4 3"
   transform="translate(93.625006,93.625006)">
	<polygon
   points="0,-3 2,0 -2,0 "
   id="polygon2"
   style="fill:#ffffff" />
</symbol>
<rect
   id="BG"
   width="235.25002"
   height="235.25002"
   x="0"
   y="0"
   style="opacity:0;fill:#ffffff;stroke-width:4.90104198" />
<circle
   id="BG_1_"
   cx="117.62501"
   cy="117.62501"
   r="110.27344"
   style="fill:#cc0000;stroke-width:4.90104198" />
<path
   id="Troll"
   d="M 198.4922,98.020837 C 189.67032,61.263025 156.83334,34.307289 117.625,34.307289 c -39.208329,0 -72.045314,26.955736 -80.867191,63.713548 0,-16.17344 -13.232808,-29.406251 -29.4062478,-29.406251 v 29.406251 c 0,15.683333 12.2526018,28.426043 27.4458378,29.406253 4.901044,41.65885 40.188538,73.51563 82.827601,73.51563 42.63907,0 77.92657,-32.34688 82.82761,-73.51563 15.19323,-0.98021 27.44584,-13.72292 27.44584,-29.406253 V 68.614586 c -16.17344,0 -29.40625,13.232811 -29.40625,29.406251 z m -46.55991,-24.50521 c 8.33178,0 14.70313,6.37135 14.70313,14.703126 0,8.331769 -6.37135,14.703127 -14.70313,14.703127 -8.33176,0 -14.70312,-6.371358 -14.70312,-14.703127 0,-8.331776 6.37136,-14.703126 14.70312,-14.703126 z m -68.614578,0 c 8.331766,0 14.703125,6.37135 14.703125,14.703126 0,8.331769 -6.371359,14.703127 -14.703125,14.703127 -8.331775,0 -14.703126,-6.371358 -14.703126,-14.703127 0,-8.331776 6.371351,-14.703126 14.703126,-14.703126 z m 70.084898,86.748443 -8.82188,-13.23282 -9.80208,14.70313 h -7.35156 l -9.80209,-14.70313 -9.80208,14.70313 h -7.35156 l -9.802087,-14.70313 -8.821876,13.23282 c -16.173441,-4.90104 -27.935936,-20.09428 -27.935936,-37.73803 0,-2.94062 1.96041,-4.90104 4.901044,-4.90104 h 8.821867 l 9.802085,14.70313 9.802081,-14.70313 h 7.351564 l 9.802088,14.70313 9.80209,-14.70313 h 7.35156 l 9.80208,14.70313 9.80209,-14.70313 h 7.35156 l 9.80208,14.70313 9.80209,-14.70313 h 8.33176 c 2.94063,0 4.90104,1.96042 4.90104,4.90104 0,17.64375 -11.76249,32.83699 -27.93593,37.73803 z"
   inkscape:connector-curvature="0"
   style="fill:#ffffff;stroke-width:4.90104198" />
<g
   id="g8"
   transform="matrix(2.8484848,0,0,2.8484848,49.26137,49.26137)">
</g>
<g
   id="g10"
   transform="matrix(2.8484848,0,0,2.8484848,49.26137,49.26137)">
</g>
<g
   id="g12"
   transform="matrix(2.8484848,0,0,2.8484848,49.26137,49.26137)">
</g>
<g
   id="g14"
   transform="matrix(2.8484848,0,0,2.8484848,49.26137,49.26137)">
</g>
<g
   id="g16"
   transform="matrix(2.8484848,0,0,2.8484848,49.26137,49.26137)">
</g>
<g
   id="g18"
   transform="matrix(2.8484848,0,0,2.8484848,49.26137,49.26137)">
</g>
<g
   id="g20"
   transform="matrix(2.8484848,0,0,2.8484848,49.26137,49.26137)">
</g>
<g
   id="g22"
   transform="matrix(2.8484848,0,0,2.8484848,49.26137,49.26137)">
</g>
<g
   id="g24"
   transform="matrix(2.8484848,0,0,2.8484848,49.26137,49.26137)">
</g>
<g
   id="g26"
   transform="matrix(2.8484848,0,0,2.8484848,49.26137,49.26137)">
</g>
<g
   id="g28"
   transform="matrix(2.8484848,0,0,2.8484848,49.26137,49.26137)">
</g>
<g
   id="g30"
   transform="matrix(2.8484848,0,0,2.8484848,49.26137,49.26137)">
</g>
<g
   id="g32"
   transform="matrix(2.8484848,0,0,2.8484848,49.26137,49.26137)">
</g>
</svg>