<svg xmlns="http://www.w3.org/2000/svg" width="26" height="33" viewBox="0 0 26 33">
  <path d="M25.08 29.868c-.118.177-.199.887-.165 1.457L24.917 33h-1.994v-1.613c-.026-.376-.068-1.875.559-2.716.326-.438.483-.947.442-1.436l-.004-5.128c.049-1.534-1.194-2.613-2.467-3.048l-2.31.941h-.195c-.578 0-1.011.426-1.011.949v.974h-1.994v-8.738a.992.992 0 0 0-.998-.981.991.991 0 0 0-.997.981v12.636h-1.994v-2.354a2.47 2.47 0 0 0-1.987-2.421l.049 6.758a.928.928 0 0 0 .369.753l.144.125 2.422 2.521V33h-1.994v-.99l-1.805-1.88a2.928 2.928 0 0 1-1.131-2.315L7.958 19h1.536a4.42 4.42 0 0 1 2.46.744v-6.559a2.989 2.989 0 0 1 2.991-2.98 2.989 2.989 0 0 1 2.992 2.98v4.976c.255-.088.525-.142.805-.157l2.591-1.056.321.084c2.584.677 4.336 2.778 4.26 5.108l.001 5.011c.078.892-.217 1.886-.835 2.717zM19.931 6H1.982v21h3.989v2H1.982v1.586l.413.414h4.573v2H1.982a.997.997 0 0 1-.705-.293l-.997-1A1.002 1.002 0 0 1-.013 31V2c0-.265.106-.519.293-.707l.997-1A.997.997 0 0 1 1.982 0h17.949c.265 0 .518.106.705.293l.998 1c.187.188.292.442.292.707v13h-1.995zm0-3.586L19.518 2H2.395l-.413.414V4h17.949z" fill="#ff762a" fill-rule="evenodd"></path>
</svg>