<?xml version="1.0" encoding="UTF-8" standalone="no"?>
<!-- Generator: Adobe Illustrator 12.0.0, SVG Export Plug-In  -->

<svg
   xmlns:dc="http://purl.org/dc/elements/1.1/"
   xmlns:cc="http://creativecommons.org/ns#"
   xmlns:rdf="http://www.w3.org/1999/02/22-rdf-syntax-ns#"
   xmlns:svg="http://www.w3.org/2000/svg"
   xmlns="http://www.w3.org/2000/svg"
   xmlns:xlink="http://www.w3.org/1999/xlink"
   xmlns:sodipodi="http://sodipodi.sourceforge.net/DTD/sodipodi-0.dtd"
   xmlns:inkscape="http://www.inkscape.org/namespaces/inkscape"
   version="1.0"
   width="351.38831"
   height="92.736511"
   viewBox="-0.836 -0.215 351.3883 100.51441"
   enable-background="new -0.836 -0.215 298 84"
   xml:space="preserve"
   id="svg2"
   sodipodi:version="0.32"
   inkscape:version="0.92.4 (unknown)"
   sodipodi:docname="william-hill-seeklogo.com.svg"
   inkscape:output_extension="org.inkscape.output.svg.inkscape"><metadata
   id="metadata37"><rdf:RDF><cc:Work
       rdf:about=""><dc:format>image/svg+xml</dc:format><dc:type
         rdf:resource="http://purl.org/dc/dcmitype/StillImage" /></cc:Work></rdf:RDF></metadata><sodipodi:namedview
   inkscape:window-height="1001"
   inkscape:window-width="1920"
   inkscape:pageshadow="2"
   inkscape:pageopacity="0.0"
   guidetolerance="10.0"
   gridtolerance="10.0"
   objecttolerance="10.0"
   borderopacity="1.0"
   bordercolor="#666666"
   pagecolor="#ffffff"
   id="base"
   showgrid="false"
   inkscape:zoom="2.1"
   inkscape:cx="185.27363"
   inkscape:cy="52.91784"
   inkscape:window-x="0"
   inkscape:window-y="0"
   inkscape:current-layer="svg2"
   inkscape:window-maximized="1" />
<defs
   id="defs4"><clipPath
   id="XMLID_126_">
		<use
   height="84"
   width="298"
   y="0"
   x="0"
   id="use30"
   xlink:href="#XMLID_123_" />
	</clipPath><inkscape:perspective
   sodipodi:type="inkscape:persp3d"
   inkscape:vp_x="0 : 41.999999 : 1"
   inkscape:vp_y="0 : 999.99998 : 0"
   inkscape:vp_z="298 : 41.999999 : 1"
   inkscape:persp3d-origin="149 : 27.999999 : 1"
   id="perspective39" />
</defs>








<g
   id="g2394"
   transform="matrix(1.3138761,0,0,1.3335871,-14.534659,0.10249935)"><g
     transform="matrix(0.975878,0,0,0.9011521,-0.7892489,-0.2380792)"
     style="fill:#000066;fill-opacity:1"
     id="g6">
	<g
   style="fill:#000066;fill-opacity:1"
   id="g8">
		<polyline
   style="fill:#000066;fill-opacity:1"
   id="polyline10"
   points="0,83.522 297.008,83.639 297.04,0.116 0.033,0   " />
	</g>
</g><path
     style="fill:#fcb50f;fill-opacity:1"
     id="path12"
     d="m 123.89873,19.808733 c 0.362,0.502 0.557,1.141 0.362,1.779 -0.335,1.444 -1.584,2.972 -3.029,3.497 -0.779,0.251 -1.641,0.279 -2.416,0.001 -0.611,-0.527 -0.864,-1.223 -0.751,-2.055 0.251,-1.612 1.836,-2.89 3.224,-3.557 0.807,-0.248 1.972,-0.331 2.61,0.335"
     inkscape:connector-curvature="0" /><path
     style="fill:#fcb50f;fill-opacity:1"
     id="path14"
     d="m 91.202733,19.047733 c 0.389,0.472 0.527,1.11 0.36,1.723 -0.585,1.777 -2.308,3.696 -4.226,3.803 -0.639,-0.027 -1.251,-0.361 -1.555,-0.945 -0.389,-1.164 0.14,-2.25 0.752,-3.166 1.058,-1.444 3.085,-2.5 4.669,-1.415"
     inkscape:connector-curvature="0" /><rect
     style="fill:#ffffff"
     id="rect16"
     height="11.703001"
     width="40.293003"
     transform="rotate(90.023608)"
     y="-229.01175"
     x="16.318436" /><polyline
     style="fill:#ffffff"
     transform="translate(-4.0962668,-4.0962668)"
     id="polyline18"
     points="260.36,60.813 260.376,20.521 272.08,20.525 272.069,48.783 280.931,48.786 280.925,60.821   260.36,60.813 " /><polyline
     style="fill:#ffffff"
     transform="translate(-4.0962668,-4.0962668)"
     id="polyline20"
     points="236.662,60.804 236.679,20.511 248.382,20.517 248.37,48.773 257.231,48.777 257.227,60.813   236.662,60.804 " /><polyline
     style="fill:#ffffff"
     transform="translate(-4.0962668,-4.0962668)"
     id="polyline22"
     points="188.653,20.491 188.637,60.785 200.674,60.79 200.682,45.742 205.864,45.745 205.856,60.792   217.896,60.798 217.912,20.504 205.875,20.499 205.869,34.377 200.687,34.373 200.691,20.496 188.653,20.491 " /><g
     transform="translate(-4.0962668,-4.0962668)"
     style="fill:#fcb50f;fill-opacity:1"
     id="g24">
	<defs
   id="defs26">
		
			<rect
   height="267.24899"
   width="54.952"
   transform="rotate(-89.978617,147.47464,40.021499)"
   y="-93.602997"
   x="119.999"
   id="XMLID_123_" />
	</defs>
	<clipPath
   id="clipPath2450">
		<use
   height="84"
   width="298"
   y="0"
   x="0"
   id="use2452"
   xlink:href="#XMLID_123_" />
	</clipPath>
	<path
   style="fill:#fcb50f;fill-opacity:1"
   id="path32"
   d="m 184.169,23.983 c 3.223,5.588 2.805,13.839 -0.146,19.422 -2.669,5.414 -6.115,10.914 -11.228,14.97 -2.64,1.691 -5.53,3.969 -9.002,2.58 -1.224,-0.668 -1.89,-1.917 -2.056,-3.225 0.002,-5.252 3.894,-9.027 7.034,-12.722 2.558,-2.665 5.809,-5.581 8.505,-8.303 0.473,-0.418 0.555,-1.058 0.499,-1.611 -1.139,-1.223 -2.721,0.083 -3.917,0.554 -4.169,2.693 -7.947,6.525 -11.17,10.412 l -11.48,14.027 c -0.752,0.39 -1.306,-0.445 -2.056,-0.362 -1.224,-0.251 -2.112,0.415 -3.167,0.36 -0.224,-0.167 -0.112,-0.501 -0.002,-0.666 l 5.478,-7.222 10.034,-13.194 c 0.557,-1.193 1.613,-2.246 1.64,-3.554 -0.359,-0.527 -1.056,-0.056 -1.444,0.192 -5.865,4.556 -10.7,10.664 -15.398,16.193 l -6.753,8.386 c -0.64,0.225 -1.082,-0.39 -1.694,-0.444 -0.972,-0.224 -1.89,0.108 -2.779,0.303 l -0.388,-0.054 -0.002,-0.557 15.039,-19.746 c 0.807,-1.418 1.976,-2.584 2.058,-4.223 -0.333,-0.696 -1.083,-0.306 -1.556,-0.057 -3.058,1.942 -5.087,5.027 -7.587,7.639 l -8.198,9.609 c -2.557,2.525 -4.754,5.692 -7.702,7.579 -0.638,0.306 -1.36,0.472 -2.025,0.112 -1.999,-1.75 -0.748,-4.974 -0.138,-6.946 -3.057,2.499 -5.754,5.915 -9.561,6.998 -0.831,0.082 -1.555,-0.25 -2.055,-0.863 -0.971,-1.528 -1.194,-3.584 -1.223,-5.279 -2.496,2.165 -5.138,4.805 -8.197,6.026 -0.581,0.054 -1.139,-10e-4 -1.497,-0.501 -1.416,-1.722 -0.691,-4.196 -0.417,-6.085 -2.889,2.361 -5.778,5.277 -9.196,6.635 -0.639,0.195 -1.529,0.223 -2.056,-0.248 -1.473,-1.584 -0.833,-3.975 -0.554,-5.892 -2.612,2.167 -5.086,5.222 -8.366,6.026 -0.749,0.167 -1.274,-0.474 -1.639,-1.001 -0.803,-2.029 -0.386,-4.612 0.394,-6.528 -2.946,2.638 -6.03,5.747 -9.561,7.468 -0.584,0.195 -1.418,0.389 -2.001,0.056 -1.527,-1.694 -0.582,-4.333 0.004,-6.14 0.973,-2.223 2.194,-4.276 3.724,-6.167 L 82.818,34.574 c 1.839,0.002 3.762,0.085 5.141,-0.018 0.361,0.193 0.111,0.583 -0.001,0.806 l -7.643,9.249 -9.563,11.471 c -0.751,1.109 -1.833,2.192 -1.666,3.609 0.83,0.726 1.694,-0.275 2.47,-0.554 4.058,-2.89 7.81,-6.358 11.008,-10.247 L 91.43,37.335 102.689,22.838 c 0.192,-0.193 0.415,-0.278 0.666,-0.333 1.859,0.25 3.388,0.058 5.167,0.197 0.333,0.055 0.25,0.471 0.166,0.694 l -4.224,5.273 -15.203,18.366 c -2.725,3.163 -5.253,6.442 -7.396,9.859 -0.276,0.888 -1.39,1.97 -0.415,2.861 2.498,-0.641 4.223,-2.75 6.142,-4.416 1.86,-1.748 3.472,-3.611 5.141,-5.639 l 18.513,-23.691 c 1.083,-1.138 1.694,-2.666 3.029,-3.497 l 5.222,0.196 c 0.307,0.139 0.222,0.583 0.056,0.75 L 101.624,45.12 92.479,56.282 c -0.583,1.002 -1.415,2.001 -1.305,3.225 0.22,0.361 0.636,0.418 0.942,0.361 2.975,-1.192 5.669,-3.498 8.061,-5.747 3.919,-3.666 7.171,-8.389 10.563,-12.47 l 5.517,-7.063 5.459,-0.017 c 0.306,0.138 0.251,0.609 0.083,0.805 l -8.395,10.11 -8.866,10.609 c -0.612,1.139 -1.944,2.303 -1.251,3.667 2.749,-0.834 4.64,-3.222 6.891,-5.027 l 1.92,-2.111 c 3.475,-9.805 13.73,-16.051 23.093,-18.604 0.611,-0.193 1.25,0.029 1.75,0.307 0.611,0.445 0.61,1.252 0.5,1.917 -0.056,0.057 -0.084,0.084 -0.084,0.141 0.083,0.053 0.139,0.165 0.25,0.109 0.556,-0.748 1.113,-1.748 1.947,-2.109 1.775,0.083 3.369,-0.203 5.192,-0.056 0.444,0.141 0.167,0.612 0.057,0.86 l -17.318,20.805 c -0.695,1.194 -1.999,2.138 -2.112,3.582 0.335,0.555 0.863,0.057 1.252,-0.054 l 2.222,-1.916 8.95,-9.944 c 3.727,-4.025 6.894,-8.609 10.979,-12.161 1.001,-0.698 2.056,-1.529 3.363,-1.112 1.139,0.528 1.583,1.752 1.666,2.92 0.25,2.026 -0.808,3.969 -1.476,5.832 0.444,0.055 0.583,-0.584 1.001,-0.917 3.11,-2.721 5.421,-5.638 8.92,-7.692 0.695,-0.248 1.475,-0.443 2.111,0.001 1.083,0.722 1.333,2.001 1.361,3.279 -0.087,1.696 -0.695,3.197 -1.362,4.585 0.082,0.11 0.22,0.054 0.304,0.082 3.392,-3.332 6.864,-7.194 11.255,-8.497 0.809,-0.249 1.78,-0.139 2.474,0.308 1.47,1.25 0.857,3.807 0.303,5.333 -0.917,2.056 -2.279,3.973 -3.726,5.777 l -8.616,10.471 c -0.778,1.278 -1.944,2.472 -1.753,4.11 0.335,0.668 0.999,0.752 1.667,0.725 5.42,-1.082 9.06,-5.472 12.369,-9.804 4.975,-6.775 8.367,-15.997 5.092,-24.557 -1.388,-3.75 -5.108,-6.392 -9.055,-6.646 -4.251,-0.222 -8.306,2.082 -10.559,5.832 -0.584,1.446 -1.502,3.333 -0.556,4.892 1.025,1.525 2.778,1.457 4.277,1.262 2.943,-0.75 5.334,-2.734 7.281,-5.398 l 0.167,-10e-4 c -0.14,1.029 -1.004,1.806 -1.614,2.667 -2.252,2.473 -5.335,3.998 -8.807,3.22 -0.973,-0.446 -2.084,-1.446 -2.224,-2.56 -0.36,-4.249 2.643,-7.665 6.255,-9.498 3.585,-1.857 8.309,-1.969 11.809,0.199 1.36,0.947 2.553,2.253 3.466,3.669 m -48.537,10.539 c -2.082,0.415 -3.695,1.971 -5.418,3.275 -4.781,4.61 -9.617,9.056 -13.146,14.387 -1.364,2.224 -2.891,4.331 -3.227,6.972 0.029,0.361 0.419,0.639 0.808,0.614 2.278,-0.113 3.694,-2.252 5.584,-3.526 4.836,-4.584 9.951,-9.972 14.035,-15.723 1.03,-1.611 2.282,-3.36 2.282,-5.39 -0.083,-0.442 -0.501,-0.636 -0.918,-0.609 z"
   clip-path="url(#XMLID_126_)"
   inkscape:connector-curvature="0" />
	<path
   style="fill:#fcb50f;fill-opacity:1"
   id="path34"
   d="m 74.436,18.969 c 0.918,0.583 1.859,1.055 2.61,2 C 75.794,20.72 74.658,19.552 73.378,19.024 61.577,12.795 46.268,13.177 34.04,18.202 25.093,21.923 15.533,29.974 14.475,40.224 c -0.169,4.086 0.385,9.28 4.773,11.199 0.443,-0.223 0.223,-0.889 0.195,-1.251 -1.134,-9.194 1.759,-18.64 9.733,-23.527 3.083,-1.97 6.624,-2.704 10.556,-2.771 4.085,-1.974 8.672,-3.692 13.531,-2.858 2.835,0.502 5.362,1.753 8.392,1.81 1.835,-0.775 3.723,-2.359 5.833,-1.554 0.223,0.224 0.251,0.668 0.056,0.916 -1.558,1.113 -3.61,1.194 -5.472,1.36 -2.641,2.054 -3.809,5.192 -5.254,7.889 -4.227,9.276 -7.398,19.111 -15.598,26.638 -0.387,0.332 -0.917,0.497 -1.196,0.971 1.892,-0.082 3.475,-1.333 5.031,-2.416 7.669,-6.692 11.953,-16.109 17.401,-24.552 2.835,-4.194 6.28,-8.303 10.615,-10.998 0.334,-0.027 0.639,0.029 0.666,0.39 -0.472,0.917 -1.304,1.693 -1.86,2.583 -4.56,7.556 -5.009,16.834 -10.178,24.139 -2.753,4.277 -5.949,8.194 -10.367,10.941 l -10e-4,0.111 c -0.11,-0.11 -0.333,-0.026 -0.361,0.057 0.057,0.276 0.362,0.221 0.473,0.084 3.583,-0.251 6.337,-2.891 9.086,-5.166 5.311,-5.247 8.535,-11.998 12.733,-18.053 4.694,-7.638 11.673,-14.774 20.036,-17.994 5.945,-1.859 13.251,-1.579 17.503,3.535 0.166,0.195 0.221,0.418 0.192,0.696 l -0.25,-10e-4 C 106.662,18.371 100.133,18.118 94.994,20.087 88.018,22.253 82.015,28.361 77.65,34.416 L 69.895,45.723 C 65.197,52.83 58,61.051 48.915,60.548 c -1.194,0.497 -2.639,0.941 -3.723,0.053 -0.166,-0.472 0.225,-0.609 0.418,-0.859 1.167,-0.749 2.972,0.528 3.86,-0.86 3.059,-3.334 5.06,-7.25 7.144,-11 1.892,-3.61 3.451,-7.362 5.089,-11.111 -0.027,-0.054 -0.109,-0.055 -0.193,-0.055 -4.67,8.11 -9.759,17.861 -18.679,22.579 -2.027,1.306 -4.915,0.747 -7.03,1.691 -0.916,0.141 -2.137,0.084 -2.777,-0.694 -0.194,-0.5 0.251,-0.889 0.611,-1.056 1.445,-0.556 2.612,0.001 4.112,0.057 1.89,-1.416 2.837,-3.637 3.977,-5.637 3.364,-7.001 6.005,-14.28 10.229,-20.917 2.197,-3.444 5.005,-6.527 8.146,-8.998 l -0.196,-0.109 c -5.36,-0.671 -11.195,-0.116 -16.058,1.911 0.083,0.721 0.777,1.331 1.056,2.053 2.082,5.087 0.079,10.669 -2.12,15.085 -2.638,4.333 -7.142,9.583 -12.559,8.968 -0.723,-0.137 -1.332,-0.665 -2.027,-0.722 -1.973,1.056 -4.196,1.471 -6.475,1.775 -0.499,0.527 0.14,1.224 0.193,1.807 2.971,7.752 10.401,11.481 18.343,11.733 L 281.09,66.339 281.086,67.53 43.181,67.412 C 34.403,67.829 26.577,65.178 21.968,57.675 20.913,56.147 20.552,54.341 19.861,52.647 18.862,51.896 17.581,51.452 16.692,50.419 13.637,47.169 13.474,42.17 14.226,37.889 16.396,27.668 24.622,18.782 34.543,15.286 47.185,10.455 63.271,12.073 74.436,18.969 M 42.54,26.151 C 34.535,30.01 26.81,37.896 27.5,47.509 c 0.224,0.695 0.224,1.557 0.861,2.055 4.39,-3.08 8.115,-7.857 9.34,-13.055 l 0.167,0.002 c 0.165,0.39 0.249,0.834 0.137,1.251 -1.057,4.974 -4.366,9.527 -8.698,12.666 -10e-4,0.5 0.58,0.444 0.861,0.665 4.805,0.588 7.642,-4.081 10.446,-7.19 2.894,-4.833 6.172,-10.887 3.398,-16.695 -0.362,-0.39 -0.75,-1.28 -1.472,-1.057 z m -7.325,-1.33 c -1.114,0.263 -2.192,0.729 -2.732,0.966 -8.586,3.884 -12.396,13.33 -11.87,22.33 0.135,1.252 0.164,2.53 0.69,3.61 1.61,0.364 3.418,-0.081 4.947,-0.802 0.471,-0.334 1.305,-0.471 1.305,-1.193 C 26.833,48.565 26.472,47.257 26.197,45.896 25.7,37.062 30.981,29.229 38.068,24.732 l 0.111,-0.251 c -0.453,-0.029 -1.727,0.047 -2.964,0.34 z"
   clip-path="url(#XMLID_126_)"
   inkscape:connector-curvature="0" />
</g></g></svg>