<svg xmlns="http://www.w3.org/2000/svg" viewBox="0 0 32 32" id="svg38"><defs id="defs4"><style id="style2">.cls-1{fill:none;stroke:#ff762a;stroke-miterlimit:10;stroke-width:2px}</style></defs><path class="cls-1" id="rect8" fill="none" stroke="#ff762a" stroke-width="2" stroke-miterlimit="10" d="M1 1h30v30H1z"></path><path class="cls-1" id="line10" fill="none" stroke="#ff762a" stroke-width="2" stroke-miterlimit="10" d="M31 7H1"></path><path class="cls-1" id="line12" fill="none" stroke="#ff762a" stroke-width="2" stroke-miterlimit="10" d="M4 4h2"></path><path class="cls-1" id="line14" fill="none" stroke="#ff762a" stroke-width="2" stroke-miterlimit="10" d="M8 4h2"></path><path class="cls-1" id="line16" fill="none" stroke="#ff762a" stroke-width="2" stroke-miterlimit="10" d="M12 4h2"></path><path class="cls-1" d="M22.4 16.17l-5.49-3.66c-.21-.16-.38-.07-.56 0l-5.49 3.66a1 1 0 0 0-.42.79v5.7a1 1 0 0 0 .42.79l5.49 3.66a.38.38 0 0 0 .56 0l5.49-3.66a1 1 0 0 0 .42-.79V17a1 1 0 0 0-.42-.83z" id="path18" fill="none" stroke="#ff762a" stroke-width="2" stroke-miterlimit="10"></path><path class="cls-1" id="polyline20" fill="none" stroke="#ff762a" stroke-width="2" stroke-miterlimit="10" d="M10.48 16.67l6.15 3.91 6.19-4.13"></path><path class="cls-1" id="line22" fill="none" stroke="#ff762a" stroke-width="2" stroke-miterlimit="10" d="M16.63 20.58v6.47"></path><path class="cls-1" id="polyline24" fill="none" stroke="#ff762a" stroke-width="2" stroke-miterlimit="10" d="M13.14 21.27h-1"></path><path class="cls-1" id="line26" fill="none" stroke="#ff762a" stroke-width="2" stroke-miterlimit="10" d="M14.14 22.24h.99"></path><path class="cls-1" id="line28" fill="none" stroke="#ff762a" stroke-width="2" stroke-miterlimit="10" d="M19.12 21.76h1"></path><path class="cls-1" id="line30" fill="none" stroke="#ff762a" stroke-width="2" stroke-miterlimit="10" d="M14.14 16.41h.99"></path><path class="cls-1" id="line32" fill="none" stroke="#ff762a" stroke-width="2" stroke-miterlimit="10" d="M16.13 16.41h1"></path><path class="cls-1" id="line34" fill="none" stroke="#ff762a" stroke-width="2" stroke-miterlimit="10" d="M18.12 16.41h1"></path></svg>