<svg xmlns:dc="http://purl.org/dc/elements/1.1/" xmlns:cc="http://creativecommons.org/ns#" xmlns:rdf="http://www.w3.org/1999/02/22-rdf-syntax-ns#" xmlns:svg="http://www.w3.org/2000/svg" xmlns="http://www.w3.org/2000/svg" xmlns:sodipodi="http://sodipodi.sourceforge.net/DTD/sodipodi-0.dtd" xmlns:inkscape="http://www.inkscape.org/namespaces/inkscape" width="32.913" height="32.912" viewBox="0 0 32.913 32.912" version="1.1" id="svg12" sodipodi:docname="gambling.svg" inkscape:version="0.92.4 (unknown)">
  <metadata id="metadata18">
    <rdf:rdf>
      <cc:work rdf:about="">
        <dc:format>image/svg+xml</dc:format>
        <dc:type rdf:resource="http://purl.org/dc/dcmitype/StillImage"></dc:type>
      </cc:work>
    </rdf:rdf>
  </metadata>
  <defs id="defs16"></defs>
  <sodipodi:namedview pagecolor="#ffffff" bordercolor="#666666" borderopacity="1" objecttolerance="10" gridtolerance="10" guidetolerance="10" inkscape:pageopacity="0" inkscape:pageshadow="2" inkscape:window-width="640" inkscape:window-height="480" id="namedview14" showgrid="false" inkscape:zoom="21.481527" inkscape:cx="7.9375518" inkscape:cy="16.455999" inkscape:current-layer="svg12"></sodipodi:namedview>
  <path style="color:#000000;font-style:normal;font-variant:normal;font-weight:normal;font-stretch:normal;font-size:medium;line-height:normal;font-family:sans-serif;font-variant-ligatures:normal;font-variant-position:normal;font-variant-caps:normal;font-variant-numeric:normal;font-variant-alternates:normal;font-feature-settings:normal;text-indent:0;text-align:start;text-decoration:none;text-decoration-line:none;text-decoration-style:solid;text-decoration-color:#000000;letter-spacing:normal;word-spacing:normal;text-transform:none;writing-mode:lr-tb;direction:ltr;text-orientation:mixed;dominant-baseline:auto;baseline-shift:baseline;text-anchor:start;white-space:normal;shape-padding:0;clip-rule:nonzero;display:inline;overflow:visible;visibility:visible;opacity:1;isolation:auto;mix-blend-mode:normal;color-interpolation:sRGB;color-interpolation-filters:linearRGB;solid-color:#000000;solid-opacity:1;vector-effect:none;fill:#ff762a;fill-opacity:1;fill-rule:nonzero;stroke:none;stroke-width:2;stroke-linecap:round;stroke-linejoin:miter;stroke-miterlimit:4;stroke-dasharray:none;stroke-dashoffset:0;stroke-opacity:1;color-rendering:auto;image-rendering:auto;shape-rendering:auto;text-rendering:auto;enable-background:accumulate" d="M 0,11.886719 V 32.910156 H 1 21.023438 V 11.886719 Z m 2,2 H 19.023438 V 30.910156 H 2 Z" id="path2" inkscape:connector-curvature="0"></path>
  <path d="M6.214 16.489a1.679 1.679 0 0 1-1.679 1.679 1.679 1.679 0 0 1-1.679-1.679 1.679 1.679 0 0 1 1.679-1.679 1.679 1.679 0 0 1 1.679 1.679zM18.102 16.489a1.679 1.679 0 0 1-1.679 1.679 1.679 1.679 0 0 1-1.679-1.679 1.679 1.679 0 0 1 1.679-1.679 1.679 1.679 0 0 1 1.679 1.679zM18.102 28.377a1.679 1.679 0 0 1-1.679 1.679 1.679 1.679 0 0 1-1.679-1.679 1.679 1.679 0 0 1 1.679-1.679 1.679 1.679 0 0 1 1.679 1.679zM6.214 28.377a1.679 1.679 0 0 1-1.679 1.679 1.679 1.679 0 0 1-1.679-1.679 1.679 1.679 0 0 1 1.679-1.679 1.679 1.679 0 0 1 1.679 1.679zM12.158 22.433a1.679 1.679 0 0 1-1.679 1.679A1.679 1.679 0 0 1 8.8 22.433a1.679 1.679 0 0 1 1.679-1.679 1.679 1.679 0 0 1 1.679 1.679z" fill="#ff762a" id="path4"></path>
  <g id="g10">
    <path style="color:#000000;font-style:normal;font-variant:normal;font-weight:normal;font-stretch:normal;font-size:medium;line-height:normal;font-family:sans-serif;font-variant-ligatures:normal;font-variant-position:normal;font-variant-caps:normal;font-variant-numeric:normal;font-variant-alternates:normal;font-feature-settings:normal;text-indent:0;text-align:start;text-decoration:none;text-decoration-line:none;text-decoration-style:solid;text-decoration-color:#000000;letter-spacing:normal;word-spacing:normal;text-transform:none;writing-mode:lr-tb;direction:ltr;text-orientation:mixed;dominant-baseline:auto;baseline-shift:baseline;text-anchor:start;white-space:normal;shape-padding:0;clip-rule:nonzero;display:inline;overflow:visible;visibility:visible;opacity:1;isolation:auto;mix-blend-mode:normal;color-interpolation:sRGB;color-interpolation-filters:linearRGB;solid-color:#000000;solid-opacity:1;vector-effect:none;fill:#ff762a;fill-opacity:1;fill-rule:nonzero;stroke:none;stroke-width:2;stroke-linecap:round;stroke-linejoin:miter;stroke-miterlimit:4;stroke-dasharray:none;stroke-dashoffset:0;stroke-opacity:1;color-rendering:auto;image-rendering:auto;shape-rendering:auto;text-rendering:auto;enable-background:accumulate" d="m 11.888672,0 v 1 12.886719 h 7.136719 v 7.136719 H 32.912109 V 0 Z m 2,2 h 17.023437 v 17.023438 h -9.886718 v -7.136719 h -7.136719 z" id="path6" inkscape:connector-curvature="0"></path>
    <path d="M 18.102,4.601 A 1.679,1.679 0 0 1 16.423,6.28 1.679,1.679 0 0 1 14.744,4.601 1.679,1.679 0 0 1 16.423,2.922 1.679,1.679 0 0 1 18.102,4.601 Z m 11.888,0 A 1.679,1.679 0 0 1 28.311,6.28 1.679,1.679 0 0 1 26.632,4.601 1.679,1.679 0 0 1 28.311,2.922 1.679,1.679 0 0 1 29.99,4.601 Z m 0,11.888 a 1.679,1.679 0 0 1 -1.679,1.679 1.679,1.679 0 0 1 -1.679,-1.679 1.679,1.679 0 0 1 1.679,-1.679 1.679,1.679 0 0 1 1.679,1.679 z" id="path8" inkscape:connector-curvature="0" style="fill:#ff762a"></path>
  </g>
</svg>