<svg xmlns="http://www.w3.org/2000/svg" viewBox="0 0 33 35.03" id="svg36"><defs id="defs4"><style id="style2">.cls-1,.cls-2{fill:none;stroke:#ff762a;stroke-width:2px}.cls-1{stroke-miterlimit:10}.cls-2{stroke-linejoin:round}</style></defs><path class="cls-1" d="M16 17V3l2-2h9v12" id="path8" fill="none" stroke="#ff762a" stroke-width="2" stroke-miterlimit="10"></path><path class="cls-1" d="M16 23H5V1h9l2 2v5.83" id="path10" fill="none" stroke="#ff762a" stroke-width="2" stroke-miterlimit="10"></path><path class="cls-1" id="polyline12" fill="none" stroke="#ff762a" stroke-width="2" stroke-miterlimit="10" d="M5 5H1v22h15"></path><path class="cls-1" d="M27 5h4v12" id="path14" fill="none" stroke="#ff762a" stroke-width="2" stroke-miterlimit="10"></path><path class="cls-1" id="line16" fill="none" stroke="#ff762a" stroke-width="2" stroke-miterlimit="10" d="M8 8h5"></path><path class="cls-1" id="line18" fill="none" stroke="#ff762a" stroke-width="2" stroke-miterlimit="10" d="M8 12h5"></path><path class="cls-1" id="line20" fill="none" stroke="#ff762a" stroke-width="2" stroke-miterlimit="10" d="M8 16.01h5"></path><path class="cls-1" id="line22" fill="none" stroke="#ff762a" stroke-width="2" stroke-miterlimit="10" d="M19.01 8h5"></path><path class="cls-1" id="line24" fill="none" stroke="#ff762a" stroke-width="2" stroke-miterlimit="10" d="M19.01 12h5"></path><path class="cls-2" d="M32 24a6 6 0 1 0-8 5.65V32h4v-2.32A6 6 0 0 0 32 24z" id="path26" fill="none" stroke="#ff762a" stroke-width="2" stroke-linejoin="round"></path><path class="cls-2" id="line28" fill="none" stroke="#ff762a" stroke-width="2" stroke-linejoin="round" d="M24 34.03h4"></path><path class="cls-2" id="line30" fill="none" stroke="#ff762a" stroke-width="2" stroke-linejoin="round" d="M23 23.03h6"></path><path class="cls-2" d="M26 23v2a1 1 0 0 1-1 1" id="path32" fill="none" stroke="#ff762a" stroke-width="2" stroke-linejoin="round"></path></svg>