<svg xmlns="http://www.w3.org/2000/svg" viewBox="0 0 32 32" id="svg35"><defs id="defs7"><style id="style2">.cls-3{fill:none;stroke:#ff762a;stroke-miterlimit:10;stroke-width:2px}</style></defs><path id="polyline11" class="cls-3" fill="none" stroke="#ff762a" stroke-width="2" stroke-miterlimit="10" d="M3 16v15h26V16"></path><path id="line13" class="cls-3" fill="none" stroke="#ff762a" stroke-width="2" stroke-miterlimit="10" d="M0 31h32"></path><path id="polyline15" class="cls-3" fill="none" stroke="#ff762a" stroke-width="2" stroke-miterlimit="10" d="M7 31V18h18v13"></path><path id="path17" d="M7 8H1v3a3 3 0 0 0 6 0z" class="cls-3" fill="none" stroke="#ff762a" stroke-width="2" stroke-miterlimit="10"></path><path id="path19" d="M13 8H7v3a3 3 0 0 0 6 0z" class="cls-3" fill="none" stroke="#ff762a" stroke-width="2" stroke-miterlimit="10"></path><path id="path21" d="M19 8h-6v3a3 3 0 1 0 6 0z" class="cls-3" fill="none" stroke="#ff762a" stroke-width="2" stroke-miterlimit="10"></path><path id="path23" d="M25 8h-6v3a3 3 0 0 0 6 0z" class="cls-3" fill="none" stroke="#ff762a" stroke-width="2" stroke-miterlimit="10"></path><path id="path25" d="M31 8h-6v3a3 3 0 0 0 6 0z" class="cls-3" fill="none" stroke="#ff762a" stroke-width="2" stroke-miterlimit="10"></path><path id="polyline27" class="cls-3" fill="none" stroke="#ff762a" stroke-width="2" stroke-miterlimit="10" d="M29 6V1H3v5"></path><path id="line29" class="cls-3" fill="none" stroke="#ff762a" stroke-width="2" stroke-miterlimit="10" d="M19 18.12v12.55"></path><path id="rect4" fill="none" d="M0 0h32v32H0z"></path></svg>