<svg xmlns="http://www.w3.org/2000/svg" width="34.572" height="34.365" viewBox="0 0 34.572 34.365">
  <path d="M0 0v2h4.04l3.425 22.2c-1.57.616-2.695 2.14-2.695 3.921a4.239 4.239 0 0 0 4.222 4.223h1.547c.434 1.172 1.558 2.021 2.873 2.021 1.334 0 2.47-.874 2.89-2.072H26.48c.42 1.198 1.556 2.072 2.89 2.072a3.089 3.089 0 0 0 3.074-3.072 3.089 3.089 0 0 0-3.074-3.072c-1.334 0-2.47.874-2.89 2.072H16.303c-.42-1.198-1.557-2.072-2.89-2.072-1.353 0-2.502.899-2.907 2.123H8.992A2.208 2.208 0 0 1 6.77 28.12c0-1.186.904-2.126 2.068-2.205l24.523.01 1.211-21.68H11.39c-1.353-.019-1.353 2.02 0 2h21.07L31.471 23.9H9.44L5.754 0zm13.412 30.22c.604 0 1.072.469 1.072 1.073s-.468 1.072-1.072 1.072a1.057 1.057 0 0 1-1.072-1.072c0-.604.468-1.072 1.072-1.072zm15.957 0a1.06 1.06 0 0 1 1.074 1.073c0 .604-.47 1.072-1.074 1.072a1.057 1.057 0 0 1-1.072-1.072c0-.604.468-1.072 1.072-1.072z" font-weight="400" overflow="visible" style="line-height:normal;font-variant-ligatures:normal;font-variant-position:normal;font-variant-caps:normal;font-variant-numeric:normal;font-variant-alternates:normal;font-feature-settings:normal;text-indent:0;text-align:start;text-decoration-line:none;text-decoration-style:solid;text-decoration-color:#000;text-transform:none;text-orientation:mixed;shape-padding:0;isolation:auto;mix-blend-mode:normal" color="#000" font-family="sans-serif" white-space="normal" fill="#ff762a"></path>
</svg>