<svg xmlns="http://www.w3.org/2000/svg" viewBox="0 0 37.55 32.87" id="svg31"><defs id="defs7"><style id="style2">.cls-3{fill:none;stroke:#ff762a;stroke-miterlimit:10;stroke-width:2px}</style></defs><path id="path11" d="M5.17 9.87H3l-2 2v6l2 2h2" class="cls-3" fill="none" stroke="#ff762a" stroke-width="2" stroke-miterlimit="10"></path><path id="polyline13" class="cls-3" fill="none" stroke="#ff762a" stroke-width="2" stroke-miterlimit="10" d="M31 13.87v10h-4l-11-4h-.92"></path><path id="polyline15" class="cls-3" fill="none" stroke="#ff762a" stroke-width="2" stroke-miterlimit="10" d="M15.17 9.87H16l6.21-2.26"></path><path id="line17" class="cls-3" fill="none" stroke="#ff762a" stroke-width="2" stroke-miterlimit="10" d="M9 11.87v2"></path><path id="polyline19" class="cls-3" fill="none" stroke="#ff762a" stroke-width="2" stroke-miterlimit="10" d="M10 24.87h5v-4"></path><path id="polyline21" class="cls-3" fill="none" stroke="#ff762a" stroke-width="2" stroke-miterlimit="10" d="M7 20.87v11h4v-11"></path><path id="rect23" class="cls-3" fill="none" stroke="#ff762a" stroke-width="2" stroke-miterlimit="10" d="M5 8.87h10v12H5z"></path><path id="path25" d="M35.88 6A3.056 3.056 0 1 0 31 2.32 3.06 3.06 0 1 0 26.11 6c.11.14 4.88 5 4.88 5s4.77-4.9 4.88-5z" class="cls-3" fill="none" stroke="#ff762a" stroke-width="2" stroke-miterlimit="10"></path><path id="rect4" fill="none" d="M0 0h37.55v32.87H0z"></path></svg>