<?xml version="1.0" encoding="UTF-8" standalone="no"?>
<!-- Generator: Adobe Illustrator 21.0.0, SVG Export Plug-In . SVG Version: 6.00 Build 0)  -->

<svg
   xmlns:dc="http://purl.org/dc/elements/1.1/"
   xmlns:cc="http://creativecommons.org/ns#"
   xmlns:rdf="http://www.w3.org/1999/02/22-rdf-syntax-ns#"
   xmlns:svg="http://www.w3.org/2000/svg"
   xmlns="http://www.w3.org/2000/svg"
   xmlns:sodipodi="http://sodipodi.sourceforge.net/DTD/sodipodi-0.dtd"
   xmlns:inkscape="http://www.inkscape.org/namespaces/inkscape"
   version="1.1"
   id="Layer_1"
   x="0px"
   y="0px"
   viewBox="0 0 541.05644 170.88669"
   xml:space="preserve"
   sodipodi:docname="iherb-seeklogo.com.svg"
   width="541.05646"
   height="170.88669"
   inkscape:version="0.92.4 (unknown)"><metadata
   id="metadata25"><rdf:RDF><cc:Work
       rdf:about=""><dc:format>image/svg+xml</dc:format><dc:type
         rdf:resource="http://purl.org/dc/dcmitype/StillImage" /></cc:Work></rdf:RDF></metadata><defs
   id="defs23" /><sodipodi:namedview
   pagecolor="#ffffff"
   bordercolor="#666666"
   borderopacity="1"
   objecttolerance="10"
   gridtolerance="10"
   guidetolerance="10"
   inkscape:pageopacity="0"
   inkscape:pageshadow="2"
   inkscape:window-width="1920"
   inkscape:window-height="1001"
   id="namedview21"
   showgrid="false"
   inkscape:zoom="0.29241258"
   inkscape:cx="827.1149"
   inkscape:cy="26.976737"
   inkscape:window-x="0"
   inkscape:window-y="0"
   inkscape:window-maximized="1"
   inkscape:current-layer="Layer_1" />
<style
   type="text/css"
   id="style2">
	.st0{fill:#458500;}
	.st1{fill:#458400;}
	.st2{fill:#458501;}
	.st3{fill:#FEFEFE;}
	.st4{fill:#FDFDFC;}
</style>
<path
   class="st0"
   d="m 187.86996,84.942868 c 0,20.257452 0,40.514902 0,60.734482 0,6.09617 -0.5301,12.07874 -4.39227,17.19044 -5.37674,7.11851 -12.72244,8.93599 -20.97687,7.26996 -8.51949,-1.7039 -14.50206,-8.86027 -15.07003,-19.19724 -0.68156,-12.34379 -0.34078,-24.76332 -0.37864,-37.14497 -0.0379,-14.842842 0,-14.842842 -14.4642,-14.842842 -12.38166,0 -24.80117,0.22719 -37.182831,-0.1136 -5.22529,-0.15145 -6.66413,1.514582 -6.55054,6.626272 0.30291,14.19915 0.15146,28.39829 0.0757,42.59744 -0.0379,8.74668 -3.02916,16.09236 -11.0564,20.37104 -11.62437,6.1719 -25.52061,0 -28.58762,-12.76029 -0.98448,-4.0515 -1.13593,-8.36803 -1.13593,-12.57098 -0.0757,-38.69741 -0.0379,-77.356952 -0.0379,-116.054366 0,-2.726231 0.0757,-5.45247 0.45437,-8.140841 1.62818,-12.8738897 8.74668,-19.23510968 20.90115,-18.89433068 11.39719,0.340779 18.97006,8.17870598 19.4623,20.67395768 0.34078,9.352502 0.0757,18.742872 0.0757,28.095374 0,14.729254 0,14.729254 14.426331,14.729254 12.38165,0 24.80118,-0.22719 37.18283,0.11359 5.07383,0.15146 6.73986,-1.28739 6.58841,-6.47481 -0.37865,-11.775827 -0.41651,-23.589518 0,-35.365342 0.45437,-13.5175897 7.80006,-21.43124468 19.31084,-21.77202368 13.25253,-0.378644 21.05259,7.49715198 21.39338,22.33999068 0.30291,14.502062 0.0757,29.004117 0.0757,43.506185 -0.11359,6.39908 -0.11359,12.72243 -0.11359,19.08365 z"
   id="path4"
   inkscape:connector-curvature="0"
   style="fill:#458500;stroke-width:0.37864393" />
<path
   style="fill:#458400;stroke-width:0.37864393"
   d="m 437.28414,0.07173532 c -10.05103,0.01465 -16.66757,5.92000698 -18.02478,16.37412668 -0.41651,3.294205 -0.41636,6.626566 -0.41636,9.958632 -0.0379,39.606154 -0.038,79.212606 0.0377,118.818766 0,4.16508 0.26491,8.48147 1.17365,12.53296 1.55244,6.77772 6.13388,11.17 12.91161,12.49525 7.30782,1.43884 14.72939,-0.0382 18.32652,-6.74016 3.36992,-6.28549 5.56636,-3.5594 9.20138,-1.09822 19.72731,13.32827 46.64845,10.67776 62.968,-6.62626 17.304,-18.28851 19.57636,-41.08257 16.35789,-64.444902 -3.63497,-26.39149 -17.83416,-42.446137 -39.94697,-46.914129 -15.3729,-3.104883 -30.0266,-0.946164 -44.45294,10.110238 0,-13.517591 0.34063,-25.256146 -0.15161,-36.956242 -0.37864,-10.5641627 -7.23224,-17.15227068 -17.00126,-17.49304968 -0.33131,-0.01183 -0.65861,-0.01748 -0.98284,-0.01701 z m 43.1898,74.07295268 c 7.28847,-0.0718 14.34634,4.15029 18.07358,12.3503 5.18747,11.39718 5.48978,23.438212 1.85481,35.365492 -3.29418,10.90495 -10.94271,16.62277 -21.0525,16.39558 -10.0719,-0.22718 -17.49304,-6.21006 -20.52221,-17.15287 -1.21163,-4.27868 -1.51455,-8.85982 -1.89319,-11.09382 0.11359,-11.510772 1.43887,-20.371342 7.57285,-27.754892 4.48933,-5.40041 10.29785,-8.05394 15.96666,-8.10979 z"
   id="path6"
   inkscape:connector-curvature="0" />
<path
   style="fill:#458500;stroke-width:0.37864393"
   d="m 260.04922,42.769751 c -7.75009,-0.113305 -15.7436,1.123212 -23.82646,3.361941 -22.07494,6.058304 -34.30499,22.302436 -38.6594,44.604556 -5.98257,30.556562 3.673,57.553722 25.52075,71.033452 14.88071,9.20105 31.42745,10.41285 48.08778,8.10313 16.73606,-2.30973 31.35141,-9.2012 39.64371,-25.14211 4.24081,-8.14084 2.87755,-16.20566 -2.80211,-20.5222 -5.98257,-4.54373 -14.61565,-3.59712 -21.39338,2.46118 -5.14955,4.61946 -9.92032,9.73086 -16.3194,12.76001 -14.00983,6.62627 -29.04214,0.11344 -33.66159,-14.16144 -1.59031,-4.96023 -0.37865,-6.55068 4.73304,-6.39922 8.14085,0.26505 16.31971,0.0762 25.8994,0.0762 9.12532,-0.30292 19.72764,0.83287 30.21608,-0.90889 11.66223,-1.93109 16.9628,-7.7622 17.34144,-19.500172 0.49224,-14.50206 -4.01317,-27.41352 -14.12297,-37.93982 C 288.75398,48.122387 274.84486,42.986061 260.04922,42.769751 Z m -4.16138,29.892907 c 1.25328,-0.003 2.54919,0.10205 3.88627,0.31504 8.21657,1.28739 13.21467,6.55039 15.90304,14.23686 1.47672,4.20295 0.5307,6.05875 -4.31594,5.75584 -5.41461,-0.30292 -10.82937,-0.0762 -16.24398,-0.0762 -3.2942,0 -6.62671,0.15161 -9.92091,-0.0377 -2.91556,-0.15146 -7.15592,1.47671 -8.44331,-0.9466 -1.74177,-3.21848 1.13608,-6.85346 2.99144,-9.84475 3.86571,-6.22987 9.37566,-9.38687 16.14339,-9.4025 z"
   id="path8"
   inkscape:connector-curvature="0" />
<path
   class="st0"
   d="m 358.37331,52.568811 c 13.10108,-13.934095 32.2226,-10.185518 43.31686,-3.597115 8.78454,5.225287 11.92728,13.858372 8.44376,22.339992 -3.52139,8.51949 -11.62437,11.77583 -21.77202,8.78454 -17.34189,-5.14955 -22.7565,-1.55244 -25.70992,16.54674 -2.46119,15.335082 -1.21166,30.708022 -1.55244,46.080962 -0.0757,3.63498 0.15145,7.30783 -0.37865,10.82922 -1.7039,11.01854 -9.23891,17.34189 -19.84094,17.00111 -9.92047,-0.30291 -16.92538,-7.00491 -17.7584,-18.06131 -0.64369,-8.4059 -0.4165,-16.88752 -0.4165,-25.33128 0,-20.5225 -0.0379,-41.045002 0.18932,-61.605372 0.0757,-9.16318 2.15827,-17.606941 11.88942,-21.393378 8.33016,-3.142743 15.78945,-0.340777 23.58951,8.405891 z"
   id="path10"
   inkscape:connector-curvature="0"
   style="fill:#458500;stroke-width:0.37864393" />
<path
   class="st0"
   d="m 0.02470904,106.86635 c 0,-14.199142 -0.0757,-28.398292 0.0379,-42.597442 0.11359,-13.10108 7.04277996,-20.82541 18.51568996,-20.976871 11.81369,-0.151456 19.42443,7.837931 19.50016,21.166191 0.15145,28.09538 0.18932,56.152902 0,84.248282 -0.0757,14.12342 -7.49715,22.03707 -19.72735,21.88561 -11.62437,-0.15145 -18.25062996,-8.10298 -18.32636996,-22.07493 -0.0379,-13.85837 0,-27.75461 0,-41.65084 z"
   id="path12"
   inkscape:connector-curvature="0"
   style="fill:#458500;stroke-width:0.37864393" />
<path
   class="st2"
   d="m 18.805449,1.5654823 c 11.20787,-0.151458 19.04579,7.194233 19.31085,18.0234517 0.26505,11.435046 -7.49716,19.424426 -18.89434,19.500154 C 7.824779,39.202682 0.21403904,32.046319 0.02470904,21.065645 -0.20247096,9.4791373 7.332539,1.7169403 18.805449,1.5654823 Z"
   id="path14"
   inkscape:connector-curvature="0"
   style="fill:#458501;stroke-width:0.37864393" />


</svg>