<?xml version="1.0" encoding="UTF-8" standalone="no"?>
<!-- Created with Inkscape (http://www.inkscape.org/) -->

<svg
   xmlns:dc="http://purl.org/dc/elements/1.1/"
   xmlns:cc="http://creativecommons.org/ns#"
   xmlns:rdf="http://www.w3.org/1999/02/22-rdf-syntax-ns#"
   xmlns:svg="http://www.w3.org/2000/svg"
   xmlns="http://www.w3.org/2000/svg"
   xmlns:sodipodi="http://sodipodi.sourceforge.net/DTD/sodipodi-0.dtd"
   xmlns:inkscape="http://www.inkscape.org/namespaces/inkscape"
   id="svg2"
   version="1.1"
   inkscape:version="0.91 r13725"
   xml:space="preserve"
   width="350"
   height="150"
   viewBox="0 0 350 150"
   sodipodi:docname="wfp-world-food-programme.svg"
   inkscape:export-filename="/Users/alex/Downloads/wfp-world-food-programme.png"
   inkscape:export-xdpi="90"
   inkscape:export-ydpi="90"><metadata
     id="metadata8"><rdf:RDF><cc:Work
         rdf:about=""><dc:format>image/svg+xml</dc:format><dc:type
           rdf:resource="http://purl.org/dc/dcmitype/StillImage" /><dc:title /></cc:Work></rdf:RDF></metadata><defs
     id="defs6"><clipPath
       clipPathUnits="userSpaceOnUse"
       id="clipPath16"><path
         d="m 0,0 419.528,0 0,595.276 L 0,595.276 0,0 Z"
         id="path18"
         inkscape:connector-curvature="0" /></clipPath><clipPath
       clipPathUnits="userSpaceOnUse"
       id="clipPath160"><path
         d="m 0,0 419.528,0 0,595.276 L 0,595.276 0,0 Z"
         id="path162"
         inkscape:connector-curvature="0" /></clipPath><clipPath
       clipPathUnits="userSpaceOnUse"
       id="clipPath176"><path
         d="m 0,0 419.528,0 0,595.276 L 0,595.276 0,0 Z"
         id="path178"
         inkscape:connector-curvature="0" /></clipPath><clipPath
       clipPathUnits="userSpaceOnUse"
       id="clipPath194"><path
         d="m 0,0 419.528,0 0,595.276 L 0,595.276 0,0 Z"
         id="path196"
         inkscape:connector-curvature="0" /></clipPath><clipPath
       clipPathUnits="userSpaceOnUse"
       id="clipPath218"><path
         d="m 0,0 419.528,0 0,595.276 L 0,595.276 0,0 Z"
         id="path220"
         inkscape:connector-curvature="0" /></clipPath><clipPath
       clipPathUnits="userSpaceOnUse"
       id="clipPath236"><path
         d="m 0,0 419.528,0 0,595.276 L 0,595.276 0,0 Z"
         id="path238"
         inkscape:connector-curvature="0" /></clipPath><clipPath
       clipPathUnits="userSpaceOnUse"
       id="clipPath252"><path
         d="m 0,0 419.528,0 0,595.276 L 0,595.276 0,0 Z"
         id="path254"
         inkscape:connector-curvature="0" /></clipPath><clipPath
       clipPathUnits="userSpaceOnUse"
       id="clipPath400"><path
         d="m 0,0 419.528,0 0,595.276 L 0,595.276 0,0 Z"
         id="path402"
         inkscape:connector-curvature="0" /></clipPath><clipPath
       clipPathUnits="userSpaceOnUse"
       id="clipPath516"><path
         d="m 0,0 419.528,0 0,595.276 L 0,595.276 0,0 Z"
         id="path518"
         inkscape:connector-curvature="0" /></clipPath><clipPath
       clipPathUnits="userSpaceOnUse"
       id="clipPath638"><path
         d="m 0,0 419.528,0 0,595.276 L 0,595.276 0,0 Z"
         id="path640"
         inkscape:connector-curvature="0" /></clipPath><clipPath
       clipPathUnits="userSpaceOnUse"
       id="clipPath668"><path
         d="m 0,0 419.528,0 0,595.276 L 0,595.276 0,0 Z"
         id="path670"
         inkscape:connector-curvature="0" /></clipPath><clipPath
       clipPathUnits="userSpaceOnUse"
       id="clipPath694"><path
         d="m 0,0 419.528,0 0,595.276 L 0,595.276 0,0 Z"
         id="path696"
         inkscape:connector-curvature="0" /></clipPath><clipPath
       clipPathUnits="userSpaceOnUse"
       id="clipPath724"><path
         d="m 0,0 419.528,0 0,595.276 L 0,595.276 0,0 Z"
         id="path726"
         inkscape:connector-curvature="0" /></clipPath><clipPath
       clipPathUnits="userSpaceOnUse"
       id="clipPath844"><path
         d="m 0,0 419.528,0 0,595.276 L 0,595.276 0,0 Z"
         id="path846"
         inkscape:connector-curvature="0" /></clipPath><clipPath
       clipPathUnits="userSpaceOnUse"
       id="clipPath866"><path
         d="m 0,0 419.528,0 0,595.276 L 0,595.276 0,0 Z"
         id="path868"
         inkscape:connector-curvature="0" /></clipPath></defs><sodipodi:namedview
     pagecolor="#ffffff"
     bordercolor="#666666"
     borderopacity="1"
     objecttolerance="10"
     gridtolerance="10"
     guidetolerance="10"
     inkscape:pageopacity="0"
     inkscape:pageshadow="2"
     inkscape:window-width="1263"
     inkscape:window-height="708"
     id="namedview4"
     showgrid="false"
     inkscape:zoom="2.2228571"
     inkscape:cx="173.16196"
     inkscape:cy="76.236727"
     inkscape:window-x="0"
     inkscape:window-y="0"
     inkscape:window-maximized="0"
     inkscape:current-layer="g10" /><g
     id="g10"
     inkscape:groupmode="layer"
     inkscape:label="WFP-0000063821"
     transform="matrix(1.25,0,0,-1.25,0,150.00003)"><g
       id="g4284"
       transform="matrix(1.1997723,0,0,1.1997723,76.385912,-23.97265)"><path
         d="m 60.461286,90.343616 c 0.52481,1.14441 1.014941,2.057625 1.722394,3.146548 0.312112,0.478571 0.670462,0.81149 0.980262,1.299309 -0.152588,0.04393 -0.365286,-0.0786 -0.462388,-0.150276 -0.319047,-0.226569 -0.460075,-0.59648 -0.709765,-0.797618 -0.594168,-0.4647 -0.580296,-0.892408 -0.890096,-1.109731 -0.275121,-0.198826 -0.353727,-0.325983 -0.552553,-0.631159 -0.127157,-0.201138 -0.224258,-0.367598 -0.360663,-0.774499 -0.05086,-0.141028 -0.145652,-0.0092 -0.381469,-0.332919 -0.300552,-0.416149 -0.439269,-0.864665 -0.566425,-1.366356 -0.0393,-0.164147 -0.32136,-0.249689 -0.497067,-0.598792 -0.247377,-0.460075 -0.402277,-0.885472 -0.506315,-1.558246 -0.03005,-0.159524 -0.288992,-0.270497 -0.471635,-0.705141 -0.13178,-0.302864 -0.221946,-0.372222 -0.332919,-0.945583 -0.07398,-0.353727 -0.23813,-0.406901 -0.413837,-0.915528 -0.141028,-0.390717 -0.145652,-0.760627 -0.194203,-1.273878 -0.0092,-0.09941 -0.175707,-0.291304 -0.332919,-0.577984 -0.254313,-0.47626 -0.249689,-0.795307 -0.353726,-1.285438 -0.03699,-0.180331 -0.233506,-0.416149 -0.430021,-1.179088 -0.168771,-0.677398 -0.0092,-1.123603 -0.07167,-1.458834 -0.145652,-0.864664 -0.295928,-1.616044 -0.21501,-2.46915 0.03699,-0.418461 0.104037,-0.850793 0.07861,-1.243822 -0.08554,-1.266943 -0.150276,-2.295755 -0.143341,-3.722221 0.0046,-0.779123 0.06473,-1.840303 0.182644,-2.723463 0.127156,-0.973326 0.316735,-1.738578 0.316735,-1.738578 l 3.174291,0 c 0,0 -0.12022,1.842615 0.04624,3.777707 0.0971,1.162905 0.372222,2.388232 0.621912,3.252897 0.321359,1.105107 0.51325,1.676156 1.116666,3.130365 0.01156,0.02774 -0.0023,0.166459 -0.164148,0.03237 -0.332919,-0.279745 -0.60804,-0.522498 -0.871601,-0.91784 -0.395341,-0.603415 -0.640407,-1.100482 -0.964078,-1.720082 -0.376846,-0.721324 -0.587232,-1.345548 -0.97795,-2.226396 -0.02774,0.633471 0.07861,1.236887 0.208075,1.817183 0.129468,0.59648 0.233505,1.068116 0.420772,1.576742 0.335231,0.90628 0.651967,1.659972 1.186025,2.501517 0.305176,0.485507 0.700517,0.91784 1.095858,1.280814 0.483196,0.436957 0.922464,0.82305 1.424154,1.250759 -0.522498,0.270497 -1.225327,-0.29824 -1.366355,-0.323672 -0.744444,-0.145652 -1.040372,-0.829985 -1.26463,-0.927087 -0.328296,-0.136404 -0.513251,-0.330607 -0.739821,-0.605728 -0.168771,-0.205762 -0.221946,-0.520186 -0.406901,-0.631159 -0.295928,-0.189579 -0.517874,-0.476259 -0.72826,-0.869289 -0.08554,-0.161835 -0.316736,-0.936335 -0.573361,-0.836921 0.439268,2.621738 1.361732,5.077016 2.85062,7.26411 0.943271,1.389475 1.965148,2.582435 3.472531,3.648239 0.203451,0.14334 0.240442,0.208074 -0.03699,0.196514 -1.410282,-0.173395 -1.495824,-0.816114 -1.72933,-0.876224 -0.224258,-0.05549 -0.492442,-0.319048 -0.665838,-0.492443 -0.314423,-0.305176 -0.312111,-0.564113 -0.427708,-0.647343 -0.258937,-0.182643 -0.45314,-0.367598 -0.63116,-0.677398 -0.09017,-0.166459 -0.247377,-0.522498 -0.383781,-0.603416 -0.362975,-0.208074 -0.714389,-0.517874 -0.890097,-0.848481 -0.129468,-0.240442 -0.175707,-0.504003 -0.34679,-0.737508 -0.180331,-0.261249 -0.436957,-0.448516 -0.649655,-0.633472 0.161836,1.121291 0.688958,2.448343 1.056556,3.592753 0.490131,1.530503 1.077363,2.919978 1.750137,4.364939"
         style="fill:#0a6eb4;fill-opacity:1;fill-rule:nonzero;stroke:none"
         id="path22"
         inkscape:connector-curvature="0" /><path
         d="m 63.704473,81.263247 c 1.209144,2.702656 2.473774,4.739474 4.117562,7.116146 0.215011,0.314424 0.406901,0.6196 0.594168,0.910904 l 0.573361,0.83461 c 0.557177,0.834609 0.788371,1.091235 1.352484,1.891165 0.1549,0.210387 0.272809,0.379158 0.339855,0.631159 0.122533,0.4647 -0.277433,0.781436 -0.367598,1.225328 -0.09479,0.457764 -0.04624,0.959454 0.164147,1.343236 0.131781,0.242753 0.263561,0.332919 0.39303,0.65659 0.261249,0.624224 0.168771,1.974396 0.460076,2.013699 -0.06705,-0.642719 -0.09017,-1.361732 0.01156,-1.974396 0.115597,-0.719012 0.552554,-1.153657 0.728261,-1.911973 0.485507,0.08554 1.008005,0.06473 1.417218,0.03237 0.402277,-0.03699 0.913216,0.07398 1.331677,0.217323 0.561801,0.191891 1.028812,0.540993 1.597549,0.675086 -0.487819,-0.467012 -1.174465,-0.642719 -1.752449,-1.00107 -0.208075,-0.13178 -0.406901,-0.302864 -0.550242,-0.522498 -0.228882,-0.360662 -0.411525,-0.702829 -0.776811,-0.862353 -0.638095,-0.279744 -1.195272,-0.147964 -1.925845,-0.288992 -1.091234,-1.123602 -2.117735,-2.647169 -3.063318,-4.251654 -2.402104,-4.064388 -4.404242,-8.27674 -5.571771,-12.590816 0.404589,0.751379 0.790683,1.47964 1.225327,2.194029 0.480883,0.792995 1.019565,1.569806 1.613733,2.348929 1.382539,1.821808 2.751207,3.412421 4.28171,5.088577 1.236887,1.350171 2.593995,2.487645 4.10369,3.437852 1.999827,1.246135 4.464353,2.122359 6.628327,1.671531 0.245066,-0.0578 0.598793,-0.120221 0.753692,-0.282056 -2.714216,0.379155 -5.146375,-0.56874 -6.956623,-2.020637 C 72.989217,86.696302 71.784698,85.535709 70.554746,84.026014 69.923587,83.290817 69.352538,82.49551 68.783802,81.716387 68.189633,80.900273 67.667135,80.040232 67.142325,79.184815 65.387564,76.28102 64.0582,73.20383 63.071002,70.017979 l -0.06011,-0.302864 0.164147,0.221947 c 1.317805,2.140854 2.899171,4.210039 4.908245,5.59489 0.173396,0.122533 0.358351,0.353727 0.40459,0.53637 0.21501,0.848481 -0.430021,1.255382 0.462387,2.434471 0.210387,0.268185 0.490131,0.367598 0.688958,0.614976 0.360662,0.575672 0.663526,1.585989 0.971014,1.86111 -0.1549,-0.661215 -0.53637,-1.361732 -0.614976,-2.041442 -0.08785,-0.749068 0.106349,-1.359419 0.138717,-2.15935 0.529433,-0.07398 0.936335,-0.291304 1.354795,-0.420773 0.651967,-0.201138 1.038061,-0.1549 1.673844,-0.09941 0.272808,0.02774 0.769875,0.184955 1.065803,0.129468 -0.621911,-0.344478 -1.456521,-0.277432 -2.08768,-0.603416 -0.44158,-0.228881 -0.573361,-0.561801 -1.183712,-0.679709 -0.543306,-0.104038 -0.998758,-0.04855 -1.352484,0.134092 -0.275121,0.138716 -0.490131,0.196515 -0.735197,0.07861 -0.661214,-0.316736 -1.107418,-0.76294 -1.641476,-1.301621 C 66.000228,72.780753 64.992223,71.398214 64.0582,69.583342 63.80851,69.102459 63.58194,68.6262 63.371554,68.131445 63.265205,67.893315 63.010892,67.229789 63.010892,67.229789 l -3.215906,0 c 0,0 -0.0092,0.931711 0.0185,1.26463 0.06705,0.677398 0.152588,1.179089 0.288992,1.86111 0.184955,0.984886 0.367599,1.877294 0.626536,2.834437 0.245065,0.929399 0.51325,1.801 0.829985,2.69572 0.665839,1.86111 1.375604,3.638991 2.145479,5.377568"
         style="fill:#0a6eb4;fill-opacity:1;fill-rule:nonzero;stroke:none"
         id="path26"
         inkscape:connector-curvature="0" /><path
         d="m 32.606822,56.21039 c 1.172153,0.959455 2.043754,1.51432 3.211283,2.212525 0.476259,0.284369 1.197584,0.60804 1.754761,0.860041 2.032194,0.915528 4.714042,1.595238 7.250238,1.641476 l 0.0393,0 18.8816,0 0.06011,0 c 0.603416,0 1.199896,-0.208074 1.565182,-0.557177 0.367598,-0.351414 0.547929,-0.887784 0.638095,-1.424154 0.08554,-0.457763 0.04393,-0.862353 -0.06242,-1.352484 -0.08092,-0.381469 -0.147964,-0.612663 -0.358351,-0.940958 -0.13178,-0.196515 -0.256625,-0.337543 -0.497067,-0.527122 -0.249689,-0.198827 -0.603415,-0.265873 -0.998757,-0.268185 l -0.134092,-0.0092 -22.079011,0.0092 -0.203451,0 c -1.444961,0.0023 -2.966217,-0.07629 -4.399618,-0.258937 -1.088923,-0.147964 -2.189406,-0.319048 -3.245962,-0.589545 -1.331676,-0.353726 -2.619426,-0.836921 -3.897928,-1.313181 0.709765,0.945583 1.530504,1.743202 2.476086,2.517701"
         style="fill:#0a6eb4;fill-opacity:1;fill-rule:nonzero;stroke:none"
         id="path30"
         inkscape:connector-curvature="0" /><path
         d="m 39.157931,63.71656 c 1.162905,0.841546 2.568563,1.528192 3.819322,2.004451 0.628847,0.240441 1.472704,0.508626 2.138543,0.672774 0.806866,0.20345 1.736265,0.353726 2.489957,0.374534 0.231194,0.0092 0.03237,0 0.03237,0 l 16.190504,0.0069 0.469324,-0.0393 c 0.307488,-0.06473 0.547929,-0.191891 0.654278,-0.254313 0.247378,-0.164148 0.566425,-0.504003 0.730573,-0.769876 0.416149,-0.693581 0.497067,-1.442649 0.35835,-2.224085 -0.157212,-0.88316 -0.827674,-1.895789 -1.745513,-1.916596 -0.161836,-0.0046 -0.478571,0 -0.478571,0 l -17.538364,0 c 0,0 -1.017253,-0.02081 -1.481953,-0.0393 -0.864665,-0.03468 -1.819495,-0.134093 -2.573187,-0.242754 -0.645031,-0.09016 -1.271566,-0.217322 -1.921221,-0.386094 -2.15935,-0.58492 -4.036644,-1.683091 -6.001792,-2.52926 1.322429,2.309626 3.114181,4.080571 4.857383,5.342889"
         style="fill:#0a6eb4;fill-opacity:1;fill-rule:nonzero;stroke:none"
         id="path34"
         inkscape:connector-curvature="0" /><path
         d="m 30.103687,52.712196 c 2.815941,1.662284 6.20293,2.321186 9.305551,2.427536 l 0.221946,0.0069 24.203683,0 0.258937,0 c 1.470392,0.0046 2.00445,-1.454209 1.999826,-2.630985 0,-0.386094 -0.06705,-0.781435 -0.178019,-1.047308 -0.138716,-0.346791 -0.293616,-0.628848 -0.543306,-0.901656 -0.09248,-0.104038 -0.413836,-0.325984 -0.559489,-0.365287 -0.335231,-0.08323 -0.742132,-0.07398 -0.742132,-0.07398 l -18.007687,0 c 0,0 -0.968702,0.0393 -1.639164,0.104038 -0.487819,0.05086 -0.862353,0.0971 -1.35942,0.194202 -1.241511,0.252002 -2.268012,0.651967 -3.343063,0.980262 -0.716701,0.221946 -1.470393,0.388406 -2.25414,0.506315 -1.447273,0.221946 -3.024015,0.323671 -4.482848,0.212698 -1.856487,-0.138716 -3.507211,-0.501691 -5.271219,-1.058868 0.295928,0.4647 1.537438,1.14441 2.390544,1.6461"
         style="fill:#0a6eb4;fill-opacity:1;fill-rule:nonzero;stroke:none"
         id="path38"
         inkscape:connector-curvature="0" /><path
         d="m 43.137932,45.124184 c -0.825362,0.291304 -1.632228,0.670462 -2.355865,1.149033 -0.945582,0.624223 -1.40797,1.12129 -2.62405,1.683091 -1.04962,0.483195 -1.879605,0.959455 -3.336127,1.486576 -0.698205,0.254314 -1.835679,0.603416 -2.813629,0.767564 -1.389474,0.235818 -2.735023,0.339855 -2.735023,0.339855 0,0 0.279745,0.182643 0.457764,0.233506 1.417218,0.43002 2.674913,0.642719 4.136058,0.756004 1.283126,0.09479 2.455278,-0.03468 3.738404,-0.231194 0.529434,-0.08785 1.213768,-0.247378 1.807936,-0.418461 1.93278,-0.54793 4.131434,-1.41953 6.075774,-1.426466 l 0.0971,0.0069 17.993816,0 0.05317,0 c 0.54793,0 1.562871,-0.175708 1.972084,-0.901656 0.476259,-0.829986 0.624223,-1.826431 0.22657,-2.815941 -0.124845,-0.302864 -0.319048,-0.730573 -0.60804,-0.984886 -0.256625,-0.231194 -0.663526,-0.379158 -0.899344,-0.379158 l -0.189579,0 -15.735052,0 -0.09017,0 c -1.604485,0 -3.629743,0.194203 -5.171806,0.735197"
         style="fill:#0a6eb4;fill-opacity:1;fill-rule:nonzero;stroke:none"
         id="path42"
         inkscape:connector-curvature="0" /><path
         d="m 50.310952,39.547326 c -0.446204,0.455452 -1.063491,1.155969 -1.620669,1.817184 -1.068115,1.278502 -1.544374,2.422911 -1.544374,2.422911 l 10.4962,0 c 0,0 0.02312,-1.209144 -0.217323,-2.610178 -0.228882,-1.303934 -0.705141,-2.679537 -1.218391,-3.671358 -0.0185,-1.019565 0.411525,-1.96746 0.483195,-2.977777 -0.862353,-0.527122 -1.791752,-1.051932 -2.561628,-1.794064 l -0.161835,0.07861 c -0.411525,1.55131 -0.633471,2.938473 -0.973326,4.468977 -0.957143,0.73982 -1.854175,1.398722 -2.681849,2.265699"
         style="fill:#0a6eb4;fill-opacity:1;fill-rule:nonzero;stroke:none"
         id="path46"
         inkscape:connector-curvature="0" /><path
         d="m 61.122269,40.403206 c -0.295928,0.552553 -0.517874,1.27619 -0.860041,1.703898 -0.07167,-0.379158 0.0185,-0.619599 -0.03237,-0.982574 -0.05086,-0.312111 -0.302864,-0.182643 -0.353726,-0.04161 -0.147964,0.41846 -0.302864,0.934023 -0.439269,1.361731 -0.224258,0.709765 -0.293616,1.340924 -0.293616,1.340924 l 1.747825,0 c 0,0 0.06473,-0.01387 0.09479,-0.187267 0.08785,-0.434644 0.06936,-0.866976 0.184955,-1.373291 0.157212,-0.658902 0.353727,-1.262318 0.594168,-1.870358 0.208075,-0.538682 0.480883,-1.081987 0.705141,-1.618357 l -0.01387,-0.27512 -0.242754,0 c -0.492443,0.566424 -0.695893,1.206831 -1.091235,1.942028"
         style="fill:#0a6eb4;fill-opacity:1;fill-rule:nonzero;stroke:none"
         id="path50"
         inkscape:connector-curvature="0" /><path
         d="m 63.82007,39.157765 c -0.291304,0.635783 -0.712077,1.345548 -0.675086,2.062249 0.194203,-0.254314 0.270497,-0.436957 0.538682,-0.575673 0.124844,-0.0393 0.379158,-0.0069 0.312111,0.205762 -0.115597,0.399966 -0.300552,0.732885 -0.467011,1.278502 -0.247378,0.799931 -0.497067,1.655348 -0.497067,1.655348 l -1.77788,0.0046 c 0,0 0.0971,-0.725949 0.504002,-1.833367 0.353727,-0.980262 0.90628,-2.1108 1.507384,-3.162732 0.492443,-0.866977 0.931711,-1.62298 1.488888,-2.256451 0.189579,-0.217323 0.661215,-0.02312 0.460076,0.254313 -0.527122,0.749068 -1.021877,1.579054 -1.394099,2.367425"
         style="fill:#0a6eb4;fill-opacity:1;fill-rule:nonzero;stroke:none"
         id="path54"
         inkscape:connector-curvature="0" /><path
         d="m 75.395714,99.392543 c -0.386094,-0.171084 -0.730573,-0.388406 -0.922463,-0.756004 -0.136405,-0.268185 -0.233506,-0.677398 0.03699,-0.90628 0.464699,-0.402277 1.0265,0.0069 1.260006,0.423085 0.28668,0.522498 0.212698,1.516631 0.212698,1.516631 0,0 -0.335231,-0.168771 -0.587232,-0.277432"
         style="fill:#0a6eb4;fill-opacity:1;fill-rule:nonzero;stroke:none"
         id="path58"
         inkscape:connector-curvature="0" /><path
         d="m 75.806314,96.901429 c 0.168772,0.312112 0.538682,0.656591 0.943271,0.903968 0.460076,0.279745 0.938647,0.557177 1.269254,0.753692 0.325983,0.198827 0.39303,0.335231 0.39303,0.335231 0,0 -0.272809,-0.09248 -0.427709,-0.182643 -0.81149,-0.483195 -1.703898,-1.035749 -2.062249,-1.195272 -0.460076,-0.201139 -1.081987,-0.242754 -1.639164,-0.3098 -0.09017,0.702829 -0.270497,0.998757 -0.270497,1.627605 0.0023,0.29824 0.07861,0.691269 0.127157,0.964078 0.175707,0.908592 0.210386,1.366352 0.210386,1.366352 0,0 -0.141028,-0.13178 -0.189579,-0.53174 -0.0578,-0.35835 -0.0971,-0.49245 -0.180331,-0.920154 -0.09479,-0.490131 -0.191891,-0.910904 -0.485507,-1.216079 -0.423085,-0.439269 -0.82305,-1.223016 -0.490131,-1.817184 0.191891,-0.351415 0.510938,-0.29824 0.60804,-0.390718 0.101725,-0.08785 0.159524,-0.302863 0.462387,-0.402277 0.649655,-0.219634 1.391787,0.365286 1.731642,1.014941"
         style="fill:#0a6eb4;fill-opacity:1;fill-rule:nonzero;stroke:none"
         id="path62"
         inkscape:connector-curvature="0" /><path
         d="m 74.96107,95.031533 c 0.221946,0.358351 0.446204,0.610352 0.797618,0.825362 0.577985,0.351415 1.005693,0.589545 1.35942,0.772188 0.152588,0.07398 0.282056,0.166459 0.319047,0.328295 -0.154899,-0.05549 -0.753691,-0.339855 -1.34786,-0.688958 -0.41846,-0.256625 -1.155969,-0.571048 -1.6461,-0.594168 -0.19189,-0.0092 -0.335231,0.0393 -0.497066,0.04393 -0.325984,0.01618 -0.744444,-0.06473 -0.744444,-0.06473 0,0 -0.108662,0.464699 -0.24969,0.79993 -0.06936,0.171084 -0.182643,0.349103 -0.245065,0.668151 -0.04161,0.21501 -0.05317,0.534057 -0.03468,0.735196 0.04624,0.577985 0.20345,1.142098 0.178019,1.731642 -0.365286,-0.760628 -0.217322,-1.692339 -0.647343,-2.281883 -0.178019,-0.247378 -0.325983,-0.439269 -0.464699,-0.753692 -0.233506,-0.510939 -0.203451,-1.040372 0.113285,-1.532815 0.182643,-0.277433 0.587232,-0.270497 0.65659,-0.323672 0.106349,-0.07861 0.198827,-0.367598 0.591856,-0.455451 0.677398,-0.1549 1.481953,0.161835 1.861111,0.790682"
         style="fill:#0a6eb4;fill-opacity:1;fill-rule:nonzero;stroke:none"
         id="path66"
         inkscape:connector-curvature="0" /><path
         d="m 75.152267,80.193282 c 0.157212,0.316736 0.258937,0.735197 0.455452,1.028813 -0.448516,-0.06705 -0.52481,-0.117909 -1.179089,-0.189579 -0.145652,-0.01387 -0.446204,-0.168772 -0.543305,-0.263561 -0.261249,-0.263561 -0.487819,-0.506315 -0.383782,-0.945583 0.03699,-0.168771 0.189579,-0.29824 0.275121,-0.328295 0.545617,-0.171084 1.09817,0.147964 1.375603,0.698205"
         style="fill:#0a6eb4;fill-opacity:1;fill-rule:nonzero;stroke:none"
         id="path70"
         inkscape:connector-curvature="0" /><path
         d="m 75.708982,79.321913 c 0.619599,0.145652 1.3363,0.450828 1.625292,0.353726 -0.580296,-0.307488 -1.320117,-0.423084 -1.965147,-0.603416 -0.494755,-0.147964 -0.843858,-0.520186 -1.28775,-0.857729 -0.404589,-0.307488 -0.940959,-0.43002 -1.421842,-0.205762 -0.159524,0.07398 -0.319047,0.339855 -0.346791,0.480883 l -0.376846,0.319047 -0.175707,0.443893 c -0.02312,0.862353 0.633471,1.211455 1.26463,1.713146 0.471636,0.38147 1.088923,1.997514 1.465769,2.330434 -0.06242,-0.520187 -0.73982,-1.50276 -1.03806,-2.268012 -0.235818,-0.60804 -0.157212,-1.095859 -0.307488,-1.733954 0.45314,-0.03005 0.959454,-0.124844 1.40797,-0.13178 0.358351,-0.0069 0.788371,0.07167 1.15597,0.159524"
         style="fill:#0a6eb4;fill-opacity:1;fill-rule:nonzero;stroke:none"
         id="path74"
         inkscape:connector-curvature="0" /><path
         d="m 75.048692,77.992779 c -0.346791,-0.06473 -0.769875,-0.173395 -1.068115,-0.235817 -1.010317,-0.215011 -1.495825,0.284368 -2.307315,0.272808 0.07398,0.9294 -0.252001,1.343237 0.01387,1.942029 0.240441,0.531745 0.455452,1.09817 0.658902,1.55131 0.164148,0.365286 0.217322,0.66815 0.217322,0.66815 0,0 -0.247377,-0.365286 -0.940959,-1.72933 -0.249689,-0.478571 -0.684333,-0.577984 -1.070427,-1.024188 -0.446204,-0.515562 -0.698205,-1.59755 0.124845,-2.059937 0.161835,-0.08554 0.136404,-0.367598 0.261249,-0.480883 0.547929,-0.515563 1.655348,-0.4647 2.348929,0.164147 0.554865,0.506315 1.227639,0.584921 1.796376,0.737509 0.339855,0.07861 0.626535,0.221946 0.626535,0.221946 0,0 -0.159523,0.06705 -0.661214,-0.02774"
         style="fill:#0a6eb4;fill-opacity:1;fill-rule:nonzero;stroke:none"
         id="path78"
         inkscape:connector-curvature="0" /><path
         d="m 49.997916,80.59186 c -0.342167,-0.446204 -0.497067,-0.96639 -0.869289,-1.357107 -0.196515,-0.198827 -0.494755,-0.10635 -0.647343,0.129468 -0.171083,0.268185 -0.450828,0.642719 -0.245065,0.90628 0.342167,0.434644 1.051932,0.712077 1.65766,0.633471 0.03237,-0.0092 0.22657,-0.147964 0.104037,-0.312112 m -1.627605,-2.561627 c -0.189579,-0.499379 -0.75138,-0.559489 -1.232263,-0.656591 l -0.490131,0.117909 c -0.210386,0.205763 -0.388405,0.483195 -0.351414,0.825362 0.0185,0.219634 0.201138,0.425397 0.420772,0.510938 0.402278,0.157212 0.873913,0.40459 1.271566,0.187267 0.339855,-0.19189 0.517875,-0.621911 0.38147,-0.984885 m -1.03806,-2.674913 c -0.138716,-0.201139 -0.494755,0.4647 -0.540994,0.767564 -0.13178,0.880848 0.642719,1.102794 1.280814,1.077363 0.0185,-0.522498 -0.383782,-1.338612 -0.73982,-1.844927 m -0.693582,-2.369737 c -0.124844,-0.356038 -0.184955,-0.677398 -0.325983,-1.003381 -0.136404,-0.314423 -0.719013,-0.427708 -1.040372,-0.325983 -0.462388,0.145652 -0.855417,1.176776 -0.332919,1.576742 0.399965,0.29824 0.81149,0.346791 1.32474,0.409213 l 0.448516,-0.04161 c 0.08785,-0.21501 0.03237,-0.323671 -0.07398,-0.614976 M 45.86417,70.252872 c -0.09248,-0.27512 -0.134092,-0.554865 -0.256625,-0.813802 l -0.14334,0.04624 c -0.180331,0.450828 -0.293616,0.83461 -0.141028,1.232263 0.08785,0.217322 0.388405,0.423085 0.672774,0.439268 -0.01618,-0.284368 -0.03699,-0.631159 -0.131781,-0.903968 m -0.917839,-1.3363 c -0.208075,0.09479 -0.205763,0.362974 -0.291305,0.527122 -0.08323,0.161836 -0.261249,0.388406 -0.187267,0.601104 0.402278,-0.22657 0.587233,-0.628847 0.478572,-1.128226 m -0.693582,1.669219 c -0.478571,0.390718 -0.52481,1.019565 -0.841545,1.500448 0.353726,0.233506 0.947894,0.182643 1.130537,-0.261249 0.147964,-0.362974 0.254314,-0.890096 -0.113285,-1.162905 l -0.175707,-0.07629 z m -1.78944,3.248274 -0.104037,0.436956 c 0.857729,0.295928 1.500448,0.305176 1.685403,-0.612664 0.129468,-0.65659 -0.316736,-1.213767 -0.945583,-0.994133 -0.175707,0.06936 -0.358351,0.767563 -0.635783,1.169841 m -1.248447,2.07612 -0.03237,0.362975 c 0.446204,0.353726 1.102795,0.386093 1.606797,0.335231 0.670462,-0.06242 0.806867,-0.686646 0.698206,-1.202208 -0.147965,-0.677398 -1.179089,-0.76294 -1.470393,-0.647343 -0.284369,0.113285 -0.485507,0.756004 -0.802243,1.151345 m 0.147964,2.411352 c 0.580297,0.374534 1.680779,0.654279 1.865734,-0.360662 0.0578,-0.3098 -0.01618,-0.716701 -0.434644,-0.843858 -0.423085,-0.141028 -0.922463,-0.28668 -1.310869,-0.129468 -0.473947,0.194202 -0.571049,1.042684 -0.120221,1.333988 m -0.601104,1.708522 c 0.04393,0.194203 0.258937,0.286681 0.44158,0.337543 0.467012,0.113285 0.991822,0.288993 1.419531,0.01618 0.168771,-0.110973 0.182643,-0.261249 0.201138,-0.473947 0.04162,-0.339855 -0.0092,-0.614976 -0.231194,-0.746756 -0.455451,-0.268185 -0.922463,-0.288993 -1.449585,-0.187267 -0.434644,0.08323 -0.469323,0.65659 -0.38147,1.054243 m -0.478571,-2.630985 c -0.402277,0.293616 -0.580296,0.714389 -0.876225,1.128225 l 0.06011,0.161836 c 0.705141,0.201139 1.236887,-0.152588 1.125914,-0.931711 -0.02081,-0.147964 -0.117909,-0.499379 -0.3098,-0.35835 m -1.965148,2.395168 c -0.265872,0.228882 -0.08092,0.631159 0.152588,0.749068 0.402278,0.201138 1.047308,0.228882 1.468081,0.09016 0.270497,-0.09016 0.409213,-0.485507 0.362975,-0.910903 -0.02081,-0.173396 -0.07629,-0.365287 -0.164148,-0.423085 -0.316736,-0.221946 -0.818426,-0.22657 -1.209144,-0.147964 -0.277432,0.06242 -0.376846,0.439268 -0.610352,0.642719 m -0.307487,2.420599 c 0.258937,0.564113 1.197584,0.571049 1.710834,0.319048 0.416149,-0.205763 0.471635,-0.982574 0.01387,-1.285438 -0.362975,-0.242754 -0.938647,-0.157212 -1.322429,-0.08554 -0.545617,0.09941 -0.591856,0.640407 -0.402277,1.051932 m 0.02081,2.103864 c 0.39303,0.372222 0.897032,0.198827 1.368668,0.138716 l 0.261249,-0.138716 c 0.319047,-0.330607 0.34679,-0.860041 -0.01156,-1.128226 -0.411525,-0.305176 -0.927087,-0.106349 -1.424154,-0.08323 l -0.3098,0.265873 c -0.09248,0.314424 -0.147964,0.698206 0.115597,0.945583 m 0.252001,1.754761 c 0.416149,0.173395 1.125914,0.254313 1.421842,-0.212698 0.17802,-0.284369 0.127157,-0.813803 -0.161835,-0.887785 -0.282057,-0.07167 -1.246135,-0.235817 -1.475017,0.295929 -0.117909,0.265872 -0.06705,0.686645 0.21501,0.804554 m 1.27619,1.4912 c 0.122533,-0.05317 0.196515,-0.145652 0.22657,-0.295928 0.0578,-0.319047 -0.02543,-0.66815 -0.335231,-0.721325 -0.462387,-0.08092 -1.144409,-0.113285 -1.144409,0.538682 0.0046,0.730573 0.721325,0.716701 1.25307,0.478571 m -0.924775,1.354796 c 0.242754,0.09017 0.647343,0.07167 0.866977,-0.04624 0.113285,-0.05549 0.261249,-0.240441 0.194203,-0.43002 -0.07629,-0.254313 -0.3098,-0.344479 -0.573361,-0.344479 -0.256625,0 -0.547929,0.0185 -0.649655,0.224258 -0.09941,0.196515 -0.0578,0.510938 0.161836,0.59648 m 0.284368,1.088923 c 0.221947,0.08323 0.552554,0.07629 0.719013,-0.104037 0.22657,-0.245066 0.04855,-0.633471 -0.376846,-0.612664 -0.150276,0.0069 -0.328295,0.0578 -0.413837,0.106349 -0.221946,0.124845 -0.145652,0.529434 0.07167,0.610352 m 1.008006,0.700517 0.252001,0.233506 c 0.168771,0.0578 0.36991,0.07398 0.527122,0.0092 0.321359,-0.134093 0.279744,-0.529434 -0.06705,-0.670462 -0.150276,-0.06242 -0.388406,-0.104037 -0.506315,-0.06242 -0.212698,0.07398 -0.275121,0.258938 -0.205762,0.490131 m 1.003381,-1.555934 c -0.353727,-0.104037 -0.841546,-0.124845 -0.945583,0.235818 -0.178019,0.608039 0.589544,0.702829 0.991822,0.577984 0.277432,-0.08785 0.374534,-0.695893 -0.04624,-0.813802 m 0.231194,2.01601 c 0.110973,0.38147 0.538681,0.582609 0.929399,0.469324 0.335231,-0.0971 0.409213,-0.550242 0.184955,-0.7745 -0.104037,-0.0971 -0.272809,-0.201138 -0.45314,-0.242753 -0.395341,-0.08323 -0.786059,0.129468 -0.661214,0.547929 m 1.747825,-1.387163 c -0.06011,-0.249689 -0.247377,-0.413837 -0.53637,-0.483195 -0.28668,-0.06242 -0.686645,-0.07861 -0.843857,0.09941 -0.1549,0.168772 -0.221946,0.399966 -0.09941,0.589545 0.256626,0.35835 0.725949,0.487819 1.142098,0.393029 0.233506,-0.05549 0.411525,-0.295928 0.337543,-0.598792 m -0.1549,1.451897 c 0.1549,0.342167 0.545618,0.515563 0.924775,0.399966 l 0.252002,-0.263561 c 0.04624,-0.242754 -0.03699,-0.460076 -0.235818,-0.582609 -0.252001,-0.159523 -0.467012,-0.256625 -0.758316,-0.134092 -0.221946,0.09248 -0.27512,0.376846 -0.182643,0.580296 m 1.622981,-0.964078 c 0.173395,-0.295928 -0.08785,-0.582608 -0.221946,-0.665838 -0.295928,-0.173396 -0.712077,-0.277433 -0.887785,0.01387 -0.175707,0.28668 -0.03468,0.631159 0.272809,0.756003 0.291304,0.120221 0.594168,0.305176 0.836922,-0.104037 m 0.492443,-1.116666 c 0.191891,-0.159524 0.362974,-0.492443 0.134092,-0.758316 -0.219634,-0.252001 -0.490131,-0.325983 -0.829986,-0.379158 -0.233506,-0.04393 -0.527122,0.127157 -0.566425,0.330607 -0.03237,0.180332 -0.06242,0.497067 0.108661,0.645031 0.337543,0.286681 0.795307,0.455452 1.153658,0.161836 m 0.409213,1.902725 c 0.182643,-0.05317 0.300552,-0.242753 0.210386,-0.427708 l -0.323671,-0.305176 c -0.286681,-0.175708 -0.531746,-0.104038 -0.624224,0.108661 -0.164147,0.386093 0.39303,0.730572 0.737509,0.624223 m 0.700517,-0.964078 c 0.196515,-0.01618 0.293616,-0.159524 0.332919,-0.3098 0.05086,-0.205762 -0.01618,-0.399965 -0.189579,-0.515562 -0.210386,-0.141028 -0.467011,-0.217322 -0.675086,-0.221946 -0.277432,-0.0046 -0.534058,0.406901 -0.386093,0.672774 0.161835,0.279744 0.564112,0.402277 0.917839,0.374534 m 1.155969,-1.472705 c 0.115597,-0.353726 -0.138716,-0.520186 -0.411525,-0.661214 -0.275121,-0.147964 -0.642719,-0.282057 -0.83461,-0.104037 -0.242753,0.233505 -0.353726,0.621911 -0.08323,0.878536 0.379158,0.349103 1.077363,0.617288 1.329364,-0.113285 m 0.494755,-0.885472 c 0.446204,-0.05549 0.534058,-0.682022 0.44158,-0.908592 -0.09941,-0.198827 -0.323671,-0.351415 -0.44158,-0.411525 -0.323671,-0.16646 -0.700517,-0.231194 -1.001069,-0.07629 -0.272809,0.138716 -0.388406,0.559489 -0.242754,0.880849 0.201139,0.436956 0.829986,0.57336 1.243823,0.515562 m 0.913216,-1.94434 c 0.152588,-0.212699 0.117908,-0.591857 0.02774,-0.707453 -0.279745,-0.376846 -1.058868,-0.598792 -1.377915,-0.439269 -0.245066,0.115597 -0.483195,0.654279 -0.196515,0.975638 0.295928,0.335231 0.81149,0.534058 1.283126,0.434645 l 0.263561,-0.263561 z m 0.196514,-1.202208 c 0.215011,-0.02081 0.40459,-0.261249 0.504003,-0.515562 0.13178,-0.328296 0,-0.712077 -0.104037,-0.783748 -0.258937,-0.173395 -1.063492,-0.661214 -1.569806,-0.365286 -0.282057,0.159524 -0.358351,0.52481 -0.376846,0.742132 -0.05549,0.695894 1.005693,0.984886 1.546686,0.922464 m -2.9824,-4.998411 c -0.106349,0.277433 -0.208075,0.684334 0.01156,0.853105 0.439268,0.351415 1.435713,0.649655 1.814871,0.124845 0.242754,-0.339855 0.171084,-0.913216 -0.258937,-1.139786 -0.446204,-0.224258 -1.313181,-0.485507 -1.567494,0.161836 m -2.131607,-0.03006 c 0.439268,0.22657 1.077363,0.499379 1.553622,0.187267 0.215011,-0.136404 0.436957,-0.719013 0.286681,-0.973326 -0.325984,-0.545618 -1.181401,-0.684334 -1.727018,-0.545618 -0.4647,0.120221 -0.605728,1.079676 -0.113285,1.331677 M 43.22856,81.43803 c 0.531746,0.374534 1.588302,0.617287 1.840303,-0.198827 0.06242,-0.210386 0.101726,-0.446204 -0.0069,-0.621911 C 44.766034,80.145656 44.016966,80.0185 43.5199,80.09017 c -0.545618,0.08092 -0.802243,0.989509 -0.291305,1.34786 m -0.446204,1.911973 c 0.508627,0.288992 1.599862,0.675086 1.858799,-0.159524 0.101725,-0.332919 0.09016,-0.760628 -0.198827,-0.903968 -0.416149,-0.224258 -1.079675,-0.45314 -1.558246,-0.152588 -0.402278,0.256625 -0.455452,1.010317 -0.101726,1.21608 m 2.864492,3.428604 C 45.431873,86.589028 45.21455,86.547413 44.92787,86.448 c -0.399965,-0.134092 -0.818426,0.175707 -0.864665,0.554865 -0.07398,0.656591 0.626535,0.756004 1.086611,0.832298 0.339855,0.06705 0.550241,-0.240442 0.610352,-0.44158 0.06473,-0.201139 0.0578,-0.4647 -0.113285,-0.614976 m 0.857729,-1.542063 c -0.302864,-0.448516 -1.532815,-0.735196 -1.801,-0.268184 -0.198827,0.342166 -0.321359,0.820738 0.04855,1.047308 0.390717,0.238129 0.855417,0.381469 1.308557,0.302864 0.427708,-0.07398 0.645031,-0.779124 0.443892,-1.081988 m 0.654279,-2.806693 c 0.173395,-0.277432 0.29824,-0.647342 0.03699,-0.994133 -0.233506,-0.314424 -1.07274,-0.462388 -1.505072,-0.360663 -0.233506,0.06011 -0.346791,0.349103 -0.376846,0.540994 -0.05318,0.261249 -0.07629,0.52481 0.152588,0.737508 0.332919,0.302864 0.779123,0.300552 1.202208,0.300552 0.173395,0 0.425396,-0.115597 0.490131,-0.224258 m -0.242754,0.943271 c -0.261249,-0.480883 -1.146721,-0.543305 -1.544375,-0.487819 -0.282056,0.03699 -0.480883,0.487819 -0.471635,0.866977 0,0.196515 0.06473,0.323671 0.198827,0.39303 0.44158,0.240441 0.892408,0.395341 1.368667,0.316735 0.4647,-0.06705 0.642719,-0.72826 0.448516,-1.088923 m -4.660868,1.033437 c -0.302864,0.924775 0.855418,1.223015 1.532816,1.077363 0.467011,-0.09941 0.628847,-1.003381 0.189578,-1.28775 -0.543305,-0.351414 -1.505071,-0.467011 -1.722394,0.210387 m -1.745513,-2.272636 c 0.349103,0.356039 0.973326,0.379158 1.463457,0.314424 0.29824,-0.04161 0.43002,-0.346791 0.469323,-0.672774 0.117909,-0.910904 -1.100482,-1.058868 -1.676155,-0.84617 -0.38147,0.136405 -0.577984,0.871601 -0.256625,1.20452 M 40.267,83.886372 c 0.362975,0.427709 0.966391,0.52481 1.465769,0.390718 0.3098,-0.08785 0.450828,-0.443892 0.446204,-0.843857 -0.0069,-0.231194 -0.161835,-0.39303 -0.302863,-0.450828 -0.358351,-0.143341 -0.769876,-0.254314 -1.158282,-0.205763 -0.480883,0.0578 -0.774499,0.730573 -0.450828,1.10973 m 0.05549,1.911973 c 0.446204,0.180332 1.27619,0.339855 1.417218,-0.293616 0.187267,-0.848481 -0.809178,-0.987197 -1.345548,-0.839233 -0.409213,0.113285 -0.490131,0.964078 -0.07167,1.132849 m 3.20897,1.398723 c 0.330608,-0.187267 0.399966,-0.725949 0.196515,-1.033436 -0.268185,-0.411525 -1.190648,-0.645031 -1.685403,-0.291305 -0.282056,0.205763 -0.436956,1.047309 0.141028,1.253071 0.467012,0.161836 0.908592,0.319047 1.34786,0.07167 m -0.473947,0.605728 c -0.379158,-0.231194 -0.917839,-0.328295 -1.273878,-0.127157 -0.312112,0.168772 -0.29824,0.626536 -0.145652,0.871601 0.252001,0.409213 0.885472,0.450828 1.320117,0.321359 0.372222,-0.110973 0.51325,-0.804554 0.09941,-1.065803 m -3.061006,0.663526 0.166459,0.194203 c 0.319048,0.1549 0.66815,0.191891 0.971014,0 0.221946,-0.145652 0.201139,-0.471635 0.0393,-0.642719 -0.238129,-0.247377 -0.723636,-0.258937 -1.031124,-0.09479 -0.201139,0.101725 -0.208075,0.351414 -0.145652,0.543305 m 0.104037,-1.32474 c 0.136404,0.399965 0.640407,0.381469 1.019565,0.330607 0.467011,-0.06242 0.559489,-0.658903 0.395341,-0.908592 -0.228882,-0.351415 -0.753692,-0.282056 -1.172153,-0.228882 -0.335231,0.04161 -0.356038,0.492443 -0.242753,0.806867 M 46.682596,75.06864 c 0.115597,-0.45314 0,-0.887785 -0.404589,-1.028813 -0.520186,-0.182643 -1.218391,-0.448516 -1.63454,-0.171083 -0.469324,0.319047 -0.70283,1.218391 -0.159524,1.569806 0.645031,0.423085 1.928156,0.700517 2.198653,-0.36991 m -0.702829,1.40797 c -0.344479,-0.393029 -0.910904,-0.379158 -1.470393,-0.545617 -0.217322,-0.06011 -0.471635,0.129468 -0.587232,0.325983 -0.205763,0.367598 -0.409213,0.862353 -0.01618,1.218392 0.325984,0.29824 0.7745,0.272808 1.176777,0.393029 0.178019,0.05086 0.399965,0.113285 0.617287,-0.03237 0.450828,-0.305176 0.628848,-0.971014 0.279745,-1.35942 m 3.699101,5.934746 c 0.0971,-0.284369 0.233506,-0.497067 0.115597,-0.790683 -0.129468,-0.349103 -0.469323,-0.397653 -0.792995,-0.51325 -0.300552,-0.10635 -0.79993,-0.242754 -1.047308,0.0185 -0.288992,0.29824 -0.406901,0.903968 -0.06011,1.162905 0.446204,0.332919 1.548999,0.795307 1.784816,0.122533 m 6.061903,2.589371 c 0.268184,1.077363 0.594168,2.166286 0.679709,3.301448 0.115597,1.69465 -0.249689,3.463283 -1.338612,4.741785 0.110973,-0.550241 0.249689,-1.019565 0.325983,-1.602173 0.09248,-0.700517 -0.0092,-1.481953 -0.196514,-2.187094 -0.134093,-0.538681 -0.379158,-1.061179 -0.612664,-1.555934 -0.279745,-0.591856 -0.705141,-1.229951 -1.123602,-1.757073 -1.179089,-1.461145 -3.014768,-4.321013 -3.014768,-4.321013 l -0.242753,0.01387 c -0.02312,0.356038 0.82305,1.576741 1.248447,2.256451 0.936335,1.500448 1.643788,2.302691 2.455278,3.602 0.515562,0.816114 0.901656,1.81256 1.024189,2.714216 0.256625,1.837991 -0.735197,4.04358 -2.161663,4.776464 0.325984,-1.373291 0.293617,-3.310695 -0.436956,-4.119874 -1.382539,-1.546686 -2.207901,-2.702656 -3.197411,-4.677051 -0.02543,-0.05549 -0.258937,0.268185 -0.448516,0.39303 -0.21501,0.138716 -0.09479,0.566424 -0.171083,0.846169 -0.07167,0.245065 -0.182643,0.434644 -0.219634,0.476259 -0.288992,0.353727 -0.575673,0.379158 -0.635783,0.487819 -0.07167,0.117909 -0.03699,0.425397 -0.291304,0.767564 -0.124845,0.171083 -0.450828,0.295928 -0.582609,0.464699 -0.145652,0.175708 -0.210386,0.721325 -0.603416,0.943271 -0.184955,0.106349 -0.27512,0.432333 -0.45314,0.59648 -0.554865,0.483195 -1.107418,0.39303 -1.216079,0.418461 -0.138717,0.04162 -0.418461,0.39303 -0.913216,0.480883 -0.483195,0.08323 -0.749068,-0.240441 -1.001069,-0.120221 -0.628847,0.286681 -1.234575,0.3098 -1.905037,-0.434644 -0.198827,-0.219634 -0.545618,-0.01387 -0.982574,-0.344479 -0.376846,-0.291304 -0.386094,-0.559489 -0.58492,-0.59648 -0.360663,-0.06705 -0.63116,-0.362974 -0.7745,-0.675086 -0.06936,-0.168771 -0.127156,-0.499378 -0.168771,-0.716701 -0.06011,-0.302864 -0.212699,-0.580296 -0.217322,-0.804554 -0.0023,-0.305176 0.09479,-0.469324 0.06705,-0.610352 -0.04393,-0.196515 -0.203451,-0.38147 -0.22657,-0.571049 -0.01387,-0.104037 -0.0185,-0.383781 0.05549,-0.543305 0.0971,-0.196515 -0.06936,-0.36991 -0.1549,-0.575673 -0.08092,-0.196515 -0.166459,-0.522498 -0.141028,-0.758316 0.03468,-0.323671 0.221946,-0.44158 0.07629,-0.695893 -0.235818,-0.409213 -0.529434,-1.04962 -0.01156,-1.870358 0.09479,-0.150276 -0.219634,-0.439268 -0.233505,-0.873913 -0.02081,-0.460075 0.258937,-0.804554 0.337543,-1.012629 l -0.129469,-0.147964 c -1.236887,1.308557 -2.330434,2.510765 -3.763835,3.650551 -0.878537,0.693581 -1.743202,1.27619 -2.71884,1.798688 -2.591683,1.384851 -5.60645,2.318874 -8.334537,1.976707 1.024188,-0.829986 2.323498,-1.417218 3.382365,-2.355865 0.996446,-0.897032 1.907349,-1.655348 2.815941,-2.600931 1.43109,-1.488888 2.593995,-2.99396 3.807763,-4.744097 0.35835,-0.515562 0.591856,-0.864665 0.931711,-1.401035 0.332919,-0.540993 0.712077,-1.116666 1.021876,-1.648412 1.544375,-2.693408 2.818253,-5.187989 4.099067,-7.94382 0.35835,-0.765251 0.661214,-1.558246 1.010317,-2.318874 0.09248,-0.20345 0.228882,-0.05317 0.321359,0 0.4647,0.268185 0.959455,0.492443 1.44265,0.721325 0.383782,0.175707 0.735196,0.29824 1.079675,0.432332 0.866977,0.328296 1.692339,0.513251 2.605555,0.695894 1.516631,0.321359 4.24703,0.258937 4.24703,0.258937 l 5.181054,0 0.14334,0 c -0.06011,1.481952 -0.411525,2.929226 -0.494755,4.41349 -0.06242,1.206832 -0.02543,2.369737 0.0185,3.583505 0.117909,3.273704 0.59648,6.790162 1.324741,9.772563"
         style="fill:#0a6eb4;fill-opacity:1;fill-rule:nonzero;stroke:none"
         id="path82"
         inkscape:connector-curvature="0" /><path
         d="m 20.437935,97.285904 c -1.008005,-1.005693 -1.310869,-1.373291 -1.902725,-2.492269 -0.346791,-0.654279 -0.786059,-1.495824 -0.910904,-2.577811 2.076121,0.788371 3.76846,2.402104 5.301275,4.182296 1.132849,1.324741 2.011386,3.07719 3.128052,4.38344 -1.967459,-0.65891 -4.045892,-1.932785 -5.615698,-3.495656"
         style="fill:#0a6eb4;fill-opacity:1;fill-rule:nonzero;stroke:none"
         id="path86"
         inkscape:connector-curvature="0" /><path
         d="m 14.492092,94.455861 c 0.783747,1.322428 1.905037,2.753518 3.067942,3.726844 -0.538681,-1.206831 -1.202208,-2.409039 -1.43109,-3.837817 -0.448516,-2.845996 -0.876224,-4.841199 -1.350172,-7.444442 1.294686,0.920152 2.656418,2.369737 4.025085,3.380054 1.056556,0.779123 2.117736,1.296998 3.204347,2.043754 0.649654,0.446204 1.070427,1.024188 1.606797,1.558246 -0.638095,-2.700344 -3.012456,-5.428431 -4.709419,-6.702309 -2.129295,-1.599861 -2.89917,-1.851863 -6.327775,-5.338266 -0.432332,4.302518 -0.353726,8.773806 1.914285,12.613936"
         style="fill:#0a6eb4;fill-opacity:1;fill-rule:nonzero;stroke:none"
         id="path90"
         inkscape:connector-curvature="0" /><path
         d="m 7.4991724,80.160221 c 0.1618357,2.237957 0.4300205,4.022773 0.973326,6.198307 0.3791579,1.525879 1.197584,3.791579 2.3812966,4.720978 -0.147964,-0.547929 -0.221946,-1.382539 -0.279745,-1.937404 -0.228882,-2.302691 0.210387,-4.979915 0.263561,-7.27567 0.02774,-1.130538 0.01618,-2.002139 -0.152588,-3.06563 -0.173395,-1.116666 -0.03237,-2.48071 -0.03237,-2.48071 0,0 0.614976,0.698205 1.158281,1.567494 1.19296,1.888854 1.572118,2.450655 2.533885,3.477155 1.190648,1.271566 2.522324,2.450655 4.025084,3.491027 -0.180331,-0.705141 -0.947894,-2.078432 -1.266942,-2.628674 -0.420773,-0.742132 -0.614976,-1.414906 -1.616045,-3.088749 -1.410282,-2.34893 -2.036817,-2.667977 -3.606624,-5.183366 -0.337543,-0.543305 -1.727017,-2.621738 -2.0645605,-3.259833 -0.7328844,1.516632 -1.010317,2.841372 -1.9119729,5.310522 -0.561801,1.558247 -0.4785713,3.111869 -0.4045892,4.154553"
         style="fill:#0a6eb4;fill-opacity:1;fill-rule:nonzero;stroke:none"
         id="path94"
         inkscape:connector-curvature="0" /><path
         d="m 5.323176,68.534871 c -0.8507933,2.203277 -1.2391989,4.247031 -1.5281912,6.568217 -0.1780192,1.421842 -0.092477,3.313007 0.411525,4.681675 0.1317805,-0.335231 0.4045892,-1.183713 0.4438922,-1.308557 0.3768459,-1.264631 0.5340577,-1.877294 1.0588677,-3.10031 0.4045892,-0.938647 0.8970321,-1.683091 1.424154,-2.61249 0.4808832,-0.848481 0.8854724,-1.960524 1.2299512,-2.818253 1.1166662,-2.728087 1.199896,-5.287403 1.6276046,-5.569459 0.3097995,0.658902 0.4022775,1.290062 0.4369565,1.599861 0.330607,3.021704 0.730572,5.77291 4.538335,9.342543 0.353726,-1.065804 0.175707,-3.021703 -0.03237,-4.069011 C 14.473825,68.957956 14.106227,67.859785 13.09591,65.6357 12.568788,64.470483 11.854399,62.748089 11.655572,62.174729 11.144634,60.692776 10.97355,59.915965 10.649879,59.037428 8.8535028,62.031389 6.636354,65.131698 5.323173,68.534871"
         style="fill:#0a6eb4;fill-opacity:1;fill-rule:nonzero;stroke:none"
         id="path98"
         inkscape:connector-curvature="0" /><path
         d="m 8.2882369,54.749245 c -1.2785019,1.780193 -1.7478253,2.679537 -2.5778112,4.575326 -0.7028292,1.590614 -0.9039679,2.180158 -1.3131809,3.964974 -0.2242581,0.971014 -0.3514147,1.849551 -0.1757074,2.422912 1.0010693,-1.81256 1.687715,-3.842442 2.998584,-5.349826 1.0403723,-1.19296 2.0414415,-2.217148 2.8691156,-3.22053 1.269254,-1.546686 2.270323,-3.007831 3.488715,-4.623876 0.09941,0.809178 0.141028,1.625292 -0.03699,2.952345 -0.252002,1.810248 -0.09479,3.299136 0.219634,5.053897 0.402277,2.231021 0.695893,3.338439 1.468081,5.587955 0.945582,-1.851863 0.940959,-4.001965 1.179088,-5.964801 0.460076,-3.823946 -0.735196,-8.376152 -0.971014,-10.276566 -0.06242,-0.499378 0.02543,-1.729329 0.05086,-2.212525 -1.784817,1.407971 -3.377742,2.827501 -4.917493,4.374188 -0.7005173,0.698205 -1.6645956,1.86111 -2.2818831,2.716527"
         style="fill:#0a6eb4;fill-opacity:1;fill-rule:nonzero;stroke:none"
         id="path102"
         inkscape:connector-curvature="0" /><path
         d="m 15.06106,40.749534 c -0.813802,0.582609 -3.003208,2.25414 -4.034332,3.569633 -1.5073839,1.911973 -1.8403031,2.732711 -2.8344365,4.931364 -0.1225328,0.270497 -0.6843338,1.516632 -0.7259487,2.362801 3.2552092,-3.932607 6.1705632,-4.517527 9.2778082,-7.781984 1.139786,-1.197584 2.307315,-2.321186 2.924602,-2.885299 0.473948,-0.434645 1.056556,-0.566425 1.056556,-0.566425 0,0 -0.0578,0.836922 -0.367598,1.421842 -2.071497,3.962662 -2.462214,8.103344 -2.145479,12.549201 0.947895,-1.169841 1.239199,-1.9559 1.842615,-3.088749 0.651966,-1.232264 0.984886,-1.995203 1.292373,-2.753519 1.773257,-4.415802 2.235645,-9.51825 3.329192,-12.08219 -3.380054,1.137474 -6.045719,1.750138 -9.615352,4.323325"
         style="fill:#0a6eb4;fill-opacity:1;fill-rule:nonzero;stroke:none"
         id="path106"
         inkscape:connector-curvature="0" /><path
         d="m 28.932228,30.329628 c -0.915528,-0.06011 -2.70728,-0.06011 -3.664423,0.0971 -4.838886,0.776811 -9.342542,4.284021 -11.608242,8.140334 2.050689,-1.250758 3.537266,-2.085368 5.34289,-2.716527 1.606797,-0.554865 3.134988,-0.716701 5.819148,-1.477329 1.618357,-0.460075 3.22053,-1.10973 3.784643,-1.322428 1.796376,-0.665839 2.55238,-0.501691 2.55238,-0.501691 0,0 0,0.272809 -0.670462,1.005693 -1.3363,1.458833 -1.826431,1.807936 -2.924602,2.931538 -0.360662,0.36991 -1.188336,1.627604 -1.611421,2.459902 -1.186024,2.367425 -1.320117,4.265526 -2.404416,6.864145 3.960351,-2.32581 5.888507,-5.53478 7.985435,-9.582984 0.640407,-1.239199 1.512008,-2.670289 2.309627,-3.456348 0.534057,-0.529434 1.287749,-1.329365 1.287749,-1.329365 0,0 -0.550241,-0.13178 -2.270323,-0.383781 -0.772188,-0.110973 -2.415976,-0.624224 -3.927983,-0.728261"
         style="fill:#0a6eb4;fill-opacity:1;fill-rule:nonzero;stroke:none"
         id="path110"
         inkscape:connector-curvature="0" /><path
         d="m 48.132182,30.023528 c 2.08768,-0.344479 3.946478,-0.850794 5.849203,-1.505072 0.513251,-0.171084 1.28775,-0.561801 1.82412,-0.832298 1.350172,-0.686646 2.126983,-1.13285 3.285264,-1.928157 1.865734,-1.287749 3.867873,-2.670288 5.675809,-4.767216 0.0393,-0.04855 0.335231,-0.358351 0.136404,-0.508627 -0.35835,-0.277432 -1.225327,-0.675086 -1.516632,-0.418461 -1.655347,1.472705 -1.567494,1.939717 -3.576568,3.759212 -0.510938,0.4647 -1.292374,1.10973 -2.219461,1.750137 -0.903968,0.614976 -1.999826,1.292374 -3.014767,1.794064 -0.922464,0.45314 -2.346618,0.589545 -3.146548,0.589545 l 0.01618,-0.0046 c -0.365286,0.01387 -2.450654,0.02312 -2.93385,-0.0069 -4.096754,-0.279745 -3.897928,-0.645031 -6.260728,-1.28775 -1.944341,-0.527122 -4.029709,-0.901656 -6.096582,-1.183712 -2.120047,-0.28668 -4.018149,-0.319048 -6.004104,-0.117909 -2.698032,0.275121 -5.643441,1.031125 -7.842094,2.446031 2.013698,-0.03468 4.073635,-0.423085 6.073462,-0.270497 0.843857,0.06473 2.212525,0.196515 3.134988,0.480883 1.837991,0.566425 2.892235,0.783747 4.838887,1.324741 1.673843,0.469323 3.356934,0.626535 5.10476,0.81149 2.418287,0.258937 4.658555,0.201139 6.672254,-0.124844"
         style="fill:#0a6eb4;fill-opacity:1;fill-rule:nonzero;stroke:none"
         id="path114"
         inkscape:connector-curvature="0" /><path
         d="m 85.605234,97.285904 c 1.010317,-1.005693 1.31318,-1.373291 1.902725,-2.492269 0.342167,-0.654279 0.783747,-1.495824 0.915527,-2.577811 -2.083056,0.788371 -3.773083,2.402104 -5.30821,4.182296 -1.13285,1.324741 -2.011386,3.07719 -3.128053,4.38344 1.969772,-0.65891 4.045892,-1.932785 5.618011,-3.495656"
         style="fill:#0a6eb4;fill-opacity:1;fill-rule:nonzero;stroke:none"
         id="path118"
         inkscape:connector-curvature="0" /><path
         d="m 91.548302,94.455861 c -0.783747,1.322428 -1.902725,2.753518 -3.067942,3.726844 0.545617,-1.299309 1.3363,-2.924602 1.43109,-3.837817 0.288992,-2.864492 0.878536,-4.841199 1.350172,-7.444442 -1.283126,0.920152 -2.656417,2.369737 -4.022773,3.380054 -1.056556,0.779123 -2.117735,1.296998 -3.204346,2.043754 -0.647343,0.446204 -1.07274,1.024188 -1.611421,1.558246 0.647342,-2.700344 3.017079,-5.428431 4.716354,-6.702309 2.131607,-1.599861 2.896858,-1.851863 6.323151,-5.338266 0.436956,4.302518 0.351415,8.773806 -1.914285,12.613936"
         style="fill:#0a6eb4;fill-opacity:1;fill-rule:nonzero;stroke:none"
         id="path122"
         inkscape:connector-curvature="0" /><path
         d="m 98.543996,80.160221 c -0.161835,2.237957 -0.432332,4.022773 -0.971014,6.198307 -0.38147,1.525879 -1.202208,3.791579 -2.38592,4.720978 0.150276,-0.547929 0.224258,-1.382539 0.282056,-1.937404 0.233506,-2.302691 -0.205762,-4.979915 -0.263561,-7.27567 -0.02774,-1.130538 -0.0185,-2.002139 0.150276,-3.06563 0.175708,-1.116666 0.03005,-2.48071 0.03005,-2.48071 0,0 -0.608039,0.698205 -1.153657,1.567494 -1.190648,1.888854 -1.572118,2.450655 -2.531572,3.477155 -1.190648,1.271566 -2.526949,2.450655 -4.025085,3.491027 0.17802,-0.705141 0.940959,-2.078432 1.262319,-2.628674 0.425396,-0.742132 0.614975,-1.414906 1.620668,-3.088749 1.410283,-2.34893 2.036818,-2.667977 3.604312,-5.183366 0.337543,-0.543305 1.724706,-2.621738 2.062249,-3.259833 0.737508,1.516632 1.010317,2.841372 1.911973,5.310522 0.564113,1.558247 0.483195,3.111869 0.406901,4.154553"
         style="fill:#0a6eb4;fill-opacity:1;fill-rule:nonzero;stroke:none"
         id="path126"
         inkscape:connector-curvature="0" /><path
         d="m 100.72254,68.534871 c 0.84617,2.203277 1.23919,4.247031 1.52819,6.568217 0.17339,1.421842 0.0925,3.313007 -0.41384,4.681675 -0.1364,-0.335231 -0.40459,-1.183713 -0.44389,-1.308557 -0.37454,-1.264631 -0.53406,-1.877294 -1.05656,-3.10031 -0.404587,-0.938647 -0.901654,-1.683091 -1.424152,-2.61249 -0.483195,-0.848481 -0.887784,-1.960524 -1.236887,-2.818253 -1.112042,-2.728087 -1.197584,-5.287403 -1.622981,-5.569459 -0.312111,0.658902 -0.404589,1.290062 -0.439268,1.599861 -0.330607,3.021704 -0.728261,5.77291 -4.536023,9.342543 -0.356038,-1.065804 -0.178019,-3.021703 0.03237,-4.069011 0.457764,-2.291131 0.825362,-3.389302 1.835679,-5.613387 0.534058,-1.165217 1.246135,-2.887611 1.44265,-3.460971 0.504002,-1.481953 0.684333,-2.258764 1.008005,-3.137301 1.796376,2.993961 4.006589,6.09427 5.326707,9.497443"
         style="fill:#0a6eb4;fill-opacity:1;fill-rule:nonzero;stroke:none"
         id="path130"
         inkscape:connector-curvature="0" /><path
         d="m 97.755856,54.749245 c 1.278502,1.780193 1.745514,2.679537 2.580124,4.575326 0.6982,1.590614 0.90166,2.180158 1.30856,3.964974 0.22425,0.971014 0.35604,1.849551 0.18033,2.422912 -1.00107,-1.81256 -1.69234,-3.842442 -3.00321,-5.349826 -1.03806,-1.19296 -2.043753,-2.217148 -2.866803,-3.22053 -1.271567,-1.546686 -2.274948,-3.007831 -3.488715,-4.623876 -0.104038,0.809178 -0.145653,1.625292 0.03699,2.952345 0.249689,1.810248 0.09941,3.299136 -0.221946,5.053897 -0.402278,2.231021 -0.698206,3.338439 -1.468081,5.587955 -0.945583,-1.851863 -0.940959,-4.001965 -1.176777,-5.964801 -0.462388,-3.823946 0.735197,-8.376152 0.964078,-10.276566 0.06705,-0.499378 -0.02081,-1.729329 -0.04161,-2.212525 1.780192,1.407971 3.370806,2.827501 4.91518,4.374188 0.70283,0.698205 1.664596,1.86111 2.281883,2.716527"
         style="fill:#0a6eb4;fill-opacity:1;fill-rule:nonzero;stroke:none"
         id="path134"
         inkscape:connector-curvature="0" /><path
         d="m 90.982108,40.749534 c 0.816115,0.582609 3.000896,2.25414 4.032021,3.569633 1.509696,1.911973 1.842615,2.732711 2.832124,4.931364 0.124845,0.270497 0.688958,1.516632 0.735197,2.362801 -3.259833,-3.932607 -6.175188,-4.517527 -9.284745,-7.781984 -1.137473,-1.197584 -2.305002,-2.321186 -2.924602,-2.885299 -0.469323,-0.434645 -1.056555,-0.566425 -1.056555,-0.566425 0,0 0.06011,0.836922 0.365286,1.421842 2.07612,3.962662 2.46915,8.103344 2.150103,12.549201 -0.940959,-1.169841 -1.241511,-1.9559 -1.842615,-3.088749 -0.651967,-1.232264 -0.984886,-1.995203 -1.292374,-2.753519 -1.770945,-4.415802 -2.240268,-9.51825 -3.331503,-12.08219 3.382366,1.137474 6.045719,1.750138 9.617663,4.323325"
         style="fill:#0a6eb4;fill-opacity:1;fill-rule:nonzero;stroke:none"
         id="path138"
         inkscape:connector-curvature="0" /><path
         d="m 77.109323,30.329628 c 0.915527,-0.06011 2.711903,-0.06011 3.666734,0.0971 4.841199,0.776811 9.335607,4.284021 11.60593,8.140334 -2.053001,-1.250758 -3.539577,-2.085368 -5.342889,-2.716527 -1.611421,-0.554865 -3.132677,-0.716701 -5.816837,-1.477329 -1.618357,-0.460075 -3.22053,-1.10973 -3.786955,-1.322428 -1.796376,-0.665839 -2.550068,-0.501691 -2.550068,-0.501691 0,0 0,0.272809 0.66815,1.005693 1.336301,1.458833 1.833367,1.807936 2.929226,2.931538 0.35835,0.36991 1.183712,1.627604 1.609109,2.459902 1.183712,2.367425 1.320117,4.265526 2.402104,6.864145 -3.955726,-2.32581 -5.893131,-5.53478 -7.980811,-9.582984 -0.647343,-1.239199 -1.51432,-2.670289 -2.311938,-3.456348 -0.53637,-0.529434 -1.28775,-1.329365 -1.28775,-1.329365 0,0 0.550241,-0.13178 2.274947,-0.383781 0.76294,-0.110973 2.411352,-0.624224 3.921048,-0.728261"
         style="fill:#0a6eb4;fill-opacity:1;fill-rule:nonzero;stroke:none"
         id="path142"
         inkscape:connector-curvature="0" /><path
         d="m 57.916304,30.023528 c -2.096928,-0.344479 -3.951102,-0.850794 -5.851515,-1.505072 -0.513251,-0.171084 -1.290062,-0.561801 -1.82412,-0.832298 -1.354796,-0.686646 -2.126983,-1.13285 -3.287576,-1.928157 -1.865734,-1.287749 -3.865561,-2.670288 -5.67812,-4.767216 -0.03699,-0.04855 -0.33292,-0.358351 -0.134093,-0.508627 0.356039,-0.277432 1.227639,-0.675086 1.512008,-0.418461 1.65766,1.472705 1.57443,1.939717 3.57888,3.759212 0.513251,0.4647 1.292374,1.10973 2.219461,1.750137 0.90628,0.614976 1.997515,1.292374 3.014768,1.794064 0.927087,0.45314 2.348929,0.589545 3.144236,0.589545 l -0.01156,-0.0046 c 0.362974,0.01387 2.448343,0.02312 2.93385,-0.0069 4.101378,-0.279745 3.893304,-0.645031 6.258417,-1.28775 1.94434,-0.527122 4.027396,-0.901656 6.096581,-1.183712 2.122359,-0.28668 4.020461,-0.319048 6.01104,-0.117909 2.686472,0.275121 5.638817,1.031125 7.83747,2.446031 -2.009074,-0.03468 -4.073635,-0.423085 -6.078085,-0.270497 -0.836922,0.06473 -2.207901,0.196515 -3.130365,0.480883 -1.835679,0.566425 -2.894547,0.783747 -4.841199,1.324741 -1.676155,0.469323 -3.359246,0.626535 -5.102447,0.81149 -2.4206,0.258937 -4.658556,0.201139 -6.667631,-0.124844"
         style="fill:#0a6eb4;fill-opacity:1;fill-rule:nonzero;stroke:none"
         id="path146"
         inkscape:connector-curvature="0" /><path
         d="m 50.565034,119.99885 -3.680606,-13.66587 -3.907175,0 -2.448343,8.89865 -2.388232,-8.89865 -3.897928,0 -3.680606,13.66587 3.675982,0 2.09924,-9.40959 2.522325,9.40959 3.516458,0 2.392856,-9.40959 2.200965,9.40959 3.595064,0 z"
         style="fill:#0a6eb4;fill-opacity:1;fill-rule:nonzero;stroke:none"
         id="path150"
         inkscape:connector-curvature="0" /><path
         d="m 62.705947,117.35515 -6.28616,0 0,-2.54082 5.828396,0 0,-2.64717 -5.828396,0 0,-5.83302 -3.504899,0 0,13.66586 9.791059,0 0,-2.64485 z"
         style="fill:#0a6eb4;fill-opacity:1;fill-rule:nonzero;stroke:none"
         id="path154"
         inkscape:connector-curvature="0" /><path
         d="m 72.776057,115.60501 c 0,0.38609 -0.104038,0.7167 -0.3098,0.99413 -0.208074,0.28206 -0.45314,0.47164 -0.725949,0.58261 -0.367598,0.14565 -0.723636,0.22426 -1.070427,0.24276 -0.351415,0.0116 -0.816114,0.0208 -1.403347,0.0208 l -0.601104,0 0,-4.08519 1.012629,0 c 0.59648,0 1.088923,0.037 1.479641,0.11328 0.386094,0.0694 0.712077,0.21733 0.982574,0.43927 0.217322,0.19652 0.386093,0.42771 0.487819,0.69821 0.0971,0.27049 0.147964,0.60341 0.147964,0.99413 m 3.645926,0.0786 c 0,-0.61036 -0.108661,-1.20915 -0.323671,-1.79638 -0.212698,-0.58261 -0.517874,-1.07505 -0.915528,-1.47039 -0.545617,-0.53637 -1.149033,-0.94559 -1.826431,-1.22071 -0.665838,-0.27512 -1.500448,-0.41383 -2.496893,-0.41383 l -2.19403,0 0,-4.44817 -3.525706,0 0,13.66586 5.800654,0 c 0.866977,0 1.599861,-0.0763 2.200965,-0.22657 0.594168,-0.15027 1.123602,-0.37684 1.579054,-0.67739 0.557177,-0.35604 0.97795,-0.82074 1.266942,-1.38485 0.288992,-0.56181 0.434644,-1.2392 0.434644,-2.02757"
         style="fill:#0a6eb4;fill-opacity:1;fill-rule:nonzero;stroke:none"
         id="path166"
         inkscape:connector-curvature="0" /></g></g></svg>