<?xml version="1.0" encoding="UTF-8" standalone="no"?>
<!-- Generator: Adobe Illustrator 21.0.2, SVG Export Plug-In . SVG Version: 6.00 Build 0)  -->

<svg
   xmlns:dc="http://purl.org/dc/elements/1.1/"
   xmlns:cc="http://creativecommons.org/ns#"
   xmlns:rdf="http://www.w3.org/1999/02/22-rdf-syntax-ns#"
   xmlns:svg="http://www.w3.org/2000/svg"
   xmlns="http://www.w3.org/2000/svg"
   xmlns:sodipodi="http://sodipodi.sourceforge.net/DTD/sodipodi-0.dtd"
   xmlns:inkscape="http://www.inkscape.org/namespaces/inkscape"
   version="1.1"
   id="Layer_1"
   x="0px"
   y="0px"
   viewBox="0 0 289.96609 345.72881"
   xml:space="preserve"
   width="289.96609"
   height="345.72882"
   sodipodi:docname="norv_0.svg"
   inkscape:version="0.92.4 (unknown)"><metadata
   id="metadata19"><rdf:RDF><cc:Work
       rdf:about=""><dc:format>image/svg+xml</dc:format><dc:type
         rdf:resource="http://purl.org/dc/dcmitype/StillImage" /><dc:title /></cc:Work></rdf:RDF></metadata><defs
   id="defs17" /><sodipodi:namedview
   pagecolor="#ffffff"
   bordercolor="#666666"
   borderopacity="1"
   objecttolerance="10"
   gridtolerance="10"
   guidetolerance="10"
   inkscape:pageopacity="0"
   inkscape:pageshadow="2"
   inkscape:window-width="1920"
   inkscape:window-height="1001"
   id="namedview15"
   showgrid="false"
   fit-margin-top="0"
   fit-margin-left="0"
   fit-margin-right="0"
   fit-margin-bottom="0"
   inkscape:zoom="1.9032258"
   inkscape:cx="99.928679"
   inkscape:cy="145.33523"
   inkscape:window-x="0"
   inkscape:window-y="0"
   inkscape:window-maximized="1"
   inkscape:current-layer="Layer_1" />
<style
   type="text/css"
   id="style2">
	.st0{fill:#002E5E;}
	.st1{fill:#FFFFFF;}
</style>
<rect
   class="st0"
   width="289.96609"
   height="345.72882"
   id="rect4"
   x="0"
   y="0"
   style="fill:#002e5e;stroke-width:5.57627106" />
<g
   id="g12"
   transform="matrix(5.5762712,0,0,5.5762712,6.6289062e-6,-3.4863281e-6)">
	<g
   id="g10">
		<path
   class="st1"
   d="m 25.9,5.2 c 0.3,0.1 0.5,0.4 0.8,0.4 0.6,0 1.1,0.1 0.9,0.8 -0.1,0.3 -0.5,0.5 -1,0.9 0,0 0.2,0.4 0.5,0.4 0.8,0 1.6,0.8 2.5,-0.1 C 29.3,7.5 29,7.5 28.9,7.4 28.7,7.1 28.7,6.8 28.6,6.5 29.3,6.3 29.9,6 30.6,6 31,6 31.4,6.5 31.7,6.8 31.8,6.9 31.9,7.4 31.8,7.5 31.5,7.7 31.2,7.8 30.7,8 30.8,8.1 31,8.5 31.2,8.5 32,8.6 32.9,9.3 33.7,8.4 33.4,8.3 33.2,8.3 33.1,8.2 32.9,8 32.7,7.7 32.7,7.4 32.7,7.2 33.1,7 33.4,7 c 0.6,0 1.2,0.2 1.9,0.3 -0.5,0.8 -1,1.6 -1.6,2.4 1.1,0.6 1.3,1.3 0.6,2.3 -0.6,0.8 -0.8,1.5 -0.7,2.5 0.1,1.4 -0.2,2.8 -0.8,4.1 -0.5,1.1 -1.1,2.3 -1.5,3.4 -0.4,1 -0.7,2 -1.1,3.2 0,0 -0.2,0 -0.5,-0.1 0,0.7 0,1.4 0,2.1 0.1,1.8 0.2,3.5 0.2,5.3 0,0.6 0.3,0.9 0.9,1.2 1.1,0.5 2.2,1.2 3.3,1.8 1.7,1.1 3.4,2.3 5.2,3.2 0.7,0.4 1.7,0.4 2.6,0.3 1.8,-0.4 2.6,-2.2 1.6,-3.8 -0.5,-0.8 -1.1,-1.4 -1.8,-2.1 -1.2,-1.2 -2.5,-2.3 -3.7,-3.5 -2.4,-2.5 -2.3,-4.8 0.1,-7.2 1.7,-1.7 3.5,-3.3 5.2,-5 1.5,-1.4 2.6,-3 2.5,-5.2 -0.1,-2.4 -2.6,-3.8 -4.6,-2.6 -0.4,0.2 -0.8,0.7 -1,1.1 -0.3,0.5 -0.3,1 0.4,1.3 1.2,0.5 1.6,1.4 1.5,2.6 -0.1,1.1 -0.2,2.3 -0.9,3.6 C 41,17 41.3,15.8 40.3,15 c 0.8,2.5 -0.7,3.5 -2.4,4.6 -0.9,0.6 -1.6,1.5 -2.5,2.2 -0.1,0.1 -0.3,0.2 -0.6,0.4 0.6,-2.9 3,-4.7 3.2,-7.5 -0.5,0.5 -1.1,0.9 -1.6,1.4 -0.1,-0.1 -0.2,-0.1 -0.3,-0.2 0.6,-1 1.2,-1.9 1.7,-2.9 0.2,-0.4 0.5,-0.7 0.5,-1.1 0.4,-2.6 2,-4 4.6,-3.9 2.3,0.1 4.2,2.1 4.2,4.5 0,1.5 -0.5,2.9 -1.3,4.1 -0.9,1.4 -2,2.6 -3,4 -0.2,0.4 -0.5,0.8 -0.8,1.4 1.6,0 3,0 4.6,0 -0.3,0.2 -0.5,0.4 -0.7,0.6 -1.4,0.8 -2.9,1.5 -4.3,2.3 -0.2,0.1 -0.4,0.4 -0.7,0.6 1.8,0 3.5,0 5.3,0 -0.2,0.1 -0.3,0.4 -0.6,0.5 -1.1,0.7 -2.3,1.3 -3.5,1.9 -0.3,0.1 -0.5,0.3 -0.7,0.5 0,0.1 0.1,0.1 0.1,0.2 1.5,0 2.9,0 4.4,0 0,0 0.1,0.1 0.1,0.1 -1.2,0.7 -2.3,1.4 -3.6,2.1 0.7,1 1.4,2 2,3 0.6,0.9 1,1.8 0.9,2.9 -0.3,2.6 -2.6,4.2 -5.4,3.5 -3,-0.7 -5.4,-2.4 -7.8,-4.1 -0.5,-0.4 -1,-0.9 -1.5,-1.2 -0.3,-0.2 -0.7,-0.1 -0.9,-0.2 1.4,1.5 2.8,3 4.2,4.5 0.7,0.7 1.5,1.4 2.3,2 0.4,0.3 1,0.5 1.6,0.7 1,0.3 2,1.6 2.1,2.6 0,0.3 0.2,0.7 0.3,1 1.3,2.4 2.7,4.9 4.1,7.3 0,0 0,0.1 0,0.4 -0.5,-0.1 -1,-0.2 -1.5,-0.3 -0.5,0 -1,0 -1.5,0 -1,0.1 -1.5,0.5 -1.5,1.6 0,0.3 -0.4,0.8 -0.6,0.8 -0.9,0 -1.2,0.5 -1.3,1.2 -0.1,0 -0.2,0 -0.3,0 -0.1,-0.5 -0.2,-1.1 -0.1,-1.5 0.1,-0.5 0.4,-1 0.4,-1.7 -0.3,0.3 -0.5,0.5 -0.8,0.8 -0.5,0.4 -0.9,0.7 -1.6,0.4 -0.4,-0.2 -1,0.2 -1.5,0.3 0.4,-1.8 1.6,-2.5 3.4,-2.5 0,-0.1 0,-0.2 -0.1,-0.3 -0.2,-0.1 -0.4,-0.1 -0.6,-0.2 -0.3,-0.2 -0.6,-0.5 -0.9,-0.7 -0.4,-0.2 -0.7,-0.5 -1.1,-0.7 0.4,-0.5 1.8,-0.8 2.7,-0.3 0.5,0.3 1,0.6 1.4,1 0.5,0.5 0.9,0.6 1.6,0.1 -0.7,-1 -1.4,-1.9 -2.1,-2.9 -0.4,-0.5 -0.9,-0.8 -1.2,-1.3 -1.6,-2 -3.7,-2 -5.9,-2 -1.2,0 -2.4,0 -3.6,-0.1 -0.3,0 -0.6,-0.2 -0.8,-0.4 -0.2,-0.1 -0.4,-0.4 -0.6,-0.5 -1.7,-1.4 -2.6,-3 -1.6,-5.3 0.6,-1.3 0.8,-2.8 1.1,-4.2 0.3,-1.1 0.1,-1.5 -0.5,-1.9 -0.5,2 -0.8,4.1 -1.5,6 -0.8,2.2 -0.5,3.9 1.4,5.2 -0.4,0.4 -0.6,0.6 -0.9,0.9 -0.7,0.8 -1.2,1.7 -1.1,2.8 0.1,1 -0.7,1.8 -1.7,2 -0.5,0.1 -0.9,0.3 -1.3,0.5 -1.4,1 -2.8,2 -4.2,3.1 -0.7,0.5 -1.4,1.1 -2,1.7 0,-0.1 -0.1,-0.4 -0.1,-0.7 -0.1,-0.6 -0.5,-0.7 -1.1,-0.8 -0.6,-0.1 -0.7,0.3 -0.8,0.7 -0.3,1.1 -1.5,1.9 -2.7,1.8 0.6,-0.5 1.1,-0.9 0.5,-1.7 -0.1,-0.1 0.2,-0.6 0.3,-0.8 0.2,-0.2 0.5,-0.4 0.9,-0.8 -0.5,0 -0.7,0 -0.9,0 C 9.2,52.6 8.6,52.7 8.1,51.8 8,51.9 7.2,52 6.7,51.9 c 0,-0.5 0.8,-1.2 1.9,-1.2 0.8,0 1.5,0.4 2.6,0.6 -0.3,-0.4 -0.5,-0.7 -0.6,-0.9 -0.5,-0.5 -0.7,-0.9 -0.3,-1.6 0.2,-0.3 -0.2,-0.9 -0.3,-1.5 0.5,0.3 1.1,0.4 1.3,0.8 0.4,0.7 0.7,1.5 0.9,2.2 0.1,0.3 0.2,1 0.4,1 0.5,0 1.2,0 1.5,-0.2 1,-0.8 1.8,-1.8 2.7,-2.7 0.6,-0.6 1.2,-1.2 1.8,-1.9 -1,-1.1 -0.5,-2.6 -0.5,-3.9 0,-0.7 0.1,-1.5 0.2,-2.2 0.1,-1.3 0.7,-2.3 1.8,-3.1 1.2,-0.8 2.4,-1.7 3.6,-2.6 0.2,-0.1 0.3,-0.5 0.3,-0.7 -0.4,-1.1 -0.9,-2.3 -1.4,-3.3 -0.2,-0.5 -0.3,-0.7 0,-1.1 0.9,-1.2 1.7,-2.4 2.6,-3.6 0.3,-0.4 0.4,-0.8 -0.3,-1 -2.7,3.8 -5.4,7.6 -8.3,11.6 -0.2,-0.6 -0.3,-1 -0.5,-1.4 -0.1,-0.3 -0.4,-0.5 -0.7,-0.6 -0.2,0 -0.5,0.2 -0.7,0.4 -0.4,0.5 -0.4,1.5 -1.3,1.6 -0.1,0 -0.1,0.4 -0.1,0.7 0,0.9 0,1.8 0,2.7 -0.4,0 -0.8,0 -1.2,0 0,-1.1 0,-2.2 0,-3.6 -0.4,0.5 -0.6,0.7 -0.9,1.1 -0.2,-1 0.2,-1.7 0.6,-2.4 0.5,-0.8 0.5,-1.4 -0.2,-1.9 -0.1,-0.1 -0.2,-0.2 -0.2,-0.3 -0.2,-0.9 -0.9,-1.1 -1.9,-1 0.7,-1 1.7,-0.9 2.6,-1 0,-3.7 0,-7.3 0,-10.8 C 11.5,20 11,19.8 10.5,19.9 10.1,20 9.7,20.3 9.2,20.6 c 0.2,-1.9 1.5,-2.7 3.1,-3.2 0,-0.1 -0.1,-0.2 -0.1,-0.3 C 12,17 11.7,17 11.5,16.9 11.2,16.8 10.8,16.7 10.8,16.5 10.4,16 9.9,15.7 9,15.5 c 0.9,-0.7 2,-0.5 3.1,-0.4 0,-1.1 0,-2.1 0,-3.2 -0.8,-0.2 -1.4,0 -2,0.5 C 9,13.4 7.8,14.3 6.7,15.3 5.6,13.7 4.6,9.1 4.8,5.9 7.1,7.4 9,9.6 12.1,9.2 c 0.1,-0.4 0.1,-0.6 0.2,-1 0.3,0 0.6,0 0.6,0 0.4,0.5 0.7,0.8 1,1.1 0.3,0.4 0.1,2.2 -0.3,2.6 -0.1,0.1 -0.3,0.3 -0.3,0.5 0,1 0,2.1 0,3.1 0,0.2 0.2,0.4 0.4,0.8 0.3,-0.9 0.2,-1.8 1.2,-2.1 0.3,-0.1 0.3,-0.8 0.4,-1.4 1,1.8 0.6,3.2 -0.6,4.4 0.1,0.2 0.1,0.2 0.1,0.3 1.6,0.3 2.6,1.8 4.1,2.3 0.1,0 0.1,0.4 0.1,0.6 -0.3,0.8 -0.6,1.5 -0.9,2.3 -1.5,-0.8 -2.2,-2.5 -3.9,-2.7 -0.1,-0.4 -0.3,-0.7 -0.4,-1.1 -0.1,0 -0.2,0 -0.3,0.1 0,0.3 -0.1,0.5 -0.1,0.8 0,3.7 0,7.5 0,11.2 0,0.7 0.2,1.1 1,1.4 -0.1,-0.4 -0.2,-0.7 -0.3,-1 -0.2,-0.5 -0.3,-1 0.1,-1.5 0.2,-0.3 0,-1 0,-1.5 0.9,0.3 1.6,1.5 1.5,2.8 0,0.4 -0.1,0.9 -0.1,1.3 0,0.2 0.1,0.4 0.2,0.5 0.2,-0.1 0.4,-0.1 0.5,-0.3 1.2,-2.3 2.3,-4.6 3.5,-7 -0.7,-0.1 -1.2,-0.1 -1.8,-0.2 0.9,-2.2 1.5,-4.4 2.6,-6.4 1.2,-2.4 3.6,-3.2 6.2,-3.6 C 27.5,15.4 28,15 28,14.2 27,14.1 26,13.9 24.9,13.8 25.4,13.2 25.3,12.7 24.8,12.1 24.1,11.1 24.1,10.6 25,9.9 26,9 26.3,8.2 25.8,6.9 25.6,6.4 25.5,5.9 25.4,5.4 25.5,5.2 25.7,5.2 25.9,5.2 Z M 33,9.7 c -2.1,-0.4 -4,-0.8 -5.9,-1 -0.5,0 -1.2,0.6 -1.5,1.1 -0.3,0.6 0.4,0.4 0.7,0.5 1.4,0.6 1.5,0.6 2.2,-0.8 0.9,0.2 1.9,0.4 2.9,0.7 0.6,0.3 1.1,0.2 1.6,-0.5 z m -7.7,8.5 c -2.7,0.1 -4.2,1.5 -4.5,3.9 0.6,0.3 0.8,-0.1 1,-0.6 0.5,-1.3 1.2,-2.4 2.8,-2.5 0.2,0 0.4,-0.4 0.7,-0.8 z M 25.4,12 c 0.3,0.4 0.5,0.8 0.7,0.9 0.8,0.2 1.7,0.2 2.5,0.3 0,-1 -0.6,-1.2 -3.2,-1.2 z m 8.1,-0.2 c 0.1,0 0.2,0 0.3,0 0,-0.4 0.1,-0.8 0.1,-1.2 -0.3,0 -0.7,0.1 -1.2,0.2 0.4,0.5 0.6,0.8 0.8,1 z"
   id="path6"
   inkscape:connector-curvature="0"
   style="fill:#ffffff" />
		<path
   class="st1"
   d="m 20.9,11 c 0.9,0.9 2.3,0.4 3.2,1.4 -1.8,0.4 -3.3,-0.2 -3.2,-1.4 z"
   id="path8"
   inkscape:connector-curvature="0"
   style="fill:#ffffff" />
	</g>
</g>
</svg>