<?xml version="1.0" encoding="UTF-8" standalone="no"?>
<svg
   xmlns:dc="http://purl.org/dc/elements/1.1/"
   xmlns:cc="http://creativecommons.org/ns#"
   xmlns:rdf="http://www.w3.org/1999/02/22-rdf-syntax-ns#"
   xmlns:svg="http://www.w3.org/2000/svg"
   xmlns="http://www.w3.org/2000/svg"
   viewBox="0 0 257.33334 257.33334"
   height="257.33334"
   width="257.33334"
   xml:space="preserve"
   id="svg2"
   version="1.1"><metadata
     id="metadata8"><rdf:RDF><cc:Work
         rdf:about=""><dc:format>image/svg+xml</dc:format><dc:type
           rdf:resource="http://purl.org/dc/dcmitype/StillImage" /><dc:title></dc:title></cc:Work></rdf:RDF></metadata><defs
     id="defs6" /><g
     transform="matrix(1.3333333,0,0,-1.3333333,0,257.33333)"
     id="g10"><g
       transform="scale(0.1)"
       id="g12"><path
         id="path14"
         style="fill:#ffffff;fill-opacity:1;fill-rule:evenodd;stroke:none"
         d="M 0.417969,1927.86 H 1927.86 V 0.417969 H 0.417969 V 1927.86" /><path
         id="path16"
         style="fill:#231f20;fill-opacity:1;fill-rule:evenodd;stroke:none"
         d="m 1133.7,1142.34 c 0,-20.88 -5.04,-45.36 -21.6,-66.96 h 46.08 v 336.24 h -147.6 V 1274.1 c 79.92,-23.04 123.12,-71.28 123.12,-131.76" /><path
         id="path18"
         style="fill:#231f20;fill-opacity:1;fill-rule:evenodd;stroke:none"
         d="m 879.539,1286.34 c 33.121,0 64.082,-7.2 87.84,-13.68 -50.399,8.64 -128.16,-3.6 -167.758,-33.12 V 1075.38 H 946.5 v 186.48 c 31.68,-5.04 56.16,-17.28 70.56,-26.64 v -159.84 h 32.4 c -30.24,-32.4 -86.401,-51.84 -135.362,-44.64 v -6.48 c 140.402,-10.8 199.442,52.56 199.442,123.12 0,82.8 -82.08,131.76 -167.04,141.84 v 122.4 H 799.621 v -123.84 c -95.762,-18 -188.641,-72 -188.641,-160.56 0,-136.802 201.598,-221.04 377.278,-221.04 267.122,0 472.322,121.68 472.322,293.04 0,207.36 -296.64,354.96 -529.201,354.96 -267.121,0 -463.68,-159.84 -463.68,-331.2 0,-88.56 52.559,-163.44 118.801,-215.28 l 5.039,3.6 c -52.559,41.04 -100.078,105.84 -100.078,193.68 13.68,187.92 258.48,293.04 475.918,293.04 154.081,0 430.561,-33.12 430.561,-276.48 0,-126.72 -144,-291.599 -444.96,-291.599 -154.082,0 -273.601,77.759 -273.601,190.079 0,97.2 79.922,166.32 200.16,166.32" /><path
         id="path20"
         style="fill:#231f20;fill-opacity:1;fill-rule:evenodd;stroke:none"
         d="m 309.301,418.02 v 19.441 h 51.117 V 603.059 H 222.898 V 437.461 h 52.563 V 418.02 H 85.3789 v 19.441 H 133.621 V 774.418 H 85.3789 v 19.441 H 275.461 V 774.418 H 222.898 V 625.379 h 137.52 v 149.039 h -51.117 v 19.441 H 497.219 V 774.418 H 448.98 V 437.461 h 48.239 V 418.02 H 309.301" /><path
         id="path22"
         style="fill:#231f20;fill-opacity:1;fill-rule:evenodd;stroke:none"
         d="m 569.941,793.859 h 86.399 v -44.64 H 569.941 Z M 527.461,418.02 v 19.441 h 46.797 v 231.117 h -46.797 v 18.723 h 132.48 v -249.84 h 43.2 V 418.02 h -175.68" /><path
         id="path24"
         style="fill:#231f20;fill-opacity:1;fill-rule:evenodd;stroke:none"
         d="m 721.141,418.02 v 19.441 h 48.238 v 386.637 h -48.238 v 18.722 h 134.64 V 437.461 h 44.637 V 418.02 H 721.141" /><path
         id="path26"
         style="fill:#231f20;fill-opacity:1;fill-rule:evenodd;stroke:none"
         d="m 1035.06,418.02 c -47.521,0 -72.72,23.039 -72.72,58.32 v 192.238 h -46.082 v 18.723 h 46.082 v 107.277 c 25.918,0 53.28,-0.719 80.64,0 V 687.301 h 66.24 v -18.723 h -66.24 V 437.461 h 67.68 V 418.02 h -75.6" /><path
         id="path28"
         style="fill:#231f20;fill-opacity:1;fill-rule:evenodd;stroke:none"
         d="m 1433.94,499.379 c -9.36,-25.199 -50.4,-87.84 -149.04,-87.84 -109.44,0 -165.6,71.281 -165.6,143.281 0,100.078 94.32,141.121 164.16,141.121 61.92,0 151.92,-35.281 159.12,-136.8 1.44,-20.161 -0.72,-41.762 -8.64,-59.762 z m -92.88,144.719 c -11.52,23.761 -31.68,34.562 -58.32,34.562 -67.68,0 -69.12,-66.242 -69.12,-123.121 0,-76.32 7.2,-90 12.96,-99.359 8.64,-15.121 26.64,-29.52 56.88,-29.52 66.96,0 66.96,69.121 66.24,131.758 -0.72,68.402 -5.04,77.043 -8.64,85.68" /><path
         id="path30"
         style="fill:#231f20;fill-opacity:1;fill-rule:evenodd;stroke:none"
         d="m 1672.98,418.02 v 19.441 h 38.16 v 158.398 c 0,36 0,71.282 -41.76,71.282 -23.76,0 -62.64,-22.321 -71.28,-58.321 -3.6,-11.519 -2.88,-23.039 -2.88,-53.281 V 437.461 h 43.2 V 418.02 h -174.96 v 19.441 h 46.08 v 231.117 h -46.08 v 18.723 h 131.76 V 646.98 c 14.4,17.278 25.92,29.52 54,39.598 20.16,8.641 38.88,10.082 51.84,10.082 5.04,0 20.88,0 38.88,-5.039 55.44,-15.121 57.6,-54.723 57.6,-82.801 V 437.461 h 45.36 V 418.02 h -169.92" /><path
         id="path32"
         style="fill:#231f20;fill-opacity:1;fill-rule:evenodd;stroke:none"
         d="m 1385.7,968.098 h -13.68 v 5.043 h 34.56 v -5.043 h -14.4 v -47.52 h -6.48 z m 59.76,-38.157 h 0.72 l 17.28,43.2 h 8.64 v -52.563 h -6.48 v 38.883 h -0.72 l -15.84,-38.883 h -6.48 l -16.56,38.883 h -0.72 v -38.883 h -6.48 v 52.563 h 9.36 l 17.28,-43.2" /></g></g></svg>