<?xml version="1.0" encoding="UTF-8" standalone="no"?>
<svg
   xmlns:dc="http://purl.org/dc/elements/1.1/"
   xmlns:cc="http://creativecommons.org/ns#"
   xmlns:rdf="http://www.w3.org/1999/02/22-rdf-syntax-ns#"
   xmlns:svg="http://www.w3.org/2000/svg"
   xmlns="http://www.w3.org/2000/svg"
   viewBox="0 0 133.33333 22.386667"
   height="22.386667"
   width="133.33333"
   xml:space="preserve"
   id="svg2"
   version="1.1"><metadata
     id="metadata8"><rdf:RDF><cc:Work
         rdf:about=""><dc:format>image/svg+xml</dc:format><dc:type
           rdf:resource="http://purl.org/dc/dcmitype/StillImage" /><dc:title></dc:title></cc:Work></rdf:RDF></metadata><defs
     id="defs6" /><g
     transform="matrix(1.3333333,0,0,-1.3333333,0,22.386667)"
     id="g10"><g
       transform="scale(0.1)"
       id="g12"><path
         id="path14"
         style="fill:#d90783;fill-opacity:1;fill-rule:nonzero;stroke:none"
         d="M 0,167.852 H 1000 V 0 H 0 v 167.852 0" /><path
         id="path16"
         style="fill:#fffbfd;fill-opacity:1;fill-rule:nonzero;stroke:none"
         d="m 405.805,136.73 c -3.387,2.836 -8.117,4.008 -12.422,2.95 -5.223,-1.145 -9.578,-5.469 -10.707,-10.696 -1.184,-4.949 0.531,-10.484 4.379,-13.828 4.383,-4.09 11.445,-4.801 16.629,-1.832 3.55,2.106 6.289,5.696 6.992,9.813 1.019,4.968 -0.969,10.379 -4.871,13.593" /><path
         id="path18"
         style="fill:#fffbfd;fill-opacity:1;fill-rule:nonzero;stroke:none"
         d="m 57.3867,51.9063 c -1.7578,0.4179 -2.7539,2.2929 -2.664,4.0039 C 54.6523,81.6016 54.7617,107.305 54.6719,133 46.8359,132.949 39,132.984 31.168,132.98 c -0.0157,-26.148 -0.0157,-52.2964 0,-78.4487 -0.0078,-7.9571 4.0234,-16.211 11.332,-19.8438 7.6563,-4.1797 16.6328,-2.4492 24.957,-2.8125 -0.0039,6.5547 0.0118,13.1055 -0.0156,19.668 -3.3476,0.0976 -6.7539,-0.3321 -10.0547,0.3633" /><path
         id="path20"
         style="fill:#fffbfd;fill-opacity:1;fill-rule:nonzero;stroke:none"
         d="m 247.172,87.2773 c 4.004,0.0079 8.016,0.0274 12.023,-0.0117 0.024,6.0313 0.016,12.0664 0.004,18.0894 -4.008,0 -8.015,0 -12.027,-0.003 -0.016,7.257 -0.004,14.515 -0.004,21.777 -7.793,0 -15.582,0.004 -23.375,0 -0.004,-7.254 0.012,-14.512 0,-21.774 -2.355,-0.003 -4.707,-0.003 -7.059,0.016 -0.05,-6.0351 -0.015,-12.0702 -0.019,-18.1054 2.355,0.0196 4.715,0.0196 7.074,0.0196 0.004,-11.1524 0.02,-22.3047 -0.012,-33.4571 -0.023,-7.9765 4.493,-15.9961 11.805,-19.4531 7.328,-3.6797 15.742,-2.1953 23.629,-2.5 -0.012,6.5547 0.004,13.1172 -0.012,19.668 -3.054,0.0586 -6.168,-0.2617 -9.195,0.3047 -2.051,0.5742 -3,2.8125 -2.836,4.8046 0,10.2032 0,20.418 0.004,30.625" /><path
         id="path22"
         style="fill:#fffbfd;fill-opacity:1;fill-rule:nonzero;stroke:none"
         d="m 609.043,105.363 c -4.004,-0.011 -8.008,-0.008 -12.023,0 0,7.254 0.011,14.512 0,21.766 -7.79,0.004 -15.575,0 -23.368,0 0,-7.262 0,-14.512 0,-21.774 -2.304,0 -4.597,0 -6.906,0 -0.008,-6.023 -0.008,-12.0425 -0.008,-18.0698 2.305,0 4.61,-0.0079 6.914,-0.0079 0.008,-11.1523 0,-22.3046 0,-33.4492 0,-8.3203 4.961,-16.6484 12.754,-19.8906 7.149,-3.1367 15.098,-1.7695 22.657,-2.0625 -0.008,6.5547 0.019,13.1172 -0.008,19.668 -3.071,0.0586 -6.172,-0.2735 -9.192,0.3125 -2.058,0.5273 -2.929,2.832 -2.832,4.7773 -0.011,10.2149 -0.011,20.4297 -0.011,30.6445 4.015,0.0079 8.019,0.0079 12.035,0 0.015,6.0235 0.027,12.0586 -0.012,18.0857" /><path
         id="path24"
         style="fill:#fffbfd;fill-opacity:1;fill-rule:nonzero;stroke:none"
         d="m 113.676,52.7539 c -2.738,-2.625 -6.789,-2.7422 -10.348,-2.4492 -2.98,0.2422 -5.8553,2.5195 -6.0624,5.6328 -0.4726,3.4883 2.8634,6.3477 6.1644,6.4766 4.23,0.2226 8.472,0.0195 12.718,0.0781 0.028,-3.3203 0.36,-7.3633 -2.472,-9.7383 z m 12.375,52.6521 c -8.61,4.004 -18.391,4.051 -27.6721,3.383 -7.7539,-0.644 -15.25,-4.168 -20.3828,-10.0624 4.9453,-4.7578 9.6602,-9.75 14.6328,-14.4883 2.3242,2.4023 5.1836,4.5234 8.5981,4.9219 3.933,0.4414 8.304,0.539 11.82,-1.5625 3.137,-2.0508 3.285,-6.1602 3.098,-9.5196 -7.786,-0.2734 -15.684,0.6914 -23.3794,-0.7617 -6.8828,-1.3008 -13.414,-5.6562 -16.1601,-12.2656 -4.3047,-10.461 -1.0977,-24.4844 9.0664,-30.3516 5.9804,-3.4961 13.2773,-4.2031 20.0161,-3.0586 4.339,0.7227 8.097,3.2539 11.171,6.2891 -0.007,-2.0117 -0.004,-4.0313 -0.004,-6.0547 7.614,0 15.219,0 22.833,0 0.007,16.5352 -0.004,33.0664 0.007,49.6094 -0.007,4.1133 -0.578,8.2734 -2.16,12.0898 -2.097,5.2461 -6.39,9.4568 -11.484,11.8318" /><path
         id="path26"
         style="fill:#fffbfd;fill-opacity:1;fill-rule:nonzero;stroke:none"
         d="m 200.691,76.6992 c -7.832,4.4258 -17.128,3.4766 -25.703,4.9531 -1.593,0.3711 -3.332,1.5118 -3.277,3.3594 -0.281,2.8985 2.859,4.3438 5.281,4.6406 6.297,0.4571 13.324,-0.039 18.352,-4.3398 4.793,4.8203 9.672,9.5547 14.386,14.457 -7.351,7.5005 -18.359,9.3825 -28.441,9.3125 -8.785,0.395 -18.031,-1.918 -24.726,-7.84 -4.985,-4.4061 -7.708,-11.0623 -7.52,-17.6873 -0.082,-6.2109 1.965,-12.9102 7.102,-16.7969 5.882,-4.5898 13.64,-5.0586 20.781,-5.6836 2.969,-0.3984 6.062,-0.2344 8.91,-1.2578 2.387,-0.7812 3.602,-4.1406 1.883,-6.1055 -1.602,-1.7656 -4.09,-2.2656 -6.348,-2.6171 -7.5,-0.8594 -15.773,0.6835 -21.289,6.2031 -5.066,-5.0196 -10.062,-10.1094 -15.148,-15.1094 2.39,-2.5977 5.257,-4.7461 8.336,-6.4648 8.062,-4.5118 17.593,-4.8438 26.609,-4.7071 8.969,0.293 18.555,2.4922 25.105,9.0352 5.618,5.5351 7.313,14.0039 6.067,21.5898 -0.906,6.2617 -4.719,12.0899 -10.36,15.0586" /><path
         id="path28"
         style="fill:#fffbfd;fill-opacity:1;fill-rule:nonzero;stroke:none"
         d="m 375.715,75.793 c -0.024,5.8008 0.07,11.8047 -2.11,17.289 -1.988,4.9102 -5.324,9.395 -9.835,12.242 -6.563,3.93 -14.622,4.434 -22.024,3.211 -5.441,-0.867 -10.258,-3.824 -14.433,-7.301 -8.977,10.43 -26.45,10.286 -36.25,1.09 0.023,2.012 0.011,4.024 0.011,6.035 -7.613,0 -15.222,0 -22.832,0 0,-25.4957 0,-50.9957 0,-76.484 7.793,0 15.582,-0.0078 23.375,0 -0.015,14.8711 0.02,29.7461 -0.015,44.6211 -0.094,2.8008 0.312,5.7695 2.05,8.0742 3.043,3.957 9.371,4.5156 13.161,1.3281 2.578,-2.0586 3.378,-5.5273 3.386,-8.6796 0.004,-15.1094 -0.008,-30.2344 0,-45.3438 7.789,0 15.582,0 23.371,0 0,15.1172 -0.007,30.2344 0.004,45.3633 0.016,2.8125 0.61,5.8281 2.61,7.9492 3.171,3.4063 8.953,3.6992 12.543,0.7891 2.418,-1.9024 3.414,-5.0977 3.421,-8.0743 0.004,-15.3437 0,-30.6835 0.004,-46.0273 7.864,0.0313 15.739,-0.0781 23.602,0.0586 -0.094,14.6211 -0.016,29.2383 -0.039,43.8594" /><path
         id="path30"
         style="fill:#fffbfd;fill-opacity:1;fill-rule:nonzero;stroke:none"
         d="m 483.336,83.6055 c -0.133,6.4375 -2.043,13.0547 -6.496,17.8555 -4.688,5.543 -12.188,8.012 -19.305,7.621 -6.152,-0.027 -11.894,-2.777 -16.668,-6.492 -0.008,1.922 -0.004,3.848 0,5.769 -7.625,-0.015 -15.242,0.032 -22.871,-0.019 0.039,-25.4884 0.024,-50.9767 0.012,-76.465 7.793,-0.0078 15.59,0 23.387,0 0,15.1289 0.007,30.2461 -0.008,45.3711 -0.047,3.1055 0.761,6.5156 3.254,8.5742 3.394,2.9102 8.871,2.8633 12.211,-0.125 2.406,-2.1015 3.128,-5.4492 3.132,-8.5156 0.028,-15.1094 -0.062,-30.2266 0.036,-45.3242 7.796,0.0976 15.605,-0.1094 23.402,0.0976 -0.156,17.2188 0.012,34.4336 -0.086,51.6524" /><path
         id="path32"
         style="fill:#fffbfd;fill-opacity:1;fill-rule:nonzero;stroke:none"
         d="m 638.445,78.2539 c 0.317,4.082 1.985,8.5547 5.91,10.4102 4.676,2.1015 11.204,1.5039 14.368,-2.9102 1.66,-2.168 2.105,-4.9023 2.578,-7.5195 -7.61,-0.2344 -15.254,-0.293 -22.856,0.0195 z m 45.481,0.457 c -0.918,7.6485 -3.965,15.1954 -9.383,20.7657 -6.262,6.5544 -15.449,9.7814 -24.406,9.6094 -8.977,0.269 -18.235,-2.91 -24.473,-9.504 -6.348,-6.5781 -9.285,-15.7226 -9.961,-24.6875 -0.488,-9.7187 0.149,-19.9609 4.949,-28.6523 3.664,-6.9649 10.586,-11.7969 18.149,-13.6914 7.937,-1.9727 16.367,-2.0703 24.375,-0.4219 7.246,1.4766 13.512,5.8203 18.64,10.9961 -4.687,4.6992 -9.367,9.3867 -14.062,14.0625 -2.766,-2.6562 -5.938,-5.1562 -9.816,-5.8594 -4.442,-0.7812 -9.375,-1.0429 -13.458,1.2422 -3.562,1.9336 -5.925,5.8594 -5.894,9.9297 15.242,0 30.477,0 45.723,0 -0.079,5.4102 0.261,10.832 -0.383,16.2109" /><path
         id="path34"
         style="fill:#fffbfd;fill-opacity:1;fill-rule:nonzero;stroke:none"
         d="m 759.941,88.0078 c 3.731,0.1563 7.079,-1.9414 9.571,-4.5586 5.449,5.1563 10.578,10.6328 15.996,15.8242 -8.836,9.3126 -22.918,11.5276 -35.028,8.7856 -7.355,-1.649 -14.164,-5.969 -18.292,-12.3246 -5.34,-8.125 -6.59,-18.1836 -6.387,-27.6953 0.273,-9.7969 2.551,-20.1953 9.472,-27.5313 7.122,-7.5 18.04,-10.1445 28.094,-9.3945 8.215,0.5 16.469,3.75 22.129,9.8359 -5.301,5.2422 -10.594,10.5078 -15.816,15.8281 -1.875,-1.6406 -3.789,-3.4062 -6.223,-4.1484 -3.352,-0.9297 -7.273,-0.4687 -9.863,2 -3.235,3.0274 -3.946,7.707 -4.246,11.8945 -0.137,5.1485 -0.317,10.5274 1.715,15.3633 1.449,3.5235 5,6.1524 8.878,6.1211" /><path
         id="path36"
         style="fill:#fffbfd;fill-opacity:1;fill-rule:nonzero;stroke:none"
         d="m 827.754,56.8672 c -2.52,-6.3789 -13.399,-6.3594 -15.82,0.0781 -2.266,5.7617 -1.414,12.0977 -1.524,18.1445 0.235,4.4922 0.86,10.4688 5.742,12.3125 3.77,1.25 8.938,0.7344 11.055,-3.0859 2.371,-4.3242 2.031,-9.4531 2.266,-14.2266 -0.203,-4.4257 0.047,-9.0625 -1.719,-13.2226 z m 10,47.8438 c -7.481,4.363 -16.57,5.137 -25,3.848 -9.707,-1.508 -18.652,-7.86 -22.715,-16.8832 -2.961,-6.7735 -3.137,-14.3125 -3.223,-21.5781 0.079,-6.7852 0.204,-13.7774 2.625,-20.2149 3.497,-9.1211 11.965,-15.9062 21.45,-17.918 9.129,-1.9648 19.207,-1.1132 27.324,3.75 7.488,4.4141 12.723,12.3438 13.797,20.9766 1.23,8.8867 1.211,17.9883 -0.02,26.875 -1.101,8.7969 -6.594,16.7466 -14.238,21.1446" /><path
         id="path38"
         style="fill:#fffbfd;fill-opacity:1;fill-rule:nonzero;stroke:none"
         d="m 965.93,91.3281 c -1.567,5.3047 -4.973,10.0199 -9.387,13.3199 -6.688,4.532 -15.273,5.192 -23.047,3.887 -5.488,-0.867 -10.266,-3.902 -14.519,-7.301 -4.59,5.426 -11.782,8.223 -18.832,7.852 -6.395,0.156 -12.372,-2.68 -17.364,-6.492 -0.008,1.918 0.012,3.847 0.012,5.765 -7.625,-0.004 -15.234,0.004 -22.852,-0.004 0.008,-25.4917 0,-50.9917 0,-76.48 7.793,-0.0078 15.586,0 23.379,0 0,15.1094 0,30.2266 0,45.332 0.008,2.8047 0.606,5.7813 2.532,7.9219 3.257,3.5234 9.304,3.7969 12.898,0.6133 2.441,-2.0977 3.191,-5.4688 3.164,-8.5547 -0.039,-15.0977 0.027,-30.1758 -0.027,-45.2734 7.801,-0.0664 15.613,-0.0782 23.426,0.0117 -0.071,14.3828 0.007,28.7695 -0.04,43.1523 0.047,2.9297 -0.019,6.086 1.622,8.6524 2.539,4.5312 9.25,5.5625 13.293,2.4609 2.617,-1.8633 3.796,-5.1836 3.691,-8.3086 0,-15.332 -0.012,-30.664 0,-46.0078 7.84,0 15.691,0 23.543,0 0,15.1094 -0.012,30.207 0,45.3125 0.039,4.7383 -0.02,9.5898 -1.492,14.1406" /><path
         id="path40"
         style="fill:#fffbfd;fill-opacity:1;fill-rule:nonzero;stroke:none"
         d="m 534.316,108.313 c 0.071,-15.0942 0,-30.188 0.039,-45.2739 -0.007,-2.9219 -0.617,-6.086 -2.773,-8.2032 -3.379,-3.4961 -9.59,-3.4961 -13.027,-0.0976 -2,1.9414 -2.762,4.8125 -2.793,7.5273 -0.02,15.3633 0,30.7344 -0.008,46.0934 -7.793,-0.004 -15.586,0.016 -23.383,-0.004 0.035,-17.4917 -0.016,-34.9761 0.031,-52.4566 0.118,-7.4296 3.18,-14.9492 9.024,-19.6953 9.543,-7.707 24.582,-6.6211 33.457,1.6289 -0.028,-1.9804 -0.02,-3.9648 -0.02,-5.957 7.625,-0.0195 15.235,0 22.852,0 0.012,25.4883 0,50.9883 0,76.484 -7.793,-0.027 -15.598,0.063 -23.399,-0.046" /><path
         id="path42"
         style="fill:#fffbfd;fill-opacity:1;fill-rule:nonzero;stroke:none"
         d="m 408.293,105.352 c -7.785,0.035 -15.559,-0.043 -23.336,0.035 -0.113,-24.5081 -0.019,-49.0081 -0.039,-73.512 7.797,0.0313 15.59,-0.0586 23.398,0.0391 -0.058,24.4726 -0.011,48.957 -0.023,73.4379" /><path
         id="path44"
         style="fill:#fffbfd;fill-opacity:1;fill-rule:nonzero;stroke:none"
         d="m 713.457,59.0938 c -3.269,2.1093 -7.402,2.7812 -11.191,1.9726 -6.582,-1.3086 -11.914,-7.5195 -11.786,-14.2969 -0.265,-5.1484 2.469,-10.2656 6.825,-13 4.902,-3.1523 11.726,-3.1054 16.543,0.2266 3.586,2.3633 6.015,6.375 6.472,10.6445 0.735,5.586 -2.039,11.5117 -6.863,14.4532" /></g></g></svg>