<svg xmlns="http://www.w3.org/2000/svg" viewBox="0 0 32 32" id="svg53"><defs id="defs7"><style id="style2">.cls-3{fill:none;stroke:#ff762a;stroke-miterlimit:10;stroke-width:2px}</style></defs><circle id="circle11" r="7" cy="24" cx="24" class="cls-3" fill="none" stroke="#ff762a" stroke-width="2" stroke-miterlimit="10"></circle><path id="line13" class="cls-3" fill="none" stroke="#ff762a" stroke-width="2" stroke-miterlimit="10" d="M24 20v8"></path><path id="line15" class="cls-3" fill="none" stroke="#ff762a" stroke-width="2" stroke-miterlimit="10" d="M28 24h-8"></path><path id="polyline17" class="cls-3" fill="none" stroke="#ff762a" stroke-width="2" stroke-miterlimit="10" d="M14 27H1V3h30v11"></path><path id="line19" class="cls-3" fill="none" stroke="#ff762a" stroke-width="2" stroke-miterlimit="10" d="M0 31h14"></path><path id="line21" class="cls-3" fill="none" stroke="#ff762a" stroke-width="2" stroke-miterlimit="10" d="M26 0v6"></path><path id="line23" class="cls-3" fill="none" stroke="#ff762a" stroke-width="2" stroke-miterlimit="10" d="M19.33 0v6"></path><path id="line25" class="cls-3" fill="none" stroke="#ff762a" stroke-width="2" stroke-miterlimit="10" d="M12.67 0v6"></path><path id="line27" class="cls-3" fill="none" stroke="#ff762a" stroke-width="2" stroke-miterlimit="10" d="M6 0v6"></path><path id="line29" class="cls-3" fill="none" stroke="#ff762a" stroke-width="2" stroke-miterlimit="10" d="M1 9h30"></path><path id="line31" class="cls-3" fill="none" stroke="#ff762a" stroke-width="2" stroke-miterlimit="10" d="M17 14h2"></path><path id="line33" class="cls-3" fill="none" stroke="#ff762a" stroke-width="2" stroke-miterlimit="10" d="M21 14h2"></path><path id="line35" class="cls-3" fill="none" stroke="#ff762a" stroke-width="2" stroke-miterlimit="10" d="M25 14h2"></path><path id="line37" class="cls-3" fill="none" stroke="#ff762a" stroke-width="2" stroke-miterlimit="10" d="M5 18h2"></path><path id="line39" class="cls-3" fill="none" stroke="#ff762a" stroke-width="2" stroke-miterlimit="10" d="M9 18h2"></path><path id="line41" class="cls-3" fill="none" stroke="#ff762a" stroke-width="2" stroke-miterlimit="10" d="M13 18h2"></path><path id="line43" class="cls-3" fill="none" stroke="#ff762a" stroke-width="2" stroke-miterlimit="10" d="M5 22h2"></path><path id="line45" class="cls-3" fill="none" stroke="#ff762a" stroke-width="2" stroke-miterlimit="10" d="M9 22h2"></path><path id="line47" class="cls-3" fill="none" stroke="#ff762a" stroke-width="2" stroke-miterlimit="10" d="M13 22h2"></path><path id="rect4" fill="none" d="M0 0h32v32H0z"></path></svg>