<svg xmlns="http://www.w3.org/2000/svg" width="32" height="32" viewBox="0 0 32 32">
  <path d="M30 28c0 1.103-.897 2-2 2s-2-.897-2-2h.003v-.814l4.998-12.998v-1.995l-6-1.286V4.002H20V0h-8v4.002H7.001v6.906l-6 1.287v1.993l4.998 12.998V28H6c0 1.103-.897 2-2 2-1.102 0-2-.897-2-2H0c0 2.206 1.794 4 4 4a3.974 3.974 0 0 0 3-1.382c.734.84 1.8 1.382 3 1.382a3.974 3.974 0 0 0 3-1.382A3.974 3.974 0 0 0 16 32a3.974 3.974 0 0 0 3-1.382A3.974 3.974 0 0 0 22 32c1.2 0 2.266-.542 3-1.382A3.974 3.974 0 0 0 28 32c2.206 0 4-1.794 4-4zM14 2h4v2h-4zM9.001 6.002h14v4.477l-7-1.5-7 1.501V6.002zM22 30c-1.103 0-2-.897-2-2h-2c0 1.103-.897 2-2 2s-2-.897-2-2h-2c0 1.103-.897 2-2 2-1.102 0-2-.897-2-2h-.001v-1.185L3.001 13.817l13-2.793 13 2.786-4.998 13.005V28H24c0 1.103-.897 2-2 2z" fill="#ff762a" fill-rule="evenodd"></path>
</svg>