<svg xmlns="http://www.w3.org/2000/svg" width="820" height="326"><path fill="#fff" paint-order="fill markers stroke" d="M0 0h820v326H0z"/><path overflow="visible" font-weight="400" style="line-height:normal;font-variant-ligatures:normal;font-variant-position:normal;font-variant-caps:normal;font-variant-numeric:normal;font-variant-alternates:normal;font-feature-settings:normal;text-indent:0;text-align:start;text-decoration-line:none;text-decoration-style:solid;text-decoration-color:#000;text-transform:none;text-orientation:mixed;white-space:normal;shape-padding:0;isolation:auto;mix-blend-mode:normal" d="M0 126v1.01h685.918V126zm0 27.013v1.002h685.918v-1.002zm0 27.004v1.002h685.918v-1.002zm0 27.004v1.01h685.918v-1.01zm0 27.007v1.01h685.918v-1.01zm0 27.01v1.004h685.918v-1.004z" color="#000" font-family="sans-serif" fill="#f7f7fa"/><path overflow="visible" font-weight="400" style="line-height:normal;font-variant-ligatures:normal;font-variant-position:normal;font-variant-caps:normal;font-variant-numeric:normal;font-variant-alternates:normal;font-feature-settings:normal;text-indent:0;text-align:start;text-decoration-line:none;text-decoration-style:solid;text-decoration-color:#000;text-transform:none;text-orientation:mixed;white-space:normal;shape-padding:0;isolation:auto;mix-blend-mode:normal" d="M307.204 235.666l-56.803 39.023a3.945 3.97 0 011.04 1.72l56.843-39.054a3.945 3.97 0 01-1.08-1.69zm7.218.662a3.945 3.97 0 01-1.366 1.466l56.186 49.146a3.945 3.97 0 011.255-1.57zm371.496 11.005l-58.964 13.043a3.945 3.97 0 01.738 1.893l58.226-12.873zm-121.476.947a3.945 3.97 0 01.012.214 3.945 3.97 0 01-.41 1.757l55.798 12.182a3.945 3.97 0 01.654-1.914zm-375.77.483a3.945 3.97 0 01-.853 1.82l55.964 26.267a3.945 3.97 0 01.843-1.829zm367.956.423l-55.158 24.13a3.945 3.97 0 01.757 1.86l55.232-24.165a3.945 3.97 0 01-.831-1.825zm-375.511.28l-55.736 36.494a3.945 3.97 0 011.007 1.736l55.894-36.599a3.945 3.97 0 01-1.165-1.63zM439.2 261.957a3.945 3.97 0 01.011.23 3.945 3.97 0 01-.4 1.739l55.574 11.912a3.945 3.97 0 01-.008-.14 3.945 3.97 0 01.44-1.822zm-382.243.114L.021 274.235v2.057l57.354-12.25a3.945 3.97 0 01-.424-1.782 3.945 3.97 0 01.006-.189zm374.42.752l-55.363 23.388a3.945 3.97 0 01.738 1.868l55.431-23.423a3.945 3.97 0 01-.806-1.833zm-366.582.016a3.945 3.97 0 01-.786 1.855l54.685 23.493a3.945 3.97 0 01.787-1.854z" color="#000" font-family="sans-serif" opacity=".8" fill="#a2aecf" fill-opacity=".784"/><path overflow="visible" font-weight="400" style="line-height:normal;font-variant-ligatures:normal;font-variant-position:normal;font-variant-caps:normal;font-variant-numeric:normal;font-variant-alternates:normal;font-feature-settings:normal;text-indent:0;text-align:start;text-decoration-line:none;text-decoration-style:solid;text-decoration-color:#000;text-transform:none;text-orientation:mixed;white-space:normal;shape-padding:0;isolation:auto;mix-blend-mode:normal" d="M307.776 236.662a3.945 3.97 0 00.125.175 3.945 3.97 0 01-.125-.175zm.242.322a3.945 3.97 0 00.127.146 3.945 3.97 0 01-.127-.146zm5.941.11a3.945 3.97 0 01-.203.214 3.945 3.97 0 00.203-.214zm-5.644.21a3.945 3.97 0 00.05.051l-56.842 39.053a3.945 3.97 0 01.168 1.14 3.945 3.97 0 01-3.944 3.97 3.945 3.97 0 01-3.945-3.97 3.945 3.97 0 01.074-.747 3.945 3.97 0 00-.011.05L187.9 250.582a3.945 3.97 0 00.078-.1 3.945 3.97 0 01-3.103 1.53 3.945 3.97 0 01-2.514-.914l-55.89 36.595a3.945 3.97 0 01.148 1.073 3.945 3.97 0 01-3.944 3.97 3.945 3.97 0 01-3.945-3.97 3.945 3.97 0 01.063-.666 3.945 3.97 0 00-.018.086L64.09 264.693a3.945 3.97 0 00.086-.12 3.945 3.97 0 01-3.2 1.656 3.945 3.97 0 01-3.522-2.189L.103 276.292v-1.027l-.103.021L.103 326 686 325.66l-.101-76.242-58.125 12.851a3.945 3.97 0 00-.018-.117 3.945 3.97 0 01.045.565 3.945 3.97 0 01-3.944 3.97 3.945 3.97 0 01-3.945-3.97 3.945 3.97 0 01.018-.338 3.945 3.97 0 00-.006.053l-55.798-12.182a3.945 3.97 0 00.072-.16 3.945 3.97 0 01-3.608 2.375 3.945 3.97 0 01-3.078-1.494 3.945 3.97 0 00.029.04l-55.232 24.165a3.945 3.97 0 01.04.523 3.945 3.97 0 01-3.945 3.97 3.945 3.97 0 01-3.94-3.83l-55.57-11.913a3.945 3.97 0 00.31-.914h-.002a3.945 3.97 0 01-3.853 3.145 3.945 3.97 0 01-3.088-1.499l-55.427 23.421a3.945 3.97 0 00-.023-.145 3.945 3.97 0 01.055.625 3.945 3.97 0 01-3.945 3.97 3.945 3.97 0 01-3.944-3.97 3.945 3.97 0 01.378-1.682 3.945 3.97 0 00-.03.063l-56.187-49.146a3.945 3.97 0 01-2.102.614 3.945 3.97 0 01-2.721-1.104zm193.994 37.872a3.945 3.97 0 00-.016-.098 3.945 3.97 0 01.016.098zm61.89-25.087a3.945 3.97 0 00.243-.754h-.002a3.945 3.97 0 01-.242.754zm-375.779-.318a3.945 3.97 0 01-.113.216 3.945 3.97 0 00.113-.216zm-.21.381a3.945 3.97 0 01-.098.148 3.945 3.97 0 00.097-.148zm368.878.16a3.945 3.97 0 00.121.214 3.945 3.97 0 01-.12-.215zm.2.345a3.945 3.97 0 00.157.222 3.945 3.97 0 01-.158-.222zm70.264 10.693a3.945 3.97 0 01.07.208 3.945 3.97 0 00-.07-.208zm-7.468.23a3.945 3.97 0 00-.06.24 3.945 3.97 0 01.06-.24zm7.589.155a3.945 3.97 0 01.043.193 3.945 3.97 0 00-.043-.193zm-7.686.244a3.945 3.97 0 00-.032.206 3.945 3.97 0 01.032-.206zm-555.422 1.917a3.945 3.97 0 01-.082.17 3.945 3.97 0 00.082-.17zm-.185.362a3.945 3.97 0 01-.1.16 3.945 3.97 0 00.1-.16zm437.705 10.036a3.945 3.97 0 01.039.106 3.945 3.97 0 00-.04-.106zm.12.376a3.945 3.97 0 01.028.102 3.945 3.97 0 00-.027-.102zm-7.658.204a3.945 3.97 0 00-.088.825 3.945 3.97 0 01.092-.825zm-250.446 1.169a3.945 3.97 0 00-.078.218 3.945 3.97 0 01.078-.218zm-.127.363a3.945 3.97 0 00-.059.226 3.945 3.97 0 01.06-.226zm125.795 9.782a3.945 3.97 0 00-.065.084 3.945 3.97 0 01.065-.084zm6.862 1.04a3.945 3.97 0 01.02.054 3.945 3.97 0 00-.02-.053zm-257.626.107a3.945 3.97 0 00-.063.17 3.945 3.97 0 01.063-.17zm257.73.23a3.945 3.97 0 01.03.13 3.945 3.97 0 00-.03-.13zm-257.847.12a3.945 3.97 0 00-.053.204 3.945 3.97 0 01.053-.205z" color="#000" font-family="sans-serif" opacity=".8" fill="#f6f8fc"/><path d="M311.036 231.977a2.446 2.462 0 00-2.446 2.461 2.446 2.462 0 002.446 2.462 2.446 2.462 0 002.447-2.462 2.446 2.462 0 00-2.447-2.461zm-126.16 13.604a2.446 2.462 0 00-2.446 2.461 2.446 2.462 0 002.446 2.462 2.446 2.462 0 002.445-2.462 2.446 2.462 0 00-2.445-2.461zm375.714.452a2.446 2.462 0 00-2.446 2.461 2.446 2.462 0 002.446 2.462 2.446 2.462 0 002.445-2.462 2.446 2.462 0 00-2.445-2.461zm-125.241 13.692a2.446 2.462 0 00-2.445 2.462 2.446 2.462 0 002.445 2.462 2.446 2.462 0 002.446-2.462 2.446 2.462 0 00-2.446-2.462zm-374.371.073a2.446 2.462 0 00-2.446 2.462 2.446 2.462 0 002.446 2.461 2.446 2.462 0 002.445-2.461 2.446 2.462 0 00-2.445-2.462zm562.879.458a2.446 2.462 0 00-2.446 2.461 2.446 2.462 0 002.446 2.462 2.446 2.462 0 002.445-2.462 2.446 2.462 0 00-2.445-2.461zm-125.453 12.981a2.446 2.462 0 00-2.446 2.462 2.446 2.462 0 002.446 2.462 2.446 2.462 0 002.445-2.462 2.446 2.462 0 00-2.445-2.462zm-250.657 1.849a2.446 2.462 0 00-2.446 2.462 2.446 2.462 0 002.446 2.461 2.446 2.462 0 002.445-2.461 2.446 2.462 0 00-2.445-2.462zm125.173 11.011a2.446 2.462 0 00-2.446 2.462 2.446 2.462 0 002.446 2.461 2.446 2.462 0 002.446-2.461 2.446 2.462 0 00-2.446-2.462zm-250.245.208a2.446 2.462 0 00-2.446 2.462 2.446 2.462 0 002.446 2.461 2.446 2.462 0 002.446-2.461 2.446 2.462 0 00-2.446-2.462z" fill="#a2aecf" paint-order="fill markers stroke"/><path overflow="visible" font-weight="400" style="line-height:normal;font-variant-ligatures:normal;font-variant-position:normal;font-variant-caps:normal;font-variant-numeric:normal;font-variant-alternates:normal;font-feature-settings:normal;text-indent:0;text-align:start;text-decoration-line:none;text-decoration-style:solid;text-decoration-color:#000;text-transform:none;text-orientation:mixed;white-space:normal;shape-padding:0;isolation:auto;mix-blend-mode:normal" d="M241.425 215.27l-55.694 49.31-52.795-30.167-60.835 40.66-52.816-33.229-19.264 10.09v1.7l19.198-10.051 52.905 33.279 60.87-40.681 52.928 30.241 55.392-49.042 69.872 75.943 69.015-57.1 56.725 36.63 68.272-49.935 55.522 35.64 63.07-13.009-.302-1.477-62.47 12.883-55.873-35.862-68.27 49.932-56.777-36.663-68.774 56.896z" color="#000" font-family="sans-serif" fill="#ffb520" fill-opacity=".137"/></svg>