<svg xmlns:dc="http://purl.org/dc/elements/1.1/" xmlns:cc="http://creativecommons.org/ns#" xmlns:rdf="http://www.w3.org/1999/02/22-rdf-syntax-ns#" xmlns:svg="http://www.w3.org/2000/svg" xmlns="http://www.w3.org/2000/svg" id="svg1627" version="1.1" viewBox="0 0 35 37" height="37" width="35">
  <defs id="defs1621"></defs>
  <metadata id="metadata1624">
    <rdf:rdf>
      <cc:work rdf:about="">
        <dc:format>image/svg+xml</dc:format>
        <dc:type rdf:resource="http://purl.org/dc/dcmitype/StillImage"></dc:type>
        <dc:title></dc:title>
      </cc:work>
    </rdf:rdf>
  </metadata>
  <g style="display:inline" transform="translate(-101.20312,-143.93854)" id="layer1">
    <path id="rect1640" transform="translate(101.20312,143.93854)" d="M 0.00976563,0.13867188 V 1.1386719 31.9375 H 14.583984 v -2 H 2.0097656 V 10.052734 H 30 v 7.25 h 2 V 0.13867188 Z M 2.0097656,2.1386719 H 30 V 8.0527344 H 2.0097656 Z M 3.7871094,3.9335938 V 6.2382812 H 6.0917969 V 3.9335938 Z m 3.109375,0 V 6.2382812 H 9.2011719 V 3.9335938 Z M 26.880859,21.041016 c -0.22461,0.0032 -0.448471,0.01511 -0.671875,0.03711 -1.74481,0.171842 -3.430732,0.920068 -4.759765,2.205078 l -1.373047,-1.373047 v 4.261719 h 4.261719 l -1.470703,-1.470703 c 2.023199,-1.934324 5.105557,-2.220274 7.443359,-0.658203 2.37577,1.58744 3.294622,4.616049 2.201172,7.255859 -1.09344,2.63982 -3.88508,4.133612 -6.6875,3.576172 -2.80241,-0.55743 -4.810547,-3.005961 -4.810547,-5.863281 h -2 c 0,3.79918 2.693752,7.083039 6.419922,7.824219 3.72617,0.741179 7.471901,-1.261505 8.925781,-4.771485 1.45388,-3.50998 0.2214,-7.572884 -2.9375,-9.683594 -1.382019,-0.923431 -2.968741,-1.362298 -4.541016,-1.339843 z" style="color:#000000;font-style:normal;font-variant:normal;font-weight:normal;font-stretch:normal;font-size:medium;line-height:normal;font-family:sans-serif;font-variant-ligatures:normal;font-variant-position:normal;font-variant-caps:normal;font-variant-numeric:normal;font-variant-alternates:normal;font-feature-settings:normal;text-indent:0;text-align:start;text-decoration:none;text-decoration-line:none;text-decoration-style:solid;text-decoration-color:#000000;letter-spacing:normal;word-spacing:normal;text-transform:none;writing-mode:lr-tb;direction:ltr;text-orientation:mixed;dominant-baseline:auto;baseline-shift:baseline;text-anchor:start;white-space:normal;shape-padding:0;clip-rule:nonzero;display:inline;overflow:visible;visibility:visible;opacity:1;isolation:auto;mix-blend-mode:normal;color-interpolation:sRGB;color-interpolation-filters:linearRGB;solid-color:#000000;solid-opacity:1;vector-effect:none;fill:#ff7800;fill-opacity:1;fill-rule:nonzero;stroke:none;stroke-width:2;stroke-linecap:butt;stroke-linejoin:miter;stroke-miterlimit:4;stroke-dasharray:none;stroke-dashoffset:0;stroke-opacity:1;paint-order:fill markers stroke;color-rendering:auto;image-rendering:auto;shape-rendering:auto;text-rendering:auto;enable-background:accumulate"></path>
  </g>
</svg>