<svg xmlns:dc="http://purl.org/dc/elements/1.1/" xmlns:cc="http://creativecommons.org/ns#" xmlns:rdf="http://www.w3.org/1999/02/22-rdf-syntax-ns#" xmlns:svg="http://www.w3.org/2000/svg" xmlns="http://www.w3.org/2000/svg" id="svg8" version="1.1" viewBox="0 0 8.9958334 8.4666662" height="8.4666662mm" width="8.9958334mm">
  <defs id="defs2"></defs>
  <metadata id="metadata5">
    <rdf:rdf>
      <cc:work rdf:about="">
        <dc:format>image/svg+xml</dc:format>
        <dc:type rdf:resource="http://purl.org/dc/dcmitype/StillImage"></dc:type>
        <dc:title></dc:title>
      </cc:work>
    </rdf:rdf>
  </metadata>
  <g transform="translate(0,-288.53333)" id="layer1">
    <path id="rect826" transform="matrix(0.26458333,0,0,0.26458333,0,288.53333)" d="M 2.8652344,0.30273438 C 2.6970309,0.29938004 2.4851568,0.30589247 2.2441406,0.34765625 2.0031243,0.38923105 1.7084417,0.4785577 1.4316406,0.70117188 1.1548397,0.92378605 0.94781858,1.2806106 0.87109375,1.6308594 l -0.0214844,0.089844 -0.007813,0.095703 c -0.0355465,1.1550993 -0.009284,2.2864483 -0.0214844,3.3886719 L 2.820312,5.2265623 c 0.010979,-0.9920504 0.00371,-1.9572362 0.021484,-2.9082031 0.1256118,0.00144 0.2029578,0.00756 0.4355469,0 H 14.59375 c 0.0025,0.060094 0.0054,0.067049 0,0.1328125 V 2.5097656 2.5625 c 0.0158,0.6213543 -0.0408,1.3510439 0.0293,2.140625 l 0.02344,0.2207031 0.109375,0.1933594 C 16.254374,7.6833341 17.75201,10.248644 19.25,12.814453 H 13.447266 L 11.201172,8.0371094 10.755859,7.0898438 H 0.671875 L 3.4179688,12.933594 V 31.675781 H 30.294922 V 13.818359 12.947266 L 33.173828,8.0429688 33.720703,7.1132812 H 24.492188 L 21.355469,12.457031 C 19.775044,9.7481242 18.198389,7.0339245 16.617188,4.3261719 16.58971,3.8272742 16.604257,3.2552985 16.59375,2.6210938 16.61938,2.3089048 16.64723,1.8982934 16.46875,1.4023438 16.379508,1.1544067 16.218334,0.87001897 15.9375,0.65039062 15.658514,0.43231188 15.280354,0.31835938 14.933594,0.31835938 H 3.2402344 l -0.013672,-0.001953 c -0.067961,0.00189 -0.1931246,-0.0103175 -0.361328,-0.013672 z M 25.560547,8.9667969 h 4.916015 L 28.216797,12.814453 H 23.300781 Z M 3.671875,8.9921875 h 5.875 L 11.34375,12.814453 H 5.4667969 Z M 5.4179688,14.814453 H 28.294922 V 29.673828 H 5.4179688 Z m 6.4375002,2.007813 v 10.888672 h 2 V 16.822266 Z" style="color:#000000;font-style:normal;font-variant:normal;font-weight:normal;font-stretch:normal;font-size:medium;line-height:normal;font-family:sans-serif;font-variant-ligatures:normal;font-variant-position:normal;font-variant-caps:normal;font-variant-numeric:normal;font-variant-alternates:normal;font-feature-settings:normal;text-indent:0;text-align:start;text-decoration:none;text-decoration-line:none;text-decoration-style:solid;text-decoration-color:#000000;letter-spacing:normal;word-spacing:normal;text-transform:none;writing-mode:lr-tb;direction:ltr;text-orientation:mixed;dominant-baseline:auto;baseline-shift:baseline;text-anchor:start;white-space:normal;shape-padding:0;clip-rule:nonzero;display:inline;overflow:visible;visibility:visible;opacity:1;isolation:auto;mix-blend-mode:normal;color-interpolation:sRGB;color-interpolation-filters:linearRGB;solid-color:#000000;solid-opacity:1;vector-effect:none;fill:#ff7800;fill-opacity:1;fill-rule:nonzero;stroke:none;stroke-width:2.00000024;stroke-linecap:butt;stroke-linejoin:miter;stroke-miterlimit:4;stroke-dasharray:none;stroke-dashoffset:0;stroke-opacity:1;paint-order:fill markers stroke;color-rendering:auto;image-rendering:auto;shape-rendering:auto;text-rendering:auto;enable-background:accumulate"></path>
  </g>
</svg>