<svg xmlns:dc="http://purl.org/dc/elements/1.1/" xmlns:cc="http://creativecommons.org/ns#" xmlns:rdf="http://www.w3.org/1999/02/22-rdf-syntax-ns#" xmlns:svg="http://www.w3.org/2000/svg" xmlns="http://www.w3.org/2000/svg" xmlns:sodipodi="http://sodipodi.sourceforge.net/DTD/sodipodi-0.dtd" xmlns:inkscape="http://www.inkscape.org/namespaces/inkscape" height="44.380859" width="36.514744" id="svg67" viewBox="0 0 36.514744 44.38086" version="1.1" sodipodi:docname="post.svg" inkscape:version="0.92.4 (unknown)">
  <metadata id="metadata23">
    <rdf:rdf>
      <cc:work rdf:about="">
        <dc:format>image/svg+xml</dc:format>
        <dc:type rdf:resource="http://purl.org/dc/dcmitype/StillImage"></dc:type>
      </cc:work>
    </rdf:rdf>
  </metadata>
  <sodipodi:namedview pagecolor="#ffffff" bordercolor="#666666" borderopacity="1" objecttolerance="10" gridtolerance="10" guidetolerance="10" inkscape:pageopacity="0" inkscape:pageshadow="2" inkscape:window-width="640" inkscape:window-height="480" id="namedview21" showgrid="false" showguides="true" inkscape:guide-bbox="true" inkscape:snap-bbox="true" inkscape:bbox-paths="true" inkscape:bbox-nodes="true" inkscape:snap-bbox-edge-midpoints="true" inkscape:snap-bbox-midpoints="true" inkscape:snap-midpoints="true" inkscape:zoom="14.25432" inkscape:cx="16.337756" inkscape:cy="29.750498" inkscape:current-layer="svg67">
    <sodipodi:guide position="11.927112,23.246296" orientation="1,0" id="guide965" inkscape:locked="false"></sodipodi:guide>
    <sodipodi:guide position="18.328983,29.542936" orientation="0,1" id="guide967" inkscape:locked="false"></sodipodi:guide>
  </sodipodi:namedview>
  <defs id="defs4">
    <style id="style2"></style>
    <style id="style878"></style>
    <style id="style938"></style>
    <style id="style1028"></style>
  </defs>
  <path style="color:#000000;font-weight:400;line-height:normal;font-family:sans-serif;font-variant-ligatures:normal;font-variant-position:normal;font-variant-caps:normal;font-variant-numeric:normal;font-variant-alternates:normal;font-feature-settings:normal;text-indent:0;text-align:start;text-decoration:none;text-decoration-line:none;text-decoration-style:solid;text-decoration-color:#000000;text-transform:none;text-orientation:mixed;white-space:normal;shape-padding:0;overflow:visible;isolation:auto;mix-blend-mode:normal;fill:#ff7800;fill-opacity:1;stroke-width:2" d="M 8.4023438 0 L 8.4023438 2.8242188 L 4.7714844 2.8242188 L 4.7714844 4.8242188 L 10.402344 4.8242188 L 10.402344 0 L 8.4023438 0 z M 13.664062 0 L 13.664062 4.8242188 L 15.664062 4.8242188 L 15.664062 0 L 13.664062 0 z M 18.236328 0.33203125 L 18.242188 2.3320312 C 25.305034 2.3088743 30.76723 7.7097215 30.980469 12.587891 C 31.104551 15.426434 32.093072 18.214514 32.988281 20.429688 C 33.435885 21.537274 33.863025 22.503903 34.150391 23.224609 C 34.294074 23.58496 34.401578 23.886564 34.457031 24.085938 C 34.481611 24.174308 34.482395 24.234734 34.484375 24.269531 C 34.439025 24.401302 34.381 24.482095 34.269531 24.5625 C 34.133337 24.66074 33.906607 24.748698 33.654297 24.798828 C 33.149672 24.899089 32.638673 24.845703 32.638672 24.845703 L 32.576172 24.837891 L 29.914062 24.837891 L 29.914062 29.886719 L 29.914062 29.892578 C 29.914062 29.892578 29.911962 30.647929 29.470703 31.392578 C 29.029428 32.137228 28.273143 32.893528 26.121094 32.849609 L 26.111328 32.849609 L 20.148438 32.849609 L 20.148438 34.849609 L 24.894531 34.849609 L 24.894531 42.132812 L 10.498047 42.132812 L 10.498047 31.109375 L 8.078125 31.109375 L 8.078125 44.380859 L 27.291016 44.380859 L 27.291016 34.773438 C 29.286464 34.501934 30.56187 33.474447 31.191406 32.412109 C 31.94069 31.147694 31.914062 29.869141 31.914062 29.869141 L 31.914062 26.837891 L 32.515625 26.837891 C 32.676545 26.856021 33.274221 26.914849 34.044922 26.761719 C 34.485819 26.674119 34.979213 26.515578 35.439453 26.183594 C 35.899693 25.851609 36.308199 25.311767 36.464844 24.642578 C 36.577977 24.159276 36.475816 23.87618 36.384766 23.548828 C 36.293716 23.221477 36.163778 22.873578 36.007812 22.482422 C 35.695883 21.700111 35.274352 20.751993 34.841797 19.681641 C 33.976717 17.540877 33.084446 14.923299 32.978516 12.5 C 32.705836 6.2619859 26.30338 0.30558215 18.236328 0.33203125 z M 0 8.5410156 L 0 10.541016 L 2.8769531 10.541016 L 2.8769531 8.5410156 L 0 8.5410156 z M 5.5253906 8.5410156 L 5.5253906 9.5410156 L 5.5253906 21.134766 L 18.328125 21.134766 L 18.328125 8.5410156 L 5.5253906 8.5410156 z M 21.310547 8.5585938 L 21.310547 10.558594 L 24.1875 10.558594 L 24.1875 8.5585938 L 21.310547 8.5585938 z M 7.5253906 10.541016 L 16.328125 10.541016 L 16.328125 19.134766 L 7.5253906 19.134766 L 7.5253906 10.541016 z M 21.310547 13.574219 L 21.310547 15.574219 L 24.1875 15.574219 L 24.1875 13.574219 L 21.310547 13.574219 z M 0 14.119141 L 0 16.119141 L 2.8769531 16.119141 L 2.8769531 14.119141 L 0 14.119141 z M 0 19.134766 L 0 21.134766 L 2.8769531 21.134766 L 2.8769531 19.134766 L 0 19.134766 z M 21.310547 19.152344 L 21.310547 21.152344 L 24.1875 21.152344 L 24.1875 19.152344 L 21.310547 19.152344 z M 5.2773438 23.220703 L 5.2773438 25.220703 L 8.453125 25.220703 L 8.453125 28.044922 L 10.453125 28.044922 L 10.453125 23.220703 L 5.2773438 23.220703 z M 13.257812 23.220703 L 13.257812 28.044922 L 15.257812 28.044922 L 15.257812 25.220703 L 18.888672 25.220703 L 18.888672 23.220703 L 13.257812 23.220703 z " id="path1077"></path>
</svg>