<svg xmlns="http://www.w3.org/2000/svg" viewBox="0 0 10.318 10.717">
  <g fill="#ff7800">
    <path d="M14.08 18.56a4.323 4.323 0 0 0-4.324 4.324c0 2.387 4.324 7.393 4.324 7.393s4.323-5.006 4.323-7.393a4.323 4.323 0 0 0-4.323-4.324zm0 1.418a2.858 2.858 0 0 1 2.858 2.858 2.858 2.858 0 0 1-2.858 2.859 2.858 2.858 0 0 1-2.859-2.859 2.858 2.858 0 0 1 2.859-2.858zM6.295 5.395a1.136 1.136 0 0 1-1.136 1.136 1.136 1.136 0 0 1-1.136-1.136A1.136 1.136 0 0 1 5.16 4.26a1.136 1.136 0 0 1 1.136 1.136zM.819 1.02v3.474l.982-.981 1.275 1.275a2.172 2.172 0 0 1 1.533-1.491L3.313 2l.98-.981zm5.205 0L7.006 2 5.709 3.298a2.172 2.172 0 0 1 1.533 1.49l1.275-1.276.982.98V1.02zm1.233 4.925a2.172 2.172 0 0 1-1.49 1.535l1.238 1.238-.98.981h3.474V6.224l-.982.98zm-4.197.002L1.8 7.206l-.98-.982v3.475h3.473l-.98-.982L4.55 7.48A2.172 2.172 0 0 1 3.06 5.946zM23.863 20.348a.432.432 0 0 0-.379.223l-5.162 8.993c-.286.5.462.93.75.432l1.976-3.442c.081.21.19.403.323.579.387.508.945.892 1.518 1.268.573.375 1.164.743 1.63 1.187.467.445.808.954.917 1.644l.097.617 3.327-5.334-.018-.089c-.298-1.581-1.64-2.37-2.8-3.107-.581-.369-1.123-.73-1.497-1.153a2.117 2.117 0 0 1-.484-.86l.174-.303a.433.433 0 0 0-.372-.655zm.335 2.128c.31.35.696.64 1.103.915-.151.355-.335.723-.525 1.082-.377-.224-.618-.426-.954-.794a2.094 2.094 0 0 1-.103-.12l-.025-.035c.157-.301.346-.77.504-1.048zm-1.005.34l.014.025.052.111c.093.179.3.395.433.577-.195.373-.36.733-.589 1.148-.132-.177-.324-.436-.424-.601l-.059-.102c-.016-.025-.033-.048-.05-.072zm3.326 1.368c.447.303.863.624 1.19 1.006-.229.375-.459.755-.661 1.097.256.368.468.777.7 1.132l-.718 1.151c-.244-.314-.459-.691-.71-1.04-.217.375-.442.763-.627 1.093a4.154 4.154 0 0 0-.376-.463 4.775 4.775 0 0 0-.655-.61 111 111 0 0 0 .639-1.11c.23.188.439.387.645.625l.085.094c.101.116.197.24.29.37.212-.365.483-.829.727-1.242a4.066 4.066 0 0 0-.384-.474 4.197 4.197 0 0 0-.678-.603c.176-.323.356-.671.533-1.026zm-1.743.29c.127.075.253.146.378.217l.013.009c.28.163.551.318.819.51-.225.416-.472.853-.685 1.23-.254-.21-.51-.385-.776-.572l-.014-.01c-.119-.081-.238-.162-.36-.248.207-.367.435-.778.625-1.136zm-1.675.207l.025.033c.032.04.066.08.1.119.326.366.56.53.92.785-.2.357-.442.785-.652 1.145.123.081.244.157.365.234l.013.01c.271.176.532.344.79.544-.192.328-.448.741-.642 1.043-.291-.206-.59-.396-.875-.583a18.917 18.917 0 0 1-.296-.2c.222-.338.439-.696.64-1.04-.365-.24-.599-.349-.93-.704a2.426 2.426 0 0 1-.102-.117c-.01-.011-.018-.022-.026-.033.258-.449.441-.82.67-1.236zm-1.212.408l.046.075.055.106c.097.17.304.475.439.65-.189.326-.396.682-.592 1.046-.032-.038-.065-.075-.095-.114a1.732 1.732 0 0 1-.364-.873zm3.804 3.534c.239.34.437.716.653 1.044l-.678 1.087c-.135-.409-.296-.804-.524-1.137.152-.297.373-.68.549-.994z" paint-order="fill markers stroke"></path>
  </g>
</svg>