<svg xmlns="http://www.w3.org/2000/svg" viewBox="0 0 10.318 10.717">
  <g fill="#ff7800">
    <path d="M5.45 0A5.446 5.446 0 0 0 .682 2.842l2.299.207c.702.064 1.32.606 1.32 1.348v2.256c0 .326-.086.605-.267.791-.182.186-.384.27-.623.4L.67 9.256c.035.39.453.409.503.674a1.2 1.2 0 0 1 .018.188l9.126-4.371V3.04C9.418 1.238 7.579 0 5.45 0zM.182 3.454S.01 3.89.01 5.47c0 1.053-.104 2.803.363 3.273l2.72-1.478c.255-.14.414-.225.468-.281.055-.056.08-.091.08-.33V4.397c0-.386-.296-.651-.718-.69zm10.136 2.514l-9.12 4.368a.565.565 0 0 0 .144.381l8.976-4.299zM14.08 18.56a4.323 4.323 0 0 0-4.324 4.324c0 2.387 4.324 7.393 4.324 7.393s4.323-5.006 4.323-7.393a4.323 4.323 0 0 0-4.323-4.324zm0 1.418a2.858 2.858 0 0 1 2.858 2.858 2.858 2.858 0 0 1-2.858 2.859 2.858 2.858 0 0 1-2.859-2.859 2.858 2.858 0 0 1 2.859-2.858zM19.657 5.368a1.136 1.136 0 0 1-1.136 1.136 1.136 1.136 0 0 1-1.136-1.136 1.136 1.136 0 0 1 1.136-1.136 1.136 1.136 0 0 1 1.136 1.136zM14.18.99v3.475l.981-.982 1.276 1.275a2.172 2.172 0 0 1 1.532-1.49l-1.296-1.297.982-.981zm5.205 0l.982.982L19.07 3.27a2.172 2.172 0 0 1 1.533 1.49l1.275-1.276.982.981V.991zm1.233 4.926a2.172 2.172 0 0 1-1.49 1.534l1.238 1.238-.98.982h3.474V6.196l-.982.981zm-4.197.002l-1.26 1.26-.981-.983v3.475h3.474l-.98-.981 1.238-1.238a2.172 2.172 0 0 1-1.491-1.533zM23.863 20.348a.432.432 0 0 0-.379.223l-5.162 8.993c-.286.5.462.93.75.432l1.976-3.442c.081.21.19.403.323.579.387.508.945.892 1.518 1.268.573.375 1.164.743 1.63 1.187.467.445.808.954.917 1.644l.097.617 3.327-5.334-.018-.089c-.298-1.581-1.64-2.37-2.8-3.107-.581-.369-1.123-.73-1.497-1.153a2.117 2.117 0 0 1-.484-.86l.174-.303a.433.433 0 0 0-.372-.655zm.335 2.128c.31.35.696.64 1.103.915-.151.355-.335.723-.525 1.082-.377-.224-.618-.426-.954-.794a2.094 2.094 0 0 1-.103-.12l-.025-.035c.157-.301.346-.77.504-1.048zm-1.005.34l.014.025.052.111c.093.179.3.395.433.577-.195.373-.36.733-.589 1.148-.132-.177-.324-.436-.424-.601l-.059-.102c-.016-.025-.033-.048-.05-.072zm3.326 1.368c.447.303.863.624 1.19 1.006-.229.375-.459.755-.661 1.097.256.368.468.777.7 1.132l-.718 1.151c-.244-.314-.459-.691-.71-1.04-.217.375-.442.763-.627 1.093a4.154 4.154 0 0 0-.376-.463 4.775 4.775 0 0 0-.655-.61 111 111 0 0 0 .639-1.11c.23.188.439.387.645.625l.085.094c.101.116.197.24.29.37.212-.365.483-.829.727-1.242a4.066 4.066 0 0 0-.384-.474 4.197 4.197 0 0 0-.678-.603c.176-.323.356-.671.533-1.026zm-1.743.29c.127.075.253.146.378.217l.013.009c.28.163.551.318.819.51-.225.416-.472.853-.685 1.23-.254-.21-.51-.385-.776-.572l-.014-.01c-.119-.081-.238-.162-.36-.248.207-.367.435-.778.625-1.136zm-1.675.207l.025.033c.032.04.066.08.1.119.326.366.56.53.92.785-.2.357-.442.785-.652 1.145.123.081.244.157.365.234l.013.01c.271.176.532.344.79.544-.192.328-.448.741-.642 1.043-.291-.206-.59-.396-.875-.583a18.917 18.917 0 0 1-.296-.2c.222-.338.439-.696.64-1.04-.365-.24-.599-.349-.93-.704a2.426 2.426 0 0 1-.102-.117c-.01-.011-.018-.022-.026-.033.258-.449.441-.82.67-1.236zm-1.212.408l.046.075.055.106c.097.17.304.475.439.65-.189.326-.396.682-.592 1.046-.032-.038-.065-.075-.095-.114a1.732 1.732 0 0 1-.364-.873zm3.804 3.534c.239.34.437.716.653 1.044l-.678 1.087c-.135-.409-.296-.804-.524-1.137.152-.297.373-.68.549-.994z" paint-order="fill markers stroke"></path>
  </g>
</svg>