<svg xmlns="http://www.w3.org/2000/svg" viewBox="0 0 10.318 10.717">
  <path fill="#ff7800" d="M5.43.243c-.14 0-.27.075-.337.197L.5 8.442c-.254.444.41.827.668.384l1.757-3.063c.072.187.169.36.288.516.344.452.84.793 1.35 1.127.51.334 1.035.661 1.45 1.057.415.395.72.848.816 1.462l.086.55 2.96-4.746-.016-.08C9.594 4.244 8.4 3.542 7.367 2.886c-.516-.327-.998-.649-1.33-1.025a1.883 1.883 0 0 1-.431-.766l.154-.27a.385.385 0 0 0-.33-.581zm.297 1.892c.276.312.62.57.982.814-.135.316-.298.644-.468.963a3.371 3.371 0 0 1-.94-.813l-.022-.031c.14-.268.308-.685.448-.933zm-.893.304l.012.022.046.098c.083.16.266.352.385.513-.173.332-.32.652-.524 1.022-.117-.158-.288-.388-.377-.535a6.265 6.265 0 0 0-.052-.09l-.044-.065zm2.958 1.216c.398.27.768.555 1.059.895-.203.334-.408.672-.588.976.228.327.416.692.622 1.007l-.638 1.024c-.217-.28-.408-.615-.631-.926-.194.334-.394.68-.559.973a3.695 3.695 0 0 0-.334-.412 4.248 4.248 0 0 0-.583-.542c.172-.294.384-.663.569-.988.204.167.39.345.573.556l.076.084c.09.103.175.214.258.33.189-.326.43-.739.647-1.106a3.619 3.619 0 0 0-.342-.422 3.734 3.734 0 0 0-.603-.536c.156-.288.317-.597.474-.913zm-1.55.258c.113.067.224.13.336.193l.012.008c.25.145.49.283.728.455-.2.368-.42.758-.61 1.092-.225-.185-.452-.342-.69-.508l-.012-.009c-.106-.072-.212-.144-.32-.22.184-.327.386-.692.555-1.011zm-1.49.184l.022.03c.029.036.058.071.089.105.29.326.498.472.819.699-.178.317-.394.698-.581 1.018.11.072.217.14.325.209l.012.008c.24.157.473.306.702.484-.17.292-.399.66-.57.928-.26-.183-.525-.352-.78-.519-.09-.059-.176-.118-.262-.177.197-.301.39-.62.569-.926-.325-.213-.533-.31-.828-.626a2.201 2.201 0 0 1-.09-.104l-.024-.03c.23-.398.393-.73.596-1.099zm-1.079.363l.04.067.05.094c.087.152.27.423.39.578-.167.29-.351.607-.526.93a1.541 1.541 0 0 1-.409-.878zm3.384 3.144c.213.302.39.637.581.929l-.603.967c-.12-.364-.263-.715-.466-1.012.135-.264.332-.605.488-.884z" paint-order="fill markers stroke"></path>
</svg>