<svg xmlns="http://www.w3.org/2000/svg" xmlns:xlink="http://www.w3.org/1999/xlink" width="591.657" height="379.995"><defs><linearGradient id="c"><stop offset="0" stop-color="#cfd6e8" stop-opacity=".984"/><stop offset="1" stop-color="#ced6e5" stop-opacity=".388"/></linearGradient><linearGradient id="a"><stop offset="0" stop-color="#d0d7eb" stop-opacity=".984"/><stop offset="1" stop-color="#cfd6e8" stop-opacity=".392"/></linearGradient><linearGradient id="b"><stop offset="0" stop-color="#cfd5e6" stop-opacity=".788"/><stop offset="1" stop-color="#cfd6e2" stop-opacity=".314"/></linearGradient><linearGradient xlink:href="#a" id="d" gradientUnits="userSpaceOnUse" x1="1.561" y1="2.242" x2="264.572" y2="210.215" gradientTransform="translate(-.343 -1.005)"/><linearGradient xlink:href="#b" id="e" gradientUnits="userSpaceOnUse" x1="1.561" y1="2.242" x2="264.572" y2="210.215" gradientTransform="translate(320.553 163.882)"/><linearGradient xlink:href="#c" id="f" gradientUnits="userSpaceOnUse" x1="1.561" y1="2.242" x2="264.572" y2="210.215" gradientTransform="translate(150.105 103.439)"/></defs><path d="M161.641 0a2.925 4.105 27.053 00-3.402 2.561 2.925 4.105 27.053 00-.541 1.67L99.04 25.897a2.925 4.105 27.053 00-1.3-2.037 2.925 4.105 27.053 00-4.472 2.326 2.925 4.105 27.053 00-.18.395l-31.908-4.9a2.925 4.105 27.053 00-1.26-3.442 2.925 4.105 27.053 00-4.472 2.326 2.925 4.105 27.053 00-.568 1.864L6.36 39.999a2.925 4.105 27.053 00-1.289-1.984 2.925 4.105 27.053 00-4.47 2.326 2.925 4.105 27.053 00.736 4.986 2.925 4.105 27.053 001.588.164l2.062 61.33a2.925 4.105 27.053 00-1.838 2.055 2.925 4.105 27.053 00.738 4.986 2.925 4.105 27.053 003.838-1.35l35.989 34.944a2.925 4.105 27.053 00-.163.293 2.925 4.105 27.053 00.739 4.986 2.925 4.105 27.053 004.472-2.326 2.925 4.105 27.053 00.254-.576l48.817 2.936a2.925 4.105 27.053 001.318 2.248 2.925 4.105 27.053 002.108-.002l3.521 52.794a2.925 4.105 27.053 00-1.875 2.079 2.925 4.105 27.053 00.738 4.986 2.925 4.105 27.053 004.471-2.326 2.925 4.105 27.053 00.564-1.807l47.217-30.547a2.925 4.105 27.053 001.176 1.496 2.925 4.105 27.053 004.473-2.326 2.925 4.105 27.053 00.254-3.953l45.191-42.115a2.925 4.105 27.053 00.701.576 2.925 4.105 27.053 004.473-2.324 2.925 4.105 27.053 00.377-.942l51.836-1.925a2.925 4.105 27.053 001.312 3.037 2.925 4.105 27.053 004.473-2.327 2.925 4.105 27.053 00-.738-4.986 2.925 4.105 27.053 00-1.68-.146l-5.328-64.676a2.925 4.105 27.053 003.158-2.537 2.925 4.105 27.053 00-.738-4.987 2.925 4.105 27.053 00-4.473 2.325 2.925 4.105 27.053 00-.33.799l-40.36 10.267a2.925 4.105 27.053 00-1.326-2.34 2.925 4.105 27.053 00-1.716-.136l1.47-54.891a2.925 4.105 27.053 002.086-2.195A2.925 4.105 27.053 00219.448.9a2.925 4.105 27.053 00-4.473 2.324 2.925 4.105 27.053 00-.314.749l-50.625-.825a2.925 4.105 27.053 00-1.324-2.914 2.925 4.105 27.053 00-1.07-.234zm2.225 4.147l50.557.825a2.925 4.105 27.053 00.189 1.955l-36.746 37.101a2.925 4.105 27.053 00-.594-.457 2.925 4.105 27.053 00-2.496.192L162.4 6.653a2.925 4.105 27.053 001.05-1.431 2.925 4.105 27.053 00.417-1.075zm-6.207 1.164a2.925 4.105 27.053 00.932 1.973l-35.938 77.387a2.925 4.105 27.053 00-2.455.597l-22.58-55.181a2.925 4.105 27.053 00.861-1.24 2.925 4.105 27.053 00.57-1.887zm3.904 1.993l12.367 37.084a2.925 4.105 27.053 00-1.13 1.507 2.925 4.105 27.053 00-.534 3.1l-48.21 36.834a2.925 4.105 27.053 00-.522-.684l35.955-77.418a2.925 4.105 27.053 002.074-.423zm53.596.492a2.925 4.105 27.053 00.555.418 2.925 4.105 27.053 001.378.205l-1.474 55.023a2.925 4.105 27.053 00-1.684 1.885L178.24 48.042a2.925 4.105 27.053 00.158-3.127zM60.91 22.65l31.873 4.895a2.925 4.105 27.053 00.053 2.146l-41.01 36.141a2.925 4.105 27.053 00-.574-.438 2.925 4.105 27.053 00-.827-.224l7.461-39.479a2.925 4.105 27.053 002.772-2.465 2.925 4.105 27.053 00.252-.576zm-6.028.838a2.925 4.105 27.053 001.303 2.063 2.925 4.105 27.053 00.672.207L49.382 65.31a2.925 4.105 27.053 00-2.168 1.696L5.974 42.642a2.925 4.105 27.053 00.411-1.588zm38.43 7.115a2.925 4.105 27.053 00.694.569 2.925 4.105 27.053 00.322.127l-22.34 71.164a2.925 4.105 27.053 00-2.031.89L51.335 71.386a2.925 4.105 27.053 00.656-1.004 2.925 4.105 27.053 00.37-3.688zm3.506.178l22.59 55.205a2.925 4.105 27.053 00-.799 1.168 2.925 4.105 27.053 00-.598 2.418L74.44 104.886a2.925 4.105 27.053 00-1.314-2.196 2.925 4.105 27.053 00-.139-.06l22.367-71.248a2.925 4.105 27.053 001.465-.6zM5.503 43.524L46.71 67.87a2.925 4.105 27.053 00-.45 3.02L7.99 106.796a2.925 4.105 27.053 00-.367-.246 2.925 4.105 27.053 00-1.649-.15L3.911 45.09a2.925 4.105 27.053 001.592-1.566zm172.29 5.416l35.745 17.309a2.925 4.105 27.053 00-.172 2.426l-49.256 45.619a2.925 4.105 27.053 00-.637-.504 2.925 4.105 27.053 00-.838-.225l12.516-62.523a2.925 4.105 27.053 002.643-2.102zm-5.173 1.045a2.925 4.105 27.053 00.918.897 2.925 4.105 27.053 00.588.193l-12.541 62.637a2.925 4.105 27.053 00-2.237 1.818l-35.705-25.398a2.925 4.105 27.053 00.176-.315 2.925 4.105 27.053 00.555-2.974zm87.172 6.291a2.925 4.105 27.053 00-.02.735l-48.303 69.576a2.925 4.105 27.053 00-.044-.028 2.925 4.105 27.053 00-.967-.228l5.691-55.734a2.925 4.105 27.053 002.936-2.5 2.925 4.105 27.053 00.527-1.598zm.299 2.028a2.925 4.105 27.053 001.01 1.068 2.925 4.105 27.053 00.304.121l5.371 65.19a2.925 4.105 27.053 00-1.824 2.046 2.925 4.105 27.053 00-.379.942l-51.836 1.928a2.925 4.105 27.053 00-.521-2.338zm-46.315 11.355a2.925 4.105 27.053 00.836.764 2.925 4.105 27.053 00.53.181l-5.712 55.913a2.925 4.105 27.053 00-2.478 2.369 2.925 4.105 27.053 00-.055.115l-42.326-11.113a2.925 4.105 27.053 00.047-2.705zM46.647 71.895a2.925 4.105 27.053 00.871.813 2.925 4.105 27.053 003.082-.592l18.637 31.99a2.925 4.105 27.053 00-.584.91 2.925 4.105 27.053 00-.44 1.172l-59.257 2.885a2.925 4.105 27.053 00-.344-1.49zm71.506 18.688a2.925 4.105 27.053 001.193 1.559 2.925 4.105 27.053 00.22.095l-18.54 55.38a2.925 4.105 27.053 00-2.16 1.677l-25.674-40.592a2.925 4.105 27.053 00.672-1.025 2.925 4.105 27.053 00.55-1.725zm4.904.36l35.805 25.47a2.925 4.105 27.053 00-.457 2.203l-54.395 30.432a2.925 4.105 27.053 00-1.125-1.344 2.925 4.105 27.053 00-.76-.223l18.452-55.119a2.925 4.105 27.053 002.48-1.42zm-55 16.253a2.925 4.105 27.053 00.797 2.408L47.85 145.347a2.925 4.105 27.053 00-3.549 1.289L8.288 111.665a2.925 4.105 27.053 00.07-.129 2.925 4.105 27.053 00.508-1.459zm4.407 2.223l25.836 40.85a2.925 4.105 27.053 00-.44 1.5l-48.572-2.922a2.925 4.105 27.053 00-.621-2.916l21.039-35.803a2.925 4.105 27.053 002.758-.71zm91.722 9.402l42.354 11.121a2.925 4.105 27.053 00-.028 2.428l-45.337 42.256a2.925 4.105 27.053 00-.37-.248 2.925 4.105 27.053 00-2.005-.041l2.832-53.158a2.925 4.105 27.053 002.554-2.358zm-5.605.84a2.925 4.105 27.053 001.158 1.441 2.925 4.105 27.053 00.885.227l-2.86 53.606a2.925 4.105 27.053 00-1.43 1.769 2.925 4.105 27.053 00-.076.158l-53.765-22.664a2.925 4.105 27.053 001.13-1.508 2.925 4.105 27.053 00.593-2.613zm-56.307 35.53l53.637 22.61a2.925 4.105 27.053 00-.174 1.305l-47.07 30.454a2.925 4.105 27.053 00-1.29-1.999 2.925 4.105 27.053 00-1.62-.156z" fill="url(#d)"/><path d="M482.538 164.888a2.925 4.105 27.053 00-3.403 2.56 2.925 4.105 27.053 00-.54 1.67l-58.66 21.667a2.925 4.105 27.053 00-1.298-2.037 2.925 4.105 27.053 00-4.473 2.326 2.925 4.105 27.053 00-.18.394l-31.907-4.9a2.925 4.105 27.053 00-1.26-3.441 2.925 4.105 27.053 00-4.473 2.326 2.925 4.105 27.053 00-.568 1.863l-48.52 17.57a2.925 4.105 27.053 00-1.289-1.984 2.925 4.105 27.053 00-4.47 2.326 2.925 4.105 27.053 00.736 4.986 2.925 4.105 27.053 001.588.164l2.062 61.33a2.925 4.105 27.053 00-1.838 2.055 2.925 4.105 27.053 00.739 4.987 2.925 4.105 27.053 003.837-1.35l35.989 34.943a2.925 4.105 27.053 00-.162.293 2.925 4.105 27.053 00.738 4.987 2.925 4.105 27.053 004.473-2.327 2.925 4.105 27.053 00.253-.576l48.817 2.936a2.925 4.105 27.053 001.318 2.248 2.925 4.105 27.053 002.108-.002l3.521 52.795a2.925 4.105 27.053 00-1.875 2.078 2.925 4.105 27.053 00.738 4.986 2.925 4.105 27.053 004.471-2.326 2.925 4.105 27.053 00.565-1.807l47.216-30.546a2.925 4.105 27.053 001.176 1.496 2.925 4.105 27.053 004.473-2.327 2.925 4.105 27.053 00.254-3.953l45.191-42.115a2.925 4.105 27.053 00.701.576 2.925 4.105 27.053 004.473-2.324 2.925 4.105 27.053 00.377-.941l51.836-1.926a2.925 4.105 27.053 001.312 3.037 2.925 4.105 27.053 004.473-2.326 2.925 4.105 27.053 00-.738-4.987 2.925 4.105 27.053 00-1.68-.146l-5.328-64.676a2.925 4.105 27.053 003.158-2.537 2.925 4.105 27.053 00-.738-4.986 2.925 4.105 27.053 00-4.473 2.324 2.925 4.105 27.053 00-.33.799l-40.36 10.267a2.925 4.105 27.053 00-1.325-2.34 2.925 4.105 27.053 00-1.717-.136l1.47-54.89a2.925 4.105 27.053 002.086-2.196 2.925 4.105 27.053 00-.738-4.986 2.925 4.105 27.053 00-4.473 2.324 2.925 4.105 27.053 00-.314.748l-50.625-.824a2.925 4.105 27.053 00-1.324-2.914 2.925 4.105 27.053 00-1.07-.235zm2.224 4.147l50.557.824a2.925 4.105 27.053 00.19 1.955l-36.747 37.102a2.925 4.105 27.053 00-.594-.457 2.925 4.105 27.053 00-2.496.191l-12.377-37.11a2.925 4.105 27.053 001.051-1.431 2.925 4.105 27.053 00.416-1.074zm-6.207 1.164a2.925 4.105 27.053 00.932 1.972l-35.938 77.387a2.925 4.105 27.053 00-2.455.598l-22.58-55.182a2.925 4.105 27.053 00.861-1.24 2.925 4.105 27.053 00.57-1.887zm3.904 1.992l12.368 37.084a2.925 4.105 27.053 00-1.131 1.508 2.925 4.105 27.053 00-.533 3.1l-48.211 36.833a2.925 4.105 27.053 00-.522-.683l35.955-77.418a2.925 4.105 27.053 002.074-.424zm53.596.492a2.925 4.105 27.053 00.555.418 2.925 4.105 27.053 001.379.205l-1.475 55.024a2.925 4.105 27.053 00-1.684 1.884l-35.695-17.285a2.925 4.105 27.053 00.158-3.127zM381.807 187.54l31.873 4.894a2.925 4.105 27.053 00.053 2.147l-41.01 36.14a2.925 4.105 27.053 00-.574-.437 2.925 4.105 27.053 00-.826-.225l7.46-39.478a2.925 4.105 27.053 002.772-2.465 2.925 4.105 27.053 00.252-.576zm-6.027.838a2.925 4.105 27.053 001.302 2.062 2.925 4.105 27.053 00.672.207l-7.476 39.553a2.925 4.105 27.053 00-2.168 1.695l-41.24-24.365a2.925 4.105 27.053 00.412-1.588zm38.43 7.115a2.925 4.105 27.053 00.693.568 2.925 4.105 27.053 00.322.127l-22.34 71.164a2.925 4.105 27.053 00-2.031.89l-18.623-31.968a2.925 4.105 27.053 00.656-1.004 2.925 4.105 27.053 00.37-3.687zm3.505.177l22.59 55.206a2.925 4.105 27.053 00-.799 1.168 2.925 4.105 27.053 00-.597 2.418l-43.573 15.312a2.925 4.105 27.053 00-1.314-2.195 2.925 4.105 27.053 00-.139-.06l22.367-71.249a2.925 4.105 27.053 001.465-.6zM326.4 208.412l41.207 24.345a2.925 4.105 27.053 00-.45 3.02l-38.27 35.906a2.925 4.105 27.053 00-.368-.246 2.925 4.105 27.053 00-1.648-.15l-2.063-61.309a2.925 4.105 27.053 001.592-1.566zm172.29 5.416l35.745 17.308a2.925 4.105 27.053 00-.172 2.426l-49.256 45.62a2.925 4.105 27.053 00-.636-.505 2.925 4.105 27.053 00-.838-.224l12.515-62.524a2.925 4.105 27.053 002.643-2.101zm-5.173 1.045a2.925 4.105 27.053 00.918.896 2.925 4.105 27.053 00.588.193L482.48 278.6a2.925 4.105 27.053 00-2.236 1.819l-35.706-25.399a2.925 4.105 27.053 00.176-.314 2.925 4.105 27.053 00.555-2.975zm87.172 6.29a2.925 4.105 27.053 00-.02.735l-48.302 69.576a2.925 4.105 27.053 00-.045-.027 2.925 4.105 27.053 00-.967-.229l5.691-55.734a2.925 4.105 27.053 002.936-2.5 2.925 4.105 27.053 00.527-1.598zm.299 2.028a2.925 4.105 27.053 001.01 1.068 2.925 4.105 27.053 00.304.121l5.371 65.19a2.925 4.105 27.053 00-1.824 2.047 2.925 4.105 27.053 00-.379.941l-51.836 1.928a2.925 4.105 27.053 00-.521-2.338zm-46.315 11.355a2.925 4.105 27.053 00.836.764 2.925 4.105 27.053 00.53.182l-5.711 55.912a2.925 4.105 27.053 00-2.479 2.369 2.925 4.105 27.053 00-.055.115l-42.326-11.113a2.925 4.105 27.053 00.047-2.705zm-167.129 2.237a2.925 4.105 27.053 00.871.812 2.925 4.105 27.053 003.082-.592l18.637 31.99a2.925 4.105 27.053 00-.584.91 2.925 4.105 27.053 00-.44 1.173l-59.257 2.885a2.925 4.105 27.053 00-.344-1.49zm71.506 18.687a2.925 4.105 27.053 001.194 1.559 2.925 4.105 27.053 00.218.096l-18.539 55.378a2.925 4.105 27.053 00-2.16 1.678l-25.674-40.592a2.925 4.105 27.053 00.672-1.025 2.925 4.105 27.053 00.55-1.725zm4.905.36l35.804 25.47a2.925 4.105 27.053 00-.457 2.203l-54.394 30.432a2.925 4.105 27.053 00-1.125-1.344 2.925 4.105 27.053 00-.76-.222l18.451-55.12a2.925 4.105 27.053 002.48-1.42zm-55 16.254a2.925 4.105 27.053 00.796 2.408l-21.004 35.742a2.925 4.105 27.053 00-3.548 1.289l-36.014-34.97a2.925 4.105 27.053 00.07-.13 2.925 4.105 27.053 00.508-1.459zm4.406 2.222l25.836 40.85a2.925 4.105 27.053 00-.44 1.5l-48.572-2.922a2.925 4.105 27.053 00-.621-2.916l21.039-35.803a2.925 4.105 27.053 002.758-.709zm91.722 9.403l42.354 11.12a2.925 4.105 27.053 00-.027 2.428l-45.338 42.256a2.925 4.105 27.053 00-.37-.248 2.925 4.105 27.053 00-2.005-.04l2.832-53.159a2.925 4.105 27.053 002.554-2.357zm-5.605.84a2.925 4.105 27.053 001.158 1.44 2.925 4.105 27.053 00.885.227l-2.86 53.606a2.925 4.105 27.053 00-1.43 1.77 2.925 4.105 27.053 00-.075.158l-53.766-22.664a2.925 4.105 27.053 001.13-1.508 2.925 4.105 27.053 00.593-2.614zm-56.307 35.529l53.637 22.611a2.925 4.105 27.053 00-.174 1.305l-47.07 30.453a2.925 4.105 27.053 00-1.29-1.998 2.925 4.105 27.053 00-1.62-.156z" fill="url(#e)"/><path d="M312.09 104.445a2.925 4.105 27.053 00-3.403 2.56 2.925 4.105 27.053 00-.54 1.67l-58.66 21.666a2.925 4.105 27.053 00-1.298-2.037 2.925 4.105 27.053 00-4.473 2.326 2.925 4.105 27.053 00-.18.395l-31.908-4.9a2.925 4.105 27.053 00-1.26-3.442 2.925 4.105 27.053 00-4.472 2.326 2.925 4.105 27.053 00-.568 1.863l-48.52 17.57a2.925 4.105 27.053 00-1.289-1.984 2.925 4.105 27.053 00-4.47 2.326 2.925 4.105 27.053 00.736 4.987 2.925 4.105 27.053 001.588.164l2.062 61.33a2.925 4.105 27.053 00-1.838 2.055 2.925 4.105 27.053 00.738 4.986 2.925 4.105 27.053 003.838-1.35l35.989 34.944a2.925 4.105 27.053 00-.162.293 2.925 4.105 27.053 00.738 4.986 2.925 4.105 27.053 004.472-2.326 2.925 4.105 27.053 00.254-.576l48.817 2.935a2.925 4.105 27.053 001.318 2.248 2.925 4.105 27.053 002.108-.002l3.521 52.795a2.925 4.105 27.053 00-1.875 2.078 2.925 4.105 27.053 00.738 4.987 2.925 4.105 27.053 004.471-2.327 2.925 4.105 27.053 00.565-1.806l47.216-30.547a2.925 4.105 27.053 001.176 1.496 2.925 4.105 27.053 004.473-2.326 2.925 4.105 27.053 00.254-3.953l45.191-42.116a2.925 4.105 27.053 00.701.577 2.925 4.105 27.053 004.473-2.325 2.925 4.105 27.053 00.377-.941l51.836-1.926a2.925 4.105 27.053 001.312 3.037 2.925 4.105 27.053 004.473-2.326 2.925 4.105 27.053 00-.738-4.986 2.925 4.105 27.053 00-1.68-.147l-5.328-64.675a2.925 4.105 27.053 003.158-2.538 2.925 4.105 27.053 00-.738-4.986 2.925 4.105 27.053 00-4.473 2.324 2.925 4.105 27.053 00-.33.8l-40.36 10.267a2.925 4.105 27.053 00-1.326-2.34 2.925 4.105 27.053 00-1.716-.137l1.47-54.89a2.925 4.105 27.053 002.086-2.196 2.925 4.105 27.053 00-.738-4.986 2.925 4.105 27.053 00-4.473 2.324 2.925 4.105 27.053 00-.314.748l-50.625-.824a2.925 4.105 27.053 00-1.324-2.914 2.925 4.105 27.053 00-1.07-.234zm2.224 4.146l50.557.824a2.925 4.105 27.053 00.19 1.955l-36.747 37.102a2.925 4.105 27.053 00-.594-.457 2.925 4.105 27.053 00-2.496.191l-12.377-37.11a2.925 4.105 27.053 001.051-1.43 2.925 4.105 27.053 00.416-1.075zm-6.207 1.164a2.925 4.105 27.053 00.932 1.973L273.1 189.115a2.925 4.105 27.053 00-2.455.597l-22.58-55.181a2.925 4.105 27.053 00.861-1.24 2.925 4.105 27.053 00.57-1.887zm3.904 1.992l12.367 37.084a2.925 4.105 27.053 00-1.13 1.508 2.925 4.105 27.053 00-.534 3.1l-48.21 36.834a2.925 4.105 27.053 00-.522-.684l35.955-77.418a2.925 4.105 27.053 002.074-.424zm53.596.492a2.925 4.105 27.053 00.555.418 2.925 4.105 27.053 001.379.206l-1.475 55.023a2.925 4.105 27.053 00-1.684 1.885l-35.695-17.285a2.925 4.105 27.053 00.158-3.127zm-154.248 14.856l31.873 4.894a2.925 4.105 27.053 00.053 2.147l-41.01 36.14a2.925 4.105 27.053 00-.574-.437 2.925 4.105 27.053 00-.826-.224l7.46-39.479a2.925 4.105 27.053 002.772-2.465 2.925 4.105 27.053 00.252-.576zm-6.027.838a2.925 4.105 27.053 001.302 2.062 2.925 4.105 27.053 00.672.207l-7.476 39.553a2.925 4.105 27.053 00-2.168 1.695l-41.24-24.365a2.925 4.105 27.053 00.412-1.588zm38.43 7.115a2.925 4.105 27.053 00.693.568 2.925 4.105 27.053 00.322.127l-22.34 71.164a2.925 4.105 27.053 00-2.031.891l-18.623-31.969a2.925 4.105 27.053 00.656-1.004 2.925 4.105 27.053 00.37-3.687zm3.505.178l22.59 55.205a2.925 4.105 27.053 00-.799 1.168 2.925 4.105 27.053 00-.597 2.418l-43.573 15.312a2.925 4.105 27.053 00-1.314-2.195 2.925 4.105 27.053 00-.139-.06l22.367-71.249a2.925 4.105 27.053 001.465-.6zm-91.316 12.742l41.207 24.346a2.925 4.105 27.053 00-.45 3.02l-38.27 35.905a2.925 4.105 27.053 00-.368-.246 2.925 4.105 27.053 00-1.649-.15l-2.062-61.309a2.925 4.105 27.053 001.592-1.566zm172.29 5.416l35.745 17.309a2.925 4.105 27.053 00-.172 2.425l-49.256 45.62a2.925 4.105 27.053 00-.637-.504 2.925 4.105 27.053 00-.837-.225l12.515-62.523a2.925 4.105 27.053 002.643-2.102zm-5.173 1.045a2.925 4.105 27.053 00.918.896 2.925 4.105 27.053 00.588.194l-12.541 62.637a2.925 4.105 27.053 00-2.237 1.818l-35.705-25.399a2.925 4.105 27.053 00.176-.314 2.925 4.105 27.053 00.555-2.975zm87.172 6.291a2.925 4.105 27.053 00-.02.734l-48.302 69.577a2.925 4.105 27.053 00-.045-.028 2.925 4.105 27.053 00-.967-.228l5.691-55.735a2.925 4.105 27.053 002.936-2.5 2.925 4.105 27.053 00.527-1.597zm.299 2.027a2.925 4.105 27.053 001.01 1.069 2.925 4.105 27.053 00.304.12l5.371 65.19a2.925 4.105 27.053 00-1.824 2.047 2.925 4.105 27.053 00-.379.942l-51.836 1.927a2.925 4.105 27.053 00-.521-2.338zm-46.315 11.356a2.925 4.105 27.053 00.836.763 2.925 4.105 27.053 00.53.182l-5.712 55.912a2.925 4.105 27.053 00-2.478 2.37 2.925 4.105 27.053 00-.055.115L315.02 222.33a2.925 4.105 27.053 00.047-2.705zm-167.129 2.236a2.925 4.105 27.053 00.871.813 2.925 4.105 27.053 003.082-.592l18.637 31.99a2.925 4.105 27.053 00-.584.91 2.925 4.105 27.053 00-.44 1.172l-59.257 2.885a2.925 4.105 27.053 00-.344-1.49zm71.506 18.688a2.925 4.105 27.053 001.193 1.558 2.925 4.105 27.053 00.22.096l-18.54 55.379a2.925 4.105 27.053 00-2.16 1.678l-25.674-40.592a2.925 4.105 27.053 00.672-1.026 2.925 4.105 27.053 00.55-1.724zm4.904.359l35.805 25.47a2.925 4.105 27.053 00-.457 2.204l-54.393 30.43a2.925 4.105 27.053 00-1.125-1.343 2.925 4.105 27.053 00-.76-.223l18.451-55.12a2.925 4.105 27.053 002.48-1.419zm-55 16.254a2.925 4.105 27.053 00.797 2.408l-21.004 35.742a2.925 4.105 27.053 00-3.548 1.29l-36.014-34.971a2.925 4.105 27.053 00.07-.13 2.925 4.105 27.053 00.508-1.458zm4.407 2.223l25.836 40.85a2.925 4.105 27.053 00-.44 1.5l-48.572-2.923a2.925 4.105 27.053 00-.621-2.916l21.039-35.802a2.925 4.105 27.053 002.758-.71zm91.722 9.402l42.354 11.121a2.925 4.105 27.053 00-.027 2.428l-45.338 42.256a2.925 4.105 27.053 00-.37-.248 2.925 4.105 27.053 00-2.005-.041l2.832-53.159a2.925 4.105 27.053 002.554-2.357zm-5.605.84a2.925 4.105 27.053 001.158 1.441 2.925 4.105 27.053 00.885.227l-2.86 53.605a2.925 4.105 27.053 00-1.43 1.77 2.925 4.105 27.053 00-.075.158l-53.766-22.664a2.925 4.105 27.053 001.13-1.508 2.925 4.105 27.053 00.593-2.613zm-56.307 35.529l53.637 22.611a2.925 4.105 27.053 00-.174 1.305l-47.07 30.453a2.925 4.105 27.053 00-1.29-1.998 2.925 4.105 27.053 00-1.62-.156z" fill="url(#f)"/></svg>