<svg xmlns="http://www.w3.org/2000/svg" viewBox="0 0 100 100">
  <g transform="translate(0 -270.542)">
    <path fill="#e6e6e6" d="M74.324 318.642l5.182 3.38c.288.188.412.566.412.939v2.071c0 .705-.568 1.272-1.272 1.272H47.215a1.269 1.269 0 0 1-1.272-1.272v-2.071c0-.373.124-.751.412-.94l5.182-3.379c1.642 1.344 3.376 1.402 5.217 0l5.977 3.38c.288.188.412.566.412.939v1.07h.37v-1.07c0-.373.124-.751.412-.94l5.182-3.379c1.792 1.555 3.518 1.181 5.217 0z" paint-order="fill markers stroke"></path>
    <path fill="#444445" d="M69.176 317.648l-5.686 3.707c-.08.053-.096.137-.162.198-.065-.061-.082-.145-.162-.198l-.021-.013-6.456-3.649-.418.317c-.82.624-1.533.872-2.193.867-.66-.006-1.318-.261-2.037-.85l-.451-.369-5.67 3.697c-.61.398-.772 1.057-.772 1.606v2.072a2.08 2.08 0 0 0 2.067 2.067h31.431a2.08 2.08 0 0 0 2.067-2.067v-2.072c0-.55-.164-1.208-.774-1.606l-5.628-3.671-.44.306c-.778.54-1.504.85-2.164.885-.66.035-1.303-.16-2.08-.834zm-12.428 1.905l5.549 3.134v.002c-.032-.02.05.077.05.272v1.865h1.962v-1.865c0-.196.084-.295.05-.273l4.774-3.114c.865.59 1.77.935 2.66.887.892-.048 1.711-.416 2.494-.893l4.783 3.12c-.033-.022.053.077.053.273v2.072a.459.459 0 0 1-.477.477H47.215a.459.459 0 0 1-.477-.477v-2.072c0-.196.085-.295.051-.273l4.77-3.112c.786.524 1.621.883 2.505.89.91.009 1.81-.352 2.684-.913z" color="#000" font-family="sans-serif" font-weight="400" overflow="visible" paint-order="fill markers stroke" style="line-height:normal;font-variant-ligatures:normal;font-variant-position:normal;font-variant-caps:normal;font-variant-numeric:normal;font-variant-alternates:normal;font-feature-settings:normal;text-indent:0;text-align:start;text-decoration-line:none;text-decoration-style:solid;text-decoration-color:#000;text-transform:none;text-orientation:mixed;shape-padding:0;isolation:auto;mix-blend-mode:normal" white-space="normal"></path>
    <path fill="#e6e6e6" d="M74.324 318.642l5.182 3.38c.288.188.412.566.412.939v2.071c0 .705-.568 1.272-1.272 1.272H47.215a1.269 1.269 0 0 1-1.272-1.272v-2.071c0-.373.124-.751.412-.94l5.182-3.379c1.642 1.344 3.376 1.402 5.217 0l5.977 3.38c.288.188.412.566.412.939v1.07h.37v-1.07c0-.373.124-.751.412-.94l5.182-3.379c1.792 1.555 3.518 1.181 5.217 0z" paint-order="fill markers stroke"></path>
    <path fill="#444445" d="M69.176 317.648l-5.686 3.707c-.08.053-.096.137-.162.198-.065-.061-.082-.145-.162-.198l-.021-.013-6.456-3.649-.418.317c-.82.624-1.533.872-2.193.867-.66-.006-1.318-.261-2.037-.85l-.451-.369-5.67 3.697c-.61.398-.772 1.057-.772 1.606v2.072a2.08 2.08 0 0 0 2.067 2.067h31.431a2.08 2.08 0 0 0 2.067-2.067v-2.072c0-.55-.164-1.208-.774-1.606l-5.628-3.671-.44.306c-.778.54-1.504.85-2.164.885-.66.035-1.303-.16-2.08-.834zm-12.428 1.905l5.549 3.134v.002c-.032-.02.05.077.05.272v1.865h1.962v-1.865c0-.196.084-.295.05-.273l4.774-3.114c.865.59 1.77.935 2.66.887.892-.048 1.711-.416 2.494-.893l4.783 3.12c-.033-.022.053.077.053.273v2.072a.459.459 0 0 1-.477.477H47.215a.459.459 0 0 1-.477-.477v-2.072c0-.196.085-.295.051-.273l4.77-3.112c.786.524 1.621.883 2.505.89.91.009 1.81-.352 2.684-.913z" color="#000" font-family="sans-serif" font-weight="400" overflow="visible" paint-order="fill markers stroke" style="line-height:normal;font-variant-ligatures:normal;font-variant-position:normal;font-variant-caps:normal;font-variant-numeric:normal;font-variant-alternates:normal;font-feature-settings:normal;text-indent:0;text-align:start;text-decoration-line:none;text-decoration-style:solid;text-decoration-color:#000;text-transform:none;text-orientation:mixed;shape-padding:0;isolation:auto;mix-blend-mode:normal" white-space="normal"></path>
    <path fill="#929292" stroke="#4a4a4b" stroke-linecap="round" stroke-width="1.59" d="M50.007 328.235l-5.347 5.34 15.034 15.029a1.447 3.776 45 0 0 3.695-1.646 1.447 3.776 45 0 0 1.646-3.695z" paint-order="fill markers stroke"></path>
    <path fill="#444445" d="M71.637 308.742c-1.218 0-2.523.21-3.524 1.125-1.002.916-1.556 2.433-1.556 4.67 0 1.39.473 2.816 1.336 3.947.862 1.132 2.173 1.977 3.746 1.977s2.883-.845 3.746-1.977a6.602 6.602 0 0 0 1.336-3.947c0-2.237-.555-3.753-1.557-4.67-1-.915-2.306-1.126-3.523-1.125zm.002 1.59h.002c1.033-.002 1.87.18 2.449.709.579.53 1.043 1.515 1.043 3.496a5.145 5.145 0 0 1-1.012 2.984c-.634.832-1.467 1.35-2.482 1.35-1.015 0-1.848-.518-2.483-1.35a5.142 5.142 0 0 1-1.01-2.984c0-1.98.463-2.966 1.042-3.496.579-.53 1.418-.71 2.45-.709zM54.067 308.74c-1.218-.002-2.519.214-3.52 1.13-1.003.917-1.56 2.427-1.56 4.664 0 1.39.473 2.817 1.336 3.95.863 1.131 2.171 1.974 3.744 1.974 1.573 0 2.888-.843 3.75-1.975a6.607 6.607 0 0 0 1.336-3.95c0-2.236-.557-3.746-1.559-4.663-1.002-.916-2.308-1.132-3.527-1.13zm0 1.59c1.033-.002 1.874.178 2.453.708.58.53 1.043 1.515 1.043 3.496a5.153 5.153 0 0 1-1.012 2.987c-.634.832-1.469 1.347-2.484 1.347s-1.85-.515-2.484-1.347a5.146 5.146 0 0 1-1.006-2.987c0-1.981.458-2.967 1.037-3.496.58-.53 1.42-.71 2.453-.708z" color="#000" font-family="sans-serif" font-weight="400" overflow="visible" paint-order="fill markers stroke" style="line-height:normal;font-variant-ligatures:normal;font-variant-position:normal;font-variant-caps:normal;font-variant-numeric:normal;font-variant-alternates:normal;font-feature-settings:normal;text-indent:0;text-align:start;text-decoration-line:none;text-decoration-style:solid;text-decoration-color:#000;text-transform:none;text-orientation:mixed;shape-padding:0;isolation:auto;mix-blend-mode:normal" white-space="normal"></path>
    <ellipse cx="34.501" cy="318.073" fill="#fff" paint-order="fill markers stroke" rx="18.48" ry="18.481"></ellipse>
    <path fill="#e6e6e6" d="M34.55 299.639a18.353 18.353 0 0 0-18.35 18.356 18.353 18.353 0 0 0 18.35 18.35 18.353 18.353 0 0 0 18.357-18.35A18.353 18.353 0 0 0 34.55 299.64zm0 2.98a15.373 15.373 0 0 1 15.376 15.376 15.373 15.373 0 0 1-15.375 15.37 15.373 15.373 0 0 1-15.37-15.37 15.373 15.373 0 0 1 15.37-15.375z" paint-order="fill markers stroke"></path>
    <path fill="#4f4f50" d="M34.556 298.649c-10.636 0-19.275 8.67-19.275 19.344 0 10.674 8.64 19.35 19.275 19.35 10.636 0 19.269-8.676 19.269-19.35 0-10.674-8.633-19.344-19.27-19.344zm0 1.59c9.773 0 17.68 7.936 17.68 17.754 0 9.818-7.907 17.76-17.68 17.76s-17.686-7.942-17.686-17.76c0-9.818 7.913-17.754 17.686-17.754z" color="#000" font-family="sans-serif" font-weight="400" overflow="visible" paint-order="fill markers stroke" style="line-height:normal;font-variant-ligatures:normal;font-variant-position:normal;font-variant-caps:normal;font-variant-numeric:normal;font-variant-alternates:normal;font-feature-settings:normal;text-indent:0;text-align:start;text-decoration-line:none;text-decoration-style:solid;text-decoration-color:#000;text-transform:none;text-orientation:mixed;shape-padding:0;isolation:auto;mix-blend-mode:normal" white-space="normal"></path>
    <path fill="#ff7800" d="M34.625 308.693c-2.252-.003-4.29.781-4.29 4.999 0 1.485.65 3.093 1.757 4.105l-5.18 3.378c-.287.188-.416.565-.416.938v2.074c0 .704.569 1.273 1.273 1.273h13.86c.705 0 1.274-.569 1.274-1.273v-2.074c0-.373-.128-.75-.416-.938l-5.409-3.316c1.15-1.008 1.832-2.65 1.832-4.167 0-4.218-2.033-5.002-4.285-4.999z" paint-order="fill markers stroke"></path>
  </g>
</svg>