<svg xmlns="http://www.w3.org/2000/svg" viewBox="0 0 100 100">
  <path fill="#e6e6e6" d="M55.366 46.274c-1.172 2.685-2.708.006-4.818 2.037-2.11 2.032.509 3.669-2.219 4.738-2.727 1.07-1.918-1.911-4.847-1.967-2.93-.056-2.234 2.954-4.92 1.781-2.684-1.172-.004-2.708-2.036-4.818-2.032-2.11-3.668.509-4.738-2.219-1.07-2.727 1.911-1.918 1.967-4.847.056-2.93-2.954-2.234-1.781-4.92 1.172-2.684 2.708-.004 4.818-2.036 2.111-2.032-.508-3.668 2.219-4.738 2.727-1.07 1.918 1.911 4.848 1.967 2.929.056 2.234-2.954 4.918-1.781 2.685 1.172.006 2.708 2.037 4.818 2.032 2.111 3.669-.509 4.738 2.219 1.07 2.727-1.911 1.918-1.967 4.848-.056 2.929 2.954 2.234 1.781 4.918z" paint-order="fill markers stroke"></path>
  <path fill="#fff" d="M46.085 41.167a2.415 2.415 0 0 1-2.415 2.415 2.415 2.415 0 0 1-2.415-2.415 2.415 2.415 0 0 1 2.415-2.415 2.415 2.415 0 0 1 2.415 2.415z" paint-order="fill markers stroke"></path>
  <path fill="#444445" d="M42.995 40.492h1.35v1.35h-1.35z" paint-order="fill markers stroke"></path>
  <path fill="#ff7800" d="M78.653 30.054l-19.99 2.882c1.576 2.143 2.355 5.098 2.385 9.016l3.453 8.315 14.102 2.074z" paint-order="fill markers stroke"></path>
  <path fill="#444445" d="M78.603 29.26a.795.795 0 0 0-.062.012l-36.917 5.315.118-.006c-1.452 0-2.733.817-3.602 2.018-.87 1.202-1.379 2.801-1.379 4.552 0 1.751.51 3.35 1.379 4.552.869 1.201 2.15 2.024 3.602 2.024l-.118-.012L78.49 53.13a.795.795 0 0 0 .112.012V51.54l-36.805-5.402h-.056c-.858 0-1.673-.476-2.317-1.366-.644-.89-1.074-2.18-1.074-3.62 0-1.441.43-2.73 1.074-3.621.644-.89 1.46-1.36 2.317-1.36h.056l36.805-5.303z" color="#000" font-family="sans-serif" font-weight="400" overflow="visible" paint-order="fill markers stroke" style="line-height:normal;font-variant-ligatures:normal;font-variant-position:normal;font-variant-caps:normal;font-variant-numeric:normal;font-variant-alternates:normal;font-feature-settings:normal;text-indent:0;text-align:start;text-decoration-line:none;text-decoration-style:solid;text-decoration-color:#000;text-transform:none;text-orientation:mixed;shape-padding:0;isolation:auto;mix-blend-mode:normal" white-space="normal"></path>
  <path fill="#444445" d="M67.247 40.492h1.35v1.35h-1.35zM70.625 40.492h1.35v1.35h-1.35zM74.004 40.492h1.35v1.35h-1.35z" paint-order="fill markers stroke"></path>
  <path fill="#444445" d="M40.79 23.581c-4.942.59-10.269 3.547-14.468 11.27-2.76 5.076-1.292 11.155.751 16.81 2.044 5.657 4.674 11.068 4.77 14.507v11.078h1.589V66.118c-.115-4.148-2.862-9.46-4.862-14.996-2-5.538-3.237-11.124-.851-15.513 5.355-9.85 12.042-11.227 17.58-10.345 5.538.882 9.824 4.198 9.824 4.198l.981-1.255s-4.536-3.555-10.557-4.514a17.248 17.248 0 0 0-4.756-.112zm19.872 30.174l-.105 8.24c-.102 2.781-1.91 4.339-3.757 4.365l-7.918-.08-.019 1.59 1.46.012v9.364h1.59V67.9l4.899.05h.012c2.744-.04 5.195-2.423 5.322-5.9v-.006l.08-6.7h3.08v-1.59z" color="#000" font-family="sans-serif" font-weight="400" overflow="visible" style="line-height:normal;font-variant-ligatures:normal;font-variant-position:normal;font-variant-caps:normal;font-variant-numeric:normal;font-variant-alternates:normal;font-feature-settings:normal;text-indent:0;text-align:start;text-decoration-line:none;text-decoration-style:solid;text-decoration-color:#000;text-transform:none;text-orientation:mixed;shape-padding:0;isolation:auto;mix-blend-mode:normal" white-space="normal"></path>
</svg>