<svg xmlns="http://www.w3.org/2000/svg" viewBox="0 0 100 100">
  <g transform="matrix(3.17943 0 0 3.17943 -35.63 -328.397)">
    <circle cx="27.018" cy="119.257" r="8.516" fill="#ff7800" paint-order="fill markers stroke"></circle>
    <path fill="#444445" d="M25.293 124.657l-.02.102-.478 2.45h-1.101v.5h6.642v-.5h-1.125l-.531-2.552zm.207.25h2.977l.478 2.303H25.05z" color="#000" font-family="sans-serif" font-weight="400" overflow="visible" style="line-height:normal;font-variant-ligatures:normal;font-variant-position:normal;font-variant-caps:normal;font-variant-numeric:normal;font-variant-alternates:normal;font-feature-settings:normal;text-indent:0;text-align:start;text-decoration-line:none;text-decoration-style:solid;text-decoration-color:#000;text-transform:none;text-orientation:mixed;shape-padding:0;isolation:auto;mix-blend-mode:normal" white-space="normal"></path>
    <path fill="#fff" d="M19.932 113.663h14.11c.359 0 .648.29.648.648v9.829c0 .359-.29.648-.649.648h-14.11a.647.647 0 0 1-.648-.648v-9.829c0-.359.29-.648.649-.648z" paint-order="fill markers stroke"></path>
    <path fill="#e6e6e6" d="M20.082 114.573h13.766v7.358H20.082z" paint-order="fill markers stroke"></path>
    <path fill="#fff" d="M25.5 124.907h2.977l.478 2.303H25.05z" color="#000" font-family="sans-serif" font-weight="400" overflow="visible" style="line-height:normal;font-variant-ligatures:normal;font-variant-position:normal;font-variant-caps:normal;font-variant-numeric:normal;font-variant-alternates:normal;font-feature-settings:normal;text-indent:0;text-align:start;text-decoration-line:none;text-decoration-style:solid;text-decoration-color:#000;text-transform:none;text-orientation:mixed;shape-padding:0;isolation:auto;mix-blend-mode:normal" white-space="normal"></path>
    <path fill="none" stroke="#444445" stroke-linecap="round" stroke-width=".5" d="M19.932 113.663h14.11c.359 0 .648.29.648.648v9.829c0 .359-.29.648-.649.648h-14.11a.647.647 0 0 1-.648-.648v-9.829c0-.359.29-.648.649-.648z" paint-order="fill markers stroke"></path>
    <path fill="none" stroke="#444445" stroke-width=".5" d="M19.283 122.632h15.384"></path>
    <path fill="#444445" d="M26.74 123.52h.5v.5h-.5zM21.28 115.827v.486c.847 0 1.282.456 1.794.983.513.527 1.104 1.127 2.116 1.127 1.011 0 1.575-.606 2.054-1.133.48-.527.877-.977 1.725-.977.848 0 1.303.456 1.813.98.494.51 1.042 1.09 1.939 1.124v-.494c-.69-.034-1.096-.46-1.59-.969-.515-.53-1.131-1.127-2.162-1.127-1.03 0-1.605.605-2.086 1.133-.48.528-.868.976-1.693.976-.825 0-1.252-.454-1.766-.982s-1.114-1.127-2.144-1.127z" paint-order="fill markers stroke"></path>
    <path fill="#444445" d="M29.127 117.46v2.578h-1.125v-2.078h-.5v2.078h-1.047v-.75h-.5v.75h-1.062v-.438h-.5v.438h-1.11v-1.453h-.5v1.453H21.67v-2.516h-.5v3.016h11.613v-1.016h-.5v.516h-1.109v-1.297h-.5v1.297h-1.047v-2.578z" color="#000" font-family="sans-serif" font-weight="400" overflow="visible" style="line-height:normal;font-variant-ligatures:normal;font-variant-position:normal;font-variant-caps:normal;font-variant-numeric:normal;font-variant-alternates:normal;font-feature-settings:normal;text-indent:0;text-align:start;text-decoration-line:none;text-decoration-style:solid;text-decoration-color:#000;text-transform:none;text-orientation:mixed;shape-padding:0;isolation:auto;mix-blend-mode:normal" white-space="normal"></path>
  </g>
</svg>