<svg xmlns="http://www.w3.org/2000/svg" viewBox="0 0 100 100">
  <path fill="#e6e6e6" d="M60.01 76.862v-9.944h6.13c2.296-.033 5.563-1.955 5.678-5.084v-7.869l5.185.05s-5.076-12.552-5.21-15.097c-.355-6.834-7.993-12.204-10.684-13.66-5.93-3.212-18.927-3.505-26.112 9.71-5.145 9.464 4.778 22.904 4.988 30.492v11.402z"></path>
  <path fill="#fff" stroke="#444445" stroke-linecap="round" stroke-width="1.589715" d="M38.025 23.987a14.357 14.208 0 0 0-14.357 14.208 14.357 14.208 0 0 0 14.345 14.208 14.357 14.208 0 0 0 .012 0h19.226l-8.234-5.073a14.357 14.208 0 0 0 3.366-9.135 14.357 14.208 0 0 0-14.358-14.208z" paint-order="fill markers stroke"></path>
  <path fill="#3cb251" d="M48.375 38.061a10.169 10.169 0 0 1-10.17 10.17 10.169 10.169 0 0 1-10.168-10.17 10.169 10.169 0 0 1 10.169-10.169 10.169 10.169 0 0 1 10.169 10.17z" paint-order="fill markers stroke"></path>
  <path fill="#f1f9f3" d="M42.992 33.864a.795.795 0 0 0-.54.267l-6.52 7.166-3.335-2.999a.796.796 0 1 0-1.062 1.186l4.509 4.055 7.588-8.333a.795.795 0 0 0-.64-1.342z" color="#000" font-family="sans-serif" font-weight="400" overflow="visible" style="line-height:normal;font-variant-ligatures:normal;font-variant-position:normal;font-variant-caps:normal;font-variant-numeric:normal;font-variant-alternates:normal;font-feature-settings:normal;text-indent:0;text-align:start;text-decoration-line:none;text-decoration-style:solid;text-decoration-color:#000;text-transform:none;text-orientation:mixed;shape-padding:0;isolation:auto;mix-blend-mode:normal" white-space="normal"></path>
</svg>