<svg xmlns="http://www.w3.org/2000/svg" viewBox="0 0 100 100">
  <path fill="#ef8a20" d="M26.08 77.249l8.544 8.544 3.807-3.812-8.538-8.539z"></path>
  <path fill="#474748" d="M32.414 13.139v32.787h-5.862v1.59h3.16l3.627 3.478h4.924l.466 1.527.186 4.241-2.558 4.422-.596 6.706 8.737 8.682.559-.485s8.098-6.959 11.724-11.475c2.026-2.523 5.415-7.924 5.415-7.924l.05-.074 2.018-5.62h6.11l3.18-3.478h2.875v-1.59h-6.657v-25.72l-7.03-7.067H32.415zm1.59 1.59h27.323v6.606h6.855v23.797H34.004zm28.912.844l4.136 4.173h-4.136zm-25.46 2.707v1.646h1.64V18.28zm3.403.05v1.645h1.64V18.33zm3.403.05v1.645h1.64V18.38zm-6.582 8.967h26.776zm0 3.415h26.776zm0 3.415h26.776zm0 3.416h26.776zm0 3.216h15.152zm-5.67 6.707H71.4l-1.727 1.888H33.979zm7.911 3.478h2.963c.284.247.95.846 1.124 1.614.157.695.231 1.924.316 3.043.043.56.089 1.094.168 1.565.079.471.118.866.478 1.291l.05.056.056.05s.495.405 1.142.82c.647.414 1.4.883 2.285.944 2.024.14 4.111-.367 4.111-.367l.193-.043 4.142-3.565 3.974-5.408h1.652l-1.757 4.9c-.049.076-3.423 5.406-5.279 7.718C52.296 67.65 45.22 73.79 44.542 74.38l-7.13-7.092.498-5.614 2.614-4.52-.218-4.9zm5.105 0h9.128l-3.29 5.371-1.454 1.447-2.602.093c-.298-.21-.575-.411-.627-.453.052.05-.06-.142-.118-.49a17.157 17.157 0 0 1-.155-1.429c-.083-1.09-.132-2.32-.348-3.273a4.201 4.201 0 0 0-.534-1.266zm10.991 0h2.938l-3.18 4.328-3.676 3.16c-.055.013-.829.048-1.217.113l1.236-1.242z" color="#000" font-family="sans-serif" font-weight="400" overflow="visible" style="line-height:normal;font-variant-ligatures:normal;font-variant-position:normal;font-variant-caps:normal;font-variant-numeric:normal;font-variant-alternates:normal;font-feature-settings:normal;text-indent:0;text-align:start;text-decoration-line:none;text-decoration-style:solid;text-decoration-color:#000;text-transform:none;text-orientation:mixed;shape-padding:0;isolation:auto;mix-blend-mode:normal" white-space="normal"></path>
  <path fill="#474748" d="M34.519 64.413l-.559.565-6.235 6.229L28.8 72.28l-3.844 3.844 1.124 1.124 3.813-3.807 8.538 8.539-3.807 3.812 1.124 1.124 3.844-3.843.677.676 6.794-6.793zm0 2.248l10.296 10.296-4.546 4.545-10.296-10.295z" color="#000" font-family="sans-serif" font-weight="400" overflow="visible" paint-order="fill markers stroke" style="line-height:normal;font-variant-ligatures:normal;font-variant-position:normal;font-variant-caps:normal;font-variant-numeric:normal;font-variant-alternates:normal;font-feature-settings:normal;text-indent:0;text-align:start;text-decoration-line:none;text-decoration-style:solid;text-decoration-color:#000;text-transform:none;text-orientation:mixed;shape-padding:0;isolation:auto;mix-blend-mode:normal" white-space="normal"></path>
  <path fill="none" stroke="#474748" stroke-width="1.59" d="M38.922 74.74l3.105 3.105"></path>
</svg>