<?xml version="1.0" encoding="utf-8"?>
<!-- Generator: Adobe Illustrator 18.0.0, SVG Export Plug-In . SVG Version: 6.00 Build 0)  -->
<!DOCTYPE svg PUBLIC "-//W3C//DTD SVG 1.1//EN" "http://www.w3.org/Graphics/SVG/1.1/DTD/svg11.dtd" [
	<!ENTITY ns_extend "http://ns.adobe.com/Extensibility/1.0/">
	<!ENTITY ns_ai "http://ns.adobe.com/AdobeIllustrator/10.0/">
	<!ENTITY ns_graphs "http://ns.adobe.com/Graphs/1.0/">
	<!ENTITY ns_vars "http://ns.adobe.com/Variables/1.0/">
	<!ENTITY ns_imrep "http://ns.adobe.com/ImageReplacement/1.0/">
	<!ENTITY ns_sfw "http://ns.adobe.com/SaveForWeb/1.0/">
	<!ENTITY ns_custom "http://ns.adobe.com/GenericCustomNamespace/1.0/">
	<!ENTITY ns_adobe_xpath "http://ns.adobe.com/XPath/1.0/">
]>
<svg version="1.1" id="Layer_1" xmlns:x="&ns_extend;" xmlns:i="&ns_ai;" xmlns:graph="&ns_graphs;"
	 xmlns="http://www.w3.org/2000/svg" xmlns:xlink="http://www.w3.org/1999/xlink" x="0px" y="0px" viewBox="203 0 201 200"
	 enable-background="new 203 0 201 200" xml:space="preserve">
<metadata>
	<sfw  xmlns="&ns_sfw;">
		<slices></slices>
		<sliceSourceBounds  height="181.8" width="194.7" x="208.6" y="9.3" bottomLeftOrigin="true"></sliceSourceBounds>
	</sfw>
</metadata>
<path fill="none" stroke="#4F5E6B" stroke-width="3" stroke-miterlimit="10" d="M401.8,88.6c0,43.2-42.9,78.2-95.8,78.2
	c-11.8,0-23.1-1.7-33.6-4.9l-55.1,25.6l21.6-43.1c-17.7-14.2-28.8-34-28.8-55.8c0-43.2,42.9-78.2,95.8-78.2S401.8,45.4,401.8,88.6z"
	/>
<path fill="#4F5E6B" stroke="#4F5E6B" stroke-width="3" stroke-miterlimit="10" d="M310.2,118.8c-4.6,0-8.3,3.7-8.3,8.3
	s3.7,8.3,8.3,8.3l0,0c4.6,0,8.3-3.7,8.3-8.3S314.8,118.8,310.2,118.8"/>
<path fill="none" stroke="#4F5E6B" stroke-width="3" stroke-miterlimit="10" d="M285.2,74c0-13.8,11.2-25.5,25-25.5s25,10.9,25,24.7
	s-11.2,24.7-25,24.7v10.4"/>
</svg>
