<?xml version="1.0" encoding="UTF-8" standalone="no"?>
<svg
   xmlns:dc="http://purl.org/dc/elements/1.1/"
   xmlns:cc="http://creativecommons.org/ns#"
   xmlns:rdf="http://www.w3.org/1999/02/22-rdf-syntax-ns#"
   xmlns:svg="http://www.w3.org/2000/svg"
   xmlns="http://www.w3.org/2000/svg"
   viewBox="0 0 240 203.696"
   height="203.696"
   width="240"
   xml:space="preserve"
   id="svg2"
   version="1.1"><metadata
     id="metadata8"><rdf:RDF><cc:Work
         rdf:about=""><dc:format>image/svg+xml</dc:format><dc:type
           rdf:resource="http://purl.org/dc/dcmitype/StillImage" /><dc:title></dc:title></cc:Work></rdf:RDF></metadata><defs
     id="defs6" /><g
     transform="matrix(1.3333333,0,0,-1.3333333,-287.99999,629.84798)"
     id="g10"><g
       transform="scale(0.1)"
       id="g12"><path
         id="path14"
         style="fill:#ff761f;fill-opacity:1;fill-rule:evenodd;stroke:none"
         d="m 2459.12,4306.05 c 161.21,0 299.12,-129.63 299.12,-298.45 0,-168.82 -137.92,-298.46 -299.12,-298.46 -161.2,0 -299.12,128.64 -299.12,298.46 0,169.81 137.91,298.45 299.12,298.45 z m 1.5,-179.49 c 64.59,0 119.85,-51.61 119.85,-118.96 0,-67.36 -55.26,-119.08 -119.85,-119.08 -64.59,0 -119.85,51.32 -119.85,119.08 0,67.75 55.26,118.96 119.85,118.96" /><path
         id="path16"
         style="fill:#ff761f;fill-opacity:1;fill-rule:evenodd;stroke:none"
         d="m 3060.07,4306.05 c 161.21,0 299.12,-129.63 299.12,-298.45 0,-168.82 -137.92,-298.46 -299.12,-298.46 -161.2,0 -299.12,128.64 -299.12,298.46 0,169.81 137.91,298.45 299.12,298.45 z m 1.5,-179.49 c 64.59,0 119.85,-51.61 119.85,-118.96 0,-67.36 -55.26,-119.08 -119.85,-119.08 -64.59,0 -119.85,51.32 -119.85,119.08 0,67.75 55.26,118.96 119.85,118.96" /><path
         id="path18"
         style="fill:#ff761f;fill-opacity:1;fill-rule:evenodd;stroke:none"
         d="m 3660.88,4306.05 c 161.2,0 299.12,-129.63 299.12,-298.45 0,-168.82 -137.92,-298.46 -299.12,-298.46 -161.21,0 -299.12,128.64 -299.12,298.46 0,169.81 137.91,298.45 299.12,298.45 z m 1.5,-179.49 c 64.58,0 119.85,-51.61 119.85,-118.96 0,-67.36 -55.26,-119.08 -119.85,-119.08 -64.59,0 -119.85,51.32 -119.85,119.08 0,67.75 55.26,118.96 119.85,118.96" /><path
         id="path20"
         style="fill:#ff761f;fill-opacity:1;fill-rule:evenodd;stroke:none"
         d="m 2459.12,4723.86 c 161.21,0 299.12,-129.72 299.12,-298.65 0,-168.93 -137.92,-298.65 -299.12,-298.65 -161.2,0 -299.12,128.72 -299.12,298.65 0,169.92 137.91,298.65 299.12,298.65 z m 1.5,-179.5 c 64.59,0 119.85,-51.75 119.85,-119.15 0,-67.4 -55.26,-119.16 -119.85,-119.16 -64.59,0 -119.85,51.36 -119.85,119.16 0,67.8 55.26,119.15 119.85,119.15" /><path
         id="path22"
         style="fill:#ff761f;fill-opacity:1;fill-rule:evenodd;stroke:none"
         d="m 3060.07,4723.86 c 161.21,0 299.12,-129.72 299.12,-298.65 0,-168.93 -137.92,-298.65 -299.12,-298.65 -161.2,0 -299.12,128.72 -299.12,298.65 0,169.92 137.91,298.65 299.12,298.65 z m 1.5,-179.5 c 64.59,0 119.85,-51.75 119.85,-119.15 0,-67.4 -55.26,-119.16 -119.85,-119.16 -64.59,0 -119.85,51.36 -119.85,119.16 0,67.8 55.26,119.15 119.85,119.15" /><path
         id="path24"
         style="fill:#ff761f;fill-opacity:1;fill-rule:evenodd;stroke:none"
         d="m 3660.88,4723.86 c 161.2,0 299.12,-129.72 299.12,-298.65 0,-168.93 -137.92,-298.65 -299.12,-298.65 -161.21,0 -299.12,128.72 -299.12,298.65 0,169.92 137.91,298.65 299.12,298.65 z m 1.5,-179.5 c 64.59,0 119.85,-51.75 119.85,-119.15 0,-67.4 -55.26,-119.16 -119.85,-119.16 -64.59,0 -119.85,51.36 -119.85,119.16 0,67.8 55.26,119.15 119.85,119.15" /><path
         id="path26"
         style="fill:#ff6404;fill-opacity:1;fill-rule:evenodd;stroke:none"
         d="m 2672.92,4216.34 c -54.94,-55.8 -131.31,-89.78 -213.8,-89.78 -82.67,0 -159.22,33.87 -214.18,89.78 54.96,55.87 131.51,89.71 214.18,89.71 82.49,0 158.86,-33.95 213.8,-89.71" /><path
         id="path28"
         style="fill:#ff6404;fill-opacity:1;fill-rule:evenodd;stroke:none"
         d="m 3273.87,4216.34 c -54.94,-55.8 -131.32,-89.78 -213.8,-89.78 -82.68,0 -159.22,33.87 -214.18,89.78 54.96,55.87 131.5,89.71 214.18,89.71 82.48,0 158.86,-33.95 213.8,-89.71" /><path
         id="path30"
         style="fill:#ff6404;fill-opacity:1;fill-rule:evenodd;stroke:none"
         d="m 3874.68,4216.34 c -54.94,-55.8 -131.32,-89.78 -213.8,-89.78 -82.68,0 -159.22,33.87 -214.18,89.78 54.96,55.87 131.5,89.71 214.18,89.71 82.48,0 158.86,-33.95 213.8,-89.71" /><path
         id="path32"
         style="fill:#ff6404;fill-opacity:1;fill-rule:evenodd;stroke:none"
         d="m 3577.72,3571.6 h 50.24 v -59.02 l 0.35,0.42 c 17.2,35.35 48.95,62.79 94.53,62.79 v -48.24 c -54.3,1.4 -94.19,-39.3 -94.88,-89.65 v -127.61 h -50.24 v 261.31" /><path
         id="path34"
         style="fill:#ff6404;fill-opacity:1;fill-rule:evenodd;stroke:none"
         d="m 2936.2,3571.6 h 50.23 v -48.97 c 17.51,32.34 47.9,53.34 93.94,53.34 79.03,0 132.33,-58.42 132.33,-135.08 0,-77.66 -52.3,-136.58 -131.83,-136.58 -42.85,0 -75.46,20.66 -94.44,53.96 v -162.13 h -50.23 z m 140.66,-43.16 c 50.01,0 84.37,-38.73 84.37,-88.05 0,-49.32 -35.18,-87.55 -84.37,-87.55 -51.19,0 -84.87,39.05 -84.87,88.05 0,49 34.87,87.55 84.87,87.55" /><path
         id="path36"
         style="fill:#ff6404;fill-opacity:1;fill-rule:evenodd;stroke:none"
         d="m 3761.91,3571.6 h 35.24 v 76.4 h 50.23 v -76.4 h 76.05 v -47.54 h -76.05 V 3390.6 c 0,-51.21 47.35,-38.77 76.05,-33.03 v -41.69 c -19.51,-7.06 -33.21,-10.14 -54.75,-10.14 -33.69,0 -71.53,14.96 -71.53,75.3 v 143.02 h -35.24 v 47.54" /><path
         id="path38"
         style="fill:#ff6404;fill-opacity:1;fill-rule:evenodd;stroke:none"
         d="m 3387.12,3576.97 c 80.02,0 135.83,-59.42 135.83,-136.08 0,-76.66 -56.31,-136.08 -135.83,-136.08 -79.53,0 -135.83,59.92 -135.83,136.08 0,76.16 55.8,136.08 135.83,136.08 z m 0,-48.53 c 50,0 84.87,-38.23 84.87,-87.55 0,-49.32 -35.19,-87.55 -84.87,-87.55 -49.69,0 -84.88,38.55 -84.88,87.55 0,49 34.87,87.55 84.88,87.55" /><path
         id="path40"
         style="fill:#ff6404;fill-opacity:1;fill-rule:evenodd;stroke:none"
         d="m 2695.53,3506.16 c 0,38.66 38.15,71.09 93.62,71.09 35.08,0 64.42,-14.14 84.02,-29.95 l -13.91,-40.17 c -22.5,15.27 -50.32,26.52 -70.54,26.52 -30.87,0 -41.9,-15.36 -41.9,-26.59 0,-20.58 18.97,-28.12 36.04,-36.25 20.69,-9.86 41.11,-16.8 60.9,-28.23 27.37,-15.8 41.52,-31.87 41.52,-65.68 0,-20.6 -13.78,-44.55 -34.53,-57.62 -16.6,-10.48 -39.54,-17.21 -61.29,-17.21 -53.21,0 -92.6,20.56 -115.6,43.57 l 21.05,37.4 c 21.23,-19.54 52.85,-37.81 88.32,-37.81 27.25,0 52.56,9.51 52.56,34.43 0,17.75 -20.38,28.83 -37.9,35.65 -19.7,7.96 -36.7,13.56 -55.8,23.9 -32.21,17.45 -46.56,34.3 -46.56,66.95" /></g></g></svg>