<svg xmlns="http://www.w3.org/2000/svg" viewBox="0 0 60 60"><defs><style>.cls-1{fill:#f5f7ff;}.cls-2{fill:#a6aeca;}.cls-3{fill:none;stroke:#ff762a;stroke-miterlimit:10;stroke-width:2px;}</style></defs><title>Artboard 4 copy 2</title><g id="finance_backup"><path class="cls-1" d="M12.78,24.56c0-11.59,9.3-21.13,21.29-22.48a26,26,0,0,0-2.93-.18C17.77,1.9,6.92,12,6.92,24.56S17.77,47.22,31.14,47.22A26,26,0,0,0,34.07,47C22.08,45.69,12.78,36.15,12.78,24.56Z"/><path class="cls-2" d="M21.4,3.8v0l.67-.25V1.48c-.28.09-.56.17-.84.28l0,0A25.32,25.32,0,0,0,16.57,4l1,1.71A23.27,23.27,0,0,1,21.4,3.8Z"/><path class="cls-2" d="M14.54,7.93,13.23,6.42a24.78,24.78,0,0,0-3.53,3.8l1.59,1.21A22.85,22.85,0,0,1,14.54,7.93Z"/><path class="cls-2" d="M48.73,11.43l1.59-1.21a24.74,24.74,0,0,0-3.52-3.8L45.5,7.93A22.81,22.81,0,0,1,48.73,11.43Z"/><path class="cls-2" d="M9.27,14.67,7.5,13.75a23.74,23.74,0,0,0-1.84,4.87l1.93.5A21.62,21.62,0,0,1,9.27,14.67Z"/><path class="cls-2" d="M54.35,18.62a23.8,23.8,0,0,0-1.83-4.87l-1.77.91a21.66,21.66,0,0,1,1.68,4.46Z"/><path class="cls-2" d="M38.72,3.82a23.12,23.12,0,0,1,3.72,1.85l1-1.71a25.18,25.18,0,0,0-4.64-2.25v0c-.25-.09-.5-.16-.75-.24V3.6l.64.23Z"/><path class="cls-2" d="M15.83,42a22.8,22.8,0,0,1-3.5-3.23l-1.5,1.33a24.82,24.82,0,0,0,3.81,3.52Z"/><path class="cls-2" d="M49.95,35.67l1.69,1A23.56,23.56,0,0,0,53.84,32L52,31.36A21.64,21.64,0,0,1,49.95,35.67Z"/><path class="cls-2" d="M53,22.89q.06.77.06,1.56c0,.31,0,.62,0,.94a22,22,0,0,1-.22,2.27l2,.3a24.1,24.1,0,0,0,.24-2.48c0-.34,0-.68,0-1q0-.86-.06-1.7Z"/><path class="cls-2" d="M44.21,42l1.18,1.61a24.76,24.76,0,0,0,3.8-3.52L47.7,38.74A22.74,22.74,0,0,1,44.21,42Z"/><path class="cls-2" d="M21.4,3.8v0l.67-.25V1.48c-.28.09-.56.17-.84.28l0,0A25.32,25.32,0,0,0,16.57,4l1,1.71A23.27,23.27,0,0,1,21.4,3.8Z"/><path class="cls-2" d="M14.54,7.93,13.23,6.42a24.78,24.78,0,0,0-3.53,3.8l1.59,1.21A22.85,22.85,0,0,1,14.54,7.93Z"/><path class="cls-2" d="M6.94,25.38c0-.31,0-.62,0-.94q0-.79.06-1.56l-2-.14q-.06.84-.06,1.7c0,.34,0,.68,0,1a24.1,24.1,0,0,0,.24,2.48l2-.3A21.87,21.87,0,0,1,6.94,25.38Z"/><path class="cls-2" d="M9.27,14.67,7.5,13.75a23.74,23.74,0,0,0-1.84,4.87l1.93.5A21.62,21.62,0,0,1,9.27,14.67Z"/><path class="cls-2" d="M48.73,11.43l1.59-1.21a24.74,24.74,0,0,0-3.52-3.8L45.5,7.93A22.81,22.81,0,0,1,48.73,11.43Z"/><path class="cls-2" d="M38.72,3.82a23.12,23.12,0,0,1,3.72,1.85l1-1.71a25.18,25.18,0,0,0-4.64-2.25v0c-.25-.09-.5-.16-.75-.24V3.6l.64.23Z"/><rect class="cls-2" x="26.46" y="0.9" width="7.14" height="2"/><path class="cls-2" d="M54.35,18.62a23.8,23.8,0,0,0-1.83-4.87l-1.77.91a21.66,21.66,0,0,1,1.68,4.46Z"/><path class="cls-2" d="M6.17,32a23.54,23.54,0,0,0,2.2,4.72l1.7-1a21.58,21.58,0,0,1-2-4.31Z"/><path class="cls-2" d="M44.21,42l1.18,1.61a24.76,24.76,0,0,0,3.8-3.52L47.7,38.74A22.74,22.74,0,0,1,44.21,42Z"/><path class="cls-2" d="M49.95,35.67l1.69,1A23.56,23.56,0,0,0,53.84,32L52,31.36A21.64,21.64,0,0,1,49.95,35.67Z"/><path class="cls-2" d="M15.83,42a22.8,22.8,0,0,1-3.5-3.23l-1.5,1.33a24.82,24.82,0,0,0,3.81,3.52Z"/><path class="cls-2" d="M55,22.74l-2,.14q.06.77.06,1.56c0,.31,0,.62,0,.94a22,22,0,0,1-.22,2.27l2,.3a24.1,24.1,0,0,0,.24-2.48c0-.34,0-.68,0-1Q55.07,23.59,55,22.74Z"/><path class="cls-2" d="M41.08,55.18v-.24L37.4,47.57a25.24,25.24,0,0,0,4.49-1.79L41,44a23.27,23.27,0,0,1-4.42,1.73l.12.46H23.39l.12-.46A23.42,23.42,0,0,1,19.07,44l-.91,1.79a25.38,25.38,0,0,0,4.51,1.79L19,54.94v2.24H14.08v2h32v-2h-5Zm-2.09,2H21.08v-2l.33-.67,3.41-6.33H35.3L37.9,53,39,55.18Z"/><path class="cls-2" d="M6.94,25.38c0-.31,0-.62,0-.94q0-.79.06-1.56l-2-.14q-.06.84-.06,1.7c0,.34,0,.68,0,1a24.1,24.1,0,0,0,.24,2.48l2-.3A21.87,21.87,0,0,1,6.94,25.38Z"/><path class="cls-2" d="M6.17,32a23.54,23.54,0,0,0,2.2,4.72l1.7-1a21.58,21.58,0,0,1-2-4.31Z"/><rect class="cls-2" x="26.46" y="0.9" width="7.14" height="2"/><ellipse class="cls-3" cx="30.03" cy="24.13" rx="6.03" ry="5.8"/></g></svg>