<svg xmlns="http://www.w3.org/2000/svg" viewBox="0 0 60 60"><defs><style>.cls-1{fill:#f5f7ff;}.cls-2{fill:none;}.cls-3{fill:#a6aeca;}.cls-4{fill:#ff762a;}</style></defs><title>Artboard 4</title><g id="finance_backup"><rect class="cls-1" x="4" y="3" width="6.34" height="36"/><rect class="cls-1" x="21" y="41" width="6.34" height="16"/><rect class="cls-2" x="21" y="21" width="17" height="18"/><polygon class="cls-2" points="58 32.09 58 32.09 58 32.05 58 32.05 58 32.09"/><rect class="cls-3" x="2" y="15" width="2" height="4"/><polygon class="cls-3" points="4 37 2 37 2 41 6 41 6 39 4 39 4 37"/><rect class="cls-3" x="2" y="23" width="2" height="4"/><rect class="cls-3" x="2" y="30" width="2" height="4"/><rect class="cls-3" x="38" y="8" width="2" height="4"/><rect class="cls-3" x="30" y="1" width="4" height="2"/><rect class="cls-3" x="8" y="39" width="4" height="2"/><polygon class="cls-3" points="38 5 40 5 40 1 36 1 36 3 38 3 38 5"/><rect class="cls-3" x="2" y="8" width="2" height="4"/><rect class="cls-3" x="15" y="1" width="4" height="2"/><rect class="cls-3" x="23" y="1" width="4" height="2"/><polygon class="cls-3" points="2 5 4 5 4 3 6 3 6 1 2 1 2 5"/><rect class="cls-3" x="8" y="1" width="4" height="2"/><polygon class="cls-3" points="58 32.09 58 32.05 57.76 31.81 57.76 31.81 45 19.05 45 19 41 19 41 21 44.08 21 56 32.91 56 57 41 57 41 59 58 59 58 32.62 58 32.62 58 32.09 58 32.09"/><rect class="cls-3" x="26" y="57" width="11" height="2"/><path class="cls-3" d="M40,15H38v4H19V39H15v2h4v4h2V41H40V15h0ZM38,39H21V21H38Z"/><rect class="cls-3" x="19" y="48" width="2" height="4"/><polygon class="cls-3" points="21 55 19 55 19 59 23 59 23 57 21 57 21 55"/><path class="cls-4" d="M40,15H38v4H19V39H15v2h4v4h2V41H40V15h0ZM38,39H21V21H38Z"/><rect class="cls-3" x="35" y="48" width="2" height="11"/><rect class="cls-3" x="40.99" y="48" width="2" height="11"/><rect class="cls-3" x="35" y="48" width="7.99" height="2"/></g></svg>