<svg xmlns="http://www.w3.org/2000/svg" viewBox="0 0 60 60"><defs><style>.cls-1{fill:#f5f7ff;}.cls-2{fill:#a6aeca;}.cls-3{fill:none;stroke:#ff762a;stroke-miterlimit:10;stroke-width:2px;}.cls-4{fill:#ff762a;}</style></defs><title>Artboard 4 copy 3</title><g id="finance_backup"><path class="cls-1" d="M12,37.5A20.54,20.54,0,0,1,30,17.12a20.55,20.55,0,1,0,0,40.76A20.54,20.54,0,0,1,12,37.5Z"/><path class="cls-2" d="M9.31,28.29l-1.79-.93a22,22,0,0,0-2.07,6l2,.38A20,20,0,0,1,9.31,28.29Z"/><path class="cls-2" d="M22.39,17.78l-.53-1.94a23.19,23.19,0,0,0-5.78,2.46l1,1.73A21.17,21.17,0,0,1,22.39,17.78Z"/><path class="cls-2" d="M14.75,21.67,13.49,20.1a22.82,22.82,0,0,0-4.32,4.57l1.64,1.17A20.75,20.75,0,0,1,14.75,21.67Z"/><path class="cls-2" d="M29,58l.09,2a23.49,23.49,0,0,0,6.18-1.11L34.67,57A21.4,21.4,0,0,1,29,58Z"/><path class="cls-2" d="M44.14,50.69,45.67,52a22.48,22.48,0,0,0,3.4-5.3l-1.83-.84A20.44,20.44,0,0,1,44.14,50.69Z"/><path class="cls-2" d="M50.68,33.37a22.08,22.08,0,0,0-2.05-6l-1.79.92a20,20,0,0,1,1.86,5.41Z"/><path class="cls-2" d="M49,36.6c0,.31,0,.61,0,.92a20.08,20.08,0,0,1-.81,5.67l1.93.57a22.1,22.1,0,0,0,.89-6.23c0-.34,0-.68,0-1Z"/><path class="cls-2" d="M37.34,55.91l.87,1.81a23,23,0,0,0,5.24-3.47l-1.33-1.51A21,21,0,0,1,37.34,55.91Z"/><path class="cls-2" d="M40.1,18.33a23.18,23.18,0,0,0-5.78-2.48l-.54,1.94a21.16,21.16,0,0,1,5.28,2.26Z"/><path class="cls-2" d="M27.06,9.93V15c-.71,0-1.42.08-2.11.17l.26,2a21.87,21.87,0,0,1,5.75,0l.27-2c-.72-.1-1.44-.15-2.17-.18V9.93a5,5,0,1,0-2,0Zm1-7.9a3,3,0,0,1,1,5.78v0h-2v0a3,3,0,0,1,1-5.78Z"/><path class="cls-2" d="M46.76,11.9l-1.39,1.44,3.26,3.15-4.8,4.64c-.37-.34-.75-.67-1.14-1L41.42,21.7c.33.26.64.54,1,.82h0L43.76,24l0,0a20.71,20.71,0,0,1,1.57,1.94L47,24.72a22.69,22.69,0,0,0-1.76-2.17l4.83-4.67,3.3,3.19,1.39-1.44Z"/><circle class="cls-3" cx="28.03" cy="38.23" r="4.48"/><rect class="cls-4" x="27.06" y="23.02" width="2" height="11.2"/><path class="cls-2" d="M7.27,40.13h-2A22.8,22.8,0,0,0,25.86,59.89v-2A20.79,20.79,0,0,1,7.27,40.13Z"/></g></svg>