<svg xmlns="http://www.w3.org/2000/svg" viewBox="0 0 60 60"><defs><style>.cls-1{fill:#f5f7ff;}.cls-2{fill:#a6aeca;}.cls-3{fill:#ff762a;}</style></defs><title>Artboard 4 copy</title><g id="finance_backup"><rect class="cls-1" x="12.62" y="10.5" width="6.74" height="16.94"/><rect class="cls-1" x="18.62" y="27.5" width="6.34" height="29"/><path class="cls-2" d="M18.62,54.5h-2v4h4v-2h-2Zm33-33.81c-.08-10.59-9-19.19-20-19.19v2c9.93,0,18,7.78,18,17.33l3.8,12.95a.87.87,0,0,1-.88.72H47.67V41A4.6,4.6,0,0,1,43,45.5H32.62v2h7v4h2v-4H43A6.62,6.62,0,0,0,49.68,41V36.5h2.78a2.88,2.88,0,0,0,2.92-2.83Zm-12,37.81h2v-4h-2Zm-16,0h5v-2h-5Zm-5-20h-2v5h2Zm0,8h-2v5h2Zm13,12h5v-2h-5Z"/><path class="cls-3" d="M18.62,30.5h-2v5h2Z"/><path class="cls-3" d="M4.62,12.5h5v-2h-5Z"/><path class="cls-3" d="M4.62,27.5h5v-2h-5Z"/><path class="cls-3" d="M4.62,19.5h5v-2h-5Z"/><path class="cls-3" d="M26.62,1.5h-2v6h2Z"/><path class="cls-3" d="M12.62,27.5H30.56v-17H12.62Zm2-15h14v13h-14Z"/><path class="cls-3" d="M25.62,35.5h2v-3h0v-2h-2Z"/><path class="cls-3" d="M33.62,12.5h5v-2h-5Z"/><path class="cls-3" d="M33.62,27.5h5v-2h-5Z"/><path class="cls-3" d="M33.62,19.5h5v-2h-5Z"/><path class="cls-3" d="M17.6,1.5h-2v4h0v2h2Z"/><path class="cls-3" d="M18.62,30.5h-2v5h2Z"/><path class="cls-3" d="M4.62,12.5h5v-2h-5Z"/><path class="cls-3" d="M4.62,27.5h5v-2h-5Z"/><path class="cls-3" d="M4.62,19.5h5v-2h-5Z"/><path class="cls-3" d="M26.62,1.5h-2v6h2Z"/><path class="cls-3" d="M12.62,27.5H30.56v-17H12.62Zm2-15h14v13h-14Z"/><path class="cls-3" d="M25.62,35.5h2v-3h0v-2h-2Z"/><path class="cls-3" d="M33.62,12.5h5v-2h-5Z"/><path class="cls-3" d="M33.62,27.5h5v-2h-5Z"/><path class="cls-3" d="M33.62,19.5h5v-2h-5Z"/><path class="cls-3" d="M17.6,1.5h-2v4h0v2h2Z"/></g></svg>