<?xml version="1.0" encoding="UTF-8" standalone="no"?>
<svg
   xmlns:dc="http://purl.org/dc/elements/1.1/"
   xmlns:cc="http://creativecommons.org/ns#"
   xmlns:rdf="http://www.w3.org/1999/02/22-rdf-syntax-ns#"
   xmlns:svg="http://www.w3.org/2000/svg"
   xmlns="http://www.w3.org/2000/svg"
   id="svg162"
   version="1.1"
   viewBox="0 0 160.09444 18.708866"
   height="18.708866mm"
   width="160.09444mm">
  <defs
     id="defs156" />
  <metadata
     id="metadata159">
    <rdf:RDF>
      <cc:Work
         rdf:about="">
        <dc:format>image/svg+xml</dc:format>
        <dc:type
           rdf:resource="http://purl.org/dc/dcmitype/StillImage" />
        <dc:title></dc:title>
      </cc:Work>
    </rdf:RDF>
  </metadata>
  <g
     transform="translate(66.440079,-40.449139)"
     id="layer1">
    <rect
       transform="scale(1,-1)"
       y="-59.158005"
       x="-66.440079"
       height="18.708866"
       width="160.09444"
       id="rect228"
       style="fill:#ffffff;stroke-width:0.26458332" />
    <g
       transform="translate(-2.405427,21.648832)"
       id="g260">
      <g
         id="g20"
         transform="matrix(0.35277777,0,0,-0.35277777,-58.622755,30.73635)">
        <path
           d="m 0,0 c -0.165,0.82 0.042,1.272 0.451,1.272 0.575,0 0.575,-0.492 0.778,-1.353 0.493,-1.89 2.958,-6.16 8.636,-6.16 3.904,0 7.725,2.178 7.725,6.495 0,7.934 -16.68,3.495 -16.68,14.226 0,5.22 4.396,7.726 9.12,7.726 4.973,0 6.327,-1.476 6.904,-1.476 0.368,0 0.451,0.451 0.861,0.451 0.247,0 0.452,-0.124 0.493,-0.575 l 0.616,-5.591 c 0.041,-0.33 -0.041,-0.617 -0.451,-0.617 -0.452,0 -0.74,0.864 -0.863,1.233 -1.233,3.535 -4.232,5.344 -7.847,5.344 -3.247,0 -6.698,-1.562 -6.698,-5.344 0,-7.728 16.68,-3.206 16.68,-14.553 0,-3.453 -2.423,-8.646 -11.748,-8.646 -3.04,0 -6.78,1.533 -6.943,2.273 z"
           style="fill:#1a171b;fill-opacity:1;fill-rule:evenodd;stroke:none"
           id="path22" />
      </g>
      <g
         id="g24"
         transform="matrix(0.35277777,0,0,-0.35277777,-43.047651,31.243467)">
        <path
           d="m 0,0 c 0.411,-1.004 1.273,-2.709 1.273,-3.526 0,-1.408 -2.462,-1.037 -2.462,-1.92 0,-0.369 0.656,-0.369 0.9,-0.369 1.11,0 2.218,0.161 3.326,0.161 1.684,0 3.366,-0.161 5.051,-0.161 0.286,0 0.573,0 0.573,0.332 0,0.92 -2.379,0.11 -3.611,1.811 -0.946,1.297 -1.437,2.855 -2.053,4.229 L -5.542,19.58 c -0.123,0.294 -0.411,1.365 -0.862,1.365 -0.534,0 -0.657,-0.591 -3.078,-5.246 L -19.31,-3.15 c -1.068,-2.109 -2.998,-1.483 -2.998,-2.258 0,-0.222 0.122,-0.407 0.369,-0.407 1.067,0 2.177,0.161 3.285,0.161 1.151,0 2.3,-0.161 3.448,-0.161 0.533,0 1.108,-0.111 1.108,0.556 0,0.959 -2.915,-0.149 -2.915,2.444 0,0.479 0.166,1.036 0.29,1.296 l 2.625,5.191 c 0.412,0.777 1.153,0.777 1.931,0.777 h 9.033 c 1.149,0 1.396,-0.554 1.807,-1.407 z m -7.759,15.699 c 0.247,0.444 0.452,0.444 0.657,0 L -3.08,6.793 c 0.206,-0.48 0.248,-0.74 -0.656,-0.74 h -8.128 c -0.533,0 -0.821,0.148 -0.533,0.665 z"
           style="fill:#1a171b;fill-opacity:1;fill-rule:evenodd;stroke:none"
           id="path26" />
      </g>
      <g
         id="g28"
         transform="matrix(0.35277777,0,0,-0.35277777,-31.779084,31.243467)">
        <path
           d="m 0,0 c 0.411,-1.004 1.272,-2.709 1.272,-3.526 0,-1.408 -2.461,-1.037 -2.461,-1.92 0,-0.369 0.657,-0.369 0.904,-0.369 1.107,0 2.214,0.161 3.324,0.161 1.682,0 3.366,-0.161 5.049,-0.161 0.286,0 0.574,0 0.574,0.332 0,0.92 -2.381,0.11 -3.612,1.811 -0.944,1.297 -1.436,2.855 -2.053,4.229 L -5.542,19.58 c -0.123,0.294 -0.41,1.365 -0.86,1.365 -0.535,0 -0.658,-0.591 -3.08,-5.246 L -19.309,-3.15 c -1.07,-2.109 -2.999,-1.483 -2.999,-2.258 0,-0.222 0.122,-0.407 0.37,-0.407 1.067,0 2.176,0.161 3.285,0.161 1.149,0 2.299,-0.161 3.449,-0.161 0.534,0 1.109,-0.111 1.109,0.556 0,0.959 -2.915,-0.149 -2.915,2.444 0,0.479 0.163,1.036 0.286,1.296 l 2.629,5.191 c 0.411,0.777 1.149,0.777 1.928,0.777 h 9.034 c 1.149,0 1.394,-0.554 1.806,-1.407 z m -7.758,15.699 c 0.246,0.444 0.452,0.444 0.656,0 l 4.023,-8.906 c 0.205,-0.48 0.247,-0.74 -0.657,-0.74 h -8.128 c -0.532,0 -0.82,0.148 -0.532,0.665 z"
           style="fill:#1a171b;fill-opacity:1;fill-rule:evenodd;stroke:none"
           id="path30" />
      </g>
      <g
         id="g32"
         transform="matrix(0.35277777,0,0,-0.35277777,-25.906075,25.370952)">
        <path
           d="m 0,0 c 0,0.258 0.165,1.666 -0.41,1.703 h -6.671 c -2.535,0 -2.618,-0.555 -3.355,-2.591 -0.122,-0.369 -0.164,-0.851 -0.7,-0.851 -0.247,0 -0.412,0.259 -0.412,0.444 l 0.454,3.59 c 0.041,0.442 0,1.438 0.741,1.438 3.19,0 6.342,-0.159 11.626,-0.159 7.455,0 11.241,0.159 12.065,0.159 0.939,0 1.141,-0.218 1.183,-1.069 l 0.205,-2.958 c 0.04,-0.373 0.08,-0.815 -0.449,-0.815 -1.514,0 0.693,2.812 -3.491,2.812 H 4.899 c -1.854,0 -1.648,0.148 -1.648,-1.813 v -18.872 c 0,-3.109 3.336,-1.887 3.336,-3.036 0,-0.11 0.04,-0.444 -0.373,-0.444 -0.987,0 -2.139,0.161 -3.334,0.161 -4.599,0 -5.378,-0.161 -5.623,-0.161 -0.368,0 -0.49,0.113 -0.49,0.482 0,0.888 3.233,0.517 3.233,2.737 z"
           style="fill:#1a171b;fill-opacity:1;fill-rule:evenodd;stroke:none"
           id="path34" />
      </g>
      <g
         id="g36"
         transform="matrix(0.35277777,0,0,-0.35277777,-14.89708,23.940897)">
        <path
           d="m 0,0 c 7.718,0 9.854,-2.845 11.043,-2.845 0.331,0 0.576,0.368 0.987,0.368 0.45,0 0.45,-0.591 0.574,-2.998 0.082,-1.963 0.451,-3.185 -0.245,-3.185 -0.493,0 -0.78,0.963 -0.946,1.222 -2.544,3.963 -5.46,6.371 -10.757,6.371 -8.006,0 -11.865,-4.816 -11.865,-11.704 0,-6.445 4.105,-12.887 11.988,-12.887 6.448,0 10.47,3.703 11.087,5.406 0.081,0.259 0.327,0.481 0.573,0.481 0.207,0 0.412,-0.222 0.371,-0.406 l -0.944,-3.705 c -0.042,-0.148 -2.957,-2.9 -12.194,-2.9 -8.418,0 -14.453,5.198 -14.453,12.864 C -14.781,-6.254 -8.664,0 0,0"
           style="fill:#1a171b;fill-opacity:1;fill-rule:evenodd;stroke:none"
           id="path38" />
      </g>
      <g
         id="g40"
         transform="matrix(0.35277777,0,0,-0.35277777,-8.3721033,25.173891)">
        <path
           d="m 0,0 c -0.04,2.695 -3.571,1.958 -3.571,2.771 0,0.331 0.329,0.404 0.656,0.404 1.52,0 2.997,-0.159 4.521,-0.159 1.276,0 2.547,0.159 3.818,0.159 0.696,0 0.778,-0.219 0.778,-0.369 C 6.202,2.068 3.252,2.771 3.252,0 v -7.979 c 0,-0.515 0,-0.666 0.614,-0.666 h 15 c 0.41,0 0.326,0.926 0.326,1.074 V 0 c 0,2.547 -3.071,1.92 -3.071,2.771 0,0.221 0.08,0.404 0.693,0.404 1.354,0 3.49,-0.159 4.271,-0.159 1.522,0 2.139,0.159 2.96,0.159 1.069,0 1.149,-0.369 1.149,-0.59 0,-0.665 -2.75,-0.038 -2.75,-2.585 v -19.613 c 0,-2.704 3.737,-2.037 3.737,-2.963 0,-0.111 -0.166,-0.445 -0.453,-0.445 -1.108,0 -2.38,0.162 -3.861,0.162 -2.633,0 -3.781,-0.162 -4.56,-0.162 -0.368,0 -0.983,-0.11 -0.983,0.485 0,0.886 2.868,0.368 2.868,2.702 v 8.885 c 0,0.593 0.165,0.924 -0.326,0.924 H 3.745 c -0.493,0 -0.493,-0.221 -0.493,-0.627 v -9.22 c 0,-2.519 3.894,-1.703 3.894,-2.85 0,-0.185 -0.287,-0.299 -0.657,-0.299 -0.533,0 -3.525,0.162 -5.707,0.162 -2.917,0 -3.368,-0.162 -3.532,-0.162 -0.329,0 -0.452,0.186 -0.452,0.557 0,1.072 3.202,-0.147 3.202,3.518 z"
           style="fill:#1a171b;fill-opacity:1;fill-rule:evenodd;stroke:none"
           id="path42" />
      </g>
      <g
         id="g44"
         transform="matrix(0.35277777,0,0,-0.35277777,3.02911,25.176149)">
        <path
           d="m 0,0 c -0.042,2.702 -3.326,1.962 -3.326,2.777 0,0.331 0.081,0.404 0.41,0.404 1.52,0 2.999,-0.159 4.521,-0.159 1.276,0 2.549,0.159 3.822,0.159 0.656,0 0.78,-0.073 0.78,-0.368 C 6.207,1.924 3.25,2.777 3.25,0 v -19.868 c 0,-2.516 3.655,-1.666 3.655,-2.775 0,-0.258 -0.124,-0.371 -0.822,-0.371 -0.943,0 -2.709,0.161 -4.478,0.161 -2.508,0 -3.369,-0.161 -3.945,-0.161 -0.74,0 -0.863,0.185 -0.863,0.556 0,1.073 3.203,-0.147 3.203,3.516 z"
           style="fill:#1a171b;fill-opacity:1;fill-rule:evenodd;stroke:none"
           id="path46" />
      </g>
      <g
         id="g48"
         transform="matrix(0.35277777,0,0,-0.35277777,16.629506,23.701643)">
        <path
           d="m 0,0 c 0,0.369 0.082,1.149 -0.492,1.149 -0.369,0 -0.535,-0.369 -0.74,-0.369 -0.206,0 -1.765,1.109 -4.397,1.109 -3.329,0 -6.658,-1.847 -6.658,-5.583 0,-1.725 0.823,-3.367 1.891,-4.681 -4.396,-0.935 -6.546,-4.333 -6.546,-8.742 0,-6.425 5.273,-10.394 11.313,-10.394 4.027,0 7.15,1.385 10.109,4.133 2.256,-1.789 4.507,-4.133 7.587,-4.133 1.355,0 3.409,0.616 3.409,1.314 0,0.081 -0.042,0.331 -0.33,0.331 -0.287,0 -0.697,-0.206 -1.519,-0.206 -1.847,0 -5.707,3.989 -7.258,5.221 1.309,2.347 1.633,4.977 1.92,7.569 0.203,1.807 1.766,1.359 1.766,2.011 0,0.408 -0.203,0.49 -0.575,0.49 -1.396,0 -2.089,-0.159 -2.62,-0.159 -0.614,0 -2.054,0.159 -3.575,0.159 -0.327,0 -0.941,0.084 -0.941,-0.367 0,-1.312 3.862,0.327 3.862,-4.477 0,-1.729 -0.166,-3.211 -1.193,-4.362 -8.875,8.227 -14.958,14.72 -14.958,17.475 0,1.975 1.521,3.334 3.412,3.334 2.507,0 4.644,-2.18 5.63,-4.319 0.124,-0.25 0.247,-0.74 0.616,-0.74 0.164,0 0.411,0.121 0.411,0.327 z m -4.231,-25.108 c -5.302,0 -10.519,4.615 -10.519,10.094 0,2.389 1.889,5.622 4.477,5.622 1.479,0 4.603,-5.54 13.395,-13.078 -2.013,-1.733 -4.724,-2.638 -7.353,-2.638"
           style="fill:#1a171b;fill-opacity:1;fill-rule:evenodd;stroke:none"
           id="path50" />
      </g>
      <g
         id="g52"
         transform="matrix(0.35277777,0,0,-0.35277777,26.579956,30.73635)">
        <path
           d="m 0,0 c -0.164,0.82 0.042,1.272 0.45,1.272 0.574,0 0.574,-0.492 0.78,-1.353 0.493,-1.89 2.957,-6.16 8.636,-6.16 3.905,0 7.726,2.178 7.726,6.495 0,7.934 -16.68,3.495 -16.68,14.226 0,5.22 4.395,7.726 9.117,7.726 4.974,0 6.33,-1.476 6.905,-1.476 0.369,0 0.451,0.451 0.861,0.451 0.248,0 0.453,-0.124 0.493,-0.575 l 0.616,-5.591 c 0.04,-0.33 -0.042,-0.617 -0.45,-0.617 -0.453,0 -0.74,0.864 -0.862,1.233 -1.233,3.535 -4.233,5.344 -7.85,5.344 -3.245,0 -6.696,-1.562 -6.696,-5.344 0,-7.728 16.681,-3.206 16.681,-14.553 0,-3.453 -2.424,-8.646 -11.749,-8.646 -3.042,0 -6.779,1.533 -6.945,2.273 z"
           style="fill:#1a171b;fill-opacity:1;fill-rule:evenodd;stroke:none"
           id="path54" />
      </g>
      <g
         id="g56"
         transform="matrix(0.35277777,0,0,-0.35277777,42.167302,31.243467)">
        <path
           d="m 0,0 c 0.411,-1.004 1.272,-2.709 1.272,-3.526 0,-1.408 -2.462,-1.037 -2.462,-1.92 0,-0.369 0.656,-0.369 0.903,-0.369 1.107,0 2.216,0.161 3.325,0.161 1.684,0 3.364,-0.161 5.051,-0.161 0.287,0 0.574,0 0.574,0.332 0,0.92 -2.382,0.11 -3.614,1.811 -0.944,1.297 -1.437,2.855 -2.051,4.229 L -5.54,19.58 c -0.124,0.294 -0.411,1.365 -0.864,1.365 -0.533,0 -0.657,-0.591 -3.077,-5.246 l -9.83,-18.849 c -1.067,-2.109 -2.998,-1.483 -2.998,-2.258 0,-0.222 0.124,-0.407 0.371,-0.407 1.065,0 2.174,0.161 3.284,0.161 1.148,0 2.297,-0.161 3.45,-0.161 0.533,0 1.107,-0.111 1.107,0.556 0,0.959 -2.917,-0.149 -2.917,2.444 0,0.479 0.166,1.036 0.29,1.296 l 2.627,5.191 c 0.41,0.777 1.149,0.777 1.929,0.777 h 9.033 c 1.152,0 1.397,-0.554 1.808,-1.407 z m -7.759,15.699 c 0.245,0.444 0.451,0.444 0.656,0 l 4.024,-8.906 c 0.205,-0.48 0.245,-0.74 -0.656,-0.74 h -8.128 c -0.535,0 -0.823,0.148 -0.535,0.665 z"
           style="fill:#1a171b;fill-opacity:1;fill-rule:evenodd;stroke:none"
           id="path58" />
      </g>
      <g
         id="g60"
         transform="matrix(0.35277777,0,0,-0.35277777,53.435512,31.243467)">
        <path
           d="m 0,0 c 0.411,-1.004 1.272,-2.709 1.272,-3.526 0,-1.408 -2.46,-1.037 -2.46,-1.92 0,-0.369 0.656,-0.369 0.901,-0.369 1.109,0 2.219,0.161 3.325,0.161 1.684,0 3.367,-0.161 5.051,-0.161 0.287,0 0.574,0 0.574,0.332 0,0.92 -2.38,0.11 -3.612,1.811 -0.946,1.297 -1.437,2.855 -2.053,4.229 L -5.54,19.58 c -0.124,0.294 -0.411,1.365 -0.862,1.365 -0.535,0 -0.657,-0.591 -3.079,-5.246 l -9.83,-18.849 c -1.067,-2.109 -2.996,-1.483 -2.996,-2.258 0,-0.222 0.124,-0.407 0.369,-0.407 1.068,0 2.179,0.161 3.284,0.161 1.15,0 2.301,-0.161 3.45,-0.161 0.535,0 1.107,-0.111 1.107,0.556 0,0.959 -2.914,-0.149 -2.914,2.444 0,0.479 0.165,1.036 0.289,1.296 l 2.625,5.191 c 0.413,0.777 1.151,0.777 1.931,0.777 h 9.033 c 1.15,0 1.397,-0.554 1.808,-1.407 z m -7.757,15.699 c 0.248,0.444 0.451,0.444 0.656,0 l 4.024,-8.906 c 0.205,-0.48 0.247,-0.74 -0.658,-0.74 h -8.126 c -0.537,0 -0.825,0.148 -0.537,0.665 z"
           style="fill:#1a171b;fill-opacity:1;fill-rule:evenodd;stroke:none"
           id="path62" />
      </g>
      <g
         id="g64"
         transform="matrix(0.35277777,0,0,-0.35277777,59.296632,25.370952)">
        <path
           d="m 0,0 c 0,0.258 0.163,1.666 -0.411,1.703 h -6.668 c -2.536,0 -2.62,-0.555 -3.356,-2.591 -0.124,-0.369 -0.166,-0.851 -0.7,-0.851 -0.248,0 -0.413,0.259 -0.413,0.444 l 0.455,3.59 c 0.04,0.442 0,1.438 0.74,1.438 3.193,0 6.343,-0.159 11.629,-0.159 7.451,0 11.237,0.159 12.061,0.159 0.939,0 1.142,-0.218 1.184,-1.069 l 0.204,-2.958 c 0.042,-0.373 0.081,-0.815 -0.449,-0.815 -1.515,0 0.696,2.812 -3.491,2.812 H 4.897 C 3.046,1.703 3.25,1.851 3.25,-0.11 v -18.872 c 0,-3.109 3.336,-1.887 3.336,-3.036 0,-0.11 0.042,-0.444 -0.372,-0.444 -0.987,0 -2.138,0.161 -3.333,0.161 -4.6,0 -5.378,-0.161 -5.623,-0.161 -0.369,0 -0.49,0.113 -0.49,0.482 0,0.888 3.232,0.517 3.232,2.737 z"
           style="fill:#1a171b;fill-opacity:1;fill-rule:evenodd;stroke:none"
           id="path66" />
      </g>
      <g
         id="g68"
         transform="matrix(0.35277777,0,0,-0.35277777,70.306162,23.940897)">
        <path
           d="m 0,0 c 7.719,0 9.853,-2.845 11.042,-2.845 0.329,0 0.576,0.368 0.985,0.368 0.452,0 0.452,-0.591 0.577,-2.998 0.082,-1.963 0.45,-3.185 -0.248,-3.185 -0.493,0 -0.78,0.963 -0.943,1.222 -2.546,3.963 -5.462,6.371 -10.757,6.371 -8.007,0 -11.866,-4.816 -11.866,-11.704 0,-6.445 4.105,-12.887 11.987,-12.887 6.447,0 10.47,3.703 11.086,5.406 0.084,0.259 0.331,0.481 0.575,0.481 0.208,0 0.413,-0.222 0.371,-0.406 l -0.946,-3.705 c -0.042,-0.148 -2.956,-2.9 -12.192,-2.9 -8.418,0 -14.453,5.198 -14.453,12.864 C -14.782,-6.254 -8.665,0 0,0"
           style="fill:#1a171b;fill-opacity:1;fill-rule:evenodd;stroke:none"
           id="path70" />
      </g>
      <g
         id="g72"
         transform="matrix(0.35277777,0,0,-0.35277777,76.830822,25.173891)">
        <path
           d="m 0,0 c -0.039,2.695 -3.569,1.958 -3.569,2.771 0,0.331 0.326,0.404 0.656,0.404 1.517,0 2.995,-0.159 4.517,-0.159 1.277,0 2.55,0.159 3.82,0.159 0.696,0 0.78,-0.219 0.78,-0.369 C 6.204,2.068 3.253,2.771 3.253,0 v -7.979 c 0,-0.515 0,-0.666 0.613,-0.666 h 14.997 c 0.413,0 0.329,0.926 0.329,1.074 V 0 c 0,2.547 -3.073,1.92 -3.073,2.771 0,0.221 0.082,0.404 0.696,0.404 1.352,0 3.489,-0.159 4.268,-0.159 1.524,0 2.142,0.159 2.963,0.159 1.067,0 1.148,-0.369 1.148,-0.59 0,-0.665 -2.75,-0.038 -2.75,-2.585 v -19.613 c 0,-2.704 3.736,-2.037 3.736,-2.963 0,-0.111 -0.163,-0.445 -0.452,-0.445 -1.108,0 -2.38,0.162 -3.863,0.162 -2.631,0 -3.78,-0.162 -4.557,-0.162 -0.37,0 -0.986,-0.11 -0.986,0.485 0,0.886 2.87,0.368 2.87,2.702 v 8.885 c 0,0.593 0.166,0.924 -0.329,0.924 H 3.743 c -0.49,0 -0.49,-0.221 -0.49,-0.627 v -9.22 c 0,-2.519 3.893,-1.703 3.893,-2.85 0,-0.185 -0.288,-0.299 -0.657,-0.299 -0.535,0 -3.526,0.162 -5.707,0.162 -2.916,0 -3.369,-0.162 -3.532,-0.162 -0.329,0 -0.453,0.186 -0.453,0.557 0,1.072 3.203,-0.147 3.203,3.518 z"
           style="fill:#1a171b;fill-opacity:1;fill-rule:evenodd;stroke:none"
           id="path74" />
      </g>
      <g
         id="g76"
         transform="matrix(0.35277777,0,0,-0.35277777,88.231682,25.176149)">
        <path
           d="m 0,0 c -0.042,2.702 -3.325,1.962 -3.325,2.777 0,0.331 0.082,0.404 0.411,0.404 1.518,0 2.996,-0.159 4.52,-0.159 1.275,0 2.547,0.159 3.82,0.159 0.658,0 0.782,-0.073 0.782,-0.368 C 6.208,1.924 3.252,2.777 3.252,0 v -19.868 c 0,-2.516 3.654,-1.666 3.654,-2.775 0,-0.258 -0.126,-0.371 -0.824,-0.371 -0.943,0 -2.706,0.161 -4.476,0.161 -2.509,0 -3.371,-0.161 -3.946,-0.161 -0.74,0 -0.863,0.185 -0.863,0.556 0,1.073 3.203,-0.147 3.203,3.516 z"
           style="fill:#1a171b;fill-opacity:1;fill-rule:evenodd;stroke:none"
           id="path78" />
      </g>
    </g>
  </g>
</svg>
