<?xml version="1.0" encoding="utf-8"?>
<!-- Generator: Adobe Illustrator 18.0.0, SVG Export Plug-In . SVG Version: 6.00 Build 0)  -->
<!DOCTYPE svg PUBLIC "-//W3C//DTD SVG 1.1//EN" "http://www.w3.org/Graphics/SVG/1.1/DTD/svg11.dtd" [
	<!ENTITY ns_extend "http://ns.adobe.com/Extensibility/1.0/">
	<!ENTITY ns_ai "http://ns.adobe.com/AdobeIllustrator/10.0/">
	<!ENTITY ns_graphs "http://ns.adobe.com/Graphs/1.0/">
	<!ENTITY ns_vars "http://ns.adobe.com/Variables/1.0/">
	<!ENTITY ns_imrep "http://ns.adobe.com/ImageReplacement/1.0/">
	<!ENTITY ns_sfw "http://ns.adobe.com/SaveForWeb/1.0/">
	<!ENTITY ns_custom "http://ns.adobe.com/GenericCustomNamespace/1.0/">
	<!ENTITY ns_adobe_xpath "http://ns.adobe.com/XPath/1.0/">
]>
<svg version="1.1" id="Layer_1" xmlns:x="&ns_extend;" xmlns:i="&ns_ai;" xmlns:graph="&ns_graphs;"
	 xmlns="http://www.w3.org/2000/svg" xmlns:xlink="http://www.w3.org/1999/xlink" x="0px" y="0px" viewBox="0 0 612 200"
	 enable-background="new 0 0 612 200" xml:space="preserve">
<metadata>
	<sfw  xmlns="&ns_sfw;">
		<slices></slices>
		<sliceSourceBounds  width="200" height="164.8" x="206" y="17.6" bottomLeftOrigin="true"></sliceSourceBounds>
	</sfw>
</metadata>
<path fill="#FFFFFF" d="M276,17.6c-3.6,0-7.3,0.3-10.9,0.9c0.1,0.7,0.1,1.4,0.1,2c0,9.5-7.7,17.2-17.2,17.2
	c-5.2,0-10.2-2.4-13.5-6.5c-5.8,4.2-10.8,9.3-15.1,15.1c4.1,3.3,6.5,8.2,6.5,13.5c0,9.5-7.7,17.2-17.2,17.2c-0.6,0-1.2,0-1.9-0.1
	c-0.6,3.5-0.9,7.1-0.9,10.7c0,3.7,0.3,7.4,0.9,11c0.6-0.1,1.2-0.1,1.9-0.1c9.5,0,17.2,7.7,17.2,17.2c0,0,0,0,0,0
	c0,5.2-2.3,10-6.3,13.3c4.2,5.8,9.3,10.8,15.1,15c3.3-4,8.1-6.3,13.3-6.3c9.5,0,17.2,7.7,17.2,17.2c0,0,0,0,0,0c0,0.6,0,1.1-0.1,1.7
	c3.6,0.6,7.2,0.9,10.8,0.9c3.6,0,7.2-0.3,10.8-0.9c-0.1-0.6-0.1-1.1-0.1-1.7c0-9.5,7.7-17.2,17.2-17.2c0,0,0,0,0,0
	c5.1,0,10,2.3,13.3,6.3c5.8-4.2,10.8-9.3,15.1-15c-4-3.3-6.3-8.2-6.3-13.3c0-9.5,7.7-17.2,17.2-17.2c0,0,0,0,0,0
	c0.6,0,1.2,0,1.8,0.1c0.6-3.6,0.9-7.3,1-11c0-3.6-0.3-7.1-0.9-10.7c-0.6,0.1-1.3,0.1-1.9,0.1c-9.5,0-17.2-7.7-17.2-17.2l0,0
	c0-5.2,2.4-10.2,6.5-13.4c-4.2-5.8-9.3-10.9-15-15.1c-3.3,4.1-8.2,6.5-13.5,6.5c-9.5,0-17.2-7.7-17.2-17.2c0,0,0,0,0,0
	c0-0.7,0.1-1.3,0.1-2C283.2,17.9,279.6,17.6,276,17.6z M276,62.4c14.1,0,25.4,11.4,25.4,25.4c0,0,0,0,0,0
	c0,14.1-11.4,25.4-25.4,25.4c0,0,0,0,0,0c-14.1,0-25.4-11.4-25.4-25.4c0,0,0,0,0,0C250.5,73.8,261.9,62.4,276,62.4
	C276,62.4,276,62.4,276,62.4L276,62.4z M370,110.4L370,110.4c-1.9,0-3.7,0.2-5.6,0.5c0,0.3,0.1,0.7,0.1,1.1c0,4.9-4,8.9-8.9,8.9
	c-2.7,0-5.2-1.2-6.9-3.3c-3,2.2-5.6,4.8-7.8,7.8c2.1,1.7,3.3,4.2,3.3,6.9c0,4.9-4,8.9-8.9,8.9c-0.3,0-0.6,0-1-0.1
	c-0.3,1.8-0.5,3.7-0.5,5.5c0,1.9,0.2,3.8,0.5,5.7c0.3,0,0.6,0,1,0c4.9,0,8.9,4,8.9,8.9c0,2.7-1.2,5.2-3.2,6.8c2.2,3,4.8,5.6,7.8,7.7
	c1.7-2,4.2-3.2,6.8-3.2c4.9,0,8.9,4,8.9,8.9c0,0.3,0,0.6,0,0.9c1.8,0.3,3.7,0.5,5.6,0.5c1.9,0,3.7-0.2,5.6-0.5c0-0.3,0-0.6,0-0.9
	c0-4.9,4-8.9,8.9-8.9c0,0,0,0,0,0c2.7,0,5.2,1.2,6.8,3.2c3-2.2,5.6-4.8,7.8-7.7c-2.1-1.7-3.3-4.2-3.3-6.9c0-4.9,4-8.9,8.9-8.9
	c0,0,0,0,0,0c0.3,0,0.6,0,0.9,0c0.3-1.9,0.5-3.8,0.5-5.7c0-1.8-0.2-3.7-0.4-5.5c-0.3,0-0.6,0-1,0c-4.9,0-8.9-4-8.9-8.9c0,0,0,0,0,0
	c0-2.7,1.2-5.2,3.3-6.9c-2.2-3-4.8-5.6-7.7-7.8c-1.7,2.1-4.2,3.3-6.9,3.3c-4.9,0-8.9-4-8.9-8.9c0-0.3,0-0.7,0.1-1
	C373.7,110.5,371.8,110.4,370,110.4L370,110.4z M370,133.5c7.2,0,13.1,5.9,13.1,13.1c0,0,0,0,0,0c0,7.2-5.9,13.1-13.1,13.1
	c0,0,0,0,0,0c-7.2,0-13.1-5.9-13.1-13.1c0,0,0,0,0,0C356.9,139.3,362.7,133.5,370,133.5C370,133.5,370,133.5,370,133.5L370,133.5z"
	/>
</svg>
