<?xml version="1.0" encoding="utf-8"?>
<!-- Generator: Adobe Illustrator 18.0.0, SVG Export Plug-In . SVG Version: 6.00 Build 0)  -->
<!DOCTYPE svg PUBLIC "-//W3C//DTD SVG 1.1//EN" "http://www.w3.org/Graphics/SVG/1.1/DTD/svg11.dtd" [
	<!ENTITY ns_extend "http://ns.adobe.com/Extensibility/1.0/">
	<!ENTITY ns_ai "http://ns.adobe.com/AdobeIllustrator/10.0/">
	<!ENTITY ns_graphs "http://ns.adobe.com/Graphs/1.0/">
	<!ENTITY ns_vars "http://ns.adobe.com/Variables/1.0/">
	<!ENTITY ns_imrep "http://ns.adobe.com/ImageReplacement/1.0/">
	<!ENTITY ns_sfw "http://ns.adobe.com/SaveForWeb/1.0/">
	<!ENTITY ns_custom "http://ns.adobe.com/GenericCustomNamespace/1.0/">
	<!ENTITY ns_adobe_xpath "http://ns.adobe.com/XPath/1.0/">
]>
<svg version="1.1" id="Layer_1" xmlns:x="&ns_extend;" xmlns:i="&ns_ai;" xmlns:graph="&ns_graphs;"
	 xmlns="http://www.w3.org/2000/svg" xmlns:xlink="http://www.w3.org/1999/xlink" x="0px" y="0px" viewBox="0 0 612 200"
	 enable-background="new 0 0 612 200" xml:space="preserve">
<metadata>
	<sfw  xmlns="&ns_sfw;">
		<slices></slices>
		<sliceSourceBounds  width="258.4" height="200" x="176.8" y="0" bottomLeftOrigin="true"></sliceSourceBounds>
	</sfw>
</metadata>
<path fill="#FFFFFF" d="M332.6,0c-28.2,0-51.1,11.3-51.1,25.3c0,14,22.9,25.3,51.1,25.3c28.2,0,51.1-11.3,51.1-25.3
	C383.7,11.3,360.8,0,332.6,0z M286,39.4c-3,3.3-4.5,6.8-4.5,10.4c0,14,22.9,25.3,51.1,25.3c28.2,0,51.1-11.3,51.1-25.3
	c0-3.6-1.6-7.1-4.6-10.4c-2.6,2.3-5.7,4.4-9.2,6.1c-9.7,4.8-22.8,7.7-37.3,7.7c-14.5,0-27.6-2.9-37.3-7.7
	C291.7,43.8,288.6,41.7,286,39.4z M286,63.9c-3,3.3-4.5,6.8-4.5,10.4c0,14,22.9,25.3,51.1,25.3c28.2,0,51.1-11.3,51.1-25.3
	c0-3.6-1.6-7.1-4.6-10.4c-2.6,2.3-5.7,4.4-9.2,6.1c-9.7,4.8-22.8,7.7-37.3,7.7c-14.5,0-27.6-2.9-37.3-7.7
	C291.7,68.3,288.6,66.3,286,63.9z M227.9,75.9c-28.2,0-51.1,11.3-51.1,25.3c0,0,0,0,0,0c0,14,22.9,25.3,51.1,25.3c0,0,0,0,0,0
	c28.2,0,51.1-11.3,51.1-25.3C279,87.2,256.2,75.9,227.9,75.9L227.9,75.9z M286,88.4c-3,3.3-4.5,6.8-4.5,10.4
	c0,14,22.9,25.3,51.1,25.3c0.6,0,1.1-0.1,1.7-0.1c5.3-10.7,13.8-19.6,24.3-25.4c-7.7,2.2-16.5,3.5-26,3.5c-14.5,0-27.6-2.9-37.3-7.7
	C291.7,92.8,288.6,90.7,286,88.4L286,88.4z M386.9,101.9c-26.7,0-48.3,21.6-48.3,48.3c0,0,0,0,0,0c0,26.7,21.6,48.3,48.3,48.3
	c0,0,0,0,0,0c26.7,0,48.3-21.6,48.3-48.3c0,0,0,0,0,0C435.2,123.5,413.5,101.9,386.9,101.9C386.9,101.9,386.9,101.9,386.9,101.9z
	 M286,112.9c-3,3.3-4.5,6.8-4.5,10.4c0,13.1,20.3,24.1,46.7,25.2c0.2-7.5,1.8-14.9,4.8-21.8h-0.4c-14.5,0-27.6-2.9-37.3-7.7
	C291.7,117.2,288.6,115.2,286,112.9L286,112.9z M181.4,115.3c-3,3.3-4.5,6.8-4.5,10.4c0,14,22.9,25.3,51.1,25.3
	c28.2,0,51.1-11.3,51.1-25.3c0,0,0,0,0,0c0-3.6-1.6-7.1-4.6-10.4c-2.6,2.3-5.7,4.4-9.2,6.1c-9.7,4.8-22.8,7.7-37.3,7.7
	c-14.5,0-27.6-2.9-37.3-7.7C187.1,119.7,183.9,117.6,181.4,115.3L181.4,115.3z M286,137.5c-3,3.3-4.5,6.8-4.5,10.4
	c0,14,22.9,25.3,51.1,25.3h0.2c-3-7-4.6-14.5-4.7-22.1c-12.7-0.5-24.2-3.2-32.9-7.5C291.7,141.8,288.6,139.8,286,137.5z
	 M181.4,139.8c-3,3.3-4.5,6.8-4.5,10.4c0,14,22.9,25.3,51.1,25.3c28.2,0,51.1-11.3,51.1-25.3c0,0,0,0,0,0c0-3.6-1.6-7.1-4.6-10.4
	c-2.6,2.3-5.7,4.4-9.2,6.1c-9.7,4.8-22.8,7.7-37.3,7.7c-14.5,0-27.6-2.9-37.3-7.7C187.1,144.2,183.9,142.1,181.4,139.8L181.4,139.8z
	 M286,162c-3,3.3-4.5,6.8-4.5,10.4c0,14,22.9,25.3,51.1,25.3c6,0,12-0.6,17.7-1.6c-6.9-5.5-12.4-12.5-16.2-20.4
	c-0.5,0-0.9,0.1-1.4,0.1c-14.5,0-27.6-2.9-37.3-7.7C291.7,166.3,288.6,164.3,286,162L286,162z M181.4,164.3c-3,3.3-4.5,6.8-4.5,10.4
	c0,14,22.9,25.3,51.1,25.3c28.2,0,51.1-11.3,51.1-25.3c0,0,0,0,0,0c0-3.6-1.6-7.1-4.6-10.4c-2.6,2.3-5.7,4.4-9.2,6.1
	c-9.7,4.8-22.8,7.7-37.3,7.7c-14.5,0-27.6-2.9-37.3-7.7C187.1,168.7,183.9,166.6,181.4,164.3L181.4,164.3z"/>
</svg>
