<?xml version="1.0" encoding="utf-8"?>
<!-- Generator: Adobe Illustrator 18.0.0, SVG Export Plug-In . SVG Version: 6.00 Build 0)  -->
<!DOCTYPE svg PUBLIC "-//W3C//DTD SVG 1.1//EN" "http://www.w3.org/Graphics/SVG/1.1/DTD/svg11.dtd" [
	<!ENTITY ns_extend "http://ns.adobe.com/Extensibility/1.0/">
	<!ENTITY ns_ai "http://ns.adobe.com/AdobeIllustrator/10.0/">
	<!ENTITY ns_graphs "http://ns.adobe.com/Graphs/1.0/">
	<!ENTITY ns_vars "http://ns.adobe.com/Variables/1.0/">
	<!ENTITY ns_imrep "http://ns.adobe.com/ImageReplacement/1.0/">
	<!ENTITY ns_sfw "http://ns.adobe.com/SaveForWeb/1.0/">
	<!ENTITY ns_custom "http://ns.adobe.com/GenericCustomNamespace/1.0/">
	<!ENTITY ns_adobe_xpath "http://ns.adobe.com/XPath/1.0/">
]>
<svg version="1.1" id="Layer_1" xmlns:x="&ns_extend;" xmlns:i="&ns_ai;" xmlns:graph="&ns_graphs;"
	 xmlns="http://www.w3.org/2000/svg" xmlns:xlink="http://www.w3.org/1999/xlink" x="0px" y="0px" viewBox="0 0 612 200"
	 enable-background="new 0 0 612 200" xml:space="preserve">
<metadata>
	<sfw  xmlns="&ns_sfw;">
		<slices></slices>
		<sliceSourceBounds  width="192.8" height="200" x="209.6" y="0" bottomLeftOrigin="true"></sliceSourceBounds>
	</sfw>
</metadata>
<path fill="#FFFFFF" d="M240.7,0v55.9l-31.1,24l0.9,120.1h191.9l-0.3-120.2l-31.7-23.6V0H240.7z M257.1,16.4H354v86.8l-20.3,17.1
	L307.3,94l-28.7,28.7l-21.5-19.3V16.4z M273.9,36.5v8.2H340v-8.2H273.9z M273.9,54.3v8.2H340v-8.2H273.9z M273.9,70.8V79h34.8v-8.2
	H273.9z M370.4,76.6l8.1,6l-8.1,6.8V76.6z M240.7,76.7v12l-7.2-6.5L240.7,76.7z M226.1,97.1l41.2,37l-40.6,40.6L226.1,97.1z
	 M385.7,98l0.2,74.6L345.3,132L385.7,98z M307.3,117.2l66.4,66.4H241L307.3,117.2z"/>
</svg>
