<?xml version="1.0" encoding="utf-8"?>
<!-- Generator: Adobe Illustrator 18.0.0, SVG Export Plug-In . SVG Version: 6.00 Build 0)  -->
<!DOCTYPE svg PUBLIC "-//W3C//DTD SVG 1.1//EN" "http://www.w3.org/Graphics/SVG/1.1/DTD/svg11.dtd" [
	<!ENTITY ns_extend "http://ns.adobe.com/Extensibility/1.0/">
	<!ENTITY ns_ai "http://ns.adobe.com/AdobeIllustrator/10.0/">
	<!ENTITY ns_graphs "http://ns.adobe.com/Graphs/1.0/">
	<!ENTITY ns_vars "http://ns.adobe.com/Variables/1.0/">
	<!ENTITY ns_imrep "http://ns.adobe.com/ImageReplacement/1.0/">
	<!ENTITY ns_sfw "http://ns.adobe.com/SaveForWeb/1.0/">
	<!ENTITY ns_custom "http://ns.adobe.com/GenericCustomNamespace/1.0/">
	<!ENTITY ns_adobe_xpath "http://ns.adobe.com/XPath/1.0/">
]>
<svg version="1.1" id="Layer_1" xmlns:x="&ns_extend;" xmlns:i="&ns_ai;" xmlns:graph="&ns_graphs;"
	 xmlns="http://www.w3.org/2000/svg" xmlns:xlink="http://www.w3.org/1999/xlink" x="0px" y="0px" viewBox="0 0 612 200"
	 enable-background="new 0 0 612 200" xml:space="preserve">
<metadata>
	<sfw  xmlns="&ns_sfw;">
		<slices></slices>
		<sliceSourceBounds  width="200" height="198.7" x="206" y="0.6" bottomLeftOrigin="true"></sliceSourceBounds>
	</sfw>
</metadata>
<path fill="#FFFFFF" d="M237.5,0.6c-17.3,0-31.5,14.2-31.5,31.5v135.8c0,17.3,14.2,31.5,31.5,31.5h137.1c17.3,0,31.4-14.2,31.4-31.5
	V32.1c0-17.3-14.1-31.5-31.4-31.5H237.5z M237.5,14.2h137.1c10.1,0,17.9,7.9,17.9,17.9v23.3h-16v18h16v55h-48.2v18h48.1v21.4
	c0,10.1-7.9,17.9-17.9,17.9H237.5c-10.1,0-18-7.9-18-17.9v-21.4h20.7v-18h-20.7v-55h85.2v-18h-85.2V32.1
	C219.5,22,227.4,14.2,237.5,14.2z M323.5,41c-6.2,0.1-11.2,5.2-11.1,11.4v24c0,6.2,5,11.3,11.3,11.3c6.2,0,11.3-5,11.3-11.3
	c0,0,0,0,0,0v-24c0.1-6.2-4.9-11.3-11.1-11.4C323.7,41,323.6,41,323.5,41z M354.8,41c-6.2,0.1-11.2,5.2-11.1,11.4v24
	c0,6.2,5,11.3,11.3,11.3c6.2,0,11.3-5,11.3-11.3v-24c0.1-6.2-4.9-11.3-11.1-11.4C355.1,41,354.9,41,354.8,41z M260.5,114.1
	c-6.2,0.1-11.2,5.2-11.1,11.4v24c0,6.2,5,11.3,11.3,11.3c6.2,0,11.3-5,11.3-11.3v-24c0.1-6.2-4.9-11.3-11.1-11.4
	C260.7,114.1,260.6,114.1,260.5,114.1L260.5,114.1z M291.8,114.1c-6.2,0.1-11.2,5.2-11.1,11.4v24c0,6.2,5,11.3,11.3,11.3
	c6.2,0,11.3-5,11.3-11.3v-24c0.1-6.2-4.9-11.3-11.1-11.4C292,114.1,291.9,114.1,291.8,114.1L291.8,114.1z M323.1,114.1
	c-6.2,0.1-11.2,5.2-11.1,11.4v24c-0.2,6.2,4.7,11.4,11,11.6c6.2,0.2,11.4-4.7,11.6-11c0-0.2,0-0.4,0-0.6v-24
	c0.1-6.2-4.9-11.3-11.1-11.4C323.3,114.1,323.2,114.1,323.1,114.1L323.1,114.1z"/>
</svg>
