<svg xmlns="http://www.w3.org/2000/svg" viewBox="0 0 100 100">
  <path fill="#fe7500" d="M55.465 41.428a6.795 6.795 0 0 0-3.608.902c-1.159.659-2.197 1.676-2.82 3.057-.623 1.381-.703 3.228.191 4.857l.008.015 9.532 16.475c-.896-.065-.979-.21-2.045-.139-1.523.102-3.153.386-4.63 1.211-1.475.826-2.769 2.382-3.04 4.399-.273 2.028.54 3.876 1.705 5.152 1.164 1.276 2.64 2.132 4.074 2.783a24.992 24.992 0 0 0 5.543 1.735c7.355 2.598 8.54 5.532 12.484 8.968l1.034.909 1.181-.715L96.008 78.42l-1.313-1.682c-3.247-4.152-3.684-7.607-4.039-11.412-.355-3.805-.574-8.046-3.697-12.291-1.615-2.195-4.186-3.068-6.695-3.19-2.51-.121-5.114.404-7.524 1.116-3.87 1.143-5.975 2.335-7.168 2.95l-5.306-9.757-.053-.074c-1.047-1.549-2.646-2.413-4.178-2.605a6.996 6.996 0 0 0-.57-.047zm-.362 3.781c.159-.011.313-.011.46.011.58.073 1.043.278 1.505.952 2.673 4.872 5.302 9.768 8.002 14.625.602 1.108 2.264.205 1.662-.903l-1.064-1.963c.056-.03.956-.505 2.28-1.113.347.034.707.09 1.062.196 1.036.31 1.923.922 2.195 1.478a.947.947 0 1 0 1.701-.834c-.46-.942-1.288-1.571-2.209-2.008a42.545 42.545 0 0 1 2.065-.734 5.786 5.786 0 0 1 1.994.066c1.056.231 1.988.773 2.3 1.307a.945.945 0 1 0 1.626-.952c-.392-.667-.97-1.15-1.625-1.51 1.073-.174 2.104-.259 3.021-.214 1.825.09 3.05.583 3.838 1.654 2.479 3.37 2.612 6.497 2.977 10.409.316 3.392 1.22 7.36 3.837 11.515l-16.365 9.861c-2.922-2.82-5.415-6.19-12.86-8.79l-.148-.06-.162-.022s-2.494-.438-4.799-1.485c-1.152-.523-2.22-1.2-2.85-1.888-.628-.69-.86-1.24-.743-2.104.118-.875.43-1.214 1.136-1.61.707-.394 1.841-.65 3.034-.73 2.385-.159 4.82.325 4.82.325l2.148.338.565-.588L52.537 48.4c-.325-.602-.285-.964-.06-1.461.226-.503.758-1.05 1.248-1.329.4-.227.904-.375 1.378-.404zM33.564 8.25c-16.307 0-29.572 13.256-29.572 29.564 0 16.307 13.265 29.572 29.572 29.572 6.945 0 13.33-2.413 18.38-6.434l-1.901-3.287c-.429.356-.879.686-1.33 1.014l-4.983-8.393c-.743-1.328-1.806-2.788-2.953-3.84-.125-.996.508-2.088 1.014-2.863l.264-2.908c.065-.401.564-1.202 1.035-1.588l1.64-1.346.075-4.627c.094-.462-.89-1.95-.795-2.535 0-1.042 1.344-7.684-.965-10.248-.57-.632-1.559-.457-2.186-.988-1.671-1.415-3.725-2.045-6.113-2.115-8.27-.044-11.56 4.015-10.52 12.816.07.588-.576 2.028-.482 2.49l.52 5.12 1.552 1.433c.496.458.97 1.187 1.036 1.588l.263 2.908c.506.775 1.14 1.867 1.014 2.864-1.146 1.051-1.72 2.423-2.463 3.751-4.14 1.11-8.209 2.364-11.6 4.504a25.695 25.695 0 0 1-6.293-16.888c0-14.265 11.526-25.785 25.791-25.785 14.266 0 25.786 11.52 25.786 25.785 0 .502-.017 1-.045 1.496a9.114 9.114 0 0 1 3.527 2.66c.192-1.359.297-2.745.297-4.156 0-16.308-13.257-29.565-29.565-29.565z" color="#000" font-family="sans-serif" font-weight="400" overflow="visible" style="line-height:normal;font-variant-ligatures:normal;font-variant-position:normal;font-variant-caps:normal;font-variant-numeric:normal;font-variant-alternates:normal;font-feature-settings:normal;text-indent:0;text-align:start;text-decoration-line:none;text-decoration-style:solid;text-decoration-color:#000;text-transform:none;text-orientation:mixed;shape-padding:0;isolation:auto;mix-blend-mode:normal" white-space="normal"></path>
</svg>