<svg xmlns="http://www.w3.org/2000/svg" viewBox="0 0 100 100">
  <path fill="#fc7800" d="M53.751 43.482v4.598h14.911v-4.598zm-12.658-.179c-8.923.87-3.903 10.756-2.535 11.176-.001.592.009 1.32-1.059 1.662l-3.771 1.194c-2.031.422-2.933 2.06-2.809 4.517h20.35c.124-2.457-.78-4.095-2.81-4.517l-3.376-1.13c-1.068-.343-.947-1.087-.948-1.678 1.466-.62 6.228-10.74-3.042-11.224zm-15.644-27.12v4.533h49.104v-4.533zm-4.2 7.855v4.532h57.505v-4.532zm-4.09 8.459l.192 3.02 1.677 26.425h5.68l-1.51-23.775h52.809l-1.39 23.775h5.677l1.73-29.445zm-2.784 34.345h71.25l-3.788 16.975H18.163zm43.886-8.508v3.824H68.53v-3.824zm-4.377-7.537v4.606h14.911v-4.606z" color="#000" font-family="sans-serif" font-weight="400" overflow="visible" style="line-height:normal;font-variant-ligatures:normal;font-variant-position:normal;font-variant-caps:normal;font-variant-numeric:normal;font-variant-alternates:normal;font-feature-settings:normal;text-indent:0;text-align:start;text-decoration-line:none;text-decoration-style:solid;text-decoration-color:#000;text-transform:none;text-orientation:mixed;shape-padding:0;isolation:auto;mix-blend-mode:normal" white-space="normal"></path>
</svg>