<svg xmlns="http://www.w3.org/2000/svg" viewBox="0 0 100 100">
  <path fill="#fe7801" d="M63.018 44.157A22.223 18.562 0 0 0 40.795 62.72a22.223 18.562 0 0 0 22.223 18.56 22.223 18.562 0 0 0 7.279-1.045c3.5 2.03 7.861 3.533 14.44 4.204-.37-.64-3.17-5.781-3.657-10.932a22.223 18.562 0 0 0 4.16-10.787 22.223 18.562 0 0 0-22.222-18.563zm-8.965 15.531a2.904 2.904 0 0 1 2.904 2.905 2.904 2.904 0 0 1-2.904 2.904 2.904 2.904 0 0 1-2.905-2.904 2.904 2.904 0 0 1 2.905-2.905zm8.933 0a2.904 2.904 0 0 1 2.905 2.905 2.904 2.904 0 0 1-2.905 2.904 2.904 2.904 0 0 1-2.904-2.904 2.904 2.904 0 0 1 2.904-2.905zm8.934 0a2.904 2.904 0 0 1 2.904 2.905 2.904 2.904 0 0 1-2.904 2.904 2.904 2.904 0 0 1-2.904-2.904 2.904 2.904 0 0 1 2.904-2.905zM46.732 15.562c-17.21 0-31.625 12.07-31.625 27.46 0 5.813 2.063 11.146 5.55 15.538a33.978 33.978 0 0 1-2.321 9.457 32.256 32.256 0 0 1-3.576 6.523 79.855 79.855 0 0 0 7.588-1.7v-.001h.002a74.213 74.213 0 0 0 13.033-4.965c-.48-2.195-.333-4.202.013-6.301-3.06 1.64-6.958 3.297-10.414 4.49.98-2.87 1.66-5.974 2.008-8.923-3.886-3.834-6.213-8.786-6.213-14.118 0-11.807 11.366-21.79 25.955-21.79 13.52 0 24.262 8.573 25.766 19.226a30.311 30.311 0 0 1 5.855 2.51C78.32 27.604 63.922 15.56 46.733 15.56z" paint-order="fill markers stroke"></path>
</svg>