<svg xmlns="http://www.w3.org/2000/svg" viewBox="0 0 100 100">
  <g fill="#ff7800">
    <path d="M30.181 76.66l4.266-4.265 3.597 3.597-4.265 4.266zM66.221 40.62l-4.265 4.266 3.597 3.598 4.266-4.266zM24.516 57.896h6.032v5.087h-6.032zM75.484 57.896h-6.032v5.087h6.032zM33.779 40.62l4.265 4.266-3.597 3.598-4.266-4.266zM69.819 76.66l-4.266-4.265-3.597 3.597 4.265 4.266zM52.543 85.921v-6.03h-5.085v6.03z" paint-order="fill markers stroke"></path>
    <path d="M36.242 6.054v9.883h6.214v5.221c-18.431 3.444-32.46 19.666-32.46 39.069 0 21.895 17.86 39.769 39.754 39.769 21.895 0 39.769-17.874 39.769-39.77 0-9.171-3.17-17.609-8.426-24.348l3.42-3.798 2.701 2.432 6.14-6.814-13.857-12.484-6.14 6.814 2.697 2.427-3.17 3.52c-4.512-3.246-9.703-5.596-15.34-6.725v-5.313h6.214V6.054zM49.75 31.642c15.86 0 28.6 12.725 28.6 28.585a28.522 28.522 0 0 1-28.6 28.604A28.512 28.512 0 0 1 21.16 60.227 28.496 28.496 0 0 1 49.75 31.642z" paint-order="fill markers stroke"></path>
    <path d="M50 34.158L46.384 56.68a7.454 7.454 0 0 0-3.84 6.51A7.454 7.454 0 0 0 50 70.644a7.454 7.454 0 0 0 7.456-7.456 7.454 7.454 0 0 0-3.84-6.513z" paint-order="fill markers stroke"></path>
  </g>
</svg>