<svg xmlns="http://www.w3.org/2000/svg" viewBox="0 0 100 100">
  <g fill="#ff7800">
    <path d="M65.506 34.572l-.175 13.5 17.407 17.427 13.558-13.512-17.415-17.415zm6.543 3.377a3.407 3.407 0 0 1 3.408 3.408 3.407 3.407 0 0 1-3.408 3.408 3.407 3.407 0 0 1-3.404-3.408 3.407 3.407 0 0 1 3.404-3.408z"></path>
    <path d="M51.25.022c-10.904 0-19.817 8.913-19.817 19.816 0 2.23.39 4.371 1.077 6.375h7.055a13.314 13.314 0 0 1-1.609-6.375A13.24 13.24 0 0 1 51.25 6.546a13.24 13.24 0 0 1 13.293 13.292c0 2.316-.583 4.487-1.608 6.375h7.054a19.63 19.63 0 0 0 1.078-6.375C71.066 8.935 62.153.022 51.249.022z" color="#000" font-family="sans-serif" font-weight="400" overflow="visible" paint-order="fill markers stroke" style="line-height:normal;font-variant-ligatures:normal;font-variant-position:normal;font-variant-caps:normal;font-variant-numeric:normal;font-variant-alternates:normal;font-feature-settings:normal;text-indent:0;text-align:start;text-decoration-line:none;text-decoration-style:solid;text-decoration-color:#000;text-transform:none;text-orientation:mixed;shape-padding:0;isolation:auto;mix-blend-mode:normal" white-space="normal"></path>
    <path d="M16.002 100l3.034-65.333H59.18V52.84l24.095 24.095L84.711 100z"></path>
  </g>
</svg>