<svg xmlns="http://www.w3.org/2000/svg" width="80" height="80" viewBox="0 0 21.167 21.167"><g transform="translate(-87.69 -95.917)"><path d="M98.01 95.916v2.125h.529v-2.125zm-4.798 1.286l-.459.264 1.063 1.84.458-.264zm10.125 0l-1.062 1.84.458.265 1.062-1.84zm-14.096 3.777l-.265.458 1.84 1.063.265-.459zm18.067 0l-1.84 1.062.264.459 1.84-1.063zm-19.618 5.256v.53h2.125v-.53zm19.043 0v.53h2.125v-.53zM90.816 110.5l-1.84 1.063.265.458 1.84-1.062zm14.916 0l-.264.459 1.84 1.062.264-.458zm-11.916 3.193l-1.063 1.84.459.265 1.062-1.84zm8.917 0l-.458.265 1.062 1.84.458-.264zm-4.723 1.266v2.125h.529v-2.125z" color="#000" font-family="sans-serif" font-weight="400" overflow="visible" style="line-height:normal;font-variant-ligatures:normal;font-variant-position:normal;font-variant-caps:normal;font-variant-numeric:normal;font-variant-alternates:normal;font-feature-settings:normal;text-indent:0;text-align:start;text-decoration-line:none;text-decoration-style:solid;text-decoration-color:#000;text-transform:none;text-orientation:mixed;shape-padding:0;isolation:auto;mix-blend-mode:normal"/><path fill="#333" d="M97.347 95.956l-.36.038.056.525.36-.038zm1.853 0l-.055.525.36.038.055-.525zm-2.95.154l-.353.075.11.518.353-.076zm4.047 0l-.11.517.354.076.11-.518zm-5.122.269l-.344.112.164.502.344-.112zm6.197 0l-.163.502.344.112.163-.502zm-7.237.379l-.331.147.215.483.33-.147zm8.278 0l-.215.483.33.147.216-.483zM92.2 97.831l-.292.213.31.428.293-.213zm12.149 0l-.31.428.292.213.31-.428zm-13.021.683l-.27.242.355.393.268-.242zm13.894 0l-.353.393.268.242.354-.393zm-14.691.77l-.242.269.392.354.243-.27zm15.488 0l-.393.353.242.27.392-.354zm-16.2.849l-.212.292.427.311.213-.292zm16.912 0l-.428.31.213.293.427-.31zm-18.051 1.898l-.147.33.483.215.147-.33zm19.19 0l-.483.214.147.33.483-.214zm-19.605 1.027l-.112.343.503.164.112-.344zm20.019 0l-.502.163.111.344.503-.164zm-20.324 1.065l-.075.354.517.109.075-.354zm20.63 0l-.518.11.076.353.516-.11zm-20.822 1.09l-.037.361.525.055.038-.36zm21.013 0l-.525.056.037.36.526-.055zm-20.525 2.158l-.526.055.038.36.526-.055zm20.037 0l-.037.36.525.055.038-.36zm-19.891 1.043l-.517.11.075.353.517-.11zm19.746 0l-.076.353.517.11.075-.354zm-19.492 1.02l-.503.165.113.343.502-.163zm19.237 0l-.111.345.502.163.112-.343zm-18.877.99l-.483.215.147.33.483-.214zm18.518 0l-.147.33.483.215.147-.33zm-17.5 1.84l-.427.31.212.293.428-.31zm16.482 0l-.213.292.428.311.212-.292zm-15.835.83l-.392.353.242.27.393-.354zm15.187 0l-.242.269.393.353.241-.269zm-.731.757l-.268.242.353.393.269-.242zm-13.724 0l-.354.393.269.242.353-.393zm.805.677l-.31.428.292.213.311-.428zm12.113 0l-.293.213.31.428.294-.213zm-10.311 1.084l-.215.483.33.147.216-.483zm8.51 0l-.33.147.214.483.33-.147zm-7.534.395l-.164.502.344.112.164-.502zm6.558 0l-.344.112.163.502.344-.112zm-5.547.29l-.11.518.354.075.11-.517zm4.535 0l-.354.076.11.517.354-.075zm-3.498.184l-.055.525.36.038.055-.525zm2.462 0l-.36.038.055.525.36-.038z" color="#000" font-family="sans-serif" font-weight="400" overflow="visible" style="line-height:normal;font-variant-ligatures:normal;font-variant-position:normal;font-variant-caps:normal;font-variant-numeric:normal;font-variant-alternates:normal;font-feature-settings:normal;text-indent:0;text-align:start;text-decoration-line:none;text-decoration-style:solid;text-decoration-color:#000;text-transform:none;text-orientation:mixed;shape-padding:0;isolation:auto;mix-blend-mode:normal"/><circle cx="98.274" cy="106.5" r=".614" fill="none" stroke="#000" stroke-linecap="round" stroke-width=".529" opacity=".66" paint-order="fill markers stroke"/><g stroke-width=".067" font-size="2.695" font-weight="400" letter-spacing="0" word-spacing="0"><g style="line-height:1.25;-inkscape-font-specification:serif"><path d="M105.646 105.991q0 .185-.104.302-.102.117-.292.156v.01q.232.03.344.148.112.119.112.31 0 .276-.191.425-.191.147-.542.147-.153 0-.28-.024-.127-.022-.247-.08v-.208q.125.062.266.095.142.031.269.031.498 0 .498-.39 0-.35-.55-.35h-.19v-.189h.193q.225 0 .356-.098.132-.1.132-.277 0-.14-.097-.22-.096-.081-.262-.081-.127 0-.238.034-.112.034-.256.126l-.11-.147q.118-.093.272-.146.155-.054.327-.054.28 0 .435.129.155.128.155.351z" aria-label="3" font-family="Open Sans" style="-inkscape-font-specification:'Open Sans'"/></g><g style="line-height:1.25;-inkscape-font-specification:serif"><path d="M92.155 106.36q0 1.129-.874 1.129-.153 0-.242-.026v-.189q.105.035.24.035.315 0 .476-.195.162-.196.176-.6h-.016q-.072.109-.192.167-.12.057-.27.057-.255 0-.405-.153-.15-.153-.15-.426 0-.3.167-.474.169-.174.442-.174.196 0 .343.101.147.1.226.294.079.192.079.454zm-.648-.662q-.188 0-.29.121-.103.121-.103.337 0 .19.095.299.094.108.288.108.12 0 .22-.05.101-.048.159-.132.058-.084.058-.176 0-.139-.054-.256-.054-.117-.152-.184-.096-.067-.22-.067z" aria-label="9" font-family="Open Sans" style="-inkscape-font-specification:'Open Sans'"/></g><g style="line-height:1.25;-inkscape-font-specification:serif"><path d="M97.845 101.182h-.213V99.81q0-.171.01-.324l-.061.058q-.034.03-.313.256l-.116-.15.51-.393h.183zm1.998 0h-1.265v-.188l.507-.51q.232-.234.305-.334.074-.1.11-.195.038-.094.038-.204 0-.154-.094-.243-.093-.09-.259-.09-.12 0-.228.039-.106.04-.238.143l-.116-.149q.266-.22.58-.22.27 0 .425.139.153.138.153.372 0 .183-.102.362-.103.179-.384.453l-.421.412v.01h.99z" style="-inkscape-font-specification:'Open Sans'" aria-label="12" font-family="Open Sans"/></g><g style="line-height:1.25;-inkscape-font-specification:serif"><path d="M97.627 113.021q0-.567.22-.847.22-.282.652-.282.149 0 .234.025v.188q-.101-.033-.231-.033-.31 0-.473.194-.163.192-.179.605h.016q.145-.226.458-.226.26 0 .408.156.15.157.15.425 0 .3-.165.473-.163.171-.442.171-.298 0-.473-.224-.175-.225-.175-.625zm.646.663q.187 0 .29-.117.103-.118.103-.34 0-.191-.096-.3-.096-.11-.287-.11-.118 0-.217.049t-.158.134q-.058.086-.058.178 0 .135.053.252.053.118.149.186.097.068.22.068z" aria-label="6" font-family="Open Sans" style="-inkscape-font-specification:'Open Sans'"/></g></g></g></svg>