<?xml version="1.0" encoding="UTF-8" standalone="no"?>
<svg
   xmlns:dc="http://purl.org/dc/elements/1.1/"
   xmlns:cc="http://creativecommons.org/ns#"
   xmlns:rdf="http://www.w3.org/1999/02/22-rdf-syntax-ns#"
   xmlns:svg="http://www.w3.org/2000/svg"
   xmlns="http://www.w3.org/2000/svg"
   viewBox="0 0 546.0705 241.20906"
   height="241.20906"
   width="546.0705"
   xml:space="preserve"
   id="svg2"
   version="1.1"><metadata
     id="metadata8"><rdf:RDF><cc:Work
         rdf:about=""><dc:format>image/svg+xml</dc:format><dc:type
           rdf:resource="http://purl.org/dc/dcmitype/StillImage" /><dc:title></dc:title></cc:Work></rdf:RDF></metadata><defs
     id="defs6"><clipPath
       id="clipPath18"
       clipPathUnits="userSpaceOnUse"><path
         id="path16"
         d="M 0,612 H 792 V 0 H 0 Z" /></clipPath></defs><g
     transform="matrix(1.3333333,0,0,-1.3333333,-254.96468,528.60439)"
     id="g10"><g
       id="g12"><g
         clip-path="url(#clipPath18)"
         id="g14"><g
           transform="translate(276.4868,351.7432)"
           id="g20"><path
             id="path22"
             style="fill:#0081c4;fill-opacity:1;fill-rule:nonzero;stroke:none"
             d="m 0,0 c 0.795,1.724 1.531,3.105 2.593,4.74 0.469,0.722 1,1.229 1.473,1.958 C 3.836,6.765 3.51,6.578 3.365,6.475 2.896,6.131 2.68,5.576 2.303,5.275 1.409,4.57 1.436,3.93 0.968,3.601 0.552,3.303 0.432,3.108 0.136,2.648 -0.058,2.34 -0.204,2.089 -0.407,1.487 -0.483,1.268 -0.626,1.459 -0.979,0.978 c -0.453,-0.627 -0.66,-1.3 -0.849,-2.061 -0.06,-0.248 -0.484,-0.379 -0.753,-0.899 -0.364,-0.694 -0.603,-1.342 -0.76,-2.354 -0.038,-0.237 -0.436,-0.4 -0.708,-1.055 -0.195,-0.464 -0.331,-0.563 -0.503,-1.434 -0.105,-0.531 -0.345,-0.605 -0.618,-1.377 -0.207,-0.588 -0.218,-1.151 -0.29,-1.919 -0.014,-0.151 -0.269,-0.442 -0.498,-0.874 -0.385,-0.718 -0.375,-1.196 -0.529,-1.94 -0.06,-0.269 -0.361,-0.623 -0.648,-1.773 -0.253,-1.02 -0.021,-1.696 -0.104,-2.202 -0.226,-1.299 -0.451,-2.436 -0.331,-3.721 0.062,-0.626 0.157,-1.278 0.117,-1.879 -0.121,-1.898 -0.221,-3.459 -0.213,-5.608 0.006,-1.172 0.096,-2.768 0.275,-4.103 0.193,-1.472 0.473,-2.619 0.473,-2.619 h 4.778 c 0,0 -0.186,2.772 0.062,5.692 0.147,1.749 0.561,3.6 0.936,4.907 0.482,1.656 0.776,2.52 1.679,4.711 0.021,0.05 -0.006,0.252 -0.245,0.053 -0.499,-0.418 -0.913,-0.789 -1.308,-1.384 -0.6,-0.91 -0.966,-1.66 -1.455,-2.595 -0.57,-1.086 -0.881,-2.031 -1.469,-3.348 -0.035,0.949 0.119,1.855 0.312,2.736 0.194,0.892 0.352,1.604 0.631,2.376 0.503,1.366 0.985,2.499 1.785,3.77 0.463,0.729 1.055,1.383 1.653,1.932 0.719,0.659 1.384,1.239 2.135,1.88 -0.792,0.411 -1.845,-0.443 -2.052,-0.485 -1.111,-0.216 -1.566,-1.253 -1.906,-1.391 -0.485,-0.209 -0.765,-0.503 -1.105,-0.913 -0.262,-0.312 -0.338,-0.79 -0.61,-0.96 -0.452,-0.283 -0.786,-0.711 -1.098,-1.306 -0.127,-0.248 -0.477,-1.413 -0.865,-1.268 0.662,3.954 2.053,7.661 4.287,10.96 1.416,2.093 2.954,3.887 5.221,5.494 0.301,0.213 0.36,0.312 -0.06,0.301 C 2.269,-3.936 2.14,-4.913 1.79,-4.998 1.458,-5.087 1.05,-5.483 0.786,-5.738 0.315,-6.205 0.322,-6.598 0.142,-6.722 -0.244,-6.991 -0.534,-7.274 -0.802,-7.742 -0.938,-7.989 -1.173,-8.531 -1.38,-8.655 -1.924,-8.97 -2.451,-9.434 -2.715,-9.929 c -0.195,-0.362 -0.269,-0.758 -0.522,-1.115 -0.273,-0.386 -0.652,-0.673 -0.979,-0.949 0.248,1.685 1.043,3.688 1.586,5.416 0.736,2.305 1.627,4.4 2.63,6.577" /></g><g
           transform="translate(281.3652,338.0542)"
           id="g24"><path
             id="path26"
             style="fill:#0081c4;fill-opacity:1;fill-rule:nonzero;stroke:none"
             d="m 0,0 c 1.809,4.071 3.711,7.14 6.186,10.73 0.326,0.467 0.614,0.927 0.896,1.37 0.127,0.198 0.737,1.076 0.863,1.264 0.827,1.253 1.179,1.638 2.027,2.839 0.228,0.325 0.414,0.58 0.515,0.959 0.177,0.704 -0.423,1.175 -0.557,1.848 -0.144,0.69 -0.07,1.441 0.249,2.025 0.196,0.361 0.391,0.503 0.593,0.994 0.384,0.938 0.251,2.971 0.69,3.027 -0.113,-0.966 -0.136,-2.053 0.013,-2.981 0.176,-1.079 0.83,-1.731 1.101,-2.878 0.723,0.132 1.516,0.099 2.125,0.047 0.609,-0.05 1.377,0.116 2,0.332 0.843,0.287 1.54,0.814 2.402,1.02 -0.732,-0.705 -1.765,-0.971 -2.63,-1.509 C 16.156,18.889 15.857,18.624 15.646,18.295 15.294,17.75 15.023,17.233 14.479,16.996 13.512,16.571 12.68,16.772 11.579,16.567 9.94,14.875 8.396,12.571 6.977,10.146 3.365,4.025 0.357,-2.322 -1.392,-8.825 c 0.608,1.133 1.183,2.227 1.838,3.306 0.725,1.193 1.54,2.361 2.425,3.537 2.078,2.747 4.133,5.147 6.437,7.671 1.855,2.039 3.894,3.752 6.165,5.183 3.004,1.886 6.707,3.207 9.96,2.527 0.371,-0.088 0.9,-0.188 1.129,-0.432 C 22.486,13.541 18.831,12.11 16.108,9.919 13.953,8.195 12.14,6.436 10.292,4.16 9.342,3.062 8.483,1.852 7.634,0.684 6.742,-0.545 5.952,-1.84 5.167,-3.136 2.524,-7.512 0.525,-12.149 -0.947,-16.949 c -0.041,-0.156 -0.05,-0.308 -0.095,-0.46 0.074,0.109 0.176,0.222 0.244,0.336 1.98,3.228 4.362,6.344 7.377,8.439 0.262,0.177 0.538,0.524 0.607,0.797 0.327,1.281 -0.648,1.9 0.701,3.67 0.31,0.408 0.729,0.56 1.025,0.935 0.552,0.854 1,2.39 1.462,2.8 C 10.14,-1.43 9.57,-2.481 9.448,-3.511 9.32,-4.637 9.607,-5.564 9.659,-6.757 c 0.796,-0.114 1.41,-0.45 2.037,-0.645 0.971,-0.301 1.555,-0.223 2.517,-0.141 0.411,0.035 1.154,0.279 1.597,0.187 -0.932,-0.513 -2.185,-0.421 -3.137,-0.902 -0.662,-0.344 -0.859,-0.85 -1.774,-1.027 -0.816,-0.159 -1.506,-0.074 -2.037,0.198 -0.41,0.212 -0.733,0.297 -1.103,0.121 -0.991,-0.478 -1.667,-1.151 -2.464,-1.958 -1.847,-1.869 -3.359,-3.954 -4.766,-6.683 -0.373,-0.73 -0.71,-1.448 -1.027,-2.185 -0.155,-0.364 -0.546,-1.363 -0.546,-1.363 h -4.832 c 0,0 -0.015,1.399 0.033,1.908 0.092,1.017 0.228,1.77 0.428,2.804 0.28,1.487 0.551,2.832 0.938,4.269 0.374,1.402 0.778,2.716 1.254,4.061 C -2.225,-5.306 -1.16,-2.616 0,0" /></g><g
           transform="translate(234.6357,300.2793)"
           id="g28"><path
             id="path30"
             style="fill:#0081c4;fill-opacity:1;fill-rule:nonzero;stroke:none"
             d="m 0,0 c 1.765,1.455 3.071,2.291 4.832,3.342 0.717,0.431 1.798,0.917 2.632,1.296 3.05,1.383 7.089,2.4 10.889,2.474 0.073,0 0.065,-0.004 0.065,-0.004 h 28.366 c 0,0 -0.11,0.004 0.097,0.004 0.903,0 1.797,-0.315 2.348,-0.839 0.554,-0.527 0.819,-1.342 0.96,-2.152 C 50.313,3.434 50.251,2.828 50.094,2.092 49.968,1.505 49.875,1.161 49.554,0.669 49.359,0.365 49.175,0.163 48.811,-0.131 48.439,-0.432 47.91,-0.527 47.305,-0.534 47.239,-0.538 47.106,-0.541 47.11,-0.538 c 0.005,0.004 -33.173,0.004 -33.173,0.004 h -0.31 C 11.454,-0.527 9.17,-0.641 7.021,-0.924 5.379,-1.144 3.729,-1.401 2.142,-1.819 0.14,-2.34 -1.79,-3.072 -3.715,-3.795 -2.649,-2.368 -1.416,-1.157 0,0" /></g><g
           transform="translate(244.4824,311.6035)"
           id="g32"><path
             id="path34"
             style="fill:#0081c4;fill-opacity:1;fill-rule:nonzero;stroke:none"
             d="m 0,0 c 1.747,1.261 3.862,2.301 5.734,3.02 0.953,0.361 2.215,0.761 3.22,1.012 1.213,0.308 2.608,0.538 3.74,0.573 0.344,0.008 0.053,0 0.053,0 l 24.325,0.004 c 0,0 0.522,-0.028 0.704,-0.064 0.453,-0.099 0.824,-0.286 0.976,-0.385 0.377,-0.241 0.854,-0.754 1.102,-1.158 0.63,-1.041 0.74,-2.166 0.539,-3.342 -0.238,-1.338 -1.248,-2.863 -2.625,-2.899 -0.238,-0.007 -0.717,0 -0.717,0 H 10.703 c 0,0 -1.531,-0.032 -2.234,-0.056 C 7.173,-3.345 5.736,-3.494 4.607,-3.664 3.637,-3.802 2.692,-3.986 1.724,-4.244 -1.526,-5.125 -4.349,-6.779 -7.301,-8.061 -5.313,-4.577 -2.622,-1.904 0,0" /></g><g
           transform="translate(230.8745,295.0195)"
           id="g36"><path
             id="path38"
             style="fill:#0081c4;fill-opacity:1;fill-rule:nonzero;stroke:none"
             d="m 0,0 c 4.229,2.502 9.326,3.494 13.99,3.646 0.108,0.003 0.329,0.018 0.329,0.018 L 50.685,3.66 c 0,0 0.065,0 0.397,0.004 2.203,0.003 3.009,-2.199 3,-3.969 -0.007,-0.581 -0.106,-1.182 -0.266,-1.579 -0.212,-0.527 -0.441,-0.956 -0.819,-1.362 -0.138,-0.152 -0.623,-0.492 -0.837,-0.549 -0.508,-0.121 -1.128,-0.11 -1.121,-0.11 0.004,0 -27.049,-0.003 -27.049,0 0,0 -1.46,0.06 -2.474,0.159 -0.731,0.071 -1.282,0.148 -2.043,0.291 -1.862,0.371 -3.403,0.98 -5.017,1.479 -1.079,0.34 -2.207,0.587 -3.388,0.757 -2.172,0.34 -4.546,0.49 -6.737,0.326 C 1.543,-1.105 -0.938,-1.654 -3.589,-2.492 -3.144,-1.795 -1.278,-0.762 0,0" /></g><g
           transform="translate(250.4648,283.5742)"
           id="g40"><path
             id="path42"
             style="fill:#0081c4;fill-opacity:1;fill-rule:nonzero;stroke:none"
             d="m 0,0 c -1.243,0.439 -2.455,1.006 -3.543,1.728 -1.42,0.942 -2.114,1.688 -3.944,2.542 -1.572,0.721 -2.822,1.44 -5.006,2.24 -1.054,0.383 -2.763,0.906 -4.226,1.158 -2.098,0.357 -4.115,0.51 -4.115,0.51 0,0 0.428,0.272 0.685,0.349 2.137,0.66 4.024,0.975 6.215,1.133 1.925,0.15 3.693,-0.038 5.621,-0.343 0.794,-0.124 1.822,-0.368 2.716,-0.623 2.901,-0.835 6.202,-2.149 9.132,-2.155 0.161,0 0.141,0.003 0.141,0.003 h 27.036 0.084 c 0.817,0.003 2.347,-0.262 2.963,-1.356 0.711,-1.252 0.932,-2.75 0.336,-4.248 -0.182,-0.45 -0.485,-1.09 -0.919,-1.487 -0.377,-0.34 -0.994,-0.566 -1.348,-0.566 -0.106,-0.004 -0.28,0 -0.28,0 H 7.906 7.773 C 5.361,-1.115 2.317,-0.817 0,0" /></g><g
           transform="translate(261.2349,275.1602)"
           id="g44"><path
             id="path46"
             style="fill:#0081c4;fill-opacity:1;fill-rule:nonzero;stroke:none"
             d="M 0,0 C -0.67,0.687 -1.589,1.745 -2.425,2.743 -4.032,4.666 -4.749,6.396 -4.749,6.396 H 11.02 c 0,0 0.041,-1.823 -0.326,-3.936 -0.34,-1.968 -1.062,-4.036 -1.832,-5.533 -0.026,-1.54 0.62,-2.97 0.73,-4.486 C 8.296,-8.358 6.901,-9.151 5.742,-10.27 5.666,-10.337 5.545,-10.337 5.498,-10.152 4.876,-7.81 4.545,-5.729 4.038,-3.413 2.599,-2.298 1.251,-1.307 0,0" /></g><g
           transform="translate(277.4854,276.459)"
           id="g48"><path
             id="path50"
             style="fill:#0081c4;fill-opacity:1;fill-rule:nonzero;stroke:none"
             d="M 0,0 C -0.444,0.824 -0.779,1.919 -1.292,2.563 -1.4,1.989 -1.268,1.629 -1.342,1.072 -1.418,0.612 -1.795,0.804 -1.871,1.02 -2.09,1.656 -2.328,2.429 -2.528,3.069 -2.866,4.148 -2.976,5.094 -2.976,5.094 l 2.627,0.004 c 0,0 0.099,-0.029 0.145,-0.287 C -0.076,4.156 -0.106,3.505 0.071,2.736 0.306,1.745 0.604,0.846 0.966,-0.078 1.281,-0.893 1.688,-1.71 2.02,-2.517 2.063,-2.623 2.085,-2.824 2.007,-2.935 1.908,-3.059 1.742,-3.045 1.646,-2.935 0.896,-2.074 0.591,-1.111 0,0" /></g><g
           transform="translate(281.5474,274.5791)"
           id="g52"><path
             id="path54"
             style="fill:#0081c4;fill-opacity:1;fill-rule:nonzero;stroke:none"
             d="M 0,0 C -0.45,0.949 -1.076,2.021 -1.021,3.108 -0.731,2.729 -0.612,2.45 -0.212,2.237 -0.028,2.181 0.354,2.233 0.258,2.556 0.08,3.147 -0.191,3.657 -0.448,4.475 -0.825,5.682 -1.186,6.978 -1.186,6.978 h -2.682 c 0,0 0.151,-1.094 0.76,-2.769 0.534,-1.476 1.363,-3.168 2.266,-4.761 C -0.108,-1.858 0.564,-2.998 1.4,-3.958 1.685,-4.283 2.39,-3.993 2.083,-3.564 1.289,-2.438 0.552,-1.192 0,0" /></g><g
           transform="translate(298.9341,365.3828)"
           id="g56"><path
             id="path58"
             style="fill:#0081c4;fill-opacity:1;fill-rule:nonzero;stroke:none"
             d="m 0,0 c -0.583,-0.251 -1.098,-0.581 -1.386,-1.144 -0.213,-0.403 -0.352,-1.015 0.051,-1.362 0.705,-0.602 1.551,0.018 1.894,0.637 0.428,0.786 0.319,2.29 0.319,2.29 C 0.878,0.421 0.375,0.163 0,0" /></g><g
           transform="translate(299.5464,361.6235)"
           id="g60"><path
             id="path62"
             style="fill:#0081c4;fill-opacity:1;fill-rule:nonzero;stroke:none"
             d="M 0,0 C 0.256,0.478 0.811,0.998 1.421,1.37 2.11,1.794 2.823,2.206 3.32,2.502 3.818,2.8 3.912,3.012 3.912,3.012 3.912,3.012 3.502,2.871 3.28,2.736 2.053,2.003 0.715,1.171 0.173,0.931 -0.515,0.63 -1.448,0.57 -2.289,0.464 c -0.136,1.065 -0.412,1.504 -0.405,2.453 0.006,0.453 0.113,1.041 0.191,1.451 0.262,1.37 0.315,2.057 0.315,2.057 0,0 -0.208,-0.191 -0.283,-0.793 C -2.558,5.087 -2.62,4.889 -2.744,4.244 -2.887,3.504 -3.032,2.875 -3.476,2.411 -4.112,1.749 -4.701,0.57 -4.209,-0.333 c 0.287,-0.524 0.765,-0.449 0.913,-0.584 0.152,-0.138 0.243,-0.46 0.698,-0.612 C -1.622,-1.855 -0.51,-0.974 0,0" /></g><g
           transform="translate(298.2788,358.8091)"
           id="g64"><path
             id="path66"
             style="fill:#0081c4;fill-opacity:1;fill-rule:nonzero;stroke:none"
             d="M 0,0 C 0.331,0.542 0.671,0.92 1.197,1.246 2.064,1.777 2.71,2.135 3.239,2.407 3.469,2.524 3.661,2.662 3.719,2.906 3.485,2.818 2.586,2.396 1.694,1.866 1.059,1.48 -0.041,1.005 -0.775,0.97 -1.069,0.959 -1.285,1.03 -1.522,1.037 -2.016,1.059 -2.648,0.938 -2.648,0.938 c 0,0 -0.159,0.701 -0.37,1.208 -0.104,0.258 -0.276,0.52 -0.366,1.008 -0.062,0.323 -0.081,0.811 -0.057,1.101 0.071,0.874 0.308,1.728 0.266,2.613 C -3.72,5.724 -3.498,4.315 -4.143,3.43 -4.416,3.059 -4.632,2.769 -4.842,2.294 -5.198,1.526 -5.154,0.729 -4.676,-0.014 c 0.276,-0.421 0.882,-0.407 0.989,-0.488 0.16,-0.118 0.294,-0.56 0.893,-0.694 C -1.779,-1.426 -0.577,-0.952 0,0" /></g><g
           transform="translate(298.564,336.4365)"
           id="g68"><path
             id="path70"
             style="fill:#0081c4;fill-opacity:1;fill-rule:nonzero;stroke:none"
             d="M 0,0 C 0.235,0.478 0.389,1.108 0.692,1.558 0.007,1.452 -0.104,1.377 -1.09,1.264 -1.306,1.246 -1.754,1.023 -1.899,0.875 -2.292,0.478 -2.632,0.11 -2.481,-0.556 -2.421,-0.811 -2.197,-1.002 -2.069,-1.044 -1.246,-1.31 -0.414,-0.821 0,0" /></g><g
           transform="translate(299.3994,335.127)"
           id="g72"><path
             id="path74"
             style="fill:#0081c4;fill-opacity:1;fill-rule:nonzero;stroke:none"
             d="m 0,0 c 0.933,0.219 2.011,0.676 2.444,0.534 -0.876,-0.471 -1.98,-0.64 -2.954,-0.92 -0.741,-0.209 -1.271,-0.772 -1.931,-1.285 -0.609,-0.464 -1.416,-0.651 -2.136,-0.311 -0.244,0.12 -0.48,0.513 -0.524,0.722 -0.037,0.17 -0.384,0.336 -0.565,0.485 -0.18,0.148 -0.264,0.527 -0.271,0.669 -0.028,1.299 0.955,1.823 1.903,2.584 0.715,0.577 1.643,3.012 2.207,3.515 C -1.926,5.211 -2.943,3.728 -3.386,2.573 -3.742,1.657 -3.625,0.92 -3.85,-0.046 -3.175,-0.089 -2.416,-0.234 -1.734,-0.241 -1.2,-0.248 -0.552,-0.131 0,0" /></g><g
           transform="translate(298.4136,333.127)"
           id="g76"><path
             id="path78"
             style="fill:#0081c4;fill-opacity:1;fill-rule:nonzero;stroke:none"
             d="m 0,0 c -0.526,-0.103 -1.168,-0.266 -1.607,-0.358 -1.522,-0.322 -2.248,0.425 -3.468,0.411 0.108,1.398 -0.377,2.021 0.022,2.924 0.357,0.807 0.685,1.657 0.991,2.34 0.246,0.549 0.32,1.009 0.32,1.009 0,0 -0.366,-0.556 -1.418,-2.609 -0.366,-0.715 -1.019,-0.871 -1.6,-1.547 -0.667,-0.775 -1.053,-2.407 0.184,-3.094 0.246,-0.135 0.211,-0.563 0.39,-0.737 0.823,-0.778 2.492,-0.697 3.536,0.248 0.829,0.765 1.839,0.889 2.696,1.112 0.506,0.127 0.945,0.343 0.945,0.343 C 0.991,0.042 0.752,0.138 0,0" /></g><g
           transform="translate(267.8833,316.8994)"
           id="g80"><path
             id="path82"
             style="fill:#0081c4;fill-opacity:1;fill-rule:nonzero;stroke:none"
             d="m 0,0 c -0.061,0 -0.126,0 0,0 m -7.117,20.139 c -0.51,-0.676 -0.744,-1.448 -1.303,-2.039 -0.295,-0.308 -0.742,-0.166 -0.975,0.191 -0.255,0.404 -0.671,0.97 -0.361,1.367 0.507,0.655 1.571,1.072 2.481,0.952 0.051,-0.004 0.345,-0.22 0.158,-0.471 M -9.558,16.28 c -0.283,-0.76 -1.13,-0.842 -1.853,-0.994 -0.135,-0.032 -0.547,0 -0.735,0.184 -0.312,0.304 -0.582,0.725 -0.527,1.246 0.03,0.326 0.296,0.64 0.63,0.768 0.6,0.234 1.315,0.613 1.912,0.276 0.507,-0.283 0.777,-0.938 0.573,-1.48 m -1.56,-4.031 c -0.208,-0.302 -0.741,0.697 -0.808,1.157 -0.202,1.327 0.957,1.66 1.922,1.621 0.03,-0.789 -0.582,-2.014 -1.114,-2.778 m -1.044,-3.576 c -0.187,-0.534 -0.279,-1.027 -0.49,-1.511 -0.203,-0.475 -1.078,-0.641 -1.565,-0.489 -0.692,0.216 -1.284,1.773 -0.499,2.372 0.602,0.453 1.229,0.527 1.993,0.619 0.14,0.018 0.653,-0.014 0.675,-0.063 0.129,-0.323 0.046,-0.485 -0.114,-0.928 m -1.164,-4.12 c -0.142,-0.411 -0.204,-0.832 -0.384,-1.225 -0.089,-0.202 -0.207,0.064 -0.211,0.074 -0.274,0.68 -0.446,1.253 -0.212,1.851 0.129,0.333 0.58,0.638 1.008,0.666 -0.026,-0.428 -0.056,-0.956 -0.201,-1.366 m -1.379,-2.015 c -0.314,0.146 -0.308,0.549 -0.439,0.8 -0.124,0.245 -0.388,0.584 -0.282,0.903 0.608,-0.34 0.887,-0.945 0.721,-1.703 m -1.041,2.514 c -0.718,0.591 -0.782,1.547 -1.264,2.272 0.53,0.34 1.425,0.273 1.701,-0.403 0.218,-0.538 0.377,-1.335 -0.17,-1.749 -0.056,-0.046 -0.2,-0.18 -0.267,-0.12 m -2.689,4.903 c -0.106,0.152 -0.32,0.601 -0.157,0.658 1.29,0.446 2.259,0.46 2.534,-0.924 0.195,-0.991 -0.479,-1.837 -1.421,-1.49 -0.271,0.099 -0.538,1.154 -0.956,1.756 m -1.874,3.129 c -0.09,0.109 -0.163,0.453 -0.051,0.541 0.671,0.546 1.656,0.584 2.418,0.507 1.005,-0.092 1.212,-1.027 1.046,-1.806 -0.222,-1.019 -1.769,-1.147 -2.208,-0.98 -0.43,0.166 -0.732,1.147 -1.205,1.738 m 0.22,3.635 c 0.869,0.571 2.527,0.988 2.805,-0.545 0.085,-0.46 -0.03,-1.076 -0.652,-1.274 -0.637,-0.206 -1.387,-0.428 -1.971,-0.188 -0.717,0.29 -0.859,1.568 -0.182,2.007 m -0.901,2.577 c 0.065,0.294 0.389,0.433 0.66,0.503 0.705,0.174 1.49,0.435 2.138,0.025 0.25,-0.159 0.271,-0.386 0.304,-0.704 0.057,-0.514 -0.017,-0.938 -0.356,-1.133 -0.686,-0.404 -1.381,-0.439 -2.178,-0.28 -0.646,0.127 -0.698,0.988 -0.568,1.589 m -0.721,-3.968 c -0.605,0.446 -0.869,1.076 -1.313,1.703 -0.108,0.152 0,0.216 0.081,0.24 1.071,0.305 1.862,-0.229 1.698,-1.401 -0.03,-0.227 -0.179,-0.754 -0.466,-0.542 m -2.95,3.611 c -0.401,0.351 -0.123,0.952 0.224,1.129 0.615,0.305 1.576,0.35 2.208,0.135 0.409,-0.139 0.617,-0.726 0.545,-1.37 -0.03,-0.262 -0.113,-0.556 -0.241,-0.638 -0.485,-0.332 -1.234,-0.343 -1.823,-0.222 -0.414,0.085 -0.565,0.662 -0.913,0.966 m -0.463,3.653 c 0.385,0.846 1.801,0.853 2.571,0.478 0.626,-0.311 0.702,-1.48 0.019,-1.944 -0.545,-0.364 -1.405,-0.233 -1.986,-0.123 -0.821,0.152 -0.887,0.966 -0.604,1.589 m 0.033,3.165 c 0.586,0.559 1.345,0.305 2.053,0.205 0.136,-0.021 0.301,-0.116 0.394,-0.209 0.48,-0.484 0.519,-1.288 -0.019,-1.691 -0.62,-0.464 -1.395,-0.16 -2.14,-0.124 -0.2,0.006 -0.419,0.244 -0.467,0.399 -0.133,0.471 -0.218,1.052 0.179,1.42 m 0.377,2.648 c 0.623,0.265 1.695,0.382 2.136,-0.319 0.272,-0.432 0.191,-1.225 -0.243,-1.345 -0.428,-0.11 -1.872,-0.35 -2.219,0.457 -0.173,0.393 -0.103,1.03 0.326,1.207 m 1.918,2.251 c 0.181,-0.081 0.292,-0.226 0.337,-0.446 0.086,-0.481 -0.041,-1.005 -0.498,-1.09 -0.695,-0.128 -1.724,-0.166 -1.72,0.814 0.002,1.097 1.079,1.084 1.881,0.722 m -1.394,2.039 c 0.369,0.142 0.973,0.106 1.306,-0.064 0.164,-0.088 0.393,-0.364 0.297,-0.654 -0.117,-0.375 -0.471,-0.51 -0.866,-0.521 -0.385,-0.003 -0.824,0.028 -0.978,0.344 -0.149,0.297 -0.085,0.768 0.241,0.895 m 0.431,1.643 c 0.337,0.124 0.836,0.113 1.082,-0.152 0.333,-0.372 0.069,-0.96 -0.57,-0.928 -0.223,0.007 -0.487,0.085 -0.623,0.163 -0.328,0.184 -0.22,0.796 0.111,0.917 m 1.515,1.058 c 0.043,0.142 0.263,0.308 0.379,0.351 0.253,0.088 0.547,0.106 0.79,0.01 0.485,-0.198 0.419,-0.796 -0.099,-1.008 -0.229,-0.096 -0.586,-0.156 -0.758,-0.096 -0.327,0.11 -0.418,0.393 -0.312,0.743 m 1.505,-2.35 c -0.528,-0.152 -1.264,-0.184 -1.421,0.361 -0.266,0.92 0.892,1.058 1.492,0.867 0.416,-0.134 0.559,-1.044 -0.071,-1.228 m 0.349,3.044 c 0.17,0.566 0.81,0.878 1.394,0.704 0.501,-0.148 0.618,-0.831 0.278,-1.168 -0.154,-0.148 -0.407,-0.304 -0.679,-0.361 -0.597,-0.134 -1.183,0.195 -0.993,0.825 m 2.624,-2.092 c -0.093,-0.372 -0.366,-0.63 -0.801,-0.726 -0.434,-0.099 -1.032,-0.12 -1.273,0.145 -0.226,0.252 -0.334,0.613 -0.145,0.889 0.386,0.542 1.085,0.733 1.71,0.594 0.358,-0.085 0.617,-0.449 0.509,-0.902 m -0.233,2.188 c 0.233,0.517 0.825,0.778 1.391,0.602 0.115,-0.036 0.347,-0.22 0.38,-0.397 0.07,-0.361 -0.054,-0.69 -0.355,-0.881 -0.384,-0.241 -0.703,-0.383 -1.142,-0.198 -0.333,0.134 -0.41,0.566 -0.274,0.874 m 2.446,-1.456 c 0.257,-0.438 -0.135,-0.881 -0.338,-1.004 -0.442,-0.259 -1.069,-0.418 -1.338,0.024 -0.262,0.432 -0.042,0.945 0.412,1.137 0.442,0.183 0.894,0.46 1.264,-0.157 m 0.736,-1.684 c 0.291,-0.237 0.544,-0.747 0.197,-1.144 -0.326,-0.375 -0.731,-0.488 -1.246,-0.573 -0.345,-0.06 -0.79,0.202 -0.846,0.509 -0.054,0.263 -0.101,0.747 0.161,0.971 0.509,0.435 1.193,0.686 1.734,0.237 m 0.618,2.874 c 0.271,-0.081 0.446,-0.372 0.312,-0.651 -0.085,-0.174 -0.333,-0.361 -0.489,-0.457 -0.43,-0.269 -0.8,-0.159 -0.933,0.16 -0.249,0.584 0.584,1.104 1.11,0.948 m 1.046,-1.455 c 0.303,-0.028 0.445,-0.237 0.501,-0.467 0.078,-0.311 -0.023,-0.598 -0.287,-0.779 -0.311,-0.205 -0.695,-0.329 -1.007,-0.333 -0.421,-0.007 -0.807,0.609 -0.58,1.013 0.24,0.428 0.844,0.612 1.373,0.566 m 1.735,-2.23 c 0.18,-0.527 -0.204,-0.768 -0.615,-0.987 -0.412,-0.224 -0.967,-0.429 -1.255,-0.153 -0.366,0.347 -0.529,0.931 -0.12,1.314 0.565,0.534 1.615,0.934 1.99,-0.174 m 0.749,-1.32 c 0.667,-0.089 0.797,-1.034 0.665,-1.377 -0.152,-0.298 -0.489,-0.528 -0.665,-0.616 -0.486,-0.255 -1.059,-0.351 -1.505,-0.117 -0.409,0.212 -0.586,0.835 -0.365,1.324 0.301,0.658 1.248,0.864 1.87,0.786 m 1.368,-2.938 c 0.23,-0.323 0.178,-0.889 0.046,-1.066 -0.422,-0.574 -1.588,-0.906 -2.071,-0.669 -0.367,0.18 -0.726,0.991 -0.296,1.476 0.444,0.506 1.22,0.803 1.928,0.655 0.155,-0.036 0.256,-0.206 0.393,-0.396 m 0.297,-1.813 c 0.32,-0.036 0.604,-0.39 0.757,-0.771 0.204,-0.5 -0.002,-1.08 -0.159,-1.186 -0.382,-0.263 -1.594,-0.995 -2.359,-0.557 -0.418,0.245 -0.535,0.793 -0.561,1.123 -0.085,1.051 1.51,1.479 2.322,1.391 m -4.476,-7.537 c -0.163,0.418 -0.315,1.038 0.01,1.289 0.66,0.527 2.159,0.98 2.726,0.191 0.37,-0.513 0.26,-1.384 -0.387,-1.717 -0.668,-0.343 -1.974,-0.74 -2.349,0.237 m -3.208,-0.045 c 0.664,0.339 1.62,0.746 2.335,0.283 0.326,-0.209 0.662,-1.08 0.434,-1.469 -0.491,-0.818 -1.783,-1.031 -2.599,-0.818 -0.699,0.184 -0.908,1.628 -0.17,2.004 m -0.598,2.838 c 0.802,0.563 2.383,0.932 2.763,-0.3 0.098,-0.326 0.156,-0.677 -0.007,-0.935 -0.443,-0.715 -1.57,-0.903 -2.322,-0.8 -0.815,0.12 -1.197,1.497 -0.434,2.035 m -0.671,2.878 c 0.767,0.439 2.406,1.016 2.795,-0.233 0.152,-0.513 0.137,-1.147 -0.301,-1.374 -0.626,-0.333 -1.62,-0.676 -2.34,-0.223 -0.605,0.383 -0.683,1.526 -0.154,1.83 m 4.303,5.172 c -0.322,-0.29 -0.649,-0.354 -1.076,-0.495 -0.602,-0.205 -1.228,0.258 -1.297,0.832 -0.117,0.987 0.936,1.136 1.631,1.26 0.512,0.092 0.825,-0.368 0.919,-0.676 0.096,-0.294 0.085,-0.694 -0.177,-0.921 m 1.292,-2.322 c -0.458,-0.683 -2.299,-1.115 -2.706,-0.411 -0.297,0.514 -0.483,1.24 0.076,1.583 0.586,0.361 1.28,0.577 1.961,0.453 0.643,-0.11 0.968,-1.168 0.669,-1.625 m 0.981,-4.233 c 0.263,-0.418 0.448,-0.981 0.056,-1.501 -0.352,-0.475 -1.614,-0.698 -2.256,-0.539 -0.356,0.085 -0.521,0.517 -0.577,0.811 -0.073,0.389 -0.112,0.79 0.239,1.108 0.499,0.46 1.164,0.453 1.805,0.453 0.262,0 0.635,-0.173 0.733,-0.332 m -0.363,1.422 c -0.395,-0.725 -1.726,-0.817 -2.322,-0.739 -0.423,0.056 -0.719,0.739 -0.706,1.309 0.003,0.291 0.093,0.489 0.297,0.595 0.662,0.357 1.342,0.595 2.057,0.481 0.695,-0.113 0.968,-1.1 0.674,-1.646 m -7.004,1.558 c -0.449,1.398 1.289,1.837 2.301,1.621 0.706,-0.148 0.946,-1.511 0.285,-1.94 -0.814,-0.531 -2.255,-0.701 -2.586,0.319 m -2.62,-3.43 c 0.523,0.538 1.461,0.573 2.196,0.474 0.449,-0.064 0.644,-0.52 0.706,-1.02 0.176,-1.359 -1.65,-1.592 -2.519,-1.274 -0.57,0.212 -0.869,1.317 -0.383,1.82 m -0.367,2.644 c 0.545,0.641 1.456,0.793 2.208,0.584 0.463,-0.124 0.675,-0.662 0.662,-1.267 -0.009,-0.343 -0.24,-0.591 -0.451,-0.68 -0.536,-0.219 -1.156,-0.379 -1.742,-0.308 -0.72,0.089 -1.159,1.098 -0.677,1.671 m 0.086,2.878 c 0.669,0.273 1.917,0.52 2.126,-0.439 0.283,-1.278 -1.218,-1.486 -2.021,-1.267 -0.616,0.173 -0.729,1.451 -0.105,1.706 m 4.818,2.114 c 0.499,-0.288 0.603,-1.091 0.301,-1.558 -0.407,-0.62 -1.791,-0.977 -2.534,-0.436 -0.427,0.309 -0.656,1.576 0.215,1.88 0.694,0.248 1.363,0.485 2.018,0.114 m -0.711,0.917 c -0.567,-0.355 -1.375,-0.497 -1.916,-0.195 -0.467,0.255 -0.447,0.941 -0.217,1.309 0.384,0.617 1.327,0.68 1.98,0.489 0.563,-0.166 0.776,-1.214 0.153,-1.603 m -4.597,0.998 c 0.056,0.184 0.136,0.237 0.249,0.294 0.476,0.226 1.002,0.286 1.461,-0.011 0.331,-0.209 0.301,-0.705 0.056,-0.96 -0.359,-0.378 -1.085,-0.393 -1.55,-0.148 -0.301,0.159 -0.313,0.531 -0.216,0.825 m 0.152,-2 c 0.213,0.605 0.963,0.569 1.533,0.499 0.701,-0.092 0.841,-0.995 0.591,-1.374 -0.344,-0.524 -1.127,-0.425 -1.752,-0.343 -0.51,0.063 -0.54,0.743 -0.372,1.218 m 9.889,-18.2 c 0.175,-0.686 0,-1.337 -0.604,-1.553 -0.778,-0.277 -1.832,-0.68 -2.455,-0.255 -0.713,0.474 -1.054,1.837 -0.239,2.368 0.967,0.634 2.891,1.051 3.298,-0.56 m -1.046,2.124 c -0.524,-0.598 -1.381,-0.577 -2.22,-0.824 -0.322,-0.093 -0.708,0.195 -0.876,0.488 -0.309,0.556 -0.621,1.299 -0.026,1.837 0.492,0.45 1.164,0.414 1.766,0.592 0.271,0.085 0.598,0.176 0.929,-0.043 0.68,-0.467 0.944,-1.466 0.427,-2.05 m 5.549,8.942 c 0.15,-0.435 0.348,-0.75 0.178,-1.185 -0.196,-0.531 -0.711,-0.602 -1.192,-0.779 -0.452,-0.163 -1.201,-0.368 -1.578,0.028 -0.433,0.446 -0.608,1.367 -0.09,1.756 0.674,0.499 2.33,1.196 2.682,0.18 m 9.117,3.909 c 0.396,1.621 0.887,3.26 1.009,4.973 C 2.713,34.32 2.165,36.982 0.529,38.918 0.69,38.083 0.902,37.375 1.016,36.501 1.148,35.438 0.998,34.26 0.726,33.194 0.522,32.387 0.157,31.605 -0.202,30.854 -0.625,29.97 -1.26,29.003 -1.891,28.21 c -1.77,-2.209 -4.526,-6.513 -4.526,-6.513 0,0 -0.229,0.017 -0.368,0.017 -0.031,0.535 1.238,2.376 1.878,3.406 1.406,2.251 2.468,3.465 3.695,5.423 0.762,1.235 1.346,2.736 1.534,4.096 0.384,2.772 -1.106,6.092 -3.248,7.196 0.487,-2.067 0.439,-4.987 -0.662,-6.212 -2.079,-2.326 -3.311,-4.068 -4.798,-7.045 -0.045,-0.085 -0.391,0.401 -0.677,0.588 -0.322,0.216 -0.143,0.853 -0.256,1.281 -0.106,0.368 -0.276,0.652 -0.329,0.716 -0.437,0.538 -0.864,0.569 -0.956,0.732 -0.106,0.184 -0.053,0.641 -0.439,1.161 -0.191,0.259 -0.68,0.45 -0.876,0.698 -0.216,0.269 -0.312,1.086 -0.905,1.426 -0.281,0.156 -0.41,0.648 -0.681,0.889 -0.834,0.74 -1.666,0.595 -1.823,0.644 -0.214,0.057 -0.63,0.591 -1.376,0.719 -0.725,0.124 -1.127,-0.365 -1.504,-0.188 -0.949,0.443 -1.855,0.478 -2.864,-0.648 -0.299,-0.332 -0.823,-0.021 -1.474,-0.52 -0.574,-0.443 -0.584,-0.846 -0.874,-0.899 -0.549,-0.107 -0.956,-0.545 -1.169,-1.023 -0.108,-0.248 -0.191,-0.747 -0.255,-1.076 -0.09,-0.453 -0.318,-0.875 -0.325,-1.207 -0.006,-0.464 0.143,-0.716 0.102,-0.925 -0.067,-0.3 -0.309,-0.576 -0.34,-0.86 -0.023,-0.159 -0.035,-0.58 0.078,-0.821 0.147,-0.294 -0.101,-0.552 -0.228,-0.867 -0.124,-0.291 -0.253,-0.79 -0.214,-1.147 0.053,-0.481 0.329,-0.659 0.115,-1.041 -0.356,-0.619 -0.799,-1.586 -0.019,-2.825 0.145,-0.223 -0.325,-0.665 -0.353,-1.31 -0.03,-0.7 0.391,-1.221 0.508,-1.533 0.023,-0.109 -0.186,-0.102 -0.193,-0.223 -1.858,1.973 -3.502,3.792 -5.657,5.502 -1.32,1.044 -2.621,1.922 -4.081,2.704 -3.896,2.103 -8.425,3.505 -12.528,2.992 1.547,-1.25 3.498,-2.139 5.083,-3.558 1.503,-1.342 2.868,-2.492 4.236,-3.919 2.149,-2.241 3.897,-4.514 5.717,-7.147 0.542,-0.783 0.896,-1.303 1.4,-2.117 0.51,-0.814 1.073,-1.681 1.535,-2.489 2.327,-4.057 4.235,-7.816 6.166,-11.972 0.535,-1.147 0.986,-2.354 1.512,-3.494 0.14,-0.311 0.343,-0.081 0.483,0 0.699,0.408 1.442,0.743 2.166,1.087 0.579,0.266 1.107,0.449 1.622,0.652 1.306,0.499 2.545,0.768 3.915,1.051 2.285,0.485 6.39,0.386 6.39,0.386 L 0.028,0 H 0.241 C 0.157,2.237 -0.372,4.407 -0.5,6.655 c -0.099,1.82 -0.04,3.575 0.027,5.402 0.17,4.935 0.894,10.235 1.995,14.734" /></g><g
           transform="translate(216.3574,362.2109)"
           id="g84"><path
             id="path86"
             style="fill:#0081c4;fill-opacity:1;fill-rule:nonzero;stroke:none"
             d="m 0,0 c -1.519,-1.522 -1.974,-2.082 -2.857,-3.759 -0.522,-0.984 -1.182,-2.255 -1.372,-3.891 3.119,1.197 5.664,3.629 7.963,6.312 1.703,1.993 3.022,4.634 4.7,6.602 C 5.478,4.27 2.361,2.361 0,0" /></g><g
           transform="translate(207.4238,357.9385)"
           id="g88"><path
             id="path90"
             style="fill:#0081c4;fill-opacity:1;fill-rule:nonzero;stroke:none"
             d="M 0,0 C 1.177,1.997 2.86,4.149 4.607,5.621 3.797,3.798 2.802,1.993 2.459,-0.163 1.781,-4.457 1.14,-7.466 0.43,-11.381 c 1.939,1.384 3.987,3.568 6.047,5.09 1.589,1.176 3.18,1.958 4.817,3.083 0.971,0.677 1.602,1.537 2.411,2.348 C 12.742,-4.938 9.181,-9.048 6.631,-10.963 3.423,-13.374 2.274,-13.764 -2.873,-19.013 -3.527,-12.524 -3.412,-5.784 0,0" /></g><g
           transform="translate(196.9175,336.3906)"
           id="g92"><path
             id="path94"
             style="fill:#0081c4;fill-opacity:1;fill-rule:nonzero;stroke:none"
             d="m 0,0 c 0.241,3.37 0.643,6.064 1.458,9.349 0.57,2.297 1.804,5.714 3.578,7.115 C 4.818,15.632 4.703,14.383 4.622,13.541 4.271,10.067 4.937,6.039 5.013,2.57 5.055,0.867 5.038,-0.45 4.784,-2.05 4.519,-3.728 4.738,-5.795 4.738,-5.795 c 0,0 0.919,1.055 1.737,2.365 1.791,2.853 2.364,3.699 3.809,5.246 1.789,1.915 3.789,3.692 6.049,5.267 C 16.061,6.015 14.907,3.943 14.429,3.112 13.793,1.997 13.505,0.984 11.999,-1.54 9.88,-5.083 8.938,-5.562 6.584,-9.353 c -0.511,-0.824 -2.6,-3.961 -3.104,-4.92 -1.105,2.29 -1.519,4.29 -2.873,8.011 C -0.241,-3.919 -0.113,-1.575 0,0" /></g><g
           transform="translate(193.6445,318.8608)"
           id="g96"><path
             id="path98"
             style="fill:#0081c4;fill-opacity:1;fill-rule:nonzero;stroke:none"
             d="m 0,0 c -1.278,3.324 -1.862,6.407 -2.293,9.908 -0.266,2.138 -0.144,4.995 0.619,7.052 0.2,-0.503 0.605,-1.777 0.662,-1.968 0.566,-1.915 0.805,-2.832 1.595,-4.673 C 1.189,8.899 1.931,7.773 2.721,6.375 3.441,5.097 4.05,3.423 4.574,2.134 c 1.676,-4.12 1.802,-7.979 2.441,-8.396 0.462,0.991 0.607,1.94 0.66,2.407 0.499,4.56 1.096,8.701 6.818,14.078 C 15.019,8.627 14.75,5.674 14.436,4.096 13.751,0.641 13.199,-1.02 11.686,-4.365 10.884,-6.128 9.812,-8.723 9.519,-9.583 8.751,-11.816 8.489,-12.992 8.004,-14.312 5.301,-9.799 1.978,-5.133 0,0" /></g><g
           transform="translate(198.0996,298.0811)"
           id="g100"><path
             id="path102"
             style="fill:#0081c4;fill-opacity:1;fill-rule:nonzero;stroke:none"
             d="m 0,0 c -1.922,2.687 -2.626,4.039 -3.876,6.899 -1.051,2.397 -1.354,3.286 -1.968,5.972 -0.337,1.466 -0.528,2.797 -0.267,3.661 1.507,-2.737 2.536,-5.799 4.504,-8.064 1.565,-1.802 3.071,-3.338 4.314,-4.854 1.908,-2.34 3.41,-4.549 5.24,-6.976 0.155,1.22 0.215,2.449 -0.058,4.445 -0.373,2.736 -0.145,4.978 0.335,7.629 0.601,3.359 1.042,5.023 2.207,8.422 1.419,-2.797 1.412,-6.032 1.772,-8.999 0.688,-5.759 -1.107,-12.624 -1.459,-15.484 -0.094,-0.754 0.035,-2.616 0.072,-3.345 -2.683,2.131 -5.07,4.269 -7.387,6.595 C 2.374,-3.041 0.928,-1.292 0,0" /></g><g
           transform="translate(208.2773,276.9688)"
           id="g104"><path
             id="path106"
             style="fill:#0081c4;fill-opacity:1;fill-rule:nonzero;stroke:none"
             d="m 0,0 c -1.225,0.881 -4.508,3.405 -6.064,5.388 -2.264,2.882 -2.763,4.12 -4.257,7.437 -0.182,0.411 -1.028,2.287 -1.096,3.558 C -6.521,10.457 -2.14,9.576 2.527,4.655 4.241,2.85 5.997,1.158 6.919,0.301 7.63,-0.351 8.515,-0.556 8.515,-0.556 c 0,0 -0.092,1.271 -0.554,2.149 C 4.848,7.568 4.26,13.813 4.731,20.511 6.154,18.744 6.6,17.565 7.503,15.863 8.485,14 8.986,12.847 9.444,11.703 12.11,5.048 12.804,-2.641 14.45,-6.506 9.365,-4.793 5.363,-3.873 0,0" /></g><g
           transform="translate(229.1221,261.2617)"
           id="g108"><path
             id="path110"
             style="fill:#0081c4;fill-opacity:1;fill-rule:nonzero;stroke:none"
             d="m 0,0 c -1.378,-0.088 -4.071,-0.081 -5.51,0.156 -7.276,1.161 -14.039,6.453 -17.439,12.274 3.083,-1.895 5.313,-3.155 8.027,-4.096 2.416,-0.844 4.708,-1.091 8.741,-2.234 2.432,-0.691 4.843,-1.671 5.689,-1.99 2.7,-1.005 3.832,-0.757 3.832,-0.757 0,0 0,0.414 -1.005,1.511 -2.011,2.205 -2.744,2.73 -4.398,4.418 -0.541,0.56 -1.785,2.46 -2.415,3.72 -1.788,3.565 -1.984,6.426 -3.616,10.341 C -2.143,19.831 0.754,14.999 3.899,8.9 4.871,7.031 6.179,4.871 7.372,3.686 8.176,2.896 9.311,1.682 9.311,1.682 9.311,1.682 8.48,1.487 5.898,1.104 4.735,0.932 2.268,0.163 0,0" /></g><g
           transform="translate(257.9639,260.8018)"
           id="g112"><path
             id="path114"
             style="fill:#0081c4;fill-opacity:1;fill-rule:nonzero;stroke:none"
             d="m 0,0 c 3.144,-0.51 5.935,-1.281 8.79,-2.269 0.768,-0.262 1.938,-0.842 2.747,-1.257 2.023,-1.03 3.192,-1.703 4.931,-2.899 2.802,-1.936 5.813,-4.029 8.528,-7.197 0.058,-0.064 0.497,-0.531 0.207,-0.761 -0.531,-0.421 -1.843,-1.013 -2.28,-0.626 -2.488,2.219 -2.359,2.927 -5.372,5.663 -0.773,0.699 -1.941,1.682 -3.336,2.634 C 12.855,-5.777 11.211,-4.761 9.686,-4 8.3,-3.313 6.162,-3.111 4.96,-3.111 l 0.019,-0.007 c -0.547,0.017 -3.681,0.031 -4.405,-0.008 -6.156,-0.425 -5.857,-0.98 -9.407,-1.947 -2.919,-0.793 -6.054,-1.36 -9.164,-1.781 -3.186,-0.434 -6.034,-0.488 -9.024,-0.18 -4.047,0.422 -8.474,1.551 -11.78,3.685 3.021,-0.052 6.124,-0.63 9.131,-0.396 1.266,0.092 3.319,0.283 4.71,0.711 2.761,0.853 4.345,1.186 7.27,2 2.513,0.709 5.044,0.945 7.67,1.228 C -6.388,0.581 -3.024,0.495 0,0" /></g><g
           transform="translate(314.2671,362.2109)"
           id="g116"><path
             id="path118"
             style="fill:#0081c4;fill-opacity:1;fill-rule:nonzero;stroke:none"
             d="M 0,0 C 1.521,-1.522 1.976,-2.082 2.859,-3.759 3.381,-4.743 4.046,-6.014 4.234,-7.65 1.11,-6.453 -1.434,-4.021 -3.734,-1.338 -5.439,0.655 -6.754,3.296 -8.432,5.264 -5.476,4.27 -2.359,2.361 0,0" /></g><g
           transform="translate(323.2021,357.9385)"
           id="g120"><path
             id="path122"
             style="fill:#0081c4;fill-opacity:1;fill-rule:nonzero;stroke:none"
             d="m 0,0 c -1.177,1.997 -2.86,4.149 -4.605,5.621 0.815,-1.964 2.005,-4.407 2.147,-5.784 0.433,-4.326 1.316,-7.303 2.028,-11.218 -1.938,1.384 -3.988,3.568 -6.045,5.09 -1.589,1.176 -3.182,1.958 -4.817,3.083 -0.974,0.677 -1.604,1.537 -2.413,2.348 0.963,-4.078 4.524,-8.188 7.078,-10.103 3.204,-2.411 4.353,-2.801 9.502,-8.05 C 3.527,-12.524 3.411,-5.784 0,0" /></g><g
           transform="translate(333.707,336.3906)"
           id="g124"><path
             id="path126"
             style="fill:#0081c4;fill-opacity:1;fill-rule:nonzero;stroke:none"
             d="m 0,0 c -0.237,3.37 -0.637,6.064 -1.457,9.349 -0.57,2.297 -1.803,5.714 -3.579,7.115 0.218,-0.832 0.333,-2.081 0.42,-2.923 0.348,-3.474 -0.312,-7.502 -0.395,-10.971 -0.039,-1.703 -0.025,-3.02 0.227,-4.62 0.265,-1.678 0.048,-3.745 0.048,-3.745 0,0 -0.919,1.055 -1.739,2.365 -1.787,2.853 -2.361,3.699 -3.809,5.246 -1.784,1.915 -3.789,3.692 -6.051,5.267 0.276,-1.068 1.43,-3.14 1.908,-3.971 0.637,-1.115 0.92,-2.128 2.43,-4.652 2.117,-3.543 3.065,-4.022 5.413,-7.813 0.511,-0.824 2.602,-3.961 3.106,-4.92 1.104,2.29 1.519,4.29 2.873,8.011 C 0.244,-3.919 0.117,-1.575 0,0" /></g><g
           transform="translate(336.9814,318.8608)"
           id="g128"><path
             id="path130"
             style="fill:#0081c4;fill-opacity:1;fill-rule:nonzero;stroke:none"
             d="M 0,0 C 1.278,3.324 1.862,6.407 2.297,9.908 2.561,12.046 2.436,14.903 1.678,16.96 1.476,16.457 1.069,15.183 1.012,14.992 0.446,13.077 0.207,12.16 -0.581,10.319 -1.186,8.899 -1.929,7.773 -2.721,6.375 -3.441,5.097 -4.05,3.423 -4.575,2.134 c -1.675,-4.12 -1.799,-7.979 -2.44,-8.396 -0.463,0.991 -0.609,1.94 -0.656,2.407 -0.499,4.56 -1.1,8.701 -6.822,14.078 -0.527,-1.596 -0.258,-4.549 0.055,-6.127 0.687,-3.455 1.243,-5.116 2.756,-8.461 0.798,-1.763 1.871,-4.358 2.165,-5.218 0.765,-2.233 1.026,-3.409 1.515,-4.729 C -5.301,-9.799 -1.976,-5.133 0,0" /></g><g
           transform="translate(332.5244,298.0811)"
           id="g132"><path
             id="path134"
             style="fill:#0081c4;fill-opacity:1;fill-rule:nonzero;stroke:none"
             d="m 0,0 c 1.928,2.687 2.628,4.039 3.878,6.899 1.052,2.397 1.354,3.286 1.969,5.972 0.338,1.466 0.525,2.797 0.265,3.661 C 4.611,13.795 3.576,10.733 1.607,8.468 0.046,6.666 -1.462,5.13 -2.704,3.614 c -1.905,-2.34 -3.413,-4.549 -5.241,-6.976 -0.154,1.22 -0.216,2.449 0.056,4.445 0.374,2.736 0.147,4.978 -0.329,7.629 -0.605,3.359 -1.046,5.023 -2.211,8.422 -1.416,-2.797 -1.414,-6.032 -1.773,-8.999 -0.689,-5.759 1.112,-12.624 1.462,-15.484 0.092,-0.754 -0.037,-2.616 -0.074,-3.345 2.683,2.131 5.071,4.269 7.387,6.595 C -2.372,-3.041 -0.929,-1.292 0,0" /></g><g
           transform="translate(322.3545,276.9688)"
           id="g136"><path
             id="path138"
             style="fill:#0081c4;fill-opacity:1;fill-rule:nonzero;stroke:none"
             d="m 0,0 c 1.219,0.881 4.504,3.405 6.059,5.388 2.263,2.882 2.762,4.12 4.256,7.437 0.181,0.411 1.029,2.287 1.096,3.558 C 6.521,10.457 2.136,9.576 -2.533,4.655 -4.245,2.85 -5.997,1.158 -6.924,0.301 c -0.712,-0.652 -1.595,-0.857 -1.595,-0.857 0,0 0.09,1.271 0.55,2.149 3.119,5.975 3.703,12.22 3.229,18.918 C -6.153,18.744 -6.607,17.565 -7.508,15.863 -8.489,14 -8.992,12.847 -9.445,11.703 -12.112,5.048 -12.812,-2.641 -14.458,-6.506 -9.369,-4.793 -5.369,-3.873 0,0" /></g><g
           transform="translate(301.5039,261.2617)"
           id="g140"><path
             id="path142"
             style="fill:#0081c4;fill-opacity:1;fill-rule:nonzero;stroke:none"
             d="M 0,0 C 1.381,-0.088 4.075,-0.081 5.512,0.156 12.786,1.317 19.549,6.609 22.95,12.43 19.864,10.535 17.633,9.275 14.923,8.334 12.505,7.49 10.214,7.243 6.186,6.1 3.749,5.409 1.342,4.429 0.492,4.11 -2.207,3.105 -3.34,3.353 -3.34,3.353 c 0,0 0,0.414 1.006,1.511 2.01,2.205 2.747,2.73 4.396,4.418 0.542,0.56 1.786,2.46 2.419,3.72 1.783,3.565 1.985,6.426 3.615,10.341 C 2.145,19.831 -0.759,14.999 -3.901,8.9 -4.867,7.031 -6.175,4.871 -7.37,3.686 -8.174,2.896 -9.307,1.682 -9.307,1.682 c 0,0 0.827,-0.195 3.416,-0.578 C -4.735,0.932 -2.269,0.163 0,0" /></g><g
           transform="translate(272.6641,260.8018)"
           id="g144"><path
             id="path146"
             style="fill:#0081c4;fill-opacity:1;fill-rule:nonzero;stroke:none"
             d="m 0,0 c -3.142,-0.51 -5.932,-1.281 -8.79,-2.269 -0.772,-0.262 -1.94,-0.842 -2.749,-1.257 -2.024,-1.03 -3.186,-1.703 -4.927,-2.899 -2.807,-1.936 -5.815,-4.029 -8.532,-7.197 -0.06,-0.064 -0.499,-0.531 -0.207,-0.761 0.533,-0.421 1.848,-1.013 2.28,-0.626 2.487,2.219 2.361,2.927 5.375,5.663 0.769,0.699 1.937,1.682 3.331,2.634 1.365,0.935 3.004,1.951 4.531,2.712 1.385,0.687 3.526,0.889 4.725,0.889 l -0.018,-0.007 c 0.547,0.017 3.68,0.031 4.405,-0.008 6.162,-0.425 5.857,-0.98 9.406,-1.947 2.92,-0.793 6.055,-1.36 9.163,-1.781 3.186,-0.434 6.041,-0.488 9.026,-0.18 4.047,0.422 8.476,1.551 11.779,3.685 -3.02,-0.052 -6.121,-0.63 -9.131,-0.396 -1.268,0.092 -3.317,0.283 -4.709,0.711 -2.757,0.853 -4.347,1.186 -7.269,2 -2.513,0.709 -5.046,0.945 -7.671,1.228 C 6.386,0.581 3.021,0.495 0,0" /></g><g
           transform="translate(261.6191,396.4531)"
           id="g148"><path
             id="path150"
             style="fill:#0081c4;fill-opacity:1;fill-rule:nonzero;stroke:none"
             d="m 0,0 -5.531,-20.609 h -5.871 l -3.671,13.423 -3.592,-13.423 H -24.52 L -30.054,0 h 5.529 L -21.374,-14.185 -17.585,0 h 5.284 L -8.707,-14.185 -5.4,0 Z" /></g><g
           transform="translate(279.8677,392.4673)"
           id="g152"><path
             id="path154"
             style="fill:#0081c4;fill-opacity:1;fill-rule:nonzero;stroke:none"
             d="m 0,0 h -9.45 v -3.834 h 8.758 V -7.82 H -9.45 v -8.804 h -5.267 V 3.986 H 0 Z" /></g><g
           transform="translate(294.9976,389.8262)"
           id="g156"><path
             id="path158"
             style="fill:#0081c4;fill-opacity:1;fill-rule:nonzero;stroke:none"
             d="m 0,0 c 0,0.581 -0.156,1.08 -0.469,1.498 -0.312,0.421 -0.676,0.711 -1.089,0.877 -0.554,0.22 -1.09,0.344 -1.614,0.369 -0.526,0.021 -1.226,0.031 -2.099,0.031 H -6.179 V -3.38 h 1.517 c 0.901,0 1.644,0.053 2.224,0.166 0.586,0.106 1.077,0.333 1.473,0.662 0.34,0.294 0.586,0.648 0.736,1.055 C -0.078,-1.086 0,-0.587 0,0 M 5.475,0.121 C 5.475,-0.803 5.313,-1.706 4.993,-2.587 4.669,-3.465 4.209,-4.209 3.612,-4.807 2.794,-5.618 1.879,-6.234 0.875,-6.648 -0.131,-7.062 -1.386,-7.271 -2.883,-7.271 h -3.296 v -6.711 h -5.298 V 6.627 h 8.718 c 1.306,0 2.406,-0.117 3.302,-0.34 C 1.439,6.057 2.234,5.721 2.924,5.268 3.752,4.723 4.382,4.025 4.82,3.179 5.255,2.33 5.475,1.31 5.475,0.121" /></g><g
           transform="translate(237.9419,232.0039)"
           id="g160"><path
             id="path162"
             style="fill:#0081c4;fill-opacity:1;fill-rule:nonzero;stroke:none"
             d="m 0,0 -3.694,-11.954 h -4.055 l -2.426,8.054 -2.399,-8.054 h -4.095 L -20.33,0 h 4.006 l 2.046,-8.237 2.543,8.237 h 3.384 L -5.933,-8.237 -3.924,0 Z" /></g><g
           transform="translate(248.5977,233.8066)"
           id="g164"><path
             id="path166"
             style="fill:#0081c4;fill-opacity:1;fill-rule:nonzero;stroke:none"
             d="m 0,0 h -0.285 c -0.17,0.042 -0.391,0.099 -0.664,0.162 -0.269,0.065 -0.561,0.1 -0.873,0.1 -0.746,0 -1.251,-0.131 -1.518,-0.408 -0.262,-0.269 -0.393,-0.786 -0.393,-1.565 v -0.092 h 2.936 V -4.4 h -2.808 v -9.357 H -7.439 V -4.4 h -1.632 v 2.597 h 1.632 v 0.33 c 0,1.458 0.389,2.555 1.164,3.288 0.775,0.737 1.943,1.094 3.515,1.094 0.565,0 1.08,-0.017 1.542,-0.059 C -0.763,2.813 -0.354,2.761 0,2.697 V 0" /></g><g
           transform="translate(258.5483,226.1104)"
           id="g168"><path
             id="path170"
             style="fill:#0081c4;fill-opacity:1;fill-rule:nonzero;stroke:none"
             d="m 0,0 c 0,1.161 -0.197,2.003 -0.593,2.53 -0.397,0.522 -1.02,0.783 -1.873,0.783 -0.361,0 -0.733,-0.049 -1.111,-0.16 C -3.958,3.04 -4.322,2.882 -4.667,2.676 v -6 c 0.252,-0.103 0.525,-0.167 0.813,-0.192 0.292,-0.035 0.578,-0.046 0.859,-0.046 1.007,0 1.763,0.297 2.253,0.885 C -0.248,-2.081 0,-1.193 0,0 m 3.937,0.077 c 0,-0.98 -0.151,-1.883 -0.448,-2.693 -0.303,-0.807 -0.698,-1.469 -1.186,-2 -0.507,-0.553 -1.08,-0.967 -1.724,-1.254 -0.644,-0.289 -1.333,-0.428 -2.069,-0.428 -0.675,0 -1.252,0.07 -1.724,0.223 -0.475,0.142 -0.958,0.344 -1.453,0.605 v -4.973 H -8.496 V 5.894 h 3.829 V 4.647 c 0.585,0.464 1.184,0.843 1.796,1.137 0.611,0.294 1.315,0.44 2.113,0.44 1.486,0 2.637,-0.549 3.459,-1.64 C 3.526,3.487 3.937,1.989 3.937,0.077" /></g><path
           id="path172"
           style="fill:#0081c4;fill-opacity:1;fill-rule:nonzero;stroke:none"
           d="m 265.38,220.05 h 3.968 v 4.181 h -3.968 z" /><g
           transform="translate(280.5723,223.1113)"
           id="g174"><path
             id="path176"
             style="fill:#0081c4;fill-opacity:1;fill-rule:nonzero;stroke:none"
             d="M 0,0 C 0.248,0.309 0.434,0.677 0.558,1.105 0.681,1.537 0.743,2.128 0.743,2.886 0.743,3.594 0.68,4.178 0.552,4.655 0.426,5.127 0.248,5.505 0.023,5.792 -0.202,6.086 -0.476,6.291 -0.793,6.411 -1.11,6.531 -1.453,6.592 -1.821,6.592 -2.189,6.592 -2.519,6.543 -2.806,6.439 -3.09,6.344 -3.365,6.149 -3.625,5.849 -3.86,5.565 -4.046,5.187 -4.183,4.712 -4.322,4.227 -4.39,3.618 -4.39,2.886 c 0,-0.652 0.06,-1.218 0.181,-1.699 0.12,-0.482 0.293,-0.865 0.529,-1.151 0.227,-0.28 0.497,-0.481 0.812,-0.609 0.314,-0.127 0.675,-0.191 1.078,-0.191 0.346,0 0.678,0.06 0.992,0.177 C -0.483,-0.474 -0.22,-0.271 0,0 m 4.703,2.91 c 0,-1.968 -0.574,-3.518 -1.714,-4.651 -1.143,-1.13 -2.748,-1.696 -4.81,-1.696 -2.068,0 -3.67,0.566 -4.813,1.696 -1.143,1.133 -1.712,2.683 -1.712,4.651 0,1.976 0.572,3.529 1.722,4.666 1.149,1.125 2.751,1.692 4.803,1.692 C 0.258,9.268 1.862,8.698 3,7.559 4.135,6.422 4.703,4.871 4.703,2.91" /></g><g
           transform="translate(296.647,228.3516)"
           id="g178"><path
             id="path180"
             style="fill:#0081c4;fill-opacity:1;fill-rule:nonzero;stroke:none"
             d="m 0,0 h -0.338 c -0.163,0.057 -0.425,0.102 -0.784,0.127 -0.361,0.031 -0.659,0.043 -0.899,0.043 -0.545,0 -1.023,-0.039 -1.437,-0.107 -0.42,-0.071 -0.866,-0.191 -1.349,-0.365 v -8 H -8.636 V 3.652 h 3.829 V 1.896 c 0.841,0.723 1.573,1.205 2.193,1.445 0.621,0.237 1.191,0.35 1.715,0.35 0.133,0 0.285,-0.003 0.457,-0.01 C -0.276,3.674 -0.125,3.667 0,3.652 V 0" /></g><g
           transform="translate(306.5659,223.8125)"
           id="g182"><path
             id="path184"
             style="fill:#0081c4;fill-opacity:1;fill-rule:nonzero;stroke:none"
             d="m 0,0 v 5.42 c -0.219,0.096 -0.485,0.166 -0.802,0.223 -0.32,0.053 -0.605,0.078 -0.858,0.078 -1.002,0 -1.756,-0.294 -2.257,-0.871 -0.5,-0.574 -0.75,-1.384 -0.75,-2.421 0,-1.148 0.214,-1.95 0.642,-2.401 0.423,-0.46 1.059,-0.682 1.9,-0.682 0.38,0 0.753,0.059 1.12,0.179 C -0.637,-0.35 -0.301,-0.198 0,0 M 3.832,-2.393 C 3.832,-3.512 3.675,-4.457 3.353,-5.218 3.036,-5.989 2.591,-6.588 2.016,-7.02 1.444,-7.459 0.754,-7.78 -0.055,-7.979 -0.869,-8.17 -1.78,-8.266 -2.8,-8.266 c -0.825,0 -1.644,0.043 -2.446,0.149 -0.8,0.099 -1.498,0.223 -2.085,0.361 v 2.991 h 0.465 c 0.468,-0.183 1.037,-0.353 1.707,-0.506 0.672,-0.156 1.27,-0.23 1.802,-0.23 0.706,0 1.279,0.067 1.722,0.198 0.442,0.128 0.779,0.316 1.01,0.556 0.218,0.23 0.377,0.524 0.478,0.874 C -0.048,-3.516 0,-3.09 0,-2.591 v 0.22 c -0.457,-0.376 -0.968,-0.677 -1.525,-0.893 -0.56,-0.222 -1.181,-0.329 -1.866,-0.329 -1.664,0 -2.952,0.503 -3.855,1.512 -0.905,1.005 -1.358,2.542 -1.358,4.599 0,0.987 0.14,1.836 0.416,2.555 0.274,0.712 0.662,1.338 1.163,1.872 0.465,0.5 1.043,0.882 1.724,1.159 0.681,0.279 1.379,0.417 2.092,0.417 0.643,0 1.229,-0.075 1.752,-0.234 C -0.931,8.139 -0.45,7.934 -0.02,7.653 L 0.117,8.191 H 3.832 V -2.393" /></g><g
           transform="translate(394.5928,319.1758)"
           id="g186"><path
             id="path188"
             style="fill:#0081c4;fill-opacity:1;fill-rule:nonzero;stroke:none"
             d="m 0,0 -7.659,-28.528 h -8.131 l -5.084,18.584 -4.973,-18.584 h -8.111 L -41.612,0 h 7.651 L -29.596,-19.644 -24.348,0 h 7.312 L -12.059,-19.644 -7.477,0 Z" /></g><g
           transform="translate(411.3896,296.1621)"
           id="g190"><path
             id="path192"
             style="fill:#0081c4;fill-opacity:1;fill-rule:nonzero;stroke:none"
             d="m 0,0 c 0.444,0.553 0.775,1.215 1.002,1.986 0.227,0.768 0.331,1.844 0.331,3.211 0,1.264 -0.115,2.323 -0.34,3.182 -0.23,0.853 -0.549,1.537 -0.959,2.047 -0.404,0.523 -0.894,0.895 -1.466,1.111 -0.579,0.22 -1.189,0.326 -1.853,0.326 -0.663,0 -1.249,-0.092 -1.772,-0.269 C -5.57,11.417 -6.063,11.056 -6.529,10.521 -6.952,10.022 -7.29,9.339 -7.538,8.472 -7.788,7.601 -7.911,6.514 -7.911,5.197 c 0,-1.176 0.109,-2.199 0.332,-3.054 0.211,-0.865 0.529,-1.559 0.951,-2.086 0.41,-0.495 0.892,-0.864 1.463,-1.086 0.566,-0.235 1.211,-0.352 1.938,-0.352 0.623,0 1.214,0.11 1.789,0.319 C -0.874,-0.846 -0.399,-0.499 0,0 m 8.459,5.232 c 0,-3.54 -1.032,-6.322 -3.087,-8.361 -2.055,-2.043 -4.938,-3.059 -8.657,-3.059 -3.719,0 -6.602,1.016 -8.666,3.059 -2.053,2.039 -3.078,4.821 -3.078,8.361 0,3.561 1.03,6.362 3.103,8.394 2.068,2.032 4.944,3.044 8.641,3.044 3.742,0 6.638,-1.02 8.681,-3.066 2.043,-2.042 3.063,-4.832 3.063,-8.372" /></g><g
           transform="translate(440.3232,305.5894)"
           id="g194"><path
             id="path196"
             style="fill:#0081c4;fill-opacity:1;fill-rule:nonzero;stroke:none"
             d="m 0,0 h -0.61 c -0.296,0.103 -0.769,0.181 -1.414,0.23 -0.643,0.053 -1.185,0.078 -1.619,0.078 -0.98,0 -1.843,-0.064 -2.592,-0.191 -0.751,-0.128 -1.556,-0.344 -2.421,-0.652 v -14.407 h -6.895 V 6.574 h 6.895 V 3.413 c 1.518,1.302 2.832,2.17 3.948,2.598 1.119,0.425 2.144,0.637 3.082,0.637 0.24,0 0.521,-0.003 0.824,-0.014 C -0.495,6.616 -0.231,6.602 0,6.574 V 0" /></g><path
           id="path198"
           style="fill:#0081c4;fill-opacity:1;fill-rule:nonzero;stroke:none"
           d="m 444.214,290.647 h 6.895 v 29.813 h -6.895 z" /><g
           transform="translate(471.542,296.5693)"
           id="g200"><path
             id="path202"
             style="fill:#0081c4;fill-opacity:1;fill-rule:nonzero;stroke:none"
             d="m 0,0 v 10.574 c -0.484,0.202 -0.99,0.351 -1.52,0.439 -0.537,0.092 -1.027,0.134 -1.471,0.134 -1.803,0 -3.155,-0.566 -4.055,-1.695 C -7.95,8.315 -8.401,6.747 -8.401,4.74 c 0,-2.11 0.364,-3.645 1.083,-4.598 0.725,-0.949 1.89,-1.43 3.494,-1.43 0.623,0 1.277,0.12 1.973,0.357 C -1.146,-0.69 -0.528,-0.382 0,0 M 6.895,-5.922 H 0 v 2.244 c -1.182,-0.973 -2.292,-1.688 -3.314,-2.152 -1.035,-0.456 -2.222,-0.691 -3.573,-0.691 -2.607,0 -4.686,1.009 -6.25,3.035 -1.571,2.013 -2.348,4.736 -2.348,8.163 0,1.822 0.262,3.44 0.795,4.853 0.522,1.412 1.248,2.619 2.157,3.632 0.864,0.956 1.916,1.699 3.151,2.23 1.234,0.531 2.469,0.796 3.702,0.796 1.279,0 2.331,-0.138 3.159,-0.41 C -1.704,15.502 -0.865,15.155 0,14.73 v 9.162 H 6.895 V -5.922" /></g><g
           transform="translate(520.0342,313.6572)"
           id="g204"><path
             id="path206"
             style="fill:#0081c4;fill-opacity:1;fill-rule:nonzero;stroke:none"
             d="M 0,0 H -13.081 V -5.303 H -0.95 v -5.522 H -13.081 V -23.01 h -7.293 V 5.519 H 0 Z" /></g><g
           transform="translate(538.1768,296.1621)"
           id="g208"><path
             id="path210"
             style="fill:#0081c4;fill-opacity:1;fill-rule:nonzero;stroke:none"
             d="m 0,0 c 0.444,0.553 0.782,1.215 1.004,1.986 0.223,0.768 0.329,1.844 0.329,3.211 0,1.264 -0.108,2.323 -0.34,3.182 -0.231,0.853 -0.549,1.537 -0.95,2.047 -0.413,0.523 -0.903,0.895 -1.475,1.111 -0.57,0.22 -1.187,0.326 -1.855,0.326 -0.663,0 -1.247,-0.092 -1.761,-0.269 -0.52,-0.177 -1.015,-0.538 -1.481,-1.073 -0.421,-0.499 -0.752,-1.182 -1,-2.049 -0.25,-0.871 -0.373,-1.958 -0.373,-3.275 0,-1.176 0.102,-2.199 0.321,-3.054 0.213,-0.865 0.538,-1.559 0.953,-2.086 0.41,-0.495 0.899,-0.864 1.465,-1.086 0.564,-0.235 1.207,-0.352 1.934,-0.352 0.625,0 1.224,0.11 1.791,0.319 C -0.874,-0.846 -0.391,-0.499 0,0 m 8.459,5.232 c 0,-3.54 -1.023,-6.322 -3.08,-8.361 -2.062,-2.043 -4.945,-3.059 -8.666,-3.059 -3.717,0 -6.6,1.016 -8.654,3.059 -2.056,2.039 -3.087,4.821 -3.087,8.361 0,3.561 1.035,6.362 3.102,8.394 2.066,2.032 4.952,3.044 8.639,3.044 3.742,0 6.64,-1.02 8.683,-3.066 2.045,-2.042 3.063,-4.832 3.063,-8.372" /></g><g
           transform="translate(565.0254,296.1621)"
           id="g212"><path
             id="path214"
             style="fill:#0081c4;fill-opacity:1;fill-rule:nonzero;stroke:none"
             d="m 0,0 c 0.444,0.553 0.783,1.215 1.002,1.986 0.225,0.768 0.34,1.844 0.34,3.211 0,1.264 -0.116,2.323 -0.349,3.182 -0.224,0.853 -0.549,1.537 -0.952,2.047 -0.412,0.523 -0.902,0.895 -1.473,1.111 -0.569,0.22 -1.189,0.326 -1.854,0.326 -0.657,0 -1.248,-0.092 -1.762,-0.269 C -5.561,11.417 -6.057,11.056 -6.529,10.521 -6.952,10.022 -7.283,9.339 -7.531,8.472 -7.778,7.601 -7.904,6.514 -7.904,5.197 c 0,-1.176 0.111,-2.199 0.324,-3.054 0.221,-0.865 0.538,-1.559 0.955,-2.086 0.405,-0.495 0.896,-0.864 1.461,-1.086 0.564,-0.235 1.216,-0.352 1.936,-0.352 0.624,0 1.221,0.11 1.788,0.319 C -0.874,-0.846 -0.391,-0.499 0,0 m 8.459,5.232 c 0,-3.54 -1.024,-6.322 -3.079,-8.361 -2.056,-2.043 -4.947,-3.059 -8.666,-3.059 -3.717,0 -6.601,1.016 -8.657,3.059 -2.054,2.039 -3.087,4.821 -3.087,8.361 0,3.561 1.037,6.362 3.104,8.394 2.072,2.032 4.952,3.044 8.64,3.044 3.75,0 6.639,-1.02 8.682,-3.066 2.045,-2.042 3.063,-4.832 3.063,-8.372" /></g><g
           transform="translate(592.377,296.5693)"
           id="g216"><path
             id="path218"
             style="fill:#0081c4;fill-opacity:1;fill-rule:nonzero;stroke:none"
             d="m 0,0 v 10.574 c -0.482,0.202 -0.991,0.351 -1.527,0.439 -0.536,0.092 -1.027,0.134 -1.469,0.134 -1.804,0 -3.158,-0.566 -4.057,-1.695 -0.899,-1.137 -1.354,-2.705 -1.354,-4.712 0,-2.11 0.363,-3.645 1.091,-4.598 0.718,-0.949 1.882,-1.43 3.484,-1.43 0.622,0 1.278,0.12 1.982,0.357 C -1.151,-0.69 -0.536,-0.382 0,0 M 6.888,-5.922 H 0 v 2.244 c -1.189,-0.973 -2.288,-1.688 -3.322,-2.152 -1.029,-0.456 -2.221,-0.691 -3.563,-0.691 -2.609,0 -4.696,1.009 -6.259,3.035 -1.564,2.013 -2.346,4.736 -2.346,8.163 0,1.822 0.261,3.44 0.791,4.853 0.525,1.412 1.249,2.619 2.166,3.632 0.866,0.956 1.915,1.699 3.143,2.23 1.235,0.531 2.468,0.796 3.703,0.796 1.288,0 2.34,-0.138 3.158,-0.41 C -1.711,15.502 -0.865,15.155 0,14.73 v 9.162 H 6.888 V -5.922" /></g><g
           transform="translate(371.2378,272.9473)"
           id="g220"><path
             id="path222"
             style="fill:#0081c4;fill-opacity:1;fill-rule:nonzero;stroke:none"
             d="m 0,0 c 0,0.804 -0.218,1.494 -0.65,2.071 -0.433,0.577 -0.936,0.988 -1.511,1.21 -0.761,0.309 -1.506,0.479 -2.236,0.514 -0.722,0.028 -1.69,0.043 -2.899,0.043 h -1.262 v -8.522 h 2.103 c 1.246,0 2.272,0.075 3.081,0.224 0.809,0.159 1.489,0.467 2.038,0.92 0.468,0.403 0.81,0.893 1.017,1.458 C -0.108,-1.516 0,-0.814 0,0 M 7.581,0.159 C 7.581,-1.115 7.358,-2.364 6.91,-3.586 6.465,-4.804 5.827,-5.83 5.002,-6.658 3.867,-7.781 2.607,-8.634 1.212,-9.207 c -1.395,-0.574 -3.131,-0.864 -5.205,-0.864 h -4.565 v -9.292 h -7.333 V 9.168 H -3.82 c 1.807,0 3.331,-0.158 4.572,-0.471 C 1.995,8.383 3.09,7.919 4.046,7.293 5.193,6.539 6.067,5.572 6.674,4.393 7.276,3.218 7.581,1.813 7.581,0.159" /></g><g
           transform="translate(398.4297,268.5332)"
           id="g224"><path
             id="path226"
             style="fill:#0081c4;fill-opacity:1;fill-rule:nonzero;stroke:none"
             d="m 0,0 h -0.61 c -0.287,0.096 -0.761,0.177 -1.41,0.223 -0.647,0.049 -1.185,0.082 -1.619,0.082 -0.975,0 -1.839,-0.065 -2.59,-0.192 -0.748,-0.127 -1.555,-0.347 -2.419,-0.655 v -14.407 h -6.894 V 6.566 h 6.894 V 3.408 c 1.51,1.297 2.827,2.164 3.943,2.596 1.119,0.428 2.147,0.637 3.087,0.637 0.243,0 0.513,-0.007 0.818,-0.018 C -0.495,6.612 -0.229,6.595 0,6.566 V 0" /></g><g
           transform="translate(415.0498,259.1064)"
           id="g228"><path
             id="path230"
             style="fill:#0081c4;fill-opacity:1;fill-rule:nonzero;stroke:none"
             d="m 0,0 c 0.444,0.541 0.775,1.207 1.002,1.976 0.218,0.778 0.331,1.847 0.331,3.213 0,1.26 -0.116,2.323 -0.338,3.183 -0.233,0.857 -0.551,1.539 -0.961,2.049 -0.403,0.521 -0.893,0.892 -1.466,1.111 -0.579,0.213 -1.196,0.326 -1.853,0.326 -0.665,0 -1.249,-0.095 -1.772,-0.265 -0.511,-0.18 -1.006,-0.541 -1.472,-1.079 C -6.95,10.015 -7.29,9.331 -7.538,8.46 -7.786,7.593 -7.911,6.503 -7.911,5.189 c 0,-1.174 0.111,-2.191 0.331,-3.055 0.212,-0.863 0.529,-1.557 0.952,-2.084 0.41,-0.5 0.892,-0.858 1.465,-1.088 0.565,-0.233 1.208,-0.35 1.934,-0.35 0.625,0 1.215,0.106 1.782,0.315 C -0.874,-0.856 -0.399,-0.499 0,0 m 8.459,5.225 c 0,-3.533 -1.032,-6.326 -3.087,-8.365 -2.055,-2.033 -4.938,-3.055 -8.657,-3.055 -3.719,0 -6.609,1.022 -8.665,3.055 -2.056,2.039 -3.08,4.832 -3.08,8.365 0,3.568 1.03,6.368 3.104,8.393 2.066,2.035 4.946,3.048 8.641,3.048 3.74,0 6.638,-1.02 8.682,-3.065 2.036,-2.047 3.062,-4.84 3.062,-8.376" /></g><g
           transform="translate(441.6523,260.3701)"
           id="g232"><path
             id="path234"
             style="fill:#0081c4;fill-opacity:1;fill-rule:nonzero;stroke:none"
             d="m 0,0 v 9.745 c -0.391,0.17 -0.876,0.301 -1.445,0.401 -0.579,0.091 -1.093,0.141 -1.546,0.141 -1.803,0 -3.157,-0.516 -4.064,-1.561 -0.897,-1.044 -1.346,-2.497 -1.346,-4.362 0,-2.066 0.381,-3.508 1.148,-4.332 0.774,-0.818 1.911,-1.221 3.42,-1.221 0.685,0 1.36,0.109 2.022,0.321 C -1.155,-0.651 -0.548,-0.361 0,0 m 6.893,-4.312 c 0,-2.025 -0.289,-3.72 -0.861,-5.097 -0.569,-1.381 -1.373,-2.464 -2.408,-3.239 -1.025,-0.796 -2.27,-1.367 -3.731,-1.721 -1.456,-0.343 -3.105,-0.524 -4.933,-0.524 -1.49,0 -2.962,0.089 -4.404,0.269 -1.443,0.178 -2.693,0.4 -3.749,0.655 v 5.381 h 0.834 c 0.844,-0.329 1.864,-0.634 3.067,-0.913 1.213,-0.273 2.29,-0.408 3.25,-0.408 1.266,0 2.303,0.121 3.099,0.358 0.788,0.23 1.396,0.57 1.818,1.005 0.391,0.404 0.682,0.932 0.86,1.568 C -0.086,-6.341 0,-5.575 0,-4.677 v 0.397 c -0.824,-0.676 -1.743,-1.207 -2.747,-1.611 -1.001,-0.393 -2.122,-0.588 -3.354,-0.588 -3.006,0 -5.318,0.904 -6.947,2.723 -1.625,1.813 -2.437,4.569 -2.437,8.273 0,1.777 0.248,3.306 0.744,4.598 0.495,1.292 1.192,2.418 2.092,3.37 0.842,0.899 1.879,1.597 3.098,2.096 1.231,0.496 2.484,0.747 3.771,0.747 1.161,0 2.213,-0.135 3.159,-0.415 0.945,-0.271 1.808,-0.65 2.579,-1.139 l 0.248,0.955 H 6.893 V -4.312" /></g><g
           transform="translate(469.8418,268.5332)"
           id="g236"><path
             id="path238"
             style="fill:#0081c4;fill-opacity:1;fill-rule:nonzero;stroke:none"
             d="m 0,0 h -0.611 c -0.293,0.096 -0.761,0.177 -1.412,0.223 -0.645,0.049 -1.188,0.082 -1.62,0.082 -0.979,0 -1.836,-0.065 -2.593,-0.192 -0.75,-0.127 -1.558,-0.347 -2.412,-0.655 v -14.407 h -6.894 V 6.566 h 6.894 V 3.408 c 1.507,1.297 2.823,2.164 3.94,2.596 1.116,0.428 2.15,0.637 3.09,0.637 0.242,0 0.512,-0.007 0.818,-0.018 C -0.496,6.612 -0.23,6.595 0,6.566 V 0" /></g><g
           transform="translate(485.9805,259.209)"
           id="g240"><path
             id="path242"
             style="fill:#0081c4;fill-opacity:1;fill-rule:nonzero;stroke:none"
             d="M 0,0 V 4.475 C -0.93,4.396 -1.94,4.29 -3.019,4.159 -4.1,4.025 -4.926,3.865 -5.485,3.686 -6.172,3.473 -6.694,3.157 -7.059,2.74 -7.422,2.332 -7.604,1.787 -7.604,1.107 c 0,-0.442 0.041,-0.806 0.117,-1.083 0.074,-0.283 0.265,-0.547 0.571,-0.803 0.294,-0.254 0.646,-0.439 1.048,-0.563 0.413,-0.12 1.048,-0.18 1.914,-0.18 0.686,0 1.382,0.137 2.094,0.42 C -1.156,-0.825 -0.536,-0.453 0,0 m 0,-3.342 c -0.368,-0.287 -0.832,-0.619 -1.381,-1.023 -0.54,-0.389 -1.061,-0.704 -1.54,-0.935 -0.674,-0.307 -1.382,-0.53 -2.102,-0.682 -0.726,-0.142 -1.525,-0.217 -2.39,-0.217 -2.032,0 -3.741,0.631 -5.115,1.894 -1.375,1.271 -2.062,2.878 -2.062,4.85 0,1.568 0.345,2.857 1.051,3.851 0.697,0.999 1.692,1.778 2.979,2.358 1.269,0.577 2.844,0.976 4.735,1.222 1.882,0.244 3.841,0.424 5.86,0.542 v 0.116 c 0,1.186 -0.486,2.007 -1.449,2.457 -0.971,0.46 -2.398,0.679 -4.278,0.679 -1.131,0 -2.346,-0.198 -3.625,-0.605 -1.289,-0.396 -2.213,-0.708 -2.774,-0.921 h -0.629 v 5.19 c 0.728,0.191 1.908,0.421 3.542,0.679 1.634,0.263 3.279,0.39 4.917,0.39 3.908,0 6.73,-0.605 8.466,-1.809 C 5.943,13.49 6.813,11.59 6.813,9.016 V -5.625 H 0 v 2.283" /></g><g
           transform="translate(519.3213,268.8379)"
           id="g244"><path
             id="path246"
             style="fill:#0081c4;fill-opacity:1;fill-rule:nonzero;stroke:none"
             d="m 0,0 v -15.254 h -6.896 v 10.747 c 0,1.048 -0.023,1.944 -0.074,2.673 -0.053,0.736 -0.191,1.338 -0.422,1.795 -0.224,0.457 -0.575,0.797 -1.035,1.002 -0.469,0.216 -1.117,0.314 -1.961,0.314 -0.677,0 -1.328,-0.134 -1.968,-0.403 C -12.993,0.594 -13.563,0.308 -14.071,0 v -15.254 h -6.895 V 6.262 h 6.895 V 3.887 c 1.182,0.934 2.313,1.664 3.398,2.183 1.076,0.528 2.271,0.79 3.581,0.79 1.412,0 2.656,-0.315 3.737,-0.949 C -2.272,5.274 -1.43,4.35 -0.819,3.122 0.554,4.279 1.893,5.196 3.189,5.861 4.488,6.523 5.754,6.86 7,6.86 c 2.312,0 4.076,-0.698 5.275,-2.092 1.198,-1.391 1.802,-3.395 1.802,-6.014 V -15.254 H 7.183 v 10.747 c 0,1.059 -0.02,1.958 -0.068,2.687 C 7.069,-1.098 6.934,-0.496 6.701,-0.039 6.489,0.418 6.142,0.758 5.677,0.963 5.202,1.179 4.536,1.277 3.69,1.277 3.119,1.277 2.556,1.186 2.009,0.987 1.46,0.782 0.789,0.456 0,0" /></g><g
           transform="translate(559.9658,268.8379)"
           id="g248"><path
             id="path250"
             style="fill:#0081c4;fill-opacity:1;fill-rule:nonzero;stroke:none"
             d="m 0,0 v -15.254 h -6.895 v 10.747 c 0,1.048 -0.032,1.944 -0.074,2.673 -0.052,0.736 -0.198,1.338 -0.421,1.795 -0.232,0.457 -0.583,0.797 -1.043,1.002 -0.468,0.216 -1.117,0.314 -1.963,0.314 -0.667,0 -1.325,-0.134 -1.96,-0.403 C -12.994,0.594 -13.571,0.308 -14.079,0 v -15.254 h -6.892 V 6.262 h 6.892 V 3.887 c 1.184,0.934 2.313,1.664 3.398,2.183 1.078,0.528 2.272,0.79 3.59,0.79 1.403,0 2.65,-0.315 3.735,-0.949 1.078,-0.637 1.927,-1.561 2.529,-2.789 1.381,1.157 2.714,2.074 4.009,2.739 1.299,0.662 2.565,0.999 3.811,0.999 2.32,0 4.076,-0.698 5.275,-2.092 1.207,-1.391 1.801,-3.395 1.801,-6.014 V -15.254 H 7.177 v 10.747 c 0,1.059 -0.022,1.958 -0.068,2.687 C 7.07,-1.098 6.928,-0.496 6.702,-0.039 6.483,0.418 6.144,0.758 5.669,0.963 5.194,1.179 4.538,1.277 3.683,1.277 3.111,1.277 2.552,1.186 2.002,0.987 1.454,0.782 0.783,0.456 0,0" /></g><g
           transform="translate(593.9404,267.1094)"
           id="g252"><path
             id="path254"
             style="fill:#0081c4;fill-opacity:1;fill-rule:nonzero;stroke:none"
             d="M 0,0 C -0.041,1.445 -0.4,2.535 -1.067,3.258 -1.744,3.986 -2.795,4.352 -4.222,4.352 -5.549,4.352 -6.634,4.004 -7.489,3.314 -8.344,2.624 -8.816,1.52 -8.919,0 Z M 6.836,-4.042 H -8.903 c 0.102,-1.685 0.74,-2.98 1.919,-3.869 1.178,-0.892 2.915,-1.338 5.205,-1.338 1.457,0 2.858,0.262 4.221,0.782 1.364,0.528 2.436,1.09 3.227,1.685 h 0.763 v -5.54 c -1.554,-0.627 -3.013,-1.076 -4.388,-1.352 -1.381,-0.287 -2.899,-0.426 -4.566,-0.426 -4.301,0 -7.599,0.967 -9.891,2.914 -2.292,1.944 -3.436,4.706 -3.436,8.298 0,3.55 1.083,6.362 3.253,8.436 2.172,2.074 5.148,3.115 8.93,3.115 3.487,0 6.108,-0.886 7.862,-2.659 1.763,-1.766 2.64,-4.311 2.64,-7.632 v -2.414" /></g></g></g></g></svg>