<svg xmlns="http://www.w3.org/2000/svg" width="116.091" height="74.183" viewBox="0 0 30.716 19.628">
  <g fill="#ff6700">
    <path d="M30.393 0H26.23a.32.32 0 0 0-.323.317v18.995a.32.32 0 0 0 .323.315h4.163a.32.32 0 0 0 .323-.315V.317A.321.321 0 0 0 30.393 0M16.179 0H.322A.319.319 0 0 0 0 .317v18.995c0 .173.143.315.322.315h4.164a.321.321 0 0 0 .324-.315V4.403c0-.172.143-.315.321-.315h8.97c2.522 0 3.238 1.932 3.238 3.179v12.045a.32.32 0 0 0 .323.315h4.161a.32.32 0 0 0 .323-.315V5.836c0-1.111-.134-2.71-1.568-4.116C19.078.25 17.71 0 16.178 0"/>
    <path d="M13.262 7.566H8.891a.321.321 0 0 0-.325.315v11.432c0 .173.146.315.325.315h4.371a.32.32 0 0 0 .322-.315V7.881a.32.32 0 0 0-.322-.315"/>
  </g>
</svg>
