<?xml version="1.0" encoding="utf-8"?>
<!-- Generator: Adobe Illustrator 18.0.0, SVG Export Plug-In . SVG Version: 6.00 Build 0)  -->
<!DOCTYPE svg PUBLIC "-//W3C//DTD SVG 1.1//EN" "http://www.w3.org/Graphics/SVG/1.1/DTD/svg11.dtd" [
	<!ENTITY ns_extend "http://ns.adobe.com/Extensibility/1.0/">
	<!ENTITY ns_ai "http://ns.adobe.com/AdobeIllustrator/10.0/">
	<!ENTITY ns_graphs "http://ns.adobe.com/Graphs/1.0/">
	<!ENTITY ns_vars "http://ns.adobe.com/Variables/1.0/">
	<!ENTITY ns_imrep "http://ns.adobe.com/ImageReplacement/1.0/">
	<!ENTITY ns_sfw "http://ns.adobe.com/SaveForWeb/1.0/">
	<!ENTITY ns_custom "http://ns.adobe.com/GenericCustomNamespace/1.0/">
	<!ENTITY ns_adobe_xpath "http://ns.adobe.com/XPath/1.0/">
]>
<svg version="1.1" id="Layer_1" xmlns:x="&ns_extend;" xmlns:i="&ns_ai;" xmlns:graph="&ns_graphs;"
	 xmlns="http://www.w3.org/2000/svg" xmlns:xlink="http://www.w3.org/1999/xlink" x="0px" y="0px" viewBox="0 0 960 560"
	 enable-background="new 0 0 960 560" xml:space="preserve">
<metadata>
	<sfw  xmlns="&ns_sfw;">
		<slices></slices>
		<sliceSourceBounds  height="539.6" width="960.3" y="10.2" x="-0.3" bottomLeftOrigin="true"></sliceSourceBounds>
	</sfw>
</metadata>
<rect id="Rectangle_2" y="10.2" fill="#FFFFFF" width="960" height="539.6"/>
<g id="Group_1" opacity="0.58">
	<path id="Path_2" fill="#072986" d="M0,453.3c7.7,0,15,2.1,21.7,5.9c16.1,10.1,19.2,29.7,7.3,43.3c-7,8-17.8,12.2-29,12.2
		C0,514.8,0,453.3,0,453.3z"/>
	<path id="Path_3" fill="#072986" d="M143.3,31.9c43,19.2,53.5,53.8,62.9,83.9c7,21.7,26.9,38.4,51.7,46.5
		c54.9,18.2,101,55.6,123,106.9c36,84.2-4.9,187.3-98.6,228.6c-83.9,37-165.6,30.4-220.9-18.9c-22.4-19.9-38.4-33.5-61.9-39.1V56.3
		c1.4-1,2.8-2.1,4.2-3.1C38.4,25.9,95.1,10.2,143.3,31.9z"/>
</g>
<g id="Group_361" transform="translate(16.079 232.268)">
	<g id="Group_115">
		
			<linearGradient id="Path_1304_1_" gradientUnits="userSpaceOnUse" x1="325.1234" y1="1434.0237" x2="325.4053" y2="1434.0237" gradientTransform="matrix(731.2285 0 0 -572.9316 -237182.6094 821679.9375)">
			<stop  offset="0" style="stop-color:#40D5E6"/>
			<stop  offset="1" style="stop-color:#5577FF"/>
		</linearGradient>
		<path id="Path_1304" fill="url(#Path_1304_1_)" d="M562.6,155.1h185.6V16.6c0-3.7-2.8-6.8-6.5-6.8H569.1c-3.7,0-6.5,3.1-6.5,6.8
			V155.1L562.6,155.1z"/>
	</g>
	<g id="Group_116">
		
			<linearGradient id="Rectangle_61_1_" gradientUnits="userSpaceOnUse" x1="331.2294" y1="1424.1605" x2="331.483" y2="1424.1605" gradientTransform="matrix(-678.238 0 0 440.7176 225393.5 -627580.0625)">
			<stop  offset="0" style="stop-color:#404B61"/>
			<stop  offset="0.486" style="stop-color:#3B475F"/>
			<stop  offset="1" style="stop-color:#2F3E5C"/>
		</linearGradient>
		<rect id="Rectangle_61" x="569.1" y="16.6" fill="url(#Rectangle_61_1_)" width="172" height="111.9"/>
	</g>
	<g id="Group_117">
		<path id="Path_1305" fill="#6AAFE8" d="M550.9,17.2h-43.7v-0.3c0.6-3.7,4-6.5,7.4-6.5c0.6,0,0.9,0,1.5,0.3
			c2.2-4.6,6.8-7.4,11.5-7.4c4.3,0,8.1,2.2,10.5,5.6c0.9-0.3,1.9-0.3,2.8-0.3c4.6,0,8.7,3.7,9.6,8.7l0,0H550.9z M508.1,16.6h42.1
			c-0.9-4.3-4.6-7.4-8.7-7.4c-0.9,0-1.9,0.3-2.8,0.6h-0.3V9.4c-2.2-3.4-6.2-5.6-10.2-5.6c-4.6,0-9,2.8-11.2,7.1v0.3h-0.3
			c-0.6,0-1.2-0.3-1.5-0.3C511.5,11,508.7,13.2,508.1,16.6z"/>
	</g>
	<g id="Group_118">
		<path id="Path_1306" fill="#6AAFE8" d="M711.7-39.8L711.7-39.8C696.2-48.2,698-64.6,698-64.6v-0.3h0.3c9.9,0,13-3.4,13-3.4
			l0.3-0.3l0.3,0.3c0,0,3.1,3.4,13,3.4h0.3v0.3C725.3-64.3,727.2-48.2,711.7-39.8L711.7-39.8z M698.7-64.3
			c-0.3,2.2-0.9,16.1,13,23.9c13.6-7.4,13-21.4,13-23.9c-8.7,0-12.1-2.5-13-3.4C710.8-66.8,707.3-64.3,698.7-64.3z"/>
	</g>
	<g id="Group_126">
		<g id="Group_119">
			
				<linearGradient id="Path_1307_1_" gradientUnits="userSpaceOnUse" x1="313.0204" y1="1438.9358" x2="313.2744" y2="1438.9358" gradientTransform="matrix(174.5079 0 0 -286.3068 -53828.4648 412117.1563)">
				<stop  offset="0" style="stop-color:#3076A1"/>
				<stop  offset="1" style="stop-color:#639C38"/>
			</linearGradient>
			<path id="Path_1307" fill="url(#Path_1307_1_)" d="M796.6,176.2c-2.5-11.2,2.8-14.3,7.4-16.7c4-2.2,7.7-4.3,7.4-10.8
				c-0.3-8.7,5.3-12.1,10.5-14.9c3.7-2.2,7.1-4,7.7-8.1c1.2-9.6,9.6-21.7,9.9-21.7l0.6,0.3c0,0-8.4,12.1-9.6,21.4
				c-0.6,4.3-4.3,6.5-8.1,8.7c-5,2.8-10.2,5.9-10.2,14.3c0.3,7.1-4,9.3-7.7,11.5c-5,2.8-9.6,5.3-7.1,16.1L796.6,176.2z"/>
		</g>
		<g id="Group_120">
			
				<linearGradient id="Path_1308_1_" gradientUnits="userSpaceOnUse" x1="316.5049" y1="1437.9674" x2="316.7586" y2="1437.9674" gradientTransform="matrix(227.8516 0 0 -317.4301 -71323.9141 456587.1875)">
				<stop  offset="0" style="stop-color:#3076A1"/>
				<stop  offset="1" style="stop-color:#639C38"/>
			</linearGradient>
			<path id="Path_1308" fill="url(#Path_1308_1_)" d="M799.4,173.4h-0.3c-2.2-0.3-4-1.9-6.5-5.3v-0.3l0.3-0.3c0,0,3.7-5,2.5-13.9
				c-0.3-1.5-0.6-3.4-1.2-5c-0.6-1.9-0.9-3.1-0.3-4c0.6-1.2,2.5-1.9,8.1-3.4s7.7-8.4,9.3-14.3c1.5-5.6,3.1-10.8,7.4-10.8
				c4,0.3,10.2-6.5,15.8-12.7c5-5.6,9.9-10.8,13-10.5c0.6,0,1.5,0.3,1.9,0.9c2.8,3.4,0.3,8.7-2.2,13.6c-2.2,4.3-4,8.4-2.8,11.2
				c1.5,3.4,1.9,6.5,0.6,8.7c-1.5,2.8-4.6,4.6-9.6,5.6c-4.6,0.6-5,5.9-5.6,11.8c-0.6,6.5-1.2,13.9-9,14.6c-5.6,0.6-9.6,4.6-13,8.7
				C804.3,170.6,801.9,173.4,799.4,173.4z M793.2,167.8c2.2,3.1,4,4.6,5.9,5c2.5,0.3,5-2.5,7.7-5.3c3.4-3.7,7.4-8.1,13.3-8.7
				c7.1-0.6,7.7-7.4,8.4-13.9c0.6-5.9,0.9-11.5,6.2-12.1c5-0.6,7.7-2.5,9.3-5c0.9-2.2,0.9-5-0.6-8.1c-1.5-3.1,0.6-7.1,2.8-11.8
				c2.5-5,5-9.9,2.5-13c-0.3-0.3-0.9-0.6-1.2-0.6c-2.8,0-7.4,5-12.4,10.5c-5.9,6.2-11.8,12.7-16.1,12.7c0,0,0,0-0.3,0
				c-4-0.3-5.3,4.6-6.8,10.2c-1.9,6.2-3.7,13.3-9.9,14.9c-5,1.2-7.1,1.9-7.4,3.1c-0.3,0.6,0,1.9,0.3,3.7c0.6,1.5,0.9,3.4,1.2,5
				C796.9,161.9,793.8,166.6,793.2,167.8z"/>
		</g>
		<g id="Group_121">
			
				<linearGradient id="Path_1309_1_" gradientUnits="userSpaceOnUse" x1="310.6139" y1="1436.6893" x2="310.8676" y2="1436.6893" gradientTransform="matrix(146.9688 0 0 -371.6891 -44871.5508 534125.625)">
				<stop  offset="0" style="stop-color:#3076A1"/>
				<stop  offset="1" style="stop-color:#639C38"/>
			</linearGradient>
			<path id="Path_1309" fill="url(#Path_1309_1_)" d="M799.4,170.9L799.4,170.9c-3.7-0.3-6.2-8.4-9-16.1c-1.2-3.7-2.5-7.1-3.4-9.3
				c-0.9-1.9-1.9-3.4-3.1-5.3c-2.8-4.6-5.9-9.3-5-13.6c0.6-2.2,1.9-4,4.6-5.6c5.6-3.4,4.6-5.3,2.8-9.6c-1.5-3.1-3.4-7.4-3.4-14.3
				c0-2.8,0-5.3,0-7.7c-0.3-7.1-0.3-10.8,1.2-12.1c0.6-0.6,1.5-0.6,2.5-0.3c2.2,0.3,2.8,2.2,3.7,4c1.2,2.5,2.5,5,6.5,5.9
				c3.7,0.9,7.4,1.9,8.7,4.6c0.6,1.9,0,4.3-2.2,7.7c-0.6,0.9-0.6,1.5-0.6,2.2c0.3,1.2,2.2,2.2,4.3,3.4c3.1,1.5,7.1,3.4,8.1,7.4
				c0.9,3.1,0,7.1-3.1,12.4c-7.1,12.1-6.8,20.1-6.5,27.3c0.3,5.3,0.3,10.2-2.8,15.8C802.2,169.7,800.9,170.9,799.4,170.9z
				 M785.7,77.3c-0.3,0-0.9,0-1.2,0.3c-1.2,0.9-1.2,4.6-0.9,11.5c0,2.2,0,4.6,0,7.7c0,6.5,1.9,10.8,3.4,13.9
				c1.9,4.3,3.1,6.8-3.1,10.5c-2.5,1.5-3.7,3.1-4.3,5.3c-0.9,4,1.9,8.7,4.6,13c0.9,1.9,2.2,3.7,3.1,5.3c1.2,2.2,2.2,5.9,3.4,9.6
				c2.5,7.1,5,15.5,8.1,15.5c1.2,0,2.5-0.9,3.7-3.4c2.8-5.3,2.8-10.2,2.5-15.5c-0.3-7.1-0.6-15.5,6.8-27.6c2.8-5,4-8.7,3.1-11.8
				c-0.9-3.7-4.6-5.6-7.7-7.1c-2.5-1.2-4.3-2.2-4.6-3.7c-0.3-0.9,0-1.5,0.6-2.5c1.9-3.1,2.5-5.3,1.9-6.8c-0.9-2.5-4.6-3.4-8.1-4.3
				c-4.3-0.9-5.9-4-7.1-6.2c-0.9-1.9-1.5-3.4-3.4-3.7C786.4,77.3,786.1,77.3,785.7,77.3z"/>
		</g>
		<g id="Group_122">
			
				<linearGradient id="Path_1310_1_" gradientUnits="userSpaceOnUse" x1="270.6835" y1="1437.4536" x2="270.9372" y2="1437.4536" gradientTransform="matrix(44.5636 0 0 -338.2331 -11273.2881 486326.7188)">
				<stop  offset="0" style="stop-color:#3076A1"/>
				<stop  offset="1" style="stop-color:#639C38"/>
			</linearGradient>
			<path id="Path_1310" fill="url(#Path_1310_1_)" d="M799.7,175.2l-0.6-0.3c3.4-11.8-2.8-37.8-4.6-44.3c-0.9-3.1,0-7.7,0.6-12.4
				c0.9-5.9,2.2-12.1-0.6-14.3c-5.3-4.3-5-14.3-5-14.6h0.6c0,0-0.3,9.9,4.6,13.9c3.1,2.5,1.9,9,0.9,14.9c-0.9,4.3-1.5,9-0.6,12.1
				C797.2,138.4,803.1,163.5,799.7,175.2z"/>
		</g>
		
			<linearGradient id="Path_1311_1_" gradientUnits="userSpaceOnUse" x1="310.5559" y1="1438.5167" x2="310.8097" y2="1438.5167" gradientTransform="matrix(143.8571 0 0 -298.2465 -43911.9023 429167.1875)">
			<stop  offset="0" style="stop-color:#3076A1"/>
			<stop  offset="1" style="stop-color:#639C38"/>
		</linearGradient>
		<path id="Path_1311" fill="url(#Path_1311_1_)" d="M773,99.3c-1.5-4-7.1-3.4-6.5,2.2c0.6,5.6,4,11.5-1.2,20.8
			c-5.6,9.3,7.1,11.2,11.8,17c4.6,5.9,6.2,13.9,9.9,19.2c3.7,5.3,6.5,17.4,9.6,13c3.1-4.6,0.3-10.5,0.6-18.9
			c0.3-8.4,7.4-13.6,0.3-18.9c-6.8-5.3-13.9-6.8-11.8-18.9C786.4,109.5,777.7,111.4,773,99.3z"/>
		<g id="Group_123">
			<path id="Path_1312" fill="#FFFFFF" d="M801.2,172.4c0-0.3-4-24.5-12.7-31.3c-8.7-6.8-10.5-13-13.6-27.9h0.6
				c3.1,14.6,4.6,20.8,13.3,27.3c9,6.8,12.7,30.7,12.7,31.6L801.2,172.4z"/>
		</g>
		
			<linearGradient id="Path_1313_1_" gradientUnits="userSpaceOnUse" x1="314.5285" y1="1435.7423" x2="314.6967" y2="1436.0469" gradientTransform="matrix(192.4309 0 0 -413.1114 -59738.1484 593343.125)">
			<stop  offset="0" style="stop-color:#3076A1"/>
			<stop  offset="1" style="stop-color:#639C38"/>
		</linearGradient>
		<path id="Path_1313" fill="url(#Path_1313_1_)" d="M793.5,171.5c0,0,2.5-6.8-2.2-16.4c-4.6-9.6-8.4-8.1,2.8-15.5
			c11.2-7.4,0-30.7,9.6-33.5c9.6-3.1,18-40.6,25.4-35.6c7.4,4.6-2.5,23.2,2.8,28.8c5.3,5.6,5.9,12.4-5,18.3s7.7,27.3-6.8,34.1
			C805.6,158.2,809.6,184.2,793.5,171.5z"/>
		<g id="Group_124">
			<path id="Path_1314" fill="#FFFFFF" d="M798.1,178.6c0,0-1.5-8.7,3.4-19.8c5-11.5,7.4-23.9,6.5-33.2c-0.6-5,2.5-7.1,5.6-9
				c2.8-1.9,5.9-3.7,5.9-9c0-4.6,1.5-15.2,1.9-15.5h0.6c0,0-1.9,11.2-1.9,15.5c0.3,5.6-3.1,7.4-6.2,9.6c-2.8,1.9-5.6,3.7-5.3,8.4
				c0.9,9.6-1.5,22-6.5,33.5c-5,10.8-3.4,19.2-3.4,19.5L798.1,178.6z"/>
		</g>
		<path id="Path_1315" fill="#FFFFFF" d="M809.9,131.2c3.4-3.1,7.7-3.7,6.8,1.2c-0.9,4.6-4,6.2-2.5,9.3c1.5,3.1,4,5.9-0.3,9.6
			c-4.3,3.7-6.8,4-8.1,11.2c-1.2,7.1-0.9,11.8-6.8,12.1c-5.9,0.3-3.4-8.4-1.5-12.4c1.5-3.1,1.9-7.1,0.9-10.5
			c-1.9-5.9-5.3-9,2.2-11.2C807.7,138,807.7,133.4,809.9,131.2z"/>
		<g id="Group_125">
			
				<linearGradient id="Path_1316_1_" gradientUnits="userSpaceOnUse" x1="279.3685" y1="1445.1523" x2="279.6221" y2="1445.1523" gradientTransform="matrix(53.1816 0 0 -174.294 -14057.958 252037.8594)">
				<stop  offset="0" style="stop-color:#3076A1"/>
				<stop  offset="1" style="stop-color:#639C38"/>
			</linearGradient>
			<path id="Path_1316" fill="url(#Path_1316_1_)" d="M799.4,178.6c0-0.9-0.3-21.1,3.1-24.2c3.7-3.4,4.3-9.6,4.3-13
				c0-4.3,5.3-6.8,5.6-7.1l0.3,0.6c0,0-5.3,2.5-5.3,6.5c0,4.3-0.9,9.9-4.6,13.3c-3.4,3.1-2.8,23.6-2.8,23.9L799.4,178.6z"/>
		</g>
		
			<linearGradient id="Path_1317_1_" gradientUnits="userSpaceOnUse" x1="301.9009" y1="1459.4114" x2="302.1548" y2="1459.4114" gradientTransform="matrix(98.3222 0 0 -93.1693 -28895.7422 136154.6563)">
			<stop  offset="0" style="stop-color:#FF9340"/>
			<stop  offset="1" style="stop-color:#FFCE45"/>
		</linearGradient>
		<path id="Path_1317" fill="url(#Path_1317_1_)" d="M812.7,170.6l-5.9,23.6h-13l-5.9-23.6H812.7z"/>
		
			<linearGradient id="Path_1318_1_" gradientUnits="userSpaceOnUse" x1="301.9009" y1="1459.4114" x2="302.1548" y2="1459.4114" gradientTransform="matrix(98.3222 0 0 -93.1693 -28895.7422 136154.6563)">
			<stop  offset="0" style="stop-color:#C97332"/>
			<stop  offset="1" style="stop-color:#FFCE45"/>
		</linearGradient>
		<path id="Path_1318" fill="url(#Path_1318_1_)" d="M812.7,170.6c0,0-13,2.5-13,23.6h-6.2l-5.9-23.6H812.7z"/>
	</g>
	<g id="Group_127">
		<rect id="Rectangle_62" x="563.2" y="108.6" fill="#1487E3" width="17.4" height="2.2"/>
	</g>
	<g id="Group_128">
		<path id="Path_1319" fill="#78C2FF" d="M559.8,51.6h-27.6V14.1h0.6V51h27V51.6z"/>
	</g>
	<g id="Group_129">
		<path id="Path_1320" fill="#78C2FF" d="M677,26.8h-0.6v-38.7h35.3v-32.5h0.6v33.2H677V26.8z"/>
	</g>
	<g id="Group_130">
		<path id="Path_1321" fill="#78C2FF" d="M790.7,69.9h-36.6v-0.6h35.9V46.6h0.6V69.9z"/>
	</g>
	<g id="Group_131">
		<path id="Path_1322" fill="#FF7E55" d="M516.8,101.2c0,0-0.9,11.8,1.2,13c1.2,0.9,6.8,3.7,6.5,4.3c-0.3,0.6-3.1,5-3.1,5
			s-10.2-7.1-10.5-9.3c-0.3-2.2,0.6-17,1.9-17.7c0.9-0.6,1.5,0,3.1,0.9C517.7,98.7,516.8,101.2,516.8,101.2z"/>
	</g>
	<g id="Group_134">
		<g id="Group_133">
			<g id="Group_132">
				<path id="Path_1323" fill="#424773" d="M515.5,185.8c0,0-0.3,2.5-0.3,2.8c0,0.3-3.7-0.3-3.7-0.3l-0.3-2.8
					C511.2,185.5,514.9,185.5,515.5,185.8z"/>
			</g>
		</g>
	</g>
	<g id="Group_137">
		<g id="Group_136">
			<g id="Group_135">
				<path id="Path_1324" fill="#292C47" d="M515.2,188.3c0.6,0.9,1.2,1.5,2.2,2.2s2.8,0.9,3.4,1.5c0.3,0.3,1.5,2.5-2.8,2.5
					s-6.5,0.3-7.1-0.6c-0.6-0.6,0.6-5.6,0.6-5.6S512.4,188.6,515.2,188.3z"/>
			</g>
		</g>
	</g>
	<g id="Group_140">
		<g id="Group_139">
			<g id="Group_138">
				<path id="Path_1325" fill="#424773" d="M533.2,185.8c0,0-0.3,2.5-0.3,2.8c0,0.3-3.7-0.3-3.7-0.3l-0.3-2.8
					C528.8,185.5,532.6,185.5,533.2,185.8z"/>
			</g>
		</g>
	</g>
	<g id="Group_143">
		<g id="Group_142">
			<g id="Group_141">
				<path id="Path_1326" fill="#292C47" d="M532.9,188.3c0.6,0.9,1.2,1.5,2.2,2.2c0.9,0.6,5,1.2,5.6,1.9c0.3,0.3,1.2,2.2-5,2.2
					c-4.3,0-6.5,0.3-7.1-0.6c-0.6-0.6,0.6-5.6,0.6-5.6S530.1,188.6,532.9,188.3z"/>
			</g>
		</g>
	</g>
	<g id="Group_146">
		<g id="Group_145">
			<g id="Group_144">
				<path id="Path_1327" fill="#292C47" d="M516.8,125.3c0,0-3.4,5.6-3.1,10.5c0.3,5-0.3,10.5-0.9,15.8c-0.6,5.9-2.2,18-2.2,21.4
					c0,3.1,0,14.9,0,14.9h5.9c0,0,2.2-23.9,3.1-26.3c0.9-2.5,5-20.5,5.3-22.3C525.1,137.1,516.8,125.3,516.8,125.3z"/>
			</g>
		</g>
	</g>
	<g id="Group_149">
		<g id="Group_148">
			<g id="Group_147">
				<path id="Path_1328" fill="#292C47" d="M534.1,126c0,0,1.2,13.6,1.5,16.7c0.3,3.1,0,16.4,0.3,18.3c0.3,1.9-1.2,22.3-1.5,26.3
					h-6.2c0,0-0.3-16.4-0.3-24.5c0-8.1-1.9-17.4-4-22.6c-2.2-5.3-7.4-5.3-8.7-15.2C514.9,125,532.3,122.9,534.1,126z"/>
			</g>
		</g>
	</g>
	<g id="Group_152">
		<g id="Group_151">
			<g id="Group_150">
				<path id="Path_1329" fill="#EEA886" d="M520.2,78.2c0,0,4-2.8,6.8,0.3c2.8,3.1,4,9.9,2.2,11.5c-1.9,1.5-5.3,1.9-6.8,0
					s-3.4-4.6-3.7-6.8C518,80.7,519.2,79.2,520.2,78.2z"/>
			</g>
		</g>
	</g>
	<g id="Group_155">
		<g id="Group_154">
			<g id="Group_153">
				<path id="Path_1330" fill="#EEA886" d="M527.9,90.3c0,0,0,2.8,0.3,3.4c0.3,0.6-5.9,0.6-5.9,0.6c-0.3-2.2-0.9-4.3-1.5-6.2
					C519.9,85.4,527.9,90.3,527.9,90.3z"/>
			</g>
		</g>
	</g>
	<g id="Group_158">
		<g id="Group_157">
			<g id="Group_156">
				<path id="Path_1331" fill="#754836" d="M521.1,88.2c0,0,0.6,0.6,2.2,0c1.5-0.6,3.1-3.4,3.7-4c0.6-0.3,0.6-0.9,0.6-0.9l0.6,0.6
					h0.6c0,0-1.2-1.9-0.3-3.1c0.9-1.2-2.5-6.5-7.4-3.1c0,0-3.7,2.2-3.1,4.6C518.6,84.7,519.9,87.2,521.1,88.2z"/>
			</g>
		</g>
	</g>
	<g id="Group_161">
		<g id="Group_160">
			<g id="Group_159">
				<path id="Path_1332" fill="#E2D2CA" d="M528.5,93.7c0,0,0-1.2-0.6-1.2s-5.6-0.6-6.2-0.3v1.2C521.7,93.7,522.7,94.4,528.5,93.7z"
					/>
			</g>
		</g>
	</g>
	<g id="Group_164">
		<g id="Group_163">
			<g id="Group_162">
				<path id="Path_1333" fill="#EEA886" d="M527.3,82.6c-0.3-0.3-1.5-1.2-1.5,0c0,1.2,1.2,2.8,1.9,2.5
					C527.9,84.7,527.6,83.5,527.3,82.6z"/>
			</g>
		</g>
	</g>
	<g id="Group_167">
		<g id="Group_166">
			<g id="Group_165">
				<path id="Path_1334" fill="#754836" d="M519.2,78.9c0,0-5.6,1.5,1.5,9L519.2,78.9z"/>
			</g>
		</g>
	</g>
	<g id="Group_169">
		<g id="Group_168">
			<path id="Path_1335" fill="#EEA886" d="M569.4,110.8h-5.9c0.6-0.3,1.2-0.9,1.2-1.2c-0.3-0.3-1.9,0.3-2.5,0.6
				c-0.6,0-1.5,0-2.5,0.3l-1.9,0.9l1.5,1.5c0,0,3.1,0.3,4,0.6c1.5,0,5.9-1.5,5.9-1.9C569.8,110.8,569.4,110.8,569.4,110.8z"/>
		</g>
	</g>
	<g id="Group_172">
		<g id="Group_171">
			<g id="Group_170">
				<path id="Path_1336" fill="#FF7E55" d="M536,95.6c-3.7-0.6-7.4-1.5-7.4-1.5l-6.8-0.3c0,0-6.2,1.5-8.7,2.5
					c-0.3,0-0.3,5.9-0.9,7.4l2.2,4.6c0,0,1.2,9,1.5,13c0,1.9-2.5,17.4-2.5,17.4c2.5,0.6,5,1.2,7.4,1.2c4.6,0.6,16.4-0.3,16.4-0.9
					c0-0.6-2.2-21.7-2.5-22.6c-0.3-1.5,0.3-9.3,0.3-9.3c0.9,1.2,5.9,5.9,8.4,7.4c1.9,0.9,6.2,0.3,7.4,0.3c2.8-0.3,10.2-0.9,10.5-1.2
					c0-0.3-0.3-3.1-0.6-3.1c-0.3,0-10.2-0.6-12.4-0.6c-0.9,0-4.3-3.7-4.3-3.7S537.8,96.5,536,95.6z"/>
			</g>
		</g>
	</g>
	<g id="Group_173">
		<path id="Path_1337" fill="#FFCB55" d="M493.8,66.5h18v16.7l-2.8-2.8h-15.2V66.5z"/>
	</g>
	<g id="Group_181">
		<g id="Group_179">
			<g id="Group_174">
				<path id="Path_1338" fill="#6AAFE8" d="M784.2,22.5h-17.7V3.9h17.7V22.5z M767.5,21.8h16.4V4.5h-16.4V21.8z"/>
			</g>
			<g id="Group_175">
				<path id="Path_1339" fill="#6AAFE8" d="M827.9,10.7h-40V6h40V10.7z M788.5,10.1h39V6.7h-39V10.1z"/>
			</g>
			<g id="Group_176">
				<path id="Path_1340" fill="#6AAFE8" d="M827.9,31.8h-61v-4.6h61V31.8z M767.5,31.1h59.8v-3.4h-59.8V31.1z"/>
			</g>
			<g id="Group_177">
				<path id="Path_1341" fill="#6AAFE8" d="M805.6,40.4h-39v-4.6h39V40.4z M767.5,39.8h37.8v-3.4h-37.8V39.8z"/>
			</g>
			<g id="Group_178">
				<path id="Path_1342" fill="#6AAFE8" d="M814.9,19.4h-27.3v-4.6h27.3V19.4z M788.5,18.7h26v-3.4h-26V18.7z"/>
			</g>
		</g>
		<g id="Group_180">
			<path id="Path_1343" fill="#6AAFE8" d="M835,50.4h-75V-6h75V50.4z M760.3,49.7h73.8V-5.4h-73.8V49.7z"/>
		</g>
	</g>
	<g id="Group_182">
		<path id="Path_1344" fill="#6AAFE8" d="M733.4-31.1h-5.6v-0.6h5V-37h0.6V-31.1z"/>
	</g>
	<g id="Group_183">
		<path id="Path_1345" fill="#6AAFE8" d="M695.6-31.1H690V-37h0.6v5.3h5V-31.1z"/>
	</g>
	<g id="Group_184">
		<path id="Path_1346" fill="#6AAFE8" d="M690.6-71.1H690V-77h5.6v0.6h-5V-71.1z"/>
	</g>
	<g id="Group_185">
		<path id="Path_1347" fill="#6AAFE8" d="M733.4-71.1h-0.6v-5.3h-5V-77h5.6V-71.1z"/>
	</g>
	<g id="Group_186">
		<rect id="Rectangle_63" x="732.8" y="-62.1" fill="#6AAFE8" width="0.6" height="16.4"/>
	</g>
	<g id="Group_187">
		<rect id="Rectangle_64" x="690" y="-62.1" fill="#6AAFE8" width="0.6" height="16.4"/>
	</g>
	<g id="Group_188">
		<path id="Path_1348" fill="#78C2FF" d="M532.3,14.4c-1.5,0-2.5-0.9-2.8-2.5c0-1.5,0.9-2.5,2.5-2.8c1.5,0,2.5,0.9,2.8,2.5l0,0
			C534.7,13.2,533.8,14.4,532.3,14.4z M532.3,10.1c-0.9,0-1.9,0.6-1.9,1.9s0.6,1.9,1.9,1.9c0.9,0,1.9-0.6,1.9-1.9l0,0
			C534.1,11,533.5,10.1,532.3,10.1L532.3,10.1z"/>
	</g>
	<g id="Group_189">
		<path id="Path_1349" fill="#78C2FF" d="M711.7-43.9c-1.5,0-2.5-0.9-2.8-2.5c-0.3-1.5,0.9-2.5,2.5-2.8c1.5,0,2.5,0.9,2.8,2.5l0,0
			C714.2-45.1,713.2-43.9,711.7-43.9z M711.7-48.2c-0.9,0-1.9,0.6-1.9,1.9c0,0.9,0.6,1.9,1.9,1.9c0.9,0,1.9-0.6,1.9-1.9l0,0
			C713.5-47.6,712.6-48.2,711.7-48.2L711.7-48.2z"/>
	</g>
	<g id="Group_190">
		<path id="Path_1350" fill="#78C2FF" d="M790.4,46.9c-1.5,0-2.5-0.9-2.8-2.5c0-1.5,0.9-2.5,2.5-2.8s2.5,0.9,2.8,2.5l0,0
			C792.6,46,791.6,46.9,790.4,46.9z M790.4,42.6c-0.9,0-1.9,0.6-1.9,1.9c0,1.2,0.6,1.9,1.9,1.9c0.9,0,1.9-0.6,1.9-1.9l0,0
			C791.9,43.5,791.3,42.6,790.4,42.6L790.4,42.6z"/>
	</g>
	<g id="Group_191">
		<path id="Path_1351" fill="#A1D4FF" d="M548.4-56.3h-16.4v-17.4h16.4V-56.3z M532.6-56.9h15.2V-73h-15.2V-56.9z"/>
	</g>
	<g id="Group_192">
		<rect id="Rectangle_65" x="539.7" y="-69" fill="#A1D4FF" width="0.6" height="8.1"/>
	</g>
	<g id="Group_193">
		<rect id="Rectangle_66" x="536.3" y="-65.2" fill="#A1D4FF" width="7.7" height="0.6"/>
	</g>
	<g id="Group_194">
		<path id="Path_1352" fill="#A1D4FF" d="M799.7-35.2h-23.6v-17.7h23.6V-35.2z M776.8-35.8h22.3v-16.4h-22.3V-35.8z"/>
	</g>
	<g id="Group_195">
		<path id="Path_1353" fill="#A1D4FF" d="M787.9-42l-11.8-10.2l0.3-0.6l11.2,9.9l11.2-9.9l0.3,0.6L787.9-42z"/>
	</g>
	<g id="Group_196">
		<path id="Path_1354" fill="#A1D4FF" d="M799.1-35.2l-8.4-9.3l0.6-0.6l8.4,9.3L799.1-35.2z"/>
	</g>
	<g id="Group_197">
		<path id="Path_1355" fill="#A1D4FF" d="M776.8-35.2l-0.6-0.6l8.4-9.3l0.6,0.6L776.8-35.2z"/>
	</g>
	<g id="Group_198">
		<path id="Path_1356" fill="#A1D4FF" d="M589.6-17.2l-0.3-0.6c-0.3,0-0.3,0-0.6-0.3l-0.6,0.6l-1.5-1.2l0.3-0.6
			c0-0.3-0.3-0.3-0.3-0.6h-0.6l-0.3-1.9l0.6-0.3c0-0.3,0-0.3,0-0.6l-0.6-0.6l0.9-1.5l0.6,0.3c0.3,0,0.3-0.3,0.6-0.3v-0.6l1.9-0.3
			l0.3,0.6c0.3,0,0.3,0,0.6,0.3l0.6-0.6l1.5,1.2l-0.3,0.6c0,0.3,0.3,0.3,0.3,0.6h0.6l0.3,1.9l-0.6,0.3c0,0.3,0,0.3,0,0.6l0.6,0.6
			l-0.9,1.5l-0.6-0.3c-0.3,0-0.3,0.3-0.6,0.3v0.6L589.6-17.2z M588.3-18.8L588.3-18.8c0.3,0,0.6,0.3,0.9,0.3l0,0l0.3,0.6l0.9-0.3
			v-0.6l0,0c0.3,0,0.6-0.3,0.6-0.6l0,0l0.6,0.3l0.6-0.9l-0.3-0.3l0,0c0-0.3,0.3-0.6,0.3-0.9v-0.3l0.6-0.3l-0.3-0.9h-0.6l0,0
			c0-0.3-0.3-0.6-0.3-0.6l0,0l0.3-0.6l-0.9-0.6l-0.3,0.3l0,0c-0.3,0-0.6-0.3-0.9-0.3l0,0l-0.3-0.6l-0.9,0.3v0.6l0,0
			c-0.3,0-0.6,0.3-0.6,0.6l0,0l-0.6-0.3l-0.6,0.9l0.3,0.3l0,0c0,0.3-0.3,0.6-0.3,0.9v0.3l-0.6,0.3l0.3,0.9h0.6l0,0
			c0,0.3,0.3,0.6,0.3,0.6l0,0l-0.3,0.6l0.9,0.6L588.3-18.8z M589.6-19.7c-0.3,0-0.9,0-1.2-0.3c-0.9-0.6-0.9-1.9-0.3-2.8
			c0.6-0.9,1.9-1.2,2.5-0.6l0,0c0.3,0.3,0.6,0.9,0.9,1.2c0,0.6,0,0.9-0.3,1.5c-0.3,0.3-0.6,0.6-1.2,0.9
			C589.9-19.7,589.9-19.7,589.6-19.7L589.6-19.7z M589.6-23.1c-0.6,0-0.9,0.3-1.2,0.6c-0.3,0.3-0.3,0.6-0.3,1.2s0.3,0.6,0.6,0.9l0,0
			c0.3,0.3,0.6,0.3,0.9,0.3c0.3,0,0.6-0.3,0.9-0.6c0.3-0.3,0.3-0.6,0.3-1.2c0-0.3-0.3-0.6-0.6-0.9C590.2-23.1,589.9-23.1,589.6-23.1
			L589.6-23.1z"/>
	</g>
	<g id="Group_199">
		<path id="Path_1357" fill="#A1D4FF" d="M576-15l-0.6-1.5c-0.6,0-1.2-0.3-1.9-0.3l-1.2,1.2l-3.1-2.2l0.6-1.5
			c-0.3-0.6-0.6-0.9-0.9-1.5h-1.5l-0.6-4l1.5-0.6c0-0.6,0.3-1.2,0.3-1.9l-0.9-1.2l2.2-3.1l1.5,0.6c0.3-0.3,0.9-0.6,1.5-0.9v-1.5
			l3.7-0.6l0.6,1.5c0.6,0,1.2,0.3,1.9,0.3l1.2-1.2l3.1,2.2l-0.6,1.5c0.3,0.6,0.6,0.9,0.9,1.5h1.5l0.6,4l-1.5,0.6
			c0,0.6-0.3,1.2-0.3,1.9l0.9,1.2l-2.2,3.1l-1.5-0.6c-0.3,0.3-0.9,0.6-1.5,0.9v1.5L576-15z M573.5-17.8L573.5-17.8
			c0.9,0.3,1.5,0.6,2.2,0.6h0.3l0.6,1.2l2.5-0.6v-1.5h0.3c0.6-0.3,1.2-0.6,1.5-1.2h0.3l1.2,0.6l1.5-2.2l-0.9-0.9v-0.3
			c0.3-0.6,0.3-1.2,0.3-2.2v-0.3l1.2-0.6l-0.3-2.8h-1.5v-0.3c-0.3-0.6-0.6-1.2-0.9-1.9v-0.3l0.6-1.2l-2.2-1.5l-0.9,0.9H579
			c-0.6-0.3-1.2-0.3-1.9-0.6h-0.3l-0.6-1.2l-2.5,0.3v1.5h-0.3c-0.6,0.3-1.2,0.6-1.5,1.2h-0.3l-1.2-0.6l-1.5,2.2l0.9,0.9v0.3
			c-0.3,0.6-0.3,1.2-0.3,2.2v0.3l-1.2,0.6l0.3,2.8h1.5v0.3c0.3,0.6,0.6,1.2,0.9,1.9v0.3l-0.6,1.2l2.2,1.5L573.5-17.8z M576.3-20.3
			c-0.9,0-1.9-0.3-2.5-0.9c-1.9-1.5-2.5-4.3-0.9-6.2c1.2-1.9,3.7-2.5,5.6-1.2c0,0,0.3,0,0.3,0.3c1.9,1.5,2.5,4.3,0.9,6.2
			C578.7-20.9,577.5-20.3,576.3-20.3L576.3-20.3z M576.3-28.7c-1.2,0-2.2,0.6-2.8,1.5c-0.6,0.9-0.6,1.9-0.6,2.8
			c0,0.9,0.6,1.9,1.5,2.5c1.5,1.2,3.7,0.9,5-0.6c0,0,0,0,0-0.3c0.6-0.9,0.6-1.9,0.6-2.8c0-0.9-0.6-1.9-1.5-2.5
			C577.5-28.4,576.9-28.7,576.3-28.7L576.3-28.7z"/>
	</g>
	<g id="Group_202">
		<g id="Group_201">
			<g id="Group_200">
				<path id="Path_1358" fill="#78C2FF" d="M490.1-11.3c-6.8,0-12.1-5.9-12.1-13h0.6c0,6.8,5.3,12.1,11.5,12.1
					c6.2,0,11.5-5.6,11.5-12.1c0-6.8-5.3-12.1-11.5-12.1V-37c6.8,0,12.1,5.9,12.1,13C502.5-17.2,496.9-11.3,490.1-11.3z M490.1-13.2
					c-5.9,0-10.5-5-10.5-11.2s4.6-11.2,10.5-11.2c5.9,0,10.5,5,10.5,11.2H500c0-5.9-4.3-10.5-9.9-10.5c-5.3,0-9.9,4.6-9.9,10.5
					c0,5.6,4.3,10.5,9.9,10.5L490.1-13.2L490.1-13.2z"/>
			</g>
		</g>
	</g>
	<g id="Group_203">
		<path id="Path_1359" fill="#78C2FF" d="M488.9-20l-4.3-4.6l0.3-0.6l4,4l6.8-7.4l0.3,0.6L488.9-20z"/>
	</g>
	
		<linearGradient id="Path_1360_1_" gradientUnits="userSpaceOnUse" x1="325.7838" y1="1438.5331" x2="325.7838" y2="1438.1508" gradientTransform="matrix(890.9198 0 0 -316.2443 -289592.0938 455054.0938)">
		<stop  offset="0" style="stop-color:#40D5E6"/>
		<stop  offset="1" style="stop-color:#5577FF"/>
	</linearGradient>
	<path id="Path_1360" fill="url(#Path_1360_1_)" d="M747.9,134H562.6l-20.5,80.3h225.9L747.9,134z"/>
	<path id="Path_1361" fill="#FFFFFF" d="M569.4,148h11.5c0.3,0,0.6,0.3,0.6,0.6l0,0l-1.2,5.3c0,0.3-0.3,0.6-0.6,0.6h-11.5
		c-0.3,0-0.6-0.3-0.6-0.6c0,0,0,0,0-0.3l1.2-5.3C568.8,148.3,569.1,148,569.4,148z"/>
	<path id="Path_1362" fill="#FFFFFF" d="M586.2,148h8.7l-1.2,6.5h-8.7L586.2,148z"/>
	<path id="Path_1363" fill="#FFFFFF" d="M599.2,148h8.7l-0.9,6.5h-8.7L599.2,148z"/>
	<path id="Path_1364" fill="#FFFFFF" d="M611.9,148h8.7l-0.6,6.5h-8.7L611.9,148z"/>
	<path id="Path_1365" fill="#FFFFFF" d="M624.9,148h8.7l-0.3,6.5h-8.7L624.9,148z"/>
	<path id="Path_1366" fill="#FFFFFF" d="M637.9,148h8.7l-0.3,6.5h-8.7L637.9,148z"/>
	<path id="Path_1367" fill="#FFFFFF" d="M741.1,148h-13l1.2,6.5h13L741.1,148z"/>
	<path id="Path_1368" fill="#FFFFFF" d="M724.1,148h-8.7l1.2,6.5h8.7L724.1,148z"/>
	<path id="Path_1369" fill="#FFFFFF" d="M711.1,148h-8.7l0.9,6.5h8.7L711.1,148z"/>
	<path id="Path_1370" fill="#FFFFFF" d="M698,148h-8.7l0.6,6.5h8.7L698,148z"/>
	<path id="Path_1371" fill="#FFFFFF" d="M685.3,148h-8.7l0.3,6.5h8.7L685.3,148z"/>
	<path id="Path_1372" fill="#FFFFFF" d="M672.3,148h-8.7l0.3,6.5h8.7L672.3,148z"/>
	<path id="Path_1373" fill="#FFFFFF" d="M650.9,148h8.7v6.5h-8.7V148z"/>
	<path id="Path_1374" fill="#FFFFFF" d="M565.7,159.4h18l-0.9,6.8h-18.3L565.7,159.4z"/>
	<path id="Path_1375" fill="#FFFFFF" d="M744.2,159.4h-22.3l1.2,6.8h22.6L744.2,159.4z"/>
	<path id="Path_1376" fill="#FFFFFF" d="M717.3,159.4h-9l0.9,6.8h9L717.3,159.4z"/>
	<path id="Path_1377" fill="#FFFFFF" d="M703.9,159.4h-9l0.6,6.8h9L703.9,159.4z"/>
	<path id="Path_1378" fill="#FFFFFF" d="M690.6,159.4h-9l0.6,6.8h9L690.6,159.4z"/>
	<path id="Path_1379" fill="#FFFFFF" d="M677.3,159.4h-9l0.3,6.8h9L677.3,159.4z"/>
	<path id="Path_1380" fill="#FFFFFF" d="M563.2,171.8h18.3l-1.2,6.8h-18.9L563.2,171.8z"/>
	<path id="Path_1381" fill="#FFFFFF" d="M586.2,171.8h9.3l-1.2,6.8h-9.3L586.2,171.8z"/>
	<path id="Path_1382" fill="#FFFFFF" d="M599.8,171.8h69.1l0.3,6.8h-70.3L599.8,171.8z"/>
	<path id="Path_1383" fill="#FFFFFF" d="M673.6,171.8h9.3l0.6,6.8h-9.3L673.6,171.8z"/>
	<path id="Path_1384" fill="#FFFFFF" d="M687.2,171.8h9.3l0.6,6.8h-9.3L687.2,171.8z"/>
	<path id="Path_1385" fill="#FFFFFF" d="M701.1,171.8h9.3l0.9,6.8h-9.3L701.1,171.8z"/>
	<path id="Path_1386" fill="#FFFFFF" d="M714.8,171.8h9.3l1.2,6.8H716L714.8,171.8z"/>
	<path id="Path_1387" fill="#FFFFFF" d="M728.7,171.8H747l1.5,6.8h-18.9L728.7,171.8z"/>
	<path id="Path_1388" fill="#FFFFFF" d="M664,159.4h-8.7v6.8h9L664,159.4z"/>
	<path id="Path_1389" fill="#FFFFFF" d="M650.6,159.4h-9l-0.3,6.8h9L650.6,159.4z"/>
	<path id="Path_1390" fill="#FFFFFF" d="M637.3,159.4h-9l-0.6,6.8h9L637.3,159.4z"/>
	<path id="Path_1391" fill="#FFFFFF" d="M624,159.4h-9l-0.6,6.8h9L624,159.4z"/>
	<path id="Path_1392" fill="#FFFFFF" d="M610.7,159.4h-9l-0.9,6.8h9L610.7,159.4z"/>
	<path id="Path_1393" fill="#FFFFFF" d="M597.3,159.4h-9l-1.2,6.8h9L597.3,159.4z"/>
	<path id="Path_1394" fill="#FFFFFF" d="M570.1,143.9l1.5-5.9h4l-1.2,5.9H570.1z"/>
	<path id="Path_1395" fill="#FFFFFF" d="M580,138h8.4l-1.2,5.9h-8.4L580,138z"/>
	<path id="Path_1396" fill="#FFFFFF" d="M592.4,138h8.4l-0.9,5.9h-8.4L592.4,138z"/>
	<path id="Path_1397" fill="#FFFFFF" d="M604.8,138h8.4l-0.6,5.9h-8.4L604.8,138z"/>
	<path id="Path_1398" fill="#FFFFFF" d="M617.5,138h8.4l-0.6,5.9h-8.4L617.5,138z"/>
	<path id="Path_1399" fill="#FFFFFF" d="M629.9,138h8.4l-0.3,5.9h-8.4L629.9,138z"/>
	<path id="Path_1400" fill="#FFFFFF" d="M642.6,138h8.4v5.9h-8.4V138z"/>
	<path id="Path_1401" fill="#FFFFFF" d="M655,138h8.4v5.9H655V138z"/>
	<path id="Path_1402" fill="#FFFFFF" d="M667.7,138h8.4l0.3,5.9H668L667.7,138z"/>
	<path id="Path_1403" fill="#FFFFFF" d="M680.1,138h8.4l0.6,5.9h-8.4L680.1,138z"/>
	<path id="Path_1404" fill="#FFFFFF" d="M692.8,138h8.4l0.9,5.9h-8.7L692.8,138z"/>
	<path id="Path_1405" fill="#FFFFFF" d="M705.2,138h8.4l0.9,5.9h-8.4L705.2,138z"/>
	<path id="Path_1406" fill="#FFFFFF" d="M717.9,138h8.4l1.2,5.9h-8.4L717.9,138z"/>
	<path id="Path_1407" fill="#FFFFFF" d="M730.3,138h8.4l1.5,5.9h-8.4L730.3,138z"/>
	
		<linearGradient id="Path_1408_1_" gradientUnits="userSpaceOnUse" x1="325.5396" y1="1546.2932" x2="325.7932" y2="1546.2932" gradientTransform="matrix(890.9198 0 0 -24.6186 -289592.0313 38284.9023)">
		<stop  offset="0" style="stop-color:#40D5E6"/>
		<stop  offset="1" style="stop-color:#5577FF"/>
	</linearGradient>
	<path id="Path_1408" fill="url(#Path_1408_1_)" d="M762.5,220.5H548.4c-3.4,0-5.9-2.8-5.9-6.2h225.9
		C768.4,217.7,765.6,220.5,762.5,220.5z"/>
	<path id="Path_1409" fill="#4D78EB" d="M681.6,188.3c-0.3-1.2-1.2-2.5-2.8-2.5h-47.1c-1.2,0-2.5,0.9-2.8,2.5l-2.8,18.9
		c-0.3,1.5,0.6,3.1,2.2,3.4h0.3h53c1.5,0,2.8-1.2,2.8-3.1v-0.3L681.6,188.3z"/>
	<g id="Group_258">
		<g id="Group_204">
			<rect id="Rectangle_67" x="580.6" y="26.2" fill="#E0E0E0" width="19.2" height="2.2"/>
		</g>
		<g id="Group_205">
			<rect id="Rectangle_68" x="605.1" y="41.7" fill="#E0E0E0" width="13.9" height="2.2"/>
		</g>
		<g id="Group_206">
			<rect id="Rectangle_69" x="621.2" y="41.7" fill="#1487E3" width="9.3" height="2.2"/>
		</g>
		<g id="Group_207">
			<rect id="Rectangle_70" x="580.9" y="81" fill="#1487E3" width="9.3" height="2.2"/>
		</g>
		<g id="Group_208">
			<rect id="Rectangle_71" x="632" y="41.7" fill="#E0E0E0" width="22.3" height="2.2"/>
		</g>
		<g id="Group_209">
			<rect id="Rectangle_72" x="580.9" y="73.3" fill="#E0E0E0" width="14.3" height="2.2"/>
		</g>
		<g id="Group_210">
			<rect id="Rectangle_73" x="600.7" y="89.1" fill="#E0E0E0" width="8.7" height="2.2"/>
		</g>
		<g id="Group_211">
			<rect id="Rectangle_74" x="580.9" y="89.1" fill="#1487E3" width="17.4" height="2.2"/>
		</g>
		<g id="Group_212">
			<rect id="Rectangle_75" x="580.9" y="96.8" fill="#E0E0E0" width="9.6" height="2.2"/>
		</g>
		<g id="Group_213">
			<rect id="Rectangle_76" x="603.5" y="26.2" fill="#78C2FF" width="13.6" height="2.2"/>
		</g>
		<g id="Group_214">
			<rect id="Rectangle_77" x="603.5" y="49.7" fill="#1487E3" width="13.6" height="2.2"/>
		</g>
		<g id="Group_215">
			<rect id="Rectangle_78" x="596.7" y="57.5" fill="#E0E0E0" width="5.9" height="2.2"/>
		</g>
		<g id="Group_216">
			<rect id="Rectangle_79" x="590.8" y="65.5" fill="#78C2FF" width="13" height="2.2"/>
		</g>
		<g id="Group_217">
			<rect id="Rectangle_80" x="606" y="65.5" fill="#1487E3" width="18" height="2.2"/>
		</g>
		<g id="Group_218">
			<rect id="Rectangle_81" x="580.9" y="57.5" fill="#1487E3" width="13.6" height="2.2"/>
		</g>
		<g id="Group_219">
			<rect id="Rectangle_82" x="580.9" y="65.5" fill="#1487E3" width="8.1" height="2.2"/>
		</g>
		<g id="Group_220">
			<rect id="Rectangle_83" x="605.4" y="57.5" fill="#FF8761" width="7.7" height="2.2"/>
		</g>
		<g id="Group_221">
			<rect id="Rectangle_84" x="581.2" y="104.6" fill="#FF8761" width="7.7" height="2.2"/>
		</g>
		<g id="Group_222">
			<rect id="Rectangle_85" x="580.9" y="41.7" fill="#78C2FF" width="13.6" height="2.2"/>
		</g>
		<g id="Group_223">
			<rect id="Rectangle_86" x="593" y="81" fill="#78C2FF" width="13.6" height="2.2"/>
		</g>
		<g id="Group_224">
			<rect id="Rectangle_87" x="593" y="96.8" fill="#78C2FF" width="13.6" height="2.2"/>
		</g>
		<g id="Group_225">
			<rect id="Rectangle_88" x="617.2" y="96.8" fill="#78C2FF" width="13.6" height="2.2"/>
		</g>
		<g id="Group_226">
			<rect id="Rectangle_89" x="580.9" y="49.7" fill="#78C2FF" width="19.5" height="2.2"/>
		</g>
		<g id="Group_227">
			<rect id="Rectangle_90" x="671.7" y="26.2" fill="#78C2FF" width="13.6" height="2.2"/>
		</g>
		<g id="Group_228">
			<rect id="Rectangle_91" x="623.4" y="104.6" fill="#78C2FF" width="13.6" height="2.2"/>
		</g>
		<g id="Group_229">
			<rect id="Rectangle_92" x="689.7" y="26.2" fill="#78C2FF" width="9" height="2.2"/>
		</g>
		<g id="Group_230">
			<rect id="Rectangle_93" x="720.4" y="33.9" fill="#78C2FF" width="9" height="2.2"/>
		</g>
		<g id="Group_231">
			<rect id="Rectangle_94" x="620.9" y="26.2" fill="#1487E3" width="17.4" height="2.2"/>
		</g>
		<g id="Group_232">
			<rect id="Rectangle_95" x="688.4" y="33.9" fill="#1487E3" width="17.4" height="2.2"/>
		</g>
		<g id="Group_233">
			<rect id="Rectangle_96" x="667.1" y="41.7" fill="#1487E3" width="17.4" height="2.2"/>
		</g>
		<g id="Group_234">
			<rect id="Rectangle_97" x="644.4" y="49.7" fill="#1487E3" width="17.4" height="2.2"/>
		</g>
		<g id="Group_235">
			<rect id="Rectangle_98" x="686.6" y="41.7" fill="#78C2FF" width="12.4" height="2.2"/>
		</g>
		<g id="Group_236">
			<rect id="Rectangle_99" x="650.9" y="26.2" fill="#FF8761" width="17.4" height="2.2"/>
		</g>
		<g id="Group_237">
			<rect id="Rectangle_100" x="631.1" y="49.7" fill="#FF8761" width="10.2" height="2.2"/>
		</g>
		<g id="Group_238">
			<rect id="Rectangle_101" x="623.4" y="81.3" fill="#FF8761" width="10.2" height="2.2"/>
		</g>
		<g id="Group_239">
			<rect id="Rectangle_102" x="641.3" y="26.2" fill="#E0E0E0" width="6.2" height="2.2"/>
		</g>
		<g id="Group_240">
			<rect id="Rectangle_103" x="620.9" y="49.7" fill="#E0E0E0" width="6.2" height="2.2"/>
		</g>
		<g id="Group_241">
			<rect id="Rectangle_104" x="709.8" y="33.9" fill="#E0E0E0" width="6.2" height="2.2"/>
		</g>
		<g id="Group_242">
			<rect id="Rectangle_105" x="580.6" y="33.9" fill="#1487E3" width="9.9" height="2.2"/>
		</g>
		<g id="Group_243">
			<rect id="Rectangle_106" x="607.2" y="73.3" fill="#1487E3" width="7.7" height="2.2"/>
		</g>
		<g id="Group_244">
			<rect id="Rectangle_107" x="593" y="33.9" fill="#1487E3" width="3.1" height="2.2"/>
		</g>
		<g id="Group_245">
			<rect id="Rectangle_108" x="658.7" y="33.9" fill="#E0E0E0" width="26.7" height="2.2"/>
		</g>
		<g id="Group_246">
			<rect id="Rectangle_109" x="633.3" y="96.8" fill="#E0E0E0" width="26.7" height="2.2"/>
		</g>
		<g id="Group_247">
			<rect id="Rectangle_110" x="598.6" y="33.9" fill="#FF8761" width="3.4" height="2.2"/>
		</g>
		<g id="Group_248">
			<rect id="Rectangle_111" x="647.8" y="33.9" fill="#1487E3" width="8.7" height="2.2"/>
		</g>
		<g id="Group_249">
			<rect id="Rectangle_112" x="656.5" y="41.7" fill="#FF8761" width="8.7" height="2.2"/>
		</g>
		<g id="Group_250">
			<rect id="Rectangle_113" x="611.9" y="104.6" fill="#FF8761" width="8.7" height="2.2"/>
		</g>
		<g id="Group_251">
			<rect id="Rectangle_114" x="627.1" y="33.9" fill="#1487E3" width="18.6" height="2.2"/>
		</g>
		<g id="Group_252">
			<rect id="Rectangle_115" x="609.7" y="81.3" fill="#1487E3" width="10.8" height="2.2"/>
		</g>
		<g id="Group_253">
			<rect id="Rectangle_116" x="609.1" y="96.8" fill="#1487E3" width="5.3" height="2.2"/>
		</g>
		<g id="Group_254">
			<rect id="Rectangle_117" x="618.1" y="33.9" fill="#78C2FF" width="6.2" height="2.2"/>
		</g>
		<g id="Group_255">
			<rect id="Rectangle_118" x="596.7" y="41.7" fill="#FF8761" width="6.2" height="2.2"/>
		</g>
		<g id="Group_256">
			<rect id="Rectangle_119" x="598" y="73.3" fill="#FF8761" width="6.2" height="2.2"/>
		</g>
		<g id="Group_257">
			<rect id="Rectangle_120" x="604.5" y="33.9" fill="#1487E3" width="11.2" height="2.2"/>
		</g>
	</g>
	<g id="Group_259" opacity="0.76">
		<path id="Path_1410" fill="#FFFFFF" d="M766.5,117h-80.3c-1.5,0-2.8-1.2-2.8-2.8V55.3c0-1.5,1.2-2.8,2.8-2.8h80.3
			c1.5,0,2.8,1.2,2.8,2.8v58.9C769.3,115.4,768.1,116.7,766.5,117z"/>
	</g>
	<g id="Group_261">
		<g id="Group_260">
			<path id="Path_1411" fill="#4AAFFF" d="M760,90h-13.9c-0.6,0-0.9-0.6-0.9-1.2v-2.2c0-0.6,0.3-1.2,0.9-1.2l0,0h13.6
				c0.6,0,0.9,0.6,0.9,1.2v2.2C761,89.4,760.6,90,760,90z"/>
		</g>
	</g>
	<g id="Group_263">
		<g id="Group_262">
			<path id="Path_1412" fill="#4AAFFF" d="M760,98.4h-13.9c-0.6,0-0.9-0.6-0.9-1.2l0,0V95c0-0.6,0.3-1.2,0.9-1.2h13.6
				c0.6,0,0.9,0.6,0.9,1.2v2.2C761,97.8,760.6,98.4,760,98.4z"/>
		</g>
	</g>
	<g id="Group_265">
		<g id="Group_264">
			<path id="Path_1413" fill="#4AAFFF" d="M760,106.8h-13.9c-0.6,0-0.9-0.6-0.9-1.2v-2.2c0-0.6,0.3-1.2,0.9-1.2h13.6
				c0.6,0,0.9,0.6,0.9,1.2v2.2C761,106.1,760.6,106.8,760,106.8z"/>
		</g>
	</g>
	<g id="Group_274">
		<g id="Group_267">
			<g id="Group_266">
				<path id="Path_1414" fill="#4AAFFF" d="M737.4,75.5c-3.4-10.5-13-17-22.9-16.7c-2.5,0-5,0.6-7.1,1.5c-7.1,2.8-12.4,9-14.6,16.1
					c-1.5,5.3-1.5,10.8,0.3,15.8c0.3,0.6,0.3,0.9,0.6,1.5c0.9,2.2,2.2,4.3,3.7,6.2c6.2,7.7,16.4,10.8,26,7.4
					C735.2,102.7,741.7,88.5,737.4,75.5z M721,101.5c-7.1,2.8-14.9,0.3-19.5-5.6c-1.2-1.5-2.2-3.1-2.8-4.6c-0.3-0.3-0.3-0.6-0.3-1.2
					c-1.2-3.7-1.2-8.1-0.3-11.8c1.5-5.6,5.6-9.9,10.8-12.1c1.9-0.6,3.7-0.9,5.6-1.2c7.4-0.3,14.6,4.6,17.4,12.4
					C735.2,87.2,730.3,98.1,721,101.5z"/>
			</g>
		</g>
		<g id="Group_269">
			<g id="Group_268">
				<path id="Path_1415" fill="#1A598C" d="M698,78.2l-5.6-1.9c2.2-7.1,7.4-13.3,14.6-16.1c2.2-0.9,4.6-1.2,7.1-1.5l0.3,6.2
					c-1.9,0-3.7,0.3-5.6,1.2C703.9,68.3,699.6,72.7,698,78.2z"/>
			</g>
		</g>
		<g id="Group_271">
			<g id="Group_270">
				<path id="Path_1416" fill="#2273B5" d="M699,91.3l-5.3,2.5c-0.3-0.6-0.3-0.9-0.6-1.5c-1.9-5.3-1.9-10.5-0.3-15.8l5.6,1.9
					c-1.2,4-0.9,8.1,0.3,11.8C698.7,90.6,698.7,90.9,699,91.3z"/>
			</g>
		</g>
		<g id="Group_273">
			<g id="Group_272">
				<path id="Path_1417" fill="#3788CC" d="M697.1,100.2c-1.5-1.9-2.8-4-3.7-6.2l5.3-2.5c0.6,1.5,1.5,3.1,2.8,4.6L697.1,100.2z"/>
			</g>
		</g>
	</g>
	<g id="Group_311">
		<g id="Group_276">
			<g id="Group_275">
				<path id="Path_1418" fill="#EEA886" d="M723.1,98.7c0,0-1.2-2.2,0.6-7.7c1.9-5.6,7.7-5,9.6-1.5c1.9,3.4,1.2,5.6-1.5,9.6
					C729,103,724.1,100.6,723.1,98.7z"/>
			</g>
		</g>
		<g id="Group_278">
			<g id="Group_277">
				<path id="Path_1419" fill="#EEA886" d="M737.1,196.6c0,0,0.3,2.5,0.3,2.8c0,0.3,3.4-0.3,3.4-0.3l0.3-2.8
					C741.1,196.3,737.4,196.3,737.1,196.6z"/>
			</g>
		</g>
		<g id="Group_280">
			<g id="Group_279">
				<path id="Path_1420" fill="#414773" d="M737.4,198.8c-0.6,0.6-1.2,1.5-2.2,2.2s-2.5,0.9-3.1,1.5c-0.3,0.3-1.5,2.5,2.5,2.5
					c4.3,0,6.2,0.3,6.8-0.6c0.6-0.9-0.6-5.6-0.6-5.6S739.9,199.1,737.4,198.8z"/>
			</g>
		</g>
		<g id="Group_282">
			<g id="Group_281">
				<path id="Path_1421" fill="#EEA886" d="M714.2,196.6c0,0,0.3,2.5,0.3,2.8c0,0.3,3.4-0.3,3.4-0.3l0.3-2.8
					C718.2,196.3,714.8,196.3,714.2,196.6z"/>
			</g>
		</g>
		<g id="Group_284">
			<g id="Group_283">
				<path id="Path_1422" fill="#414773" d="M714.5,198.8c-0.6,0.6-1.2,1.5-2.2,2.2s-4.6,1.2-5.3,1.9c-0.3,0.3-1.2,2.2,4.6,2.2
					c4.3,0,6.2,0.3,6.8-0.6c0.3-0.6-0.6-5.6-0.6-5.6C717,198.8,715.7,199.1,714.5,198.8z"/>
			</g>
		</g>
		<g id="Group_286">
			<g id="Group_285">
				<path id="Path_1423" fill="#2D314F" d="M735.9,138.4c0,0,1.5,5.6,1.5,10.2s0.9,9.9,1.2,15.2c0.6,5.6,2.5,18.9,2.5,22
					s-0.3,12.4-0.3,12.4h-4c0,0-3.4-23.2-4.3-25.4c-0.9-2.5-5.3-19.2-5.6-21.1C726.9,149.8,735.9,138.4,735.9,138.4z"/>
			</g>
		</g>
		<g id="Group_288">
			<g id="Group_287">
				<path id="Path_1424" fill="#2D314F" d="M719.1,137.7c0,0-2.5,14.9-2.8,17.7c-0.3,2.8-0.6,14.3-0.6,16.1s-0.9,24.2-1.9,27h4.6
					c0,0,4.6-16.1,4.6-23.9s3.1-16.7,5.3-21.7c2.2-5,6.5-5.3,7.7-14.6C735.9,138.4,720.7,135,719.1,137.7z"/>
			</g>
		</g>
		<g id="Group_290">
			<g id="Group_289">
				<path id="Path_1425" fill="#EEA886" d="M724.7,100.2c0,0,0.6,1.5,0,2.8c-0.6,1.2,6.5,0.3,6.5,0.3c-0.3-1.5,0-2.8,0.6-4.3
					C732.8,97.1,724.7,100.2,724.7,100.2z"/>
			</g>
		</g>
		<g id="Group_292">
			<g id="Group_291">
				<path id="Path_1426" fill="#2B3B57" d="M736.5,139.6c0,0-2.5,2.8-17.7-0.3l0.3-1.2l17,0.6L736.5,139.6z"/>
			</g>
		</g>
		<g id="Group_294">
			<g id="Group_293">
				<path id="Path_1427" fill="#EEA886" d="M723.5,103.3c0,0-2.5,0.3-3.4,0.3c-0.6,0.3-5.9-0.9-6.8-0.9s-5.6-3.4-5.6-3.7
					c-0.3-0.3-2.8-7.1-2.8-8.7c0-1.5-2.5-0.6-2.2,0.3c0.3,1.9,0.9,6.5,1.2,7.7c0.3,1.5,0.9,4.6,1.5,5.3c0.6,0.6,4.3,3.7,8.4,5
					c2.5,0.9,4.6,1.9,6.8,3.4h19.2c0,0,7.4-11.2,7.7-13c0-1.9-5.3-13-6.2-14.6c-0.9-1.5-2.5,0.3-2.5,0.3s3.1,9.9,3.7,11.5
					c0.3,1.5-3.7,7.7-5,7.7c-1.2,0-4-0.3-5.3-0.3c-0.9,0-1.9-0.3-2.8-0.6L723.5,103.3z"/>
			</g>
		</g>
		<g id="Group_296">
			<g id="Group_295">
				<path id="Path_1428" fill="#FFC655" d="M715.4,110.8c0,0,2.5,1.5,2.5,4.3c0.3,3.1,0.9,5.9,1.5,9c0.3,1.5-0.3,12.7-0.6,13.3
					c0,0.9,14.9,2.8,17.4,0.9c0,0,0.6-10.2,0.9-13.3c0.3-3.1,1.5-10.2,1.9-11.2c0.3-0.9,5.6-8.7,5.9-9.6c0,0-2.8-4.6-4.6-4.6
					c0,0-3.1,3.7-4,4c-0.9,0.3-7.1-0.9-7.1-0.9s-0.6,0.9-4.3-0.3c0,0-4.3,0.6-5,0.6c-0.9,0-6.5-0.6-6.5-0.6s-2.5,4-1.9,6.2
					L715.4,110.8z"/>
			</g>
		</g>
		<g id="Group_298">
			<g id="Group_297">
				<path id="Path_1429" fill="#EEA886" d="M705.2,91.3c0,0-0.6-2.5,0-3.4c0.3-0.3,1.2-1.5,1.2-1.9s0.9-0.6,0.9-0.9
					c0-0.3-0.9-0.6-1.5,0.3c-0.6,0.9-1.2,0.9-1.5,0.9c-0.3,0-0.6-2.8-0.9-3.4c0-0.6-0.3-2.5-0.6-2.5c-0.3,0-0.3,0.9-0.3,0.9
					s-0.6-1.2-0.9-1.2c-0.3,0.3-0.3,0.9-0.3,0.9s-0.6-0.6-0.6-0.3c0,0.3,0,0.6,0,0.9c0,0-0.6-0.3-0.6,0.6c0,0.9,0.3,3.4,0.6,4.3
					c0.3,0.9,2.2,3.4,2.2,4.3C702.7,91.9,705.2,91.3,705.2,91.3z"/>
			</g>
		</g>
		<g id="Group_300">
			<g id="Group_299">
				<path id="Path_1430" fill="#EEA886" d="M739,86.6c0,0-1.9-3.1-2.5-3.4c-0.6-0.3-1.5-0.3-2.2-0.9c-0.6-0.6-1.9-0.9-1.5-1.2
					c0-0.3,0.9,0,1.9,0.3c0.9,0.3,1.2,0.3,1.5,0c0-0.3-0.6-1.9-0.9-2.2c-0.3-0.3-2.5-2.5-1.9-2.8c0.3-0.3,1.5,0.9,1.9,1.2
					c0,0-0.9-2.5-0.6-2.5c0.3,0,1.2,0.6,1.2,0.6s0-1.9,1.9,1.2c0,0-0.3-0.9,0.3-0.6c0.6,0.3,1.2,2.5,1.5,3.4c0.3,0.9,1.2,4.3,1.9,5
					C741.7,85.1,739,86.6,739,86.6z"/>
			</g>
		</g>
		<g id="Group_302">
			<g id="Group_301">
				<path id="Path_1431" fill="#353A3D" d="M731.8,99c0,0-0.9,0-2.8-0.6c-1.9-0.6-2.2-4.3-2.5-4c-0.9,0.9-1.9,0.3-2.2-0.3
					c0,0,0.9-1.2,0.6-2.2c-0.3-0.3-0.6-0.9-1.2-1.2c0,0,1.5-7.1,7.7-4C739,90.9,731.8,99,731.8,99z"/>
			</g>
		</g>
		<g id="Group_304">
			<g id="Group_303">
				<path id="Path_1432" fill="#D4D8E8" d="M724.7,103l0.3-0.9c0,0,4,0,6.2,0.3l0.3,1.2C731.5,103.3,728.7,104.9,724.7,103z"/>
			</g>
		</g>
		<g id="Group_306">
			<g id="Group_305">
				<path id="Path_1433" fill="#EEA886" d="M725.6,93.7c0.3-0.6,1.9-1.2,1.9,0.6c0,1.5-2.5,3.1-2.5,1.5
					C725,95.3,725.3,94.4,725.6,93.7z"/>
			</g>
		</g>
		<g id="Group_308">
			<g id="Group_307">
				<path id="Path_1434" fill="#E55353" d="M704.9,90.6c0,0-1.5,0-2.2,0.6c0,0.3,0,0.6,0,0.9c0.6-0.3,1.5-0.6,2.2-0.6
					C705.2,91.3,705.2,90.9,704.9,90.6z"/>
			</g>
		</g>
		<g id="Group_310">
			<g id="Group_309">
				<path id="Path_1435" fill="#353A3D" d="M703.3,90.9c0,0.3,0,0.6,0.3,0.9c0.3,0,0.6,0,0.9-0.3l0,0c0-0.3,0-0.6-0.3-0.9
					C703.6,90.6,703.3,90.6,703.3,90.9L703.3,90.9z"/>
			</g>
		</g>
	</g>
	<g id="Group_314">
		<g id="Group_313">
			<g id="Group_312">
				<path id="Path_1436" fill="#6069A8" d="M666.7,35.5c0,0,2.2,3.7,3.1,4.3c1.2,0.9,0.3,1.5,0,1.5c-0.3,0-3.4,0.3-4-0.6
					c-0.6-0.9-0.9-3.1-1.5-3.7c-0.6-0.6-1.2-3.1,0.3-3.7C665.8,33,666.7,35.5,666.7,35.5z"/>
			</g>
		</g>
	</g>
	<g id="Group_317">
		<g id="Group_316">
			<g id="Group_315">
				<path id="Path_1437" fill="#202338" d="M666.1,33.9c0,0,2.5,4.3,2.8,5c0.3,0.6-0.9,0.6-1.5,0.3c-0.6-0.3-2.5-3.4-2.8-4
					c-0.3-0.6-0.3-0.9,0-1.5L666.1,33.9z"/>
			</g>
		</g>
	</g>
	<g id="Group_320">
		<g id="Group_319">
			<g id="Group_318">
				<path id="Path_1438" fill="#6069A8" d="M663.6,36.1l0.6,4.6h0.3v-3.4L663.6,36.1z"/>
			</g>
		</g>
	</g>
	<g id="Group_323">
		<g id="Group_322">
			<g id="Group_321">
				<path id="Path_1439" fill="#6069A8" d="M646,35.5c0,0,2.2,3.7,3.1,4.3c1.2,0.9,0.3,1.5,0,1.5c-0.6,0-3.4,0.3-4-0.6
					s-0.9-3.1-1.5-3.7c-0.6-0.6-1.2-3.1,0.3-3.7C644.7,33.3,646,35.5,646,35.5z"/>
			</g>
		</g>
	</g>
	<g id="Group_326">
		<g id="Group_325">
			<g id="Group_324">
				<path id="Path_1440" fill="#202338" d="M645.1,33.9c0,0,2.2,4.3,2.8,5c0.6,0.6-0.9,0.6-1.5,0.3c-0.6-0.3-2.5-3.4-2.8-4
					c-0.3-0.6-0.3-0.9,0-1.5L645.1,33.9z"/>
			</g>
		</g>
	</g>
	<g id="Group_329">
		<g id="Group_328">
			<g id="Group_327">
				<path id="Path_1441" fill="#6069A8" d="M642.6,36.1l0.6,4.6h0.3v-3.4L642.6,36.1z"/>
			</g>
		</g>
	</g>
	<g id="Group_332">
		<g id="Group_331">
			<g id="Group_330">
				<path id="Path_1442" fill="#202338" d="M636.7,1.1l19.2,9.3c1.2,0.6,2.2,1.9,2.5,3.1c0.6,7.7,6.2,20.1,6.2,20.1
					c1.9,0.9,1.5,0,1.5,0c-1.2-3.7-2.5-19.5-3.1-25.7c0-1.2-0.3-2.2-0.3-2.5c0-0.3-0.3-0.3-0.6-0.6C659.6,2.6,648.8-2,648.8-2
					C640.7-2.3,636.7,1.1,636.7,1.1z"/>
			</g>
		</g>
	</g>
	<g id="Group_335">
		<g id="Group_334">
			<g id="Group_333">
				<path id="Path_1443" fill="#202338" d="M633,4.8c0.6,5.6,8.1,5,8.1,5h9c0,0-2.5,5.6-3.1,10.2c-0.9,5-3.1,13.6-3.1,13.6
					s0,0.3,1.9,0c0,0,7.1-14.9,9.6-18.6c0.6-0.9,2.2-5.3,2.5-7.7c0-0.9,0-1.5-0.3-1.9c-0.6-0.6-1.2-0.9-1.9-1.5
					c-2.8-1.9-7.7-4.6-10.2-5.3c-3.7-0.9-9.3-2.5-9.3-2.5S632.4-0.5,633,4.8z"/>
			</g>
		</g>
	</g>
	<g id="Group_336">
		<path id="Path_1444" fill="#464240" d="M639.2-37c0,0-1.2-2.8-0.6-5.6c0.6-2.8,3.1-5.6,6.8-4.3c3.7,1.2,6.5,4.3,4.3,7.7
			c-2.2,3.4,1.9,5,0.9,6.8c-0.9,1.5-0.6,3.4-0.3,3.7c0.3,0.3,1.9,1.9,1.9,3.4s-7.1-4.6-7.1-4.6S641.3-38.3,639.2-37z"/>
	</g>
	<g id="Group_337">
		<path id="Path_1445" fill="#EB4747" d="M650.3-2.9c0,0-0.6,2.8-14.9-0.6C635.4-3.6,640.1-5.1,650.3-2.9z"/>
	</g>
	<g id="Group_339">
		<g id="Group_338">
			<path id="Path_1446" fill="#325BB3" d="M635.1-2.6c-0.3,0.3-0.3,0.9-0.6,1.2c5.3,0.3,10.5,0.3,15.5,0.6c-0.9-2.8-0.6-6.8-0.3-9.9
				c0.3-3.7,2.2-6.2,1.9-9.9c0.9,0.3,1.2,0.3,2.2,0.3c-1.5-4.6-2.2-7.1-7.1-9c-1.2-0.6-2.8-0.6-4.3-0.6c-5.6,0.6-7.4,0.6-10.2,5.9
				c4.3,0.6,3.7,2.5,5,7.1c0.6,2.2,1.2,4.6,0.9,7.1C637.9-7.3,635.1-4.8,635.1-2.6z"/>
		</g>
	</g>
	<g id="Group_341">
		<g id="Group_340">
			<path id="Path_1447" fill="#EEA886" d="M644.4-28.1c-2.5-0.6-1.9-1.9-1.9-1.9s0-0.6,0-1.9c0-0.3,0-0.6,0-0.9c0-0.3,0-0.9,0-1.2
				c-0.3-1.5,4.3-0.6,4.3-0.6s-0.3,3.4,0.3,4.3C647.8-29,646.6-27.7,644.4-28.1z"/>
		</g>
	</g>
	<g id="Group_343">
		<g id="Group_342">
			<path id="Path_1448" fill="#EEA886" d="M639.8-29.9c0,0,4.6,5.6,6.5,7.1c0,0,1.9-1.9,0.6-6.8C647.2-29.9,644.7-31.1,639.8-29.9z"
				/>
		</g>
	</g>
	<g id="Group_344">
		<path id="Path_1449" fill="#EEA886" d="M640.1-43.9c0,0-2.5,5,0,9.6s7.1-2.2,7.4-2.8c0.3-0.9,1.9-5.3-1.2-6.5
			C642.9-45.1,640.7-45.1,640.1-43.9z"/>
	</g>
	<g id="Group_345">
		<path id="Path_1450" fill="#464240" d="M640.7-42c0,0-1.5,2.5-1.9,4c-0.3-2.2,0-4.3,1.2-6.5c1.9-3.1,6.8,0,7.4,1.2
			s2.5,2.5-0.6,7.7C646.9-35.5,641.3-39.8,640.7-42z"/>
	</g>
	<g id="Group_346">
		<path id="Path_1451" fill="#A77860" d="M644.7-33.6c0,0-0.3,0.9-2.2,1.9c0-0.3,0-0.6,0-0.9C643.5-32.7,644.1-33,644.7-33.6z"/>
	</g>
	<g id="Group_347">
		<path id="Path_1452" fill="#EEA886" d="M620.3-7.3c0,0-1.2,0.6-1.9,0.3c-0.6-0.3-1.2-0.3-1.5-0.3c-0.3,0-1.5-0.3-1.5,0
			s1.9,0.9,2.2,0.9c0.3,0-1.2,0.9-1.2,1.2c0,0.3,1.5,2.8,2.5,2.2c0.9-0.6,1.5-2.2,1.5-2.2c0.3,0,0.6-0.3,0.6-0.6L620.3-7.3z"/>
	</g>
	<g id="Group_348">
		<path id="Path_1453" fill="#EEA886" d="M616.5-5.1c0,0-2.8,2.5-2.8,2.8c0,0.3,0,0.6,0.3,0.3c0.3-0.3,2.8-2.2,2.8-2.2
			s-2.8,3.4-2.8,3.7l0.3,0.3l3.1-3.4c0,0-2.5,3.1-2.5,3.4s0,0.3,0.3,0.3c0,0,0,0,0.3,0c0.3-0.3,2.8-3.1,2.8-3.1s-1.5,2.5-1.5,2.8
			c0,0,0.3,0.3,0.6-0.3c0.3-0.6,1.5-2.2,1.5-2.2L616.5-5.1z"/>
	</g>
	<g id="Group_350">
		<g id="Group_349">
			<path id="Path_1454" fill="#FF7E55" d="M649.1,9.8H641c0,0-7.4,0.6-8.1-5s2.5-8.4,2.5-8.4s4,1.2,7.4,1.9c2.2-0.3,4-0.6,6.2-0.6
				c0,0,14.3,5,13.9,7.7C662.7,5.4,656.8,2,649.1,9.8z"/>
		</g>
	</g>
	<g id="Group_351">
		<path id="Path_1455" fill="#5E5853" d="M643.8,0.5L659,0.1l-7.7,4L643.8,0.5z"/>
	</g>
	<g id="Group_352">
		<path id="Path_1456" fill="#325BB3" d="M648.5-1.7c-2.5,0.9-5.3,0.9-7.7,0l-0.3-1.5l8.7,0.6L648.5-1.7z"/>
	</g>
	<g id="Group_353">
		<path id="Path_1457" fill="#91887F" d="M651.3,4.2l-7.4-3.1V0.1l8.1,3.1L651.3,4.2z"/>
	</g>
	<g id="Group_356">
		<g id="Group_354">
			<path id="Path_1458" fill="#EDDAD3" d="M648.5-1.1c0,0.3,0.3,0.9,0.6,0.9h0.3l0.9-0.3c0.3,0,0.3-0.3,0.3-0.6
				c-0.3-2.5-1.2-12.1,0-13.6c0.3-0.6,0.6-0.9,0.9-1.5c0.6,2.2,1.9,4.6,2.2,6.2l7.1,10.2l2.5,0.6C660.2-7,657.8-11,657.8-11
				c-0.6-1.2-1.9-5.3-3.1-9c-0.6-2.2-1.5-4.3-1.9-5.6c-0.3-0.6-0.6-0.9-0.9-1.2c-1.2-0.6-3.1-1.9-4.6-2.8l0,0c0,0,0,0-0.3,0l0,0l0,0
				C650.3-24.6,649.1-10.4,648.5-1.1L648.5-1.1z"/>
		</g>
		<g id="Group_355">
			<path id="Path_1459" fill="#EDDAD3" d="M636.4-29.6c-0.9,0.3-3.7,2.8-5,5.3c-1.5,3.1-3.1,6.5-4.3,7.4c-2.2,2.2-8.4,9.3-8.4,9.3
				c0.6,0.9,1.2,1.5,1.9,2.2c0,0,9.9-9,10.8-10.2c0.9-1.2,3.4-6.8,4-6.5l0,0l0,0c0.6,1.5,1.2,3.4,1.9,5l0,0c0.6,2.2,0.6,4.3,0.3,6.8
				c-0.3,1.9-1.5,5-2.5,6.5c0,0.3,0,0.6,0,0.9l0,0c0,0,0,0.3,0.3,0.3l2.8,1.2l0.6,0.3c0.3,0.3,0.9,0,1.2-0.3s0.6-0.6,0.6-0.9
				c0.6-5.3,1.5-10.5,2.2-12.7c2.8-8.7-1.2-15.5-1.2-15.5S637.3-29.9,636.4-29.6z"/>
		</g>
	</g>
	<g id="Group_357">
		<path id="Path_1460" fill="#6E6760" d="M651.3,4.2l4.6-13l14.6,0.3l-4.3,12.1L651.3,4.2z"/>
	</g>
	<g id="Group_358">
		<path id="Path_1461" fill="#807066" d="M660.6-2.9c-0.3,0.9-0.3,1.9,0.3,2.2c0.6,0.3,1.5-0.3,1.9-1.2c0.3-0.9,0.3-1.9-0.3-2.2
			C661.8-4.5,660.9-4.2,660.6-2.9z"/>
	</g>
	<g id="Group_359">
		<path id="Path_1462" fill="#464240" d="M645.1-38.9c0,0,0.9,1.5,0,2.8s0.3,2.8,0.3,4c0.3,1.2-3.7,5.3,0.6,7.1
			c4.3,1.9,5.6-1.2,4.3-2.8c-0.9-1.9-1.9-3.1-1.9-5.6C648.8-35.8,647.8-39.8,645.1-38.9z"/>
	</g>
	<g id="Group_360">
		<path id="Path_1463" fill="#78C2FF" d="M614.4-57.5h18v16.7l-2.8-2.8h-15.2V-57.5L614.4-57.5z"/>
	</g>
</g>
<g enable-background="new    ">
	<path fill="#FFFFFF" d="M70.9,340.1c-0.1,0.4-0.1,0.8-0.2,1.2c-0.1,0.4-0.1,0.9-0.1,1.4c0,0.5,0.1,1,0.2,1.4
		c0.1,0.4,0.4,0.8,0.8,1.1c0.2,0.2,0.5,0.3,0.9,0.5s0.8,0.2,1.4,0.3c0.6,0.1,1.3,0.1,2.1,0.1c0.8,0,1.9,0,3,0c1,0,1.9,0,2.7-0.1
		s1.4-0.2,1.9-0.3c0.5-0.2,0.9-0.5,1.1-0.8c0.3-0.4,0.4-0.9,0.4-1.5v-5.7H87v5.7c0,0.8-0.1,1.5-0.3,2c-0.2,0.5-0.5,1-0.9,1.4
		c-0.4,0.4-0.8,0.6-1.3,0.8c-0.5,0.2-1.1,0.3-1.7,0.4c-0.6,0.1-1.3,0.2-2,0.2c-0.7,0-1.4,0-2.2,0c-1.1,0-2.1,0-2.9,0
		c-0.9,0-1.7-0.1-2.4-0.2c-0.7-0.1-1.3-0.2-1.9-0.4s-1-0.5-1.4-0.8c-0.5-0.5-0.9-1.1-1-1.7s-0.3-1.4-0.3-2.2c0-0.5,0-1,0.1-1.5
		c0.1-0.5,0.2-1,0.2-1.4H70.9z M77.1,334.7h-2.2v-2.4h2.2V334.7z M81,334.7h-2.2v-2.4H81V334.7z"/>
	<path fill="#FFFFFF" d="M95.4,348.3h-0.2c-0.8,0-1.5-0.1-2-0.4c-0.5-0.3-0.9-0.6-1.2-1.1c-0.3-0.4-0.5-1-0.6-1.5s-0.1-1.2-0.1-1.8
		v-15.3h1.9v14.6c0,0.6,0,1.1,0.1,1.5c0,0.4,0.1,0.8,0.3,1c0.2,0.3,0.4,0.5,0.7,0.6c0.3,0.1,0.7,0.2,1.2,0.2V348.3z"/>
	<path fill="#FFFFFF" d="M101.4,342.7c0,0.6,0,1.1,0.1,1.5c0,0.4,0.2,0.8,0.3,1s0.4,0.5,0.7,0.6c0.3,0.1,0.7,0.2,1.2,0.2v2.2h-0.3
		c-0.8,0-1.4-0.1-1.9-0.4c-0.5-0.3-0.8-0.7-1.1-1.2h0c-0.2,0.3-0.4,0.6-0.7,0.8c-0.3,0.2-0.5,0.4-0.8,0.5c-0.3,0.1-0.6,0.2-0.8,0.3
		c-0.3,0.1-0.6,0.1-0.8,0.1h-1.7c-0.3,0-0.5-0.1-0.6-0.3c-0.1-0.2-0.2-0.5-0.2-0.8s0.1-0.5,0.2-0.8c0.1-0.2,0.4-0.3,0.6-0.3h1.8
		c0.2,0,0.5,0,0.8-0.1s0.5-0.2,0.7-0.4c0.2-0.2,0.4-0.4,0.6-0.8c0.1-0.3,0.2-0.7,0.2-1.2v-5.8h1.9V342.7z M98.6,352.6h-2.2v-2.4h2.2
		V352.6z M102.4,352.6h-2.2v-2.4h2.2V352.6z"/>
	<path fill="#FFFFFF" d="M103.6,348.3c-0.3,0-0.5-0.1-0.6-0.3c-0.1-0.2-0.2-0.5-0.2-0.8s0.1-0.5,0.2-0.8c0.1-0.2,0.4-0.3,0.6-0.3
		h0.7c1,0,1.9-0.1,2.8-0.4c0.9-0.2,1.8-0.6,2.6-0.9c0.8-0.4,1.6-0.8,2.4-1.3c0.8-0.5,1.5-1,2.2-1.5v-0.1c-0.5-0.2-0.9-0.5-1.3-0.7
		c-0.4-0.2-0.8-0.4-1.2-0.6c-0.4-0.2-0.9-0.3-1.4-0.5s-1.1-0.2-1.8-0.2c-0.6,0-1.2,0-1.7,0.1c-0.5,0.1-1,0.2-1.4,0.3v-2.1
		c0.4-0.2,0.9-0.3,1.5-0.4c0.5-0.1,1.1-0.2,1.7-0.2c0.6,0,1.2,0.1,1.7,0.2c0.5,0.1,1,0.3,1.4,0.5s0.8,0.4,1.2,0.6
		c0.4,0.2,0.8,0.4,1.2,0.6c0.4,0.2,0.9,0.4,1.4,0.5c0.5,0.1,1,0.2,1.7,0.2l-0.4,2.6c-0.3,0.1-0.5,0.2-0.9,0.4
		c-0.3,0.2-0.7,0.4-1.1,0.7c0,0.4,0.1,0.7,0.1,1c0.1,0.3,0.2,0.5,0.4,0.6s0.5,0.3,0.9,0.3c0.4,0.1,0.9,0.1,1.5,0.1v2.2h-0.2
		c-0.8,0-1.4-0.1-1.9-0.3c-0.5-0.2-0.9-0.4-1.2-0.7c-0.3-0.3-0.5-0.7-0.6-1.1c-0.1-0.4-0.2-0.8-0.2-1.3c-0.6,0.4-1.2,0.8-1.9,1.2
		c-0.7,0.4-1.4,0.8-2.2,1.1c-0.8,0.3-1.7,0.6-2.6,0.8c-0.9,0.2-1.9,0.3-2.9,0.3H103.6z M112,352.6h-2.2v-2.4h2.2V352.6z"/>
	<path fill="#FFFFFF" d="M118,348.3c-0.3,0-0.5-0.1-0.6-0.3c-0.1-0.2-0.2-0.5-0.2-0.8s0.1-0.5,0.2-0.8c0.1-0.2,0.4-0.3,0.6-0.3h0.3
		c0.5,0,0.9-0.1,1.3-0.3c0.3-0.2,0.6-0.4,0.9-0.7c0.2-0.3,0.4-0.6,0.6-0.9s0.2-0.6,0.3-0.8c0.2-0.4,0.4-0.9,0.6-1.4
		c0.2-0.5,0.5-1,0.8-1.4c0.3-0.4,0.7-0.8,1.2-1.1c0.5-0.3,1.1-0.4,1.8-0.4c0.8,0,1.4,0.2,2,0.5c0.6,0.3,1,0.8,1.4,1.3
		c0.4,0.5,0.6,1.1,0.8,1.6s0.3,1.1,0.3,1.6c0,0.5-0.1,1-0.3,1.5c-0.2,0.5-0.4,0.9-0.8,1.3c-0.3,0.4-0.8,0.7-1.3,0.9
		c-0.5,0.2-1.1,0.4-1.8,0.4c-0.4,0-0.8,0-1.2-0.2c-0.4-0.1-0.8-0.2-1.1-0.4c-0.4-0.2-0.7-0.4-1-0.6c-0.3-0.2-0.6-0.5-0.8-0.8
		c-0.4,0.7-0.9,1.2-1.6,1.5c-0.6,0.3-1.3,0.4-2.1,0.4H118z M122.7,344.6c0.3,0.5,0.8,0.8,1.4,1c0.6,0.2,1.2,0.4,1.9,0.4
		c0.8,0,1.3-0.1,1.8-0.4s0.6-0.8,0.6-1.4c0-0.3-0.1-0.6-0.2-1c-0.1-0.3-0.3-0.7-0.5-1c-0.2-0.3-0.5-0.6-0.8-0.8
		c-0.3-0.2-0.7-0.3-1.2-0.3c-0.4,0-0.8,0.1-1.1,0.3c-0.3,0.2-0.6,0.4-0.8,0.7c-0.3,0.3-0.5,0.7-0.6,1.1
		C123,343.7,122.8,344.2,122.7,344.6z"/>
	<path fill="#FFFFFF" d="M140.7,346.1v2.2h-0.3c-0.5,0-0.9-0.1-1.2-0.2c-0.3-0.2-0.5-0.4-0.7-0.7l-0.1,0c0,1.2-0.1,2.3-0.4,3.2
		c-0.3,0.9-0.6,1.7-1.1,2.3s-1.1,1.1-1.7,1.4s-1.4,0.5-2.2,0.5c-0.4,0-0.8,0-1.3-0.1c-0.4-0.1-0.9-0.2-1.3-0.4v-2.2
		c1,0.3,1.8,0.5,2.6,0.5c0.7,0,1.3-0.1,1.7-0.4c0.5-0.3,0.8-0.6,1.1-1.1c0.3-0.5,0.5-1,0.6-1.7c0.1-0.6,0.2-1.3,0.2-2.1
		c0-0.7,0-1.3-0.1-1.9c-0.1-0.6-0.2-1.2-0.3-1.8c-0.1-0.6-0.3-1.2-0.4-1.8c-0.2-0.6-0.3-1.1-0.5-1.7h1.9c0.2,0.7,0.4,1.3,0.6,2
		c0.2,0.7,0.3,1.4,0.4,2.1c0,0.3,0.1,0.6,0.2,0.8c0.1,0.2,0.3,0.4,0.5,0.6c0.2,0.1,0.4,0.3,0.7,0.3
		C139.9,346,140.2,346.1,140.7,346.1z"/>
	<path fill="#FFFFFF" d="M146.7,342.7c0,0.6,0,1.1,0.1,1.5c0,0.4,0.2,0.8,0.3,1s0.4,0.5,0.7,0.6c0.3,0.1,0.7,0.2,1.2,0.2v2.2h-0.3
		c-0.8,0-1.4-0.1-1.9-0.4c-0.5-0.3-0.8-0.7-1.1-1.2h0c-0.2,0.3-0.4,0.6-0.7,0.8c-0.3,0.2-0.5,0.4-0.8,0.5c-0.3,0.1-0.6,0.2-0.8,0.3
		c-0.3,0.1-0.6,0.1-0.8,0.1h-1.7c-0.3,0-0.5-0.1-0.6-0.3c-0.1-0.2-0.2-0.5-0.2-0.8s0.1-0.5,0.2-0.8c0.1-0.2,0.4-0.3,0.6-0.3h1.8
		c0.2,0,0.5,0,0.8-0.1s0.5-0.2,0.7-0.4c0.2-0.2,0.4-0.4,0.6-0.8c0.1-0.3,0.2-0.7,0.2-1.2v-5.8h1.9V342.7z M146.4,352.6h-2.2v-2.4
		h2.2V352.6z"/>
	<path fill="#FFFFFF" d="M154.9,342.7c0,0.6,0,1.1,0.1,1.5c0,0.4,0.2,0.8,0.3,1s0.4,0.5,0.7,0.6c0.3,0.1,0.7,0.2,1.2,0.2v2.2h-0.3
		c-0.8,0-1.4-0.1-1.9-0.4c-0.5-0.3-0.8-0.7-1-1.2h0c-0.2,0.3-0.5,0.6-0.7,0.8c-0.3,0.2-0.5,0.4-0.8,0.5s-0.6,0.2-0.9,0.3
		c-0.3,0.1-0.6,0.1-0.8,0.1h-1.7c-0.3,0-0.5-0.1-0.6-0.3c-0.1-0.2-0.2-0.5-0.2-0.8s0.1-0.5,0.2-0.8c0.1-0.2,0.4-0.3,0.6-0.3h1.8
		c0.2,0,0.5,0,0.8-0.1s0.5-0.2,0.7-0.4c0.2-0.2,0.4-0.4,0.6-0.8c0.1-0.3,0.2-0.7,0.2-1.2v-15.5h1.9V342.7z"/>
	<path fill="#FFFFFF" d="M159,346.1c0.4,0,0.7,0,1-0.1c0.3-0.1,0.5-0.2,0.7-0.4c0.2-0.2,0.3-0.4,0.4-0.7s0.1-0.7,0.1-1.2v-15.5h1.9
		v15.6c0,0.7-0.1,1.2-0.2,1.7s-0.3,0.9-0.5,1.2s-0.4,0.6-0.7,0.8c-0.3,0.2-0.6,0.4-0.9,0.5c-0.3,0.1-0.6,0.2-1,0.2s-0.7,0.1-1.1,0.1
		h-1.7c-0.3,0-0.5-0.1-0.6-0.3c-0.1-0.2-0.2-0.5-0.2-0.8s0.1-0.5,0.2-0.8c0.1-0.2,0.4-0.3,0.6-0.3H159z"/>
	<path fill="#FFFFFF" d="M186,342.2c0.3,1.6,0.4,3.1,0.4,4.5c0,1.3-0.1,2.4-0.3,3.4c-0.2,1-0.6,1.8-1.1,2.5s-1.2,1.2-2.1,1.6
		c-0.9,0.4-1.9,0.6-3.2,0.6c-1.1,0-2-0.2-2.7-0.5c-0.7-0.3-1.3-0.7-1.8-1.3s-0.8-1.2-0.9-2c-0.2-0.8-0.3-1.7-0.3-2.7
		c0-0.6,0-1.1,0.1-1.7c0.1-0.6,0.1-1.2,0.3-1.9h1.8c-0.1,0.7-0.2,1.3-0.2,1.8c0,0.6-0.1,1.1-0.1,1.6c0,0.8,0.1,1.5,0.2,2.1
		c0.1,0.6,0.4,1,0.7,1.4c0.3,0.4,0.7,0.6,1.2,0.8c0.5,0.2,1.1,0.2,1.8,0.2c0.8,0,1.6-0.1,2.2-0.3c0.6-0.2,1.1-0.6,1.5-1
		c0.4-0.5,0.7-1.1,0.8-1.9s0.3-1.7,0.3-2.9c0-0.6,0-1.3-0.1-1.9c-0.1-0.7-0.2-1.5-0.3-2.3H186z M181.3,339.2H179v-2.4h2.2V339.2z"/>
	<path fill="#FFFFFF" d="M194.7,348.3h-0.2c-0.8,0-1.5-0.1-2-0.4c-0.5-0.3-0.9-0.6-1.2-1.1c-0.3-0.4-0.5-1-0.6-1.5s-0.1-1.2-0.1-1.8
		v-15.3h1.9v14.6c0,0.6,0,1.1,0.1,1.5c0,0.4,0.1,0.8,0.3,1c0.2,0.3,0.4,0.5,0.7,0.6c0.3,0.1,0.7,0.2,1.2,0.2V348.3z"/>
	<path fill="#FFFFFF" d="M199.8,346c-0.6-0.3-1.1-0.5-1.5-0.8s-0.7-0.6-0.9-1c-0.2-0.3-0.4-0.7-0.5-1.1c-0.1-0.4-0.1-0.8-0.1-1.2
		c0-0.6,0.1-1.2,0.3-1.8c0.2-0.6,0.5-1.2,0.8-1.7c0.3-0.5,0.7-1,1.2-1.3s1-0.5,1.5-0.5c0.6,0,1.1,0.2,1.6,0.5
		c0.5,0.4,0.9,0.9,1.4,1.7c0.2,0.3,0.3,0.6,0.5,0.9s0.3,0.7,0.4,1c0.1,0.4,0.2,0.7,0.3,1.1c0.1,0.4,0.1,0.8,0.1,1.2
		c0,0.6-0.1,1.1-0.2,1.5c-0.1,0.4-0.3,0.8-0.5,1.2c0.4,0.1,0.9,0.1,1.4,0.1c0.5,0,1,0,1.5,0v2.2h-0.3c-0.4,0-0.7,0-1.1,0
		c-0.4,0-0.8-0.1-1.1-0.1s-0.8-0.1-1.1-0.2s-0.7-0.2-1-0.3c-0.4,0.2-0.8,0.3-1.3,0.4s-0.9,0.2-1.4,0.2c-0.5,0-0.9,0.1-1.4,0.1
		s-0.9,0-1.3,0h-2.3c-0.3,0-0.5-0.1-0.6-0.3c-0.1-0.2-0.2-0.5-0.2-0.8s0.1-0.5,0.2-0.8c0.1-0.2,0.4-0.3,0.6-0.3h2.4
		c0.4,0,0.8,0,1.3,0S199.3,346.1,199.8,346L199.8,346z M199.5,333.2h-2.2v-2.4h2.2V333.2z M202.9,343.3c0-0.3,0-0.5-0.1-0.8
		c-0.1-0.3-0.1-0.6-0.3-0.9c-0.1-0.3-0.2-0.6-0.4-0.9c-0.2-0.3-0.3-0.6-0.5-0.8c-0.2-0.2-0.4-0.4-0.6-0.6c-0.2-0.1-0.4-0.2-0.6-0.2
		c-0.2,0-0.5,0.1-0.7,0.2c-0.2,0.2-0.4,0.4-0.6,0.6s-0.3,0.6-0.4,0.9s-0.2,0.7-0.2,1c0,0.3,0,0.6,0.1,0.8s0.3,0.6,0.6,0.9
		s0.6,0.6,1.1,0.9c0.5,0.3,1.1,0.7,1.8,1.1c0.3-0.2,0.4-0.5,0.5-0.8C202.9,344.2,202.9,343.8,202.9,343.3z M203.4,333.2h-2.2v-2.4
		h2.2V333.2z"/>
	<path fill="#FFFFFF" d="M208.9,346.1c0.4,0,0.7,0,1-0.1c0.3-0.1,0.5-0.2,0.7-0.4c0.2-0.2,0.3-0.4,0.4-0.7s0.1-0.7,0.1-1.2v-5.8h1.9
		v5.9c0,0.7-0.1,1.2-0.2,1.7s-0.3,0.9-0.5,1.2s-0.4,0.6-0.7,0.8c-0.3,0.2-0.6,0.4-0.9,0.5c-0.3,0.1-0.6,0.2-1,0.2s-0.7,0.1-1.1,0.1
		H207c-0.3,0-0.5-0.1-0.6-0.3c-0.1-0.2-0.2-0.5-0.2-0.8s0.1-0.5,0.2-0.8c0.1-0.2,0.4-0.3,0.6-0.3H208.9z M211.2,334.7h-2.2v-2.4h2.2
		V334.7z M215,334.7h-2.2v-2.4h2.2V334.7z"/>
	<path fill="#FFFFFF" d="M222,347.6l-5.4-17.5h2l5.3,17.5H222z"/>
	<path fill="#FFFFFF" d="M216.2,345.9c1,0.1,2,0.2,2.9,0.3c0.9,0,1.8,0.1,2.7,0.1c0.6,0,1.2,0,1.7,0s0.9-0.1,1.2-0.3
		c0.3-0.2,0.5-0.4,0.7-0.8c0.2-0.3,0.2-0.8,0.2-1.5v-15.5h1.9v15.6c0,0.8-0.1,1.4-0.2,1.9c-0.1,0.5-0.3,1-0.6,1.3
		c-0.3,0.3-0.6,0.6-0.9,0.8c-0.4,0.2-0.8,0.3-1.2,0.4c-0.4,0.1-0.9,0.1-1.4,0.2c-0.5,0-1.1,0-1.6,0c-0.8,0-1.6,0-2.4-0.1
		s-1.6-0.1-2.4-0.3L216.2,345.9z"/>
	<path fill="#FFFFFF" d="M231.7,328.2h1.9v19.9h-1.9V328.2z"/>
	<path fill="#FFFFFF" d="M235.8,351.5c0.9,0.4,1.6,0.7,2.3,0.8c0.7,0.2,1.4,0.2,2,0.2c0.8,0,1.4-0.1,1.9-0.4
		c0.5-0.3,0.9-0.7,1.2-1.1c0.3-0.5,0.5-1,0.6-1.5c0.1-0.6,0.2-1.1,0.2-1.7c-0.7,0.3-1.4,0.5-2.1,0.5c-0.5,0-1-0.1-1.5-0.3
		c-0.5-0.2-0.9-0.4-1.3-0.8c-0.4-0.3-0.7-0.8-0.9-1.3c-0.2-0.5-0.3-1.1-0.3-1.7c0-0.6,0.1-1.2,0.3-1.8c0.2-0.6,0.5-1.2,0.8-1.7
		c0.3-0.5,0.7-1,1.2-1.3s1-0.5,1.5-0.5c0.6,0,1.1,0.2,1.6,0.6c0.5,0.4,0.9,0.9,1.4,1.7c0.4,0.7,0.8,1.6,1,2.7s0.3,2.1,0.3,3.3
		c0,1-0.1,2-0.3,2.9c-0.2,0.9-0.5,1.7-1,2.5c-0.5,0.7-1.1,1.3-1.8,1.7c-0.7,0.4-1.6,0.6-2.7,0.6c-0.7,0-1.4-0.1-2.1-0.3
		c-0.7-0.2-1.4-0.5-2.2-0.9V351.5z M244,345.6c0-0.2,0-0.5-0.1-0.8c-0.1-0.3-0.1-0.6-0.3-0.9s-0.2-0.7-0.4-1
		c-0.1-0.3-0.3-0.6-0.5-0.9c-0.2-0.3-0.4-0.5-0.6-0.6c-0.2-0.2-0.4-0.2-0.6-0.2c-0.2,0-0.5,0.1-0.7,0.2c-0.2,0.2-0.4,0.4-0.6,0.6
		s-0.3,0.6-0.4,0.9c-0.1,0.3-0.2,0.7-0.2,1c0,0.3,0.1,0.6,0.2,0.9c0.1,0.3,0.3,0.5,0.5,0.7c0.2,0.2,0.5,0.3,0.8,0.4
		c0.3,0.1,0.6,0.1,0.9,0.1c0.3,0,0.6,0,0.9-0.1C243.4,345.9,243.7,345.8,244,345.6z"/>
	<path fill="#FFFFFF" d="M263.1,335.2h1.9v7.7c0,0.5,0,1,0.1,1.4c0.1,0.4,0.2,0.7,0.3,1c0.2,0.3,0.4,0.5,0.7,0.6s0.7,0.2,1.1,0.2
		v2.2H267c-0.4,0-0.9-0.1-1.3-0.2s-0.8-0.3-1.1-0.5c-0.3-0.2-0.6-0.5-0.8-0.9s-0.4-0.8-0.5-1.3c-0.3,0.1-0.7,0.3-1.1,0.3
		c-0.4,0.1-0.8,0.1-1.1,0.1c-0.6,0-1.1-0.1-1.6-0.2c-0.5-0.1-1-0.4-1.4-0.7c-0.4-0.3-0.7-0.7-0.9-1.2c-0.2-0.5-0.3-1-0.3-1.7
		c0-0.8,0.2-1.6,0.5-2.2c0.4-0.6,0.8-1.2,1.4-1.6c0.6-0.5,1.3-0.8,2-1.1c0.8-0.3,1.5-0.5,2.3-0.6V335.2z M260.7,332.3h-2.2v-2.4h2.2
		V332.3z M258.6,341.8c0,0.3,0.1,0.6,0.2,0.8c0.1,0.2,0.3,0.4,0.6,0.6s0.5,0.2,0.8,0.3c0.3,0.1,0.6,0.1,1,0.1c0.3,0,0.6,0,1-0.1
		c0.3,0,0.6-0.1,0.9-0.2v-4.9c-0.6,0.1-1.2,0.3-1.7,0.5s-1,0.5-1.4,0.7c-0.4,0.3-0.7,0.6-1,1S258.6,341.4,258.6,341.8z M264.6,332.3
		h-2.2v-2.4h2.2V332.3z"/>
	<path fill="#FFFFFF" d="M280.3,345.8c-1,0.5-1.9,0.9-2.7,1.2c-0.9,0.3-1.7,0.6-2.5,0.7s-1.6,0.3-2.4,0.4s-1.6,0.1-2.4,0.1h-3
		c-0.3,0-0.5-0.1-0.6-0.3c-0.1-0.2-0.2-0.5-0.2-0.8s0.1-0.5,0.2-0.8c0.1-0.2,0.4-0.3,0.6-0.3h4.4l0-0.1c-0.5-0.4-0.9-0.9-1.2-1.3
		c-0.3-0.4-0.6-0.9-0.7-1.3s-0.3-0.8-0.4-1.1s-0.1-0.7-0.1-1c0-0.7,0.1-1.3,0.4-2c0.3-0.6,0.7-1.2,1.2-1.6s1.2-0.8,1.9-1.1
		c0.8-0.3,1.6-0.4,2.6-0.4c0.3,0,0.7,0,1,0.1c0.4,0,0.7,0.1,1.1,0.2v2.2c-0.4-0.1-0.8-0.1-1.1-0.2c-0.4,0-0.8-0.1-1.2-0.1
		c-0.5,0-1,0-1.5,0.1c-0.5,0.1-0.9,0.2-1.3,0.5s-0.7,0.5-0.9,0.9c-0.2,0.4-0.3,0.9-0.3,1.5c0,0.3,0,0.6,0.1,0.9
		c0.1,0.3,0.2,0.7,0.5,1c0.2,0.4,0.5,0.7,0.9,1.1c0.4,0.4,0.8,0.8,1.4,1.2c1-0.2,2-0.5,3-0.9c1-0.4,2.1-0.8,3.2-1.4L280.3,345.8z"/>
	<path fill="#FFFFFF" d="M283.7,328.2h1.9v19.9h-1.9V328.2z"/>
	<path fill="#FFFFFF" d="M296,346.1v2.2h-0.3c-0.5,0-0.9-0.1-1.2-0.2c-0.3-0.2-0.5-0.4-0.7-0.7l-0.1,0c0,1.2-0.1,2.3-0.4,3.2
		c-0.3,0.9-0.6,1.7-1.1,2.3s-1.1,1.1-1.7,1.4s-1.4,0.5-2.2,0.5c-0.4,0-0.8,0-1.3-0.1c-0.4-0.1-0.9-0.2-1.3-0.4v-2.2
		c1,0.3,1.8,0.5,2.6,0.5c0.7,0,1.3-0.1,1.7-0.4c0.5-0.3,0.8-0.6,1.1-1.1c0.3-0.5,0.5-1,0.6-1.7c0.1-0.6,0.2-1.3,0.2-2.1
		c0-0.7,0-1.3-0.1-1.9c-0.1-0.6-0.2-1.2-0.3-1.8c-0.1-0.6-0.3-1.2-0.4-1.8c-0.2-0.6-0.3-1.1-0.5-1.7h1.9c0.2,0.7,0.4,1.3,0.6,2
		c0.2,0.7,0.3,1.4,0.4,2.1c0,0.3,0.1,0.6,0.2,0.8c0.1,0.2,0.3,0.4,0.5,0.6c0.2,0.1,0.4,0.3,0.7,0.3C295.3,346,295.6,346.1,296,346.1
		z"/>
	<path fill="#FFFFFF" d="M302,342.7c0,0.6,0,1.1,0.1,1.5c0,0.4,0.2,0.8,0.3,1s0.4,0.5,0.7,0.6c0.3,0.1,0.7,0.2,1.2,0.2v2.2H304
		c-0.8,0-1.4-0.1-1.9-0.4c-0.5-0.3-0.8-0.7-1.1-1.2h0c-0.2,0.3-0.4,0.6-0.7,0.8c-0.3,0.2-0.5,0.4-0.8,0.5c-0.3,0.1-0.6,0.2-0.8,0.3
		c-0.3,0.1-0.6,0.1-0.8,0.1H296c-0.3,0-0.5-0.1-0.6-0.3c-0.1-0.2-0.2-0.5-0.2-0.8s0.1-0.5,0.2-0.8c0.1-0.2,0.4-0.3,0.6-0.3h1.8
		c0.2,0,0.5,0,0.8-0.1s0.5-0.2,0.7-0.4c0.2-0.2,0.4-0.4,0.6-0.8c0.1-0.3,0.2-0.7,0.2-1.2v-5.8h1.9V342.7z M301.8,352.6h-2.2v-2.4
		h2.2V352.6z"/>
	<path fill="#FFFFFF" d="M306.1,346.1c0.4,0,0.7,0,1-0.1c0.3-0.1,0.5-0.2,0.7-0.4c0.2-0.2,0.3-0.4,0.4-0.7s0.1-0.7,0.1-1.2v-15.5
		h1.9v15.6c0,0.7-0.1,1.2-0.2,1.7s-0.3,0.9-0.5,1.2s-0.4,0.6-0.7,0.8c-0.3,0.2-0.6,0.4-0.9,0.5c-0.3,0.1-0.6,0.2-1,0.2
		s-0.7,0.1-1.1,0.1h-1.7c-0.3,0-0.5-0.1-0.6-0.3c-0.1-0.2-0.2-0.5-0.2-0.8s0.1-0.5,0.2-0.8c0.1-0.2,0.4-0.3,0.6-0.3H306.1z"/>
	<path fill="#FFFFFF" d="M314.5,328.2h1.9v19.9h-1.9V328.2z"/>
</g>
<path id="Path_1464" fill="#FFFFFF" d="M269.5,296.2c1,0.5,1.9,1.1,2.7,1.9c0.6,0.7,0.9,1.5,0.8,2.3c0,1.5-0.8,3-2.2,4.1
	c-1.5,1.2-3.6,2.3-6.4,3.1l-0.5-1.1c1.3-0.5,2.5-1.2,3.7-2c0.8-0.5,1.2-1.3,1.2-2.1c0-1-0.7-1.8-2.2-2.3c-0.5-0.1-0.8-0.3-0.8-0.4
	c0-0.1,0.3-0.4,0.9-0.9C267.9,298,268.7,297.1,269.5,296.2z M43.5,288.5c2.5-0.1,3.8-0.5,3.8-1.1c0-0.1-0.1-0.2-0.3-0.3
	c-0.2-0.1-0.4-0.2-0.6-0.3c-0.2-0.1-0.5-0.2-0.8-0.3c-0.3-0.1-0.6-0.3-0.8-0.5c-0.2-0.2-0.5-0.4-0.6-0.7c-0.2-0.3-0.3-0.6-0.3-1
	c0-0.5,0.2-1,0.6-1.3c0.4-0.4,0.9-0.8,1.5-1.1c0.7-0.3,1.4-0.6,2.2-0.8c0.9-0.2,1.8-0.4,2.7-0.5v2.3c-1,0.1-1.9,0.3-2.9,0.5
	c-0.6,0.2-0.9,0.5-0.9,0.7c0,0.1,0.1,0.2,0.3,0.3c0.2,0.1,0.4,0.2,0.6,0.3c0.2,0.1,0.5,0.2,0.8,0.3c0.3,0.1,0.6,0.3,0.8,0.4
	c0.2,0.2,0.4,0.4,0.6,0.6c0.2,0.3,0.3,0.6,0.3,0.9c0,0.4-0.2,0.8-0.4,1.2c-0.3,0.4-0.8,0.8-1.3,1.1c-0.7,0.4-1.4,0.6-2.2,0.8
	c-1,0.2-2,0.4-3.1,0.4V288.5z M62.1,293.3c0,0.6,0,1.2,0.1,1.6c0,0.4,0.2,0.8,0.4,1.1c0.3,0.3,0.7,0.6,1.1,0.7
	c0.7,0.2,1.4,0.2,2.1,0.2v4.9h-1c-1.1,0-2.2-0.2-3.1-0.5c-0.8-0.3-1.5-0.9-1.9-1.6h-0.1c-0.6,0.5-1.4,1-2.2,1.3
	c-0.9,0.3-1.9,0.5-2.9,0.7c-1.1,0.2-2.2,0.3-3.4,0.3c-1.2,0-2.5,0.1-3.8,0.1c-1.3,0-2.7,0-4,0c-1.3,0-2.5-0.1-3.7-0.2
	c-1.1-0.1-2.1-0.3-3.2-0.6c-0.9-0.2-1.7-0.6-2.5-1.1c-0.5-0.3-1-0.7-1.3-1.2c-0.3-0.4-0.6-0.9-0.8-1.4c-0.2-0.5-0.4-1-0.5-1.6
	c-0.1-0.5-0.1-1.1-0.1-1.6c0-0.8,0.1-1.6,0.2-2.5c0.2-0.8,0.4-1.6,0.6-2.4h4.7c-0.1,0.4-0.2,0.8-0.3,1.2c-0.1,0.4-0.2,0.7-0.2,1
	c-0.1,0.3-0.1,0.6-0.1,0.9c0,0.3,0,0.6,0,0.9c0,0.5,0.1,1,0.2,1.4c0.2,0.5,0.6,0.9,1.1,1.2c0.4,0.3,0.9,0.5,1.4,0.6
	c0.7,0.2,1.4,0.3,2.1,0.4c0.8,0.1,1.8,0.1,3,0.2s2.5,0,4.1,0c1.9,0,3.5,0,4.7-0.1c1,0,2-0.1,2.9-0.3c0.6-0.1,1.1-0.4,1.5-0.9
	c0.3-0.5,0.4-1,0.4-1.6v-20.2h4.6L62.1,293.3z M68.7,301.8h-2.9c-0.5,0-1-0.3-1.1-0.7c-0.3-0.6-0.4-1.2-0.4-1.8
	c0-0.6,0.1-1.2,0.4-1.8c0.2-0.4,0.6-0.7,1.1-0.7h3.1c0.5,0,1.1,0,1.6-0.1c0.4,0,0.7-0.1,1.1-0.3c0.3-0.2,0.5-0.4,0.6-0.7
	c0.1-0.4,0.2-0.9,0.2-1.3V286H77v7.3c0,0.6,0,1.2,0.1,1.6c0,0.4,0.2,0.8,0.4,1.1c0.3,0.3,0.7,0.6,1.1,0.7c0.7,0.2,1.4,0.2,2.1,0.2
	v4.9h-1c-1.1,0-2.2-0.1-3.2-0.5c-0.9-0.3-1.6-0.9-2-1.6h-0.1c-0.3,0.4-0.8,0.7-1.3,1c-0.4,0.3-0.9,0.5-1.4,0.6
	c-0.5,0.2-1,0.3-1.5,0.3C69.7,301.8,69.2,301.8,68.7,301.8z M73.5,282.4h-5.1v-3.8h5.1V282.4z M81,282.4h-5.1v-3.8H81V282.4z
	 M95,301.8c-0.7,0-1.5-0.1-2.2-0.2c-0.7-0.1-1.4-0.3-2-0.5c-0.6-0.2-1.2-0.5-1.8-0.8c-0.5-0.3-1-0.6-1.5-1c-0.7,0.9-1.8,1.5-3,1.9
	c-1.2,0.4-2.4,0.6-3.7,0.6h-0.2c-0.5,0-1-0.3-1.1-0.7c-0.3-0.6-0.4-1.2-0.4-1.8c0-0.6,0.1-1.2,0.4-1.8c0.2-0.4,0.6-0.7,1.1-0.7H81
	c0.8,0,1.6-0.1,2.3-0.4c0.6-0.3,1.1-0.6,1.5-1c0.4-0.4,0.8-0.9,1-1.4c0.3-0.5,0.5-1,0.8-1.5c0.4-0.7,0.8-1.4,1.3-2
	c0.5-0.6,1-1.2,1.6-1.7c0.6-0.5,1.4-0.9,2.2-1.1c0.9-0.3,1.9-0.4,2.8-0.4c1.3,0,2.6,0.2,3.7,0.7c1,0.5,1.9,1.1,2.7,1.9
	c0.7,0.8,1.3,1.6,1.6,2.5c0.3,0.9,0.5,1.8,0.5,2.8c0,0.9-0.2,1.8-0.6,2.6c-0.4,0.8-0.9,1.5-1.6,2.1c-0.7,0.6-1.6,1.1-2.5,1.4
	C97.3,301.7,96.1,301.9,95,301.8z M94.4,292.2c-0.5,0-1.1,0.1-1.6,0.3c-0.5,0.2-0.9,0.4-1.3,0.7c-0.4,0.3-0.7,0.7-1,1.1
	c-0.3,0.4-0.6,0.9-0.8,1.4c0.3,0.2,0.6,0.4,1,0.6c0.4,0.2,0.8,0.3,1.2,0.4c0.5,0.1,0.9,0.2,1.4,0.3c0.6,0.1,1.2,0.1,1.7,0.1
	c0.4,0,0.8,0,1.2,0c0.4,0,0.7-0.1,1.1-0.2c0.3-0.1,0.5-0.2,0.8-0.4c0.2-0.2,0.3-0.5,0.3-0.7c0-0.3-0.1-0.6-0.2-0.9
	c-0.1-0.4-0.4-0.8-0.7-1.1c-0.3-0.4-0.8-0.7-1.2-1C95.7,292.3,95.1,292.1,94.4,292.2z M115.3,301.9c-0.8,0-1.8,0-2.9-0.1
	c-1.1-0.1-2.3-0.2-3.6-0.4l-1.2-4.9c1.6,0.2,3.1,0.3,4.4,0.4c1.3,0.1,2.5,0.1,3.5,0.1c0.8,0,1.6,0,2.4-0.2c0.5-0.1,1-0.2,1.3-0.5
	c0.3-0.2,0.5-0.5,0.6-0.8c0.1-0.4,0.1-0.7,0.1-1.1c0-0.7-0.1-1.4-0.3-2.1c-0.2-0.9-0.5-1.8-0.9-2.9c-0.4-1.1-0.8-2.2-1.3-3.3
	c-0.5-1.2-1-2.3-1.5-3.5h5.5c0.8,2,1.5,3.9,2.1,5.6c0.6,1.7,1,3.3,1.5,4.9c0.1,0.5,0.3,0.9,0.4,1.4c0.1,0.4,0.4,0.9,0.6,1.3
	c0.3,0.4,0.7,0.7,1.1,0.9c0.6,0.3,1.2,0.4,1.9,0.4v4.9h-0.7c-0.4,0-0.9,0-1.3-0.1c-0.4-0.1-0.8-0.2-1.2-0.4
	c-0.4-0.2-0.8-0.5-1.1-0.7c-0.4-0.4-0.7-0.7-0.9-1.2h-0.1c-0.5,0.5-1,0.9-1.6,1.2c-0.6,0.3-1.3,0.6-2,0.8c-0.8,0.2-1.5,0.3-2.3,0.4
	C117,301.9,116.1,301.9,115.3,301.9z M146.9,291.9c-0.6-0.3-1.2-0.6-1.9-0.8c-0.6-0.2-1.2-0.4-1.9-0.6c-0.7-0.1-1.4-0.3-2.1-0.3
	c-0.8-0.1-1.6-0.1-2.4-0.1c-1,0-2,0-2.9,0.1c-1,0.1-1.9,0.3-2.8,0.5v-4.5c1-0.2,2-0.4,3-0.6c1-0.1,2-0.2,3-0.2c1,0,2,0.1,3,0.3
	c0.8,0.2,1.7,0.4,2.5,0.6c0.7,0.3,1.5,0.5,2.2,0.9c0.7,0.3,1.4,0.6,2.1,0.9c0.4,0.1,0.7,0.3,1.1,0.4c0.4,0.1,0.9,0.2,1.3,0.3
	c0.5,0.1,1,0.1,1.6,0.2c0.6,0,1.2,0.1,1.9,0.1l-1.1,5.2c-0.6,0.1-1.3,0.4-1.8,0.6c-0.7,0.3-1.4,0.6-2.1,1c0,0.2,0.1,0.4,0.3,0.5
	c0.1,0.1,0.3,0.2,0.5,0.3c0.3,0.1,0.5,0.1,0.8,0.1c0.3,0,0.8,0,1.3,0h2.9v4.9h-1.4c-1.1,0-2.2-0.1-3.2-0.3c-0.8-0.2-1.5-0.5-2.1-0.9
	c-0.5-0.4-1-0.8-1.3-1.4c-0.3-0.6-0.5-1.2-0.7-1.8c-1,0.5-2.1,1-3.3,1.5c-1.2,0.5-2.5,1-3.8,1.4c-1.4,0.4-2.9,0.8-4.4,1
	c-1.7,0.3-3.4,0.4-5.1,0.4h-0.9c-0.5,0-1-0.3-1.1-0.7c-0.3-0.6-0.4-1.2-0.4-1.8c0-0.6,0.1-1.2,0.4-1.8c0.2-0.4,0.6-0.7,1.1-0.7h1.1
	c1.6,0,3.2-0.1,4.8-0.4c1.5-0.3,2.9-0.6,4.3-1.1c1.3-0.5,2.6-1,3.9-1.6c1.2-0.6,2.4-1.2,3.6-1.8L146.9,291.9z M144.7,282.8h-5.1V279
	h5.1V282.8z M158,301.8h-2.9c-0.5,0-1-0.3-1.1-0.7c-0.3-0.6-0.4-1.2-0.4-1.8c0-0.6,0.1-1.2,0.4-1.8c0.2-0.4,0.6-0.7,1.1-0.7h3.1
	c0.6,0,1.1,0,1.5-0.1c0.4,0,0.8-0.1,1.1-0.3c0.3-0.2,0.5-0.4,0.6-0.7c0.2-0.4,0.2-0.9,0.2-1.3V286h4.6v8.7c0,1.2-0.2,2.4-0.7,3.6
	c-0.4,0.8-1,1.6-1.8,2.2c-0.8,0.5-1.7,0.9-2.6,1.1C160.1,301.7,159.1,301.8,158,301.8z M166.2,307.9H161v-3.8h5.1V307.9z
	 M206.4,291.6c0.2,0.8,0.3,1.5,0.4,2.1c0.1,0.6,0.2,1.2,0.3,1.7c0,0.2,0.1,0.4,0.2,0.5c0.1,0.2,0.3,0.4,0.6,0.5
	c0.4,0.2,0.8,0.3,1.2,0.4c0.7,0.1,1.3,0.2,2,0.1v4.9h-0.7c-0.4,0-0.7,0-1.1-0.1c-0.3,0-0.5-0.1-0.8-0.2c-0.2-0.1-0.4-0.2-0.6-0.3
	c-0.2-0.1-0.4-0.2-0.5-0.4l-0.2,0.1c-0.1,1.4-0.5,2.9-1,4.2c-0.5,1.2-1.3,2.2-2.3,3.1c-1,0.9-2.3,1.5-3.7,1.9
	c-1.7,0.5-3.5,0.7-5.3,0.6c-1.7,0-3.4-0.2-5-0.6c-1.3-0.4-2.4-1-3.3-1.9c-0.9-0.9-1.5-1.9-1.9-3.1c-0.4-1.4-0.6-2.8-0.6-4.2
	c0-0.4,0-0.8,0-1.3s0.1-0.9,0.1-1.4c0.1-0.5,0.2-1,0.3-1.5c0.1-0.5,0.2-1.1,0.4-1.8h4.5c-0.1,0.7-0.3,1.4-0.4,2
	c-0.1,0.6-0.2,1.1-0.2,1.5c-0.1,0.4-0.1,0.8-0.1,1.2s0,0.7,0,1c0,0.8,0.1,1.6,0.3,2.3c0.2,0.6,0.5,1.2,1,1.6c0.5,0.5,1.2,0.8,1.9,1
	c1,0.2,2.1,0.3,3.1,0.3c1.2,0,2.5-0.1,3.6-0.4c0.9-0.2,1.7-0.7,2.3-1.3c0.6-0.7,1-1.5,1.2-2.3c0.3-1.1,0.4-2.3,0.3-3.4
	c0-0.4,0-0.8,0-1.3s-0.1-0.9-0.1-1.5c-0.1-0.5-0.2-1.1-0.3-1.8s-0.3-1.4-0.5-2.3L206.4,291.6z M198.4,288.5h-5.1v-3.8h5.1V288.5z
	 M228.7,291.9c-0.6-0.3-1.2-0.6-1.9-0.8c-0.6-0.2-1.2-0.4-1.9-0.6c-0.7-0.1-1.4-0.3-2.1-0.3c-0.8-0.1-1.6-0.1-2.4-0.1
	c-1,0-2,0-2.9,0.1c-1,0.1-1.9,0.3-2.8,0.5v-4.5c1-0.2,2-0.4,3-0.6c1-0.1,2-0.2,3-0.2c1,0,2,0.1,3,0.3c0.8,0.2,1.7,0.4,2.5,0.6
	c0.7,0.3,1.5,0.5,2.2,0.9c0.7,0.3,1.4,0.6,2.1,0.9c0.4,0.1,0.7,0.3,1.1,0.4c0.4,0.1,0.9,0.2,1.3,0.3c0.5,0.1,1,0.1,1.6,0.2
	c0.6,0,1.2,0.1,1.9,0.1l-1.1,5.2c-0.6,0.1-1.3,0.4-1.8,0.6c-0.7,0.3-1.4,0.6-2.1,1c0,0.2,0.1,0.4,0.3,0.5c0.1,0.1,0.3,0.2,0.5,0.3
	c0.3,0.1,0.5,0.1,0.8,0.1c0.3,0,0.8,0,1.3,0h2.9v4.9h-1.4c-1.1,0-2.2-0.1-3.2-0.3c-0.8-0.2-1.5-0.5-2.1-0.9c-0.5-0.4-1-0.8-1.3-1.4
	c-0.3-0.6-0.5-1.2-0.7-1.8c-1,0.5-2.1,1-3.3,1.5c-1.2,0.5-2.5,1-3.8,1.4c-1.4,0.4-2.9,0.8-4.4,1c-1.7,0.3-3.4,0.4-5.1,0.4H211
	c-0.5,0-1-0.3-1.1-0.7c-0.3-0.6-0.4-1.2-0.4-1.8c0-0.6,0.1-1.2,0.4-1.8c0.2-0.4,0.6-0.7,1.1-0.7h1.1c1.6,0,3.2-0.1,4.8-0.4
	c1.5-0.3,2.9-0.6,4.3-1.1c1.3-0.5,2.6-1,3.9-1.6c1.2-0.6,2.4-1.2,3.6-1.8L228.7,291.9z M239.9,301.8H237c-0.5,0-1-0.3-1.1-0.7
	c-0.3-0.6-0.4-1.2-0.4-1.8c0-0.6,0.1-1.2,0.4-1.8c0.2-0.4,0.6-0.7,1.1-0.7h3.1c0.6,0,1.1,0,1.5-0.1c0.4,0,0.8-0.1,1.1-0.3
	c0.3-0.2,0.5-0.4,0.6-0.7c0.2-0.4,0.2-0.9,0.2-1.3V286h4.6v8.7c0,1.2-0.2,2.4-0.7,3.6c-0.4,0.8-1,1.6-1.8,2.2
	c-0.8,0.5-1.7,0.9-2.6,1.1C242,301.7,240.9,301.8,239.9,301.8z M248.4,282.4h-5.1v-3.8h5.1V282.4z M308,294.5
	c0.1,0.4,0.2,0.7,0.3,1.1c0.1,0.3,0.2,0.5,0.4,0.8c0.2,0.2,0.5,0.4,0.8,0.5c0.5,0.1,0.9,0.2,1.4,0.2v4.9h-0.5
	c-0.8,0-1.7-0.1-2.4-0.4c-0.7-0.3-1.3-0.8-1.7-1.4h-0.1c-0.6,0.6-1.3,1.1-2.2,1.4c-0.9,0.3-1.9,0.5-2.8,0.5c-0.7,0-1.4-0.1-2.1-0.2
	c-0.7-0.1-1.4-0.3-2.1-0.4s-1.4-0.3-2-0.4c-0.6-0.1-1.2-0.2-1.8-0.2c-0.5,0-0.9,0.1-1.3,0.2c-0.3,0.1-0.6,0.3-0.8,0.5
	c-0.2,0.3-0.3,0.5-0.4,0.8c-0.1,0.4-0.1,0.7-0.1,1.1c0,0.3,0,0.8,0.1,1.3s0.1,1.1,0.3,1.7c0.1,0.6,0.3,1.3,0.5,2
	c0.2,0.7,0.5,1.5,0.8,2.3h-4.9c-0.4-1.5-0.8-2.9-1-4.1c-0.2-1.1-0.3-2.1-0.4-3.2c0-0.9,0.1-1.8,0.4-2.6c0.2-0.7,0.6-1.4,1.1-2
	c0.5-0.6,1.1-1.1,1.7-1.5c0.7-0.4,1.5-0.7,2.3-0.8c0.3-1.2,0.7-2.4,1.2-3.5c0.4-0.9,0.9-1.7,1.5-2.5c0.5-0.6,1-1.2,1.7-1.7
	c0.5-0.4,1-0.8,1.6-1.1c0.5-0.2,1-0.4,1.5-0.5c0.4-0.1,0.8-0.1,1.2-0.1c1.1,0,2.1,0.2,3,0.7c0.9,0.5,1.7,1.1,2.4,1.8
	c0.7,0.7,1.3,1.6,1.7,2.4C307.5,292.7,307.8,293.6,308,294.5L308,294.5z M301.2,297.2c0.3,0,0.6,0,0.8-0.1c0.3,0,0.5-0.1,0.7-0.2
	c0.2-0.1,0.4-0.2,0.5-0.4c0.1-0.2,0.2-0.5,0.2-0.7c0-0.4-0.1-0.8-0.3-1.1c-0.2-0.5-0.4-0.9-0.8-1.4c-0.3-0.4-0.7-0.8-1.2-1.1
	c-0.4-0.3-1-0.5-1.6-0.5c-0.5,0-1,0.1-1.4,0.4c-0.4,0.3-0.8,0.6-1.1,1c-0.4,0.5-0.7,1-0.9,1.5c-0.3,0.6-0.5,1.2-0.8,1.8
	c1,0.1,1.9,0.3,2.9,0.5C299.3,297.1,300.2,297.2,301.2,297.2z M335.5,301.8c-1.9,0-3.7-0.2-5.5-0.6c-1.6-0.4-3.2-1.1-4.5-1.9h-0.1
	c-1.6,0.8-3.3,1.5-5.1,1.9c-2.1,0.5-4.3,0.7-6.6,0.7h-2c-0.5,0-1-0.3-1.1-0.7c-0.3-0.6-0.4-1.2-0.4-1.8c0-0.6,0.1-1.2,0.4-1.8
	c0.2-0.4,0.6-0.7,1.1-0.7h2.2c1.3,0,2.5-0.1,3.8-0.2c1-0.1,2.1-0.3,3-0.6c-0.6-0.5-1.2-0.9-1.8-1.4c-0.6-0.5-1.1-1-1.6-1.5
	c-0.5-0.5-1-1-1.6-1.6c-0.5-0.6-1-1.1-1.5-1.8v-4.6c0.7-0.1,1.5-0.2,2.4-0.4c0.9-0.1,1.8-0.2,2.7-0.4c0.9-0.1,1.9-0.2,2.8-0.3
	c0.9-0.1,1.8-0.1,2.7-0.1c0.6,0,1.2,0,1.8,0.1c0.6,0,1.3,0.1,1.9,0.3c0.6,0.1,1.2,0.3,1.8,0.5c0.5,0.2,1,0.5,1.5,0.9
	c0.4,0.4,0.8,0.8,1,1.3c0.3,0.5,0.4,1.1,0.4,1.7c0,0.5-0.1,1.1-0.2,1.6c-0.1,0.6-0.4,1.2-0.6,1.8c-0.3,0.6-0.6,1.3-1,1.9
	c-0.4,0.6-0.9,1.2-1.4,1.8c1,0.3,2.1,0.6,3.2,0.7c1.2,0.2,2.5,0.3,3.8,0.2v4.9L335.5,301.8z M325.6,294c0.5-0.3,0.9-0.7,1.3-1.1
	c0.4-0.4,0.7-0.7,1-1.1c0.2-0.3,0.5-0.7,0.6-1c0.1-0.3,0.2-0.5,0.2-0.8c0-0.5-0.4-0.9-1-1c-0.9-0.2-1.9-0.3-2.8-0.3
	c-0.8,0-1.7,0-2.7,0.1c-1,0.1-1.8,0.2-2.7,0.3v0.1c0.8,0.9,1.7,1.8,2.7,2.6C323.2,292.6,324.3,293.3,325.6,294L325.6,294z
	 M339.9,301.8H337c-0.5,0-1-0.3-1.1-0.7c-0.3-0.6-0.4-1.2-0.4-1.8c0-0.6,0.1-1.2,0.4-1.8c0.2-0.4,0.6-0.7,1.1-0.7h3.1
	c0.6,0,1.1,0,1.5-0.1c0.4,0,0.8-0.1,1.1-0.3c0.3-0.2,0.5-0.4,0.6-0.7c0.2-0.4,0.2-0.9,0.2-1.3V286h4.6v8.7c0,1.2-0.2,2.4-0.7,3.6
	c-0.4,0.8-1,1.6-1.8,2.2c-0.8,0.5-1.7,0.9-2.6,1.1C342,301.7,340.9,301.8,339.9,301.8z M348.4,282.4h-5.1v-3.8h5.1V282.4z"/>
</svg>
