<?xml version="1.0" encoding="utf-8"?>
<!-- Generator: Adobe Illustrator 18.0.0, SVG Export Plug-In . SVG Version: 6.00 Build 0)  -->
<!DOCTYPE svg PUBLIC "-//W3C//DTD SVG 1.1//EN" "http://www.w3.org/Graphics/SVG/1.1/DTD/svg11.dtd" [
	<!ENTITY ns_extend "http://ns.adobe.com/Extensibility/1.0/">
	<!ENTITY ns_ai "http://ns.adobe.com/AdobeIllustrator/10.0/">
	<!ENTITY ns_graphs "http://ns.adobe.com/Graphs/1.0/">
	<!ENTITY ns_vars "http://ns.adobe.com/Variables/1.0/">
	<!ENTITY ns_imrep "http://ns.adobe.com/ImageReplacement/1.0/">
	<!ENTITY ns_sfw "http://ns.adobe.com/SaveForWeb/1.0/">
	<!ENTITY ns_custom "http://ns.adobe.com/GenericCustomNamespace/1.0/">
	<!ENTITY ns_adobe_xpath "http://ns.adobe.com/XPath/1.0/">
]>
<svg version="1.1" id="Layer_1" xmlns:x="&ns_extend;" xmlns:i="&ns_ai;" xmlns:graph="&ns_graphs;"
	 xmlns="http://www.w3.org/2000/svg" xmlns:xlink="http://www.w3.org/1999/xlink" x="0px" y="0px" viewBox="0 0 960 560"
	 enable-background="new 0 0 960 560" xml:space="preserve">
<metadata>
	<sfw  xmlns="&ns_sfw;">
		<slices></slices>
		<sliceSourceBounds  height="539.6" width="960" y="10.2" x="0" bottomLeftOrigin="true"></sliceSourceBounds>
	</sfw>
</metadata>
<rect id="Rectangle_2_2_" y="10.2" fill="#FFFFFF" width="960" height="539.6"/>
<g id="Group_1_2_" opacity="0.58">
	<path id="Path_2_2_" fill="#072986" d="M0,453.2c7.6,0,14.9,2.1,21.5,6.3c16,10.1,19.5,29.5,7.3,43.4c-6.9,8-18.1,12.5-28.8,12.5
		C0,515.4,0,453.2,0,453.2z"/>
	<path id="Path_3_2_" fill="#072986" d="M143.5,32.1c43.1,19.1,53.5,53.9,62.9,83.7c6.9,21.9,27.1,38.2,51.8,46.6
		c54.9,18.1,101.1,55.2,123,107c35.8,84.4-4.9,187.3-98.3,228.6c-83.7,36.8-165.7,30.2-221-18.8C39.3,459.1,23.3,445.6,0,440.3V56.1
		c1.4-1,2.8-2.1,4.2-3.1C38.6,25.8,95.2,10.2,143.5,32.1z"/>
</g>
<g id="Group_114" transform="translate(6.051 157.795)">
	<g id="Group_62">
		<g id="Group_52">
			<path id="Path_1069" fill="#FFFFFF" d="M627.9,302.6l-58.7-33.1l83-46.6l58.7,33.1L627.9,302.6z"/>
			<path id="Path_1070" fill="#BFCDF2" d="M677.5,245.8l-25.9-14.8l-1.6,1l25.9,14.8L677.5,245.8z"/>
			<g id="Group_50">
				<path id="Path_1071" fill="#BFCDF2" d="M660.4,248.5l-19.7-11.1l-1.6,1l19.7,11.1L660.4,248.5z"/>
				<path id="Path_1072" fill="#BFCDF2" d="M657.4,250.1L637.8,239l-1.6,1l19.7,11.1L657.4,250.1z"/>
				<path id="Path_1073" fill="#BFCDF2" d="M654.5,252.1l-19.7-11.1l-1.6,1l19.7,11.1L654.5,252.1z"/>
				<path id="Path_1074" fill="#BFCDF2" d="M651.5,253.7l-19.7-11.1l-1.6,1l19.7,11.1L651.5,253.7z"/>
				<path id="Path_1075" fill="#BFCDF2" d="M648.6,255.3l-19.7-11.1l-1.6,1l19.7,11.1L648.6,255.3z"/>
				<path id="Path_1076" fill="#BFCDF2" d="M645.6,257L626,245.8l-1.6,1L644,258L645.6,257z"/>
				<path id="Path_1077" fill="#BFCDF2" d="M642.7,258.6L623,247.5l-1.6,1l19.7,11.1L642.7,258.6z"/>
				<path id="Path_1078" fill="#BFCDF2" d="M639.7,260.3l-19.7-11.1l-1.6,1l19.7,11.1L639.7,260.3z"/>
				<path id="Path_1079" fill="#BFCDF2" d="M636.8,261.9l-19.7-11.1l-1.6,1l19.7,11.1L636.8,261.9z"/>
				<path id="Path_1080" fill="#BFCDF2" d="M633.8,263.5l-19.7-11.1l-1.6,1l19.7,11.1L633.8,263.5z"/>
				<path id="Path_1081" fill="#BFCDF2" d="M630.9,265.2L611.2,254l-1.6,1l19.7,11.1L630.9,265.2z"/>
				<path id="Path_1082" fill="#BFCDF2" d="M627.6,266.8l-19.7-11.1l-1.6,1l19.7,11.1L627.6,266.8z"/>
				<path id="Path_1083" fill="#BFCDF2" d="M625,268.8l-19.7-11.1l-1.6,1l19.7,11.1L625,268.8z"/>
				<path id="Path_1084" fill="#BFCDF2" d="M622,270.4l-19.7-11.1l-1.6,1l19.7,11.1L622,270.4z"/>
				<path id="Path_1085" fill="#BFCDF2" d="M618.8,272.1l-19.7-11.1l-1.6,1l19.7,11.1L618.8,272.1z"/>
				<path id="Path_1086" fill="#BFCDF2" d="M616.1,273.7l-19.7-11.1l-1.6,1l19.7,11.1L616.1,273.7z"/>
				<path id="Path_1087" fill="#BFCDF2" d="M612.8,275.4l-19.7-11.1l-1.6,1l19.7,11.1L612.8,275.4z"/>
				<path id="Path_1088" fill="#BFCDF2" d="M609.9,277l-19.7-11.1l-1.6,1l19.7,11.1L609.9,277z"/>
				<path id="Path_1089" fill="#BFCDF2" d="M606.9,278.6l-19.7-11.1l-1.6,1l19.7,11.1L606.9,278.6z"/>
			</g>
			<g id="Group_51">
				<path id="Path_1090" fill="#BFCDF2" d="M684.3,262.2l-19.7-11.1l-1.6,1l19.7,11.1L684.3,262.2z"/>
				<path id="Path_1091" fill="#BFCDF2" d="M681.7,263.9L662,252.7l-1.6,1l19.7,11.1L681.7,263.9z"/>
				<path id="Path_1092" fill="#BFCDF2" d="M678.4,265.5l-19.7-11.1l-1.6,1l19.7,11.1L678.4,265.5z"/>
				<path id="Path_1093" fill="#BFCDF2" d="M675.5,267.2L655.8,256l-1.6,1l19.7,11.1L675.5,267.2z"/>
				<path id="Path_1094" fill="#BFCDF2" d="M672.5,268.8l-19.7-11.1l-1.6,1l19.7,11.1L672.5,268.8z"/>
				<path id="Path_1095" fill="#BFCDF2" d="M669.6,270.4l-19.7-11.1l-1.6,1l19.7,11.1L669.6,270.4z"/>
				<path id="Path_1096" fill="#BFCDF2" d="M666.6,272.1L647,260.9l-1.6,1l19.7,11.1L666.6,272.1z"/>
				<path id="Path_1097" fill="#BFCDF2" d="M663.7,273.7L644,262.6l-1.6,1l19.7,11.1L663.7,273.7z"/>
				<path id="Path_1098" fill="#BFCDF2" d="M660.7,275.7l-19.7-11.1l-1.6,1l19.7,11.1L660.7,275.7z"/>
				<path id="Path_1099" fill="#BFCDF2" d="M657.8,277.3l-19.7-11.1l-1.6,1l19.7,11.1L657.8,277.3z"/>
				<path id="Path_1100" fill="#BFCDF2" d="M654.8,279l-19.7-11.1l-1.6,1l19.7,11.1L654.8,279z"/>
				<path id="Path_1101" fill="#BFCDF2" d="M651.9,280.6l-19.7-11.1l-1.6,1l19.7,11.1L651.9,280.6z"/>
				<path id="Path_1102" fill="#BFCDF2" d="M648.9,282.2l-19.7-11.1l-1.6,1l19.7,11.1L648.9,282.2z"/>
				<path id="Path_1103" fill="#BFCDF2" d="M646,283.9l-19.7-11.1l-1.6,1l19.7,11.1L646,283.9z"/>
				<path id="Path_1104" fill="#BFCDF2" d="M643,285.5l-19.7-11.1l-1.6,1l19.7,11.1L643,285.5z"/>
				<path id="Path_1105" fill="#BFCDF2" d="M640.1,287.2L620.4,276l-1.6,1l19.7,11.1L640.1,287.2z"/>
				<path id="Path_1106" fill="#BFCDF2" d="M637.1,288.8l-19.7-11.1l-1.6,1l19.7,11.1L637.1,288.8z"/>
				<path id="Path_1107" fill="#BFCDF2" d="M634.2,290.4l-19.7-11.1l-1.6,1l19.7,11.1L634.2,290.4z"/>
				<path id="Path_1108" fill="#BFCDF2" d="M631.2,292.4l-19.7-11.1l-1.6,1l19.7,11.1L631.2,292.4z"/>
			</g>
		</g>
		<g id="Group_59">
			<path id="Path_1109" fill="#FFFFFF" d="M552.5,301.9l-58.7-33.1l83-46.9l58.7,33.1L552.5,301.9z"/>
			<g id="Group_53">
				<path id="Path_1110" fill="#BFCDF2" d="M510.5,270.4l-2.6-1.6l37.7-21.3l2.6,1.6L510.5,270.4z"/>
				<path id="Path_1111" fill="#BFCDF2" d="M514.5,272.7l-2.6-1.6l23.6-13.1l2.6,1.6L514.5,272.7z"/>
				<path id="Path_1112" fill="#BFCDF2" d="M518.4,274.7l-2.6-1.6l48.9-27.5l2.6,1.6L518.4,274.7z"/>
				<path id="Path_1113" fill="#BFCDF2" d="M522,277l-2.6-1.6l35.7-20.3l2.6,1.6L522,277z"/>
			</g>
			<g id="Group_54">
				<path id="Path_1114" fill="#50DEC6" d="M510.5,270.4l-2.6-1.6l31.5-17.7l2.6,1.6L510.5,270.4z"/>
				<path id="Path_1115" fill="#FF5C98" d="M514.5,272.7l-2.6-1.6l17.4-9.8l2.6,1.6L514.5,272.7z"/>
				<path id="Path_1116" fill="#4367C7" d="M518.4,274.7l-2.6-1.6l39.7-22.3l2.6,1.6L518.4,274.7z"/>
				<path id="Path_1117" fill="#5986FF" d="M522,277l-2.6-1.6l26.2-14.8l2.6,1.6L522,277z"/>
			</g>
			<g id="Group_55">
				<path id="Path_1118" fill="#BFCDF2" d="M526.3,279.3l-2.6-1.6l31.5-17.7l2.6,1.6L526.3,279.3z"/>
				<path id="Path_1119" fill="#BFCDF2" d="M529.9,281.3l-2.6-1.6l17.4-9.8l2.6,1.6L529.9,281.3z"/>
				<path id="Path_1120" fill="#BFCDF2" d="M533.8,283.6l-2.6-1.6l39.7-22.3l2.6,1.6L533.8,283.6z"/>
				<path id="Path_1121" fill="#BFCDF2" d="M537.8,285.8l-2.6-1.6l26.2-14.8l2.6,1.6L537.8,285.8z"/>
			</g>
			<g id="Group_56">
				<path id="Path_1122" fill="#50DEC6" d="M526.3,279.3l-2.6-1.6l23-13.1l2.6,1.6L526.3,279.3z"/>
				<path id="Path_1123" fill="#FF5C98" d="M529.9,281.3l-2.6-1.6l12.8-7.2l2.6,2L529.9,281.3z"/>
				<path id="Path_1124" fill="#4367C7" d="M533.8,283.6l-2.6-1.6l29.2-16.4l2.6,1.6L533.8,283.6z"/>
				<path id="Path_1125" fill="#5986FF" d="M537.8,285.8l-2.6-1.6l19.3-10.8l2.6,1.6L537.8,285.8z"/>
			</g>
			<g id="Group_57">
				<path id="Path_1126" fill="#BFCDF2" d="M541.7,288.1l-2.6-1.6l41.3-23.3l2.6,1.6L541.7,288.1z"/>
				<path id="Path_1127" fill="#BFCDF2" d="M545.6,290.1l-2.6-1.6l26.9-15.1l2.6,1.6L545.6,290.1z"/>
				<path id="Path_1128" fill="#BFCDF2" d="M549.6,292.4l-2.6-1.6l48.9-27.5l2.6,1.3L549.6,292.4z"/>
				<path id="Path_1129" fill="#BFCDF2" d="M553.2,294.4l-2.6-1.6l41-23.3l2.6,1.6L553.2,294.4z"/>
			</g>
			<g id="Group_58">
				<path id="Path_1130" fill="#50DEC6" d="M541.7,288.1l-2.6-1.6l31.5-17.7l2.6,1.6L541.7,288.1z"/>
				<path id="Path_1131" fill="#FF5C98" d="M545.6,290.1l-2.6-1.6l17.4-9.8l2.6,1.6L545.6,290.1z"/>
				<path id="Path_1132" fill="#4367C7" d="M549.6,292.4l-2.6-1.6l39.7-22.3l2.6,1.6L549.6,292.4z"/>
				<path id="Path_1133" fill="#5986FF" d="M553.2,294.4l-2.6-1.6l26.2-14.8l2.6,1.6L553.2,294.4z"/>
			</g>
			<path id="Path_1134" fill="#BFCDF2" d="M602,245.2l-25.9-14.8l-1.6,1l25.9,14.8L602,245.2z"/>
			<path id="Path_1135" fill="#BFCDF2" d="M615.5,258L571.5,233l-1.6,1l43.9,24.9L615.5,258z"/>
			<path id="Path_1136" fill="#BFCDF2" d="M612.2,259.9L568.2,235l-1.6,1l43.9,24.9L612.2,259.9z"/>
			<path id="Path_1137" fill="#BFCDF2" d="M609.2,261.3l-43.6-24.6l-1.6,1l43.9,24.9L609.2,261.3z"/>
		</g>
		<path id="Path_1138" fill="#ABC2FF" d="M498.7,243.9c-8.5,4.9-22.6,4.9-31.5,0c-8.9-4.9-8.5-12.8,0-17.7c7.2-3.9,18-4.6,26.6-2.3
			l-4.6,2.6l21.6,1.3l-2.6-12.1l-6.6,3.6c-12.8-4.9-30.8-4.3-42.3,2.3c-13.1,7.2-13.1,19.3,0,26.6c13.1,7.2,34.1,7.2,46.9,0
			L498.7,243.9z"/>
		
			<linearGradient id="Path_1139_1_" gradientUnits="userSpaceOnUse" x1="348.095" y1="-765.0113" x2="348.4087" y2="-765.0113" gradientTransform="matrix(482.9446 0 0 485.0676 -167369.6406 371176.8438)">
			<stop  offset="0" style="stop-color:#FFFFFF"/>
			<stop  offset="1" style="stop-color:#5986FF"/>
		</linearGradient>
		<path id="Path_1139" fill="url(#Path_1139_1_)" d="M784.7,53.7c-9.8-6.2-19.3-6.9-27.5-5.9c-8.2,1-15.7,4.3-23.9,5.6
			c-9.5,1.6-19.7-0.7-27.5-5.9c-6.6-4.3-12.8-11.1-17.4-18.7v57.7l131.2,74.1V86.1c-2.3-2-4.6-3.9-6.6-5.9
			C803.7,70.7,794.9,59.9,784.7,53.7z"/>
		
			<linearGradient id="Path_1140_1_" gradientUnits="userSpaceOnUse" x1="348.0952" y1="-765.1766" x2="348.4089" y2="-765.1766" gradientTransform="matrix(482.9446 0 0 485.0606 -167369.7344 371281.2188)">
			<stop  offset="0" style="stop-color:#FFFFFF"/>
			<stop  offset="1" style="stop-color:#E02066"/>
		</linearGradient>
		<path id="Path_1140" fill="url(#Path_1140_1_)" d="M784.7,83.5c-9.8-6.2-19.3-6.9-27.5-5.9c-8.2,1.3-15.7,4.3-23.9,5.2
			c-9.5,1.6-19.7-0.7-27.5-5.9c-6.6-4.3-12.8-11.1-17.4-18.7V116l131.2,74.1V116c-2.3-2-4.6-3.9-6.6-5.9
			C803.7,100.6,794.9,89.7,784.7,83.5z"/>
		<g id="Group_60">
			<path id="Path_1141" fill="#ABC2FF" d="M689.9,116.6l-1-0.7V-30.6l1,0.7V116.6z"/>
			<path id="Path_1142" fill="#ABC2FF" d="M706,125.8l-1-0.7V-21.8l1,0.7V125.8z"/>
			<path id="Path_1143" fill="#ABC2FF" d="M722.4,135l-1-0.7V-12.6l1,0.7V135z"/>
			<path id="Path_1144" fill="#ABC2FF" d="M738.4,144.2l-1-0.7V-3.4l1,0.7V144.2z"/>
			<path id="Path_1145" fill="#ABC2FF" d="M754.8,153.4l-1-0.7V5.8l1,0.7V153.4z"/>
			<path id="Path_1146" fill="#ABC2FF" d="M771.2,162.5l-1-0.7V15.3l1,0.7V162.5z"/>
			<path id="Path_1147" fill="#ABC2FF" d="M787.3,171.7l-1-0.7V24.2l1,0.7V171.7z"/>
			<path id="Path_1148" fill="#ABC2FF" d="M803.7,180.9l-1-0.7V33.3l1,0.7V180.9z"/>
			<path id="Path_1149" fill="#ABC2FF" d="M819.8,190.1l-1-0.7V42.5l1,0.7V190.1z"/>
			<path id="Path_1150" fill="#ABC2FF" d="M689.3-29.6v-1.3l130.2,73.5v1.3L689.3-29.6z"/>
			<path id="Path_1151" fill="#ABC2FF" d="M689.3-11.3v-1.3l130.2,73.5v1.3L689.3-11.3z"/>
			<path id="Path_1152" fill="#ABC2FF" d="M689.3,7.1V5.8l130.2,73.5v1.3L689.3,7.1z"/>
			<path id="Path_1153" fill="#ABC2FF" d="M689.3,25.1v-1.3l130.2,73.5v1.3L689.3,25.1z"/>
			<path id="Path_1154" fill="#ABC2FF" d="M689.3,43.5v-1.3l130.2,73.5v1.3L689.3,43.5z"/>
			<path id="Path_1155" fill="#ABC2FF" d="M689.3,61.9v-1.3L819.4,134v1.3L689.3,61.9z"/>
			<path id="Path_1156" fill="#ABC2FF" d="M689.3,80.2v-1.3l130.2,73.5v1.3L689.3,80.2z"/>
			<path id="Path_1157" fill="#ABC2FF" d="M689.3,98.6v-1.3l130.2,73.5v1.3L689.3,98.6z"/>
			<path id="Path_1158" fill="#ABC2FF" d="M689.3,117v-1.3l130.2,73.5v1.3L689.3,117z"/>
		</g>
		<path id="Path_1159" fill="#ABC2FF" d="M771.9,276.7l3-22.3l-39.7,1.6l8.5,4.9L684.3,294l19.7,11.1l59.4-33.4L771.9,276.7z"/>
		<path id="Path_1160" fill="#ABC2FF" d="M710.6,31.4L691.9-3.4l-18.7,13.8l8.9,4.9v67.6L702,94V26.4L710.6,31.4z"/>
		<g id="Group_61">
			<path id="Path_1161" fill="#2D4483" d="M727,46.1c0-1.3,1-2,2.3-1.3c1.3,1,2.3,2.3,2.3,3.9c0,1.3-1,2-2.3,1.3
				C728,49.1,727.3,47.8,727,46.1z"/>
			<path id="Path_1162" fill="#2D4483" d="M719.1,4.5c0-1.3,1-2,2.3-1.3c1.3,1,2.3,2.3,2.3,3.9c0,1.3-1,2-2.3,1.3
				C719.8,7.4,719.1,5.8,719.1,4.5z"/>
			<path id="Path_1163" fill="#2D4483" d="M768.3,34c0-1.3,1-2,2.3-1.3c1.3,1,2.3,2.3,2.3,3.9c0,1.3-1,2-2.3,1.3
				C769.3,36.9,768.3,35.3,768.3,34z"/>
			<path id="Path_1164" fill="#2D4483" d="M799.8,105.8c0-1.3,1-2,2.3-1.3c1.3,1,2.3,2.3,2.3,3.9c0,1.3-1,2-2.3,1.3
				C800.8,109.1,799.8,107.4,799.8,105.8z"/>
			<path id="Path_1165" fill="none" stroke="#2D4483" stroke-miterlimit="10" d="M721.1,5.5l8.2,41.6L770.6,34l31.5,72.8"/>
		</g>
	</g>
	<g id="Group_113">
		<g id="Group_72">
			<g id="Group_65">
				<g id="Group_63">
					<path id="Path_1166" fill="#4B71D6" d="M579.7,110.7v73.5l-12.5,7.2v-73.5L579.7,110.7z"/>
					<path id="Path_1167" fill="#5986FF" d="M567.3,117.6v73.5l-12.8-7.2v-73.5L567.3,117.6z"/>
					<path id="Path_1168" fill="#759BFF" d="M579.7,110.7l-12.5,7.2l-12.8-7.2l12.5-7.2L579.7,110.7z"/>
				</g>
				<g id="Group_64">
					<path id="Path_1169" fill="#2D4483" d="M580.1,101.9v8.9l-12.5,7.2v-8.9L580.1,101.9z"/>
					<path id="Path_1170" fill="#3753A1" d="M567.3,108.8v8.9l-12.8-7.2v-8.9L567.3,108.8z"/>
					<path id="Path_1171" fill="#4264C2" d="M580.1,101.9l-12.5,7.2l-12.8-7.2l12.5-7.2L580.1,101.9z"/>
				</g>
			</g>
			<g id="Group_68">
				<g id="Group_66">
					<path id="Path_1172" fill="#4B71D6" d="M609.2,125.5v42l-12.5,7.2v-42L609.2,125.5z"/>
					<path id="Path_1173" fill="#5986FF" d="M596.8,132.7v42l-12.8-7.2v-42L596.8,132.7z"/>
					<path id="Path_1174" fill="#759BFF" d="M609.2,125.5l-12.5,7.2l-12.8-7.2l12.5-7.2L609.2,125.5z"/>
				</g>
				<g id="Group_67">
					<path id="Path_1175" fill="#3DCCB4" d="M609.2,110.4v15.1l-12.5,7.2v-15.1L609.2,110.4z"/>
					<path id="Path_1176" fill="#50DEC6" d="M596.8,117.6v15.1l-12.8-7.2v-15.1L596.8,117.6z"/>
					<path id="Path_1177" fill="#78F0DB" d="M609.2,110.4l-12.5,7.2l-12.8-7.2l12.5-7.2L609.2,110.4z"/>
				</g>
			</g>
			<g id="Group_71">
				<g id="Group_69">
					<path id="Path_1178" fill="#4B71D6" d="M638.8,88.4v63l-12.5,7.2v-63L638.8,88.4z"/>
					<path id="Path_1179" fill="#5986FF" d="M626,95.3v63l-12.8-7.2v-63L626,95.3z"/>
					<path id="Path_1180" fill="#759BFF" d="M638.8,88.4l-12.5,7.2l-12.8-7.2l12.5-7.2L638.8,88.4z"/>
				</g>
				<g id="Group_70">
					<path id="Path_1181" fill="#E02066" d="M638.8,64.2v23.9l-12.5,7.2V71.4L638.8,64.2z"/>
					<path id="Path_1182" fill="#FF5C98" d="M626,71.4v23.9l-12.8-7.2V64.2L626,71.4z"/>
					<path id="Path_1183" fill="#FF82B0" d="M638.8,64.2l-12.5,7.2l-12.8-7.2l12.5-7.2L638.8,64.2z"/>
				</g>
			</g>
		</g>
		<g id="Group_79">
			<g id="Group_74">
				
					<linearGradient id="Path_1184_1_" gradientUnits="userSpaceOnUse" x1="334.2541" y1="-804.3267" x2="334.5941" y2="-803.7347" gradientTransform="matrix(132.5829 0 0 45.1158 -43549.6914 36519.0586)">
					<stop  offset="0" style="stop-color:#FFFFFF"/>
					<stop  offset="1" style="stop-color:#2D4483"/>
				</linearGradient>
				<path id="Path_1184" fill="url(#Path_1184_1_)" d="M811.2,243.9v2c0,2.6-1.6,5.2-5.2,7.2c-7.2,3.9-18.4,3.9-25.6,0
					c-3.6-2-5.2-4.6-5.2-7.2v-2c0,2.6,1.6,5.2,5.2,7.2c7.2,3.9,18.4,3.9,25.6,0C809.6,248.8,811.2,246.2,811.2,243.9z"/>
				<path id="Path_1185" fill="#6EAAE6" d="M806,236.3c7.2,3.9,7.2,10.5,0,14.4c-6.9,3.9-18.4,3.9-25.6,0s-7.2-10.5,0-14.4
					C787.3,232.4,798.8,232.4,806,236.3z"/>
				<path id="Path_1186" fill="#D9E1F6" d="M803.7,237.6c5.9,3.3,5.9,8.5,0,11.8c-5.9,3.3-15.1,3.3-20.7,0c-5.6-3.3-5.9-8.5,0-11.8
					C788.6,234.4,797.8,234.4,803.7,237.6z"/>
				<g id="Group_73">
					<path id="Path_1187" fill="#6EAAE6" d="M786.3,240.3l-2-1l1.3-1l2,1c1.6-1,3.6-1.3,5.6-1.6l1,1.3c-1.6,0-3.3,0.3-4.6,1.3l3.6,2
						c2.3-1,4.9-1.6,7.2-0.3c1.6,1,2,2.6-0.3,4.3l2,1l-1.3,1l-2-1c-1.3,0.7-3,1.3-4.6,1.3l-1-1.3c1.3-0.3,2.6-0.3,3.6-1l-3.6-2
						c-2.3,1-4.9,1.6-7.2,0.3C784.4,243.5,784,241.9,786.3,240.3z M795.2,243.5l3,1.6c1-1,1-1.3,0.3-2
						C797.5,242.9,796.5,243.2,795.2,243.5L795.2,243.5z M788,243.2c1,0.3,2,0.3,3.3,0l-3-1.6C787.3,241.9,787.3,242.6,788,243.2
						L788,243.2z"/>
				</g>
			</g>
			<g id="Group_76">
				
					<linearGradient id="Path_1188_1_" gradientUnits="userSpaceOnUse" x1="334.2552" y1="-804.1193" x2="334.5954" y2="-803.5275" gradientTransform="matrix(132.5829 0 0 45.1169 -43549.6914 36507.0313)">
					<stop  offset="0" style="stop-color:#FFFFFF"/>
					<stop  offset="1" style="stop-color:#2D4483"/>
				</linearGradient>
				<path id="Path_1188" fill="url(#Path_1188_1_)" d="M811.2,240.3v2c0,2.6-1.6,5.2-5.2,7.2c-7.2,3.9-18.4,3.9-25.6,0
					c-3.6-2-5.2-4.6-5.2-7.2v-2c0,2.6,1.6,5.2,5.2,7.2c7.2,3.9,18.4,3.9,25.6,0C809.6,245.5,811.2,242.9,811.2,240.3z"/>
				<path id="Path_1189" fill="#6EAAE6" d="M806,233c7.2,3.9,7.2,10.5,0,14.4c-6.9,3.9-18.4,3.9-25.6,0c-7.2-3.9-7.2-10.5,0-14.4
					C787.3,228.8,798.8,229.1,806,233z"/>
				<path id="Path_1190" fill="#D9E1F6" d="M803.7,234.4c5.9,3.3,5.9,8.5,0,11.8c-5.9,3.3-15.1,3.3-20.7,0c-5.6-3.3-5.9-8.5,0-11.8
					C788.6,231.1,797.8,231.1,803.7,234.4z"/>
				<g id="Group_75">
					<path id="Path_1191" fill="#6EAAE6" d="M786.3,236.7l-2-1l1.3-1l2,1c1.6-1,3.6-1.3,5.6-1.6l1,1.3c-1.6,0-3.3,0.3-4.6,1.3l3.6,2
						c2.3-1,4.9-1.6,7.2-0.3c1.6,1,2,2.6-0.3,4.3l2,1l-1.3,1l-2-1c-1.3,0.7-3,1.3-4.6,1.3l-1-1.3c1.3-0.3,2.6-0.3,3.6-1l-3.6-2
						c-2.3,1-4.9,1.6-7.2,0.3C784.4,239.9,784,238.3,786.3,236.7z M795.2,239.9l3,1.6c1-1,1-1.3,0.3-2
						C797.5,239.6,796.5,239.6,795.2,239.9L795.2,239.9z M788,239.6c1,0.3,2,0.3,3.3,0l-3-1.6C787.3,238.6,787.3,239.3,788,239.6
						L788,239.6z"/>
				</g>
			</g>
			<g id="Group_78">
				
					<linearGradient id="Path_1192_1_" gradientUnits="userSpaceOnUse" x1="334.2539" y1="-803.9159" x2="334.594" y2="-803.324" gradientTransform="matrix(132.5829 0 0 45.1162 -43549.6914 36493.9063)">
					<stop  offset="0" style="stop-color:#FFFFFF"/>
					<stop  offset="1" style="stop-color:#2D4483"/>
				</linearGradient>
				<path id="Path_1192" fill="url(#Path_1192_1_)" d="M811.2,237v2c0,2.6-1.6,5.2-5.2,7.2c-7.2,3.9-18.4,3.9-25.6,0
					c-3.6-2-5.2-4.6-5.2-7.2v-2c0,2.6,1.6,5.2,5.2,7.2c7.2,3.9,18.4,3.9,25.6,0C809.6,241.9,811.2,239.3,811.2,237z"/>
				<path id="Path_1193" fill="#6EAAE6" d="M806,229.4c7.2,3.9,7.2,10.5,0,14.4c-6.9,3.9-18.4,3.9-25.6,0c-7.2-3.9-7.2-10.5,0-14.4
					C787.3,225.5,798.8,225.5,806,229.4z"/>
				<path id="Path_1194" fill="#D9E1F6" d="M803.7,230.8c5.9,3.3,5.9,8.5,0,11.8c-5.9,3.3-15.1,3.3-20.7,0c-5.6-3.3-5.9-8.5,0-11.8
					C788.6,227.5,797.8,227.5,803.7,230.8z"/>
				<g id="Group_77">
					<path id="Path_1195" fill="#6EAAE6" d="M786.3,233.4l-2-1l1.3-1l2,1c1.6-1,3.6-1.3,5.6-1.6l1,1.3c-1.6,0-3.3,0.3-4.6,1.3l3.6,2
						c2.3-1,4.9-1.6,7.2-0.3c1.6,1,2,2.6-0.3,4.3l2,1l-1.3,1l-2-1c-1.3,0.7-3,1.3-4.6,1.3l-1-1.3c1.3-0.3,2.6-0.3,3.6-1l-3.6-2
						c-2.3,1-4.9,1.6-7.2,0.3C784.4,236.3,784,235,786.3,233.4z M795.2,236.7l3.3,1.6c1-1,1-1.3,0.3-2
						C797.5,236,796.5,236.3,795.2,236.7L795.2,236.7z M788,236.3c1,0.3,2,0.3,3.3,0l-3-1.6C787.3,235,787.3,235.7,788,236.3
						L788,236.3z"/>
				</g>
			</g>
		</g>
		<g id="Group_92">
			<g id="Group_81">
				
					<linearGradient id="Path_1196_1_" gradientUnits="userSpaceOnUse" x1="340.2249" y1="-801.2016" x2="340.5649" y2="-800.6097" gradientTransform="matrix(132.5829 0 0 45.1144 -44636.2227 36324.3008)">
					<stop  offset="0" style="stop-color:#FFFFFF"/>
					<stop  offset="1" style="stop-color:#2D4483"/>
				</linearGradient>
				<path id="Path_1196" fill="url(#Path_1196_1_)" d="M516.1,191.1v2c0,2.6-1.6,5.2-5.2,7.2c-7.2,3.9-18.4,3.9-25.6,0
					c-3.6-2-5.2-4.6-5.2-7.2v-2c0,2.6,1.6,5.2,5.2,7.2c7.2,3.9,18.4,3.9,25.6,0C514.5,196.3,516.1,193.7,516.1,191.1z"/>
				<path id="Path_1197" fill="#6EAAE6" d="M510.9,183.9c7.2,3.9,7.2,10.5,0,14.4c-6.9,3.9-18.4,3.9-25.6,0
					c-7.2-3.9-7.2-10.5,0-14.4C492.5,179.9,504,179.9,510.9,183.9z"/>
				<path id="Path_1198" fill="#D9E1F6" d="M508.6,185.2c5.9,3.3,5.9,8.5,0,11.8c-5.9,3.3-15.1,3.3-20.7,0c-5.6-3.3-5.9-8.5,0-11.8
					C493.5,181.9,502.7,181.9,508.6,185.2z"/>
				<g id="Group_80">
					<path id="Path_1199" fill="#6EAAE6" d="M491.2,187.5l-2-1l1.3-1l2,1c1.6-1,3.6-1.3,5.6-1.6l1,1.3c-1.6,0-3.3,0.3-4.6,1.3l3.3,2
						c2.3-1,4.9-1.6,7.5-0.3c1.6,1,2,2.6-0.3,4.3l2,1l-1.3,1l-2-1c-1.3,0.7-3,1.3-4.6,1.3l-1-1.3c1.3-0.3,2.3-0.3,3.6-1l-3.3-2
						c-2.3,1-5.2,1.6-7.5,0.3C489.2,190.7,488.9,189.4,491.2,187.5z M500,190.7l3,1.6c1-1,1-1.3,0.3-2
						C502.3,190.4,501.3,190.4,500,190.7L500,190.7z M492.8,190.4c1,0.3,2,0.3,3.3,0l-3-1.6C492.2,189.4,492.2,190.1,492.8,190.4
						L492.8,190.4z"/>
				</g>
			</g>
			<g id="Group_83">
				
					<linearGradient id="Path_1200_1_" gradientUnits="userSpaceOnUse" x1="340.2231" y1="-800.9936" x2="340.5632" y2="-800.4017" gradientTransform="matrix(132.5829 0 0 45.1162 -44636.2227 36312.8867)">
					<stop  offset="0" style="stop-color:#FFFFFF"/>
					<stop  offset="1" style="stop-color:#2D4483"/>
				</linearGradient>
				<path id="Path_1200" fill="url(#Path_1200_1_)" d="M516.1,187.8v2c0,2.6-1.6,5.2-5.2,7.2c-7.2,3.9-18.4,3.9-25.6,0
					c-3.6-2-5.2-4.6-5.2-7.2v-2c0,2.6,1.6,5.2,5.2,7.2c7.2,3.9,18.4,3.9,25.6,0C514.5,192.7,516.1,190.1,516.1,187.8z"/>
				<path id="Path_1201" fill="#6EAAE6" d="M510.9,180.3c7.2,3.9,7.2,10.5,0,14.4c-7.2,3.9-18.4,3.9-25.6,0
					c-7.2-3.9-7.2-10.5,0-14.4C492.5,176.3,504,176.3,510.9,180.3z"/>
				<path id="Path_1202" fill="#D9E1F6" d="M508.6,181.9c5.9,3.3,5.9,8.5,0,11.8c-5.9,3.3-15.1,3.3-20.7,0c-5.6-3.3-5.9-8.5,0-11.8
					C493.5,178.3,502.7,178.3,508.6,181.9z"/>
				<g id="Group_82">
					<path id="Path_1203" fill="#6EAAE6" d="M491.2,184.2l-2-1l1.3-1l2,1c1.6-1,3.6-1.3,5.6-1.6l1,1.3c-1.6,0-3.3,0.7-4.6,1.3l3.3,2
						c2.3-1,4.9-1.6,7.5-0.3c1.6,1,2,2.6-0.3,4.3l2,1l-1.3,1l-2-1c-1.3,0.7-3,1.3-4.6,1.3l-1-1.3c1.3-0.3,2.3-0.3,3.6-1l-3.3-2
						c-2.3,1-5.2,1.6-7.5,0.3C489.2,187.5,488.9,185.8,491.2,184.2z M500,187.5l3.3,1.6c1-1,1-1.3,0.3-2
						C502.3,186.8,501.3,187.1,500,187.5L500,187.5z M492.8,187.1c1,0.3,2,0.3,3.3,0l-3-1.6C492.2,185.8,492.2,186.5,492.8,187.1
						L492.8,187.1z"/>
				</g>
			</g>
			<g id="Group_85">
				
					<linearGradient id="Path_1204_1_" gradientUnits="userSpaceOnUse" x1="340.2247" y1="-800.7896" x2="340.5647" y2="-800.1976" gradientTransform="matrix(132.5829 0 0 45.1162 -44636.2227 36300.1992)">
					<stop  offset="0" style="stop-color:#FFFFFF"/>
					<stop  offset="1" style="stop-color:#2D4483"/>
				</linearGradient>
				<path id="Path_1204" fill="url(#Path_1204_1_)" d="M516.1,184.2v2c0,2.6-1.6,5.2-5.2,7.2c-7.2,3.9-18.4,3.9-25.6,0
					c-3.6-2-5.2-4.6-5.2-7.2v-2c0,2.6,1.6,5.2,5.2,7.2c7.2,3.9,18.4,3.9,25.6,0C514.5,189.4,516.1,186.8,516.1,184.2z"/>
				<path id="Path_1205" fill="#6EAAE6" d="M510.9,177c7.2,3.9,7.2,10.5,0,14.4c-6.9,3.9-18.4,3.9-25.6,0c-7.2-3.9-7.2-10.5,0-14.4
					C492.5,173,504,173,510.9,177z"/>
				<path id="Path_1206" fill="#D9E1F6" d="M508.6,178.3c5.9,3.3,5.9,8.5,0,11.8c-5.9,3.3-15.1,3.3-20.7,0c-5.6-3.3-5.9-8.5,0-11.8
					S502.7,175,508.6,178.3z"/>
				<g id="Group_84">
					<path id="Path_1207" fill="#6EAAE6" d="M491.2,180.6l-2-1l1.3-1l2,1c1.6-1,3.6-1.3,5.6-1.6l1,1.3c-1.6,0-3.3,0.7-4.6,1.3l3.3,2
						c2.3-1,4.9-1.6,7.5-0.3c1.6,1,2,2.6-0.3,4.3l2,1l-1.3,1l-2-1c-1.3,0.7-3,1.3-4.6,1.3l-1-1.3c1.3-0.3,2.3-0.3,3.6-1l-3.3-2
						c-2.3,1-5.2,1.6-7.5,0.3C489.2,183.9,488.9,182.2,491.2,180.6z M500,183.9l3.3,2c1-1,1-1.3,0.3-1.6
						C502.3,183.5,501.3,183.5,500,183.9L500,183.9z M492.8,183.5c1,0.3,2,0.3,3.3,0l-3-1.6C492.2,182.5,492.2,183.2,492.8,183.5
						L492.8,183.5z"/>
				</g>
			</g>
			<g id="Group_87">
				
					<linearGradient id="Path_1208_1_" gradientUnits="userSpaceOnUse" x1="340.2226" y1="-800.5797" x2="340.5627" y2="-799.9878" gradientTransform="matrix(132.5829 0 0 45.1176 -44636.2227 36288.4023)">
					<stop  offset="0" style="stop-color:#FFFFFF"/>
					<stop  offset="1" style="stop-color:#2D4483"/>
				</linearGradient>
				<path id="Path_1208" fill="url(#Path_1208_1_)" d="M516.1,180.9v2c0,2.6-1.6,5.2-5.2,7.2c-7.2,3.9-18.4,3.9-25.6,0
					c-3.6-2-5.2-4.6-5.2-7.2v-2c0,2.6,1.6,5.2,5.2,7.2c7.2,3.9,18.4,3.9,25.6,0C514.5,185.8,516.1,183.2,516.1,180.9z"/>
				<path id="Path_1209" fill="#6EAAE6" d="M510.9,173.4c7.2,3.9,7.2,10.5,0,14.4c-6.9,3.9-18.4,3.9-25.6,0
					c-7.2-3.9-7.2-10.5,0-14.4C492.5,169.4,504,169.4,510.9,173.4z"/>
				<path id="Path_1210" fill="#D9E1F6" d="M508.6,174.7c5.9,3.3,5.9,8.5,0,11.8c-5.6,3.3-15.1,3.3-20.7,0c-5.9-3.3-5.9-8.5,0-11.8
					C493.5,171.7,502.7,171.4,508.6,174.7z"/>
				<g id="Group_86">
					<path id="Path_1211" fill="#6EAAE6" d="M491.2,177.3l-2-1l1.3-1l2,1c1.6-1,3.6-1.3,5.6-1.6l1,1.3c-1.6,0-3.3,0.7-4.6,1.3l3.3,2
						c2.3-1,4.9-1.6,7.5-0.3c1.6,1,2,2.6-0.3,4.3l2,1l-1.3,0.7l-2-1c-1.3,0.7-3,1.3-4.6,1.3l-1-1.3c1.3-0.3,2.3-0.7,3.6-1l-3.3-2
						c-2.3,1-5.2,1.6-7.5,0.3C489.2,180.3,488.9,178.9,491.2,177.3z M500,180.6l3,1.6c1-1,1-1.3,0.3-1.6
						C502.3,179.9,501.3,180.3,500,180.6L500,180.6z M492.8,180.3c1,0.3,2,0.3,3.3,0l-3-1.6C492.2,178.9,492.2,179.6,492.8,180.3
						L492.8,180.3z"/>
				</g>
			</g>
			<g id="Group_89">
				
					<linearGradient id="Path_1212_1_" gradientUnits="userSpaceOnUse" x1="340.2246" y1="-800.3807" x2="340.5647" y2="-799.7889" gradientTransform="matrix(132.5829 0 0 45.1155 -44636.2227 36274.3125)">
					<stop  offset="0" style="stop-color:#FFFFFF"/>
					<stop  offset="1" style="stop-color:#2D4483"/>
				</linearGradient>
				<path id="Path_1212" fill="url(#Path_1212_1_)" d="M516.1,177.3v2c0,2.6-1.6,5.2-5.2,7.2c-7.2,3.9-18.4,3.9-25.6,0
					c-3.6-2-5.2-4.6-5.2-7.2v-2c0,2.6,1.6,5.2,5.2,7.2c7.2,3.9,18.4,3.9,25.6,0C514.5,182.5,516.1,179.9,516.1,177.3z"/>
				<path id="Path_1213" fill="#6EAAE6" d="M510.9,170.1c7.2,3.9,7.2,10.5,0,14.4c-7.2,3.9-18.4,3.9-25.6,0
					c-7.2-3.9-7.2-10.5,0-14.4C492.5,166.2,504,166.2,510.9,170.1z"/>
				<path id="Path_1214" fill="#D9E1F6" d="M508.6,171.4c5.9,3.3,5.9,8.5,0,11.8c-5.9,3.3-15.1,3.3-20.7,0c-5.9-3.3-5.9-8.5,0-11.8
					C493.8,168.1,502.7,168.1,508.6,171.4z"/>
				<g id="Group_88">
					<path id="Path_1215" fill="#6EAAE6" d="M491.2,173.7l-2-1l1.3-1l2,1c1.6-1,3.6-1.3,5.6-1.6l1,1.3c-1.6,0-3.3,0.7-4.6,1.3l3.3,2
						c2.3-1,4.9-1.6,7.5-0.3c1.6,1,2,2.6-0.3,4.3l2,1l-1.3,1l-2-1c-1.3,0.7-3,1.3-4.6,1.3l-1-1.3c1.3-0.3,2.3-0.7,3.6-1l-3.3-2
						c-2.3,1-5.2,1.6-7.5,0.3C489.2,177,488.9,175.3,491.2,173.7z M500,177l3,1.6c1-1,1-1.3,0.3-1.6
						C502.3,176.3,501.3,176.6,500,177L500,177z M492.8,176.6c1,0.3,2,0.3,3.3,0l-3-1.6C492.2,175.7,492.2,176.3,492.8,176.6
						L492.8,176.6z"/>
				</g>
			</g>
			<g id="Group_91">
				
					<linearGradient id="Path_1216_1_" gradientUnits="userSpaceOnUse" x1="340.2253" y1="-800.1702" x2="340.5653" y2="-799.5784" gradientTransform="matrix(132.5829 0 0 45.1158 -44636.2227 36261.5352)">
					<stop  offset="0" style="stop-color:#FFFFFF"/>
					<stop  offset="1" style="stop-color:#2D4483"/>
				</linearGradient>
				<path id="Path_1216" fill="url(#Path_1216_1_)" d="M516.1,173.7v2c0,2.6-1.6,5.2-5.2,7.2c-7.2,3.9-18.4,3.9-25.6,0
					c-3.6-2-5.2-4.6-5.2-7.2v-2c0,2.6,1.6,5.2,5.2,7.2c7.2,3.9,18.4,3.9,25.6,0C514.5,178.9,516.1,176.3,516.1,173.7z"/>
				<path id="Path_1217" fill="#6EAAE6" d="M510.9,166.5c7.2,3.9,7.2,10.5,0,14.4s-18.4,3.9-25.6,0c-7.2-3.9-7.2-10.5,0-14.4
					C492.5,162.5,504,162.5,510.9,166.5z"/>
				
					<linearGradient id="Path_1218_1_" gradientUnits="userSpaceOnUse" x1="337.4572" y1="-789.6458" x2="337.917" y2="-789.2629" gradientTransform="matrix(108.3045 0 0 61.2805 -36066.0938 48555.9922)">
					<stop  offset="0" style="stop-color:#FFFFFF"/>
					<stop  offset="1" style="stop-color:#5986FF"/>
				</linearGradient>
				<path id="Path_1218" fill="url(#Path_1218_1_)" d="M508.6,167.8c5.9,3.3,5.9,8.5,0,11.8c-5.9,3.3-15.1,3.3-20.7,0
					c-5.6-3.3-5.9-8.5,0-11.8S502.7,164.5,508.6,167.8z"/>
				<g id="Group_90">
					<path id="Path_1219" fill="#6EAAE6" d="M491.2,170.1l-2-1l1.3-1l2,1c1.6-1,3.6-1.3,5.6-1.6l1,1.3c-1.6,0-3.3,0.7-4.6,1.3l3.3,2
						c2.3-1,4.9-1.6,7.5-0.3c1.6,1,2,2.6-0.3,4.3l2,1l-1.3,1l-2-1c-1.3,0.7-3,1.3-4.6,1.3l-1-1.3c1.3-0.3,2.3-0.7,3.6-1l-3.3-2
						c-2.3,1-5.2,1.6-7.5,0.3C489.2,173.4,488.9,172.1,491.2,170.1z M500,173.7l3,1.6c1-1,1-1.3,0.3-1.6
						C502.3,173,501.3,173.4,500,173.7L500,173.7z M492.8,173c1,0.3,2,0.3,3.3,0l-3-1.6C492.2,172.1,492.2,172.7,492.8,173
						L492.8,173z"/>
				</g>
			</g>
		</g>
		<g id="Group_97">
			<g id="Group_94">
				
					<linearGradient id="Path_1220_1_" gradientUnits="userSpaceOnUse" x1="339.4084" y1="-801.538" x2="339.6812" y2="-800.9274" gradientTransform="matrix(132.5846 0 0 45.1162 -44485.3281 36342.1211)">
					<stop  offset="0" style="stop-color:#FFFFFF"/>
					<stop  offset="1" style="stop-color:#2D4483"/>
				</linearGradient>
				<path id="Path_1220" fill="url(#Path_1220_1_)" d="M557.4,195.7v2c0,2.6-1.6,5.2-5.2,7.2c-7.2,3.9-18.4,3.9-25.6,0
					c-3.6-2-5.2-4.6-5.2-7.2v-2c0,2.6,1.6,5.2,5.2,7.2c7.2,3.9,18.4,3.9,25.6,0C555.5,200.9,557.4,198.3,557.4,195.7z"/>
				<path id="Path_1221" fill="#6EAAE6" d="M551.9,188.4c7.2,3.9,7.2,10.5,0,14.4c-6.9,3.9-18.4,3.9-25.6,0
					c-7.2-3.9-7.2-10.5,0-14.4C533.5,184.5,545,184.5,551.9,188.4z"/>
				
					<linearGradient id="Path_1222_1_" gradientUnits="userSpaceOnUse" x1="336.3978" y1="-790.6947" x2="336.9144" y2="-790.0838" gradientTransform="matrix(108.3038 0 0 61.2805 -35914.4375 48636.1289)">
					<stop  offset="0" style="stop-color:#FFFFFF"/>
					<stop  offset="1" style="stop-color:#5986FF"/>
				</linearGradient>
				<path id="Path_1222" fill="url(#Path_1222_1_)" d="M549.6,189.8c5.9,3.3,5.9,8.5,0,11.8c-5.9,3.3-15.1,3.3-20.7,0
					c-5.6-3.3-5.9-8.5,0-11.8C534.5,186.5,544,186.5,549.6,189.8z"/>
				<g id="Group_93">
					<path id="Path_1223" fill="#6EAAE6" d="M534.1,198.6l-2,1l-1.3-1l2-1c-1.6-1-2.6-2.3-3-3.3l2.6-0.3c0.3,1,1,2,2.3,2.6l3.6-2
						c-1.3-1.3-3-3-0.3-4.3c1.6-1,4.6-1,7.5,0.3l2-1l1.3,1l-2,1c1.3,0.7,2.3,1.6,2.3,2.6l-2.3,0.7c-0.3-1-1-1.6-2-2l-3.6,2
						c1.3,1.3,3,3,0.3,4.3C539.7,199.9,537.1,199.9,534.1,198.6z M540,193.7l3-1.6c-1.3-0.7-2.6-0.3-3.3,0
						C539.1,192.4,539.4,193,540,193.7L540,193.7z M539.4,197.6c1-0.3,0.3-1-0.3-2l-3,1.6C537.4,198.3,538.4,198.3,539.4,197.6
						L539.4,197.6z"/>
				</g>
			</g>
			<g id="Group_96">
				
					<linearGradient id="Path_1224_1_" gradientUnits="userSpaceOnUse" x1="339.6311" y1="-802.2941" x2="339.9308" y2="-801.7047" gradientTransform="matrix(132.5829 0 0 45.1158 -44519.5273 36395.6523)">
					<stop  offset="0" style="stop-color:#FFFFFF"/>
					<stop  offset="1" style="stop-color:#2D4483"/>
				</linearGradient>
				<path id="Path_1224" fill="url(#Path_1224_1_)" d="M547.9,210.1v2c0,2.6-1.6,5.2-5.2,7.2c-7.2,3.9-18.4,3.9-25.6,0
					c-3.6-2-5.2-4.6-5.2-7.2v-2c0,2.6,1.6,5.2,5.2,7.2c7.2,3.9,18.4,3.9,25.6,0C546.3,215.3,547.9,212.7,547.9,210.1z"/>
				<path id="Path_1225" fill="#6EAAE6" d="M542.7,202.9c7.2,3.9,7.2,10.5,0,14.4c-6.9,3.9-18.4,3.9-25.6,0
					c-7.2-3.9-7.2-10.5,0-14.4C524,198.9,535.5,198.9,542.7,202.9z"/>
				
					<linearGradient id="Path_1226_1_" gradientUnits="userSpaceOnUse" x1="336.668" y1="-791.2888" x2="337.1013" y2="-790.804" gradientTransform="matrix(108.3028 0 0 61.2791 -35948.9531 48689.0781)">
					<stop  offset="0" style="stop-color:#FFFFFF"/>
					<stop  offset="1" style="stop-color:#5986FF"/>
				</linearGradient>
				<path id="Path_1226" fill="url(#Path_1226_1_)" d="M540,204.2c5.9,3.3,5.9,8.5,0,11.8c-5.9,3.3-15.1,3.3-20.7,0s-5.9-8.5,0-11.8
					C525.3,200.9,534.5,200.9,540,204.2z"/>
				<g id="Group_95">
					<path id="Path_1227" fill="#6EAAE6" d="M521.4,211.7l-2.6,0.3l-0.3-1l2.6-0.3c-0.3-1.3,0-2.6,1-3.6l2.6,0.3c-0.7,0.7-1,2-1,3
						l4.6-0.3c0.3-1.6,0.3-3.3,3.9-3.6c2.3-0.3,4.9,0.3,5.9,2.6l2.6-0.3l0.3,1l-2.6,0.3c0.3,1,0,2-0.3,3l-2.6-0.3
						c0.3-0.7,0.7-1.6,0.3-2.3l-4.9,0.3c-0.3,1.6-0.3,3.3-3.6,3.6C525,214.4,522.7,213.7,521.4,211.7z M531.2,209.4l4.3-0.3
						c-0.7-1-1.6-1.3-2.6-1C531.8,208.1,531.5,208.8,531.2,209.4L531.2,209.4z M526.6,212.4c1.3,0,1.6-0.7,1.6-1.6l-4.3,0.3
						C524.6,212.1,525.6,212.7,526.6,212.4L526.6,212.4z"/>
				</g>
			</g>
		</g>
		<g id="Group_108">
			<g id="Group_101">
				<g id="Group_98">
					<path id="Path_1228" fill="#5986FF" d="M789.3,112.7L671.2,46.1c-1-0.7-2-0.7-2.6-0.3l-3.3,2c0.7-0.3,1.6-0.3,2.6,0.3
						L786,114.7c2.3,1.3,3.9,4.3,3.9,6.6l-0.7,87.6c0,1.3-0.3,2-1,2.3l3.3-2c0.7-0.3,1-1.3,1-2.3l0.3-87.6
						C793.2,116.6,791.6,113.7,789.3,112.7z"/>
					<path id="Path_1229" fill="#2D4483" d="M786,114.7c2.3,1.3,3.9,4.3,3.9,6.6l-0.3,87.6c0,2.3-1.6,3.3-3.9,2.3l-118.1-66.6
						c-2.3-1.3-3.9-4.3-3.9-6.6l0.3-87.6c0-2.3,1.6-3.3,3.9-2.3L786,114.7z"/>
					
						<linearGradient id="Path_1230_1_" gradientUnits="userSpaceOnUse" x1="347.5167" y1="-764.8838" x2="347.815" y2="-764.7559" gradientTransform="matrix(427.101 0 0 549.8632 -147756.8281 420678.125)">
						<stop  offset="0" style="stop-color:#FFFFFF"/>
						<stop  offset="1" style="stop-color:#5986FF"/>
					</linearGradient>
					<path id="Path_1230" fill="url(#Path_1230_1_)" d="M785,119.9l-0.3,84l-115.8-65.3l0.3-84L785,119.9z"/>
				</g>
				<g id="Group_100">
					
						<linearGradient id="Path_1231_1_" gradientUnits="userSpaceOnUse" x1="349.9754" y1="-769.0578" x2="350.2326" y2="-768.6946" gradientTransform="matrix(760.1964 0 0 270.4709 -265493.75 208151.9063)">
						<stop  offset="0" style="stop-color:#FFFFFF"/>
						<stop  offset="1" style="stop-color:#2D4483"/>
					</linearGradient>
					<path id="Path_1231" fill="url(#Path_1231_1_)" d="M786,215.7l-77.7,43.9c-2.3,1.3-5.6,1.3-7.9,0L582.4,193
						c-1-0.7-1.6-1.3-1.6-2.3v3.9c0,1,0.3,1.6,1.6,2.3l118.1,66.6c2.3,1.3,5.6,1.3,7.9,0l77.7-43.9c1-0.7,1.6-1.3,1.6-2.3v-3.9
						C787.6,214.4,787,215.3,786,215.7z"/>
					<path id="Path_1232" fill="#ABC2FF" d="M786,211.4c2.3,1.3,2.3,3.3,0,4.3l-77.7,43.9c-2.3,1.3-5.6,1.3-7.9,0L582.4,193
						c-2.3-1.3-2.3-3.3,0-4.3l77.7-43.9c2.3-1.3,5.6-1.3,7.9,0L786,211.4z"/>
					<g id="Group_99">
						<path id="Path_1233" fill="#5986FF" d="M677.1,160.2l-7.2,3.9l-9.2-5.2l7.2-3.9L677.1,160.2z"/>
						<path id="Path_1234" fill="#5986FF" d="M754.2,203.9l-7.2,3.9l-9.2-5.2l7.2-3.9L754.2,203.9z"/>
						<path id="Path_1235" fill="#5986FF" d="M741.4,196.6l-7.2,3.9l-9.2-5.2l7.2-3.9L741.4,196.6z"/>
						<path id="Path_1236" fill="#5986FF" d="M730.9,202.6l-7.2,3.9l-9.2-5.2l7.2-3.9L730.9,202.6z"/>
						<path id="Path_1237" fill="#5986FF" d="M718.1,195l-7.2,3.9l-9.2-5.2l7.2-3.9L718.1,195z"/>
						<path id="Path_1238" fill="#5986FF" d="M658.8,185.2l-7.2,3.9l-9.2-5.2l7.2-3.9L658.8,185.2z"/>
						<path id="Path_1239" fill="#5986FF" d="M646,178l-7.2,3.9l-9.2-5.2l7.2-3.9L646,178z"/>
						<path id="Path_1240" fill="#5986FF" d="M736.2,228.8l-7.2,3.9l-9.2-5.2l7.2-3.9L736.2,228.8z"/>
						<path id="Path_1241" fill="#5986FF" d="M723,221.6l-7.2,3.9l-9.2-5.2l7.2-3.9L723,221.6z"/>
						<path id="Path_1242" fill="#5986FF" d="M710.2,214.4l-7.2,3.9l-9.2-5.2l7.2-3.9L710.2,214.4z"/>
						<path id="Path_1243" fill="#5986FF" d="M689.9,167.5l-7.2,3.9l-9.2-5.2l7.2-3.9L689.9,167.5z"/>
						<path id="Path_1244" fill="#5986FF" d="M679.4,173.4l-7.2,3.9l-9.2-5.2l7.2-3.9L679.4,173.4z"/>
						<path id="Path_1245" fill="#5986FF" d="M703,174.7l-7.2,3.9l-9.2-5.2l6.9-3.9L703,174.7z"/>
						<path id="Path_1246" fill="#5986FF" d="M669.3,179.3l-7.2,3.9l-6.6-3.6l-2.6-1.6l-12.8-7.2l7.2-3.9l12.8,7.2l2.6,1.6
							L669.3,179.3z"/>
						<path id="Path_1247" fill="#5986FF" d="M692.5,180.6l-7.2,3.9l-9.2-5.2l7.2-3.9L692.5,180.6z"/>
						<path id="Path_1248" fill="#5986FF" d="M715.8,181.9l-7.2,3.9l-9.2-5.2l7.2-3.9L715.8,181.9z"/>
						<path id="Path_1249" fill="#5986FF" d="M682,186.5l-7.2,3.9l-9.2-5.2l7.2-3.9L682,186.5z"/>
						<path id="Path_1250" fill="#5986FF" d="M705.3,188.1l-7.2,3.9l-9.2-5.2l7.2-3.9L705.3,188.1z"/>
						<path id="Path_1251" fill="#5986FF" d="M694.8,193.7l-7.2,3.9l-9.2-5.2l7.2-3.9L694.8,193.7z"/>
						<path id="Path_1252" fill="#5986FF" d="M707.9,201.2l-7.2,3.9l-9.2-5.2l7.2-3.9L707.9,201.2z"/>
						<path id="Path_1253" fill="#5986FF" d="M697.5,206.8l-7.2,3.9l-6.9-3.9l-2.3-1.3l-25.9-14.4l7.2-3.9l25.9,14.4l2.3,1.3
							L697.5,206.8z"/>
						<path id="Path_1254" fill="#97B3FC" d="M684,218.3c1.3,0.7,1.3,1.6,0,2.3l-16.1,9.2c-1.3,0.7-3,0.7-4.3,0l-28.5-16.1
							c-1.3-0.7-1.3-1.6,0-2.3l16.1-9.2c1.3-0.7,3-0.7,4.3,0L684,218.3z"/>
						<path id="Path_1255" fill="#5986FF" d="M728.6,189.4l-7.2,3.9l-9.2-5.2l7.2-3.9L728.6,189.4z"/>
						<path id="Path_1256" fill="#5986FF" d="M767.3,211.1l-7.2,3.9l-9.2-5.2l7.2-3.9L767.3,211.1z"/>
						<path id="Path_1257" fill="#5986FF" d="M666.6,166.2l-7.2,3.9l-9.2-5.2l7.2-3.9L666.6,166.2z"/>
						<path id="Path_1258" fill="#5986FF" d="M733.5,215.7l-7.2,3.9l-4.6-2.6l-4.6-2.6l-12.8-7.2l7.2-3.9l12.8,7.2l4.6,2.6
							L733.5,215.7z"/>
						<path id="Path_1259" fill="#5986FF" d="M756.8,217l-5.2,3l-2,1l-10.5,5.9l-9.2-5.2l10.5-5.9l-12.8-7.2l7.2-3.9l12.8,7.2l1,0.7
							L756.8,217z"/>
					</g>
				</g>
			</g>
			<g id="Group_107">
				<g id="Group_102">
					<path id="Path_1260" fill="#5986FF" d="M711.2,103.8c-0.3-2-0.7-3.6-1.3-5.6l0,0c0-0.3-0.3-0.7-0.3-1c0,0,0,0,0-0.3
						c-0.3-0.3-0.3-0.7-0.3-1c-0.3-0.3-0.3-0.7-0.3-1s-0.3-0.7-0.3-1c-0.3-0.3-0.3-0.7-0.7-1c-0.3-0.3-0.3-0.7-0.7-1
						c-0.3-0.3-0.3-0.7-0.7-1c-0.3-0.7-1-1.3-1.3-2c-0.3-0.3-0.3-0.7-0.7-1c-0.3-0.7-1-1.3-1.6-1.6c-0.3,0-0.3-0.3-0.3-0.3l-0.3-0.3
						c-0.3-0.3-0.3-0.3-0.3-0.7c-0.3,0-0.3-0.3-0.3-0.3s0,0-0.3,0c0,0,0,0-0.3,0s-0.3-0.3-0.3-0.3l0,0l-0.3-0.3c0,0-0.3,0-0.3-0.3
						c0,0,0,0-0.3,0l-0.3-0.3c-0.3-0.3-0.7-0.3-1-0.7c-0.3,0-0.3-0.3-0.3-0.3l-1.3-1.6c-0.3,0-0.3-0.3-0.7-0.3c-0.7-0.3-1.3-0.7-2-1
						c-0.7-0.3-1.3-0.7-2-0.7c-6.6-1.6-11.5,2.6-11.1,10.8c0,0.7,0,1,0,1.6c0,1,0.3,1.6,0.3,2.6c0.3,0.7,0.3,1,0.3,1.6
						c0.3,1,0.3,1.6,1,2.6c2,5.2,5.2,9.8,9.2,13.4c0.3,0.3,1,0.7,1.3,1c0.3,0,0.3,0.3,0.7,0.3c0.7,0.7,1.3,1,2.3,1.6
						c1,0.7,1.6,1,3,1.3c0.3,0,0.3,0,0.3,0c0.3,0,0.3,0,0.3,0c0.3,0,0.3,0,0.3,0h0.3c0.3,0,1,0.3,1.6,0.3c0.3,0,0.3,0,0.7,0h0.3
						c0.3,0,0.3,0,0.3,0c0.3,0,0.7,0,1,0c1-0.3,2.3-0.7,3-1.3c0.3-0.3,0.7-0.7,1-1c0.3-0.3,0.7-1,1-1.3c0.3-0.3,0.3-1,0.7-1.6
						c0,0,0-0.3,0.3-0.3l0,0C711.6,108.4,711.6,106.1,711.2,103.8z M697.1,105.5c-3.6-1.6-7.2-6.6-7.5-10.8
						c-0.3-4.6,2.3-6.9,5.9-5.2c0.7,0.3,1.6,1,2.3,1.3c0.3,0.3,0.7,0.7,1,1c1.6,1.6,3,3.9,3.9,6.2c0.3,1,0.3,1.6,0.3,2.3
						c0.3,1,0,2-0.3,3C702,105.8,700.1,106.8,697.1,105.5L697.1,105.5z"/>
					<path id="Path_1261" fill="#FF5C98" d="M701.7,84.5l-3,7.2c-0.3-0.3-0.7-0.7-1-1c-0.7-0.7-1.3-1-2.3-1.3
						c-3.6-1.6-6.2,1-5.9,5.2l-8.2-3.6c-1-9.2,3.9-14.1,10.8-12.5c0.7,0.3,1.3,0.3,2,0.7c0.7,0.3,1.3,0.7,2,1c0.3,0,0.3,0.3,0.7,0.3
						l0.7,0.3c0.3,0,0.3,0.3,0.3,0.3c0.3,0.3,0.7,0.3,1,0.7l0.3,0.3c0,0,0,0,0.3,0c0.3,0.3,0.3,0.3,0.7,0.7l0,0
						c0.3,0,0.3,0.3,0.7,0.7C701.1,84.2,701.4,84.2,701.7,84.5z"/>
					
						<linearGradient id="Path_1262_1_" gradientUnits="userSpaceOnUse" x1="304.1825" y1="-787.3861" x2="304.5421" y2="-787.1857" gradientTransform="matrix(45.6287 0 0 57.8328 -13184.3691 45622.5859)">
						<stop  offset="0" style="stop-color:#FFFFFF"/>
						<stop  offset="1" style="stop-color:#2D4483"/>
					</linearGradient>
					<path id="Path_1262" fill="url(#Path_1262_1_)" d="M710.2,98.3l-7.5-0.3c-0.7-2.3-2.3-4.6-3.9-6.2c-0.3-0.3-0.7-0.7-1-1
						l1.6-8.2c0,0,0,0,0.3,0c0,0,0.3,0,0.3,0.3c0.3,0,0.3,0.3,0.3,0.3l0,0c0.3,0,0.3,0.3,0.3,0.3s0.3,0,0.3,0.3
						c0.3,0,0.3,0.3,0.3,0.3c0.3,0,0.3,0.3,0.3,0.7c0.3,0,0.3,0.3,0.3,0.3c0.3,0,0.3,0.3,0.3,0.3c0.3,0.7,1,1.3,1.6,1.6
						c0.3,0.3,0.3,0.7,0.7,1c0.3,0.3,0.3,0.7,0.7,1c0.3,0.3,0.3,0.7,0.7,1c0.3,0.3,0.3,0.7,0.7,1c0.3,0.3,0.3,0.7,0.7,1
						c0.3,0.3,0.3,0.7,0.7,1c0.3,0.3,0.3,0.7,0.3,1c0.3,0.3,0.3,0.7,0.3,1c0.3,0.3,0.3,0.7,0.3,1c0,0,0,0,0,0.3
						C709.9,97.6,709.9,97.9,710.2,98.3L710.2,98.3z"/>
					<path id="Path_1263" fill="#4367C7" d="M710.9,110.7L710.9,110.7c0,0.3,0,0.3-0.3,0.7c-0.3,0.7-0.3,1-0.7,1.6
						c-0.3,0.3-0.7,1-1,1.3c-1,1.3-2.6,2.3-4.3,2.3c-0.3,0-0.7,0-1,0s-0.3,0-0.3,0H703c-0.3,0-0.3,0-0.7,0c-0.3,0-1,0-1.6-0.3h-0.3
						c-0.3,0-0.3,0-0.3,0c-0.3,0-0.3,0-0.3,0c-0.3,0-0.3,0-0.3,0c-1-0.3-2-0.7-3-1.3c-0.7-0.3-1.6-1-2.3-1.6c-0.3,0-0.3-0.3-0.7-0.3
						c-0.3-0.3-1-0.7-1.3-1c-3.9-3.6-7.2-8.5-9.2-13.4c-0.3-1-0.7-1.6-1-2.6c-0.3-0.7-0.3-1-0.3-1.6c-0.3-1-0.3-1.6-0.3-2.6l8.2,3.6
						c0.3,4.6,3.9,9.2,7.5,10.8c2.6,1,4.9,0.3,5.6-2.3L710.9,110.7z"/>
				</g>
				<g id="Group_103">
					<path id="Path_1264" fill="#5986FF" d="M750.6,125.8c-0.3-2-0.7-3.9-1.3-5.9c-0.3-0.3-0.3-0.7-0.3-1c0,0,0-0.3-0.3-0.3
						c0-0.3-0.3-0.7-0.3-0.7c-0.3-0.3-0.3-0.7-0.3-1c0,0,0-0.3-0.3-0.3c-0.3-0.3-0.3-0.7-0.3-1c-0.3-0.3-0.3-0.7-0.3-1
						c-0.3-0.3-0.3-0.7-0.3-1l-0.3-0.3c-0.3-0.3-0.3-0.7-0.3-1c-0.3-0.3-0.3-0.7-0.7-1l0,0c-0.3-0.3-0.3-0.7-0.7-1l-0.3-0.3
						l-0.3-0.3l-0.3-0.3c-0.3-0.3-0.3-0.7-0.7-0.7c-0.3-0.3-0.3-0.7-0.7-1c-0.3-0.3-0.3-0.7-0.7-1c-0.3,0-0.3-0.3-0.3-0.3l-0.3-0.3
						c0,0-0.3,0-0.3-0.3l0,0c-0.3-0.3-0.3-0.3-0.3-0.3l0,0c0,0-0.3,0-0.3-0.3c-0.3,0-0.3-0.3-0.3-0.3l0,0l0,0l-0.3-0.3
						c-0.3-0.3-0.7-0.3-1-0.7c-0.3,0-0.3-0.3-0.3-0.3c-0.3,0-0.3-0.3-0.7-0.3c-0.3,0-0.3-0.3-0.7-0.3l0,0c-0.3,0-0.3-0.3-0.7-0.3
						h-0.3c-0.3,0-0.3-0.3-0.3-0.3h-0.3c-0.3,0-0.3-0.3-0.7-0.3c-0.3,0-0.3,0-0.3-0.3c0,0,0,0-0.3,0s-0.3,0-0.7-0.3
						c-6.6-1.6-11.1,2-11.5,9.2c0,0.3,0,0.7,0,1v0.3c0,0.3,0,0.7,0,1c0,0.3,0,0.3,0,0.7c0,0.3,0,0.3,0,0.7v0.3l0,0
						c0,0.7,0.3,1,0.3,1.6c0,0.3,0,0.3,0.3,0.7c0.3,0.7,0.3,1.3,0.3,1.6c0.3,1.6,1.3,3.6,2.3,5.2c0,0.3,0.3,0.3,0.3,0.7
						s0.3,0.3,0.3,0.7c0.3,0.3,0.3,0.7,0.7,1c0,0.3,0.3,0.3,0.3,0.7l0,0c0.3,0.3,0.3,0.7,0.7,1c0.3,0.3,0.3,0.7,0.7,1
						c0.3,0.3,0.3,0.3,0.3,0.7l0,0l0.3,0.3l0,0c0.3,0.3,0.3,0.3,0.3,0.7c0.3,0.3,0.3,0.3,0.3,0.7c0.3,0.3,0.3,0.7,0.7,1l0.3,0.3
						l0.3,0.7c0.3,0.3,0.3,0.3,0.3,0.7c0.3,0,0.3,0.3,0.3,0.3c0.3,0,0.3,0.3,0.3,0.3c0.3,0.3,0.7,0.7,1,1c0,0,0.3,0,0.3,0.3
						c0.3,0.3,0.7,0.3,1,0.7c0.3,0,0.3,0.3,0.3,0.3c0.3,0.3,0.7,0.3,1,0.7l0,0c0.3,0,0.3,0.3,0.7,0.3c0.3,0.3,1,0.3,1.3,0.7
						c0.3,0,0.3,0.3,0.7,0.3l0,0c0.3,0,0.3,0,0.7,0.3s0.3,0,0.7,0.3c0.3,0,0.3,0,0.3,0s0,0,0.3,0s0.3,0,0.7,0c0,0,0,0,0.3,0
						s0.3,0,0.3,0l0,0c0.3,0,0.3,0,0.7,0c0.3,0,0.3,0,0.7,0s0.3,0,0.7,0c0.3,0,0.3,0,0.3,0c1,0,1.6-0.3,2.3-0.7
						C749.3,136,751.2,131.7,750.6,125.8z M736.5,127.8c-1.6-1-3.3-2-4.6-3.6c0,0-0.3,0-0.3-0.3c-1.6-2-2.6-4.6-3-6.9
						c-0.3-4.6,2.3-6.9,5.9-5.2c0.7,0.3,1.6,1,2.3,1.3c0.3,0.3,0.7,0.7,1,1c1.6,1.6,3,3.9,3.9,5.9c0.3,1,0.3,1.6,0.7,2.6
						c0.3,2.6-0.3,4.6-2,5.2C739.1,128.4,737.8,128.4,736.5,127.8L736.5,127.8z"/>
					<path id="Path_1265" fill="#FF5C98" d="M740.7,106.5l-3,7.2c-0.3-0.3-0.7-0.7-1-1c-0.7-0.7-1.3-1-2.3-1.3
						c-3.6-1.6-6.2,1-5.9,5.2c0.3,2.6,1.3,4.9,3,6.9c0,0,0,0,0.3,0.3l-4.6,5.6l0,0c-0.3,0-0.3-0.3-0.3-0.7s-0.3-0.3-0.3-0.7
						c-0.3-0.3-0.3-0.7-0.7-1c-0.3-0.3-0.3-0.7-0.7-1l0,0c-0.3-0.3-0.3-0.3-0.3-0.7c-0.3-0.3-0.3-0.7-0.7-1c0-0.3-0.3-0.3-0.3-0.7
						s-0.3-0.3-0.3-0.7c-1-1.6-1.6-3.6-2.3-5.2c-0.3-0.7-0.3-1.3-0.3-1.6s0-0.3-0.3-0.7c0-0.7-0.3-1-0.3-1.6l0,0
						c0-1-0.3-1.6-0.3-2.6c0-0.3,0-0.7,0-1c0.3-7.2,5.2-10.8,11.5-9.2c0.3,0,0.3,0,0.7,0.3c0,0,0,0,0.3,0c0.3,0,0.3,0,0.3,0.3
						c0.3,0,0.3,0,0.7,0.3h0.3c0.3,0,0.3,0,0.3,0.3h0.3c0.3,0,0.3,0.3,0.7,0.3l0,0c0.3,0,0.3,0.3,0.7,0.3c0.3,0,0.3,0.3,0.7,0.3
						s0.3,0.3,0.3,0.3c0.3,0.3,0.7,0.3,1,0.7l0.3,0.3l0,0l0,0c0.3,0,0.3,0.3,0.3,0.3s0.3,0,0.3,0.3c0.3,0,0.3,0.3,0.3,0.3l0,0l0,0
						C740.4,106.5,740.4,106.5,740.7,106.5L740.7,106.5z"/>
					
						<linearGradient id="Path_1266_1_" gradientUnits="userSpaceOnUse" x1="301.303" y1="-789.0706" x2="301.754" y2="-788.7853" gradientTransform="matrix(45.1857 0 0 56.5264 -12883.9795 44707.7891)">
						<stop  offset="0" style="stop-color:#FFFFFF"/>
						<stop  offset="1" style="stop-color:#2D4483"/>
					</linearGradient>
					<path id="Path_1266" fill="url(#Path_1266_1_)" d="M749.3,119.9l-7.5-0.3c-0.7-2.3-2-4.3-3.9-5.9c-0.3-0.3-0.7-0.7-1-1l1.6-8.2
						l0,0l0,0c0.3,0,0.3,0.3,0.3,0.3s0.3,0,0.3,0.3l0,0c0.3,0,0.3,0.3,0.3,0.3l0,0l0,0c0,0,0.3,0,0.3,0.3c0,0,0.3,0,0.3,0.3l0,0
						c0.3,0,0.3,0.3,0.3,0.3c0.3,0.3,0.3,0.7,0.7,1c0.3,0.3,0.3,0.7,0.7,1c0.3,0.3,0.3,0.7,0.7,0.7s0.3,0.3,0.3,0.3
						c0.3,0,0.3,0.3,0.3,0.3l0.3,0.3c0.3,0.3,0.3,0.7,0.7,1l0,0c0.3,0.3,0.3,0.7,0.7,1c0.3,0.3,0.3,0.7,0.3,1l0.3,0.3
						c0.3,0.3,0.3,0.7,0.3,1c0.3,0.3,0.3,0.7,0.3,1c0,0.3,0.3,0.7,0.3,1c0,0,0,0.3,0.3,0.3c0.3,0.3,0.3,0.7,0.3,1
						c0,0.3,0.3,0.7,0.3,0.7s0,0.3,0.3,0.3C748.9,119.3,749.3,119.6,749.3,119.9z"/>
					<path id="Path_1267" fill="#4367C7" d="M746,137.6c-0.7,0.3-1.6,0.7-2.3,0.7c-0.3,0-0.3,0-0.3,0c-0.3,0-0.3,0-0.7,0
						s-0.3,0-0.7,0c-0.3,0-0.3,0-0.7,0l0,0c-0.3,0-0.3,0-0.3,0s0,0-0.3,0c-0.3,0-0.3,0-0.7,0c0,0,0,0-0.3,0s-0.3,0-0.3,0
						c-0.3,0-0.3,0-0.7-0.3c-0.3,0-0.3,0-0.7-0.3l0,0c-0.3,0-0.3,0-0.7-0.3c-0.3-0.3-1-0.3-1.3-0.7c-0.3,0-0.3-0.3-0.7-0.3l0,0
						c-0.3-0.3-0.7-0.3-1-0.7c-0.3,0-0.3-0.3-0.3-0.3c-0.3-0.3-0.7-0.3-1-0.7c0,0-0.3,0-0.3-0.3c-0.3-0.3-0.7-0.7-1-1
						c-0.3,0-0.3-0.3-0.3-0.3c-0.3,0-0.3-0.3-0.3-0.3c-0.3-0.3-0.3-0.3-0.3-0.7l-0.3-0.7l-0.3-0.3c-0.3-0.3-0.3-0.7-0.7-1
						c-0.3-0.3-0.3-0.3-0.3-0.7c-0.3-0.3-0.3-0.3-0.3-0.7l0,0l0,0l-0.3-0.3l0,0l0,0l4.6-5.2c0,0,0,0,0.3,0.3
						c1.3,1.6,2.6,2.6,4.6,3.6c1.6,0.7,3,0.7,3.9,0L746,137.6z"/>
				</g>
				<path id="Path_1268" fill="#5986FF" d="M758.5,122.2l-2.3-1.3v-2.3l2.3,1.3V122.2z"/>
				<path id="Path_1269" fill="#4367C7" d="M758.5,125.8l-2.3-1.3v-2.3l2.3,1.3V125.8z"/>
				<path id="Path_1270" fill="#FF5C98" d="M758.5,129.4l-2.3-1.3v-2.3l2.3,1.3V129.4z"/>
				
					<linearGradient id="Path_1271_1_" gradientUnits="userSpaceOnUse" x1="60.5179" y1="-877.2324" x2="61.8475" y2="-876.805" gradientTransform="matrix(8.0903 0 0 13.686 262.9035 12134.7451)">
					<stop  offset="0" style="stop-color:#FFFFFF"/>
					<stop  offset="1" style="stop-color:#2D4483"/>
				</linearGradient>
				<path id="Path_1271" fill="url(#Path_1271_1_)" d="M758.5,133.4l-2.3-1.3v-2.3l2.3,1.3V133.4z"/>
				<path id="Path_1272" fill="#4367C7" d="M774.2,129.1l-12.1-6.9v-0.7l12.1,6.9V129.1z"/>
				<path id="Path_1273" fill="#4367C7" d="M774.2,130.7l-12.1-6.9v-0.7l12.1,6.9V130.7z"/>
				<path id="Path_1274" fill="#4367C7" d="M774.2,132.4l-12.1-6.9v-0.7l12.1,6.9V132.4z"/>
				<path id="Path_1275" fill="#4367C7" d="M773.9,134l-12.1-6.9v-0.7l12.1,6.9V134z"/>
				<path id="Path_1276" fill="#4367C7" d="M774.2,136.3l-12.1-6.9v-0.7l12.1,6.9V136.3z"/>
				<path id="Path_1277" fill="#4367C7" d="M774.2,137.9l-12.1-6.9v-0.7l12.1,6.9V137.9z"/>
				<path id="Path_1278" fill="#4367C7" d="M774.2,139.6l-12.1-6.9V132l12.1,6.9V139.6z"/>
				<path id="Path_1279" fill="#4367C7" d="M773.9,140.9l-12.1-6.9v-0.7l12.1,6.9V140.9z"/>
				<path id="Path_1280" fill="#4367C7" d="M707.3,129.1l-25.9-14.4v-2l25.9,14.8V129.1L707.3,129.1z"/>
				<g id="Group_104">
					<path id="Path_1281" fill="#4367C7" d="M717.8,141.9l-36.4-20.7v-2l36.4,20.7V141.9z"/>
					<path id="Path_1282" fill="#4367C7" d="M717.8,145.8l-36.4-20.7v-2l36.4,20.7V145.8z"/>
					<path id="Path_1283" fill="#4367C7" d="M717.8,149.8l-36.4-20.7v-2l36.4,20.7V149.8z"/>
					<path id="Path_1284" fill="#4367C7" d="M717.8,153.7L681.4,133v-2l36.4,20.7V153.7z"/>
					<path id="Path_1285" fill="#4367C7" d="M717.8,157.6L681.4,137v-2l36.4,20.7V157.6z"/>
				</g>
				<g id="Group_105">
					<path id="Path_1286" fill="#4367C7" d="M774.5,174l-36.4-20.7v-2l36.4,20.7V174z"/>
					<path id="Path_1287" fill="#4367C7" d="M774.5,178l-36.4-20.7v-2l36.4,20.7V178z"/>
					<path id="Path_1288" fill="#4367C7" d="M774.5,181.9l-36.4-20.7v-2l36.4,20.7V181.9z"/>
					<path id="Path_1289" fill="#4367C7" d="M774.5,185.8l-36.4-20.7v-2l36.4,20.7V185.8z"/>
					<path id="Path_1290" fill="#4367C7" d="M774.5,189.8l-36.4-20.7v-2l36.4,20.7V189.8z"/>
				</g>
				<g id="Group_106">
					<path id="Path_1291" fill="#4367C7" d="M774.5,151.7l-21-11.8v-2l21,11.8V151.7z"/>
					<path id="Path_1292" fill="#4367C7" d="M774.5,155.7l-21-11.8v-2l21,11.8V155.7z"/>
					<path id="Path_1293" fill="#4367C7" d="M774.5,159.6l-21-11.8v-2l21,11.8V159.6z"/>
					<path id="Path_1294" fill="#4367C7" d="M774.5,163.5l-21-11.8v-2l21,11.8V163.5z"/>
					<path id="Path_1295" fill="#4367C7" d="M774.5,167.5l-21-11.8v-2l21,11.8V167.5z"/>
				</g>
				<path id="Path_1296" fill="#4367C7" d="M733.9,166.8l-12.5-7.2v-17.7l12.5,7.2V166.8z"/>
			</g>
		</g>
		<g id="Group_110">
			<g id="Group_109">
				<path id="Path_1297" fill="#FF5C98" d="M731.6,263.9l-21.6,3.9l-21.3-3.9c0,0,0,2.3,7.9,19.7c0,0.3,0.3,0.7,0.3,1l0,0l0,0
					c0.7,1.3,2,2.3,3.3,3c5.2,3,14.1,3,19.3,0c2.3-1.3,3.6-3,3.9-4.6C731.6,266.2,731.6,263.9,731.6,263.9z"/>
				<ellipse id="Ellipse_39" fill="#FF82B0" cx="710.2" cy="262.6" rx="21.6" ry="12.1"/>
				<path id="Path_1298" fill="#2D4483" d="M710.2,272.1c-5.2,0-10.2-1-13.8-3.3c-3-1.6-4.9-3.9-4.9-6.2s1.6-4.3,4.9-6.2
					c3.6-2,8.5-3.3,13.8-3.3c5.2,0,10.2,1,13.8,3.3c3,1.6,4.9,3.9,4.9,6.2s-1.6,4.3-4.9,6.2C720.4,270.8,715.5,272.1,710.2,272.1z"
					/>
			</g>
			<path id="Path_1299" fill="none" stroke="#FF5C98" stroke-width="2" stroke-miterlimit="10" d="M727,273.1c1-1,6.9-5.6,9.5-2.6
				c2.6,3-3.9,10.2-14.8,9.5"/>
		</g>
		<g id="Group_112">
			
				<linearGradient id="Path_1300_1_" gradientUnits="userSpaceOnUse" x1="338.1107" y1="-803.4914" x2="338.4508" y2="-802.8995" gradientTransform="matrix(132.5811 0 0 45.1162 -44250.9375 36467.5703)">
				<stop  offset="0" style="stop-color:#FFFFFF"/>
				<stop  offset="1" style="stop-color:#2D4483"/>
			</linearGradient>
			<path id="Path_1300" fill="url(#Path_1300_1_)" d="M620.7,229.8v2c0,2.6-1.6,5.2-5.2,7.2c-7.2,3.9-18.4,3.9-25.6,0
				c-3.6-2-5.2-4.6-5.2-7.2v-2c0,2.6,1.6,5.2,5.2,7.2c7.2,3.9,18.4,3.9,25.6,0C618.8,235,620.7,232.1,620.7,229.8z"/>
			<path id="Path_1301" fill="#6EAAE6" d="M615.5,222.6c7.2,3.9,7.2,10.5,0,14.4c-6.9,3.9-18.4,3.9-25.6,0c-7.2-3.9-7.2-10.5,0-14.4
				C596.8,218.3,608.3,218.3,615.5,222.6z"/>
			
				<linearGradient id="Path_1302_1_" gradientUnits="userSpaceOnUse" x1="334.8727" y1="-792.1121" x2="335.2987" y2="-791.6942" gradientTransform="matrix(108.3045 0 0 61.2798 -35681.4492 48761.2109)">
				<stop  offset="0" style="stop-color:#FFFFFF"/>
				<stop  offset="1" style="stop-color:#5986FF"/>
			</linearGradient>
			<path id="Path_1302" fill="url(#Path_1302_1_)" d="M612.8,223.5c5.9,3.3,5.9,8.5,0,11.8c-5.9,3.3-15.1,3.3-20.7,0
				c-5.6-3.3-5.9-8.5,0-11.8C598.1,220.3,607.3,220.6,612.8,223.5z"/>
			<g id="Group_111">
				<path id="Path_1303" fill="#6EAAE6" d="M595.8,226.2l-2-1l1.3-1l2,1c1.6-1,3.6-1.3,5.6-1.6l1,1.3c-1.6,0-3.3,0.3-4.6,1.3l3.6,2
					c2.3-1,4.9-1.6,7.2-0.3c1.6,1,2,2.6-0.3,4.3l2,1l-1.3,1l-2-1c-1.3,0.7-3,1.3-4.6,1.3l-1-1.3c1.3-0.3,2.6-0.3,3.6-1l-3.6-2
					c-2.3,1-4.9,1.6-7.2,0.3C593.5,229.4,593.5,227.8,595.8,226.2z M604.6,229.4l3,1.6c1-1,1-1.3,0.3-2
					C606.9,228.8,605.6,229.1,604.6,229.4z M597.4,229.1c1,0.3,2,0.3,3.3,0l-3-1.6C596.8,228.1,596.8,228.5,597.4,229.1z"/>
			</g>
		</g>
	</g>
</g>
<g enable-background="new    ">
	<path fill="#FFFFFF" d="M83.1,321.8c-0.1,0.4-0.1,0.8-0.2,1.2c-0.1,0.4-0.1,0.9-0.1,1.4c0,0.5,0.1,1,0.2,1.4
		c0.1,0.4,0.4,0.8,0.8,1.1c0.2,0.2,0.5,0.3,0.9,0.5s0.8,0.2,1.4,0.3c0.6,0.1,1.3,0.1,2.1,0.1c0.8,0,1.9,0,3,0c1,0,1.9,0,2.7-0.1
		s1.4-0.2,1.9-0.3c0.5-0.2,0.9-0.5,1.1-0.8c0.3-0.4,0.4-0.9,0.4-1.5v-5.7h1.9v5.7c0,0.8-0.1,1.5-0.3,2c-0.2,0.5-0.5,1-0.9,1.4
		c-0.4,0.4-0.8,0.6-1.3,0.8c-0.5,0.2-1.1,0.3-1.7,0.4c-0.6,0.1-1.3,0.2-2,0.2c-0.7,0-1.4,0-2.2,0c-1.1,0-2.1,0-2.9,0
		c-0.9,0-1.7-0.1-2.4-0.2c-0.7-0.1-1.3-0.2-1.9-0.4s-1-0.5-1.4-0.8c-0.5-0.5-0.9-1.1-1-1.7s-0.3-1.4-0.3-2.2c0-0.5,0-1,0.1-1.5
		c0.1-0.5,0.2-1,0.2-1.4H83.1z M89.3,316.4h-2.2V314h2.2V316.4z M93.2,316.4H91V314h2.2V316.4z"/>
	<path fill="#FFFFFF" d="M107.6,330h-0.2c-0.8,0-1.5-0.1-2-0.4c-0.5-0.3-0.9-0.6-1.2-1.1c-0.3-0.4-0.5-1-0.6-1.5s-0.1-1.2-0.1-1.8
		v-15.3h1.9v14.6c0,0.6,0,1.1,0.1,1.5c0,0.4,0.1,0.8,0.3,1c0.2,0.3,0.4,0.5,0.7,0.6c0.3,0.1,0.7,0.2,1.2,0.2V330z"/>
	<path fill="#FFFFFF" d="M113.6,324.4c0,0.6,0,1.1,0.1,1.5c0,0.4,0.2,0.8,0.3,1s0.4,0.5,0.7,0.6c0.3,0.1,0.7,0.2,1.2,0.2v2.2h-0.3
		c-0.8,0-1.4-0.1-1.9-0.4c-0.5-0.3-0.8-0.7-1.1-1.2h0c-0.2,0.3-0.4,0.6-0.7,0.8c-0.3,0.2-0.5,0.4-0.8,0.5c-0.3,0.1-0.6,0.2-0.8,0.3
		c-0.3,0.1-0.6,0.1-0.8,0.1h-1.7c-0.3,0-0.5-0.1-0.6-0.3c-0.1-0.2-0.2-0.5-0.2-0.8s0.1-0.5,0.2-0.8c0.1-0.2,0.4-0.3,0.6-0.3h1.8
		c0.2,0,0.5,0,0.8-0.1s0.5-0.2,0.7-0.4c0.2-0.2,0.4-0.4,0.6-0.8c0.1-0.3,0.2-0.7,0.2-1.2v-5.8h1.9V324.4z M110.8,334.4h-2.2V332h2.2
		V334.4z M114.6,334.4h-2.2V332h2.2V334.4z"/>
	<path fill="#FFFFFF" d="M115.8,330c-0.3,0-0.5-0.1-0.6-0.3c-0.1-0.2-0.2-0.5-0.2-0.8s0.1-0.5,0.2-0.8c0.1-0.2,0.4-0.3,0.6-0.3h0.7
		c1,0,1.9-0.1,2.8-0.4c0.9-0.2,1.8-0.6,2.6-0.9c0.8-0.4,1.6-0.8,2.4-1.3c0.8-0.5,1.5-1,2.2-1.5v-0.1c-0.5-0.2-0.9-0.5-1.3-0.7
		c-0.4-0.2-0.8-0.4-1.2-0.6c-0.4-0.2-0.9-0.3-1.4-0.5s-1.1-0.2-1.8-0.2c-0.6,0-1.2,0-1.7,0.1c-0.5,0.1-1,0.2-1.4,0.3v-2.1
		c0.4-0.2,0.9-0.3,1.5-0.4c0.5-0.1,1.1-0.2,1.7-0.2c0.6,0,1.2,0.1,1.7,0.2c0.5,0.1,1,0.3,1.4,0.5s0.8,0.4,1.2,0.6
		c0.4,0.2,0.8,0.4,1.2,0.6c0.4,0.2,0.9,0.4,1.4,0.5c0.5,0.1,1,0.2,1.7,0.2l-0.4,2.6c-0.3,0.1-0.5,0.2-0.9,0.4
		c-0.3,0.2-0.7,0.4-1.1,0.7c0,0.4,0.1,0.7,0.1,1c0.1,0.3,0.2,0.5,0.4,0.6s0.5,0.3,0.9,0.3c0.4,0.1,0.9,0.1,1.5,0.1v2.2H130
		c-0.8,0-1.4-0.1-1.9-0.3c-0.5-0.2-0.9-0.4-1.2-0.7c-0.3-0.3-0.5-0.7-0.6-1.1c-0.1-0.4-0.2-0.8-0.2-1.3c-0.6,0.4-1.2,0.8-1.9,1.2
		c-0.7,0.4-1.4,0.8-2.2,1.1c-0.8,0.3-1.7,0.6-2.6,0.8c-0.9,0.2-1.9,0.3-2.9,0.3H115.8z M124.1,334.4h-2.2V332h2.2V334.4z"/>
	<path fill="#FFFFFF" d="M130.2,330c-0.3,0-0.5-0.1-0.6-0.3c-0.1-0.2-0.2-0.5-0.2-0.8s0.1-0.5,0.2-0.8c0.1-0.2,0.4-0.3,0.6-0.3h0.3
		c0.5,0,0.9-0.1,1.3-0.3c0.3-0.2,0.6-0.4,0.9-0.7c0.2-0.3,0.4-0.6,0.6-0.9s0.2-0.6,0.3-0.8c0.2-0.4,0.4-0.9,0.6-1.4
		c0.2-0.5,0.5-1,0.8-1.4c0.3-0.4,0.7-0.8,1.2-1.1c0.5-0.3,1.1-0.4,1.8-0.4c0.8,0,1.4,0.2,2,0.5c0.6,0.3,1,0.8,1.4,1.3
		c0.4,0.5,0.6,1.1,0.8,1.6s0.3,1.1,0.3,1.6c0,0.5-0.1,1-0.3,1.5c-0.2,0.5-0.4,0.9-0.8,1.3c-0.3,0.4-0.8,0.7-1.3,0.9
		c-0.5,0.2-1.1,0.4-1.8,0.4c-0.4,0-0.8,0-1.2-0.2c-0.4-0.1-0.8-0.2-1.1-0.4c-0.4-0.2-0.7-0.4-1-0.6c-0.3-0.2-0.6-0.5-0.8-0.8
		c-0.4,0.7-0.9,1.2-1.6,1.5c-0.6,0.3-1.3,0.4-2.1,0.4H130.2z M134.9,326.4c0.3,0.5,0.8,0.8,1.4,1c0.6,0.2,1.2,0.4,1.9,0.4
		c0.8,0,1.3-0.1,1.8-0.4s0.6-0.8,0.6-1.4c0-0.3-0.1-0.6-0.2-1c-0.1-0.3-0.3-0.7-0.5-1c-0.2-0.3-0.5-0.6-0.8-0.8
		c-0.3-0.2-0.7-0.3-1.2-0.3c-0.4,0-0.8,0.1-1.1,0.3c-0.3,0.2-0.6,0.4-0.8,0.7c-0.3,0.3-0.5,0.7-0.6,1.1
		C135.2,325.5,135,325.9,134.9,326.4z"/>
	<path fill="#FFFFFF" d="M152.9,327.8v2.2h-0.3c-0.5,0-0.9-0.1-1.2-0.2c-0.3-0.2-0.5-0.4-0.7-0.7l-0.1,0c0,1.2-0.1,2.3-0.4,3.2
		c-0.3,0.9-0.6,1.7-1.1,2.3s-1.1,1.1-1.7,1.4s-1.4,0.5-2.2,0.5c-0.4,0-0.8,0-1.3-0.1c-0.4-0.1-0.9-0.2-1.3-0.4v-2.2
		c1,0.3,1.8,0.5,2.6,0.5c0.7,0,1.3-0.1,1.7-0.4c0.5-0.3,0.8-0.6,1.1-1.1c0.3-0.5,0.5-1,0.6-1.7c0.1-0.6,0.2-1.3,0.2-2.1
		c0-0.7,0-1.3-0.1-1.9c-0.1-0.6-0.2-1.2-0.3-1.8c-0.1-0.6-0.3-1.2-0.4-1.8c-0.2-0.6-0.3-1.1-0.5-1.7h1.9c0.2,0.7,0.4,1.3,0.6,2
		c0.2,0.7,0.3,1.4,0.4,2.1c0,0.3,0.1,0.6,0.2,0.8c0.1,0.2,0.3,0.4,0.5,0.6c0.2,0.1,0.4,0.3,0.7,0.3
		C152.1,327.8,152.4,327.8,152.9,327.8z"/>
	<path fill="#FFFFFF" d="M158.8,324.4c0,0.6,0,1.1,0.1,1.5c0,0.4,0.2,0.8,0.3,1s0.4,0.5,0.7,0.6c0.3,0.1,0.7,0.2,1.2,0.2v2.2h-0.3
		c-0.8,0-1.4-0.1-1.9-0.4c-0.5-0.3-0.8-0.7-1.1-1.2h0c-0.2,0.3-0.4,0.6-0.7,0.8c-0.3,0.2-0.5,0.4-0.8,0.5c-0.3,0.1-0.6,0.2-0.8,0.3
		c-0.3,0.1-0.6,0.1-0.8,0.1h-1.7c-0.3,0-0.5-0.1-0.6-0.3c-0.1-0.2-0.2-0.5-0.2-0.8s0.1-0.5,0.2-0.8c0.1-0.2,0.4-0.3,0.6-0.3h1.8
		c0.2,0,0.5,0,0.8-0.1s0.5-0.2,0.7-0.4c0.2-0.2,0.4-0.4,0.6-0.8c0.1-0.3,0.2-0.7,0.2-1.2v-5.8h1.9V324.4z M158.6,334.4h-2.2V332h2.2
		V334.4z"/>
	<path fill="#FFFFFF" d="M167.1,324.4c0,0.6,0,1.1,0.1,1.5c0,0.4,0.2,0.8,0.3,1s0.4,0.5,0.7,0.6c0.3,0.1,0.7,0.2,1.2,0.2v2.2H169
		c-0.8,0-1.4-0.1-1.9-0.4c-0.5-0.3-0.8-0.7-1-1.2h0c-0.2,0.3-0.5,0.6-0.7,0.8c-0.3,0.2-0.5,0.4-0.8,0.5s-0.6,0.2-0.9,0.3
		c-0.3,0.1-0.6,0.1-0.8,0.1h-1.7c-0.3,0-0.5-0.1-0.6-0.3c-0.1-0.2-0.2-0.5-0.2-0.8s0.1-0.5,0.2-0.8c0.1-0.2,0.4-0.3,0.6-0.3h1.8
		c0.2,0,0.5,0,0.8-0.1s0.5-0.2,0.7-0.4c0.2-0.2,0.4-0.4,0.6-0.8c0.1-0.3,0.2-0.7,0.2-1.2v-15.5h1.9V324.4z"/>
	<path fill="#FFFFFF" d="M171.1,327.8c0.4,0,0.7,0,1-0.1c0.3-0.1,0.5-0.2,0.7-0.4c0.2-0.2,0.3-0.4,0.4-0.7s0.1-0.7,0.1-1.2v-15.5
		h1.9v15.6c0,0.7-0.1,1.2-0.2,1.7s-0.3,0.9-0.5,1.2s-0.4,0.6-0.7,0.8c-0.3,0.2-0.6,0.4-0.9,0.5c-0.3,0.1-0.6,0.2-1,0.2
		s-0.7,0.1-1.1,0.1h-1.7c-0.3,0-0.5-0.1-0.6-0.3c-0.1-0.2-0.2-0.5-0.2-0.8s0.1-0.5,0.2-0.8c0.1-0.2,0.4-0.3,0.6-0.3H171.1z"/>
	<path fill="#FFFFFF" d="M198.2,323.9c0.3,1.6,0.4,3.1,0.4,4.5c0,1.3-0.1,2.4-0.3,3.4c-0.2,1-0.6,1.8-1.1,2.5s-1.2,1.2-2.1,1.6
		c-0.9,0.4-1.9,0.6-3.2,0.6c-1.1,0-2-0.2-2.7-0.5c-0.7-0.3-1.3-0.7-1.8-1.3s-0.8-1.2-0.9-2c-0.2-0.8-0.3-1.7-0.3-2.7
		c0-0.6,0-1.1,0.1-1.7c0.1-0.6,0.1-1.2,0.3-1.9h1.8c-0.1,0.7-0.2,1.3-0.2,1.8c0,0.6-0.1,1.1-0.1,1.6c0,0.8,0.1,1.5,0.2,2.1
		c0.1,0.6,0.4,1,0.7,1.4c0.3,0.4,0.7,0.6,1.2,0.8c0.5,0.2,1.1,0.2,1.8,0.2c0.8,0,1.6-0.1,2.2-0.3c0.6-0.2,1.1-0.6,1.5-1
		c0.4-0.5,0.7-1.1,0.8-1.9s0.3-1.7,0.3-2.9c0-0.6,0-1.3-0.1-1.9c-0.1-0.7-0.2-1.5-0.3-2.3H198.2z M193.5,320.9h-2.2v-2.4h2.2V320.9z
		"/>
	<path fill="#FFFFFF" d="M206.9,330h-0.2c-0.8,0-1.5-0.1-2-0.4c-0.5-0.3-0.9-0.6-1.2-1.1c-0.3-0.4-0.5-1-0.6-1.5s-0.1-1.2-0.1-1.8
		v-15.3h1.9v14.6c0,0.6,0,1.1,0.1,1.5c0,0.4,0.1,0.8,0.3,1c0.2,0.3,0.4,0.5,0.7,0.6c0.3,0.1,0.7,0.2,1.2,0.2V330z"/>
	<path fill="#FFFFFF" d="M211.9,327.7c-0.6-0.3-1.1-0.5-1.5-0.8s-0.7-0.6-0.9-1c-0.2-0.3-0.4-0.7-0.5-1.1c-0.1-0.4-0.1-0.8-0.1-1.2
		c0-0.6,0.1-1.2,0.3-1.8c0.2-0.6,0.5-1.2,0.8-1.7c0.3-0.5,0.7-1,1.2-1.3s1-0.5,1.5-0.5c0.6,0,1.1,0.2,1.6,0.5
		c0.5,0.4,0.9,0.9,1.4,1.7c0.2,0.3,0.3,0.6,0.5,0.9s0.3,0.7,0.4,1c0.1,0.4,0.2,0.7,0.3,1.1c0.1,0.4,0.1,0.8,0.1,1.2
		c0,0.6-0.1,1.1-0.2,1.5c-0.1,0.4-0.3,0.8-0.5,1.2c0.4,0.1,0.9,0.1,1.4,0.1c0.5,0,1,0,1.5,0v2.2H219c-0.4,0-0.7,0-1.1,0
		c-0.4,0-0.8-0.1-1.1-0.1s-0.8-0.1-1.1-0.2s-0.7-0.2-1-0.3c-0.4,0.2-0.8,0.3-1.3,0.4s-0.9,0.2-1.4,0.2c-0.5,0-0.9,0.1-1.4,0.1
		s-0.9,0-1.3,0h-2.3c-0.3,0-0.5-0.1-0.6-0.3c-0.1-0.2-0.2-0.5-0.2-0.8s0.1-0.5,0.2-0.8c0.1-0.2,0.4-0.3,0.6-0.3h2.4
		c0.4,0,0.8,0,1.3,0S211.5,327.8,211.9,327.7L211.9,327.7z M211.7,314.9h-2.2v-2.4h2.2V314.9z M215.1,325c0-0.3,0-0.5-0.1-0.8
		c-0.1-0.3-0.1-0.6-0.3-0.9c-0.1-0.3-0.2-0.6-0.4-0.9c-0.2-0.3-0.3-0.6-0.5-0.8c-0.2-0.2-0.4-0.4-0.6-0.6c-0.2-0.1-0.4-0.2-0.6-0.2
		c-0.2,0-0.5,0.1-0.7,0.2c-0.2,0.2-0.4,0.4-0.6,0.6s-0.3,0.6-0.4,0.9s-0.2,0.7-0.2,1c0,0.3,0,0.6,0.1,0.8s0.3,0.6,0.6,0.9
		s0.6,0.6,1.1,0.9c0.5,0.3,1.1,0.7,1.8,1.1c0.3-0.2,0.4-0.5,0.5-0.8C215.1,326,215.1,325.5,215.1,325z M215.6,314.9h-2.2v-2.4h2.2
		V314.9z"/>
	<path fill="#FFFFFF" d="M221.1,327.8c0.4,0,0.7,0,1-0.1c0.3-0.1,0.5-0.2,0.7-0.4c0.2-0.2,0.3-0.4,0.4-0.7s0.1-0.7,0.1-1.2v-5.8h1.9
		v5.9c0,0.7-0.1,1.2-0.2,1.7s-0.3,0.9-0.5,1.2s-0.4,0.6-0.7,0.8c-0.3,0.2-0.6,0.4-0.9,0.5c-0.3,0.1-0.6,0.2-1,0.2s-0.7,0.1-1.1,0.1
		h-1.7c-0.3,0-0.5-0.1-0.6-0.3c-0.1-0.2-0.2-0.5-0.2-0.8s0.1-0.5,0.2-0.8c0.1-0.2,0.4-0.3,0.6-0.3H221.1z M223.4,316.4h-2.2V314h2.2
		V316.4z M227.2,316.4H225V314h2.2V316.4z"/>
	<path fill="#FFFFFF" d="M234.2,329.3l-5.4-17.5h2l5.3,17.5H234.2z"/>
	<path fill="#FFFFFF" d="M228.4,327.6c1,0.1,2,0.2,2.9,0.3c0.9,0,1.8,0.1,2.7,0.1c0.6,0,1.2,0,1.7,0s0.9-0.1,1.2-0.3
		c0.3-0.2,0.5-0.4,0.7-0.8c0.2-0.3,0.2-0.8,0.2-1.5v-15.5h1.9v15.6c0,0.8-0.1,1.4-0.2,1.9c-0.1,0.5-0.3,1-0.6,1.3
		c-0.3,0.3-0.6,0.6-0.9,0.8c-0.4,0.2-0.8,0.3-1.2,0.4c-0.4,0.1-0.9,0.1-1.4,0.2c-0.5,0-1.1,0-1.6,0c-0.8,0-1.6,0-2.4-0.1
		s-1.6-0.1-2.4-0.3L228.4,327.6z"/>
	<path fill="#FFFFFF" d="M243.9,309.9h1.9v19.9h-1.9V309.9z"/>
	<path fill="#FFFFFF" d="M248,333.3c0.9,0.4,1.6,0.7,2.3,0.8c0.7,0.2,1.4,0.2,2,0.2c0.8,0,1.4-0.1,1.9-0.4c0.5-0.3,0.9-0.7,1.2-1.1
		c0.3-0.5,0.5-1,0.6-1.5c0.1-0.6,0.2-1.1,0.2-1.7c-0.7,0.3-1.4,0.5-2.1,0.5c-0.5,0-1-0.1-1.5-0.3c-0.5-0.2-0.9-0.4-1.3-0.8
		c-0.4-0.3-0.7-0.8-0.9-1.3c-0.2-0.5-0.3-1.1-0.3-1.7c0-0.6,0.1-1.2,0.3-1.8c0.2-0.6,0.5-1.2,0.8-1.7c0.3-0.5,0.7-1,1.2-1.3
		s1-0.5,1.5-0.5c0.6,0,1.1,0.2,1.6,0.6c0.5,0.4,0.9,0.9,1.4,1.7c0.4,0.7,0.8,1.6,1,2.7s0.3,2.1,0.3,3.3c0,1-0.1,2-0.3,2.9
		c-0.2,0.9-0.5,1.7-1,2.5c-0.5,0.7-1.1,1.3-1.8,1.7c-0.7,0.4-1.6,0.6-2.7,0.6c-0.7,0-1.4-0.1-2.1-0.3c-0.7-0.2-1.4-0.5-2.2-0.9
		V333.3z M256.2,327.4c0-0.2,0-0.5-0.1-0.8c-0.1-0.3-0.1-0.6-0.3-0.9s-0.2-0.7-0.4-1c-0.1-0.3-0.3-0.6-0.5-0.9
		c-0.2-0.3-0.4-0.5-0.6-0.6c-0.2-0.2-0.4-0.2-0.6-0.2c-0.2,0-0.5,0.1-0.7,0.2c-0.2,0.2-0.4,0.4-0.6,0.6s-0.3,0.6-0.4,0.9
		c-0.1,0.3-0.2,0.7-0.2,1c0,0.3,0.1,0.6,0.2,0.9c0.1,0.3,0.3,0.5,0.5,0.7c0.2,0.2,0.5,0.3,0.8,0.4c0.3,0.1,0.6,0.1,0.9,0.1
		c0.3,0,0.6,0,0.9-0.1C255.6,327.7,255.9,327.6,256.2,327.4z"/>
	<path fill="#FFFFFF" d="M275.3,316.9h1.9v7.7c0,0.5,0,1,0.1,1.4c0.1,0.4,0.2,0.7,0.3,1c0.2,0.3,0.4,0.5,0.7,0.6s0.7,0.2,1.1,0.2
		v2.2h-0.3c-0.4,0-0.9-0.1-1.3-0.2s-0.8-0.3-1.1-0.5c-0.3-0.2-0.6-0.5-0.8-0.9s-0.4-0.8-0.5-1.3c-0.3,0.1-0.7,0.3-1.1,0.3
		c-0.4,0.1-0.8,0.1-1.1,0.1c-0.6,0-1.1-0.1-1.6-0.2c-0.5-0.1-1-0.4-1.4-0.7c-0.4-0.3-0.7-0.7-0.9-1.2c-0.2-0.5-0.3-1-0.3-1.7
		c0-0.8,0.2-1.6,0.5-2.2c0.4-0.6,0.8-1.2,1.4-1.6c0.6-0.5,1.3-0.8,2-1.1c0.8-0.3,1.5-0.5,2.3-0.6V316.9z M272.9,314.1h-2.2v-2.4h2.2
		V314.1z M270.8,323.6c0,0.3,0.1,0.6,0.2,0.8c0.1,0.2,0.3,0.4,0.6,0.6s0.5,0.2,0.8,0.3c0.3,0.1,0.6,0.1,1,0.1c0.3,0,0.6,0,1-0.1
		c0.3,0,0.6-0.1,0.9-0.2v-4.9c-0.6,0.1-1.2,0.3-1.7,0.5s-1,0.5-1.4,0.7c-0.4,0.3-0.7,0.6-1,1S270.8,323.1,270.8,323.6z M276.8,314.1
		h-2.2v-2.4h2.2V314.1z"/>
	<path fill="#FFFFFF" d="M292.5,327.6c-1,0.5-1.9,0.9-2.7,1.2c-0.9,0.3-1.7,0.6-2.5,0.7s-1.6,0.3-2.4,0.4s-1.6,0.1-2.4,0.1h-3
		c-0.3,0-0.5-0.1-0.6-0.3c-0.1-0.2-0.2-0.5-0.2-0.8s0.1-0.5,0.2-0.8c0.1-0.2,0.4-0.3,0.6-0.3h4.4l0-0.1c-0.5-0.4-0.9-0.9-1.2-1.3
		c-0.3-0.4-0.6-0.9-0.7-1.3s-0.3-0.8-0.4-1.1s-0.1-0.7-0.1-1c0-0.7,0.1-1.3,0.4-2c0.3-0.6,0.7-1.2,1.2-1.6s1.2-0.8,1.9-1.1
		c0.8-0.3,1.6-0.4,2.6-0.4c0.3,0,0.7,0,1,0.1c0.4,0,0.7,0.1,1.1,0.2v2.2c-0.4-0.1-0.8-0.1-1.1-0.2c-0.4,0-0.8-0.1-1.2-0.1
		c-0.5,0-1,0-1.5,0.1c-0.5,0.1-0.9,0.2-1.3,0.5s-0.7,0.5-0.9,0.9c-0.2,0.4-0.3,0.9-0.3,1.5c0,0.3,0,0.6,0.1,0.9
		c0.1,0.3,0.2,0.7,0.5,1c0.2,0.4,0.5,0.7,0.9,1.1c0.4,0.4,0.8,0.8,1.4,1.2c1-0.2,2-0.5,3-0.9c1-0.4,2.1-0.8,3.2-1.4L292.5,327.6z"/>
	<path fill="#FFFFFF" d="M295.9,309.9h1.9v19.9h-1.9V309.9z"/>
	<path fill="#FFFFFF" d="M308.2,327.8v2.2h-0.3c-0.5,0-0.9-0.1-1.2-0.2c-0.3-0.2-0.5-0.4-0.7-0.7l-0.1,0c0,1.2-0.1,2.3-0.4,3.2
		c-0.3,0.9-0.6,1.7-1.1,2.3s-1.1,1.1-1.7,1.4s-1.4,0.5-2.2,0.5c-0.4,0-0.8,0-1.3-0.1c-0.4-0.1-0.9-0.2-1.3-0.4v-2.2
		c1,0.3,1.8,0.5,2.6,0.5c0.7,0,1.3-0.1,1.7-0.4c0.5-0.3,0.8-0.6,1.1-1.1c0.3-0.5,0.5-1,0.6-1.7c0.1-0.6,0.2-1.3,0.2-2.1
		c0-0.7,0-1.3-0.1-1.9c-0.1-0.6-0.2-1.2-0.3-1.8c-0.1-0.6-0.3-1.2-0.4-1.8c-0.2-0.6-0.3-1.1-0.5-1.7h1.9c0.2,0.7,0.4,1.3,0.6,2
		c0.2,0.7,0.3,1.4,0.4,2.1c0,0.3,0.1,0.6,0.2,0.8c0.1,0.2,0.3,0.4,0.5,0.6c0.2,0.1,0.4,0.3,0.7,0.3
		C307.4,327.8,307.8,327.8,308.2,327.8z"/>
	<path fill="#FFFFFF" d="M314.2,324.4c0,0.6,0,1.1,0.1,1.5c0,0.4,0.2,0.8,0.3,1s0.4,0.5,0.7,0.6c0.3,0.1,0.7,0.2,1.2,0.2v2.2h-0.3
		c-0.8,0-1.4-0.1-1.9-0.4c-0.5-0.3-0.8-0.7-1.1-1.2h0c-0.2,0.3-0.4,0.6-0.7,0.8c-0.3,0.2-0.5,0.4-0.8,0.5c-0.3,0.1-0.6,0.2-0.8,0.3
		c-0.3,0.1-0.6,0.1-0.8,0.1h-1.7c-0.3,0-0.5-0.1-0.6-0.3c-0.1-0.2-0.2-0.5-0.2-0.8s0.1-0.5,0.2-0.8c0.1-0.2,0.4-0.3,0.6-0.3h1.8
		c0.2,0,0.5,0,0.8-0.1s0.5-0.2,0.7-0.4c0.2-0.2,0.4-0.4,0.6-0.8c0.1-0.3,0.2-0.7,0.2-1.2v-5.8h1.9V324.4z M314,334.4h-2.2V332h2.2
		V334.4z"/>
	<path fill="#FFFFFF" d="M318.3,327.8c0.4,0,0.7,0,1-0.1c0.3-0.1,0.5-0.2,0.7-0.4c0.2-0.2,0.3-0.4,0.4-0.7s0.1-0.7,0.1-1.2v-15.5
		h1.9v15.6c0,0.7-0.1,1.2-0.2,1.7s-0.3,0.9-0.5,1.2s-0.4,0.6-0.7,0.8c-0.3,0.2-0.6,0.4-0.9,0.5c-0.3,0.1-0.6,0.2-1,0.2
		s-0.7,0.1-1.1,0.1h-1.7c-0.3,0-0.5-0.1-0.6-0.3c-0.1-0.2-0.2-0.5-0.2-0.8s0.1-0.5,0.2-0.8c0.1-0.2,0.4-0.3,0.6-0.3H318.3z"/>
	<path fill="#FFFFFF" d="M326.7,309.9h1.9v19.9h-1.9V309.9z"/>
</g>
<path id="Path_1464" fill="#FFFFFF" d="M281.7,277.9c1,0.5,1.9,1.1,2.7,1.9c0.6,0.7,0.9,1.5,0.8,2.3c0,1.5-0.8,3-2.2,4.1
	c-1.5,1.2-3.6,2.3-6.4,3.1l-0.5-1.1c1.3-0.5,2.5-1.2,3.7-2c0.8-0.5,1.2-1.3,1.2-2.1c0-1-0.7-1.8-2.2-2.3c-0.5-0.1-0.8-0.3-0.8-0.4
	c0-0.1,0.3-0.4,0.9-0.9C280.1,279.7,280.9,278.8,281.7,277.9z M55.7,270.3c2.5-0.1,3.8-0.5,3.8-1.1c0-0.1-0.1-0.2-0.3-0.3
	c-0.2-0.1-0.4-0.2-0.6-0.3c-0.2-0.1-0.5-0.2-0.8-0.3c-0.3-0.1-0.6-0.3-0.8-0.5c-0.2-0.2-0.5-0.4-0.6-0.7c-0.2-0.3-0.3-0.6-0.3-1
	c0-0.5,0.2-1,0.6-1.3c0.4-0.4,0.9-0.8,1.5-1.1c0.7-0.3,1.4-0.6,2.2-0.8c0.9-0.2,1.8-0.4,2.7-0.5v2.3c-1,0.1-1.9,0.3-2.9,0.5
	c-0.6,0.2-0.9,0.5-0.9,0.7c0,0.1,0.1,0.2,0.3,0.3c0.2,0.1,0.4,0.2,0.6,0.3c0.2,0.1,0.5,0.2,0.8,0.3c0.3,0.1,0.6,0.3,0.8,0.4
	c0.2,0.2,0.4,0.4,0.6,0.6c0.2,0.3,0.3,0.6,0.3,0.9c0,0.4-0.2,0.8-0.4,1.2c-0.3,0.4-0.8,0.8-1.3,1.1c-0.7,0.4-1.4,0.6-2.2,0.8
	c-1,0.2-2,0.4-3.1,0.4V270.3z M74.3,275c0,0.6,0,1.2,0.1,1.6c0,0.4,0.2,0.8,0.4,1.1c0.3,0.3,0.7,0.6,1.1,0.7
	c0.7,0.2,1.4,0.2,2.1,0.2v4.9h-1c-1.1,0-2.2-0.2-3.1-0.5c-0.8-0.3-1.5-0.9-1.9-1.6h-0.1c-0.6,0.5-1.4,1-2.2,1.3
	c-0.9,0.3-1.9,0.5-2.9,0.7c-1.1,0.2-2.2,0.3-3.4,0.3c-1.2,0-2.5,0.1-3.8,0.1c-1.3,0-2.7,0-4,0c-1.3,0-2.5-0.1-3.7-0.2
	c-1.1-0.1-2.1-0.3-3.2-0.6c-0.9-0.2-1.7-0.6-2.5-1.1c-0.5-0.3-1-0.7-1.3-1.2c-0.3-0.4-0.6-0.9-0.8-1.4c-0.2-0.5-0.4-1-0.5-1.6
	c-0.1-0.5-0.1-1.1-0.1-1.6c0-0.8,0.1-1.6,0.2-2.5c0.2-0.8,0.4-1.6,0.6-2.4H49c-0.1,0.4-0.2,0.8-0.3,1.2s-0.2,0.7-0.2,1
	c-0.1,0.3-0.1,0.6-0.1,0.9c0,0.3,0,0.6,0,0.9c0,0.5,0.1,1,0.2,1.4c0.2,0.5,0.6,0.9,1.1,1.2c0.4,0.3,0.9,0.5,1.4,0.6
	c0.7,0.2,1.4,0.3,2.1,0.4c0.8,0.1,1.8,0.1,3,0.2c1.2,0,2.5,0,4.1,0c1.9,0,3.5,0,4.7-0.1c1,0,2-0.1,2.9-0.3c0.6-0.1,1.1-0.4,1.5-0.9
	c0.3-0.5,0.4-1,0.4-1.6v-20.2h4.6L74.3,275z M80.9,283.6H78c-0.5,0-1-0.3-1.1-0.7c-0.3-0.6-0.4-1.2-0.4-1.8c0-0.6,0.1-1.2,0.4-1.8
	c0.2-0.4,0.6-0.7,1.1-0.7h3.1c0.5,0,1.1,0,1.6-0.1c0.4,0,0.7-0.1,1.1-0.3c0.3-0.2,0.5-0.4,0.6-0.7c0.1-0.4,0.2-0.9,0.2-1.3v-8.5h4.6
	v7.3c0,0.6,0,1.2,0.1,1.6c0,0.4,0.2,0.8,0.4,1.1c0.3,0.3,0.7,0.6,1.1,0.7c0.7,0.2,1.4,0.2,2.1,0.2v4.9h-1c-1.1,0-2.2-0.1-3.2-0.5
	c-0.9-0.3-1.6-0.9-2-1.6h-0.1c-0.3,0.4-0.8,0.7-1.3,1c-0.4,0.3-0.9,0.5-1.4,0.6c-0.5,0.2-1,0.3-1.5,0.3
	C81.8,283.5,81.4,283.6,80.9,283.6z M85.7,264.1h-5.1v-3.8h5.1V264.1z M93.2,264.1H88v-3.8h5.1V264.1z M107.2,283.6
	c-0.7,0-1.5-0.1-2.2-0.2c-0.7-0.1-1.4-0.3-2-0.5c-0.6-0.2-1.2-0.5-1.8-0.8c-0.5-0.3-1-0.6-1.5-1c-0.7,0.9-1.8,1.5-3,1.9
	c-1.2,0.4-2.4,0.6-3.7,0.6h-0.2c-0.5,0-1-0.3-1.1-0.7c-0.3-0.6-0.4-1.2-0.4-1.8c0-0.6,0.1-1.2,0.4-1.8c0.2-0.4,0.6-0.7,1.1-0.7h0.3
	c0.8,0,1.6-0.1,2.3-0.4c0.6-0.3,1.1-0.6,1.5-1c0.4-0.4,0.8-0.9,1-1.4c0.3-0.5,0.5-1,0.8-1.5c0.4-0.7,0.8-1.4,1.3-2
	c0.5-0.6,1-1.2,1.6-1.7c0.6-0.5,1.4-0.9,2.2-1.1c0.9-0.3,1.9-0.4,2.8-0.4c1.3,0,2.6,0.2,3.7,0.7c1,0.5,1.9,1.1,2.7,1.9
	c0.7,0.8,1.3,1.6,1.6,2.5c0.3,0.9,0.5,1.8,0.5,2.8c0,0.9-0.2,1.8-0.6,2.6c-0.4,0.8-0.9,1.5-1.6,2.1c-0.7,0.6-1.6,1.1-2.5,1.4
	C109.5,283.4,108.3,283.6,107.2,283.6z M106.6,273.9c-0.5,0-1.1,0.1-1.6,0.3c-0.5,0.2-0.9,0.4-1.3,0.7c-0.4,0.3-0.7,0.7-1,1.1
	c-0.3,0.4-0.6,0.9-0.8,1.4c0.3,0.2,0.6,0.4,1,0.6c0.4,0.2,0.8,0.3,1.2,0.4c0.5,0.1,0.9,0.2,1.4,0.3c0.6,0.1,1.2,0.1,1.7,0.1
	c0.4,0,0.8,0,1.2,0c0.4,0,0.7-0.1,1.1-0.2c0.3-0.1,0.5-0.2,0.8-0.4c0.2-0.2,0.3-0.5,0.3-0.7c0-0.3-0.1-0.6-0.2-0.9
	c-0.1-0.4-0.4-0.8-0.7-1.1c-0.3-0.4-0.8-0.7-1.2-1C107.9,274,107.2,273.9,106.6,273.9z M127.5,283.6c-0.8,0-1.8,0-2.9-0.1
	s-2.3-0.2-3.6-0.4l-1.2-4.9c1.6,0.2,3.1,0.3,4.4,0.4c1.3,0.1,2.5,0.1,3.5,0.1c0.8,0,1.6,0,2.4-0.2c0.5-0.1,1-0.2,1.3-0.5
	c0.3-0.2,0.5-0.5,0.6-0.8c0.1-0.4,0.1-0.7,0.1-1.1c0-0.7-0.1-1.4-0.3-2.1c-0.2-0.9-0.5-1.8-0.9-2.9c-0.4-1.1-0.8-2.2-1.3-3.3
	c-0.5-1.2-1-2.3-1.5-3.5h5.5c0.8,2,1.5,3.9,2.1,5.6c0.6,1.7,1,3.3,1.5,4.9c0.1,0.5,0.3,0.9,0.4,1.4c0.1,0.4,0.4,0.9,0.6,1.3
	c0.3,0.4,0.7,0.7,1.1,0.9c0.6,0.3,1.2,0.4,1.9,0.4v4.9h-0.7c-0.4,0-0.9,0-1.3-0.1c-0.4-0.1-0.8-0.2-1.2-0.4
	c-0.4-0.2-0.8-0.5-1.1-0.7c-0.4-0.4-0.7-0.7-0.9-1.2H136c-0.5,0.5-1,0.9-1.6,1.2c-0.6,0.3-1.3,0.6-2,0.8c-0.8,0.2-1.5,0.3-2.3,0.4
	C129.2,283.6,128.3,283.6,127.5,283.6z M159.1,273.6c-0.6-0.3-1.2-0.6-1.9-0.8c-0.6-0.2-1.2-0.4-1.9-0.6c-0.7-0.1-1.4-0.3-2.1-0.3
	c-0.8-0.1-1.6-0.1-2.4-0.1c-1,0-2,0-2.9,0.1c-1,0.1-1.9,0.3-2.8,0.5v-4.5c1-0.2,2-0.4,3-0.6c1-0.1,2-0.2,3-0.2c1,0,2,0.1,3,0.3
	c0.8,0.2,1.7,0.4,2.5,0.6c0.7,0.3,1.5,0.5,2.2,0.9c0.7,0.3,1.4,0.6,2.1,0.9c0.4,0.1,0.7,0.3,1.1,0.4c0.4,0.1,0.9,0.2,1.3,0.3
	c0.5,0.1,1,0.1,1.6,0.2c0.6,0,1.2,0.1,1.9,0.1l-1.1,5.2c-0.6,0.1-1.3,0.4-1.8,0.6c-0.7,0.3-1.4,0.6-2.1,1c0,0.2,0.1,0.4,0.3,0.5
	c0.1,0.1,0.3,0.2,0.5,0.3c0.3,0.1,0.5,0.1,0.8,0.1c0.3,0,0.8,0,1.3,0h2.9v4.9H166c-1.1,0-2.2-0.1-3.2-0.3c-0.8-0.2-1.5-0.5-2.1-0.9
	c-0.5-0.4-1-0.8-1.3-1.4c-0.3-0.6-0.5-1.2-0.7-1.8c-1,0.5-2.1,1-3.3,1.5c-1.2,0.5-2.5,1-3.8,1.4c-1.4,0.4-2.9,0.8-4.4,1
	c-1.7,0.3-3.4,0.4-5.1,0.4h-0.9c-0.5,0-1-0.3-1.1-0.7c-0.3-0.6-0.4-1.2-0.4-1.8c0-0.6,0.1-1.2,0.4-1.8c0.2-0.4,0.6-0.7,1.1-0.7h1.1
	c1.6,0,3.2-0.1,4.8-0.4c1.5-0.3,2.9-0.6,4.3-1.1c1.3-0.5,2.6-1,3.9-1.6c1.2-0.6,2.4-1.2,3.6-1.8L159.1,273.6z M156.9,264.5h-5.1
	v-3.8h5.1V264.5z M170.2,283.6h-2.9c-0.5,0-1-0.3-1.1-0.7c-0.3-0.6-0.4-1.2-0.4-1.8c0-0.6,0.1-1.2,0.4-1.8c0.2-0.4,0.6-0.7,1.1-0.7
	h3.1c0.6,0,1.1,0,1.5-0.1c0.4,0,0.8-0.1,1.1-0.3c0.3-0.2,0.5-0.4,0.6-0.7c0.2-0.4,0.2-0.9,0.2-1.3v-8.5h4.6v8.7
	c0,1.2-0.2,2.4-0.7,3.6c-0.4,0.8-1,1.6-1.8,2.2c-0.8,0.5-1.7,0.9-2.6,1.1C172.3,283.5,171.3,283.6,170.2,283.6z M178.3,289.6h-5.1
	v-3.8h5.1V289.6z M218.5,273.3c0.2,0.8,0.3,1.5,0.4,2.1c0.1,0.6,0.2,1.2,0.3,1.7c0,0.2,0.1,0.4,0.2,0.5c0.1,0.2,0.3,0.4,0.6,0.5
	c0.4,0.2,0.8,0.3,1.2,0.4c0.7,0.1,1.3,0.2,2,0.1v4.9h-0.7c-0.4,0-0.7,0-1.1-0.1c-0.3,0-0.5-0.1-0.8-0.2c-0.2-0.1-0.4-0.2-0.6-0.3
	c-0.2-0.1-0.4-0.2-0.5-0.4l-0.2,0.1c-0.1,1.4-0.5,2.9-1,4.2c-0.5,1.2-1.3,2.2-2.3,3.1c-1,0.9-2.3,1.5-3.7,1.9
	c-1.7,0.5-3.5,0.7-5.3,0.6c-1.7,0-3.4-0.2-5-0.6c-1.3-0.4-2.4-1-3.3-1.9c-0.9-0.9-1.5-1.9-1.9-3.1c-0.4-1.4-0.6-2.8-0.6-4.2
	c0-0.4,0-0.8,0-1.3s0.1-0.9,0.1-1.4c0.1-0.5,0.2-1,0.3-1.5c0.1-0.5,0.2-1.1,0.4-1.8h4.5c-0.1,0.7-0.3,1.4-0.4,2
	c-0.1,0.6-0.2,1.1-0.2,1.5c-0.1,0.4-0.1,0.8-0.1,1.2s0,0.7,0,1c0,0.8,0.1,1.6,0.3,2.3c0.2,0.6,0.5,1.2,1,1.6c0.5,0.5,1.2,0.8,1.9,1
	c1,0.2,2.1,0.3,3.1,0.3c1.2,0,2.5-0.1,3.6-0.4c0.9-0.2,1.7-0.7,2.3-1.3c0.6-0.7,1-1.5,1.2-2.3c0.3-1.1,0.4-2.3,0.3-3.4
	c0-0.4,0-0.8,0-1.3c0-0.4-0.1-0.9-0.1-1.5c-0.1-0.5-0.2-1.1-0.3-1.8c-0.1-0.7-0.3-1.4-0.5-2.3L218.5,273.3z M210.6,270.3h-5.1v-3.8
	h5.1V270.3z M240.9,273.6c-0.6-0.3-1.2-0.6-1.9-0.8c-0.6-0.2-1.2-0.4-1.9-0.6c-0.7-0.1-1.4-0.3-2.1-0.3c-0.8-0.1-1.6-0.1-2.4-0.1
	c-1,0-2,0-2.9,0.1c-1,0.1-1.9,0.3-2.8,0.5v-4.5c1-0.2,2-0.4,3-0.6c1-0.1,2-0.2,3-0.2c1,0,2,0.1,3,0.3c0.8,0.2,1.7,0.4,2.5,0.6
	c0.7,0.3,1.5,0.5,2.2,0.9c0.7,0.3,1.4,0.6,2.1,0.9c0.4,0.1,0.7,0.3,1.1,0.4c0.4,0.1,0.9,0.2,1.3,0.3c0.5,0.1,1,0.1,1.6,0.2
	c0.6,0,1.2,0.1,1.9,0.1l-1.1,5.2c-0.6,0.1-1.3,0.4-1.8,0.6c-0.7,0.3-1.4,0.6-2.1,1c0,0.2,0.1,0.4,0.3,0.5c0.1,0.1,0.3,0.2,0.5,0.3
	c0.3,0.1,0.5,0.1,0.8,0.1c0.3,0,0.8,0,1.3,0h2.9v4.9h-1.4c-1.1,0-2.2-0.1-3.2-0.3c-0.8-0.2-1.5-0.5-2.1-0.9c-0.5-0.4-1-0.8-1.3-1.4
	c-0.3-0.6-0.5-1.2-0.7-1.8c-1,0.5-2.1,1-3.3,1.5c-1.2,0.5-2.5,1-3.8,1.4c-1.4,0.4-2.9,0.8-4.4,1c-1.7,0.3-3.4,0.4-5.1,0.4h-0.9
	c-0.5,0-1-0.3-1.1-0.7c-0.3-0.6-0.4-1.2-0.4-1.8c0-0.6,0.1-1.2,0.4-1.8c0.2-0.4,0.6-0.7,1.1-0.7h1.1c1.6,0,3.2-0.1,4.8-0.4
	c1.5-0.3,2.9-0.6,4.3-1.1c1.3-0.5,2.6-1,3.9-1.6c1.2-0.6,2.4-1.2,3.6-1.8L240.9,273.6z M252.1,283.6h-2.9c-0.5,0-1-0.3-1.1-0.7
	c-0.3-0.6-0.4-1.2-0.4-1.8c0-0.6,0.1-1.2,0.4-1.8c0.2-0.4,0.6-0.7,1.1-0.7h3.1c0.6,0,1.1,0,1.5-0.1c0.4,0,0.8-0.1,1.1-0.3
	c0.3-0.2,0.5-0.4,0.6-0.7c0.2-0.4,0.2-0.9,0.2-1.3v-8.5h4.6v8.7c0,1.2-0.2,2.4-0.7,3.6c-0.4,0.8-1,1.6-1.8,2.2
	c-0.8,0.5-1.7,0.9-2.6,1.1C254.2,283.5,253.1,283.6,252.1,283.6z M260.6,264.1h-5.1v-3.8h5.1V264.1z M320.2,276.2
	c0.1,0.4,0.2,0.7,0.3,1.1c0.1,0.3,0.2,0.5,0.4,0.8c0.2,0.2,0.5,0.4,0.8,0.5c0.5,0.1,0.9,0.2,1.4,0.2v4.9h-0.5
	c-0.8,0-1.7-0.1-2.4-0.4c-0.7-0.3-1.3-0.8-1.7-1.4h-0.1c-0.6,0.6-1.3,1.1-2.2,1.4c-0.9,0.3-1.9,0.5-2.8,0.5c-0.7,0-1.4-0.1-2.1-0.2
	c-0.7-0.1-1.4-0.3-2.1-0.4c-0.7-0.1-1.4-0.3-2-0.4c-0.6-0.1-1.2-0.2-1.8-0.2c-0.5,0-0.9,0.1-1.3,0.2c-0.3,0.1-0.6,0.3-0.8,0.5
	c-0.2,0.3-0.3,0.5-0.4,0.8c-0.1,0.4-0.1,0.7-0.1,1.1c0,0.3,0,0.8,0.1,1.3c0.1,0.5,0.1,1.1,0.3,1.7c0.1,0.6,0.3,1.3,0.5,2
	c0.2,0.7,0.5,1.5,0.8,2.3h-4.9c-0.4-1.5-0.8-2.9-1-4.1c-0.2-1.1-0.3-2.1-0.4-3.2c0-0.9,0.1-1.8,0.4-2.6c0.2-0.7,0.6-1.4,1.1-2
	c0.5-0.6,1.1-1.1,1.7-1.5c0.7-0.4,1.5-0.7,2.3-0.8c0.3-1.2,0.7-2.4,1.2-3.5c0.4-0.9,0.9-1.7,1.5-2.5c0.5-0.6,1-1.2,1.7-1.7
	c0.5-0.4,1-0.8,1.6-1.1c0.5-0.2,1-0.4,1.5-0.5c0.4-0.1,0.8-0.1,1.2-0.1c1.1,0,2.1,0.2,3,0.7c0.9,0.5,1.7,1.1,2.4,1.8
	c0.7,0.7,1.3,1.6,1.7,2.4C319.7,274.4,320,275.3,320.2,276.2L320.2,276.2z M313.4,278.9c0.3,0,0.6,0,0.8-0.1c0.3,0,0.5-0.1,0.7-0.2
	c0.2-0.1,0.4-0.2,0.5-0.4c0.1-0.2,0.2-0.5,0.2-0.7c0-0.4-0.1-0.8-0.3-1.1c-0.2-0.5-0.4-0.9-0.8-1.4c-0.3-0.4-0.7-0.8-1.2-1.1
	c-0.4-0.3-1-0.5-1.6-0.5c-0.5,0-1,0.1-1.4,0.4c-0.4,0.3-0.8,0.6-1.1,1c-0.4,0.5-0.7,1-0.9,1.5c-0.3,0.6-0.5,1.2-0.8,1.8
	c1,0.1,1.9,0.3,2.9,0.5C311.4,278.8,312.4,278.9,313.4,278.9z M347.7,283.6c-1.9,0-3.7-0.2-5.5-0.6c-1.6-0.4-3.2-1.1-4.5-1.9h-0.1
	c-1.6,0.8-3.3,1.5-5.1,1.9c-2.1,0.5-4.3,0.7-6.6,0.7h-2c-0.5,0-1-0.3-1.1-0.7c-0.3-0.6-0.4-1.2-0.4-1.8c0-0.6,0.1-1.2,0.4-1.8
	c0.2-0.4,0.6-0.7,1.1-0.7h2.2c1.3,0,2.5-0.1,3.8-0.2c1-0.1,2.1-0.3,3-0.6c-0.6-0.5-1.2-0.9-1.8-1.4c-0.6-0.5-1.1-1-1.6-1.5
	c-0.5-0.5-1-1-1.6-1.6c-0.5-0.6-1-1.1-1.5-1.8V267c0.7-0.1,1.5-0.2,2.4-0.4c0.9-0.1,1.8-0.2,2.7-0.4s1.9-0.2,2.8-0.3
	s1.8-0.1,2.7-0.1c0.6,0,1.2,0,1.8,0.1c0.6,0,1.3,0.1,1.9,0.3c0.6,0.1,1.2,0.3,1.8,0.5c0.5,0.2,1,0.5,1.5,0.9c0.4,0.4,0.8,0.8,1,1.3
	c0.3,0.5,0.4,1.1,0.4,1.7c0,0.5-0.1,1.1-0.2,1.6c-0.1,0.6-0.4,1.2-0.6,1.8c-0.3,0.6-0.6,1.3-1,1.9c-0.4,0.6-0.9,1.2-1.4,1.8
	c1,0.3,2.1,0.6,3.2,0.7c1.2,0.2,2.5,0.3,3.8,0.2v4.9L347.7,283.6z M337.7,275.7c0.5-0.3,0.9-0.7,1.3-1.1c0.4-0.4,0.7-0.7,1-1.1
	c0.2-0.3,0.5-0.7,0.6-1c0.1-0.3,0.2-0.5,0.2-0.8c0-0.5-0.4-0.9-1-1c-0.9-0.2-1.9-0.3-2.8-0.3c-0.8,0-1.7,0-2.7,0.1
	c-1,0.1-1.8,0.2-2.7,0.3v0.1c0.8,0.9,1.7,1.8,2.7,2.6C335.4,274.3,336.5,275,337.7,275.7L337.7,275.7z M352.1,283.6h-2.9
	c-0.5,0-1-0.3-1.1-0.7c-0.3-0.6-0.4-1.2-0.4-1.8c0-0.6,0.1-1.2,0.4-1.8c0.2-0.4,0.6-0.7,1.1-0.7h3.1c0.6,0,1.1,0,1.5-0.1
	c0.4,0,0.8-0.1,1.1-0.3c0.3-0.2,0.5-0.4,0.6-0.7c0.2-0.4,0.2-0.9,0.2-1.3v-8.5h4.6v8.7c0,1.2-0.2,2.4-0.7,3.6
	c-0.4,0.8-1,1.6-1.8,2.2c-0.8,0.5-1.7,0.9-2.6,1.1C354.2,283.5,353.1,283.6,352.1,283.6z M360.6,264.1h-5.1v-3.8h5.1V264.1z"/>
</svg>
