<svg xmlns="http://www.w3.org/2000/svg" width="249.449" height="46.536"><g fill="#333695" fill-rule="evenodd"><path d="M202.913 0h46.536v46.536h-46.536zm6.504 6.412v33.62h33.528V6.413h-33.528"/><path d="M213.355 35.177l16.764-24.733 9.07-.184-17.314 24.917h-8.52M0 46.262V27.39h8.061c2.566 0 4.489 1.007 5.955 3.022 1.19 1.741 1.832 3.848 1.832 6.413 0 2.473-.641 4.672-2.016 6.504-1.465 1.925-3.389 2.932-5.77 2.932zM3.94 30.78v12.092h3.663c1.466 0 2.474-.64 3.206-1.832.642-1.099.917-2.473.917-4.214 0-1.465-.275-2.84-.917-3.94-.732-1.465-1.832-2.106-3.206-2.106zm23.267 11.084h3.664c-.274 1.558-1.099 2.657-2.381 3.574-1.1.732-2.474 1.098-4.122 1.098-1.924 0-3.481-.732-4.672-2.106-1.284-1.374-1.924-3.116-1.924-5.314 0-1.923.64-3.572 1.832-4.855 1.283-1.282 2.84-2.015 4.764-2.015 2.748 0 4.58 1.007 5.588 2.931.366.642.64 1.466.824 2.29.184.917.275 1.832.275 2.84h-9.527c0 .733.275 1.375.732 2.015.642.734 1.283 1.1 2.108 1.1.64 0 1.281-.183 1.74-.366.55-.275.916-.642 1.1-1.192zm-5.68-3.939h5.68c0-.64-.275-1.282-.824-1.74-.64-.55-1.283-.824-2.015-.824-.734 0-1.375.274-1.924.824-.641.458-.916 1.1-.916 1.74zm11.818-5.404h3.664v9.069c0 .458.275.916.642 1.282.457.367 1.007.55 1.557.55.733 0 1.375-.183 1.923-.64.55-.55.825-1.1.825-1.742v-8.52h3.573v13.742h-3.573V44.52c-1.1 1.374-2.473 2.015-4.122 2.015a5.37 5.37 0 0 1-3.023-.915c-.917-.641-1.466-1.558-1.466-2.657zm19.421-3.94v3.94h2.107v2.565h-2.107v7.053c0 .275.183.55.367.733.183.184.457.276.824.276h.55c.183-.092.274-.092.366-.092v3.206c-.458.092-.916.183-1.19.183-.367.091-.825.091-1.466.091-.917 0-1.558-.274-2.199-.915-.55-.55-.824-1.191-.824-2.015v-8.52H47.36V32.52h1.833v-1.833zm3.665 13.009h3.664c0 .641.183 1.191.732 1.558.459.365 1.1.548 1.833.548.642 0 1.19-.09 1.557-.274.459-.183.733-.64.733-1.19 0-.734-.641-1.283-2.107-1.65-2.382-.64-3.756-1.007-3.94-1.19-1.465-.642-2.198-1.558-2.198-2.84 0-1.283.55-2.29 1.558-3.116 1.007-.824 2.382-1.19 4.03-1.19 1.65 0 2.931.366 4.031 1.1 1.191.824 1.832 1.923 1.832 3.48h-3.389c-.091-.55-.367-1.007-.825-1.282a3.161 3.161 0 0 0-1.649-.458c-.55 0-1.007.183-1.374.366-.366.275-.55.55-.55 1.008 0 .55.734 1.008 2.108 1.283 2.106.365 3.48.64 3.939.915 1.466.641 2.198 1.74 2.198 3.299 0 1.556-.641 2.748-1.923 3.48-1.1.733-2.382 1.1-4.031 1.1-1.833 0-3.298-.458-4.49-1.375-1.19-.824-1.74-2.014-1.74-3.572zm20.703 4.946c-1.924 0-3.481-.732-4.764-2.106-1.19-1.374-1.832-3.116-1.832-5.314 0-1.832.642-3.48 1.923-4.855 1.284-1.282 2.84-2.015 4.673-2.015 1.649 0 3.114.55 4.306 1.557 1.282.916 1.924 2.199 1.924 3.665h-3.666c0-.642-.274-1.1-.732-1.466-.55-.458-1.1-.641-1.832-.641-.916 0-1.557.366-2.107 1.099-.458.64-.733 1.557-.733 2.656 0 1.283.275 2.29.733 3.115.55.733 1.19 1.19 2.107 1.19.642 0 1.283-.273 1.74-.732.55-.458.824-.916.824-1.557h3.666c0 1.557-.642 2.93-1.924 3.939-1.283.916-2.657 1.465-4.306 1.465zm8.61-19.145h3.665v6.595c.459-.64 1.1-1.1 1.833-1.374.732-.183 1.557-.366 2.381-.366 1.192 0 2.29.366 3.207 1.1.916.64 1.374 1.648 1.374 2.747v10.169H94.63V37.65c0-.732-.275-1.282-.642-1.648-.366-.367-.915-.55-1.557-.55-.733 0-1.466.183-2.106.64-.55.46-.917 1.009-.917 1.742v8.428h-3.664zm24.277 14.473h3.573c-.275 1.558-1.1 2.657-2.382 3.574-1.099.732-2.474 1.098-4.03 1.098-1.924 0-3.482-.732-4.764-2.106-1.283-1.374-1.833-3.116-1.833-5.314 0-1.923.55-3.572 1.833-4.855 1.19-1.282 2.84-2.015 4.763-2.015 2.657 0 4.489 1.007 5.498 2.931.457.642.732 1.466.915 2.29.183.917.183 1.832.183 2.84h-9.527c0 .733.275 1.375.824 2.015.55.734 1.283 1.1 2.107 1.1.641 0 1.191-.183 1.741-.366a2.786 2.786 0 0 0 1.1-1.192zm-5.77-3.939h5.77c0-.64-.366-1.282-.916-1.74-.55-.55-1.19-.824-1.924-.824-.732 0-1.465.274-2.015.824-.55.458-.916 1.1-.916 1.74zm18.595 8.337V27.39h9.619c1.374 0 2.565.457 3.481 1.465 1.008 1.007 1.557 2.199 1.557 3.665a4.98 4.98 0 0 1-.549 2.29 4.527 4.527 0 0 1-1.832 1.649c.916.366 1.648 1.008 2.29 1.74.55.825.825 1.649.825 2.565 0 1.557-.551 2.84-1.558 3.848-1.008 1.099-2.108 1.649-3.573 1.649zm3.848-15.482v4.03h4.673c.64 0 1.19-.183 1.647-.549.459-.366.643-.825.643-1.374 0-.641-.184-1.1-.643-1.557-.457-.367-.916-.55-1.556-.55zm0 7.42v4.672h4.947c.733 0 1.282-.183 1.832-.733.458-.457.733-1.007.733-1.648 0-.642-.275-1.192-.733-1.65-.55-.457-1.099-.64-1.832-.64zm17.956-1.557h-3.665c0-1.466.641-2.566 1.832-3.39 1.1-.641 2.381-1.007 3.938-1.007 2.108 0 3.666.366 4.672 1.007.826.642 1.283 1.374 1.283 2.382v8.428c0 .825.276 1.558.825 2.199h-3.756c-.184-.275-.366-.458-.457-.733-.093-.183-.184-.458-.276-.824-.457.64-1.099 1.099-1.832 1.374-.641.275-1.465.457-2.473.457-1.283 0-2.291-.457-3.023-1.19-.825-.825-1.283-1.833-1.283-2.932 0-1.1.367-2.107 1.008-2.84.642-.732 1.558-1.19 2.748-1.374 2.107-.366 3.115-.55 3.207-.55 1.099-.274 1.648-.64 1.648-1.007 0-.55-.183-1.008-.641-1.191-.367-.275-.916-.366-1.65-.366-.64 0-1.098.183-1.557.366-.365.275-.548.64-.548 1.19zm4.396 4.947v-2.107c-1.19.183-2.107.458-2.84.64-1.373.368-2.015 1.009-2.015 1.834 0 .64.092 1.007.459 1.282.365.274.824.367 1.465.367.64 0 1.283-.184 1.832-.55.55-.275.916-.825 1.099-1.466zm6.87-9.07h3.665v1.557a5.267 5.267 0 0 1 1.741-1.373c.824-.275 1.557-.458 2.199-.458 1.282 0 2.289.366 3.205.916.917.733 1.467 1.649 1.467 2.749v10.35h-3.664v-9.068c0-.55-.183-1.008-.55-1.282-.458-.367-.917-.459-1.466-.459-.734 0-1.283.092-1.74.367-.459.366-.826.732-1.192 1.374v9.069h-3.664zm15.207-5.13h3.666v10.078l4.213-4.947h4.397l-4.489 5.222 4.948 8.519h-4.307l-3.113-5.863-1.65 1.74v4.123h-3.665V27.39"/></g></svg>