<svg xmlns="http://www.w3.org/2000/svg" width="33.007" height="32.946" viewBox="0 0 33.007 32.946">
  <g font-weight="400" color="#000" font-family="sans-serif" white-space="normal" fill="#ff762a">
    <path d="M12.32.48H5.26v.964l4.568 4.569V9.46H6.381l-4.33-4.33H.848v6.822l4.231 4.231h2.86l1.6-1.6-3.797-.002-3.292-3.292V7.795l3.267 3.267 5.71-.003.002-5.709-3.267-3.268h3.494l3.292 3.293.002 6.17 2.226 2.225 1.126-1.139-1.75-1.75-.002-6.169zm8.339 14.507l-1.126 1.14 10.389 10.388c.918.918.933 2.296.095 3.134-.838.838-2.216.822-3.134-.096L19.55 22.22l-1.133 1.132 7.334 7.334c1.498 1.498 3.926 1.568 5.398.095 1.473-1.473 1.404-3.9-.095-5.399z" overflow="visible" style="line-height:normal;font-variant-ligatures:normal;font-variant-position:normal;font-variant-caps:normal;font-variant-numeric:normal;font-variant-alternates:normal;font-feature-settings:normal;text-indent:0;text-align:start;text-decoration-line:none;text-decoration-style:solid;text-decoration-color:#000;text-transform:none;text-orientation:mixed;shape-padding:0;isolation:auto;mix-blend-mode:normal"></path>
    <path d="M33.007 1.475V0h-1.495L15.704 16l-2.161-2.161-3.489 3.489.303 1.166c-.922.017-1.84.37-2.54 1.07l-6.742 6.743a3.696 3.696 0 0 0 0 5.212l.352.352a3.696 3.696 0 0 0 5.212 0l6.743-6.743a3.67 3.67 0 0 0 1.07-2.54l1.166.304 3.49-3.489-1.918-1.917zM13.543 16.213l3.19 3.19-1.932 1.932-1.419-1.419-.352-.352-1.42-1.419zm-1.702 4.54l.176.175.176.177c.797.796.798 2.04.002 2.836l-6.743 6.743a1.984 1.984 0 0 1-2.838 0l-.352-.353a1.984 1.984 0 0 1 0-2.837l6.743-6.743a1.983 1.983 0 0 1 2.836.001z" overflow="visible" style="line-height:normal;font-variant-ligatures:normal;font-variant-position:normal;font-variant-caps:normal;font-variant-numeric:normal;font-variant-alternates:normal;font-feature-settings:normal;text-indent:0;text-align:start;text-decoration-line:none;text-decoration-style:solid;text-decoration-color:#000;text-transform:none;text-orientation:mixed;shape-padding:0;isolation:auto;mix-blend-mode:normal"></path>
  </g>
</svg>