<svg xmlns="http://www.w3.org/2000/svg" xmlns:xlink="http://www.w3.org/1999/xlink" width="276.445" height="154.08"><defs><linearGradient id="b"><stop offset="0" stop-color="#485684"/><stop offset="1" stop-color="#3c4a7b"/></linearGradient><linearGradient id="a"><stop offset="0" stop-color="#485684"/><stop offset="1" stop-color="#2c3b70"/></linearGradient><linearGradient xlink:href="#a" id="c" x1="-19.311" y1="29.691" x2="184.926" y2="31.26" gradientUnits="userSpaceOnUse" gradientTransform="translate(0 -200.288)"/><linearGradient xlink:href="#b" id="d" x1="162.051" y1="52.65" x2="253.25" y2="50.6" gradientUnits="userSpaceOnUse" gradientTransform="translate(0 -200.288)"/></defs><g stroke-width="8.498" stroke-linecap="round"><path d="M169.51-235.086a3.075 3.641 9.746 00-3.031 2.774 3.075 3.641 9.746 00-.075 1.734l-38.603 36.568a3.075 3.641 9.746 00-1.27-.799 3.075 3.641 9.746 00-2.779.782l-37.77-30.159a3.075 3.641 9.746 00.288-.779 3.075 3.641 9.746 00-2.065-4.377 3.075 3.641 9.746 00-3.855 2.672 3.075 3.641 9.746 00-.121.799l-49.754 1.928a3.075 3.641 9.746 00-2.149-2.692 3.075 3.641 9.746 00-3.855 2.672 3.075 3.641 9.746 00.318 2.904l-43.152 43.67a3.075 3.641 9.746 00-.598-.257 3.075 3.641 9.746 00-3.857 2.673 3.075 3.641 9.746 002.064 4.377 3.075 3.641 9.746 001.443 0L5.18-125.43a3.075 3.641 9.746 00-.882 1.686 3.075 3.641 9.746 002.062 4.379 3.075 3.641 9.746 003.202-1.272l27.408 18.201a3.075 3.641 9.746 00-.559 1.266 3.075 3.641 9.746 002.065 4.379 3.075 3.641 9.746 002.255-.367l8.448 16.15h1.127l-8.803-16.83a3.075 3.641 9.746 00.828-1.627 3.075 3.641 9.746 00-.123-2.472l54.826-26.235a3.075 3.641 9.746 001.35 1.586L83.83-81.008h1.05l14.454-45.267a3.075 3.641 9.746 00.92-.047c.125.561.251 1.125.4 1.879.402 2.027.894 4.724 1.442 7.853 1.095 6.258 2.413 14.25 3.683 22.123.821 5.088 1.495 9.355 2.143 13.46h1.014c-.65-4.117-1.34-8.47-2.17-13.62-1.271-7.875-2.59-15.87-3.686-22.137a381.492 381.492 0 00-1.445-7.873 97.08 97.08 0 00-.434-2.086 3.075 3.641 9.746 001.596-2.302 3.075 3.641 9.746 00.082-.436l42.51 4.15a3.075 3.641 9.746 00.76 2.264l-25.12 42.04h1.164l24.711-41.354a3.075 3.641 9.746 00.678.308 3.075 3.641 9.746 00.75.098c.032.367.034.344.07.773.178 2.121.413 4.996.682 8.366.539 6.74 1.222 15.46 1.893 24.091.303 3.9.322 4.188.595 7.717h1.002c-.276-3.568-.295-3.857-.601-7.795a11795.77 11795.77 0 00-1.893-24.093c-.27-3.371-.504-6.246-.682-8.37-.04-.485-.045-.483-.08-.884a3.075 3.641 9.746 001.711-1.553l38.04 21.478a3.075 3.641 9.746 00-.387.98 3.075 3.641 9.746 001.212 3.956l-13.896 16.281h1.316l13.518-15.836a3.075 3.641 9.746 00.105.026l-1.683 15.81h1.006l1.683-15.803a3.075 3.641 9.746 002.121-1.496l19.77 17.3h1.52l-20.84-18.235a3.075 3.641 9.746 00.088-.297 3.075 3.641 9.746 00-1.499-4.139l-4.832-64.886a3.075 3.641 9.746 001.73-2.385 3.075 3.641 9.746 00-2.064-4.377 3.075 3.641 9.746 00-.638-.096l-15.703-53.588a3.075 3.641 9.746 00.802-1.597 3.075 3.641 9.746 00-2.062-4.38 3.075 3.641 9.746 00-.826-.099zm-2.768 5.566a3.075 3.641 9.746 001.801 1.584 3.075 3.641 9.746 002.225-.347l15.533 53.021a3.075 3.641 9.746 00-1.594 1.246l-55.988-17.27a3.075 3.641 9.746 00-.356-1.88zm-86.457 4.649a3.075 3.641 9.746 001.945 2.516c-.222 1.224-.455 2.51-.777 4.265-.828 4.52-1.932 10.51-3.037 16.49-1.964 10.631-3.516 18.997-3.928 21.22a3.075 3.641 9.746 00-2.498 1.034l-41.824-42.258a3.075 3.641 9.746 00.225-.654 3.075 3.641 9.746 00.113-.687zm5.154 1.533l37.696 30.096a3.075 3.641 9.746 00-.46 1.105 3.075 3.641 9.746 00-.132.98l-45.664 12.778a3.075 3.641 9.746 00-1.428-1.705c.398-2.144 1.975-10.646 3.95-21.334 1.104-5.98 2.208-11.971 3.037-16.492.322-1.762.558-3.055.78-4.283a3.075 3.641 9.746 002.221-1.145zm-55.806 2.62l41.781 42.212a3.075 3.641 9.746 00-.336.881 3.075 3.641 9.746 00-.119.762l-35.766 11.865a3.075 3.641 9.746 00-2.088-2.387 3.075 3.641 9.746 00-.556-.093l-4.22-52.229a3.075 3.641 9.746 001.304-1.012zm-4.237.466a3.075 3.641 9.746 001.14.666 3.075 3.641 9.746 00.808.1l4.213 52.136a3.075 3.641 9.746 00-2.287 2.57l-46.061-9.081a3.075 3.641 9.746 00-.809-2.88zm103.157 29.963l55.677 17.172a3.075 3.641 9.746 00-.148.463 3.075 3.641 9.746 00.252 2.775l-34.05 41.246a3.075 3.641 9.746 00-.91-.47 3.075 3.641 9.746 00-1.515.023l-20.306-59.492a3.075 3.641 9.746 001-1.717zm-5.903.139a3.075 3.641 9.746 001.284 2l-22.872 54.869a3.075 3.641 9.746 00-.33-.121 3.075 3.641 9.746 00-1.878.162l-22.602-41.158a3.075 3.641 9.746 00.746-1.522 3.075 3.641 9.746 00.107-1.484zm4.051 2.19l20.258 59.333a3.075 3.641 9.746 00-1.441 2.197 3.075 3.641 9.746 00-.03.125l-42.58-4.156a3.075 3.641 9.746 00-1.004-2.24l22.942-55.033a3.075 3.641 9.746 001.855-.227zm-55.687 12.134a3.075 3.641 9.746 00.873 1.795l-31.905 70.129a3.075 3.641 9.746 00-.437-.037l-6.215-56.622a3.075 3.641 9.746 001.84-2.447 3.075 3.641 9.746 00.13-.972zm4.488 2.142l22.518 41a3.075 3.641 9.746 00-1.143 1.954 3.075 3.641 9.746 00-.1 1.57l-55.052 26.344a3.075 3.641 9.746 00-.807-.733l31.789-69.87a3.075 3.641 9.746 00.434.171 3.075 3.641 9.746 002.361-.436zm-92.518.797l46.137 9.096a3.075 3.641 9.746 001.154 2.883c-.098.15-.159.238-.27.408a476.274 476.274 0 00-2.86 4.482 2523.096 2523.096 0 00-8.247 13.153c-5.213 8.362-9.186 14.787-10.32 16.619a3.075 3.641 9.746 00-.426-.17 3.075 3.641 9.746 00-2.193.328l-24.363-44.933a3.075 3.641 9.746 001.388-1.866zm201.942 3.86a3.075 3.641 9.746 001.219.752 3.075 3.641 9.746 001.15.064l4.783 64.209a3.075 3.641 9.746 00-2.414.963l-38.252-21.598a3.075 3.641 9.746 00.026-.088 3.075 3.641 9.746 00-.473-3.164zm-153.79 8.63a3.075 3.641 9.746 00.177.063 3.075 3.641 9.746 001.044.078l6.202 56.5a3.075 3.641 9.746 00-.924.56l-27.592-18.322a3.075 3.641 9.746 00.174-.521 3.075 3.641 9.746 00-.83-3.611c1.105-1.787 5.128-8.291 10.361-16.686a2577.06 2577.06 0 018.24-13.146 468.544 468.544 0 012.858-4.473c.12-.185.185-.281.29-.441z" fill="url(#c)" transform="translate(22.95 235.088)"/><path d="M208.83-203.105a3.075 3.641 9.746 00-3.25 2.771 3.075 3.641 9.746 00.107 2.436l-44.01 44.064a3.075 3.641 9.746 00-.48-.193 3.075 3.641 9.746 00-3.855 2.672 3.075 3.641 9.746 002.064 4.376 3.075 3.641 9.746 001.797-.123l24.485 45.053a3.075 3.641 9.746 00-.903 1.71 3.075 3.641 9.746 002.065 4.376 3.075 3.641 9.746 003.326-1.453l23.244 16.408h1.732L190.615-98.33a3.075 3.641 9.746 00.09-.305 3.075 3.641 9.746 00-.68-3.445c1.257-2.028 5.19-8.378 10.432-16.8 3.01-4.838 6.037-9.688 8.338-13.352 1.15-1.833 2.12-3.368 2.816-4.457l.141-.217a3.075 3.641 9.746 00.73.342 3.075 3.641 9.746 00.832.1c.036.4.063.731.112 1.255.164 1.776.4 4.228.681 7.129a9294.9 9294.9 0 002.063 20.937c1.308 13.151 2.317 23.156 2.617 26.135h1.008c-.295-2.924-1.316-13.034-2.629-26.234a9403.33 9403.33 0 01-2.064-20.934c-.282-2.9-.516-5.351-.68-7.125-.054-.584-.087-.97-.125-1.398a3.075 3.641 9.746 002.04-2.537 3.075 3.641 9.746 00.079-1.721l34.734-10.607a3.075 3.641 9.746 001.178 1.488l-31.474 69.068h1.097l31.299-68.68a3.075 3.641 9.746 00.244.036v-7.15a3.075 3.641 9.746 00-1.16.572l-41.258-41.348a3.075 3.641 9.746 00.424-1.05 3.075 3.641 9.746 00.11-.612l41.884-2.03v-1l-41.9 2.032a3.075 3.641 9.746 00-2.158-2.768 3.075 3.641 9.746 00-.606-.1zm-2.644 6.123a3.075 3.641 9.746 001.459 1.025 3.075 3.641 9.746 00.554.094l4.12 52.445a3.075 3.641 9.746 00-1.758 2.027l-47.168-9.338a3.075 3.641 9.746 00-.914-2.49zm4.277.207l41.182 41.271a3.075 3.641 9.746 00-.649 1.393 3.075 3.641 9.746 00-.096 1.578l-34.767 10.617a3.075 3.641 9.746 00-1.86-1.7 3.075 3.641 9.746 00-.972-.083l-4.108-52.291a3.075 3.641 9.746 001.27-.785zm-47.184 47.045l47.043 9.31a3.075 3.641 9.746 00.69 2.815l-.244.376a741.07 741.07 0 00-2.82 4.465 4228.449 4228.449 0 00-8.339 13.354c-5.2 8.355-9.04 14.554-10.35 16.668a3.075 3.641 9.746 00-.616-.272 3.075 3.641 9.746 00-2.17.315l-24.422-44.938a3.075 3.641 9.746 001.21-2.013 3.075 3.641 9.746 00.018-.08zm90.215 54.814l-27.437 13.908h2.214l25.223-12.787z" fill="url(#d)" transform="translate(22.95 235.088)"/></g></svg>