<svg xmlns="http://www.w3.org/2000/svg" width="140" height="38.603">
  <path d="M28.702 3.179A2.602 2.602 0 0 1 26.1 5.78a2.602 2.602 0 0 1-2.602-2.602A2.602 2.602 0 0 1 26.1.577a2.602 2.602 0 0 1 2.602 2.602z" fill="#ff762a" paint-order="fill markers stroke"/>
  <path style="line-height:normal;font-variant-ligatures:normal;font-variant-position:normal;font-variant-caps:normal;font-variant-numeric:normal;font-variant-alternates:normal;font-feature-settings:normal;text-indent:0;text-align:start;text-decoration-line:none;text-decoration-style:solid;text-decoration-color:#000;text-transform:none;text-orientation:mixed;shape-padding:0;isolation:auto;mix-blend-mode:normal" d="M33.41 6.242a2.602 2.602 0 0 0-2.445 4.036c.633.972 1.143 2.02 1.522 3.116a2.603 2.603 0 1 0 4.921-1.697 19.456 19.456 0 0 0-2.079-4.255 2.602 2.602 0 0 0-1.92-1.2z" color="#000" font-weight="400" font-family="sans-serif" white-space="normal" overflow="visible" fill="#ff762a" paint-order="fill markers stroke"/>
  <path style="line-height:normal;font-variant-ligatures:normal;font-variant-position:normal;font-variant-caps:normal;font-variant-numeric:normal;font-variant-alternates:normal;font-feature-settings:normal;text-indent:0;text-align:start;text-decoration-line:none;text-decoration-style:solid;text-decoration-color:#000;text-transform:none;text-orientation:mixed;shape-padding:0;isolation:auto;mix-blend-mode:normal" d="M16.242.001a2.602 2.602 0 0 0-.439.053C6.097 1.906-.702 10.8.058 20.652c.76 9.852 8.844 17.598 18.72 17.939 9.875.34 18.473-6.829 19.91-16.605a2.603 2.603 0 1 0-5.15-.759 14.212 14.212 0 0 1-14.582 12.164A14.21 14.21 0 0 1 5.248 20.25 14.211 14.211 0 0 1 16.78 5.166a2.602 2.602 0 0 0-.537-5.164z" color="#000" font-weight="400" font-family="sans-serif" white-space="normal" overflow="visible" fill="#081953" paint-order="fill markers stroke"/>
  <path d="M27.597 18.63a7.998 7.998 0 0 1-7.997 7.997 7.998 7.998 0 0 1-7.998-7.997 7.998 7.998 0 0 1 7.998-7.998 7.998 7.998 0 0 1 7.997 7.998z" fill="#ff762a" paint-order="fill markers stroke"/>
  <g fill="#081953" font-weight="700" font-size="16.237" font-family="sans-serif" letter-spacing="0" word-spacing="0">
    <path style="line-height:1.25;-inkscape-font-specification:'sans-serif, Bold';font-variant-ligatures:normal;font-variant-caps:normal;font-variant-numeric:normal;font-feature-settings:normal;text-align:start" d="M86.625 6.338h3.177v4.695h4.687V6.338h3.177v12.32H94.49v-5.223h-4.687v5.223h-3.177zM106.414 8.417q-1.453 0-2.253 1.073t-.8 3.02q0 1.94.8 3.012.8 1.073 2.253 1.073 1.46 0 2.26-1.073.801-1.072.801-3.012 0-1.947-.8-3.02t-2.261-1.073zm0-2.302q2.97 0 4.654 1.7 1.683 1.7 1.683 4.695 0 2.988-1.683 4.688-1.683 1.7-4.654 1.7-2.963 0-4.654-1.7-1.684-1.7-1.684-4.688 0-2.995 1.684-4.695 1.691-1.7 4.654-1.7zM115.145 6.338h3.177v7.385q0 1.527.495 2.187.503.652 1.634.652 1.138 0 1.634-.652.503-.66.503-2.187V6.338h3.177v7.385q0 2.616-1.312 3.895-1.312 1.28-4.002 1.28-2.682 0-3.994-1.28-1.312-1.279-1.312-3.895zM133.39 11.8q.999 0 1.428-.37.437-.372.437-1.222 0-.842-.437-1.205-.43-.363-1.428-.363h-1.337v3.16zm-1.337 2.196v4.662h-3.177V6.338h4.852q2.435 0 3.565.817 1.14.817 1.14 2.583 0 1.221-.595 2.005-.586.784-1.774 1.155.652.149 1.163.677.52.52 1.048 1.584l1.725 3.5h-3.383l-1.502-3.062q-.454-.925-.925-1.263-.462-.338-1.237-.338z"/>
  </g>
  <g fill="#ff762a" font-weight="700" font-size="16.237" font-family="sans-serif" letter-spacing="0" word-spacing="0">
    <path style="line-height:1.25;-inkscape-font-specification:'sans-serif, Bold';font-variant-ligatures:normal;font-variant-caps:normal;font-variant-numeric:normal;font-feature-settings:normal;text-align:start" d="M52.18 8.417q-1.452 0-2.252 1.073-.8 1.073-.8 3.02 0 1.94.8 3.012.8 1.073 2.253 1.073 1.46 0 2.26-1.073.801-1.072.801-3.012 0-1.947-.8-3.02T52.18 8.417zm0-2.302q2.971 0 4.655 1.7 1.683 1.7 1.683 4.695 0 2.988-1.683 4.688-1.684 1.7-4.654 1.7-2.963 0-4.655-1.7-1.683-1.7-1.683-4.688 0-2.995 1.683-4.695 1.692-1.7 4.655-1.7zM60.911 6.338h3.549l4.48 8.45v-8.45h3.013v12.32h-3.549l-4.48-8.45v8.45H60.91zM75.072 6.338h8.574v2.401H78.25v2.294h5.075v2.402H78.25v2.822h5.579v2.401h-8.756z"/>
  </g>
  <g style="line-height:1.25" aria-label="TRANSLATION" font-weight="400" font-size="12.966" font-family="sans-serif" letter-spacing="0" word-spacing="0" fill="#b0b3ba" stroke-width=".324">
    <path style="-inkscape-font-specification:'sans-serif, Bold';font-variant-ligatures:normal;font-variant-caps:normal;font-variant-numeric:normal;font-feature-settings:normal;text-align:start" d="M45.401 23.038h8.323v1.12h-3.492v8.72h-1.338v-8.72H45.4z" font-weight="700"/>
    <path style="-inkscape-font-specification:'sans-serif, Normal';font-variant-ligatures:normal;font-variant-caps:normal;font-variant-numeric:normal;font-feature-settings:normal;text-align:start" d="M59.682 28.264q.428.145.83.62.408.474.817 1.304l1.351 2.69h-1.43l-1.259-2.525q-.487-.988-.949-1.311-.454-.323-1.245-.323h-1.45v4.158h-1.331v-9.839h3.005q1.687 0 2.517.705.83.705.83 2.129 0 .93-.434 1.542-.429.613-1.252.85zm-3.335-4.132v3.493h1.674q.962 0 1.45-.442.494-.448.494-1.311t-.494-1.298q-.488-.442-1.45-.442z"/>
    <path style="-inkscape-font-specification:'sans-serif, Normal';font-variant-ligatures:normal;font-variant-caps:normal;font-variant-numeric:normal;font-feature-settings:normal;text-align:start" d="M67.135 24.35l-1.806 4.896h3.618zm-.751-1.312h1.509l3.75 9.84h-1.385l-.896-2.525h-4.435l-.896 2.524h-1.404zM73.072 23.038h1.793l4.362 8.231v-8.23h1.292v9.838h-1.792l-4.363-8.23v8.23h-1.292zM89.066 23.361v1.298q-.758-.362-1.43-.54-.672-.178-1.298-.178-1.087 0-1.68.422-.587.422-.587 1.2 0 .652.389.988.395.33 1.49.533l.803.165q1.49.284 2.195 1.002.711.712.711 1.911 0 1.43-.962 2.168-.955.738-2.807.738-.699 0-1.49-.158-.784-.158-1.627-.468v-1.37q.81.454 1.588.685.778.23 1.529.23 1.14 0 1.76-.448.619-.448.619-1.278 0-.725-.448-1.134-.442-.408-1.457-.612l-.81-.159q-1.49-.296-2.155-.929-.666-.632-.666-1.76 0-1.304.916-2.055.923-.752 2.537-.752.692 0 1.41.126.719.125 1.47.375zM91.735 23.038h1.331v8.719h4.791v1.12h-6.122zM102.853 24.35l-1.806 4.896h3.618zm-.752-1.312h1.51l3.75 9.84h-1.385l-.896-2.525h-4.435l-.896 2.524h-1.404zM106.372 23.038h8.323v1.12h-3.493v8.72h-1.338v-8.72h-3.492zM115.986 23.038h1.332v9.84h-1.332zM123.96 23.941q-1.45 0-2.306 1.08-.85 1.082-.85 2.947 0 1.858.85 2.939.856 1.08 2.306 1.08 1.45 0 2.294-1.08.85-1.081.85-2.94 0-1.864-.85-2.945-.844-1.08-2.294-1.08zm0-1.08q2.07 0 3.308 1.39 1.24 1.384 1.24 3.717 0 2.326-1.24 3.716-1.238 1.384-3.308 1.384-2.076 0-3.321-1.384-1.239-1.384-1.239-3.716 0-2.333 1.239-3.717 1.245-1.39 3.321-1.39zM130.59 23.038h1.792l4.363 8.231v-8.23h1.291v9.838h-1.792l-4.363-8.23v8.23h-1.291z"/>
  </g>
</svg>
