<svg xmlns="http://www.w3.org/2000/svg" xmlns:xlink="http://www.w3.org/1999/xlink" width="201.152" height="221.988" viewBox="0 0 201.152 221.988">
  <defs>
    <radialGradient id="radial-gradient" cx="366.498" cy="315.01" r="79.919" gradientTransform="translate(-6.004 -14.807) scale(1.06 1.128)" gradientUnits="userSpaceOnUse">
      <stop offset="0" stop-color="#4fa0ca"/>
      <stop offset="0.493" stop-color="#01a0c6"/>
      <stop offset="1" stop-color="#13007c"/>
    </radialGradient>
    <linearGradient id="linear-gradient" y1="0.5" x2="1" y2="0.5" gradientUnits="objectBoundingBox">
      <stop offset="0" stop-color="#4fa0ca"/>
      <stop offset="1" stop-color="#13007c"/>
    </linearGradient>
    <radialGradient id="radial-gradient-2" cx="134.464" cy="82.609" r="444.06" gradientTransform="translate(-91.262 -254.129) scale(0.162 0.172)" xlink:href="#radial-gradient"/>
  </defs>
  <g id="logo" transform="translate(-250 -199.536)">
    <path id="Path_314" data-name="Path 314" d="M265.686,289.486v.011c0,49.593,38.081,89.94,84.89,89.94s84.891-40.347,84.891-89.94v-.021c0-49.593-38.082-89.94-84.891-89.94s-84.89,40.347-84.89,89.94Zm27.827,0v.011a1.612,1.612,0,1,1-3.218,0v-.021a1.612,1.612,0,1,1,3.218,0Zm117.344,0v.011a1.612,1.612,0,1,1-3.218,0v-.021a1.612,1.612,0,1,1,3.218,0Zm-113.9,0v.011c0,30.792,23.244,55.939,52.117,56.785v28.589c-43.252-.842-78.284-37.958-79.079-83.783h4.871a83.037,83.037,0,0,0,18.222,50.636,74.914,74.914,0,0,0,44.131,26.756,4.671,4.671,0,0,0,4.453,3.635,4.895,4.895,0,0,0,0-9.773,4.621,4.621,0,0,0-4.232,2.948c-34.119-6.573-58.875-37.419-59.571-74.2h3.862a75.308,75.308,0,0,0,19.979,49.77,1.545,1.545,0,0,0,.232.287,1.4,1.4,0,0,0,.123.1,67.733,67.733,0,0,0,29.986,18.55,1.386,1.386,0,0,0,.5.049,1.417,1.417,0,0,0,.918-.24l4.96-3.35a4.467,4.467,0,0,0,3.242,1.416,4.895,4.895,0,1,0-4.612-4.887,5.138,5.138,0,0,0,.038.6l-4.735,3.2a64.7,64.7,0,0,1-27.325-16.7l3-3.545a61.7,61.7,0,0,0,13.54,10.456,5.392,5.392,0,0,0-.032.558,4.62,4.62,0,1,0,4.612-4.887,4.476,4.476,0,0,0-3.28,1.457,58.832,58.832,0,0,1-13.843-11c-.009-.009-.02-.016-.029-.025s-.022-.029-.036-.042c-.033-.032-.07-.054-.105-.082s-.063-.052-.1-.074a1.338,1.338,0,0,0-.16-.09c-.034-.018-.067-.036-.1-.051a1.531,1.531,0,0,0-.17-.055c-.037-.009-.072-.02-.109-.027a1.432,1.432,0,0,0-.173-.019c-.038,0-.076-.006-.115-.005a1.35,1.35,0,0,0-.167.016c-.04.006-.08.01-.12.019a1.471,1.471,0,0,0-.156.048c-.041.014-.082.028-.122.046s-.1.05-.141.077-.079.047-.117.074-.083.069-.124.106-.056.043-.081.069-.018.025-.029.037-.023.02-.033.032l-3.934,4.642a71.533,71.533,0,0,1-16.48-32.3l5.332,2.3a66.609,66.609,0,0,0,5.776,14.326,5.037,5.037,0,0,0-1.092,3.15,4.62,4.62,0,1,0,4.612-4.887,4.334,4.334,0,0,0-1.188.171,63.61,63.61,0,0,1-5.644-14.241l0-.008a1.568,1.568,0,0,0-.09-.247c-.01-.022-.023-.042-.034-.064a1.438,1.438,0,0,0-.1-.159c-.015-.022-.03-.044-.047-.065a1.371,1.371,0,0,0-.141-.154.359.359,0,0,0-.027-.028,1.311,1.311,0,0,0-.2-.147c-.018-.012-.038-.02-.056-.03-.038-.021-.074-.043-.114-.061l-7.659-3.306a73.306,73.306,0,0,1-1.032-10.771h2.813a4.645,4.645,0,0,0,4.356,3.295,4.76,4.76,0,0,0,4.612-4.886v-.021a4.76,4.76,0,0,0-4.612-4.886,4.645,4.645,0,0,0-4.356,3.3h-2.813a73.319,73.319,0,0,1,1.032-10.772l7.659-3.306a1.237,1.237,0,0,0,.114-.06c.018-.01.038-.019.056-.03a1.313,1.313,0,0,0,.2-.147c.01-.009.018-.019.027-.028a1.371,1.371,0,0,0,.141-.154c.017-.021.032-.043.047-.065a1.438,1.438,0,0,0,.1-.159c.011-.022.024-.042.034-.064a1.567,1.567,0,0,0,.089-.243l0-.012a63.591,63.591,0,0,1,5.644-14.241,4.334,4.334,0,0,0,1.188.171,4.9,4.9,0,1,0-4.612-4.887,5.037,5.037,0,0,0,1.092,3.15,66.568,66.568,0,0,0-5.776,14.326l-5.332,2.3a71.533,71.533,0,0,1,16.48-32.3L306.853,246c.01.012.023.02.033.032s.018.025.029.037.055.045.081.069a1.5,1.5,0,0,0,.124.1,1.2,1.2,0,0,0,.117.074,1.392,1.392,0,0,0,.141.078c.04.018.081.032.122.046a1.474,1.474,0,0,0,.156.048c.04.009.08.013.12.019a1.347,1.347,0,0,0,.167.016c.039,0,.077,0,.115-.005a1.66,1.66,0,0,0,.173-.019c.037-.007.072-.018.109-.028a1.346,1.346,0,0,0,.17-.055.98.98,0,0,0,.1-.05,1.335,1.335,0,0,0,.16-.09c.033-.022.064-.049.1-.074s.072-.051.105-.082c.014-.013.023-.029.036-.042s.02-.016.029-.025a58.832,58.832,0,0,1,13.843-11,4.475,4.475,0,0,0,3.28,1.456,4.895,4.895,0,1,0-4.612-4.886,5.392,5.392,0,0,0,.032.558,61.67,61.67,0,0,0-13.54,10.456l-3-3.545a64.7,64.7,0,0,1,27.325-16.7l4.735,3.2a5.124,5.124,0,0,0-.038.6,4.62,4.62,0,1,0,4.612-4.887,4.47,4.47,0,0,0-3.242,1.415l-4.96-3.35a2.087,2.087,0,0,0-1.419-.191,67.744,67.744,0,0,0-29.986,18.551,1.407,1.407,0,0,0-.123.1,1.539,1.539,0,0,0-.232.286,75.313,75.313,0,0,0-19.979,49.771h-3.862c.7-36.784,25.452-67.629,59.571-74.2a4.62,4.62,0,0,0,4.232,2.949,4.895,4.895,0,0,0,0-9.773,4.671,4.671,0,0,0-4.453,3.635,74.909,74.909,0,0,0-44.131,26.756,83.035,83.035,0,0,0-18.222,50.636h-4.871c.8-45.825,35.827-82.941,79.079-83.783v28.589c-28.873.846-52.117,25.993-52.117,56.785Zm107.679,0v.011a4.76,4.76,0,0,0,4.612,4.886,4.645,4.645,0,0,0,4.356-3.295h2.813a73.435,73.435,0,0,1-1.031,10.771l-7.66,3.306c-.026.012-.048.029-.074.042a1.3,1.3,0,0,0-.126.071,1.123,1.123,0,0,0-.11.082c-.035.028-.069.056-.1.088a1.313,1.313,0,0,0-.094.1,1.113,1.113,0,0,0-.084.108c-.027.039-.05.079-.073.12a1.091,1.091,0,0,0-.062.123,1.245,1.245,0,0,0-.053.144c-.009.027-.023.052-.03.081a63.678,63.678,0,0,1-5.645,14.241,4.336,4.336,0,0,0-1.189-.171,4.895,4.895,0,1,0,4.613,4.887,5.037,5.037,0,0,0-1.092-3.15,66.561,66.561,0,0,0,5.776-14.326l5.332-2.3a71.542,71.542,0,0,1-16.479,32.3l-3.935-4.642c-.011-.013-.024-.022-.035-.034s-.017-.024-.027-.035-.052-.043-.078-.066a1.647,1.647,0,0,0-.128-.11c-.036-.026-.075-.048-.113-.071a1.47,1.47,0,0,0-.145-.08c-.039-.017-.079-.031-.119-.044a1.27,1.27,0,0,0-.159-.049c-.039-.009-.078-.013-.118-.019a1.363,1.363,0,0,0-.169-.016c-.038,0-.076,0-.114.005a1.433,1.433,0,0,0-.173.019c-.037.007-.074.018-.11.028a1.423,1.423,0,0,0-.168.054c-.037.015-.072.034-.107.052a1.4,1.4,0,0,0-.155.088,1.229,1.229,0,0,0-.1.078,1.256,1.256,0,0,0-.1.079c-.014.013-.023.029-.036.042s-.02.016-.029.025a58.792,58.792,0,0,1-13.843,11,4.476,4.476,0,0,0-3.28-1.457,4.9,4.9,0,1,0,4.612,4.887,5.134,5.134,0,0,0-.032-.558,61.7,61.7,0,0,0,13.54-10.456l3,3.545a64.708,64.708,0,0,1-27.325,16.7l-4.735-3.2a5.132,5.132,0,0,0,.038-.6,4.62,4.62,0,1,0-4.612,4.887,4.467,4.467,0,0,0,3.242-1.416l4.96,3.35a1.418,1.418,0,0,0,.918.24,1.386,1.386,0,0,0,.5-.049,67.744,67.744,0,0,0,29.987-18.551,1.372,1.372,0,0,0,.122-.1,1.539,1.539,0,0,0,.235-.29,75.307,75.307,0,0,0,19.976-49.767h3.862c-.7,36.784-25.452,67.629-59.571,74.2a4.62,4.62,0,0,0-4.232-2.948,4.895,4.895,0,0,0,0,9.773,4.671,4.671,0,0,0,4.453-3.635,74.909,74.909,0,0,0,44.13-26.756,83.03,83.03,0,0,0,18.223-50.636h4.871c-.8,45.825-35.827,82.941-79.079,83.783V346.282c28.873-.846,52.117-25.993,52.117-56.785v-.021c0-30.792-23.244-55.939-52.117-56.785V204.1c43.252.842,78.284,37.958,79.079,83.783h-4.871a83.03,83.03,0,0,0-18.223-50.636,74.9,74.9,0,0,0-44.13-26.756,4.671,4.671,0,0,0-4.453-3.635,4.895,4.895,0,0,0,0,9.773,4.619,4.619,0,0,0,4.232-2.949c34.119,6.574,58.875,37.419,59.571,74.2h-3.862a75.307,75.307,0,0,0-19.976-49.767,1.509,1.509,0,0,0-.235-.29,1.378,1.378,0,0,0-.122-.1A67.746,67.746,0,0,0,369.1,219.181a1.408,1.408,0,0,0-.5-.048,1.424,1.424,0,0,0-.918.239l-4.96,3.351a4.467,4.467,0,0,0-3.242-1.416,4.895,4.895,0,1,0,4.612,4.887,5.117,5.117,0,0,0-.038-.6l4.735-3.2a64.708,64.708,0,0,1,27.325,16.7l-3,3.544a61.726,61.726,0,0,0-13.54-10.455,5.133,5.133,0,0,0,.032-.558,4.62,4.62,0,1,0-4.612,4.886,4.475,4.475,0,0,0,3.28-1.456,58.792,58.792,0,0,1,13.843,11c.009.009.02.015.029.025s.022.029.036.042c.032.03.068.052.1.079a1.233,1.233,0,0,0,.1.078,1.4,1.4,0,0,0,.155.088c.035.018.07.037.107.052a1.426,1.426,0,0,0,.168.054c.036.01.073.021.11.028a1.661,1.661,0,0,0,.173.019c.038,0,.076.005.114.005a1.361,1.361,0,0,0,.169-.016c.04-.006.079-.01.118-.019a1.268,1.268,0,0,0,.159-.049c.04-.014.08-.027.119-.044s.1-.052.145-.08.077-.045.113-.072a1.449,1.449,0,0,0,.128-.109c.026-.023.054-.041.078-.066s.017-.024.027-.035.024-.021.035-.034l3.935-4.642a71.542,71.542,0,0,1,16.479,32.3l-5.332-2.3a66.561,66.561,0,0,0-5.776-14.326,5.037,5.037,0,0,0,1.092-3.15,4.62,4.62,0,1,0-4.613,4.887,4.336,4.336,0,0,0,1.189-.171,63.66,63.66,0,0,1,5.645,14.241c.007.028.021.053.03.081a1.245,1.245,0,0,0,.053.144,1,1,0,0,0,.062.122,1.344,1.344,0,0,0,.073.121,1.247,1.247,0,0,0,.084.108,1.313,1.313,0,0,0,.094.1c.033.031.067.06.1.088a1.123,1.123,0,0,0,.11.082c.041.026.083.049.126.071.026.013.048.03.074.041l7.66,3.306a73.448,73.448,0,0,1,1.031,10.772H413.6a4.645,4.645,0,0,0-4.356-3.3,4.76,4.76,0,0,0-4.612,4.886Zm-2.943,35.6a1.612,1.612,0,1,1-1.609-1.7A1.66,1.66,0,0,1,401.693,325.085Zm-1.609-69.492a1.708,1.708,0,1,1,1.609-1.705A1.661,1.661,0,0,1,400.084,255.593ZM376.6,347.342a1.612,1.612,0,1,1-1.609-1.705A1.661,1.661,0,0,1,376.6,347.342ZM374.99,233.335a1.707,1.707,0,1,1,1.609-1.7A1.66,1.66,0,0,1,374.99,233.335Zm-13.9,119.444a1.612,1.612,0,1,1-1.609-1.7A1.661,1.661,0,0,1,361.089,352.779ZM359.48,227.9a1.707,1.707,0,1,1,1.609-1.7A1.661,1.661,0,0,1,359.48,227.9Zm0,141.035a1.707,1.707,0,1,1,1.609-1.705A1.661,1.661,0,0,1,359.48,368.933Zm1.609-157.188a1.612,1.612,0,1,1-1.609-1.705A1.661,1.661,0,0,1,361.089,211.745ZM399.9,289.486v.011c0,28.817-22.128,52.262-49.328,52.262s-49.328-23.445-49.328-52.262v-.021c0-28.818,22.128-52.263,49.328-52.263S399.9,260.658,399.9,289.476Zm-59.841,77.742a1.612,1.612,0,1,1,1.609,1.705A1.66,1.66,0,0,1,340.063,367.228Zm1.609-157.188a1.707,1.707,0,1,1-1.609,1.705A1.661,1.661,0,0,1,341.672,210.04Zm-1.483,143.4a1.78,1.78,0,0,1-.126-.661,1.612,1.612,0,1,1,1.609,1.705,1.612,1.612,0,0,1-1.478-1.034Zm.005-127.917a1.612,1.612,0,0,1,1.478-1.034,1.707,1.707,0,1,1-1.609,1.705,1.789,1.789,0,0,1,.126-.662ZM324.553,347.342a1.612,1.612,0,1,1,1.609,1.7A1.661,1.661,0,0,1,324.553,347.342Zm1.609-117.416a1.707,1.707,0,1,1-1.609,1.705A1.661,1.661,0,0,1,326.162,229.926Zm-25.1,93.454a1.707,1.707,0,1,1-1.608,1.7A1.661,1.661,0,0,1,301.067,323.38Zm-1.608-69.492a1.611,1.611,0,1,1,1.608,1.705A1.66,1.66,0,0,1,299.459,253.888Z" fill="url(#radial-gradient)"/>
    <g id="Group_27" data-name="Group 27">
      <path id="Path_315" data-name="Path 315" d="M351.857,275.021v.97q0,17.544,0,35.087a8.3,8.3,0,0,0,.021.907c.068.608.318.868.874.941a4.007,4.007,0,0,0,.526.013c3.084,0,6.169.022,9.253-.014a10.959,10.959,0,0,0,2.456-.311,3.462,3.462,0,0,0,2.651-2.827,12.019,12.019,0,0,0,.282-2.113c.047-1.209.02-2.421.021-3.632q0-13.333-.007-26.666a15.545,15.545,0,0,0-.171-2.461,3.763,3.763,0,0,0-3.277-3.536,11.434,11.434,0,0,0-1.945-.172c-2.633-.019-5.266-.008-7.9-.008h-.973c4.125-7.87,8.21-15.615,12.354-23.331-1.5,4.15-3.152,8.23-4.77,12.476h.975a32.915,32.915,0,0,1,5.629.276,12.774,12.774,0,0,1,8.667,5.243,15.543,15.543,0,0,1,2.656,7.434,28.9,28.9,0,0,1,.174,3.21q.018,15.561.01,31.124a22.341,22.341,0,0,1-.676,5.873c-1.408,5.213-4.6,8.37-9.362,9.692a17.68,17.68,0,0,1-4.772.571q-10.945,0-21.892,0c-1.716,0-2.2-.529-2.2-2.4q-.008-12.217.008-24.437a2.471,2.471,0,0,1,.246-1.09q5.376-10.268,10.783-20.514c.06-.115.134-.222.2-.332Z" fill="url(#linear-gradient)"/>
      <path id="Path_316" data-name="Path 316" d="M324.112,322.511c1.6-4.1,3.2-8.207,4.84-12.4-.309-.026-.524-.057-.739-.06-1.454-.022-2.91.005-4.362-.066a14.47,14.47,0,0,1-5.476-1.322c-3.886-1.817-6.238-5.064-7.159-9.537a25.205,25.205,0,0,1-.485-4.492c-.072-3.272-.025-6.548-.025-9.822a4.653,4.653,0,0,1,.034-.658A1.529,1.529,0,0,1,312,282.724a4.419,4.419,0,0,1,.9-.088q3.5-.01,6.995,0c1.709.005,2.225.583,2.229,2.49.005,2.7-.011,5.393.01,8.089a14.051,14.051,0,0,0,.174,2.295,3.818,3.818,0,0,0,3.5,3.58,13.707,13.707,0,0,0,1.8.133c1.655.017,3.311.04,4.964-.009a11.356,11.356,0,0,0,2.453-.328,3.361,3.361,0,0,0,2.492-2.689,14.212,14.212,0,0,0,.3-1.946c.05-.517.025-1.044.025-1.567q0-21.666,0-43.334a8.062,8.062,0,0,1,.087-1.31,1.462,1.462,0,0,1,1.2-1.3,5.4,5.4,0,0,1,1.045-.106c2.281-.009,4.563.009,6.844-.009,1.648-.013,2.259.611,2.253,2.456-.029,8.419-.016,16.838-.005,25.257a2.874,2.874,0,0,1-.348,1.4q-12.131,23.037-24.25,46.079c-.137.261-.284.515-.426.772Z" fill="url(#linear-gradient)"/>
    </g>
    <path id="Path_317" data-name="Path 317" d="M250,421.072v-4.527a3.882,3.882,0,0,0,1.235.182c1.508,0,2.228-.95,2.228-3.033v-24.3h3.772v24.168c0,5.206-1.783,7.694-5.486,7.694A6.956,6.956,0,0,1,250,421.072Zm9.806-7.514V389.39h3.771v24.531c0,2.263.72,3.077,1.92,3.077s1.921-.814,1.921-3.077V389.39h3.634v24.168c0,5.069-1.92,7.966-5.623,7.966S259.806,418.627,259.806,413.558Zm13.268,0v-1.81h3.566v2.173c0,2.263.755,3.077,1.955,3.077s1.954-.814,1.954-3.168c0-2.625-.754-4.3-3.223-7.151-3.155-3.666-4.183-6.245-4.183-9.866,0-4.979,1.954-7.875,5.623-7.875s5.486,2.9,5.486,7.965v1.312h-3.566v-1.629c0-2.263-.686-3.123-1.886-3.123s-1.886.86-1.886,3.033c0,2.308.789,3.983,3.258,6.834,3.154,3.665,4.149,6.2,4.149,10.138,0,5.159-1.989,8.056-5.692,8.056S273.074,418.627,273.074,413.558Zm16.355-19.642h-3.944V389.39h11.658v4.526H293.2v27.156h-3.771Zm15.016-4.526h5.761c3.772,0,5.623,2.761,5.623,7.83v16.022c0,5.069-1.851,7.83-5.623,7.83h-5.761Zm5.692,27.155c1.2,0,1.92-.815,1.92-3.077V396.993c0-2.262-.72-3.077-1.92-3.077h-1.92v22.629Zm8.228-27.155h10.286v4.526h-6.514v8.373h5.177v4.526h-5.177v9.73h6.514v4.527H318.365Zm11.451,0h3.806l2.469,24.576h.068l2.469-24.576h3.463l-3.634,31.682h-5.006Zm14.091,0h10.287v4.526h-6.515v8.373h5.177v4.526h-5.177v9.73h6.515v4.527H343.907Zm12.446,0h3.772v27.155h6.206v4.527h-9.978Zm11.382,24.168V396.9c0-5.069,2.023-7.965,5.726-7.965s5.727,2.9,5.727,7.965v16.655c0,5.069-2.024,7.966-5.727,7.966S367.735,418.627,367.735,413.558Zm7.681.318v-17.29c0-2.263-.755-3.123-1.955-3.123s-1.954.86-1.954,3.123v17.29c0,2.262.754,3.122,1.954,3.122S375.416,416.138,375.416,413.876Zm6.308-24.486h5.555c3.771,0,5.623,2.761,5.623,7.83v3.123c0,5.069-1.852,7.83-5.623,7.83H385.5v12.9h-3.772Zm5.555,14.257c1.2,0,1.851-.725,1.851-2.987V396.9c0-2.263-.651-2.987-1.851-2.987H385.5v9.731Zm7.679-14.257h5.383l2.4,22.675h.069l2.4-22.675h5.383v31.682h-3.566V397.084h-.068l-2.743,23.988h-3.155l-2.743-23.988h-.069v23.988h-3.291Zm18.445,0H423.69v4.526h-6.515v8.373h5.178v4.526h-5.178v9.73h6.515v4.527H413.4Zm12.446,0h4.732l3.669,18.964h.068V389.39h3.36v31.682H433.8l-4.526-23.128h-.069v23.128h-3.36Zm17.589,4.526h-3.943V389.39h11.657v4.526h-3.943v27.156h-3.771Z" fill="url(#radial-gradient-2)"/>
  </g>
</svg>
